<svg xmlns="http://www.w3.org/2000/svg" viewBox="0 0 768 1024"><path fill="#507338" d="M438 513c3.47 2.03 5.7 4.11 7 8 .65 6.98.09 13.45-1.66 20.23-.17.68-.35 1.37-.53 2.07-2.08 7.96-4.47 15.84-6.84 23.72-4.04 13.5-7.91 27-11.09 40.73-.28 1.16-.55 2.32-.82 3.52-1.7 7.53-2.98 15.09-4.06 22.73q.96-.825 1.95-1.68c7.52-6.38 16.66-13.61 27.07-12.85 3.61.97 5.45 2.81 7.98 5.53 1.71 5.14 1.76 9.86-.47 14.79-.66 1.29-1.34 2.57-2.03 3.83-.36.7-.72 1.39-1.09 2.11-2.32 4.41-4.84 8.68-7.41 12.96-8.11 13.98-12.77 29.79-17 45.31.85.15.85.15 1.72.3q1.155.225 2.34.45c.76.14 1.51.28 2.29.42 3.57 1.12 6.44 2.9 9.65 4.83.09-.99.17-1.97.26-2.99 2.67-27.97 7.81-56.31 21.74-81.01.61-1.11 1.22-2.22 1.85-3.36 6.85-12.11 6.85-12.11 11.15-16.64h2v-2h2v-2c4.22-4.23 9-7 14.89-8.02 3.61.03 5.51 1.67 8.11 4.02 4.84 5.45 4.2 12.36 3.82 19.31-2.41 22.06-9.76 42.57-20.82 61.69 1.49-.72 1.49-.72 3-1.46 1.33-.64 2.67-1.28 4-1.92.65-.31 1.3-.63 1.96-.96 7.44-3.53 16.01-6.6 24.18-3.97 4.79 2.13 7.74 4.37 9.86 9.31 1.77 12.95-3.63 20.94-11 31l-2 3h-2v2h-2v2h-2v2c-1.39 1.29-1.39 1.29-3.33 2.76-.71.54-1.42 1.08-2.16 1.63-.76.57-1.53 1.15-2.32 1.73-.78.59-1.56 1.18-2.36 1.78-4.23 3.2-8.51 6.33-12.83 9.41-10.93 7.94-18.09 14.77-20.3 28.57-.67 5.68-.75 11.28-.69 16.98.01.8.01 1.6.02 2.42.04 3.33.08 6.67.14 10.01q.06 3.69.09 7.38c.03 1.12.03 1.12.05 2.27.04 6.39-1.61 10.24-5.93 14.87-3.79 2.89-7.69 3.5-12.38 3.19-2.87-.76-5.29-1.77-8-3v-2h-2c-4.03-6.69-4.55-11.78-4.39-19.5.01-1.08.01-2.15.02-3.26.02-3.41.07-6.83.12-10.24.02-2.32.04-4.65.05-6.97.05-5.68.12-11.35.2-17.03l-2.27 2.3-2.98 3.01-1.49 1.52c-2.1 2.12-4.11 4.07-6.59 5.75-1.86 1.29-1.86 1.29-2.15 3.49 0 1.16 0 1.16.01 2.35-.01.86-.03 1.72-.04 2.61.01 1.8.01 3.6.02 5.39-.1 6.06-.91 9.64-4.51 14.58-3.18 2.72-6.94 4.09-11 5 .02 1.53.02 1.53.05 3.09.05 3.81.09 7.61.11 11.42.02 1.65.04 3.29.07 4.93.03 2.38.05 4.75.06 7.12.02.73.03 1.45.05 2.2 0 5.36-1.13 9.34-3.34 14.24-3.84 3.75-7.06 5.14-12.38 5.25-5.3-.07-7.95-1.76-11.87-5.25-3.94-4.5-3.05-10.36-2.75-16 .53-4.03 1.22-8.01 2-12-.77.48-.77.48-1.55.98-5.77 2.4-14.29 2.05-20.21.12-2.18-1.1-2.18-1.1-5.24-3.1v-2h-2c-2.59-5.99-3.42-10.7-3.25-17.19.01-.78.01-1.56.02-2.36.05-3.94.28-7.61 1.23-11.45-.92-.29-.92-.29-1.86-.59-1.22-.39-1.22-.39-2.45-.79-.8-.25-1.6-.51-2.43-.77C339 784 339 784 336 782l.06 1.97c.09 2.99.14 5.98.19 8.97.03 1.02.07 2.04.1 3.09.09 6.91-.96 11.93-4.35 17.97h-2v2c-4.79 2.81-9.59 2.63-15 2-4.51-2.17-6.86-4.49-9-9-.98-3.19-1.16-6.17-1.25-9.51-.03-1.07-.06-2.14-.1-3.24-.06-2.23-.11-4.45-.17-6.68-.25-13.78-.25-13.78-6.48-25.57-7.01-4.99-14.58-7.9-22.62-10.75-10.57-3.89-20.48-8.26-29.38-15.25v-2h-2v-2h-2c-1.47-2.08-1.47-2.08-3.06-4.81-.53-.9-1.06-1.79-1.6-2.71-2.59-4.79-3-9.13-2.34-14.48 2.69-5.29 5.93-8.93 11.6-10.91 13.86-3.85 28-2.85 40.78 4.1 1.55.92 3.09 1.85 4.62 2.81-.45-.98-.89-1.96-1.36-2.97-6.8-15.1-11.41-29.6-13.64-46.03-.1-.69-.19-1.38-.29-2.09-1.53-11.44-2.6-26.95 4.29-36.91 2.91-2.5 4.47-2.98 8.31-3.12 9.26 2.82 14.3 10.96 18.69 19.12 4.59 9.01 8.32 18.29 11.31 27.94.35 1.08.35 1.08.7 2.19 4.56 15.56 5.59 31.97 6.68 48.06l.39 5.52c.32 4.43.62 8.86.92 13.29.82-.43.82-.43 1.65-.88.76-.37 1.51-.74 2.29-1.12l2.21-1.12c3.97-1.22 7.73-1.04 11.85-.88-5.6-54.76-15.31-106.66-32.95-158.88-3.05-9.06-4.83-18.38-1.93-27.74 2.4-3.04 4.2-4.18 7.88-5.38 5.21-.4 7.96 1.45 11.81 4.69 22.9 21.99 37.04 57.09 44.19 87.31 1.5-4.21 2.51-8.3 3.31-12.69 5.67-29.39 16.26-56.67 31.69-82.31h2c.22-.69.44-1.38.67-2.09 1.69-3.69 3.96-6.46 6.58-9.53.47-.58.93-1.15 1.41-1.74 4.76-5.64 9.71-8.73 17.34-7.64"/><path fill="#4d7135" d="M506.188 596.938c3.99 3.62 4.47 7.87 4.81 13.06.82 24.19-9.45 48.34-21 69 .99-.48 1.98-.96 3-1.46 1.34-.64 2.67-1.27 4-1.91.65-.32 1.3-.64 1.97-.96 7.43-3.54 16-6.6 24.17-3.98 4.79 2.13 7.74 4.37 9.86 9.31 1.78 12.95-3.63 20.95-11 31l-2 3h-2v2h-2v2h-2v2c-1.38 1.3-1.38 1.3-3.33 2.76-.71.54-1.42 1.08-2.15 1.63-.77.58-1.54 1.15-2.33 1.74-.78.58-1.55 1.17-2.35 1.78-4.24 3.19-8.52 6.32-12.84 9.41-10.93 7.93-18.08 14.77-20.3 28.56-.67 5.68-.75 11.28-.69 16.98.01.8.02 1.6.02 2.42.04 3.34.08 6.67.14 10.01.05 2.46.07 4.92.09 7.38l.06 2.27c.03 6.39-1.62 10.24-5.94 14.88-3.78 2.89-7.69 3.49-12.38 3.18-2.86-.75-5.28-1.76-8-3v-2h-2c-3.46-6.01-4.57-10.26-4.42-17.14 0-1.28 0-1.28.01-2.58.01-2.7.06-5.39.1-8.09l.03-5.39c.06-8.64.23-17.21 1.28-25.8-2.6-1.56-2.6-1.56-6-2-2.69 1.66-4.82 3.73-7 6 .59-3.74 2.19-5.59 4.69-8.37 7.54-9.26 11-18.64 10.91-30.57-.73-3.71-1.94-5.39-4.6-8.06-4.59-3.04-9.71-2.77-15-2-12.18 4.48-20.56 11.89-26.26 23.59-3.77 9.11-5.04 17.47-5.3 27.23-.23 5.98-.23 5.98-2.44 8.18-.37-.53-.74-1.05-1.12-1.6-13.71-19.45-13.71-19.45-33.88-31.4-.83-.36-1.67-.72-2.53-1.1-3.16-1.15-6.05-1.28-9.38-1.46-2.59-.54-3.52-1.33-5.09-3.44v-3c2.41-1.2 3.95-1.1 6.63-1.06 1.22.01 1.22.01 2.47.03.94.01.94.01 1.9.03-.16-.86-.33-1.73-.5-2.62-.89-6.08-.57-12.26-.5-18.38 1.98-.49 1.98-.49 4-1l1-7c2.35 3.78 2.67 7.8 3.13 12.13.08.75.17 1.51.25 2.28.6 5.56.8 11 .62 16.59.66.08 1.32.17 2 .25 6.39 1.6 11.19 4.77 16.27 8.9.89.73 1.78 1.45 2.7 2.19.67.55 1.34 1.1 2.03 1.66.34-16.94.14-33.68-1.43-50.56-.07-.73-.14-1.45-.21-2.2-.54-5.69-1.09-11.37-1.9-17.02-.54-3.82-.52-7.37-.46-11.22l4 2v2h2v-5c2.69 2.69 2.5 4.35 2.94 8.13q.12 1.005.24 2.04c.29 2.61.56 5.22.82 7.83.12 1.18.24 2.36.37 3.57 1.62 16.13 3.07 32.23 3.63 48.43.48-.91.48-.91.96-1.83 6.96-12.49 15.97-19.86 29.04-25.17h2l2-13 3-1-2 6c3.05 1.01 3.05 1.01 6 0v6c.57.1 1.14.2 1.73.3a330 330 0 0 0 4.62.87c3.58 1.12 6.44 2.9 9.65 4.83.13-1.48.13-1.48.26-2.99 2.67-27.97 7.81-56.31 21.74-81.01.61-1.11 1.22-2.22 1.85-3.36 6.85-12.11 6.85-12.11 11.15-16.64h2v-2h2v-2c6.82-6.36 13.62-10.27 22.19-5.06"/><path fill="#507338" d="M433 713c4.03 2.02 6.66 4.17 9 8 1.75 10.29-.93 19.09-6 28-2.04 2.84-4.15 5.49-6.46 8.11-1.75 1.74-1.75 1.74-1.54 3.89l5-5 4 2c0 4 0 4-2.05 6.47-.89.86-1.78 1.71-2.7 2.59-.88.86-1.76 1.72-2.67 2.6C427 772 427 772 424.7 773.2c-3.4 3.59-2.21 9.52-2.19 14.22-.1 6.06-.91 9.64-4.51 14.58-3.18 2.72-6.94 4.09-11 5 .02 1.02.03 2.04.05 3.09.05 3.81.09 7.61.11 11.42.02 1.65.04 3.29.07 4.93.03 2.38.05 4.75.06 7.12.02.73.03 1.45.05 2.2 0 5.36-1.13 9.34-3.34 14.24-3.84 3.75-7.06 5.14-12.38 5.25-5.3-.07-7.95-1.76-11.87-5.25-3.94-4.5-3.05-10.36-2.75-16 .53-4.03 1.22-8.01 2-12-.77.48-.77.48-1.55.98-5.77 2.4-14.29 2.05-20.21.12-2.18-1.1-2.18-1.1-5.24-3.1v-2h-2c-2.66-6.1-3.4-10.89-3.19-17.5.02-.82.03-1.64.04-2.49.04-2.01.09-4.01.15-6.01 1.49.5 1.49.5 3 1l1 13 4-2c.71-3.34.71-3.34.75-7.12.06-1.29.11-2.57.17-3.89.03-.99.05-1.97.08-2.99 1.6.14 3.21.29 4.81.44 1.34.12 1.34.12 2.71.24C366 791 366 791 369 792c2.33.04 4.67.04 7 0l2-5c-1.51-.36-1.51-.36-3.04-.73-34.27-8.36-34.27-8.36-42.96-21.27-3.33-5.87-4.71-11.08-3.68-17.8 1.42-4.6 4.85-6.65 8.68-9.2 11.29-1.54 20.68 1.59 29.75 8.25 8.73 7.31 14.98 16.36 21.25 25.75 1.82-1.82 1.17-4.35 1.24-6.78.5-16.31 4.56-30.09 15.77-42.4 7.99-7.3 17.2-11.12 27.99-9.82"/><path fill="#65933e" d="m433 521 3 1c.39 8.93-.41 16.46-3 25-.35 1.17-.35 1.17-.72 2.37-1.14 3.77-2.29 7.53-3.45 11.3-7.19 23.49-13.18 47.07-17.73 71.21-.27 1.43-.54 2.86-.82 4.29-1.74 9.01-2.66 17.64-2.28 26.83.58-.86 1.16-1.71 1.76-2.6 19.73-28.98 19.73-28.98 34.5-31.84 1.93 0 1.93 0 4.74.44.42 5.11-.87 8.36-3.38 12.69-.73 1.34-1.47 2.67-2.21 4.01-1.2 2.16-2.42 4.31-3.64 6.46-5.37 9.47-9.77 18.87-13.21 29.22-.34 1.02-.68 2.05-1.03 3.1-1.34 4.2-2.61 8.27-3.13 12.65-.41 3.44-.72 5.84-2.4 8.87-3.62 2.72-7.84 4.35-11.97 6.12-8.92 3.91-13.9 11.66-18.72 19.79-.43.69-.86 1.38-1.31 2.09h-1c-.04-.8-.09-1.59-.14-2.41-.22-3.85-.44-7.69-.67-11.53-.05-.71-.09-1.42-.13-2.15a843 843 0 0 0-2.48-30.95c-.98-10-1.86-19.96-1.89-30.02-.01-.79-.01-1.58-.02-2.39.16-13.6 2.79-26.88 5.95-40.05.18-.73.35-1.46.53-2.22 7.25-30.37 17.94-66.42 41.85-88.28l1.81-1.81z"/><path fill="#5c8b3c" d="M499.125 603.313c1.88.69 1.88.69 2.88 1.69 2.53 26.55-9.44 51.88-21.97 74.44-6 10.86-12.03 22.9-12.03 35.56.4-.61.8-1.21 1.21-1.84 10.26-15.12 24.3-29.84 42.79-34.16 8.02-.65 8.02-.65 12 2 1.69 6.61-.5 12.89-3.67 18.66-8.32 12.67-21.09 21.76-33.48 30.07-13.73 9.37-21.32 18.85-24.85 35.27-.1 1.54-.14 3.08-.15 4.63l-.02 2.76c0 .97-.01 1.95-.01 2.96-.02 2.06-.05 4.13-.07 6.2-.04 3.27-.07 6.53-.08 9.79-.02 3.15-.06 6.29-.1 9.44 0 .98 0 1.96.01 2.97-.02.9-.04 1.81-.05 2.75-.01.8-.02 1.59-.02 2.42-.51 2.08-.51 2.08-2.33 3.83-3.21 1.83-5.56 1.71-9.18 1.25-2.72-2.79-3.38-4.78-3.38-8.62 0-.91-.01-1.83-.02-2.77l.03-2.98v-3.13c0-2.2.01-4.39.03-6.59.02-3.28.02-6.56.01-9.84.02-13.47.77-26.7 2.33-40.07.21-1.96.21-1.96.44-3.96 11.71-101.27 11.71-101.27 44.56-131.04 3-2 3-2 5.12-1.69"/><path fill="#86b44d" d="M320 546c9.73 2.36 15.72 14.9 20.69 22.84 7.93 13.08 14.03 26.83 19.31 41.16.27.72.55 1.45.83 2.2 5.18 13.89 8.27 28.28 11.17 42.8.3 1.49.3 1.49.6 3.01 5.68 29.11 6.97 58.41 6.4 87.99-.53-.4-1.06-.8-1.61-1.22-1.06-.8-1.06-.8-2.14-1.61-.7-.53-1.39-1.05-2.11-1.6-4.56-3.35-8.96-6.18-14.28-8.14-.72-.27-1.45-.54-2.19-.82-.83-.3-.83-.3-1.67-.61-.13-1.25-.26-2.5-.4-3.79-5.6-53.58-15.32-104.31-31.28-155.8-.2-.66-.41-1.33-.62-2.01-.91-2.9-1.83-5.79-2.83-8.66-1-3.14-1.1-5.77-1.06-9.05.01-1.05.02-2.1.02-3.18C319 547 319 547 320 546"/><path fill="#81af4c" d="M287 626c4.7.75 6.28 3.14 9.01 6.85 17.01 26.91 20.96 58.28 22.6 89.4.19 3.7.41 7.37.92 11.05.47 3.68.61 7.26.71 10.96.22 7.69.63 14.42 3.82 21.55 1.84 4.3 2.06 8.36 2 13-.01.98-.02 1.95-.02 2.96-.02.74-.03 1.47-.04 2.23-.27-.57-.54-1.14-.82-1.72-3.38-6.54-7.87-14.84-15.18-17.28-.69-2.06-.69-2.06-1-4h-2c-.55-.75-1.11-1.49-1.68-2.26-2.74-3.24-5.68-4.83-9.44-6.62-.7-.33-1.4-.67-2.11-1.02-5.24-2.51-10.59-4.66-16.02-6.72-27.12-10.33-27.12-10.33-33.75-23.38-.73-3.06-.46-4.75 0-8 7.01-6.08 15.14-5.56 23.91-5.18 4.79.41 8.82 2.08 13.09 4.18l2.69 1.21c10.07 4.95 17.49 12.93 25.31 20.79-2.34-9.95-5-19.59-8.88-29.06-.34-.84-.68-1.67-1.03-2.53-1.63-3.96-3.3-7.9-5.02-11.83-8.25-19.35-11.63-41.71-8.07-62.58z"/><path fill="#4f7338" d="M506.188 596.938c3.99 3.62 4.47 7.87 4.81 13.06.82 24.19-9.45 48.34-21 69 .99-.48 1.98-.96 3-1.46 1.34-.64 2.67-1.27 4-1.91.65-.32 1.3-.64 1.97-.96 7.43-3.54 16-6.6 24.17-3.98 4.79 2.13 7.74 4.37 9.86 9.31 1.78 12.95-3.63 20.95-11 31l-2 3h-2v2h-2v2h-2v2c-1.38 1.3-1.38 1.3-3.33 2.76-.71.54-1.42 1.08-2.15 1.63-.77.58-1.54 1.15-2.33 1.74-1.16.88-1.16.88-2.35 1.78-4.24 3.19-8.52 6.32-12.84 9.41-10.92 7.93-18.09 14.76-20.3 28.56-1.15 9.83-.73 19.76-.6 29.64.03 2.48.05 4.96.06 7.45.02.76.03 1.52.04 2.31.02 3.8-.04 5.48-2.2 8.72-.87-5.85-1.07-11.4-.88-17.31.03-.85.05-1.71.08-2.59.07-2.7.16-5.4.24-8.1.05-1.84.11-3.68.16-5.52.13-4.5.26-8.99.4-13.48h-1l-1 5-5-1c.31-12.15 3.94-23.06 12.56-31.77 5.96-5.44 12.27-10.14 18.94-14.67 5.98-4.05 11.28-8.58 16.5-13.56.72-.63 1.44-1.27 2.19-1.92 6.13-5.61 11.14-12.64 12.18-21.07.01-2.37-.09-4.65-.37-7.01-4.44-2.22-9.35-1.42-13.99-.23-16.6 5.76-28.52 17.1-38.09 31.44-1.92 2.79-1.92 2.79-3.92 4.79.07-17.47 8.9-32.07 17-47 5.61-10.34 9.71-20.74 13-32 .22-.72.43-1.45.65-2.2 2.96-10.4 3.88-20.01 3.35-30.8-1.74-.86-1.74-.86-4-1-2.46 1.55-2.46 1.55-4.81 3.88-.81.74-1.62 1.48-2.46 2.24-6.46 6.83-11.23 14.08-15.48 22.44-.7 1.35-.7 1.35-1.42 2.71-2.65 5.15-4.91 10.27-6.83 15.73-1.09-.22-2.18-.45-3.31-.68-1.22-.11-2.43-.21-3.69-.32-1.74 1.41-1.74 1.41-3 3 3.23-15.87 12.85-35.26 24-47h2v-2h2v-2c6.82-6.36 13.62-10.27 22.19-5.06"/><path fill="#88b451" d="M499.125 603.313c1.88.69 1.88.69 2.88 1.69 2.54 26.56-9.46 51.88-21.97 74.45-5.69 10.3-9.51 20.5-12.18 31.92-1.46 6.18-3.33 11.73-6.23 17.38-6.26 12.34-8.93 24.09-11.17 37.65-.69 3.9-1.56 7.74-2.45 11.6h-1c-.31-12.81.52-25.29 2-38 .12-1.12.25-2.23.39-3.38 12.02-102.08 12.02-102.08 44.61-131.62 3-2 3-2 5.12-1.69"/><path fill="#54773d" d="M292 708v-2h2c-.48 6.36-.48 6.36-2.69 9.06-2.31.94-2.31.94-5 .38-3.4-1.48-6.8-2.97-10.16-4.54-7.49-3.14-18.27-3.41-26.04-1.01-2.36 1.15-2.36 1.15-5.11 3.11-.53 4.95-.49 7.94 2.44 12.06 8.88 10.55 20.85 15.26 33.5 19.88 20.54 7.49 20.54 7.49 26.06 14.06v2h2c.5 1.98.5 1.98 1 4 .59.1 1.18.2 1.79.31 6.22 1.94 10.19 8.82 13.26 14.19.32.49.63.99.95 1.5h1c.06 4.1.09 8.21.12 12.31l.06 3.54c0 1.12.01 2.24.02 3.39l.03 3.12C327 806 327 806 325 809c-3.13.19-3.13.19-6 0v3c.58.29 1.15.58 1.75.88 2.08 1.04 4.17 2.08 6.25 3.12l-1 2c-9.71.62-9.71.62-14.5-1.69-4.39-4.05-6.28-8-6.67-13.9-.03-.96-.05-1.93-.08-2.92-.03-1.07-.06-2.14-.1-3.24-.06-2.23-.11-4.45-.17-6.68-.25-13.78-.25-13.78-6.48-25.57-7.01-4.99-14.58-7.9-22.62-10.75-10.57-3.89-20.48-8.26-29.38-15.25v-2h-2v-2h-2c-1.47-2.08-1.47-2.08-3.06-4.81-.53-.9-1.06-1.79-1.6-2.71-2.59-4.79-3-9.13-2.34-14.48 2.69-5.29 5.93-8.93 11.6-10.91 16.05-4.46 31.32-1.97 45.4 6.91"/><path fill="#6fa141" d="M340 629c4.4 3.15 7.19 6.64 10.19 11.06.47.7.94 1.39 1.43 2.11 11.67 17.56 19.79 36.28 24.38 56.83h2c.93 10.49 1.12 20.86 1.06 31.38 0 1.52-.01 3.05-.01 4.57-.01 3.69-.03 7.37-.05 11.05-.53-.4-1.06-.8-1.61-1.22-1.06-.8-1.06-.8-2.14-1.61-.7-.53-1.39-1.05-2.11-1.6-4.56-3.35-8.96-6.18-14.28-8.14-.72-.27-1.45-.54-2.19-.82-.55-.2-1.1-.4-1.67-.61-.13-1.25-.26-2.5-.4-3.79-3.34-31.97-6.96-63.47-14.11-94.84C340 631 340 631 340 629"/><path fill="#89b64f" d="M433 713c4.03 2.02 6.66 4.17 9 8 1.94 11.42-1.56 21.4-7.9 30.82-1.94 2.5-3.96 4.85-6.1 7.18l-1.8 2.04c-4.53 4.86-9.66 8.49-15.11 12.23-4.28 2.99-7.71 6.2-10.95 10.33-.38.46-.75.92-1.14 1.4h-1c-1.45-14.43 5.04-27.29 13-39 1.8-2.18 3.64-4.26 5.62-6.28 1.53-1.9 1.97-3.34 2.38-5.72-14.41 5.47-19.71 17.77-25.71 31.11-.43.95-.85 1.91-1.29 2.89h-2c-.84-16.65 2.68-30.07 13.25-43.25 7.81-8.57 18.24-13.14 29.75-11.75"/><path fill="#719f43" d="M287 626c4.7.75 6.28 3.14 9.01 6.85 17.01 26.91 20.96 58.28 22.6 89.4.19 3.73.42 7.42.94 11.13.51 4.07.56 8.02.51 12.12 0 .73-.01 1.45-.01 2.2-.01 1.77-.03 3.53-.05 5.3h-2c-.39-.99-.78-1.98-1.19-3-1.54-3.64-3.52-6.83-5.72-10.11-1.15-1.99-1.57-3.65-2.09-5.89-2.36-9.95-5.01-19.58-8.88-29.06-.51-1.26-.51-1.26-1.03-2.53-1.63-3.96-3.3-7.9-5.02-11.83-8.25-19.35-11.63-41.71-8.07-62.58z"/><path fill="#476d2d" d="M380 663c2.69 2.69 2.5 4.35 2.94 8.12.08.68.15 1.35.23 2.05.3 2.61.56 5.22.83 7.83.12 1.18.24 2.35.36 3.57 1.63 16.12 3.08 32.23 3.64 48.43.32-.61.63-1.21.96-1.84 4.49-8.06 10.31-15.01 18.04-20.16 1.49.5 1.49.5 3 1-.68.54-1.36 1.07-2.06 1.62-.64.79-1.28 1.57-1.94 2.38.21.93.42 1.86.64 2.81.36 3.19.36 3.19-1.37 5.9-.81.88-1.62 1.76-2.46 2.67-9.72 11.2-12.07 23.05-12.43 37.65-.18 5.77-.18 5.77-2.38 7.97-.37-.53-.74-1.06-1.13-1.6-13.7-19.46-13.7-19.46-33.87-31.4-.84-.36-1.67-.73-2.54-1.1-3.15-1.15-6.05-1.28-9.37-1.46-2.59-.55-3.53-1.33-5.09-3.44v-3c2.41-1.2 3.95-1.1 6.62-1.06.82.01 1.64.02 2.48.02.63.02 1.25.03 1.9.04-.17-.87-.33-1.73-.5-2.62-.89-6.08-.58-12.26-.5-18.38 1.98-.5 1.98-.5 4-1l1-7c2.35 3.78 2.66 7.8 3.12 12.12.09.76.17 1.51.26 2.29.59 5.56.8 11 .62 16.59.66.08 1.32.16 2 .25 6.38 1.6 11.19 4.77 16.27 8.9.89.72 1.78 1.44 2.69 2.19.68.54 1.35 1.09 2.04 1.66.34-16.94.13-33.68-1.44-50.56-.06-.73-.13-1.46-.2-2.2-.54-5.69-1.09-11.37-1.9-17.03-.55-3.81-.53-7.37-.46-11.21l4 2v2h2z"/><path fill="#89b650" d="M356.25 740.063c8.57 4.02 16.4 10.02 21.75 17.94v3l-7-2v-2c-.89-.13-1.77-.25-2.69-.38-3.31-.62-3.31-.62-5.68-1.68-3.66-1.31-6.76-1.07-10.63-.94v4l3.3 1.21c13.08 4.99 23.51 10.69 31.69 22.53 1.01 2.26 1.01 2.26.74 4.49-.73 1.77-.73 1.77-1.73 2.77-3.59.56-5.88-.33-9.04-1.87-5-2.28-9.98-3.4-15.33-4.51-12.18-2.72-22.63-6.83-29.91-17.49-3.14-5.56-4.57-11.85-3.31-18.18 1.09-3.06 2.72-5.08 4.96-7.39 7.57-3.26 15.31-2.42 22.88.5"/><path fill="#6ea141" d="M419 734c-.52 4.2-1.74 6.2-4.56 9.31-3.63 4.35-6.26 8.77-8.75 13.81-.33.66-.65 1.32-.99 1.99-3.29 6.84-6.14 12.84-5.82 20.58.21 5.9.21 5.9-.38 8.67-.52 2.72-.59 5.15-.55 7.92.01 1.03.03 2.05.04 3.11.02 1.1.03 2.2.05 3.33.03 2.34.05 4.67.07 7.01.03 3.67.08 7.35.14 11.03.05 3.55.08 7.1.11 10.65.02 1.1.04 2.2.07 3.34 0 1.02 0 2.05.01 3.1l.03 2.73c-.63 3.21-1.95 4.4-4.47 6.42-2.56.44-2.56.44-5 0-1.99-1.55-2.9-2.42-3.34-4.93.02-1.1.02-1.1.05-2.22l.03-2.52c.03-1.34.03-1.34.07-2.71.01-.93.03-1.86.04-2.82.05-3.97.13-7.94.21-11.91.06-2.91.09-5.81.13-8.71.03-1.33.03-1.33.07-2.68.07-6.06-1.05-10.88-3.26-16.5l-1-3 5-2c-.31-3.57-1.26-5.54-3.56-8.19C381 776 381 776 381 774c-.86-.39-.86-.39-1.73-.8-2.42-1.28-4.41-2.79-6.58-4.45-4.95-3.57-10.02-5.66-15.78-7.53-1.88-.67-1.88-.67-4.91-2.22-1-2.62-1-2.62-1-5 1-1 1-1 4.38-1.31 5.6.03 10.51 2.2 15.62 4.31v2l7 2 1-2 9 13 2-4h2c.08-.65.16-1.31.25-1.98 1.02-4.1 2.84-7.56 4.81-11.27.4-.75.8-1.51 1.22-2.29C402.74 744.32 408.72 734 419 734"/><path fill="#89b450" d="M449 629c.42 5.11-.87 8.36-3.38 12.69-.73 1.31-1.45 2.62-2.18 3.93l-1.19 2.12c-2.28 4.11-4.44 8.28-6.63 12.45-.42.81-.85 1.62-1.29 2.46-2.26 4.25-2.26 4.25-4.33 8.58-.33.58-.66 1.17-1 1.77-2.07.4-2.07.4-4.56.38-10.16.69-15.91 7.83-22.28 15.13-.71.82-1.42 1.64-2.16 2.49-.99 1.01-1.98 2.02-3 3 4.31-24.15 17.66-46.48 37.6-60.88 5-3.25 8.42-4.9 14.4-4.12"/><path fill="#6fa141" d="M424.25 672.875c.89.02 1.78.04 2.7.05 1.02.04 1.02.04 2.05.07-.17.56-.34 1.12-.52 1.7-1.54 5.11-3.06 10.24-4.54 15.37-.36 1.19-.72 2.38-1.08 3.6-.74 2.88-.96 5.28-1.11 8.21-.42 2.12-.42 2.12-1.75 4.12-3.19 1.91-6.37 3.47-9.75 4.98-6.44 2.9-10.62 6.71-15.25 12.02a471 471 0 0 1-5 5c1.06-11.96 2.97-23.37 6-35h2c1.43-1.64 2.79-3.33 4.13-5.06 12.26-15.32 12.26-15.32 22.12-15.06"/><path fill="#709e43" d="M521 679c3 2 3 2 3.5 3.96.26 10.35-4.48 18.23-11.25 25.79-3.48 3.27-5.81 4.91-10.63 5.13-3.26-.35-4.48-.78-7.18-2.76-3.24-4.78-3.04-9.46-2.44-15.12 1.06-2.71 2.3-4.61 4-7h2v-2c6.09-6.63 13.06-9.16 22-8"/><path fill="#4f7237" d="M506.188 596.938c3.98 3.61 4.51 7.88 4.81 13.06-.14 6.42-.62 12.72-2 19h-1c-.49-3.96-.49-3.96-1-8h1v-17l-1 4-4 1v6h-1l-1-10-4-1c-2.46 1.55-2.46 1.55-4.81 3.88-.81.74-1.62 1.48-2.46 2.24-6.46 6.83-11.23 14.08-15.48 22.44-.7 1.35-.7 1.35-1.42 2.71-2.65 5.15-4.91 10.27-6.83 15.73-1.09-.22-2.18-.45-3.31-.68-1.22-.11-2.43-.21-3.69-.32-1.74 1.41-1.74 1.41-3 3 3.23-15.87 12.85-35.26 24-47h2v-2h2v-2c6.82-6.36 13.62-10.27 22.19-5.06"/><path fill="#5f8e3d" d="M314 685h1c1.68 9.58 2.53 19.11 3.06 28.81.48 9.83.48 9.83 1.49 19.61.51 4.06.56 8 .51 12.08 0 .73-.01 1.45-.01 2.2-.01 1.77-.03 3.53-.05 5.3h-2c-.39-.99-.78-1.98-1.19-3-1.54-3.64-3.52-6.83-5.72-10.11-1.15-1.99-1.57-3.65-2.09-5.89-3.3-13.79-7.7-26.85-13-40 1.03.12 1.03.12 2.08.24.9.09 1.8.19 2.73.29 1.34.15 1.34.15 2.71.3 3.16.22 4.92.09 7.48-1.83 1.31-3.5 1.31-3.5 2-7z"/><path fill="#679740" d="m389 785 6 2c2.9 12.47 3.23 25.11 3.3 37.86.01 1.48.03 2.97.06 4.45.04 2.18.06 4.36.07 6.54.01 1.28.02 2.56.04 3.87-.47 3.28-.47 3.28-2.34 5.7-2.13 1.58-2.13 1.58-4.69 2.02-2.9-.52-3.64-1.16-5.44-3.44-.34-1.93-.34-1.93-.29-4.15l.03-2.52c.02-.89.05-1.79.07-2.71l.04-2.82c.05-3.97.13-7.94.21-11.91.06-2.91.09-5.81.13-8.71.02-.89.05-1.77.07-2.68.07-6.06-1.05-10.88-3.26-16.5l-1-3h5z"/><path fill="#6fa143" d="M356 790c16.18 1.09 16.18 1.09 21.06 6.12 1.75 5.37 1.61 10.03-.31 15.32-1.89 2.76-2.55 3.7-5.75 4.56-4.95.48-7.04.52-11.44-1.88C357 812 357 812 356 810c-.08-1.52-.11-3.05-.1-4.57.01-.9.01-1.79.01-2.72l.03-2.83c0-.95.01-1.89.01-2.87.01-2.34.03-4.67.05-7.01"/><path fill="#5f8e3d" d="M310 765c5.12.88 7.74 4.17 11 8 1.45 2.12 2.78 4.27 4.05 6.5.32.49.63.99.95 1.5h1c.06 4.1.09 8.21.12 12.31l.06 3.54c0 1.12.01 2.24.02 3.39l.03 3.12C327 806 327 806 325 809c-7 .67-7 .67-9.58-1.06-2.13-2.91-1.97-5.94-2.08-9.42-.04-.74-.07-1.47-.11-2.23-.11-2.35-.2-4.69-.29-7.04-.1-2.33-.2-4.67-.31-7q-.105-2.175-.18-4.35c-.2-4.62-1.04-8.53-2.45-12.9"/><path fill="#55773c" d="M451 620c3.56 1.97 5.69 4.07 7 8 1 7.88-2.21 13.22-6 20l-3-4 1-2-2-3c.02-2.48.02-2.48.38-5.19.11-.9.22-1.8.33-2.73.1-.69.19-1.37.29-2.08-4.7.81-8.83 1.68-12.94 4.19-1.51.89-1.51.89-3.06 1.81l-2-1c1.88-5.75 1.88-5.75 3-8l-2-1c6.09-3.56 11.81-6.74 19-5"/><path fill="#5a7b43" d="M326 538v3l-1-2c-.78.33-1.57.66-2.38 1-2.62 1-2.62 1-4.62 1 .17.62.33 1.24.5 1.88.7 4.37.58 8.69.5 13.12h-2v5c-.64.25-1.28.5-1.94.75-2.25 1.05-2.25 1.05-2.69 3.33-.12.63-.24 1.27-.37 1.92-2.51-8-3.39-16.53-.88-24.62 4.28-5.42 8.39-5.81 14.88-4.38"/><path fill="#61804b" d="M503 595c3.37 2.05 5.34 3.41 6.86 7.06 2.13 8.76 1.05 18.22-.86 26.94h-1l-1-8h1v-17l-1 4-4 1v6h-1l-1-10c-5.36-2.41-5.36-2.41-11-4l2-2v-3c4.09-1.62 6.8-2.57 11-1"/><path fill="#476d2e" d="M338 625c3.06 3.06 3.29 6.73 4.19 10.88.19.81.38 1.63.57 2.47.18.79.35 1.58.53 2.39.24 1.08.24 1.08.49 2.19.24 2.28-.1 3.9-.78 6.07-1-3-1-3-1-5h-4v3h-2c-.14-.62-.29-1.24-.44-1.88-.49-2.15-.49-2.15-1.56-4.12v-7l-1-3c.64-.25 1.28-.5 1.94-.75 2.25-1.07 2.25-1.07 2.81-3.37.08-.62.17-1.24.25-1.88"/><path fill="#4c7130" d="M397 791h2c.81 10.08 1.34 20.16 1.67 30.27.05 1.63.12 3.26.18 4.89.1 2.39.18 4.78.26 7.16l.1 2.21c.13 5.02.13 5.02-1.72 7.45-.49.34-.98.67-1.49 1.02-1.19-36.67-1.19-36.67-1-53"/><path fill="#5a7b43" d="M441 544c1.39 4.17-.1 7.18-1.44 11.19-.24.75-.48 1.5-.73 2.27-.6 1.85-1.22 3.69-1.83 5.54-.65-.96-.65-.96-1.31-1.94-1.6-2.33-1.6-2.33-4.69-3.06.19-.56.37-1.11.56-1.69.61-2.37.61-2.37-.12-4.93-.22-1.18-.22-1.18-.44-2.38l2-2 2 1 1-3h4z"/><path fill="#456a2d" d="M507 601c2.07 3.1 2.24 3.73 2.2 7.23l-.02 2.43-.06 2.53c0 .84-.01 1.69-.02 2.56-.03 2.08-.06 4.17-.1 6.25l-6-2v4l2 2-4 2c.14-2.04.29-4.08.44-6.12.08-1.14.16-2.28.24-3.45.3-3.18.75-6.29 1.32-9.43l4-1z"/><path fill="#45692d" d="m466 764 3 1-1 30-3-1q-.045-5.25-.06-10.5l-.03-2.98c-.02-5.61.25-10.97 1.09-16.52"/><path fill="#44682a" d="M321 681c.14.58.29 1.17.44 1.77.5 1.99 1.04 3.98 1.58 5.97 1.03 4.14 1.41 8.14 1.6 12.38l.12 2.21c.33 6.89.36 13.77.26 20.67h-2c-.78-4.19-1.17-8.24-1.32-12.49a4436 4436 0 0 1-.24-7.39c-.05-1.26-.09-2.52-.13-3.82-.11-3.1-.21-6.2-.31-9.3h-1c-.12-6.62-.12-6.62 1-10"/><path fill="#669541" d="M413 782c.08 1.94.14 3.87.19 5.81.03 1.08.07 2.16.1 3.27-.29 2.92-.29 2.92-1.55 4.74-1.91 1.3-3.48 1.79-5.74 2.18-.5-6.24-.24-10.01 4-15 2-1 2-1 3-1"/><path fill="#899d7c" d="M469 765h1c.05 6.5.09 12.99.11 19.49.01 2.21.02 4.42.04 6.63.03 3.18.04 6.35.05 9.52l.03 3.01v2.79c0 .81.01 1.62.01 2.45C470 811 470 811 468 814c-.77-5.33-1.08-10.32-.91-15.72l.06-2.13.15-4.41.21-6.7c.21-6.74.58-13.35 1.49-20.04"/><path fill="#466c2d" d="m431 551 2 4c-.99 1.49-.99 1.49-2 3l5 1-1 7-7-1c.41-4.97.8-9.45 3-14"/><path fill="#7ba949" d="M316 768h9c.85 3.67 1.11 7.04 1.06 10.81-.01.98-.02 1.95-.02 2.96-.02.74-.03 1.47-.04 2.23-.4-.85-.4-.85-.81-1.71-1.25-2.41-2.67-4.61-4.19-6.85-.52-.77-1.03-1.53-1.56-2.32-.48-.7-.95-1.4-1.44-2.12z"/><path fill="#6f8b5b" d="m347 792 3 1v17h-3z"/><path fill="#8fa47f" d="M324 693h1c.34 4.5.67 9 1 13.5.14 1.9.14 1.9.29 3.84.45 6.24.84 12.41.71 18.66-.5-1.49-.5-1.49-1-3-1.49.5-1.49.5-3 1v-3h2c-.07-.81-.14-1.63-.22-2.46-.77-9.54-.88-18.98-.78-28.54"/><path fill="#6a993f" d="m313 740 7 1v12h-2c-1.89-4.29-3.58-8.53-5-13"/><path fill="#486e2e" d="M309 643c-.33 2.02-.65 4.04-.98 6.05 0 .65-.01 1.29-.02 1.95l2 2c-.38 3.12-.38 3.12-1 6-2.95-1.48-3.07-3.5-4.12-6.56-.53-1.52-.53-1.52-1.08-3.07-.26-.78-.53-1.56-.8-2.37 3.75-4 3.75-4 6-4"/><path fill="#5e7e48" d="m454 636 3 1c-1.26 4.51-2.9 7.49-6 11-1.12-1.62-1.12-1.62-2-4 .92-4.2 1.36-5.57 5-8"/><path fill="#43672a" d="m349 787 3 1v18l-2 1z"/><path fill="#486d2e" d="M319 539c3 0 3 0 6 1-.99.5-.99.5-2 1v2l2 2-1 3-6-2c-.62-2.38-.62-2.38-1-5zm4 2 2 2h-2z"/><path fill="#748f5f" d="M419 617h3c-.53 5.03-1.11 10.02-2 15h-1c-2.46-9.08-2.46-9.08-2-13z"/></svg>