<svg class="imported-crop imported-crop--corn imported-crop--stage00" xmlns="http://www.w3.org/2000/svg" viewBox="0 0 768 1024">
  <g class="crop-part crop-part--leaf_1" data-group-id="leaves-1782125769181-lw0hrt" data-layer-index="0">
    <path fill="#8dab38" d="M379 589c1.828.191 1.828.191 4 1 1.484 2.215 1.484 2.215 2.75 4.938l1.297 2.714C388 600 388 600 388 602l3 1 2-3c2.443 6.45 2.24 12.191 2 19l-.055 2.82c-.32 6.17-1.818 9.549-5.945 14.18h-2v-2l-4-1v-6h-4q-.04-3.437-.062-6.875l-.036-3.867C379 613 379 613 380 611h-2v7h-1c-.226-3.749-.428-7.499-.625-11.25l-.195-3.223-.157-3.105-.158-2.857c.145-2.747.741-4.225 2.135-6.565z"/><path fill="#b29944" d="m362 525 1 2h2l1 8h5v6l4-1v3h2q.04 2.688.062 5.375l.036 3.023C377 554 377 554 376 556h-2l-.87-1.665q-1.97-3.762-3.942-7.523l-1.37-2.619c-2.169-4.133-4.347-8.228-6.818-12.193l.508 3.43.617 4.445.34 2.262c.263 1.945.407 3.905.535 5.863l-2 2-1-3h-3c-2.794-4.709-3.39-8.507-3.188-13.875l.042-2.086c.035-1.68.088-3.36.146-5.039l1 3z"/><path fill="#b8ae67" d="M355 542c2 3 2 3 2 5h3l1 2 2-1c1.667 6.001 2.517 11.795 3 18l-2-1-2 5h-2l.691 3.797q.437 2.476.871 4.953l.459 2.5.42 2.422.397 2.222c.174 2.268-.169 3.944-.838 6.106a784 784 0 0 1-2.5-4.375l-1.406-2.461C357 583 357 583 357 581h2l-.367-2.867a1715 1715 0 0 1-2.758-22.821l-.265-2.282c-.414-3.695-.713-7.311-.61-11.03"/><path fill="#7a9c35" d="M395 609c4.676 7.014 5.412 15.76 5 24h-2l-2-3-1.812 3.375c-1.565 2.913-2.287 3.691-5.188 5.625-3.665.858-6.412 1.242-10 0l-1 4v-7c4.413-2.084 4.413-2.084 7.188-1.688C387 635 387 635 389 636l.875-1.812C391 632 391 632 393 629c.455-2.218.455-2.218.633-4.668l.254-2.705.238-2.815.262-2.849q.318-3.48.613-6.963"/><path fill="#4c6c2c" d="m394 596 3 1v2h2q1.262 4.09 2.5 8.188l.723 2.33c1.179 3.926 2.11 7.332 1.777 11.482l-2 1a109 109 0 0 0-1 7h-1l-.77-3.367c-2.5-10.874-2.5-10.874-5.714-21.555-.605-2.436-.669-4.578-.516-7.078z"/><path fill="#dacc5a" d="M360 531c4.974 4.469 10.594 12.145 11.169 19.024-.194 4.104-1.066 8.031-2.169 11.976-2.632-1.604-3.833-2.546-4.913-5.48l-.571-2.922-.645-3.198-.621-3.338-.668-3.326C360.728 539.392 360 535.441 360 531"/><path fill="#9eb33b" d="M372 567h2c1.533 3.453 3.05 6.913 4.562 10.375l1.327 2.984 1.24 2.852 1.158 2.634C383 588 383 588 382 590l-3 1a90 90 0 0 0-2 4l-2 1c-.511-3.144-1.007-6.29-1.5-9.438l-.434-2.662c-.884-5.707-1.207-11.125-1.066-16.9"/><path fill="#73883a" d="M387 573c1 2 1 2 1 5l7-4v2l3 1c3.07 4.995 3.277 9.43 2 15l-3 1c-2.429-3.644-2.162-5.712-2-10-2.343.256-4.678.593-7 1l-1 2c-1.331-3.993-1.136-7.837-1-12z"/><path fill="#657733" d="M368 600c.985 2.624 1.422 5.245 2 8h2c1.405 6.12 2.233 11.717 2 18-2.27-3.404-2.365-5.165-2.625-9.188l-.227-3.292L371 611h-2l-1 2-2-3-5-1-2-10c5.625-1.25 5.625-1.25 9 1"/><path fill="#597c36" d="M400 588h2a622 622 0 0 1 2.062 6.688l1.161 3.761c.751 3.434.995 5.286-.223 8.551l-3 2c-3-6.625-3-6.625-3-10h-2v-2l-3-1 1-4h5z"/><path fill="#cdcd5b" d="m365 559 5 1c.678 3.352 1.34 6.707 2 10.062l.578 2.858c1 5.127 1.654 9.857 1.422 15.08h-1v-5h-2l-2 3q-1.005-5.906-2-11.812l-.578-3.393-.547-3.252-.508-2.999C365 562 365 562 365 559"/><path fill="#948f3b" d="M364 563c5.063 7.595 4.988 18.125 6 27-2.707-3.338-3.512-5.704-4-10h-2l-1 4c-2.19-3.285-2.353-4.831-2.625-8.688l-.227-3.011L360 570h2z"/><path fill="#97b03d" d="M383 576c3.037 3.529 4.577 7.507 6.188 11.812l.826 2.081c1.728 4.579 2.274 8.217 1.986 13.107l-2 1v-2h-2c-5.733-8.517-5.55-16.15-5-26"/><path fill="#8c8e3e" d="M376 559h2c2 3 2 3 2 6l3 1-1 3h4v2h2l1-2 1 4h2v-2l4-1 1 6h-4a100 100 0 0 0-6 3v-5l-1 6c-5.101-6.121-7.701-13.476-10-21"/><path fill="#47652b" d="M371 621c5.031 5.031 5.054 12.142 5.062 18.875A730 730 0 0 1 376 645c-2.553-3.113-4.097-6.22-5.625-9.938l-1.289-3.089A43 43 0 0 1 367 624z"/><path fill="#a59e5b" d="m375 557 7 1v3l3-1v4h2l1 3h3l2-5c2.152 3.228 2.201 4.284 2 8l-3 1v2h-2l-1-3h-4l-3-1v-3l-2-1-.938-3-1.062-3-3-1z"/><path fill="#bfb278" d="M377 543c3.848 3.486 5.569 7.869 7.75 12.5l1.285 2.629 1.199 2.527 1.101 2.307C389 565 389 565 388 568l-1-4h-2l-1-3h-2v-3l-7-1c.566-4.69 1.185-9.345 2-14"/><path fill="#d4c796" d="M363 522c2.938 2 2.938 2 5 4l-1 2-5-4-1 3c-3 2-3 2-6 2-.222 7.073.128 13.575 1.555 20.508.578 3.236.591 6.216.445 9.492h-1c-.708-3.976-1.387-7.956-2.062-11.938l-.604-3.384c-1.092-6.535-1.696-12.158-.334-18.678 2.906-3.719 5.407-3.554 10-3"/><path fill="#556f31" d="M361 609h7l1 2h2c.276 1.6.52 3.205.75 4.812l.422 2.708C372 621 372 621 370.141 622.824 368 624 368 624 366 624z"/><path fill="#648b32" d="m396 629 2 1v3h2l1-4c.917 5.385 1.111 10.542 1 16l-4 2c-1.354-2.709-1.065-5.009-1-8h-3q.212-2.22.438-4.438l.246-2.496C395 630 395 630 396 629"/><path fill="#868b4d" d="M353 574c3.82 1.91 4.707 7.125 6 11 .405 2.322.761 4.655 1 7l1 3 5-1-1 5c-4.75 1.125-4.75 1.125-7 0-.686-1.978-.686-1.978-1.289-4.551l-.664-2.806-.672-2.955-.695-2.92c-.949-4.076-1.68-7.558-1.68-11.768"/><path fill="#4e7333" d="M407 606c1.608 9.044 1.19 17.926 0 27h-1l-.586-3.438-.789-4.562-.383-2.254c-.867-4.984-1.963-9.851-3.242-14.746 3.75-2 3.75-2 6-2"/><path fill="#cbd462" d="m370 582 3 1 .184 2.047.254 2.703.246 2.672c.235 2.479.235 2.479.847 4.422.714 3.282.573 6.565.531 9.906l-.013 2.113q-.02 2.57-.049 5.137c-6.622-7.402-5.309-20.629-5-30"/><path fill="#bfac6a" d="M362 524c8.004 3.557 11.419 9.248 15 17v2h-2l-1-2-4 1 1-7-5 2c-1.607-3.215-1.057-6.436-1-10h-2z"/><path fill="#42642b" d="M402 621h2c2.635 5.816 3.164 12.091 1.324 18.27-.824 1.918-.824 1.918-2.324 4.73h-1c-1.168-7.3-1.341-14.615-1-22z"/><path fill="#89873e" d="m362 579 4 1a47 47 0 0 1 2.812 6.812l1.333 3.77C371 594 371 594 370 598l-3-9h-2l-1 4h-2l-1 2-.938-2.375c-.991-2.548-.991-2.548-2.062-4.625l2-2 2 4z"/><path fill="#6c7f34" d="M396 582c.376 6.802-.225 11.757-3 18-1.405-2.593-2.546-5.259-3.625-8l-.789-2c-.586-2-.586-2-.586-6 2.906-1.257 4.796-2 8-2"/><path fill="#648b32" d="M393 639c0 3.365-.381 5.056-2 8-3.432 2.34-5.212 3.073-9.375 2.688L379 649v-5l1.672-.371c2.624-.709 5.062-1.665 7.578-2.691l2.703-1.098z"/><path fill="#b1c448" d="M380 569c4.332 6.498 4.279 13.446 4 21-2.798-3.315-4.188-6.698-5.688-10.75l-1.324-3.547L376 573h2l1-3z"/><path fill="#709436" d="M394 633c1 2 1 2 .625 4.375-2.493 4.027-6.265 5.107-10.625 6.625l-2.164.422c-2.231.492-2.231.492-3.836 3.578l-2-2c.375-2.125.375-2.125 1-4l2 1v-4l2.012-.043c6.161-.227 6.161-.227 11.113-3.519z"/><path fill="#bdcd59" d="M374 588h1c1.534 10.421 2.273 20.461 2 31h-3c-1.629-4.791-2.206-8.056-1-13h1q.04-2.125.062-4.25l.036-2.391c-.018-2.342-.018-2.342-.629-4.484-.626-2.504-.087-4.403.531-6.875"/><path fill="#588031" d="M394 639h3l1 9c-4.622 2.219-7.768 3.383-13 3l1-3 2.375-.75c2.981-1.42 3.214-1.959 4.437-4.875z"/><path fill="#a9c257" d="M378 618v25l-2-1c-1.686-7.575-2.267-15.26-2-23 3-1 3-1 4-1"/><path fill="#797f36" d="M365 589h2c3.722 5.584 5.53 12.284 5 19h-3q-.721-2.124-1.438-4.25l-.808-2.391A84 84 0 0 1 365 595h-3v-2h2z"/><path fill="#85a536" d="M378 611h2c.111 5.458-.083 10.615-1 16h4c1.125 3.75 1.125 3.75 0 6h5c-2 2-2 2-10 3z"/><path fill="#bbc54f" d="m370 560 2 4 6-2 2 9-4 2-2-6h-2l-1 3z"/><path fill="#c6c855" d="M371 550c3.157 3.909 6 7.861 6 13l-5 1-1-4h-2c-.25-6.625-.25-6.625 2-10"/>
  </g>
  <g class="crop-part crop-part--other_1" data-group-id="leaves-1782125843680-aw6m83" data-layer-index="1">
    <path fill="#95a744" d="M238 497h4v2h6v2h3v2l2.688-.312c4.381.413 5.37 2.149 8.312 5.312 3.166 1.793 3.166 1.793 6 3v2h2v2h6v2h3v2h4a126 126 0 0 1 3 4h3v2l3.109.215c4.347.877 6.844 2.565 10.141 5.347q1.683 1.365 3.371 2.723l1.695 1.38c3.459 2.743 7.113 5.22 10.735 7.741L320 544v2l1.75.875L324 548l1.938.801c8.338 4.848 16.405 21.191 19.062 30.199l-1 1 2 2c3 3.577 3 3.577 3 7h2l-1 4h2c1.56 6.982 2.485 13.866 3 21l-4 1-.812-1.938c-1.075-2.393-1.075-2.393-4.188-3.062-1.387-1.488-1.387-1.488-2.688-3.312-.436-.595-.873-1.189-1.324-1.801C341 603 341 603 341 599h-2v-2h-2l-.875-2.938c-.767-3.169-.767-3.169-3.125-4.062a78 78 0 0 1-2-5h-2v-2h2v-2l-6-1 1-1.812c1.208-2.242 1.208-2.242 1-5.188l-4-1 1-3h3v2l4-2v-5l-1.688.91-2.312 1.152-2.25 1.161c-3.791 1.071-7.049 1.044-10.75-.223-2.466-1.804-4.318-3.959-6.25-6.312l-3.016-3.489-1.408-1.674c-1.161-1.335-2.417-2.585-3.685-3.818C298 550 298 550 298 548c-2.332-1.206-4.496-2.165-7-3l2 2.375c2 2.625 2 2.625 2 4.625l3 1c2.043 2.215 2.043 2.215 4.188 4.938l2.167 2.714C306 563 306 563 306 565h2c1.257 2.906 2 4.796 2 8h3l.25 2.875c.401 3.23.401 3.23 2.812 4.5L318 581v2l4 1 1 4h2l1 6-3-1 1 3c-4.75 3-4.75 3-7 3v2h-2v4c-1.828-.215-1.828-.215-4-1-1.484-2.066-1.484-2.066-2.75-4.562l-1.297-2.504L306 595l-2 2-2-2-2.367-.207c-3.32-1-4.138-2.603-5.77-5.564l-.988-1.917-1.012-1.857A325 325 0 0 1 289 580l-1.805-3.332L286 574l1-2q2.348 2.778 4.688 5.562l1.318 1.557c3.209 3.827 6.13 7.789 8.994 11.881l-.883-1.49c-4.962-8.402-9.877-16.779-14.117-25.572-9.139-18.75-20.415-35.368-36.035-49.231-3.193-2.855-5.985-5.967-8.695-9.281-1.233-1.562-1.233-1.562-3.27-2.426v-2l-2-1z"/><path fill="#a8b549" d="M492 437c-1.51 5.663-1.51 5.663-3.906 7.312-2.802 2.259-3.554 4.543-4.844 7.876l-1.297 3.292L481 458h-2l.188 2.125C479 463 479 463 477.57 465.762c-1.652 3.407-2.279 6.197-2.882 9.926-1.927 11.262-4.55 22.378-7.071 33.52A333 333 0 0 0 466 517l-1 5 4-2c.337 6.963-.697 12.433-3 19-.826-2.892-1-4.887-1-8l-3 2-1-2c-1.68 4.56-2.627 9.055-3.438 13.828C457 547 457 547 455 549h-3l.625 2.75c.412 3.57.17 4.288-1.625 7.25a183 183 0 0 0-1.625 3.75L448 566h-2l-.188 2.312c-1.28 5.813-3.542 12.418-7.812 16.688a155 155 0 0 0-2 5 173 173 0 0 1-2 4h-2l-.312 2.812c-.728 3.372-1.218 4.014-3.688 6.188-1.176 2.1-1.176 2.1-2 4h-3l-2-5 4-1-1-3c.326-3.148 1.078-6.222 1.75-9.312l.516-2.553c1.021-4.801 2.349-8.8 4.734-13.135.7-1.989 1.377-3.986 2-6h2v2h2v-5l-3-1c-1.538-6.431-.187-10.859 2-17l1.141-3.227q1.258-3.527 2.535-7.046c1.36-3.828 2.629-7.678 3.886-11.539 1.587-4.804 3.313-9.404 5.458-13.981 1.911-4.303 3.42-8.767 4.98-13.207-3.315 2.777-5.039 6.482-7 10.25l-1.039 1.949c-1.667 3.162-3.212 6.324-4.582 9.625C440 522 440 522 437.938 524.562c-2.176 2.737-2.993 5.095-3.938 8.438l-1 3c-3.063 1.188-3.063 1.188-6 2v-3h-10l-1 6-3 1c.92-5.468 3.167-9.886 5.625-14.812l1.254-2.62c2.601-5.238 5.483-9.516 9.486-13.786 1.709-1.789 1.709-1.789 3.219-4.008L434 505h2l-1-3c1.582-2.699 1.582-2.699 3.812-5.688l2.208-3.011L443 491h2l1-4h6l-1-3 6-2-2-2c.375-2.625.375-2.625 1-5h3v-2.875c.98-6.991 7.248-12.794 12.375-17.25C474 453 474 453 476 453l.938-1.875L479 447h2l.781-1.797c1.317-2.38 2.645-3.713 4.719-5.453l1.844-1.578C490 437 490 437 492 437"/><path fill="#487330" d="M503 647c.498 3.126.633 5.886 0 9-2.205 2.806-4.912 4.61-7.875 6.562l-2.262 1.612C487.397 668 487.397 668 485 668v2h-2v2l-2.438.75L478 674a289 289 0 0 0-1 4c-2.636 1.873-4.93 2.977-8 4l-2-1v-2h-2l-.125 1.75c-1.313 3.377-3.861 4.338-6.875 6.25l-2.75 2.75L453 692h-2l-1 3h-2v3a406 406 0 0 1-5 5c-1.786 2.361-3.393 4.828-5 7.312l-1.323 2.018A1121 1121 0 0 0 433 718l-1.652 2.547c-4.162 6.528-7.036 13.074-9.348 20.453h2l-2 6h-2l1 4h-3v4h-3l.125 3.875c.07 2.18.07 2.18-.125 4.125-2 2-2 2-4.062 3-2.107.846-2.107.846-2.938 3h-3l-1 2-1-6-2 1-.445-1.836c-1.34-5.003-2.775-8.598-5.93-12.726-3.508-5.52-2.615-9.984-1.356-16.09 1.462-6.139 3.702-11.805 6.731-17.348l5 2 .812-3.125c.998-3.524 2.454-6.644 4.188-9.875h2l.645-1.574c1.928-3.451 4.456-6.264 7.043-9.238l1.529-1.792c6.186-7.172 12.718-13.379 20.283-19.084l2.184-1.681C455.034 665 455.034 665 461 665v2l3.375-2c3.375-2 3.375-2 5.625-2l1-3 2.438-.375L476 659l1-2h3c1.705-1.94 1.705-1.94 3-4 3 1 3 1 4 2l.125-1.875c.875-2.125.875-2.125 3.5-3.25L494 649l3.75-1.125C501 647 501 647 503 647m-74 53c-6.44 9.487-15 24.307-15 36 2-.739 2-.739 4-2 .68-2.039 1.347-4.084 1.945-6.148 1.593-4.308 3.931-8.129 6.275-12.066 1.537-2.587 2.824-4.919 3.78-7.786h2c1.125-1.833 1.125-1.833 2-4l-1-3-2 2v-3z"/><path fill="#4a7432" d="M381 747c3.926 3.413 7.456 7.197 11 11l2.211 2.141c5.056 5.254 5.385 11.929 5.789 18.859h-5v4h-2v2h-2v2h-10v-2h-3l1-3-3-1c-1.688-2.562-1.688-2.562-3-5-3.776.51-5.447 1.208-8 4a535 535 0 0 1-3.5-4.312l-1.969-2.426C358 771 358 771 358 768l4 1 1 4h7v-3h-2c-4-5.412-4-5.412-4-8l-1.875-.75c-2.476-1.456-3.076-2.628-4.125-5.25h-2v-2l-1.875-.438C352 753 352 753 350 752v-2l-2.629-.871a525 525 0 0 1-6.336-2.164c-5.36-1.853-10.378-3.451-16.035-3.965v-2l-2-2c19.416-4.597 41.276-3.956 58 8"/><path fill="#345b26" d="m429 647 1 3h2c2.271 5.395 2.204 10.262 2 16 2.548-1.183 4.105-2.105 6.125-4.125L442 660c3.001 0 5.108.036 8 1-1.248 3.743-2.515 4.263-5.75 6.438-13.904 9.841-25.964 22.285-35.25 36.562l-1.52 2.324C400.401 717.625 392 732.114 393 746c1.714 4.506 4.245 8.077 7 12 2.78 6.302 2.202 13.253 2 20l-2 1-.375-2.352c-2.392-12.528-8.546-25.686-19.055-33.441-6.217-4.13-12.718-7.283-19.57-10.207l-2-1v-3l5-1-5-1 2-1-1.312-1.875c-3.049-5.645-4.5-11.848-5.688-18.125h2l-1-4-2 3a215 215 0 0 1-2.188-5.188l-1.23-2.917C349 694 349 694 350.387 691.137L352 689c2.251.925 3.697 1.54 5.055 3.602l.82 2.023.992 2.418a1288 1288 0 0 1 5.672 15.066c1.476 3.979 3.098 7.889 4.797 11.778.772 2.457.781 4.552.664 7.113l2.633.773c3.46 1.261 6.173 2.831 9.242 4.852l2.93 1.914L387 740l.113-1.871c.414-5.335 1.293-10.001 3.133-15.024.709-1.98 1.245-3.941 1.754-5.98 1-3.125 1-3.125 2.297-4.406 2.449-2.472 4.128-5.403 5.953-8.344 5.771-9.127 12.288-19.292 20.855-26.031 2.841-3.515 2.988-7.131 3.52-11.532q.327-2.46.664-4.917l.333-2.439c1.651-10.729 1.651-10.729 3.378-12.456"/><path fill="#497431" d="M426 627h3v2l3-1c.419 7.398-1.164 14.015-2.875 21.188q-.815 3.456-1.617 6.917l-.799 3.44c-.716 3.491-1.174 6.955-1.607 10.49-.752 5.143-1.706 7.823-5.852 11.215-4.075 3.612-7.062 7.007-9.898 11.645C408 695 408 695 406.059 697.41c-2.782 3.5-5.036 7.263-7.375 11.067-1.44 2.157-2.833 3.742-4.684 5.523-3.697-6.247-4.485-10.341-3.75-17.5l.199-2.492c.163-2.005.354-4.007.551-6.008h1l1 13c1.382-3.455 2.286-5.862 2.895-9.371l.45-2.472.467-2.595c1.616-8.572 3.921-16.474 7.188-24.562h2l2-3h2v-4c1.044-3.057 2.196-5.293 4-8h2l.25-1.875c.75-2.125.75-2.125 2.812-3.375L421 641v-2l-2-1 1.812-2.688c2.173-3.186 2.173-3.186 3.75-6.187z"/><path fill="#406b2f" d="M354 669c3.356 1.389 5.073 2.917 7 6v2h2v2h2l1 2 3 1c1.168 1.777 1.168 1.777 2.188 3.938l1.042 2.152C373 690 373 690 373 692h2c1.656 2.414 1.656 2.414 3.5 5.625l1.844 3.164C382 704 382 704 383.094 707.336c.607 2.807.607 2.807 2.906 3.664l2-2a499 499 0 0 1 1.562 6.125l.879 3.445c.907 5.57-.624 10.409-2.003 15.805l-.817 3.211L387 740c-3.656-1.359-6.868-3.019-10.188-5.062-3.351-2.069-3.351-2.069-6.812-3.938-.75-1.754-.75-1.754-1.445-4.008l-.779-2.47L367 722q-.711-2.216-1.43-4.43l-.713-2.203c-2.516-7.705-5.323-15.062-8.857-22.367a726 726 0 0 1-2.188-4.938A159 159 0 0 0 350 680l5-7h-2z"/><path fill="#3f6630" d="M339.43 601.664c2.976 1.547 3.968 2.87 5.695 5.711 1.453 2.348 2.86 4.606 4.555 6.79C351 616 351 616 351 618h4l.25-3.313c.75-3.687.75-3.687 2.813-5.625.639-.35 1.279-.7 1.937-1.062l1 3 3 1-2 5h2c1.604 3.508 2.22 6.143 2 10h5v-2l3 1c1.83 5.492 2.206 10.241 2 16l-2-2c-2.223 1.925-2.223 1.925-3 5l-2 6h2v5l-2 1h3q.04 2.594.063 5.187c.01.963.023 1.926.035 2.918-.093 2.751-.477 5.22-1.098 7.895-2.25-.125-2.25-.125-5-1-5.061-6.01-8.73-14.277-10-22h-2l-.918-3.148c-2.4-8.055-5.104-15.42-9.082-22.852-1.057-2.313-2.024-4.65-3-7l-.847-1.879c-1.298-2.89-2.153-4.913-2.153-8.12h-2l-1-5c2-1 2-1 4.43-.337"/><path fill="#597e35" d="M405 573h2v4l3.75-1.188c2.227-.57 2.227-.57 4.25-.812 2.125 1.438 2.125 1.438 4 3 3.192-.226 3.192-.226 6-1 .273 7.026-.686 13.07-2.375 19.875-1.777 7.345-3.349 14.675-4.625 22.125l4-6c1 3 1 3-.293 5.926l-1.895 3.386-1.855 3.364c-1.884 3.199-3.866 6.259-5.957 9.324l-2-2 5-9h-2l-.875 2.375C411 629 411 629 409 631l-3-1c-1.241-3.124-1.134-6.299-1.125-9.625l-.008-2.914C405 615 405 615 406 613h-3c-2.227-4.744-3.461-8.723-4-14h-2v-2h-3l-2 3-2-9 2.117-.812c5.287-2.054 5.287-2.054 8.887-6.126.458-2.053.458-2.053.711-4.124.409-2.783 1.617-4.714 3.285-6.938"/><path fill="#86a140" d="M443 523c-.513 6.932-2.044 12.804-4.438 19.312l-.947 2.667c-1.362 3.793-2.755 7.44-4.615 11.021l-2-3-3 1a97 97 0 0 0-3.062 8.188l-.776 2.291A777 777 0 0 0 422 571l-2 6-2.562-.562c-3.715-.473-6.768-.099-10.438.562l-1-6-6 3c1.289-5.499 2.86-10.726 4.875-16l.802-2.112C410.78 542.631 410.78 542.631 415 539h2v-4h10l1 2c2.87-.773 4.641-1.275 7-3 1.374-2.556 2.291-5.059 3.176-7.82 1.061-2.806 1.861-3.18 4.824-3.18"/><path fill="#688f3b" d="M326 592c3.283 2.971 5.147 5.833 7.062 9.812l1.555 3.227L336 608l.945 2.023c1.72 3.857 3.001 7.82 4.293 11.832.803 2.398.803 2.398 2.45 5.52C345 630 345 630 345 633l1.562 1.938c1.438 2.062 1.438 2.062 1.126 4L347 641v5l-1 1 2.188 2.125c2.81 2.803 5.307 5.798 7.812 8.875l-1 2-1.812-.5c-2.301-.611-2.301-.611-5.188-.5a67 67 0 0 1-5.25-5.188l-1.43-1.462c-1.336-1.455-1.336-1.455-3.32-4.35.375-2.578.375-2.578 1-5-1.057-2.389-1.057-2.389-2.75-4.562l-1.609-2.254a220 220 0 0 0-3.344-4.336C330 630 330 630 330 628h-2c-2.75-2.958-5.197-6.166-7.693-9.34-1.319-1.675-2.651-3.339-3.983-5.004-4.425-5.58-8.678-10.979-11.324-17.656l1-2a599 599 0 0 1 2.438 3.312l1.371 1.864C311 601 311 601 312 604l3 1v-4h2v-2l6-4v-2z"/><path fill="#8ba345" d="m527.52 614.902 3.096.01 3.197.025 3.256.014q3.966.017 7.93.05v2h2v-2h6c-.75 2.936-.75 2.936-2 6-1.874.811-1.874.811-4 1-2.151.307-2.151.307-4 1l-1 3a68 68 0 0 1-7.061 2.374q-2.184.636-4.367 1.277l-2.28.66c-2.266.68-4.5 1.422-6.736 2.192l-2.156.727q-2.046.692-4.08 1.421c-3.204 1.058-4.997 1.442-8.276.477L505 634l-1 1c-2.02.072-4.041.083-6.062.062l-3.348-.027L492 635v2l-5-1c.484-5.075 1.628-8.146 5-12 3.554-2.243 7.224-4.164 11-6v2l2.887-.84 3.8-1.098 3.763-1.09c4.808-1.317 9.076-2.098 14.07-2.07"/><path fill="#8dab38" d="m383 593 1 3-2 2 3 1 1-2 .812 2.438L388 602l3 1 2-3c2.443 6.45 2.24 12.191 2 19l-.055 2.82c-.32 6.17-1.818 9.549-5.945 14.18h-2v-2l-4-1v-6h-4q-.04-3.437-.062-6.875l-.036-3.867C379 613 379 613 380 611h-2v7h-1l-2-24c4-1 4-1 8-1"/><path fill="#4f7831" d="M396 639h1l.375 2.938L398 645l2 1-4 12h-2l-.332 2.344c-.834 5.477-1.803 10.405-3.945 15.508-1.266 3.762-1.674 7.685-2.196 11.609C387 690 387 690 385 692c-4.439-8.572-7.43-15.767-7.812-25.5l-.155-2.434c-.259-5.423.421-9.861 1.967-15.066h3l1 2a257 257 0 0 0 7-2l2.375-.688c2.029-1.35 2.029-1.35 2.313-4.874L395 640z"/><path fill="#578236" d="m333 602 4 2-1 3h2l.664 1.766c1.865 4.821 3.905 9.45 6.274 14.046 4.398 8.674 8.485 17.376 9.062 27.188h2l2.375 5.188 1.336 2.917a85 85 0 0 1 2.211 5.422c1.293 2.967 2.997 5.272 4.953 7.848 8.757 11.878 8.757 11.878 8.125 19.625-3-1-3-1-4.688-3.938C369 684 369 684 369 682l-4-1v-2h-2v-2h-2c-4-5.294-4-5.294-4-9l-1.938-.75C353 666 353 666 352.25 663.875L352 662h-2l1-5 1 2 3-1-1.531-1.68-1.969-2.195-1.969-2.18C348 650 348 650 348 648l-3-1c.952-5.849.952-5.849 1.812-8.562.472-2.652.472-2.652-1.75-5.063L343 631v-3c-.765-1.78-.765-1.78-1.812-3.625-2.249-4.331-3.733-8.729-5.188-13.375q-.839-2.533-1.688-5.062z"/><path fill="#b2a050" d="M429 489v5h2c-.914 4.234-2.956 7.61-5.125 11.312-7.84 13.71-13.61 27.821-18.875 42.688-1.551-1.828-1.551-1.828-3-4 .812-2.75.812-2.75 2-5l-1-1c-2.694-16.665 8.658-33.004 18-46 3.349-3 3.349-3 6-3"/><path fill="#e5cf61" d="M488 435c-1.317 2.946-2.7 4.878-5.062 7.062-3.912 3.79-7.265 7.933-10.676 12.172a197 197 0 0 1-6.387 7.391c-3.142 3.494-6.031 7.112-8.883 10.844-2.931 3.724-6.007 7.323-9.085 10.927-2.085 2.442-4.126 4.889-6.083 7.436C440 493 440 493 437.5 493.938c-3.481 1.479-4.525 3.929-6.5 7.062h-2v2l-2-1c5.705-9.482 12.239-18.254 19-27l2.246-2.906C477.798 435 477.798 435 488 435"/><path fill="#bec75c" d="M577.563 611.938 580 612v3c-8.334 6.045-18.072 10.378-28 13q-2.322.916-4.626 1.875c-4.894 2.004-9.862 3.54-14.93 5.043-4.796 1.506-9.471 3.308-14.156 5.129-3.576 1.036-6.585 1.121-10.288.952-.33-1.32-.661-2.639-1-4 5.993-3.244 11.744-5.193 18.312-6.937 11.096-3.078 21.844-6.908 32.625-10.937l2.397-.893a1951 1951 0 0 0 6.755-2.536l2.073-.78c7.776-2.964 7.776-2.964 8.4-2.979"/><path fill="#e4d064" d="M223 492c3.476.07 6.079.136 8.695 2.59a91 91 0 0 1 2.946 3.816c1.37 1.885 1.37 1.885 4.359 2.594v2l1.75.723c2.719 1.543 4.233 3.327 6.25 5.715 3.501 4.009 7.153 7.601 11.125 11.124 12.395 11.139 12.395 11.139 13.375 17.876C271 541 271 541 270 543h2v4l2 1h-3c-1.875-2.168-1.875-2.168-4-5.188a218 218 0 0 0-10.75-13.75l-1.355-1.608a106 106 0 0 0-6.723-7.208C246 518 246 518 246 516h-2c-1.227-1.285-1.227-1.285-2.625-3.062a56.3 56.3 0 0 0-7.313-7.376c-4.083-3.477-7.876-7.231-11.062-11.562z"/><path fill="#78a044" d="m466 653 1 4 4 1-2.422 1.25c-11.073 5.823-21.154 12.457-30.89 20.312l-1.994 1.606c-6.493 5.328-12.237 11.043-17.444 17.644-2.363 2.996-4.064 5.064-7.25 7.188-.638-6.286 1.806-9.073 5.61-13.824C430.439 675.254 446.945 663.457 466 653"/><path fill="#c4a557" d="m229 501 1.391 1.207c3.926 3.393 3.926 3.393 8.047 6.543L240 510v2l4 2v2h2c1.48 1.469 1.48 1.469 3.188 3.5 1.903 2.259 3.8 4.487 5.828 6.637l1.922 2.051 1.777 1.855c1.615 2.46 1.529 4.072 1.285 6.957-3 0-3 0-5-1v3l3 1 3 1 1 8c-2.965-2.785-5.507-5.612-7.938-8.875-4.541-5.958-9.719-11.327-14.855-16.77l-1.68-1.78c-1.258-1.297-2.575-2.537-3.906-3.759-2.696-3.02-2.358-5.87-2.621-9.816h-2c-1.044-3.133-.934-3.99 0-7"/><path fill="#a7c054" d="m439 586 2 2c2.069.643 2.069.643 4 1-1.63 4.407-3.764 8.443-6 12.562-3.077 5.679-3.077 5.679-6 11.438h-2l-.33 1.688c-.787 2.714-1.976 4.852-3.393 7.296l-1.631 2.832-1.708 2.934-1.721 2.98A2287 2287 0 0 1 418 638h-2c-.597-7.501.493-12.345 4.25-18.812l1.332-2.408A640 640 0 0 1 426 609l3.301-5.828a1672 1672 0 0 1 7.643-13.319A80 80 0 0 0 439 586"/><path fill="#5a682e" d="m418 751 3 1c-1.679 5.703-3.422 11.369-5.352 16.992-.711 2.006-.711 2.006-.953 4.168-.695 1.84-.695 1.84-2.726 2.781l-2.469.621c-2.427.562-2.427.562-4.5 1.438l-1 3-3 1-.938 2.438c-1.287 3.105-2.087 3.25-5.062 4.562l-1.742 2.012c-4.058 3.573-9.027 2.761-14.258 2.988l-3-13 4 1-2 3h3v2h10v-2h2v-2h2v-4l6-1 1-14c2 2 2 2 3 5h3l.75-1.875c1.456-2.476 2.628-3.076 5.25-4.125v-8l2-1 2 1z"/><path fill="#547d36" d="M336 649c4.845.422 6.69 2.328 9.812 5.938l2.395 2.714C350 660 350 660 350 662h2a263 263 0 0 1 3 5l2 1-1 2h-2l-1 3h2c-1.25 3.653-1.671 4.781-5 7a616 616 0 0 1-2-3.875l-1.125-2.18C346 672 346 672 346 670h-2c-3-5.75-3-5.75-3-8-1.583 1.249-1.583 1.249-3 3v4l-2 3a256 256 0 0 1-2.562-3.812l-1.442-2.145C331 664 331 664 332 661h4c.805-1.701.805-1.701 1-4-1.358-3.217-1.358-3.217-3-6h2z"/><path fill="#668933" d="m524 641 1 2-2.852 1.609-3.773 2.141-1.871 1.055c-3.028 1.721-5.972 3.483-8.84 5.461C505 655 505 655 503 655v-8l-3 2c-2.019.256-4.039.511-6.062.727-2.338.329-4.016.89-5.938 2.273l-1 3-1.75-.75L483 654c-2.167 1.833-2.167 1.833-4 4l-2 1v1l-2.812.312c-3.408.735-3.986 1.199-6.188 3.688-4.556 3-4.556 3-7 3v-2l-3-1c13.004-8.023 26.701-13.683 41-19l2.196-.827c7.731-2.858 14.578-3.707 22.804-3.173"/><path fill="#5b7f3d" d="M490 625c0 3.49-.904 5.115-2.5 8.188l-1.406 2.73L485 638h9v4c-4.19.952-6.288 1.176-10-1-3.912 0-6.998 1.425-10.562 2.875l-2.077.816c-2.909 1.171-5.121 2.069-7.361 4.309h-4v-2l-1.812-.438c-1.75-.449-3.475-.991-5.188-1.562v4l-5 1c1.331-2.877 2.823-5.211 4.875-7.625l1.492-1.789c1.755-1.704 3.403-2.611 5.633-3.586l-1 2.25c-1.228 2.889-1.228 2.889-1 6.75 3.731-1.289 6.025-2.729 8.812-5.5 6.731-6.217 14.994-11.403 23.188-15.5"/><path fill="#b5b856" d="M549.902 609.794c2.424.018 4.848.021 7.272.02q2.345.007 4.69.018l2.162.003c4.428.042 8.617.452 12.974 1.165-2.607 3.374-5.944 4.31-10 5-3.497.093-6.95-.124-10.437-.375l-2.795-.172q-3.385-.21-6.768-.453v2h-2v-2c-16.862.254-16.862.254-33.38 3.281-2.853.783-5.695 1.272-8.62 1.72v-2q4.37-1.453 8.75-2.876l2.442-.817c11.9-3.842 23.307-4.61 35.71-4.514"/><path fill="#c8a758" d="M501 419v1l-3.375.812c-3.843.846-3.843.846-5.625 4.188l1 1c.297 2.395.297 2.395 0 5-1.547 1.449-1.547 1.449-3.75 2.688-4.841 2.915-8.936 6.339-13.087 10.149-1.464 1.284-1.464 1.284-4.163 3.163-2.355-.215-2.355-.215-4-1v-3h-3c0-2 0-2 1.363-3.41l1.949-1.652 2.208-1.872L473 434l2.699-2.285C491.18 418.782 491.18 418.782 501 419"/><path fill="#3c672e" d="M441 705h4c2.092 4.431 2.092 4.431 1.625 7.312L446 714h2v2h2l-1 2-2-1v4c-2.504-.835-4.668-1.794-7-3a3296 3296 0 0 0-5.438 8.312l-1.564 2.381-1.494 2.295-1.381 2.111c-1.275 2.006-1.275 2.006-2.123 4.901h-2l-2 4-2-1c2.139-12.252 9.221-21.806 16-32l1.523-2.418z"/><path fill="#ccc55a" d="M490 442c1.423 4.269-.396 7.134-2 11.125-3.524 9.067-6.178 18.267-8.602 27.684l-.82 3.097-.706 2.76c-.934 2.5-1.932 3.56-3.872 5.334-1.19 2.599-1.19 2.599-2 5h-1c-.326-6.53.559-11.903 2.277-18.203.824-2.95.824-2.95 1.223-6.672.562-3.514 1.862-5.985 3.5-9.125.699-2.736.699-2.736 1-5h2l.551-1.793c3.461-10.882 3.461-10.882 8.449-14.207"/><path fill="#8d8f3f" d="m583 615 1 6h-4v4l-2.312.312c-2.704.449-2.704.449-4.188 2.188-2.026 2.026-3.704 2.091-6.5 2.5-1.335.325-2.67.655-4 1v2l-7 1-1-3h3l-1-3c-3.261.633-5.522 1.851-8.312 3.625-3.148 1.819-5.117 2.741-8.75 2.187L537 633v-1l1.723-.551c3.699-1.204 7.273-2.447 10.839-4.011C553 626 553 626 556.625 625.188c6.149-1.415 11.711-4.486 17.375-7.188 6.576-3 6.576-3 9-3"/><path fill="#9e9243" d="M476 493h2c1.673 5.106 2.352 9.733 2.312 15.125l-.003 2.222c-.119 6.833-1.39 13.086-3.309 19.653h-4l-1-7h-2c4.369-28.369 4.369-28.369 6-30"/><path fill="#abc24c" d="M454 556c2.062.438 2.062.438 4 1-.542 5.713-1.639 10.648-3.688 16l-.793 2.105c-2.107 5.351-4.713 9.546-8.519 13.895l-5-1c.605-3.934 1.832-6.927 3.688-10.438 3.005-5.836 5.591-11.768 8.113-17.824C453 557 453 557 454 556"/><path fill="#645e36" d="M368 775c2.312-.25 2.312-.25 5 0 3.193 3.233 4.111 7.151 5.188 11.438l.537 1.986c.934 3.599 1.483 6.858 1.275 10.576l-8 2-.805-3.141-1.07-4.109-.527-2.066c-.905-3.453-1.959-6.523-3.598-9.684-.125-2.75-.125-2.75 0-5h2z"/><path fill="#467330" d="M465 679h2v2l3 1a1427 1427 0 0 1-6 7l-2.109 2.469-2.141 2.469-2.016 2.339C456 698 456 698 454 698l-.812 2.125c-1.256 3.04-2.69 5.948-4.188 8.875l-4-2v-2h-3a56.5 56.5 0 0 1 4-7h2v-3c1.539-1.648 1.539-1.648 3.625-3.375l2.203-1.844L456 688l1.797-1.531c3.89-3.312 3.89-3.312 6.203-4.469z"/><path fill="#486d2d" d="M413 624h2c-2 5-2 5-3 7.438a78 78 0 0 0-1.828 5.226c-1.374 3.912-3.111 7.549-4.922 11.274-3.306 6.895-6.264 13.858-9.023 20.988-.974 2.439-2.002 4.755-3.227 7.074v-3l-3-1 4-14h2l.25-2.5c.783-3.652 2.096-6.267 3.828-9.531 1.217-2.6 1.638-5.127 1.922-7.969h1l1 5 .297-2.555.453-3.32.422-3.305c.828-2.82.828-2.82 2.805-4.039L410 629a199 199 0 0 0 3-5"/><path fill="#9f8f3d" d="M266 727h5l-1 4 3 1-2.688 2.875C266.261 739.59 262 745.624 262 752h11l-2.312 1.812c-2.614 1.98-2.614 1.98-4.126 3.938C265 759 265 759 262 759.375c-3-.375-3-.375-4.875-1.875L256 756l2-3c-.052-2.916-.052-2.916-.5-6.062-.406-3.223-.406-3.223-.5-5.938l2-2v-2l2-1v-3l5-1z"/><path fill="#365c27" d="M374 635h1c.509 4.291 1.006 8.583 1.5 12.875l.434 3.648c.783 6.862 1.281 13.57 1.066 20.477h-1v-5h-2l-.184-2.152-.254-2.786-.246-2.777c-.076-2.247-.076-2.247-1.316-3.285q.172 3.876.375 7.75l.094 2.211c.212 3.887.711 6.634 2.531 10.039.195 2.578.195 2.578.125 5.25l-.055 2.703L376 686c-3.511-4.013-5.765-8.21-8-13h3l-.035-2.992-.027-3.883-.036-3.867C371 659 371 659 372 657h-3l2-6h-2c.087-1.459.195-2.918.312-4.375l.176-2.461C370 642 370 642 373 640c.73-2.563.73-2.563 1-5"/><path fill="#9c9041" d="m554.75 602.625 2.941.043c7.126.149 7.126.149 8.309 1.332 1.347.231 2.704.412 4.062.563L574 605l-2 5q-6.326.074-12.653.11-2.151.015-4.303.041c-2.063.024-4.126.035-6.189.044l-3.761.032C542 610 542 610 539 608c4.424-5.993 8.646-5.653 15.75-5.375"/><path fill="#c7a659" d="M443 465c1 2 1 2 .188 5.438C442 474 442 474 440 477l4 1c-3.779 5.826-7.895 11.401-12 17l-3-1v-5l-4 2c1.604-5.146 4.8-8.935 8.062-13.125a1047 1047 0 0 0 3.286-4.258l1.469-1.887c1.37-1.834 1.37-1.834 2.183-4.73z"/><path fill="#7e8747" d="M549 633c1.125 3.75 1.125 3.75 0 6h-5v2l-1.75.75c-2.331 1.149-2.331 1.149-4.039 3.121-2.445 2.354-4.858 3.824-7.836 5.441l-2.914 1.614L525 653l-2-1 1-1-2-2h2l1-2v2l4-4-4-2c3.922-3.408 7.895-5.642 12.562-7.812l1.999-.983c5.952-2.793 5.952-2.793 9.439-1.205"/><path fill="#685d2c" d="M414 775v8l-3.324 1.609-4.364 2.141-2.185 1.055c-4.146 2.044-7.508 4.295-11.127 7.195-2.57 1.047-2.57 1.047-5.125 1.75l-2.57.734C383 798 383 798 380 798v-5l2.301-.184 3.011-.254 2.989-.246c2.793-.234 2.793-.234 5.699-1.316l1-2c1-2 1-2 4-3 1.219-2.504 1.219-2.504 2-5h3l.125-1.875C405 777 405 777 407.875 775.75 411 775 411 775 414 775"/><path fill="#466b2a" d="m488 639-3 2 3 2-3.105 1.426-4.083 1.886-2.041.936c-2.983 1.383-5.702 2.705-8.427 4.564C468 653 468 653 465.324 652.637l-2.636-.949-2.676-.926L458 650l-1.562 2.062C454 654 454 654 450.25 653.75L447 653l3-5 3 1v-4a85 85 0 0 1 7 2v2c3.91-1.517 7.701-3.225 11.5-5 11.332-5.295 11.332-5.295 16.5-5"/><path fill="#90a847" d="m300 718-3 7h2v4c4.511.16 4.511.16 8.945-.496 2.29-.562 4.325-.637 6.68-.629l2.352-.008C319 728 319 728 321 729v4l3 1c-9.41 2.296-9.41 2.296-14 2l-2-5-11 1-1-3-2-1-2 2v-3l-3-1c1.372-2.954 2.868-5.527 5-8 3-1 3-1 6 0"/><path fill="#627f57" d="M346 675c3 1 3 1 4.387 3.18l1.301 2.695 1.324 2.68C354 686 354 686 354 689l-2 1c-1.315 1.755-1.315 1.755-2 4 .4 2.404.4 2.404 1.375 4.75l.898 2.422L353 703l3-2-.07 2.012c-.1 4.894.009 8.479 2.07 12.988.125 2.812.125 2.812 0 5-1.59-3.055-2.89-6.157-4.137-9.367l-1.241-3.166-1.31-3.342c-3.348-8.498-6.868-16.721-11.23-24.746L339 678l1-2 5 3z"/><path fill="#d5bc7e" d="M240.073 486.4c3.769.948 7.362 2.049 10.927 3.6v1h-19v-2h-11v-2l-3 1v11c.95 2.15.95 2.15 2 4-3.355-3.09-5.902-5.5-7-10 .137-3.43.218-5.266 2.762-7.652 6.994-4.211 16.885-.723 24.311 1.053"/><path fill="#4d7033" d="M334.688 720.625c2.728 1.744 4.293 3.204 5.312 6.375h2l.313-1.813c.776-2.469 1.757-3.51 3.687-5.187l3 1 1 3c2.015.733 2.015.733 4 1-1.67 2.081-2.531 2.931-5.214 3.328l-2.724-.078-3.175-.09L339 728l-5.168-.129q-2.73-.088-5.457-.184l-2.695-.067-2.531-.108-2.276-.08C319 727 319 727 317 724l1.793-.586 2.394-.789 2.505-.809c2.42-.786 2.42-.786 4.933-2.253 2.846-.674 3.53-.264 6.063 1.062"/><path fill="#d3cc5e" d="m436 493 4 1-2.09 2.902c-6.842 9.647-12.613 19.53-17.91 30.098h-2v-2h-2c.572-5.192 3.098-9.31 5.562-13.812l1.288-2.389q1.566-2.904 3.15-5.799h3v-2a180 180 0 0 1 4-4 124 124 0 0 0 3-4"/><path fill="#365c27" d="m382 685 2 3 2 2 2-2-.07 1.977c-.122 5.889.05 10.654 3.164 15.847 2.877 4.949 3.145 7.843 1.679 13.391C392 721 392 721 390 722a610 610 0 0 1-1-4.25l-.562-2.391C388 713 388 713 388 709h-2l-.953-2.562c-2.391-6.337-4.878-12.451-8.047-18.438l4 1z"/><path fill="#6b865c" d="m439 632 2 2c-.2 2.416-.533 4.63-1 7l-.465 2.445a911 911 0 0 1-1.597 7.993l-.565 2.794q-.684 3.385-1.373 6.768l5-2c-1.074 2.915-1.778 4.778-4 7h-3l-2-16h-2c-1.01-4.344-1.252-7.059 1-11l3-1 2-2 2 1z"/><path fill="#657f4a" d="M321 632c4.817 4.282 8.688 8.739 9.316 15.305A160 160 0 0 1 330 657v3c-3.385-3.099-5.601-6.374-7.938-10.312-2.238-3.735-4.493-7.418-7.062-10.938-2-2.75-2-2.75-2-3.75h5v4l3-3-2-3z"/><path fill="#c7c39b" d="m586 606-2 1-2-1c-3.441-.264-6.875-.445-10.322-.605-5.577-.294-5.577-.294-6.678-1.395a108 108 0 0 0-5.566-.098l-3.409.01-3.587.026-3.6.013q-4.419.018-8.838.049v1h-19v2l-1.934.184-2.504.254-2.496.246c-2.053.105-2.053.105-3.066 1.316q-3.5.062-7 0c19.086-12.724 61.733-12.424 82-3"/><path fill="#496f36" d="M457 649c6.75 1.875 6.75 1.875 9 3v2l-8.848 5.068c-4.925 2.819-4.925 2.819-7.152 3.932v-2c-2.354-.688-2.354-.688-5-1l-3 2c-.875-2.062-.875-2.062-1-5 1.739-2.59 3.804-4.791 6-7l1.25 1.5c1.872 1.934 1.872 1.934 5.75 1.5 1.774-1.92 1.774-1.92 3-4"/><path fill="#4b6e2d" d="m394 596 3 1v2h2l.621 2.301.817 3.011.808 2.989A121 121 0 0 0 403 613h3l-1 9h-3l-1 7h-1l-.77-3.367c-2.5-10.874-2.5-10.874-5.714-21.555-.605-2.436-.669-4.578-.516-7.078z"/><path fill="#859e48" d="M300 714h11c.196 4.219-.198 7.17-2 11h-2v3l3 1c-3.674 1.176-7.169 1.074-11 1l-1-3 1-2h-2z"/><path fill="#5b7847" d="m481 674 2 2c3.597-.323 3.597-.323 7-1-4.302 5.198-8.855 9.867-13.812 14.438l-2.061 1.927C469.134 696 469.134 696 468 696c-.41-8.616 2.435-12.904 8.027-19.145C478 675 478 675 481 674"/><path fill="#597931" d="M314 623a159 159 0 0 1 6 5v2l2.289.738c3.078 1.433 4.148 2.703 6.086 5.45 3.203 4.35 6.704 8.106 10.625 11.812l-3 1v2c-3.983-1.497-5.396-3.731-7.562-7.312l-1.754-2.864L325 638l-1.715-2.855L322 633l-2 1 2 4h-2l-2 3c-1.125-3.75-1.125-3.75 0-6h-5l-2-5h2z"/><path fill="#698c39" d="m431 552 2 1c-.492 9.502-3.54 18.599-8 27v-3l-7 2-2-3 3-1c1.602-2.966 1.602-2.966 3-6.562l.796-1.919c1.404-3.41 2.69-6.846 3.892-10.331L428 553z"/><path fill="#868d42" d="M301 711v2h9v1l-2.422.227c-7.651.916-13.425 2.798-20.117 6.628C285 722 285 722 282 721l1-3h-2l-1 2-3-1 1-3h3l.188-1.875C282 712 282 712 284 710.75c5.621-1.405 11.39-1.198 17 .25"/><path fill="#426029" d="M327 741v1l3.211.805 4.164 1.07 2.117.527c5.281 1.371 5.281 1.371 7.508 3.598-.688 1.938-.688 1.938-2 4-2.625.75-2.625.75-5 1v-2l-2.25.062c-2.533-.057-4.339-.353-6.75-1.062l-3.625-1C321 748 321 748 319 747v-6c3.29-1.097 4.713-.8 8 0"/><path fill="#7a9c35" d="M395 609c4.676 7.014 5.412 15.76 5 24h-2l-2-3-1.812 3.375c-1.565 2.913-2.287 3.691-5.188 5.625-3.665.858-6.412 1.242-10 0l-1 4v-7c4.413-2.084 4.413-2.084 7.188-1.688C387 635 387 635 389 636l.875-1.812C391 632 391 632 393 629c.455-2.218.455-2.218.633-4.668l.254-2.705.238-2.815.262-2.849q.318-3.48.613-6.963"/><path fill="#3b5625" d="m436 723 4 1 1 6h-3l1 4-5 1v2h-2v8h-4l-1 4v-2h-3c.875-6.75.875-6.75 2-9h2l.277-2.168c.851-3.335 2.256-5.377 4.285-8.144l1.942-2.676z"/><path fill="#adab75" d="M346 563c3.329 3.049 5.504 6.219 7.75 10.125l1.859 3.195C357 579 357 579 357 581l4-1c3.429 8.429 3.429 8.429 3 13h-2l-1 2c-1.062-1.812-1.062-1.812-2-4l1-3c-1.634-1.708-2.869-2.935-5-4l-.25-1.938L354 580c-2.743-1.158-5.228-1.912-8.188-2.25-3.005-1.244-3.596-3.892-4.812-6.75h3v2l3-1-1.062-2.25c-.983-2.882-.971-3.962.062-6.75"/><path fill="#a0b14a" d="m290 721 2 1-2 4 7 3v2l3 1-1 2h-2l-2 2c-2.82.414-2.82.414-6.125.625l-3.32.227L283 737c-2-3-2-3-2.688-5.75 1.113-5.259 5.39-7.368 9.688-10.25"/><path fill="#d0bf59" d="M291 520c13.305 2.425 28.067 18.528 36 29l-1 2a159 159 0 0 1-6-5v-2l-1.731-.805c-2.385-1.256-4.418-2.69-6.57-4.312l-2.463-1.84q-2.532-1.905-5.062-3.813c-4.587-3.424-9.129-6.52-14.174-9.23z"/><path fill="#c6a24b" d="M279 503v2h3c5 5.349 5 5.349 5 8-3.5 1.193-4.948 1.019-8.48-.293a177 177 0 0 1-3.708-1.895l-1.904-.923c-3.477-1.774-5.67-3.09-6.908-6.889h-3v-3c5.918-2.049 10.752.126 16 3"/><path fill="#ceb168" d="M251 490q4.003 1.366 8 2.75l2.254.766c5.151 1.791 9.912 3.957 14.746 6.484-3.494 1.165-5.426.608-9 0l-2 1-2-1v3h3v2l3 1c-4.528-.618-8.539-1.763-12.812-3.375l-3.458-1.273L250 500l-1-3 4-2v-2l-3-1z"/><path fill="#5e7950" d="M343 748c4.75.875 4.75.875 7 2v2l6 2v1h-6v2h2v3c1.952 1.952 3.532 2.848 6 4l-2 4-1.477-1.504C346.362 758.676 336.92 753.862 326 751c2-2 2-2 4.375-2.25 2.694.257 4.317.882 6.625 2.25v2c2.496-.781 2.496-.781 5-2z"/><path fill="#a69b57" d="M332 545c4.789 2.827 7.353 5.457 10.375 10.25l2.086 3.266L346 561l-1 2-3-1c-3.15.883-3.15.883-6 2l-9-15 5-2z"/><path fill="#c69f47" d="M217 487h4v2h11v2h10l-1 2h-3v2l-15-3 4 6 2 3h-2v3c-2.875-.188-2.875-.188-6-1-1.188-2.438-1.188-2.438-2-5l-3-2h2z"/><path fill="#5a653b" d="M439 734c-1.366 3.542-2.909 6.926-4.625 10.312l-1.352 2.676L432 749h-2v2l-4 1-1 4h-3l5 1-2 7-2-2v-3h-5l.438-1.863.562-2.449.562-2.426c.533-2.369.533-2.369.438-5.262h2l2-4v4h3l1-2 3-2c.733-3.066.733-3.066 1-6h2v-2c2-1 2-1 5-1"/><path fill="#a5a774" d="M574 625h6c-4.231 3.756-8.724 5.976-13.812 8.312l-2.516 1.17A1435 1435 0 0 1 556 638l-2.416 1.112a861 861 0 0 1-6.646 3.013l-2.037.931c-1.608.709-3.252 1.336-4.901 1.944l-2-1 1-3h5v-2l6-2-2-6c5.415-4.062 5.415-4.062 8.375-3.75L558 628v3l-2 1c1.125 1.356 1.125 1.356 4.062 1.062L563 633v-2c3.687-2.458 6.697-3.012 11-4z"/><path fill="#b5ba4b" d="m281 729 .332 1.715.48 2.223.458 2.214L283 737l3 1c-3 2-3 2-5 2v3h2l-1 3h-13l1-6h2l.625-2.125c1.319-2.758 4.949-8.875 8.375-8.875"/><path fill="#cab472" d="m503 421 2 1c3.187 11.837-4.219 24.371-9 35l-1-3 1-2h-2c.875-4.875.875-4.875 2-6l-3-2-2 1c.875-4.75.875-4.75 2-7h3v-3l3-2 4 1z"/><path fill="#6d7f30" d="M460 556h3l1 15-2 1-2-1-.312 2.25c-.751 3.003-1.591 4.497-3.688 6.75-2.062 1.188-2.062 1.188-4 2l-2 1c1.728-6.307 3.837-12.441 6.125-18.562l.805-2.167c1.944-5.145 1.944-5.145 3.07-6.271"/><path fill="#3f6b2c" d="M429 700h2v4l3-3a85 85 0 0 1-2 7h-2l-.789 2.145c-1.292 3.045-2.861 5.721-4.586 8.543-2.8 4.694-4.954 9.275-6.703 14.449L417 735l-3 1c2.224-11.304 6.193-21.058 12-31l1.559-2.82z"/><path fill="#7d873e" d="M345 577c3.915.445 7.52 1.111 11 3 .562 1.875.562 1.875 1 4l2.125 1.938L361 588c-.25 2.75-.25 2.75-1 5h-4l-1-2-2 3-3-1 1-4h-2a113 113 0 0 1-3-5 164 164 0 0 0-3-4c1-2 1-2 2-3"/><path fill="#aba262" d="m274 560 4 1v5l3 1c.625 2.812.625 2.812 1 6l-2 3 2 1 .375 2.312c.763 3.283 2.124 4.509 4.625 6.688l-1 2 4 2-1 7c-2.896-3.412-5.011-6.716-6.938-10.75-1.814-3.763-3.705-7.37-5.874-10.938-2.423-4.268-3.333-8.402-3.188-13.312z"/><path fill="#c4bb86" d="M266 725c1.042 3.126 1.238 4.047 0 7a90 90 0 0 1-4 2l-1 3h-2l1 4h-2l.289 2.52.336 3.292.352 3.27C259 753 259 753 257 756l3 2-1 2 19-1c-4.26 2.13-7.379 2.367-12 2.375l-2.156.074c-3.536.02-5.455-.146-8.282-2.347-2.511-3.379-3.08-6.012-3.039-10.266 1.502-8.938 7.267-17.474 13.477-23.836"/><path fill="#365627" d="M350 755c2.688-.312 2.688-.312 6 0 2.562 2.188 2.562 2.188 5 5l2.688 2.5c2.284 2.47 3.313 4.321 4.312 7.5h2v3c-2.312.688-2.312.688-5 1-1.812-1.312-1.812-1.312-3-3v-2l-3 1-2-2v-4l-1.875-.875C353 762 353 762 351 760l1-3h-2z"/><path fill="#828f55" d="M297 610c1.875.125 1.875.125 4 1 1.25 3.062 1.25 3.062 2 6h3l1-3c3.792 1.219 5.524 3.607 7.383 7.059 1.045 3.288-.187 5.83-1.383 8.941v3l-1 2c-15-22.369-15-22.369-15-25"/><path fill="#6f9031" d="M449 582c1 2 1 2 .281 4.629-1.725 4.539-3.705 8.942-5.715 13.361A82 82 0 0 0 439 613h-3l-.188 1.75c-1.139 3.156-3.148 4.284-5.812 6.25a99 99 0 0 0-3 3c0-3.138.49-4.385 1.875-7.125l1.055-2.133C431 613 431 613 433 612a177 177 0 0 0 3.812-7.5 3573 3573 0 0 1 3.211-6.542c2.726-5.466 5.786-10.752 8.977-15.958"/><path fill="#47682a" d="m501 657 2 1-1 2h2v2l2 1h-4l-1 2-6-1c-1.333 2.667-.671 4.167 0 7h-5v4c-3 2-3 2-5.438 1.75A30.8 30.8 0 0 1 478 674l5-2v-2h2v-2c1.469-1.237 1.469-1.237 3.5-2.602l2.188-1.484 2.312-1.539 2.312-1.563Q498.15 658.898 501 657"/><path fill="#7e9a3e" d="M291 545c2.962.613 4.381 1.254 7 3v2l1.773.754c2.539 1.42 3.979 2.968 5.852 5.184l1.789 2.089C309 560 309 560 311 563c-.375 2.188-.375 2.188-1 4l3 1c.756 1.94 1.504 3.884 2.172 5.855 1.188 3.078 2.897 5.481 4.828 8.145l-2 1v-2l-3-1c-1.188-3.562-1.188-3.562-2-7h-3c-1.765-3.088-2-4.233-2-8h-2c-1.445-1.652-1.445-1.652-3.125-3.938-3.234-4.302-6.708-8.273-10.371-12.214C291 547 291 547 291 545"/><path fill="#57451e" d="M418 759h5l1 7h-2v8h-2l1 4-7 5c-.351-7.678.08-13.873 3-21z"/><path fill="#667c36" d="M352 593h3v2l5 1 1 3 2.375-.625L366 598c2.24 2.24 2.546 3.35 3.25 6.375l.578 2.336c.204 2.709-.429 4.003-1.828 6.289l-2-3-2.125-2.562C362 605 362 605 362 603a89 89 0 0 0-5-1c-1.968 1.968-1.662 5.348-2 8-3.518-5.277-3.106-10.864-3-17"/><path fill="#96a941" d="M452 497h2c-1.708 7.054-3.98 13.59-6.859 20.25-1.334 3.216-2.298 6.377-3.141 9.75l-1-4c-2.826 1.033-3.83 1.68-5.266 4.383l-.984 2.742-1.016 2.758L435 535l-2-3a380 380 0 0 1 1.812-3.812l1.02-2.145C437 524 437 524 438.496 522.578c2.02-2.12 2.723-4.282 3.754-7.016 2.618-6.516 5.698-12.805 9.75-18.562"/><path fill="#9da473" d="M304 744v3l-3 1c2.36 2.36 3.779 2.491 7 3v-2h18v1l-2.297.191c-10.614 1.141-20.752 3.698-31.065 6.421l-3.552.927-3.186.85c-2.735.576-5.116.731-7.9.611 3.088-1.765 4.233-2 8-2v-2h8l-1-9c7.625-2 7.625-2 11-2"/><path fill="#8f9258" d="M521 605h7l-1.438 1.312c-1.799 1.711-1.799 1.711-2.562 4.688l2 1-6 1v-2q-4.125-.04-8.25-.062l-2.355-.026-2.286-.01-2.094-.016c-2.115.12-3.981.538-6.015 1.114v5h-11l-1 3-3-2c17.644-10.132 17.644-10.132 27-10l5-1a98 98 0 0 1 5 0z"/><path fill="#678837" d="M310 563c5.187 3.857 8.794 8.403 12.656 13.574 2.657 2.75 4.672 3.524 8.344 4.426v2h-2v2h2l1 4-2-1v-2h-4l-1 2h-2c-1.621-2.23-1.621-2.23-3.438-5.188l-1.808-2.917L316 577l-1.688-2.723c-1.237-2.147-1.719-3.904-2.312-6.277l-2-1z"/><path fill="#b4c35a" d="M508 637v3l4 2a1826 1826 0 0 1-10.188 3.5l-2.908 1.012-2.822.957-2.587.888c-2.599.67-4.823.76-7.495.643 0-4 0-4 1.492-5.547 3.411-1.976 6.94-3.342 10.633-4.703l2.207-.852c5.419-2.023 5.419-2.023 7.668-.898"/><path fill="#c19f4c" d="m499.75 419.75 3.25.25c1.05 3.149 1.101 5.388 1.062 8.688l-.027 3.011L504 434l-2 1v-2l-6 2v3h-2c1.109-3.487 2.263-6.775 4-10l-5 2v-4l-4-1 3-1 1.75-2.062c2.25-1.938 2.25-1.938 6-2.188"/><path fill="#5f7c3b" d="M312 707q2.218-.04 4.438-.062l2.496-.036C321 707 321 707 322 708c2.548.283 5.095.448 7.652.621C332 709 332 709 334 711l-8 1v2h-3v2l2.312.312c2.914.746 3.718 1.533 5.688 3.688-1.433.532-2.872 1.05-4.312 1.562l-2.426.879C322 723 322 723 319 722h2v-6l-8-3 3-4z"/><path fill="#678d3f" d="M343.594 727.703c4.653.122 8.585 1.41 12.906 3.047l2.145.765c4.98 1.822 9.647 4.046 14.355 6.485-3.746 2.497-5.551 2.296-10 2a305 305 0 0 1-4.758-1.488c-5.29-1.208-10.836-1.227-16.242-1.512v-1l12-1-1-2a109 109 0 0 0-7.562-1.625c-1.067-.2-1.067-.2-2.155-.406A722 722 0 0 0 338 730c2-2 2-2 5.594-2.297"/><path fill="#bfc458" d="M415 524c3 1 3 1 3.85 2.679.217 3.359-.994 5.433-2.455 8.45l-.85 1.787c-.9 1.888-1.815 3.767-2.733 5.646-4.033 8.342-7.866 16.636-10.812 25.438-1.444-4.558-.025-8.048 1.438-12.438l.805-2.485c3.238-9.819 6.976-19.457 10.757-29.077"/><path fill="#b4a65d" d="m480 474 3 4 3-1c1.974 5.923.864 11.472-.5 17.438l-.844 3.746L484 501h-1l.035-2.117.027-2.758.036-2.742c.064-2.4.064-2.4-1.098-4.383h-2l-2 4h-2c.54-6.69 1.887-12.635 4-19"/><path fill="#98a176" d="M463 560h2l1 2 2-2c-1.425 7.676-4.03 14.545-7 21.75l-1.367 3.363q-1.255 3.086-2.52 6.167A888 888 0 0 0 454 599c-2-3.75-2-3.75-2-6h3c-.348-1.975-.348-1.975-1-4l-2-1 1.938-1.562c2.625-3.103 2.621-5.465 3.062-9.438l2-2c.643-2.069.643-2.069 1-4h3z"/><path fill="#61742f" d="M322 741h-3v6l3 1v1h-14v2c-4.554.369-4.554.369-6.812-1.5L300 748l4-1 1-4c2.08-.532 4.165-1.05 6.25-1.562l3.516-.879c2.955-.511 4.478-.589 7.234.441"/><path fill="#a09c55" d="M281 714v2l-3 1-1 2 6-1c.301 2.23.301 2.23 0 5-2.082 2.238-2.082 2.238-4.812 4.312l-2.708 2.114C273 731 273 731 270 731v-3l-3-1c.298-3.171 1.095-4.092 3.434-6.359l3.004-2.391 2.996-2.422C279 714 279 714 281 714"/><path fill="#6f9639" d="M316 624c3.786.541 5.554 2.117 8 5v2c2.867-.573 3.861-.861 6-3q1.36 2.036 2.707 4.082a153 153 0 0 0 2.93 4.18l1.675 2.363 1.614 2.227C340 643 340 643 339.668 645.273L339 647c-5.758-2.556-10.657-7.69-14-13v-2l-2.25-.625c-3.542-1.771-4.774-4.009-6.75-7.375"/><path fill="#5f8533" d="M395 636h2l-.438 1.562c-.671 2.591-.671 2.591-.75 5.938-.812 3.5-.812 3.5-3.5 5.938-3.531 1.665-5.471 1.896-9.312 1.562h-4l-1 6h-1l-1-9 2-1 2-3 2.562.875c3.959.144 4.37-.29 7.188-2.813l1.734-1.714C393 639 393 639 395 639z"/><path fill="#5d7330" d="M488 617h11v4a1227 1227 0 0 1-5.375 3l-3.023 1.688C488 627 488 627 486 627v-2l-1.125 1.562C483 628 483 628 479.812 627.688L477 627l1-3 2 1 .938-1.938C482 621 482 621 483 620l2-.438 2-.562z"/><path fill="#83a23f" d="M306 596c1.598 2.391 1.598 2.391 3.062 5.25l1.543 2.988L312 607l1.875 3.438C315 613 315 613 315 617h-3l-.25-1.875L311 613l-1.82-.766c-3.094-1.752-4.094-4.026-5.805-7.109l-1.789-3.18A194 194 0 0 1 298 595c3.436-1.227 4.959-1.004 8 1"/><path fill="#5d752f" d="m453 577 1 3h2v4l2 1-5 3 2 5h-3l.625 2.875L453 599l-2 2c-2.625-.375-2.625-.375-5-1v-2l-2-1 .805-1.539c1.67-3.256 3.16-6.355 4.32-9.836C450 583 450 583 452 581c.643-2.069.643-2.069 1-4"/><path fill="#9fb854" d="m487 643 2 1-3 1v4l2 1q-3.837 1.766-7.688 3.5l-2.185 1.012c-3.842 1.719-6.821 2.964-11.127 2.488.008-2.234.008-2.234 1-5 2.431-1.817 5.118-3.003 7.875-4.25l2.223-1.062c2.946-1.396 5.805-2.656 8.902-3.688"/><path fill="#d4c557" d="M274 729h3c-.53 4.508-2.252 7.42-5 11h-2l-1 7h4l1 3c-1 1-1 1-3.285 1.098l-2.777-.036-2.786-.027L263 751c.13-8.174 2.711-11.96 8-18l1.539-2.262z"/><path fill="#628830" d="M436 613h2c-1.525 7.496-3.68 14.714-6 22-.553-2.076-1-3.844-1-6h-2v-2h-3l-.625 2.562c-1.714 4.285-4.244 7.11-7.375 10.438l-2-1a759 759 0 0 1 4.25-7.438l1.199-2.142 1.192-2.041 1.079-1.889c1.622-1.888 2.895-1.984 5.28-2.49a89 89 0 0 0 2-4 508 508 0 0 1 4-3z"/><path fill="#5a7e34" d="M326 585c2 .312 2 .312 4 1l1 2 3 2c3 4.444 3 4.444 3 7h2v2h2v3h-9l-1.023-1.934-1.352-2.504-1.336-2.496c-1.123-2.201-1.123-2.201-3.289-3.066q-.063-3 0-6z"/><path fill="#9b9443" d="m402 537 5 2-.5 1.812c-.611 2.301-.611 2.301-.5 5.188-.525 5.249-1.428 9.969-3 15-2.375.188-2.375.188-5 0-2-3-2-3-2-6 2.5-2.688 2.5-2.688 5-5l-2-1q.464-2.439.938-4.875l.527-2.742C401 539 401 539 402 537"/><path fill="#c1bb4c" d="M459 469c1 2 1 2 .75 4.062L459 475l-3 1v4l2 2-6 2v3l-6 1-1 3-2.312 2.25C439.634 496.375 436 500.403 436 505a281 281 0 0 1-5 5l-2 3-2-1c8.528-13.837 17.878-26.419 28.738-38.505 1.469-1.683 1.469-1.683 3.262-4.495"/><path fill="#789b3d" d="M314 611c3.348 3.24 6.567 6.599 9.75 10l2.359 2.5c1.975 2.612 2.546 4.282 2.891 7.5-2.188.375-2.188.375-5 0a174 174 0 0 1-5-6l-1.949-.375c-3.102-.945-3.76-2.921-5.301-5.687l-1.578-2.786L309 614l2-1 1 4h3z"/><path fill="#a6b74b" d="m301 732-.062 2.875c-.164 3.032-.164 3.032 1.062 5.125-17.738 4.631-17.738 4.631-21 3v-3c3.244-2.758 5.87-4.173 10.062-4.562 3.524-.392 6.902-3.438 9.938-3.438"/><path fill="#bd9c49" d="M290 513h4v2l3.25.312c5.429.996 5.429.996 7.75 3.688.188 2.938.188 2.938 0 6a73 73 0 0 0 1 4c-6.124-3.843-12.169-7.724-18-12z"/><path fill="#c9a860" d="m464 443 1 2-1 3 1 3h-2v-2l-5 2c.833 2.167.833 2.167 3 3 .438 2.125.438 2.125 0 5-2.127 2.276-4.502 4.146-7 6-1-3-1-3 0-6h-4l-.188 1.875C449 463 449 463 446.438 464.25L444 465c3.614-5.079 7.488-9.777 11.688-14.375l1.44-1.587c2.188-2.37 4.172-4.238 6.872-6.038"/><path fill="#898a3b" d="M294 748v4l2 1h-2v2h-8v2h-10l1-2.375c1.119-2.468 1.119-2.468 1-4.625a519 519 0 0 1 5.75-1.562l3.234-.879c2.859-.53 4.332-.543 7.016.441"/><path fill="#788853" d="m527.625 643.438 2.477.308L532 644l-4 3 1 2h-5v3c-2.96 3.58-6.7 5.917-10.625 8.313l-1.773 1.126c-1.495.92-3.046 1.75-4.602 2.56-2-1-2-1-3-3l4-1 1-4 2.25.063c2.455-.056 4.411-.369 6.75-1.062l-1-6h2l.875-2.437c1.816-4.137 3.659-3.651 7.75-3.125"/><path fill="#be9742" d="M450 459h4c.459 5.055-.036 7.839-3.199 11.881l-1.301 1.557-1.301 1.638A267 267 0 0 1 445 478l-5-1c2.728-10.831 2.728-10.831 7-14l2-1z"/><path fill="#c2a967" d="M303 517c3.239 1.048 5.576 2.358 8.125 4.562 2.681 2.58 2.681 2.58 5.875 3.438a107 107 0 0 1 4 6l-2.25.438c-2.677.482-2.677.482-4.875 1.312L312 533c-1.562-1.438-1.562-1.438-3-3h-3v-4l-2-1 .062-2.875c.164-3.032.164-3.032-1.062-5.125"/><path fill="#839040" d="M395 559h3v2l4-1-1 13 5-2c-1.686 5.177-3.491 10.162-6 15l-.375-3.062c-.728-4.588-1.877-8.871-3.457-13.239l-.856-2.387-.824-2.199c-.555-2.402-.266-3.801.512-6.113"/><path fill="#a0b743" d="M465 528c2.172 3.445 2.058 5.5 1.25 9.438l-.547 2.808c-.691 2.708-1.604 5.187-2.703 7.754h-1v-9h-2l-.297 1.652c-1.128 5.692-2.59 11.386-5.703 16.348l-3 1-2-2 3-1v-6l1.902-.535c2.462-1.388 2.462-1.388 3.039-4.836q.337-2.03.621-4.067c1.036-7.064 1.036-7.064 3.028-9.535L462 529l1 3z"/><path fill="#5e8a37" d="M394 672c2 3 2 3 2 6l3 1-5 25c-2.113-3.169-2.256-3.976-2.266-7.605l-.007-2.733.023-2.85-.023-2.791c.016-5.681.659-10.572 2.273-16.021"/><path fill="#44652a" d="M325 711h9l1 4 3.438.375L342 716l1 2-4 1 1 6-2.957-1.715-3.855-2.223-1.948-1.13c-2.723-1.567-5.251-2.936-8.24-3.932v-2h3z"/><path fill="#3a6329" d="M390 673h3l-2 30h-3c-1.282-9.934-1.7-19.243 1-29z"/><path fill="#c6a94c" d="M251 491c2.062 2.5 2.062 2.5 3 5-1 1-1 1-3.723 1.098l-3.339-.036-3.348-.027L241 497l-1 2v-2l-2 2-2 2-6-7c4-1 4-1 6.25-.062L238 495v-2c4.236-2.402 8.21-2.934 13-2"/><path fill="#3d622c" d="M339 662h2c2.042 2.905 3 4.401 3 8h2c1.188 2.75 1.188 2.75 2 6-1.375 2.375-1.375 2.375-3 4-3.386-1.451-5.681-3.122-8-6-1.287-3.946-1.204-5.52.438-9.375z"/><path fill="#b49945" d="m493 443 1 2c2.025.652 2.025.652 4 1l-1 2-2-1-1 5 2 1h-3l-1 8-2.438.375L487 462l-1 2-2-1q1.067-3.205 2.145-6.406.842-2.552 1.617-5.125l.738-2.407.656-2.214C490 445 490 445 493 443"/><path fill="#305423" d="m373 656 2 1v10h2c1.495 5.334 2.968 10.673 4.25 16.062l.516 2.161C382 687 382 687 381 689l-5-2-.148-2.266-.227-2.984-.211-2.953c-.236-2.734-.236-2.734-1.445-4.641-1.51-3.359-1.177-6.795-1.094-10.406l.027-2.258c.024-1.831.06-3.661.098-5.492"/><path fill="#797d37" d="M520 611v2l-1.621.535q-3.627 1.2-7.254 2.403l-2.551.841-2.441.811-2.254.746c-1.933.64-1.933.64-3.879 1.664-1.354-2.709-1.065-5.009-1-8 6.427-3.662 13.961-2.024 21-1"/><path fill="#5c794f" d="M459 699h6c-1.652 3.874-4.236 6.886-6.938 10.062l-1.341 1.604c-2.146 2.549-4.309 5.033-6.721 7.334v-2h-2v-2h-2c.188-2.812.188-2.812 1-6 2.562-1.875 2.562-1.875 5-3l1 2 4-1-1-3 4-1z"/><path fill="#b6a260" d="M321 531c5.234 4.273 9.671 8.816 14 14l-1 2h-2l-3 2c-2.744-.171-3.743-.73-5.645-2.727-1.699-2.85-1.512-4.277-1.043-7.523l.364-2.703L323 534l-3-1z"/><path fill="#365d26" d="M463 689c1.062 1.812 1.062 1.812 2 4l-1 3 2 1h-3v2l-3 1 1 3h-2c-1.149 1.925-1.149 1.925-1 4l-6 1-2-4c2.645-4.212 5.37-7.551 9-11l2.312-2.312z"/><path fill="#566f2e" d="m518 646 2 1-2 5 4 1h-4v2c-3.371 1.498-5.204 2-9 2v4l-7-1c.168-2.27.168-2.27 1-5 2.363-1.949 2.363-1.949 5.312-3.688l2.926-1.761L514 648l2.23-1.27z"/><path fill="#90b14f" d="M415 629h1c1.038 4.52 1.749 8.335-.199 12.668-1.491 2.27-2.925 4.366-4.801 6.332h-2l-1 2-1-1-2 2c.404-6.337 2.678-10.653 6-16l1.184-1.906A97 97 0 0 1 415 629"/><path fill="#47672c" d="m443 609 1 2 3 1-4 12h-2v10c-3.562-3.562-4.098-9.153-4.5-14.062.653-5.141 2.839-7.451 6.5-10.938"/><path fill="#c3d15f" d="M371 595h4c1.606 8.088 2.263 15.757 2 24h-3c-1.756-5.376-2.393-10.301-2.625-15.938l-.117-2.361q-.138-2.85-.258-5.701"/><path fill="#7e9c3f" d="m331 564 1 6-5 1v-2l-3 1v2l3 1v3l2 1-5 2-9-11 1-2 2.562.688c4.996.454 7.74-2.688 12.438-2.688"/><path fill="#bdc858" d="M285 560c3.389 2.772 4.912 6.575 6.75 10.438a197 197 0 0 0 10.098 18.304L303 591l-1 2-1.836-2.641A297 297 0 0 0 282 567l4-2z"/><path fill="#aabd52" d="M321 735v5q-4.151 1.084-8.312 2.125l-2.381.629-2.295.566-2.111.54C304 744 304 744 301 742a75 75 0 0 0-5-1v-1l3.395-.84 4.417-1.098 2.237-.552c10.483-2.609 10.483-2.609 14.951-2.51"/><path fill="#d1b97b" d="M276 501c4.672 1.387 8.75 3.362 12.938 5.812l1.855 1.073c4.258 2.487 8.287 5.128 12.207 8.115-3.201 1.6-5.723.032-9-1v-2c-3.27.564-4.826 1.5-7 4l-3-3 3-1c-.195-1.95-.195-1.95-1-4-1.984-1.284-1.984-1.284-4-2v-2h-3v-2l-4-1z"/><path fill="#94b34c" d="M340 732v4c-6.234 1.984-12.542 3.003-19 4v-5l-3-1c14.597-2.296 14.597-2.296 22-2"/><path fill="#6c9740" d="m401 654 2 3-.5 1.938L402 661l1.117 1.707c1.36 3.531-.062 5.639-1.492 9.043l-1.461 3.547L399 678h-3c-2.247-9.146 1.261-15.775 5-24"/><path fill="#5c8740" d="M384.125 745.25c3.716 3.354 6.916 7.094 8.875 11.75l-1 2-2.203-2.414C383.11 749.469 377.165 744.705 368 741v-2c6.546-2.381 11.297 2.286 16.125 6.25"/><path fill="#6d7c3a" d="M317 708c-2.459 4.795-2.459 4.795-4.812 5.688-2.445.349-4.493.198-6.938-.126l-2.422-.308L301 713v-2l-8-1c5.36-5.36 17.078-2.87 24-2"/><path fill="#678d3f" d="m312 714 9 1c1.056 3.168 1.131 3.985 0 7-1.562 1.75-1.562 1.75-3 3l1 2c-3.375.125-3.375.125-7 0l-2-2 2-2c.167-2.958.167-2.958 0-6z"/><path fill="#938b3f" d="M537 603h7l-4 5 2 2q-3.936.542-7.875 1.062l-2.262.315c-5.636.736-5.636.736-7.863-.377.312-1.875.312-1.875 1-4 3.035-2.024 4.194-2.321 7.688-2.625l2.449-.227L537 604z"/><path fill="#7a8640" d="M296 594h2c1.543 2.082 1.543 2.082 3.188 4.812l1.667 2.708C304 604 304 604 303 607h-2v2h-2v-4h-2l1 3-2 2c-2-2-2-2-2.062-4.438L294 603l-1-3c1.5-4.5 1.5-4.5 3-6"/><path fill="#cbc255" d="M498 428c-1.492 4.972-3.605 9.418-6 14l-2-1 2-4q-2.473 1.931-4.938 3.875l-2.777 2.18c-2.345 1.739-2.345 1.739-3.285 3.945h-2l-.812 1.812c-1.173 2.16-2.382 3.546-4.188 5.188 0-4.452 2.937-6.467 5.875-9.5a1804 1804 0 0 0 3.305-3.469l1.491-1.545c1.545-1.658 1.545-1.658 3.329-4.486l-2-1q2.433-1.507 4.875-3l2.742-1.688C496 428 496 428 498 428"/><path fill="#3f6127" d="M465 633h5v2l3 1c-1.375 1.5-1.375 1.5-3 3h-2l-1 3c-3.323 3.143-4.297 4-9 4l-1-5h2l1-4h4z"/><path fill="#73963d" d="m434 593 1 2c-.665 1.648-.665 1.648-1.766 3.59l-1.199 2.127-1.285 2.221-1.238 2.208c-4.464 7.83-4.464 7.83-8.512 9.854a113 113 0 0 0-3 5c-1.642-3.284-.266-6.656.438-10.125l.447-2.285q.55-2.797 1.115-5.59l4 3-1 2c3.849-1.283 4.151-2.456 6-6a322 322 0 0 0 1.562-3.75C432 594 432 594 434 593"/><path fill="#a39846" d="M575.906 604.496c3.49-.098 5.567.188 8.594 2.004l1.5 1.5-1 6-1-2h-2l-.188 1.875C581 616 581 616 578.437 617.25L576 618l4-5-10-2c2.847-5.695 2.847-5.695 5.906-6.504"/><path fill="#bbc155" d="M301 741c1.938 1.5 1.938 1.5 3 3-18.34 6.34-18.34 6.34-27 3v-1q4.027-1.266 8.062-2.5l2.28-.723c4.649-1.409 8.749-2.316 13.658-1.777"/><path fill="#c0b887" d="M482 501h1c-.46 8.62-1.852 16.695-3.938 25.062l-.802 3.374C476.267 537.6 476.267 537.6 474 541l-2-7h-2c-.286-7.429-.286-7.429 2-11l.812 2.938L474 529l3 1 .371-3.84c.59-5.31 1.606-10.495 2.691-15.722l.565-2.768q.681-3.336 1.373-6.67"/><path fill="#aa9445" d="M488 462c1.517 12.67 1.517 12.67-1 18l-1-3h-2l-1 2c-2-2-2-2-2.047-3.988 1.09-8.533 1.09-8.533 3.047-12.012 3-1 3-1 4-1"/><path fill="#6f9337" d="m394 633 1 2c-.938 2.625-.938 2.625-2 5h-2l-1 3c-2.835 2.205-4.192 3.09-7.812 2.688L380 645l-2 3h-2v-6l3 1v-4l2.012-.043c6.161-.227 6.161-.227 11.113-3.519z"/><path fill="#858739" d="M284 574h3a986 986 0 0 1 4.562 8.312l1.327 2.381 1.24 2.295 1.158 2.111C296 591 296 591 295 594c-1.5-1.25-1.5-1.25-3-3v-4h-3l-1 2-2-1-.438-1.938c-.424-2.444-.424-2.444-3.562-4.062z"/><path fill="#5e7c4e" d="m349 721 9 3 1-3 1.375 2.938c1.283 3.133 1.283 3.133 3.625 4.062l-1 2-4-1 1 2 3 1c-4.152 1.19-6.387.79-10.312-.938l-2.676-1.152L348 729c3-2 3-2 5-2l-1-2-3-1z"/><path fill="#3f6324" d="M436 618h1c2.212 7.051 2.202 13.647 2 21l-1-2-1.812 1C434 639 434 639 431 639c1.311-7.111 3.017-14.047 5-21"/><path fill="#5f7330" d="M359 602c1.875.188 1.875.188 4 1q1.054 2.478 2 5c2.631 1.053 2.631 1.053 4 1l2-2c2.799 6.344 3.118 12.174 3 19-2.058-3.087-3.626-6.232-5.25-9.562-2.169-3.022-4.439-3.854-7.75-5.438-1.097-3.29-.8-4.713 0-8z"/><path fill="#538035" d="M375 686c5.989 5.399 9.836 15.342 12 23l-1 3c-3.583-2.965-4.768-5.707-6.207-9.969-.793-2.03-1.736-3.624-2.981-5.406C375 694 375 694 375 692h-2z"/><path fill="#4f6d31" d="M363 612c4.677 1.477 4.677 1.477 6.312 4.125L370 618l2-1 1 8h-2v2l-6 1 .062-3.25c-.048-2.898-.194-5.036-1.062-7.75h-2z"/><path fill="#767f37" d="m354 590 2 1v2h8v2h7l1 13c-3.454-3.454-4.564-4.691-6-9l-2.312.188c-3.191-.223-3.649-.871-5.688-3.188l-3-1z"/><path fill="#b99946" d="M259 533c4.274 3.229 7.282 5.737 9 11-.812 3.375-.812 3.375-2 6-1.875-.188-1.875-.188-4-1-1.312-2.375-1.312-2.375-2-5l1-3-1.875-.438C257 540 257 540 255 539v-3l4 1z"/><path fill="#5c784f" d="m440 716 7 5v-4l3 1c-1.69 3.664-3.873 6.908-6.125 10.25l-2.195 3.266L440 734l-2-4h3c-.184-2.941-.184-2.941-1-6-1.952-1.436-1.952-1.436-4-2z"/><path fill="#7e9439" d="m540 633 1 2c-8.951 5.309-15.345 8.322-26 6 3.431-2.287 6.983-3.674 10.812-5.125l2.12-.84c4.178-1.587 7.525-2.363 12.068-2.035"/><path fill="#9caa87" d="M448 599h4c1.174 3.522.8 4.17-.547 7.5l-1.058 2.675L449.25 612c-2.864 7.262-5.535 14.37-7.25 22h-1l-1-11 3 1c2.286-7.174 3.417-13.923 3.789-21.445C447 600 447 600 448 599"/><path fill="#41642c" d="m402 621 3 1c3.254 6.663 1.688 14.004 0 21l-2 1c-2.328-7.274-2.444-14.396-2-22z"/><path fill="#bec456" d="M475 489h1l-1 7h-2l1 3h-2l-.188 3.625c-.717 6.795-3.371 13.044-5.812 19.375h-1v-10h2l.375-3.312c.653-5.269 1.638-10.473 2.625-15.688l2 2z"/><path fill="#43682e" d="M329 646c3.898 1.299 4.349 2.774 6.312 6.312l1.676 2.926C338 658 338 658 337.168 660.355L336 662h-6c-.917-5.385-1.111-10.542-1-16"/><path fill="#959046" d="m279 752-2 4 5 1c-5.317 3.068-10.859 3.124-16.875 3.062l-3.492-.027L259 760v-1l3.25-.75c3.868-1.289 5.049-2.369 7.75-5.25 3.396-1.783 5.363-2.347 9-1"/><path fill="#719340" d="m311 714 3 2-1 3c-.523 2.384-1 4.558-1 7l27 1 1 2 3 2c-6.523.251-6.523.251-8.868-.982-2.744-1.31-4.958-1.339-7.991-1.432l-3.379-.117-3.512-.094-3.559-.117q-4.345-.141-8.691-.258v-3h2c.752-3.655 1.4-7.317 2-11"/><path fill="#b19543" d="M267 544h2c2.461 2.741 4.429 5.669 6 9-.625 3.562-.625 3.562-2 6l-5-1-1-7-3-1h2l-.062-2.438C266 545 266 545 267 544"/><path fill="#d7ce5f" d="M271 537c4.397 4.094 7.261 7.942 8 14l-.062 3.125c-.191 3.077-.191 3.077 2.062 5.875h-3a1227 1227 0 0 1-3-5.375l-1.688-3.023C271.641 548.289 272 546.831 272 543h-2z"/><path fill="#779b41" d="M428 570h1c.971 5.632.911 8.545-1 14a261 261 0 0 0-1.625 7.75l-.406 2.035c-.722 3.581-.722 3.581-.969 7.215l-4 1c.689-6.588 2.005-12.926 3.5-19.375l.684-3.02c1.682-7.337 1.682-7.337 2.816-9.605"/><path fill="#828838" d="M468 543v8l-3-1v3l2-1c1.354 7.385 1.354 7.385-.438 10.5L465 564v-4h-2v-4h-3c.425-1.607.866-3.211 1.312-4.812l.739-2.708c1.2-3.136 2.367-5.48 5.949-5.48"/><path fill="#a3bc42" d="M460 539h2c2.178 7.327-.15 14.185-3 21l-1-3c-2.015-.733-2.015-.733-4-1 1.855-5.719 3.931-11.356 6-17"/><path fill="#658d31" d="m396 629 2 1v3h2l1-4c2.125 12.75 2.125 12.75 0 17l-4-1v-9h-2l-1 3q.212-2.22.438-4.438l.246-2.496C395 630 395 630 396 629"/><path fill="#7f9067" d="m482 619 2 1-1 3h-2l-1 2h-4c-1.509 3.386-1.509 3.386-2 7h-2l-2 2-2.562.5-2.438.5-1 2-4-1c6.189-6.765 13.748-12.874 22-17"/><path fill="#b29646" d="m309 529 1.625 1.625L313 532c3.117-.817 3.117-.817 6-2l2 1v2l2 1v8c-3 0-3 0-4.648-1.355l-1.727-1.833-1.84-1.921L313 535a509 509 0 0 0-2.938-2.938L308 530z"/><path fill="#8e8d3b" d="M470 523c1.17 3.917.696 6.98 0 11h2c2 3 2 3 1.625 6.188L473 543h-3l-1-2-4 4c-1.349-2.699-.669-3.721.215-6.57l.83-2.715.893-2.84.88-2.863Q468.9 526.502 470 523"/><path fill="#c5bf50" d="M268 511c12.142 1.808 12.142 1.808 16 5v2c3.01.934 3.867 1.044 7 0 0 3 0 3-1 6l2 1h-3v-2l-4 1-2-5h-4v-2h-3v-2l-3 1-3-1v-2h-2z"/><path fill="#c4bd8b" d="M404 528h1v10l-3 1c-1.182 3.388-1.182 3.388-2 7l-1 3h2l1-2c-.597 3.342-1.736 5.464-4 8h-2l1 4-3 1c.601-6.641 2.761-12.561 5-18.812l1.117-3.178c2.703-7.65 2.703-7.65 3.883-10.01"/><path fill="#b2ad72" d="M586 607c2 1.125 2 1.125 4 3 .688 2.688.688 2.688 0 6-2.743 3.983-5.341 7.447-10 9v-4h4v-2l-2-1v-6h3z"/><path fill="#b2ba4d" d="M473 496h2c-.721 6.327-1.76 12.555-2.938 18.812l-.513 2.85-.514 2.733-.457 2.464C470 525 470 525 468 528v-7l-2 1c4.7-19.1 4.7-19.1 7-26"/><path fill="#89a541" d="M452 557c1 2 1 2-.082 5.316a275 275 0 0 1-1.73 4.246l-.932 2.26c-3.638 8.51-8.377 16.334-13.256 24.178-1.218-3.654-.566-4.606 1-8l1-2h2l.551-1.688A349 349 0 0 1 446 566h2l.875-3.375C450 559 450 559 452 557"/><path fill="#a1a169" d="m469 540 1 3h3l1-2c-.607 6.677-2.776 12.701-5 19l-.895-1.906c-.986-2.165-.986-2.165-2.793-3.594L464 553c.312-2.188.312-2.188 1-4l1 2h2l-.035-2.152-.027-2.786-.036-2.777C468 541 468 541 469 540"/><path fill="#57802f" d="m421 639 1 3-5 1-1 4h-2l-.875 1.75L410 655l2 1-1.875 1.812c-2.262 2.196-2.262 2.196-4.125 5.188-1-3-1-3 .582-6.652a348 348 0 0 1 2.23-4.286l1.12-2.169a612 612 0 0 1 2.091-4.018c1.02-1.901 1.02-1.901 1.913-4.049 1.733-2.974 3.812-2.826 7.064-2.826"/><path fill="#caba89" d="m493 453 3 1c-2.317 9.775-5.117 19.381-8 29h-1l.219-2.562c.504-6.169.902-12.249.781-18.438l4-1z"/><path fill="#c09840" d="M465 443h3l1 3 2 2-9 9-1-3h-4l1-4 5-1v2h2l-1.125-1.75c-.875-2.25-.875-2.25 0-4.5z"/><path fill="#c5c661" d="M302 715c-2 2-2 2-4.938 3.125-7.478 3.057-13.829 8.846-20.062 13.875l-1-4c4.3-4.198 8.774-7.158 14.125-9.875l1.811-.94c3.496-1.718 6.167-2.553 10.064-2.185"/><path fill="#95af3b" d="M390 591c1.998 4.121 2.178 7.452 2 12l-2 1v-2h-2l-2-4-5 1 1.062-1.812c1.271-2.296 1.271-2.296-.062-5.188 2.763-.597 5.16-1 8-1"/><path fill="#6e7d34" d="M297 605h2v4h2v-2l4-1a333 333 0 0 1 2.562 3.875l1.442 2.18L310 614l-1 2-2-1-1 2-5-1v-5l-4-1z"/><path fill="#a8964b" d="M482 488c2.295 3.442 2.153 3.989 1.539 7.887l-.43 2.842-.484 2.959-.461 2.994q-.566 3.661-1.164 7.318c-2-2-2-2-2.16-4.102l.098-2.523c.093-3.39-.056-6.421-.688-9.75C478 492 478 492 479.938 489.5z"/><path fill="#c9c055" d="m263 744 2 3h-2v4l10-1v-3l-4-1c5.527-.194 9.756.252 15 2l-1 2c-2.914.852-2.914.852-6.625 1.625l-3.664.789c-3.64.575-7.033.69-10.711.586-1.033-2.788-1.045-3.868-.062-6.75z"/><path fill="#7da448" d="M404 648c3 0 3 0 7 1l-7 15-3-2q.174-2.376.375-4.75l.211-2.672c.413-2.569 1.126-4.336 2.414-6.578"/><path fill="#abb54c" d="M553 615h14c-1.374 2.748-2.773 2.872-5.621 3.945l-2.834 1.075-2.983 1.105-2.97 1.129C545.284 625 545.284 625 543 625v-2a101 101 0 0 1 6-3l2 1 .438-1.875C552 617 552 617 553 615"/><path fill="#cdcd5a" d="M278 548c5.227 4.958 7.426 9.966 8 17l-4 1c-2.624-3.061-3-3.732-3-8l-1-1a74 74 0 0 1-.062-4.562l.027-2.504z"/><path fill="#577a35" d="m356 601 5 2c.25 2.312.25 2.312 0 5l-1.938 1.375c-2.469 1.573-2.469 1.573-2.687 5.25L356 618l-2 1c-4.392-1.464-4.879-3.978-7-8h2l3 3h2l.184-2.336.254-3.039.246-3.023C355 603 355 603 356 601"/><path fill="#918d74" d="M430 749c1.373 4.12-.196 6.723-1.75 10.562a1606 1606 0 0 0-2.503 6.442c-1.471 3.931-2.638 7.95-3.747 11.996l-2-4h2l-.562-2.875C421 768 421 768 422 766h2l2-8h-4v-2l3-2c1.192-2.05 1.192-2.05 2-4l3 1z"/><path fill="#7ba043" d="M340 731c11.104-.388 11.104-.388 15 2l1 3-18 1 2-1z"/><path fill="#4d6b2d" d="m476 624 1 3 6 1 1-3h2v3c-2.336 1.789-2.336 1.789-5.375 3.625l-3.023 1.852A79 79 0 0 1 473 636l-3-2 2-3 2 1-1-3c1.438-2.688 1.438-2.688 3-5"/><path fill="#4b6c26" d="M444 598h2c1.382 2.765 1.095 5.046 1.062 8.125l-.027 3.32L447 612l-4-2-5 5c1.502-5.986 2.942-11.613 6-17"/><path fill="#928c42" d="M344.25 561.688C346 563 346 563 347 566c-.438 2.688-.438 2.688-1 5l2 1-4 1v-2l-1.812-.187c-3.091-1.149-3.776-2.918-5.188-5.813v-2c4.379-2.19 4.379-2.19 7.25-1.312"/><path fill="#cbaf6a" d="m217 497 4 2v4l6 1v-3h2v7h2l1 7c-11.915-9.992-11.915-9.992-15-16z"/><path fill="#7ba043" d="M319 728c7.728-.318 13.939-.323 21 3v1c-6.374.962-12.559 1.107-19 1v-4z"/><path fill="#6b845b" d="M334 711c6.136 1.416 10.267 5.066 15 9-3 1-3 1-5 1l-2 6h-2l-1-8 3-2-2.375-.438C337 716 337 716 335 715c-.625-2.062-.625-2.062-1-4"/><path fill="#a9c257" d="M378 618v25l-2-1c-1.686-7.575-2.267-15.26-2-23 3-1 3-1 4-1"/><path fill="#c6b67a" d="M262 549c2.375.562 2.375.562 5 2 1.312 3.625 1.312 3.625 2 7l4 1 1-5 4 4-2 1.562c-2.656 3.238-2.313 5.364-2 9.438-3.229-2.762-5.08-6.345-7.125-10l-1.09-1.906c-1.512-2.673-2.811-5.173-3.785-8.094"/><path fill="#d7c65b" d="M265 506c3.576.585 6.405 1.532 9.609 3.215l2.536 1.33 2.605 1.393 2.652 1.38c6.47 3.426 6.47 3.426 7.598 5.682l-6 1v-4c-3.158-1.426-6.11-2.218-9.5-2.812-4.417-.915-6.652-2.605-9.5-6.188z"/><path fill="#628d3a" d="M410 701h1l1 6h-2l-.812 2.562c-1.236 3.577-2.665 6.977-4.188 10.438l-4-1c.585-4.39 2.23-7.474 4.5-11.25l1.906-3.203C409 702 409 702 410 701"/><path fill="#6c8b37" d="m504 633 4 3q-2.935 1.256-5.875 2.5l-3.305 1.406C496 641 496 641 494 641v-3h-9l2-4 1 2c2.025.652 2.025.652 4 1v-2h12z"/><path fill="#c3b84f" d="M242 497h7l1 2c3.258 1.36 6.571 2.507 9.898 3.684 4.466 1.895 6.15 3.961 8.102 8.316-4.486-1.252-7.593-2.794-11-6v-2h-6v-2h-3v-2h-6z"/><path fill="#788c61" d="m501 662 4 3a1610 1610 0 0 1-6.375 5l-1.828 1.445C492.227 675 492.227 675 490 675v-4l4-1-.625-2.375L493 665l2-2 6 2z"/><path fill="#85a536" d="M378 611h2c.111 5.458-.083 10.615-1 16h4c1.125 3.75 1.125 3.75 0 6h5c-2 2-2 2-10 3z"/><path fill="#8f9455" d="M289 587h3l.812 2.938L294 593l3 1-1.562 1.625c-1.915 3.163-1.129 4.844-.438 8.375l-2 2c-4.536-6.237-4.447-11.438-4-19"/><path fill="#b3b99a" d="M329 708v1q-3.5.062-7 0l-1-1c-10.697-.475-21.468.007-32 2 9.285-9.285 28.957-4.673 40-2"/><path fill="#45672f" d="m474 678 2 1-2.875 2.25c-3.893 3.802-4.156 7.901-4.703 13.141C468 697 468 697 466 699h-3q.483-3.502 1-7l.25-2.438c.999-3.412 2.743-4.95 5.312-7.374l2.504-2.395z"/><path fill="#96ae47" d="M300 731h8l.875 1.875c1.062 2.258 1.062 2.258 3.125 4.125-4.177 1.591-7.532 2.213-12 2z"/><path fill="#9a913d" d="M277 559c3.824 3.399 6.713 7.435 9 12v3h-2l-1 7-2-1 1-3-3-1 1-2.25c1.228-2.889 1.228-2.889 1-6.75l-4-1z"/><path fill="#86a645" d="m432 558 3 3-1 2 4 1-1 5h-2v-2c-2.342.878-2.342.878-3 3.938L431 574l-2 2c-.365-6.573.864-11.795 3-18"/>
  </g>
  <g class="crop-part crop-part--other_2" data-group-id="leaves-1782125853056-khe0gg" data-layer-index="2">
    <path fill="#6e4c28" d="M400 787h5v2l3-1 2 1v-2h3c1.01 10.74 1.002 21.345.625 32.125l-.131 3.807c-.225 5.753-.501 11.394-1.494 17.068l2 1c-2.879 3.077-4.735 4.807-9.081 5.177-2.577.066-5.154.108-7.731.135l-2.698.088c-5.692.055-9.012-.534-13.49-4.4-2.438-3.062-2.438-3.062-4-6l1-3c4 2 4 2 5.828 3.051 2.533 1.107 4.416 1.249 7.172 1.261l2.562.051c2.903-.432 4.197-1.533 6.438-3.363h2c1.873-11.764 2.882-24.677-4-35l-1.75.875L394 801l-1.812 1.031c-2.542 1.126-4.674 1.376-7.438 1.594l-2.703.227L380 804v-8l3.75-.375c3.194-.392 5.405-1.107 8.25-2.625l3.125-.312L398 792c1.453-2.463 1.453-2.463 2-5"/><path fill="#926739" d="M396 798c1.812.5 1.812.5 4 2 3.046 6.092 3.373 11.263 3 18h-2c-1.004 6.525-1.004 6.525 0 13-4.293 3.816-6.324 4-12 4v2h-4l-.375-1.938L384 833l-2-1v-2l-3 1c-.855-9.207-1.651-17.976 1-27 1.526-1.526 3.066-1.188 5.188-1.312 4.679-.449 7.164-1.788 10.812-4.688"/><path fill="#705437" d="m423 772-.124 1.674c-.932 13.284-1.523 26.179 2.222 39.119.86 3.058 1.056 4.322-.098 7.207-2.29-3.435-2.178-4.985-2-9l-5 1v10l-5 1q-.037-8.78-.055-17.56a3962 3962 0 0 0-.02-5.968q-.017-4.3-.023-8.601l-.015-2.674c-.001-4.843.295-9.422 1.113-14.197q1.968-.502 3.938-1l2.214-.562C422 772 422 772 423 772"/><path fill="#5b682f" d="m411 776-3 1v2h-2v2l-2.375.188L401 782a90 90 0 0 0-2 5c-1.875 1.062-1.875 1.062-4 2l-1.742 2.012c-2.899 2.552-4.696 2.572-8.508 2.738l-3.266.172L379 794l-2-10c6.213-2.947 12.589-4.601 19.25-6.25l3.297-.852 3.156-.789 2.864-.719C408 775 408 775 411 776"/><path fill="#735030" d="m372 814 1.375 1.5c1.501 1.726 1.501 1.726 3.625 1.5 1.583 4.326 2.451 8.429 3 13h2v2l4 2-2 3-1.875-1.5c-1.964-1.692-1.964-1.692-4.125-1.5l.875 1.688c1.166 2.397 2.159 4.828 3.125 7.312l-2.438-.062c-2.496-.234-2.496-.234-3.562 1.062l3 1c.688 2.062.688 2.062 1 4l1-1a99 99 0 0 1 5 0v5c-6.976-.922-10.942-5.792-15.562-10.75L369 840l1-3v2c1.602-1.18 1.602-1.18 3-3 .322-2.421.322-2.421.074-5.105l-.166-2.979-.22-3.104-.186-3.138A702 702 0 0 0 372 814"/><path fill="#5b391a" d="M376 842q2.188.464 4.375.938l2.461.527C385 844 385 844 387 845c1.52.151 3.045.249 4.57.316l2.715.127 2.84.119 2.863.131q3.506.16 7.012.307c.687 2.491 1 4.379 1 7-3.113 1.556-6.399 1.184-9.812 1.188l-2.159.037c-4.131.011-7.317-.38-11.029-2.225v-3l-4-1-1 2-1-5-4-1z"/><path fill="#685d2c" d="m414 774-1 13h-3v2c-3.856.22-6.492-.396-10-2l1 3h-2l-1 3c-3.188 1.062-3.188 1.062-7 2l-3.125 1.188c-3.103.876-4.817.711-7.875-.188v-3l2.301-.184 3.011-.254 2.989-.246c2.793-.234 2.793-.234 5.699-1.316l1-2c1-2 1-2 4-3 1.219-2.504 1.219-2.504 2-5h5v-2h2v-2c4.5-3 4.5-3 6-3"/><path fill="#87775e" d="m369 787 8 2v3h-2l-.076 2.064q-.176 4.625-.362 9.248l-.119 3.249-.127 3.115-.111 2.872C374 815 374 815 373 818a99 99 0 0 0 0 5l-1-2h-2l-1 16h-1c-.343-8.499.07-16.378 1.562-24.75 1.57-8.899 1.251-16.406-.562-25.25"/><path fill="#5d391b" d="M423 811c1.715 8.005 2.112 18.121-2.062 25.375L419 839l-2-1 .492-1.633c1.427-6.649.668-13.738-.492-20.367.312-2.312.312-2.312 1-4 2-1 2-1 5-1"/><path fill="#755541" d="m415 821 4 1c.688 11.814.688 11.814-1.812 15.75L415 840h-3a466 466 0 0 1-.188-6.688l-.105-3.761c.308-3.737 1.112-5.557 3.293-8.551"/><path fill="#765d47" d="M423 818h2v2h2c1.932 13.964 1.932 13.964-1 20-2.082 1.246-2.082 1.246-4 2-.851-4.729-.902-8.308 0-13 .38-3.663.693-7.331 1-11"/><path fill="#68411d" d="M376 799h4c.249 7.29-.277 13.907-2 21l-1-3-3 1v-17h2z"/><path fill="#835831" d="M403 812h1c.055 2.354.094 4.708.125 7.062l.07 3.973c-.266 5.399-.748 9.554-4.695 13.403-4.619 2.061-8.523 1.916-13.5 1.562l3-1v-2c5.625-2 5.625-2 9-2 1.534-2.436 2.105-3.499 1.5-6.375-.644-3.38.253-5.472 1.5-8.625h2z"/><path fill="#74553b" d="M420 835h2v5h3c-1.861 4.567-5.037 7.886-9.312 10.312L414 851l-2-3c1.701-5.302 4.174-8.978 8-13"/><path fill="#856b53" d="M416 838c0 3 0 3-1.562 6.438-1.673 3.307-1.673 3.307-1.126 6L414 852c-5.607 2.841-10.008 3.44-16.25 3.312l-2.43.01c-3.929-.036-5.985-.099-9.32-2.322h20c1.185-2.873 1.185-2.873.75-5.5l.25-2.5c2.25-1.562 2.25-1.562 5-3a89 89 0 0 0 4-4"/><path fill="#5b4a20" d="M377 784a820 820 0 0 1 2.062 6.812l.604 1.948c1.447 4.9 1.447 4.9.334 8.24v-2h-4v2h-2c-.125-6.75-.125-6.75 1-9h2v-3h-6l-1-3c4.75-2 4.75-2 7-2"/><path fill="#553315" d="M370 821h2c1.391 2.781 1.422 5.345 1.688 8.438l.324 3.496C374 836 374 836 372 839h-2c-1.419-2.838-1.132-5.277-1.125-8.438l-.008-3.496C369 824 369 824 370 821"/>
  </g>
</svg>