<svg xmlns="http://www.w3.org/2000/svg" viewBox="0 0 768 1024"><path fill="#4e6f3e" d="M372 523c.6.46 1.21.92 1.83 1.4 22.88 17.94 33.66 47.98 38.17 75.6 4.32-2.82 8.56-5.62 12.56-8.88 23.24-17.63 56.42-24.05 84.96-20.66 29.16 4.27 53.81 18.77 72.48 41.54 6 8.12 6 8.12 6 11h2c11.86 24.12 20.21 51.28 12 78-6.07 16.73-17.85 29.99-33.88 37.93-12.26 5.63-23.33 7.39-36.74 7.19-1.2 0-2.39-.01-3.63-.02-2.91-.03-5.83-.06-8.75-.1.6.74 1.21 1.48 1.83 2.24 8.61 10.94 12.75 20.44 11.17 34.76-2.45 11.48-11.33 19.45-20.71 25.81-8.99 5.76-18.58 9.69-28.98 12-7.06 1.73-11.63 5.08-17.08 9.6-24.16 19.9-60.52 26.82-90.97 24.28-21.09-2.46-40-9.7-56.8-22.65-7.16-5.5-14.89-7.7-23.46-10.04-14.02-3.88-26.08-9.19-37-19-.65-.54-1.29-1.08-1.96-1.64-7.29-6.54-11.21-14.52-11.8-24.28-.25-12.63 3.78-21.57 11.82-31.39 6.83-7.08 15.41-12.22 24.38-16.13 4.87-2.31 7.07-5.53 9.93-10.01 9.08-14.2 24.19-22.04 40.24-26.03 2.78-.61 5.56-1.14 8.39-1.52-15.71-20.25-44.86-29.32-68.29-37.21-26.9-9.07-55.99-19.72-69.71-46.79-6.9-16.62-7.41-36.32-.75-53.12 10.29-22.87 28.46-38.12 51.63-47.1C292.09 492.56 337.32 495.1 372 523"/><path fill="#926745" d="m337 689 4 1v5h2c1.14 2.45 2.26 4.91 3.38 7.38.31.67.63 1.35.96 2.05 4.46 9.95 4.94 19.39 4.78 30.19 0 1.2-.01 2.39-.02 3.63-.03 2.91-.06 5.83-.1 8.75-.79.05-1.57.09-2.38.14-5.91.41-11.1.93-16.62 3.11-1.05.4-2.1.79-3.19 1.2-3.16 1.74-4.76 3.61-6.81 6.55.58-.02 1.17-.03 1.77-.05 2.7-.06 5.4-.1 8.11-.14.91-.02 1.83-.05 2.78-.07 9.29-.1 17.01 2.06 24.96 6.82 1.54.9 1.54.9 3.11 1.82.75.53 1.5 1.07 2.27 1.62v2c.9.4.9.4 1.81.81 2.19 1.19 2.19 1.19 3.5 2.81 2.8 2.28 5.17 1.68 8.69 1.38 3.03-1.07 5.84-2.47 8.69-3.94a614 614 0 0 1 4.45-2.21c.64-.33 1.29-.66 1.96-1 4.5-2.01 8.9-2.04 13.78-2.04h2.25c7.08.07 13.9.95 20.87 2.19-3.75-6.96-9.67-10.4-17.06-12.88-1.31-.38-2.62-.76-3.94-1.12-1.41-6.13-1.22-12.24-1.25-18.5l-.06-3.65c-.04-8.34 1.08-15.82 3.31-23.85 9.25-2.69 20.32-4.48 29.4-.52 2.92 1.88 5.68 3.85 8.44 5.94 4.56 3.33 9.36 6.33 14.1 9.39.98.65 1.96 1.29 2.98 1.96 9.52 6.45 9.52 6.45 20.02 10.98l2.34.73c.57.17 1.13.34 1.72.52v2l2.56-.12c3.86.14 6.78.95 10.44 2.12v2c.71-.01 1.42-.02 2.15-.04l2.79-.02c.91-.01 1.83-.03 2.77-.04 2.29.1 2.29.1 3.29 1.1 2.45.09 4.87.12 7.32.1 1.09 0 1.09 0 2.21-.01 2.35 0 4.69-.01 7.03-.03 1.59 0 3.17-.01 4.76-.01 3.89-.01 7.79-.03 11.68-.05-3.43 2.09-6.09 2.23-10.08 2.2l-3.51-.02-3.66-.06-3.7-.02c-3.02-.03-6.03-.06-9.05-.1.6.74 1.21 1.48 1.83 2.24 8.61 10.94 12.75 20.44 11.17 34.76-2.45 11.48-11.33 19.45-20.71 25.81-8.99 5.76-18.58 9.69-28.98 12-7.06 1.73-11.63 5.08-17.08 9.6-24.16 19.9-60.52 26.82-90.97 24.28-21.09-2.46-40-9.7-56.8-22.65-7.16-5.5-14.89-7.7-23.46-10.04-14.02-3.88-26.08-9.19-37-19-.65-.54-1.29-1.08-1.96-1.64-7.29-6.54-11.21-14.52-11.8-24.28-.25-12.63 3.78-21.57 11.82-31.39 6.83-7.08 15.41-12.22 24.38-16.13 4.87-2.31 7.07-5.53 9.93-10.01 9.08-14.2 24.19-22.04 40.24-26.03 2.78-.61 5.56-1.14 8.39-1.52-.5-1.49-.5-1.49-1-3"/><path fill="#6f9d4b" d="M553.963 601.505c3.91 3.27 7.56 6.77 11.04 10.5.56.59 1.12 1.19 1.7 1.81 10.99 12.11 18.37 26.39 22.3 42.19.31.99.63 1.99.95 3.02 3.48 11.56 4.18 26.8-.95 37.98-2.64 3.3-5.09 5.4-9 7v2c-17.12 10.68-31.68 15.41-52 14-1.27-.09-2.54-.18-3.85-.26-13.57-1.47-26.56-6.68-38.15-13.74v-2c-.74-.11-1.47-.22-2.22-.33-3-.73-4.78-1.78-7.28-3.55l-2.37-1.64c-.7-.49-1.41-.98-2.13-1.48-1.67-1.01-3.33-2.01-5-3-2.9-1.92-5.79-3.86-8.65-5.83-16.8-10.9-35.38-19.4-55.67-19.3-1.23-.01-1.23-.01-2.49-.01-3.91-.38-3.91-.38-7.19 1.14-1.08.12-2.15.24-3.25.37-3.73.62-5.63 1.63-8.75 3.63h-3v2h-3c-.16-10.1 4.55-18.41 11-26h2c.25-.59.51-1.18.78-1.79 3.98-7.23 11.96-11.02 19.22-14.21.76-.36 1.51-.72 2.29-1.09 12.83-5.71 25.84-6.19 39.64-6.16h2.05c24.74.08 44.29 7.81 65.75 19.51 4.71 2.54 9.05 4.51 14.27 5.74-1.23-5.05-4.45-7.34-8.32-10.45-.56-.52-1.11-1.03-1.68-1.55v-2h-2v-2c-.83-.23-1.65-.46-2.5-.69-4.25-1.59-7.71-3.86-11.5-6.31-2.3-1.41-4.62-2.74-7-4-.9-.48-.9-.48-1.81-.97-13.52-6.58-30.2-10.45-45.19-10.28-.9 0-1.8.01-2.73.01-11.63.16-23.02 1.24-34.27 4.24 4.18-10.2 16.88-16.9 26-22a189 189 0 0 1 2.52-1.43c33.64-17.97 79.76-16.59 110.44 6.93"/><path fill="#6f9c4a" d="M335 516c1.09.37 2.17.75 3.29 1.13 23.76 9.1 41.35 27.91 51.95 50.62 3.55 8.16 7.33 18.28 6.76 27.25-2.15-3.22-2.64-5.54-3.34-9.26q-.33-.855-.66-1.74l-3-1c-.13 1.97-.13 1.97-.26 3.99-.75 9.82-1.55 18.37-6.74 27.01h-2c-.34.96-.34.96-.69 1.94-1.31 2.06-1.31 2.06-3.62 3-3.53.08-4.87-.84-7.69-2.94-1.7-2.78-1.7-2.78-3.12-5.94-1.7-3.7-3.43-6.82-5.88-10.06v-2h-2l-1-3-1.44-1.38c-1.56-1.62-1.56-1.62-2.5-4.18-1.32-3.04-2.17-3-5.06-4.44-1.79-1.45-3.54-2.96-5.25-4.5-.89-.79-1.78-1.59-2.7-2.41C338 576 338 576 338 574h-2v-2c-.74-.27-1.49-.55-2.25-.83-2.54-1.08-4.46-2.25-6.69-3.86-12.45-8.48-25-13.57-40.06-14.31v5c.66.08 1.32.16 2 .25 3.3.82 5.95 2.13 8.94 3.71 2.08 1.09 2.08 1.09 4.45 1.97 2.94 1.2 5.64 2.66 8.42 4.19.98.54 1.95 1.08 2.96 1.64.74.41 1.47.82 2.23 1.24v2c.69.22 1.39.43 2.11.66 3.7 1.71 6.25 4.06 9.2 6.84l1.67 1.51c1.38 1.28 2.71 2.63 4.02 3.99v2c.84.33.84.33 1.7.66 10.62 6.18 18.05 21.44 23.24 32.09q.45.915.93 1.86c2.4 5.15 2.85 9.58 1.44 15.08-1.65 2.91-3.55 4.45-6.31 6.31h-2v2c-6.82 3.03-14.64 2.9-21.75 1-.74-.33-1.49-.66-2.25-1v-2c-.85.04-1.7.09-2.58.13-3.78-.14-6.64-.98-10.22-2.21-.63-.22-1.26-.43-1.92-.65-2.01-.69-4.02-1.38-6.03-2.08-2.64-.91-5.28-1.81-7.92-2.71-.64-.22-1.27-.43-1.93-.66-6.73-2.29-13.41-4.49-20.4-5.82-17.03-3.29-34.55-9.97-48.27-20.67-1.53-1.18-3.13-2.26-4.73-3.33v-2h-2v-2c-.61-.26-1.21-.52-1.84-.79-5.94-3.33-9.66-12.12-12.16-18.21-2.85-10.94 1.48-21.36 6.54-30.9 9.73-16.45 25.55-27.27 43.46-33.1.78-.28 1.55-.56 2.35-.86 22.55-8.07 51.72-10.09 74.65-2.14"/><path fill="#a37550" d="M347 705c5.37 9.28 5.28 19.17 5.12 29.62 0 1.2-.01 2.39-.02 3.63-.03 2.91-.06 5.83-.1 8.75-.79.05-1.57.09-2.38.14-5.91.41-11.1.93-16.62 3.11-1.05.4-2.1.79-3.19 1.2-3.16 1.74-4.76 3.61-6.81 6.55.58-.02 1.17-.03 1.77-.05 2.7-.06 5.4-.1 8.11-.14 1.37-.04 1.37-.04 2.78-.07 9.29-.1 17.01 2.06 24.96 6.82 1.03.6 2.05 1.2 3.11 1.82.75.53 1.5 1.07 2.27 1.62v2c.9.4.9.4 1.81.81 2.19 1.19 2.19 1.19 3.5 2.81 2.8 2.28 5.17 1.68 8.69 1.38 3.03-1.07 5.84-2.47 8.69-3.94a614 614 0 0 1 4.45-2.21c.64-.33 1.29-.66 1.96-1 4.5-2.01 8.9-2.04 13.78-2.04h2.25c7.08.07 13.9.95 20.87 2.19-3.75-6.96-9.67-10.4-17.06-12.88-1.31-.38-2.62-.76-3.94-1.12-1.41-6.13-1.22-12.24-1.25-18.5l-.06-3.65c-.04-8.34 1.08-15.82 3.31-23.85 9.25-2.69 20.32-4.48 29.4-.52 2.91 1.88 5.66 3.86 8.42 5.95 2.62 1.89 5.33 3.61 8.06 5.33 1.04.66 2.08 1.32 3.15 1.99q3.12 1.98 6.24 3.93c1.43.93 1.43.93 2.9 1.87 1.29.81 1.29.81 2.6 1.65 2.51 2.03 3.66 4.01 5.23 6.8 1.03 1.08 2.09 2.15 3.16 3.19 3.78 4.31 3.54 8.24 3.22 13.75-.05 1.31-.05 1.31-.09 2.65-.07 2.14-.17 4.27-.29 6.41h-2l-1 6-3 1-.69 2.25c-2.49 5.22-7.4 7.06-12.66 8.95-8.89 2.8-8.89 2.8-11.65 2.8-.15.87-.15.87-.3 1.76-1.1 5.77-2.38 10.72-7.31 14.46-7.04 4.35-15.31 4.65-23.39 3.78-2.31-1.09-3.96-2.42-6-4-2.18.07-2.18.07-4 1l-3 1v2c-1.94 1.37-1.94 1.37-4.56 2.88-1.39.79-1.39.79-2.8 1.6-1.31.75-1.31.75-2.64 1.52-1.09.7-2.19 1.4-3.31 2.12-9.62 5.37-20.11 6.63-30.94 6.57-1.27-.01-2.54-.01-3.84-.02-10.63-.26-18.77-2.38-27.91-7.67-1.09-.57-2.17-1.15-3.29-1.74-5.84-3.35-10.25-6.85-12.71-13.26-.61-2.73-.85-5.19-1-8-4.09-.14-7.22-.25-11.12 1-10.01 3.01-19.29.98-28.94-2.12-1.36-.43-1.36-.43-2.74-.86-8.01-2.77-10.97-6.77-15.2-14.02l-2-2c2.6-6.51 5.6-12.32 11-17h2v-2c2.12-1.23 4.25-2.46 6.38-3.69.63-.37 1.27-.74 1.92-1.12 3.68-2.12 7.36-3.95 11.26-5.63 4.53-2.2 6-4.64 8.12-9.1 6.28-11.75 17.45-18.62 29.82-22.4 6.55-1.87 12.67-2.72 19.5-2.06"/><path fill="#588542" d="M287 553c17.56-1.42 33.31 8.38 47.56 17.77.47.41.95.81 1.44 1.23v2h2c1.73 1.63 3.36 3.29 5 5 1.18 1.19 2.37 2.38 3.56 3.56.59.6 1.19 1.19 1.8 1.81 1.31 1.3 2.66 2.57 4.02 3.82 1.78 1.99 2.01 3.28 2.62 5.81l3 1v3h2c1.59 2.12 1.59 2.12 3.38 5 .62 1 1.25 2 1.89 3.02 1.45 2.51 2.65 4.95 3.79 7.6 1.61 3.6 1.61 3.6 4.94 4.63 3.75-.31 4.62-1.45 7-4.25h2c.29-.89.58-1.77.88-2.69.66-1.96 1.37-3.9 2.18-5.81 2.03-5.41 2.19-11.16 2.5-16.88.07-1.1.07-1.1.13-2.23.11-1.79.21-3.59.31-5.39 3.74 3.55 5.71 5.96 7 11h2c2.38 10.22 4.74 23.13-.34 32.83-2.63 3.43-5.85 6.19-9.09 9.02C378.19 642.98 369 657.94 368 672c-.17 5.34-.12 10.66 0 16 1.89-3.45 3-6.99 4.12-10.75.36-1.17.71-2.34 1.08-3.55.26-.89.53-1.78.8-2.7h1v5h3v-2c5.03-2.81 9.18-4.41 15-5l1-1c23.95-1.64 48.6 6.37 67.29 21.68 2.13 1.64 4.39 2.94 6.71 4.32 1.14.74 2.28 1.48 3.41 2.23.6.39 1.2.78 1.81 1.18 1.23.82 2.47 1.63 3.7 2.45 4.25 2.78 4.25 2.78 9.08 4.14v2c1.18.34 1.18.34 2.38.69 2.89 1.05 5.25 2.16 7.93 3.62 4.62 2.36 9.3 3.97 14.25 5.44.7.21 1.39.42 2.11.64 20.02 5.73 40.4 3.88 58.58-6.14.66-.4 1.33-.8 2.01-1.21 2.15-1.29 4.38-2.2 6.74-3.04v-2c5.48-5 5.48-5 8-5-1.47 8.12-7.89 15.74-14 21h-2v2c-1.93 1.01-3.87 2.01-5.81 3-1.08.56-2.16 1.11-3.27 1.69C560 728 560 728 557 728v2c-22.91 7.39-48.44 3.42-69.55-7.25-6.58-3.42-13.03-7.06-19.45-10.75v-2q-.84-.15-1.71-.3c-2.77-.85-4.58-2.17-6.91-3.89-4.37-3.15-8.85-5.91-13.54-8.55-.61-.41-1.22-.83-1.84-1.26v-2c-.55-.11-1.1-.22-1.67-.33-2.78-.8-5.04-2.04-7.58-3.42-14.2-7.1-30.25-11.86-46.07-7.29-6.88 3.23-11.9 7.87-14.68 15.04-.58 7.79 2.64 15.03 7.44 21.06 2.73 2.07 5.43 3.56 8.56 4.94v2h8l1 28c-7.88 3.38-7.88 3.38-13 3v2h-2v2h-10v-2h-2c-2.12-1.88-2.12-1.88-4-4v-2h-3c-1.31-2.63-1.18-4.67-1.25-7.61l-.09-3.46c-.03-1.21-.06-2.43-.1-3.68-.54-16.23-1.74-30.75-9.22-45.53C353 690 353 690 353 688h-2c-1.41-1.69-1.41-1.69-3.06-4-9.47-12.49-22.24-19.36-36.03-26.06-1.65-.81-3.28-1.67-4.91-2.54-8.54-4.54-17.53-7.52-26.68-10.6-2.23-.77-4.45-1.59-6.66-2.44-2.68-.99-5.2-1.85-7.97-2.48C262 639 262 639 259 638l2 5h-2c.7 3 .7 3 2 6 1.83.62 1.83.62 4 1 1.63.65 3.26 1.31 4.88 2 3.71 1.51 7.11 2.58 11.12 3v2c1.98.5 1.98.5 4 1-3.99 1.33-5.73.32-9.7-1.03-.66-.22-1.32-.44-2-.68-2.14-.73-4.28-1.48-6.42-2.23-.73-.25-1.46-.5-2.21-.77-25.01-8.73-52.18-20.06-64.67-45.29v-3h4c.29.8.58 1.61.88 2.44.85 2.69.85 2.69 3.12 3.56-.23.6-.45 1.2-.69 1.81-.1.72-.2 1.45-.31 2.19 1.35 1.77 1.35 1.77 3 3 1.49-.5 1.49-.5 3-1l1 5c.99-.5.99-.5 2-1l3 7c1.98-.5 1.98-.5 4-1l1 3c1.49.5 1.49.5 3 1l1-4 4 1v-2l-2-1v-2c-1.86-1.77-3.75-3.45-5.69-5.12-4.73-4.22-8.45-8.15-11.31-13.88-.38-.7-.75-1.41-1.14-2.13-2.61-4.98-4.01-8.94-3.92-14.62.01-.8.02-1.6.02-2.42.02-.61.03-1.21.04-1.83 3.77 4.48 6.49 9.25 9.32 14.36 1.57 2.86 1.57 2.86 4.68 4.64v2h2v2c.56.26 1.13.52 1.71.79 2.49 1.32 4.65 2.86 6.91 4.52 13.25 9.32 30.12 15.62 46.04 18.6 5.22 1.02 10.3 2.37 15.4 3.84.9.26 1.81.52 2.74.78 6.65 1.94 13.2 4.12 19.69 6.55 3.83 1.42 7.47 2.39 11.51 2.92v2c7.71 1.71 16.29 1.71 24 0v-2c1.72-1.32 3.53-2.43 5.37-3.59 2.85-2.47 2.6-5.03 2.92-8.68-.35-4.53-1.73-7.52-3.85-11.48-.37-.7-.73-1.4-1.11-2.12-7.92-14.98-17.86-27.4-30.39-38.82-.84-.76-1.68-1.53-2.54-2.32-2.1-1.74-3.92-2.92-6.4-3.99v-2c-.7-.27-1.4-.54-2.12-.81-3.05-1.26-5.94-2.72-8.88-4.19-2.55-1.22-5.12-2.43-7.69-3.62-.66-.32-1.32-.63-2.01-.95-2.74-1.28-5.42-2.47-8.3-3.43z"/><path fill="#446734" d="M259 638c7.68 1.15 14.69 3.06 21.94 5.81.96.36 1.93.72 2.92 1.09 2.72 1.02 5.43 2.06 8.14 3.1 1.16.45 2.33.89 3.53 1.36 19.33 7.77 43.96 18.36 55.47 36.64v2h2c8.94 16.56 11.17 32.72 11.62 51.38l.12 4c.1 3.2.18 6.41.26 9.62h3v2l4 2v2h2v2h10v-2h2v-2c4.33-1.3 8.51-2.34 13-3-.16-1.1-.33-2.21-.5-3.34-.63-5.06-.61-10.07-.56-15.16 0-.92.01-1.84.01-2.78.01-2.24.03-4.48.05-6.72h-8v-2c-.89-.23-1.77-.45-2.69-.69-6.9-2.73-10.19-8.53-13.06-15.06-2.07-5.8-1.32-10.81 1.13-16.37 5.29-5.81 12.64-10.82 20.66-11.19 18.07-.64 32.26 4.78 47.96 13.31v2c.73.27 1.47.54 2.23.82 2.64 1.12 4.78 2.38 7.15 3.99.77.53 1.54 1.05 2.34 1.6 2.07 1.44 4.11 2.92 6.16 4.4 2.95 2.29 2.95 2.29 6.12 3.19v2c.82.23 1.65.45 2.5.69 2.76 1.03 4.6 1.93 7 3.5 17.27 11.08 34.59 15.98 55 16l2.97.03c5.43.02 10.33-.38 15.57-1.79C553 730 553 730 557 730v-2c1.05-.4 1.05-.4 2.12-.8 1.36-.53 1.36-.53 2.76-1.08.9-.34 1.8-.69 2.74-1.05 2.5-.96 2.5-.96 4.38-3.07h3v-2c1.49-1.18 1.49-1.18 3-2.38 11.04-9.31 15.17-21.93 16.45-35.83.69-12.11-2.45-23.22-5.9-34.74C585 645 585 645 585 643h3c.1-.64.21-1.28.31-1.94.34-1.02.34-1.02.69-2.06 1.49-.5 1.49-.5 3-1l1 5h4l1 7h3c5.18 22.79 6.67 44.43-5.8 65.16-9.04 13.87-24.06 24.9-40.2 28.84-8.47 1.31-17.07 1.15-25.62 1.12-1.28.01-2.56.01-3.88.02-1.21 0-2.42-.01-3.66-.01h-3.33C516 745 516 745 515 744c-1.68-.23-3.37-.41-5.06-.56-1.38-.13-1.38-.13-2.79-.26-.71-.06-1.42-.12-2.15-.18v-2l-2.56.12c-3.86-.14-6.78-.95-10.44-2.12v-2c-.66-.1-1.32-.21-2-.31-8.48-1.95-14.9-5.95-22.06-10.75-1.01-.67-2.02-1.33-3.05-2.02-2.97-1.97-5.93-3.94-8.89-5.92l-4.77-3.18c-1.96-1.31-3.93-2.62-5.89-3.94-5.14-3.45-8.26-4.04-14.4-4h-2.32c-5.27.04-10.4.36-15.62 1.12-1.98 10.2-2.24 19.97-2.12 30.31.01 1.53.01 3.06.02 4.59.02 3.7.06 7.4.1 11.1.58.1 1.16.2 1.76.3 5.21 1.01 8.92 2.33 13.24 5.58.93.67 1.86 1.35 2.81 2.05 2.23 2.11 2.87 3.08 3.19 6.07-7.28.13-7.28.13-10.76-.48-13.64-2.18-24.36-.16-36.49 6.23-4.15 2.1-7.04 3.23-11.75 2.25-2.65-1.71-4.95-3.6-7-6v-2c-.96-.34-.96-.34-1.94-.69-3.35-1.43-6.37-3.2-9.49-5.09-6.95-3.29-14.01-3.59-21.57-3.84l-2.93-.12c-2.35-.1-4.71-.18-7.07-.26 2.45-5.45 6.69-7.65 12.12-9.75 3.82-1.18 7.2-1.38 11.18-1.33 1.07.01 2.14.02 3.25.04.81.01 1.62.03 2.45.04-.33-24.68-.33-24.68-8.01-47.86C343 697 343 697 343 695h-2c-.06-.78-.12-1.57-.19-2.38-.4-1.29-.4-1.29-.81-2.62-1.65-.7-3.32-1.36-5-2-1.13-.99-2.23-2.02-3.31-3.06-11.96-10.82-29.88-18.76-44.97-24.15C285 660 285 660 284 658l-3-1v-2c-.85.06-1.69.12-2.56.19-4.09-.23-6.75-1.44-10.44-3.19l-3.81-1.5C261 649 261 649 259 646v-3h2z"/><path fill="#845f43" d="m337 689 4 1v5h2c.67 1.29 1.34 2.58 2 3.88.37.71.74 1.43 1.12 2.17.88 1.95.88 1.95.88 3.95-.93.1-1.86.2-2.82.3-17.44 2.04-31.45 6.51-43.29 20.15-1.76 2.37-2.81 4.48-3.95 7.17-3.26 6.52-10.73 8.65-17.03 11.44-1.89.93-3.56 1.98-5.29 3.17C272 749 272 749 270 749v2c-1.32 1.16-1.32 1.16-3.12 2.5-5.28 4.45-9.15 9.57-10.43 16.46-.33 7.25 1.41 13.06 5.55 19.04l2 1c.27.62.53 1.23.8 1.87 1.6 2.85 3.47 3.7 6.32 5.25 1.66.91 3.3 1.86 4.88 2.88v2c.68.19 1.35.39 2.05.59l2.7.79c.88.25 1.76.51 2.67.77 2.58.85 2.58.85 4.45 1.84 2.27 1.08 4.3 1.59 6.76 2.09 9.78 2.08 18.17 3.93 26.37 9.92 1.36.81 2.74 1.6 4.12 2.38.95.53 1.9 1.07 2.88 1.62v2l1.76.88c2.02 1.01 4.01 2.05 6.01 3.11 24.59 12.83 53.01 18.23 80.23 10.01.86-.35 1.72-.7 2.61-1.06 3.45-1.36 6.71-1.57 10.39-1.94v2c1.46 1.63 1.46 1.63 3 3-4.2 2.97-8.22 5.09-13 7l2 2c-3.62 1.32-6.1 2-10 2v2c-33.81 4.34-65.84.39-93.54-20.96-7.16-5.5-14.89-7.7-23.46-10.04-14.02-3.88-26.08-9.19-37-19-.65-.54-1.29-1.08-1.96-1.64-7.29-6.54-11.21-14.52-11.8-24.28-.25-12.63 3.78-21.57 11.82-31.39 6.83-7.08 15.41-12.22 24.38-16.13 4.87-2.31 7.07-5.53 9.93-10.01 9.08-14.2 24.19-22.04 40.24-26.03 2.78-.61 5.56-1.14 8.39-1.52-.5-1.49-.5-1.49-1-3"/><path fill="#82ae59" d="m335 516 3.29 1.13c23.76 9.1 41.35 27.91 51.95 50.62 3.55 8.16 7.33 18.28 6.76 27.25-1.92-2.88-3.09-5.49-4.38-8.69-1.52-3.72-3.09-7.36-4.93-10.93C386 572 386 572 386 570h-2v-4h-2c-1.73-1.68-1.73-1.68-3.62-3.88-.64-.71-1.27-1.43-1.92-2.17C375 558 375 558 375 556l-4-2v-2l-3-1c-1.68-1.66-3.34-3.32-5-5-23.83-20.2-49.67-23.83-80-22-6.84.7-13.42 2.05-20 4-.65.19-1.31.39-1.98.58-11.43 3.5-22.12 8.35-31.28 16.1C228 546 228 546 226 546v2h-2v2c-.74.58-1.49 1.15-2.25 1.75-5.88 4.81-7.7 10.54-9.5 17.63-.22.83-.44 1.66-.67 2.51-.54 2.04-1.06 4.07-1.58 6.11h-1c-.91-14.53 3.85-25.47 13.15-36.56 10.02-10.66 21.99-17.93 35.85-22.44.78-.28 1.55-.56 2.35-.86 22.55-8.07 51.72-10.09 74.65-2.14"/><path fill="#866146" d="M514 744h35c-4.07 2.04-5.67 2.24-10.08 2.2l-3.51-.02-3.66-.06-3.7-.02c-3.02-.03-6.03-.06-9.05-.1.6.74 1.21 1.48 1.83 2.24 8.61 10.94 12.75 20.44 11.17 34.76-2.45 11.48-11.33 19.45-20.71 25.81-8.99 5.76-18.58 9.69-28.98 12-7.06 1.73-11.63 5.08-17.08 9.6-13.19 10.87-36.77 22.41-54.23 21.59 2.64-1.41 5.07-2.37 8-3v-3c1.05-.41 2.1-.83 3.19-1.25 3.4-1.44 6.02-3.3 8.81-5.75-1.49-.99-1.49-.99-3-2 1-3 1-3 3.37-4.21 1.01-.39 2.02-.77 3.07-1.17 4.92-1.93 9.62-4.07 14.31-6.51 2.37-1.17 4.78-2.16 7.25-3.11v-2c1.43-1.18 1.43-1.18 3.31-2.44 1.91-1.27 3.57-2.43 5.15-4.1 4.54-4.3 12.2-5.7 18.04-7.46 2.17-.66 4.33-1.33 6.5-2 .84-.26 1.69-.52 2.56-.79 6.99-2.45 19-8.34 22.44-15.21h2c3.67-8.25 2.59-17.59 0-26h-2l-2-4 3-3c-.5-.99-.5-.99-1-2l4-4z"/><path fill="#4c6e3d" d="M259 638c7.68 1.15 14.69 3.06 21.94 5.81.96.36 1.93.72 2.92 1.09 2.72 1.02 5.43 2.06 8.14 3.1 1.16.45 2.33.89 3.53 1.36 19.33 7.77 43.96 18.36 55.47 36.64v2h2c11.11 20.58 11.32 40.13 11 63h-2v-2h-9c-.06-1.85-.06-1.85-.11-3.74-.58-16.05-1.72-30.99-8.68-45.64C343 697 343 697 343 695h-2c-.06-.78-.12-1.57-.19-2.38-.4-1.29-.4-1.29-.81-2.62-1.65-.7-3.32-1.36-5-2-1.13-.99-2.23-2.02-3.31-3.06-11.96-10.82-29.88-18.76-44.97-24.15C285 660 285 660 284 658l-3-1v-2c-.85.06-1.69.12-2.56.19-4.09-.23-6.75-1.44-10.44-3.19l-3.81-1.5C261 649 261 649 259 646v-3h2z"/><path fill="#598643" d="M503 627c2.46 1.32 4.97 2.54 7.48 3.76 3.27 1.61 6.38 3.4 9.52 5.24v2h2v2c.54.21 1.07.41 1.62.62 3.28 1.9 6.16 4.29 8.38 7.38v4c-6.9-.36-11.96-3.34-17.94-6.62-28.81-15.41-60.05-22.93-92.68-15.44-6.02 1.89-11.67 4.38-17.38 7.06-1.66.68-3.33 1.35-5 2 2.29-3.7 4.64-7.35 7-11 .96-1.54.96-1.54 1.93-3.11 5.49-8.34 5.49-8.34 9.95-9.45 1.7-.19 3.41-.32 5.12-.44 1.27-.18 2.53-.35 3.84-.54 24.23-3.36 56.26-3.88 76.16 12.54"/><path fill="#85b25c" d="M553.963 601.505c3.92 3.28 7.5 6.82 11.04 10.5.67.66 1.34 1.32 2.03 2.01 3.97 4.16 6.96 8.92 9.97 13.8.41.66.82 1.32 1.24 1.99 1 1.69 1.89 3.44 2.76 5.2l-1 3c-.44-.77-.87-1.53-1.32-2.32-1.46-2.33-2.76-3.77-4.68-5.68-1.09-1.34-2.15-2.7-3.19-4.07-.53-.69-1.06-1.38-1.61-2.1-1.2-1.83-1.2-1.83-1.2-3.83-.59-.28-1.17-.55-1.78-.83-2.17-1.15-3.93-2.41-5.85-3.92-4.57-3.49-9.37-6.43-14.37-9.25-.78-.45-1.57-.89-2.37-1.35-6.01-3.23-12.14-5.11-18.73-6.86-2.9-.79-2.9-.79-4.9-1.79-29.17-7.35-63.82-1.55-89.44 13.75-.95.59-1.9 1.18-2.87 1.79-2.64 1.42-4.75 2.05-7.69 2.46-.5 1.48-.5 1.48-1 3-2.07.68-2.07.68-4 1 4.18-10.2 16.88-16.9 26-22a189 189 0 0 1 2.52-1.43c33.64-17.97 79.76-16.59 110.44 6.93"/><path fill="#80593b" d="M352 729h1v20h9v2h3v2h3v2l4 2v2h2v2h10v-2h2v-2c5.8-1.92 11.29-2.54 17.38-2.88.89-.07 1.78-.14 2.71-.21 8.36-.47 14.74 2.06 21.41 7.09.65.47 1.3.95 1.97 1.44 1.78 1.81 2.15 3.08 2.53 5.56-7.28.13-7.28.13-10.76-.48-13.64-2.18-24.36-.16-36.49 6.23-4.15 2.1-7.04 3.23-11.75 2.25-2.65-1.71-4.95-3.6-7-6v-2c-.64-.23-1.28-.45-1.94-.69-3.35-1.43-6.37-3.2-9.49-5.09-6.95-3.29-14.01-3.59-21.57-3.84l-2.93-.12c-2.35-.1-4.71-.18-7.07-.26 2.45-5.45 6.69-7.65 12.12-9.75 5.62-1.77 11.04-1.45 16.88-1.25z"/><path fill="#486938" d="M401 577c2.48.5 2.48.5 5 1v2h2l4 20 6 1 1-2 2 1-2 4h2c.11 5.76-.95 8.37-4.94 12.56-.81.84-1.63 1.68-2.47 2.54-2.9 3.25-5.1 6.66-7.4 10.34-4.15 6.55-8.93 11.49-14.82 16.49-2.42 1.85-2.42 1.85-3.37 4.07h-2c-.26.55-.53 1.11-.8 1.68-1.2 2.32-1.2 2.32-2.72 4.7-5.15 8.14-8.06 16.47-10.87 25.63-.82 2.68-1.71 5.33-2.61 7.99-2.48-2.48-2.26-3.96-2.28-7.36l.03-2.14.03-2.21c.37-16.76 7.56-31.24 19.22-43.29 1.78-1.58 3.57-3.14 5.38-4.69 5.63-4.98 7.35-8.29 7.85-15.76.15-6.94-.35-13.44-1.78-20.23-.54-2.8-.6-5.48-.45-8.32.99 1.49.99 1.49 2 3z"/><path fill="#49753b" d="m378 689 1 2 3.06-1c8.32-2.1 17.58-1.61 25.94 0-1 3.16-2.08 6.17-3.44 9.19-4.41 10.33-5.08 20.43-5.25 31.5-.03 1.49-.07 2.98-.1 4.47-.08 3.61-.15 7.23-.21 10.84h-1v-20h-8v-2c-.89-.23-1.77-.45-2.69-.69-6.9-2.73-10.19-8.53-13.06-15.06-1.63-4.57-1.55-8.59-.25-13.25 1.15-2.27 2.41-4 4-6"/><path fill="#5d7a4f" d="M508 571c6.87.47 13.18 1.6 19.75 3.62 1.3.4 1.3.4 2.62.81 23.07 7.32 45.8 24.05 57.63 45.57v2h2c1.49 3.18 2.97 6.37 4.44 9.56.42.9.84 1.79 1.27 2.72 2.28 4.97 3.88 9.25 4.29 14.72h-2c-.5-3.47-.5-3.47-1-7h-4l-2-4h-2c-.5 1.98-.5 1.98-1 4h-4c-.34-.73-.68-1.45-1.03-2.2-4.69-9.74-9.91-18.76-17.47-26.55-2.78-2.97-4-4.7-4-8.81.16-1.14.33-2.27.5-3.44h2v-2l-2-2c-.5-1.49-.5-1.49-1-3-.99.5-.99.5-2 1-.65 2.02-.65 2.02-1 4l-5-1c.25-1.88.25-1.88 1-4 2.06-1.25 2.06-1.25 4-2-2.71-1.35-5.01-1.07-8-1q-.375-1.11-.75-2.25c-1.34-2.95-2.86-4.6-5.25-6.75v2c-4.75-.75-4.75-.75-7-3l2-1-6-2v2l-7 1 1 3-4-1 2-3-4-1 1-5-3 1v-2l-11-2z"/><path fill="#406330" d="M340 676c3.39 1.44 5.36 3.22 7.75 6l1.86 2.12C351 686 351 686 351 688h2c11.11 20.58 11.32 40.13 11 63h-2v-2h-9c-.04-1.23-.07-2.47-.11-3.74-.58-16.05-1.72-30.99-8.68-45.64C343 697 343 697 343 695h-2l-1-5-3-1c-1-3-1-3 0-6h-2c.4-2.89.79-3.82 3.06-5.75.64-.41 1.28-.83 1.94-1.25"/><path fill="#436732" d="M208 568c.01 1.01.01 1.01.03 2.04.05 3.12.14 6.22.22 9.34.01 1.06.03 2.12.04 3.21.23 7.24 1.54 12.9 4.71 19.41.39.81.78 1.62 1.18 2.46 4.22 8.53 11.01 14.33 18.82 19.54l-1 4h-4l-1 3h-5v-3h-4l-3-6c-.99.5-.99.5-2 1l-1-5c-1.49.5-1.49.5-3 1v-3l-3-1c.99-.5.99-.5 2-1v-3l-4-1h2l-2-5h-4c-.13-.84-.27-1.69-.4-2.55-.18-1.1-.36-2.2-.54-3.33-.26-1.63-.26-1.63-.52-3.3-.4-2.76-.4-2.76-1.54-4.82-.08-1.38-.11-2.75-.1-4.13.01-.81.01-1.61.01-2.44l.03-2.55c0-.85.01-1.7.01-2.58.01-2.1.03-4.2.05-6.3h1l1 6c.08-.62.16-1.24.25-1.88.99-2.79 2.18-2.84 4.75-4.12.65-2.02.65-2.02 1-4 2-1 2-1 3-1"/><path fill="#4a6b3a" d="M241 513v2c-.8.23-1.61.45-2.44.69-.84.43-1.69.86-2.56 1.31-.84 2.38-.84 2.38-1 5-.32 1.34-.66 2.67-1 4h-2v2h-2c-.5-.99-.5-.99-1-2h-3v2h2v2c-.87-.53-.87-.53-1.75-1.06-2.17-1.08-2.17-1.08-4.37-.94-2.23.93-2.23.93-3.13 4.06-.25.97-.5 1.94-.75 2.94l2 1-4 2v2l4 1-1 2h-5c.46.9.46.9.94 1.81C216 547 216 547 217 550c-.89 1.95-.89 1.95-2.25 4.12-2.35 3.96-3.76 7.68-4.88 12.13-.87 1.75-.87 1.75-2.96 2.5-.63.08-1.26.16-1.91.25l-1 5c-1.98.5-1.98.5-4 1l-1 7h-1q-.045 2.19-.06 4.38c-.01.81-.03 1.62-.04 2.46-.04 2.21-.04 2.21 1.1 4.16.23 2.04.41 4.08.56 6.12.09 1.1.17 2.2.26 3.33.06.84.12 1.68.18 2.55-5.7-5.7-5.07-16.65-5.19-24.25.21-21.2 8.42-38.38 23.42-53.12C234.17 513 234.17 513 241 513"/><path fill="#507141" d="M200 605h4c.29.8.58 1.61.88 2.44.85 2.69.85 2.69 3.12 3.56-.23.6-.45 1.2-.69 1.81-.1.72-.2 1.45-.31 2.19 1.35 1.77 1.35 1.77 3 3l3-1 1 5 2-1 3 7 4-1 1 3 3 1 1-4 4 1v-2l-2-1c5.33.55 9.28 2.41 13.94 4.88 1.36.7 2.72 1.41 4.09 2.11.66.34 1.32.69 1.99 1.04 1.94.95 3.89 1.74 5.89 2.53 3.09 1.44 3.09 1.44 4.53 4.63.18.93.37 1.85.56 2.81h-2c.7 3 .7 3 2 6 1.83.62 1.83.62 4 1 1.63.65 3.26 1.31 4.88 2 3.71 1.51 7.11 2.58 11.12 3v2c1.98.5 1.98.5 4 1-3.99 1.33-5.73.32-9.7-1.03-.66-.22-1.32-.44-2-.68-2.14-.73-4.28-1.48-6.42-2.23-.73-.25-1.46-.5-2.21-.77-25.01-8.73-52.18-20.06-64.67-45.29z"/><path fill="#496b37" d="m361 517 2 1-1 5c2.95 1.16 2.95 1.16 6 1 5.47.36 7.4 1.96 11 6l1.83 1.68c2.98 2.73 4.92 4.57 6.23 8.44-.07 3.16-.49 5.14-2.06 7.88l-3 1-1 3q-.81-1.035-1.65-2.1c-7.25-8.94-14.6-16.66-24.35-22.9-1.68-1.31-3.36-2.63-5-4 1.11.06 2.23.12 3.38.19 1.19-.06 2.39-.13 3.62-.19 2.18-2.68 2.18-2.68 2-5z"/><path fill="#59774b" d="M508 571c6.87.47 13.18 1.6 19.75 3.62 1.3.4 1.3.4 2.62.81 21.16 6.72 37.27 19.96 51.63 36.57-.5.99-.5.99-1 2l-5-1c-.5-1.98-.5-1.98-1-4h-2l-1 3-3-2-3 4c-2-1.5-2-1.5-4-4-.36-2.76-.19-5.2 0-8h2v-2l-2-2c-.5-1.49-.5-1.49-1-3-.99.5-.99.5-2 1-.65 2.02-.65 2.02-1 4l-5-1c.25-1.88.25-1.88 1-4 2.06-1.25 2.06-1.25 4-2-2.71-1.35-5.01-1.07-8-1q-.375-1.11-.75-2.25c-1.34-2.95-2.86-4.6-5.25-6.75v2c-4.75-.75-4.75-.75-7-3l2-1-6-2v2l-7 1 1 3-4-1 2-3-4-1 1-5-3 1v-2l-11-2z"/><path fill="#476936" d="M533 579c2.97.5 2.97.5 6 1l1 4 4 1v-2l3 1c.7 1.65 1.37 3.32 2 5l2 1-1 2c1.09-.21 2.19-.41 3.31-.62C557 591 557 591 560 593l-2.44 1.31c-2.84 1.49-2.84 1.49-3.56 4.69l4 1v-5l4-1c.12.62.25 1.24.38 1.88.49 2.31.49 2.31 2.62 4.12l-1 2h-2c.21.78.41 1.57.62 2.38.13.86.25 1.73.38 2.62l-2 2-1.34-1.4c-5.15-4.99-10.59-8.51-16.85-11.98-.77-.42-1.54-.85-2.34-1.29-4.07-2.21-8-4.03-12.47-5.33v-2h-3l1-5c3.47-.5 3.47-.5 7-1z"/><path fill="#7e5a3b" d="M476 731c5.45 1.72 10.71 3.85 16 6v2l2.56-.12c3.86.14 6.78.95 10.44 2.12v2h10l2 4 2 3h-2c-.5 1.49-.5 1.49-1 3l-1 1v3c-1.69.75-1.69.75-4 1-2.62-1.88-2.62-1.88-5-4l-2-1v-2c-.59-.18-1.18-.36-1.79-.55-4.45-1.42-8.26-2.92-12.21-5.45-.77-.26-1.54-.51-2.34-.78-3.32-1.53-5.07-3.48-7.47-6.22-.79-.89-1.58-1.77-2.4-2.69C476 733 476 733 476 731"/><path fill="#466734" d="M243.813 514.813c.72.39 1.44.78 2.19 1.19l-1 3c.39 2.64.39 2.64 1 5-.62.42-1.24.85-1.87 1.28-2.73 1.89-5.43 3.8-8.13 5.72-1.17.83-1.17.83-2.35 1.67-6 4.45-10.82 9.65-15.65 15.33l-4-1v-4l6-2c-.64-.11-1.28-.21-1.94-.31-.68-.23-1.36-.46-2.06-.69l-1-3 4-1c-.34-1.12-.34-1.12-.69-2.25-.31-2.75-.31-2.75 1.12-5.06l1.57-1.69c2.96.61 4.38 1.25 7 3v-2h-2v-2l-2-1 2-1c2.12.93 2.12.93 4 2v2h2v-2h2l-1-3c1.31-3.5 2.51-5.59 5.37-8 2.63-1 2.63-1 5.44-.19m2.19.19 2 1Z"/><path fill="#416531" d="M383 638c1 3 1 3 .06 5.19-.35.6-.7 1.19-1.06 1.81h5v4h-2v2h-2c-.06.99-.12 1.98-.19 3-.43 3.14-1.36 5.08-3.16 7.68-2.77 4.29-4.34 8.59-5.84 13.44-.24.78-.49 1.55-.75 2.34l-1.41 4.49c-.85 2.69-1.75 5.37-2.65 8.05-2.48-2.48-2.26-3.96-2.28-7.36l.03-2.14.03-2.21c.34-15.31 6.43-28.54 16.22-40.29"/><path fill="#436732" d="M259 638c9.58 1.18 18.1 4.45 27 8l-2 2c.21.78.41 1.57.62 2.38.13.86.25 1.73.38 2.62-1.94 2.31-1.94 2.31-4 4v-2c-.85.06-1.69.12-2.56.19-4.09-.23-6.75-1.44-10.44-3.19l-3.81-1.5C261 649 261 649 259 646v-3h2z"/><path fill="#a27450" d="M418.25 809.438c1.08.1 2.16.2 3.27.31.82.08 1.64.17 2.48.25 1.35 7.47 1.35 7.47-.25 9.94-4.02 2.44-8.18 2.46-12.75 2.06-2.5-1-2.5-1-4-2-.13-7.75-.13-7.75 1-10 3.44-1.34 6.63-.91 10.25-.56"/><path fill="#5a794c" d="M347 508c10.06 2.65 18.17 9.44 26 16-2.88 1.44-5.82 1.59-9 2v-2c-1.46-1.63-1.46-1.63-3-3l2-1-2-2h-2l1 3c-1.06 1.56-1.06 1.56-3 3-3.69-.31-3.69-.31-7-1l-1-4h2v-2h-2z"/><path fill="#6d855f" d="M600 650c8.41 14.44 5.99 35.62 2 51-.91 2.39-1.93 4.68-3 7l-1-4h-2l1-13h2l1-7h2c.05-2.83.09-5.67.12-8.5l.06-2.4c.04-5.38-.67-9.93-2.18-15.1h-2v-2h2z"/><path fill="#768e69" d="M241 513v2c-.8.23-1.61.45-2.44.69-.84.43-1.69.86-2.56 1.31-.84 2.38-.84 2.38-1 5-.32 1.34-.66 2.67-1 4h-2v2h-2l-1-2h-3v2h2v2c-.87-.53-.87-.53-1.75-1.06-2.17-1.08-2.17-1.08-4.37-.94-2.23.93-2.23.93-3.13 4.06-.25.97-.5 1.94-.75 2.94l2 1c-.62.25-1.24.5-1.88.75-2.47 1.46-3.07 2.63-4.12 5.25l-6-1c4.17-9.38 21.84-28 33-28"/><path fill="#748d68" d="M508 571c6.87.47 13.17 1.6 19.75 3.62.86.27 1.72.53 2.61.8 18.86 5.96 18.86 5.96 24.64 12.58-6.4-.49-6.4-.49-9.44-3.06-.51-.64-1.03-1.28-1.56-1.94v2c-4.75-.75-4.75-.75-7-3l2-1-6-2v2l-7 1 1 3-4-1 2-3-4-1 1-5-3 1v-2l-11-2z"/><path fill="#7c5a3c" d="M417 697h7v2h5v2c.93.27 1.86.54 2.81.81 3.04 1.13 4.09 1.89 6.19 4.19-1.59.09-1.59.09-3.22.18-10.42.61-10.42.61-20.78 1.82.31-1.46.62-2.92.94-4.38.17-.81.35-1.62.52-2.46C416 699 416 699 417 697"/><path fill="#748d69" d="M200 605h4c.29.8.58 1.61.88 2.44.85 2.69.85 2.69 3.12 3.56-.23.6-.45 1.2-.69 1.81-.1.72-.2 1.45-.31 2.19 1.35 1.77 1.35 1.77 3 3l3-1 1 5 2-1 3 7 4-1 1 3c2.5 1.22 2.5 1.22 5 2v2c1.46 1.63 1.46 1.63 3 3-.99.5-.99.5-2 1-12.41-7.56-23.43-16.72-30-30z"/><path fill="#466836" d="m569 609 3 2 1-2h2l1 4 4-1c1.56 1.69 1.56 1.69 3 4-.31 2.75-.31 2.75-1 5l-2-1v-2h-2l-2 6c-4.43-1.48-6.97-4.95-9-9 .18-4.18.18-4.18 2-6"/><path fill="#486a36" d="m372 535 1 2 3-1v2l4 2v2c1.98-.27 1.98-.27 4-1l1-3c1.54 3 2.15 4.42 1.31 7.75C385 548 385 548 382 549l-1 3c-.54-.68-1.07-1.36-1.62-2.06-1.29-1.59-2.6-3.17-4.02-4.65-1.6-1.71-3.07-3.33-4.36-5.29.12-2.94.12-2.94 1-5"/><path fill="#aebaa7" d="M200 553c1.12 3.75 1.12 3.75 0 6-.23 2.2-.41 4.41-.56 6.62-.09 1.19-.17 2.38-.26 3.61-.06.91-.12 1.83-.18 2.77h-2c.14 3.13.29 6.25.44 9.38.04.88.08 1.77.12 2.69l.12 2.58c.04.78.08 1.57.11 2.38.1 2.05.1 2.05 1.21 3.97.23 2.04.41 4.08.56 6.12.09 1.1.17 2.2.26 3.33.06.84.12 1.68.18 2.55-5.7-5.7-5.07-16.65-5.19-24.25.08-9.83 1.36-18.69 5.19-27.75"/><path fill="#496c38" d="M343 507c1.88.25 1.88.25 4 1 2.11 2.96 2.2 5.44 2 9h2v2h-2l1 4-5-2c-.91-.29-1.81-.58-2.75-.88-2.25-1.12-2.25-1.12-3.31-3 .09-3.1 1.89-4.02 4.06-6.12z"/><path fill="#627e54" d="M373 525c5.07 2.46 8.8 6.42 12 11 0 3 0 3-1.38 4.69C382 542 382 542 380 542c-2.12-1.88-2.12-1.88-4-4v-2h-2l1-3h2l-1-4h-2z"/><path fill="#6b855e" d="M549 587c8.79-.34 13.91 5.41 20 11-3 0-3 0-6-1l-2-2c-.99.5-.99.5-2 1-.65 2.02-.65 2.02-1 4l-5-1c.25-1.88.25-1.88 1-4 2.06-1.25 2.06-1.25 4-2-2.71-1.35-5.01-1.07-8-1z"/><path fill="#84997b" d="m597 708 1 2c-4.18 8.54-11.05 18.1-20 22v-2l-2-1 5-1v-3l3-1 1-3 5-1v-6l4-1v-4z"/><path fill="#a48975" d="m428 841 4 2-1 2h5c-2.14 2.14-3.12 2.49-5.96 3.29-.78.22-1.56.44-2.37.66-.82.22-1.64.45-2.48.67-.81.23-1.62.46-2.45.7-3.99 1.1-7.56 2-11.74 1.68 2.64-1.41 5.07-2.37 8-3v-3c1.11-.45 2.23-.91 3.38-1.38 3.58-1.34 3.58-1.34 5.62-3.62"/><path fill="#748c68" d="M447 581c-1.79.94-3.58 1.89-5.37 2.83-1.95 1.16-1.95 1.16-2.63 4.17l-2-1-1 3-2-3c-.08.6-.17 1.2-.25 1.81-.98 2.87-2.11 3.76-4.75 5.19-1.34-.29-2.68-.63-4-1-2.22.86-2.22.86-4 2 3.65-3.97 7.29-6.6 12-9.19.6-.34 1.21-.68 1.83-1.03 9.3-5.21 9.3-5.21 12.17-3.78"/><path fill="#c0c8b9" d="M600 650c6.81 11.69 6.01 29.26 4 42h-1l-.06-2.26c-.1-3.41-.21-6.83-.32-10.24l-.09-3.55c-.21-6.28-.7-11.93-2.53-17.95h-2v-2h2z"/><path fill="#b1c2a8" d="M329 501v1l-8 1v-2c-3.81-.03-7.62-.05-11.44-.06l-3.24-.03c-10.81-.11-10.81-.11-21.32 2.09-2.26-.12-2.26-.12-4.69-.44-1.21-.15-1.21-.15-2.45-.31-.61-.08-1.23-.16-1.86-.25v-1c17.56-2.43 35.53-3.69 53 0"/><path fill="#ab9381" d="M519 802c-3.68 3.99-7.4 6.72-12.12 9.38-.63.36-1.25.73-1.88 1.11-1.62.92-3.31 1.72-5 2.51l-3-1 2-1c1.13-2.02 1.13-2.02 2-4h7c.1-.64.21-1.28.31-1.94.23-.68.46-1.36.69-2.06l3-1v-2c2.67-1.33 4.17-.67 7 0"/><path fill="#647f57" d="m217 531 2 1-1 3 2 1c-.62.25-1.24.5-1.88.75-2.47 1.46-3.07 2.63-4.12 5.25-2.97-.5-2.97-.5-6-1 1.53-3.44 3.49-6.19 6-9z"/><path fill="#d5d6cb" d="M514 744h35c-4.07 2.04-5.67 2.24-10.08 2.2l-3.51-.02-3.66-.06-3.7-.02c-3.02-.03-6.03-.06-9.05-.1l5 6-1 2-4.5-4.44c-.84-.82-1.67-1.64-2.53-2.49C514 745 514 745 514 744"/><path fill="#b29987" d="m260 741 2 1c-.97.89-1.94 1.77-2.94 2.69-2.66 2.64-3.83 4.45-4.06 8.31l-2-1-1 2 2 1-3 5-2-3v3h-2c1.79-7.78 7.42-13.57 13-19"/><path fill="#90a487" d="M535 578c4.13.62 7.4 2 11.12 3.88 1.56.76 1.56.76 3.14 1.55 2.37 1.36 3.97 2.53 5.74 4.57-6.4-.49-6.4-.49-9.44-3.06-.51-.64-1.03-1.28-1.56-1.94v2c-4.75-.75-4.75-.75-7-3l2-1z"/><path fill="#c1b3a1" d="m337 689 4 1v4l-15 2v2c-8.04 2.28-8.04 2.28-12 1 7.93-3.3 15.47-5.85 24-7z"/><path fill="#748d68" d="M360 515c4.84 2.61 8.87 5.37 13 9-2.88 1.44-5.82 1.59-9 2v-2c-1.46-1.63-1.46-1.63-3-3l2-1-1.5-1.38C360 517 360 517 360 515"/><path fill="#afbea9" d="M475 572c-2.79 2.79-6.01 3.14-9.75 4-1.41.33-2.82.66-4.23 1-.69.16-1.37.32-2.07.49-2.19.54-2.19.54-5.22 1.7-2.8.83-4.04.84-6.73-.19 21.68-7.4 21.68-7.4 28-7"/><path fill="#4a6a3a" d="M602 666h1v19l-3-1v-2l-3-1c.31-1.88.31-1.88 1-4l3-2c.58-2.19.58-2.19.69-4.62.06-.82.13-1.64.2-2.48.03-.63.07-1.25.11-1.9"/><path fill="#809776" d="M216 627c.78.19 1.57.37 2.38.56 2.59.7 2.59.7 4.62-.56l1 3c2.5 1.22 2.5 1.22 5 2v2c1.46 1.63 1.46 1.63 3 3-.99.5-.99.5-2 1-1.96-1.26-3.92-2.54-5.88-3.81l-3.3-2.15C218 630 218 630 216 627"/><path fill="#acb7a4" d="M261 651c5.55-.34 8.98.72 14 3 1.99.4 3.99.75 6 1v2l4 1c-3.53 1.18-4.45.75-7.89-.43-.93-.32-1.87-.64-2.84-.97-.97-.34-1.95-.68-2.96-1.04-.99-.34-1.97-.67-2.99-1.02-2.44-.84-4.88-1.69-7.32-2.54z"/><path fill="#4a693a" d="M199 587c2.73 2.73 2.46 4.63 2.75 8.44.1 1.15.2 2.3.3 3.49C202 602 202 602 200 605c-.13-.82-.27-1.64-.4-2.48-.18-1.08-.36-2.16-.54-3.27-.17-1.07-.35-2.13-.52-3.23-.43-2.38-.91-4.69-1.54-7.02h2z"/><path fill="#7da958" d="m211 559 1 2h2c-1.24 5.69-2.56 11.35-4 17h-1c-.2-6.71-.31-12.65 2-19"/><path fill="#95a78b" d="M259 506v3l-5 1v2l-3.12-.06c-3.43.05-6.53.41-9.88 1.06 2.57-2.57 5.05-3.33 8.44-4.62 1.15-.45 2.3-.9 3.49-1.36C256 506 256 506 259 506"/><path fill="#7d563a" d="m303 707 2 1v5h-2a89 89 0 0 0-4 4l-1-3-2-1z"/><path fill="#99a991" d="M200 553c1.12 3.75 1.12 3.75 0 6-.23 2.2-.41 4.41-.56 6.62-.09 1.19-.17 2.38-.26 3.61-.06.91-.12 1.83-.18 2.77l-3 1c-.56-7.34 1.45-13.16 4-20"/><path fill="#bcaa9d" d="m494 815 3 1c-6.42 2.88-11.97 4.55-19 5l-1-2c3.24-1.9 5.9-2.33 9.62-2.56 3.84-.18 3.84-.18 7.38-1.44"/><path fill="#849878" d="M324 678c7.24.68 7.24.68 10 4l3 1v6c-4.69-3.39-9.03-6.78-13-11"/><path fill="#c6b7ab" d="M294 821c6.12-.33 10.42.5 16 3 1.21.5 1.21.5 2.44 1 1.56 1 1.56 1 2.56 4-.65-.28-1.31-.55-1.98-.84-3.73-1.43-7.51-2.61-11.33-3.78l-2.25-.7L294 822z"/><path fill="#c3b2a6" d="M346 847h8v2c.66.12 1.32.25 2 .38 3.7.77 7.34 1.69 11 2.62-4.05 1.63-7.62.32-11.62-.81-.69-.18-1.37-.36-2.07-.54-5.05-1.39-5.05-1.39-7.31-3.65"/><path fill="#96a98d" d="m445 580 2 1c-1.79.94-3.58 1.89-5.37 2.83-1.95 1.16-1.95 1.16-2.63 4.17l-2-1-1 3-1-2c-2.02-.65-2.02-.65-4-1 2.29-1.2 4.58-2.38 6.88-3.56.97-.52.97-.52 1.97-1.04 1.69-.86 3.42-1.64 5.15-2.4"/></svg>