<svg class="imported-crop imported-crop--carrot imported-crop--stage00" xmlns="http://www.w3.org/2000/svg" viewBox="0 0 768 1024">
  <g class="crop-part crop-part--leaves" data-group-id="leaves-1782198792844-mnxsm1" data-layer-index="0">
    <path fill="#86af49" d="M305 646c4.011-.477 5.611-.278 8.953 2.105 14.088 12.387 17.348 34.801 18.735 52.457.113 1.812.221 3.625.312 5.438h-3l-2 2v-2l-3-1a356 356 0 0 1-4-5l-2.25-1.688L317 697v-2l-1.668-.699c-2.978-1.661-5.166-3.775-7.644-6.113-7.411-7.193-7.411-7.193-16.688-11.188-.377 2.813-.377 2.813 0 6 1.877 2.423 1.877 2.423 4.5 4.438l2.766 2.324L301 692a754 754 0 0 1 4.25 3.75 170 170 0 0 0 7.25 6L315 704v3h2c5.421 4.982 10.102 9.754 12 17h-2v2c-3.401 1.134-4.246.861-7.562-.188l-2.715-.855c-2.511-.883-4.911-1.889-7.348-2.957-6.823-2.843-14.12-3.812-21.375-5v-2l-2.273-.078c-8.304-.46-16.613-1.521-22.789-7.61L261 705l-1-1c-.375-2.875-.375-2.875 0-6 2.375-1.812 2.375-1.812 5-3l2-1c8.491-.545 19.203-.899 27 3-6.27-8.483-15.237-13.986-24.035-19.582-7.638-4.882-13.797-9.083-17.965-17.418-.04-2.333-.043-4.667 0-7h2v-2c4.92-2.46 12.259-1.68 17.473-.387 8.932 3.68 16.414 10.392 23.715 16.575 4.419 3.739 8.802 6.922 13.812 9.812l-.805-1.723c-3.848-8.412-6.169-15.924-5.195-25.277 1.016-2.332 1.016-2.332 2-4"/><path fill="#6d9538" d="M291 677c4.75.476 7.708 2.716 11.312 5.625l1.731 1.366C312.081 690.38 319.569 696.962 326 705l2.625 2.562c2.085 2.14 3.263 3.709 4.375 6.438h2c1.219 1.715 1.219 1.715 2.5 3.938 1.685 3.116 1.685 3.116 4.5 5.062 1.07 1.777 1.07 1.777 2.125 3.938l1.07 2.152C346 731 346 731 346 733l3 1a200 200 0 0 1 3 6l2 1v2h2l.812 2.062L358 748l.73 1.855c1.312 3.761 1.312 3.761 4.27 6.145v-9h1l-.062 2.648c.155 9.258 2.161 16.038 6.443 24.271 2.743 5.443 2.743 5.443 2.045 9.042C371 785 371 785 368 786l-1-5c-.891 2.674-1.477 5.237-2 8h2v2h-2l1 3-2 1-.579-1.725c-.883-2.615-1.777-5.226-2.671-7.837l-.91-2.713c-2.817-9.06-2.817-9.06-8.762-16.065l-1.828-.598L346 765c2.579-.921 3.594-1.185 6.141-.023L354 766l-.953-1.906-1.297-2.594-1.395-2.785a920 920 0 0 1-2.367-4.774c-2.414-4.9-5.034-9.667-7.718-14.425-1.117-2.213-1.801-4.097-2.27-6.516h-2l-1-5-3-1c-1.902-2.328-1.902-2.328-3.938-5.25-4.759-7.124-4.759-7.124-11.062-12.75v-2h-2l-.785-1.805c-1.313-2.372-2.573-3.599-4.653-5.32-4.458-3.765-8.752-7.69-13.046-11.641A81 81 0 0 0 290 683z"/><path fill="#769e40" d="M334 728c2 3 2 3 2 5h2l1.426 2.887 1.886 3.801.936 1.896A133 133 0 0 0 348 752a486 486 0 0 1 3.188 5.625l1.605 2.852C354 763 354 763 354 766l-5.25-1.312-3.32-.829a1334 1334 0 0 1-6.547-1.656c-4.487-1.142-8.963-2.253-13.508-3.141l-2.41-.48a451 451 0 0 0-5.007-.959c-17.773-3.321-17.773-3.321-24.958-9.623 2-2 2-2 5-3 2.188.438 2.188.438 4 1v-3h5l-.188-2.375L307 738l3-2c1.962.458 3.924.925 5.859 1.484 3.116.751 5.949.649 9.141.516l-1-2h4l-1-3 7-1z"/><path fill="#7aa342" d="M349 691h1v7h2v2h3v5q3.5.062 7 0l1-1-5-1 1-3c2.062-.688 2.062-.688 4-1 5.878 18.545 3.103 38.179 0 57l-3-1c-1.964-3.927-3.342-7.657-4-12h-2v-2l-3-1a202 202 0 0 1-3-6 102 102 0 0 0-3-3c-3-4.444-3-4.444-3-8h2v-5h2l-.07-3.402c-.217-15.064-.217-15.064 2.07-22.598z"/><path fill="#7f8a33" d="M367 780h1v6h5l-.625 1.688c-.489 3.014.246 4.627 1.625 7.312l2 1a78 78 0 0 1 2 5l2-1v4h3v-5c3 1 3 1 4.175 3.04 1.059 3.8 1.073 7.414 1.02 11.323l-.008 2.4c-.011 2.517-.037 5.033-.062 7.549l-.027 5.135q-.035 6.277-.098 12.553h-4v-2l-2.125.625c-3.48.454-5.613-.441-8.875-1.625l-.244-1.912c-.367-2.843-.749-5.684-1.131-8.526l-.383-3.009-.39-2.862-.35-2.65L370 817l-2-1a112 112 0 0 1-1.562-7.75l-.754-4.297-.351-2.066a131 131 0 0 0-.95-4.758c-.425-2.363-.136-3.87.617-6.129h2v-2h-2c-.125-3.375-.125-3.375 0-7z"/><path fill="#4c6926" d="m335 675 2 1c.852 2.723.852 2.723 1.625 6.062l.789 3.348L340 688l1.863-2.02L344 684c2.188.312 2.188.312 4 1l1-1c4.627-1.186 4.627-1.186 7 0l1 1h3c3.497.801 5.45 1.305 7.707 4.156 1.614 3.549 1.408 5.805.981 9.656l-.364 3.52L368 705h-4l-.988-2.52-1.324-3.292-1.301-3.27c-1.25-2.63-2.106-4.164-4.387-5.918-2.5-.667-2.5-.667-5 0-4.578 5.559-4.207 13-4.562 19.875l-.131 2.375q-.158 2.875-.307 5.75c-3.235-.702-4.892-1.365-7-4v-2h-2c-2.887-6.663-4.446-12.202-4.043-19.492.045-2.647-.354-4.938-.957-7.508l1 3h2z"/><path fill="#4d6e22" d="m275 647 1 3c2 1.209 2 1.209 4 2v2h8v2l3 1c1.188 2.062 1.188 2.062 2 4l3-2c.583-2.656.583-2.656.688-5.625l.199-3.039L297 648l4 2 3-2-.105 2.527c-.193 7.995.41 14.436 4.207 21.532C309 674 309 674 309 677c-3.834-1.344-6.568-3.036-9.688-5.625l-2.624-2.152L294 667a936 936 0 0 0-10-8l-1.902-1.508c-7.507-5.685-14.797-6.996-24.098-7.492v-1c5.761-1.298 11.087-2.257 17-2"/><path fill="#496823" d="M316.5 757.75c12.683.182 28.671 2.652 38.5 11.25 3.953 6.059 6.345 12.752 6 20h-2v3h-2c-.125-6.625-.125-6.625 1-10h-2v-3h-2v-5h-2v-4l-2.012-.367-2.676-.508-2.636-.492C342 768 342 768 339.758 766.957c-4.031-1.399-7.957-1.299-12.196-1.395-8.508-.291-16.306-1.389-24.562-3.562v-1l1.934-.402 2.504-.536 2.496-.527c3.189-.826 2.759-1.513 6.566-1.785"/><path fill="#496923" d="M272 683h4v2h3l.812 2.812c1.133 3.04 1.887 4.089 4.188 6.188l-3-.141c-7.612-.246-13.424-.153-20 4.141-.419 2.789-.419 2.789 0 6 2.234 2.668 4.509 4.642 7.312 6.688L270 712v2h-2l-1 2h-1l-2 1c-3.334-1.026-6.009-2.066-8-5-.253-3.095-.399-5.201 1-8h-3c1.156-9.042 1.156-9.042 4.312-12.625 2.866-1.466 4.518-1.737 7.688-1.375v-3l5-1z"/><path fill="#4c6d22" d="M251 654h1l.625 3.5c2.343 8.886 7.978 13.222 15.553 17.852 5.016 3.071 9.749 6.424 14.447 9.96l2.044 1.527c3.329 2.519 6.58 4.998 9.331 8.161v2l-25-3v-1h14l-3-2v-3l-2-1 1-2h-3v-2l-2.812.312L270 683c-1.875-2.5-1.875-2.5-3-5l-6 1v-3l-3.812-.312c-2.428-.199-3.86-.474-5.907-1.813-1.896-2.775-1.804-5.24-1.969-8.563l-.199-3.574L249 659h2z"/><path fill="#4d6d25" d="M365 707h3c1.589 8.115 2.278 15.849 2.195 24.109l-.008 3.312a2371 2371 0 0 1-.062 10.329l-.027 7.062A4923 4923 0 0 1 370 769h-3c-2.884-5.661-3.411-10.072-3.25-16.375l.016-2.422c.049-3.849.251-7.609.746-11.426.758-6.261.594-12.542.55-18.839l-.013-3.78q-.018-4.579-.049-9.158"/><path fill="#4f6b2c" d="M291 741h1l.5 3.188c1.221 3.984 3.002 5.656 6.594 7.679 6.693 2.609 13.871 3.788 20.906 5.133v1l-3.188.375c-3.65.452-3.65.452-6.25 1.625-3.546 1.384-6.764 1.689-10.562 2l-2-1v-2l-2.125-.188c-3.926-1.109-6.003-2.94-8.875-5.812-1.438-3.188-1.438-3.188-2-6l1-2h4z"/><path fill="#80916a" d="m254 675 7 1v3l6-2 .875 1.938c.953 2.214.953 2.214 3.125 3.062.688 2 .688 2 1 4-1 1-1 1-3.562 1.062L266 687v3l-2.75.75c-3.53 1.358-5.018 2.222-7.25 5.25-.897 2.661-1.447 5.235-2 8h3l-.188 3.75c-.016 3.032.081 4.072 1.688 6.75l1.5 1.5c-3.695-.924-4.952-1.938-7.312-5-2.331-4.537-2.377-9.016-1.688-14 1.312-3.562 1.312-3.562 3-6l3-1v-2l7-3-2.188-2.188z"/><path fill="#516931" d="M369 696h1c2.357 6.075 3.442 11.319 3.363 17.82l.004 2.467a788 788 0 0 1-.055 7.838l-.025 5.391c-.096 12.905-.74 25.663-2.287 38.484h2v4h-2c-1.596-6.768-2.26-13.055-2.125-19.996l.023-2.77c.032-3.861.089-7.721.143-11.582.342-14.948.342-14.948-2.041-29.652l-3 1v-4h4z"/><path fill="#a2af90" d="M294 759h4v2l2.633.402 3.492.536 3.445.527c2.085.325 4.167.677 6.239 1.078 5.222.748 10.489.777 15.759.887 5.502.199 9.571.915 14.432 3.57.75 2.125.75 2.125 1 4l3 1c3.257 5.598 7.806 13.652 6.574 20.297L354 795l-1.25-3.312-.844-2.192a94 94 0 0 1-1.75-5.336l-.906-2.91-.797-2.734c-2.492-4.315-6.275-5.906-10.897-7.201a182 182 0 0 0-7.994-1.565l-2.794-.523q-3.381-.63-6.768-1.227v-2l-1.949-.113c-7.564-.551-14.707-2.03-22.051-3.887v-2z"/><path fill="#c9d3bb" d="M317.313 638c4.805 3.576 9.634 7.886 10.688 14-2.153-2.076-4.031-4.044-5.75-6.5-3.382-3.757-7.29-6.051-12.336-6.816-4.553-.131-7.476.836-11.915 2.316l-3 15c-3.288-1.644-5.731-3.246-8.625-5.438-7.832-5.456-14.728-6.801-24.125-6.937l-2.185-.043c-4.774.044-7.974 1.005-12.065 3.418l-2 1c1.385-3.434 2.632-4.734 6-6.25 7.103-2.905 13.933-2.634 21 .25q2.936 1.07 5.875 2.125 2.564.936 5.125 1.875v2l2.813.875C290 650 290 650 293 652v-5h2l.25-2.25c.899-3.297 2.173-4.564 4.75-6.75 4.95-2.475 12.175-1.551 17.312 0"/><path fill="#7da549" d="M325.676 737.543 327 739c-6.403.236-11.846-.177-18-2l-2 6h-5v3h-6l-1 2-3-2c-.54-3.548-.464-5.314 1.563-8.312 6.427-4.45 26.138-5.646 32.113-.145"/><path fill="#506821" d="m368 768 3 2v2h3c1.075 2.652 2.095 5.284 3 8l2 3 2-1c1.184 3.789 2.115 7.364 2.562 11.312.205 3.505.205 3.505 1.438 5.688h-2v5h-3l-.297-1.652c-.971-4.899-2.371-9.162-4.484-13.676-1.587-3.478-3.035-7.004-4.469-10.547l-.819-1.985c-1.16-2.878-1.931-5.006-1.931-8.14"/><path fill="#476421" d="M262.438 642.813c.79-.012 1.579-.024 2.392-.038 2.059-.005 4.115.103 6.17.226l2 2c-6.048 4.123-11.798 5.1-19 6v2l-2 1c-.655 2.527-.655 2.527-1 5h-2l.563 2.374C250 664 250 664 249 666h-2a390 390 0 0 1-.125-5.187l-.07-2.918c.207-3.07.76-5.178 2.195-7.894 2.625-.813 2.625-.813 5-1l-.562-2.438L253 644c2.101-2.102 6.541-1.187 9.438-1.188"/><path fill="#61631d" d="M365 804c4.288 4.288 4.116 11.773 4.195 17.57a490 490 0 0 1-.07 5.555l-.027 2.898A902 902 0 0 1 369 837h-1v-5h-3l-1 8c-1.897-3.198-2.212-5.413-2.047-9.105l.129-2.983.168-3.1.121-3.041c.296-6.144 1.118-11.807 2.629-17.771"/><path fill="#949062" d="m355 795 2 3 1.613 1.395c1.869 2.162 1.697 3.481 1.575 6.293l-.083 2.449L360 810l2 1 1 25 1-6 1 2h3l1-7h1l1 17-2-1v-2h-4l2 4h-5l-.402-3.902-.536-5.036-.263-2.576-.264-2.451-.238-2.269c-.125-1.787-.125-1.787-1.297-2.766a82 82 0 0 1-.719-4.41l-.386-2.752-.395-2.9-.395-2.819Q355.987 803.068 355 795"/><path fill="#506630" d="M344 769c5.75-.125 5.75-.125 8 1v4h2v5h2v3h2l-1 10h2v-3h2l1-3c2.092 4.431 2.092 4.431 1.625 7.312L363 795l-1-3-.75 2.438L360 797c-2.078.66-2.078.66-4 1l-.988-3.508-1.324-4.617-.647-2.305c-1.291-4.471-2.891-8.421-5.041-12.57v-2l-4-1z"/><path fill="#888234" d="M370 816h1l.402 3.797.536 4.953.263 2.5.264 2.422.238 2.222c.307 2.442.307 2.442 1.297 6.106l10 1v2h4l-1 5c-9.922.626-9.922.626-14.125-1.812-3.963-4.624-3.251-10.513-3.5-16.313l-.156-3.113-.133-2.957-.124-2.72C369 817 369 817 370 816"/><path fill="#4c652a" d="m315.5 639.5 2.5 1.5v1l-2.012.262c-4.346.691-7.392 1.324-11.05 3.863-2.548 3.781-2.708 6.355-2.938 10.875h-1l-.375-3.438L300 650l-2-1-1 7h-1c-.784-10.92-.784-10.92 2.312-15.188 5.537-3.734 11.194-3.881 17.188-1.312"/><path fill="#8f7134" d="M365 839c4 0 4 0 6.625 2.438L374 844c2.765 1.382 5.046 1.095 8.125 1.062l3.32-.027L388 845q.04 2.218.062 4.438l.036 2.496C388 854 388 854 387 855c-3.123.626-5.896.754-9 0-2.706-2.718-5-6.073-5-10l-2.875-.75C367 843 367 843 365.625 840.875z"/><path fill="#81a847" d="M353.25 688.563c3.394.54 4.694 1.942 6.746 4.636 1.575 2.826 1.813 5.617 2.004 8.802-.99-.332-1.98-.66-3-1v2l4 1-1 4v-3l-1.812.562C358 706 358 706 355 705l-1-3 1-2h-3v-2h-2c-.098-6.154-.098-6.154 0-8 1-1 1-1 3.25-1.438"/><path fill="#4f6020" d="M361 790c3.372 3.372 4.996 7.651 5.004 12.387-.309 2.876-.729 5.639-1.516 8.425-.698 3.13-.843 6.241-1.05 9.438l-.254 3.828L363 827h-1v-16l-3-1 .125-3.312c.196-3.777.196-3.777-2.125-6.688-.125-2.688-.125-2.688 0-5l1 2h2z"/><path fill="#506734" d="M273 644c8.651 2.199 14.921 6.781 22 12v-7h1l1 10-5 3v-2l-3-2 1-1-2-1v-2h-8v-2l-5-2v-3h-5z"/><path fill="#476522" d="M318 733v1l-3.508.113-4.617.199-2.305.069c-5.659.268-9.777 1.5-14.382 4.994-1.552 2.124-1.84 4.046-2.188 6.625l-5-1-1 2c-.324-5.504-.533-9.437 3-14l3 1-3 1 4 1v-2c8.943-1.46 16.968-2.39 26-1"/><path fill="#4b6928" d="m310 723 6 1-1 4 5 1v4l-2.422-.035A207 207 0 0 0 295 734l2-1v-2l3.312-.812c3.42-1.102 4.464-1.613 6.688-4.188h2z"/><path fill="#4c6c23" d="M332 666h1v12l3 1q-.172 2.22-.375 4.438l-.211 2.496L335 688l-2 1 1 3a100 100 0 0 1-1 6h-1c-.709-3.475-1.388-6.955-2.062-10.438l-.604-2.951c-1.188-6.23-1.364-11.346-.334-17.611l2 1z"/><path fill="#80a849" d="M332 698c1.623 2.434 2.617 4.313 3.625 7l.789 2.062C337 709 337 709 337 712h2c1.543 1.645 1.543 1.645 3.188 3.812l1.667 2.145L345 720l-1 3c-2.25-.125-2.25-.125-5-1-4-5.081-4-5.081-4-8h-2c-2.539-2.614-3.923-4.129-4.25-7.812L329 704l4 2z"/><path fill="#93a27f" d="m263 714 1.812.5c2.301.611 2.301.611 5.188.5l3 2h-2v2l1.562.375c1.955.501 3.889 1.082 5.813 1.687 3.401.88 6.137 1.108 9.625.938v-1l7 1c0 3 0 3-1 5-5.021-.519-9.2-1.4-14-3a198 198 0 0 0-3.945-.93l-2.075-.472a322 322 0 0 0-4.234-.922c-4.365-1.015-6.913-2.167-9.746-5.676h5z"/><path fill="#bdc8ae" d="m328 652 1 2h2l1.023 2.887 1.352 3.801 1.336 3.761c.743 2.047 1.519 4.083 2.383 6.082 1.127 3.07 1.573 6.046 2.031 9.281l.508 3.52L340 686h2l.75-1.875c1.52-2.584 2.482-3.049 5.25-4.125 2.578-.195 2.578-.195 5.25-.125l2.703.055L358 680v1l-1.793.113c-6.417.534-10.183 1.534-14.519 6.575L340 690c-1.694-3.047-2.495-5.828-3.125-9.25l-.508-2.703L336 676l-1 2h-2l-.148-2.781c-.405-6.648-.936-12.833-2.852-19.219h-2z"/><path fill="#4d6a26" d="M297 718c5.469 1.016 10.764 2.071 16 4-2.492 2.76-4.203 4.62-8 5l-2-1v2h-2v-2l-2.75.188c-3.54-.205-4.699-.834-7.25-3.188l2.438-1.375c2.651-1.372 2.651-1.372 3.562-3.625"/><path fill="#496a1f" d="M318 642v9h2l1 2 2 .812c2 1.188 2 1.188 2.75 3.813L326 660h-2l-1 2-1.609-2.52-2.141-3.292-2.109-3.27c-2.84-3.871-4.686-5.61-9.391-6.606L305 646c4.255-4.448 7.019-4.096 13-4"/><path fill="#496526" d="M276 715q4.407.463 8.812.938l2.526.263 2.432.264 2.237.238C294 717 294 717 297 718l-1 3-6 1v1c-5.527.194-9.756-.252-15-2 3.75-2 3.75-2 6-2v-2l-5-1z"/><path fill="#7ca346" d="M327 720c4.198 3.744 6.078 6.84 8 12-2.572 1.781-3.687 2.056-6.812 1.5-4.026-1.894-6.968-4.47-10.188-7.5 3.383-.976 5.566-.859 9 0z"/><path fill="#596b3b" d="M371 752h1l.262 2.02c1.239 8.129 3.985 14.933 7.91 22.128 1.16 2.595.688 4.199-.172 6.852l-2 1-1-3-2-1c-1.362-3.783-1.537-8.032-2-12h-2z"/><path fill="#507226" d="M315 725c3.574.594 5.501 1.986 8.188 4.375l2.105 1.836C327 733 327 733 328 736h-29c3.021-3.021 6.564-2.467 10.625-2.625l2.43-.117c1.981-.095 3.963-.177 5.945-.258l2-4h-2l-1 2-1-2-2-1z"/><path fill="#4d6333" d="m256 645-2 1v3l-5 1-2 16h3v5c-4.209-3.788-5.83-6.704-6.25-12.375.315-4.573 1.016-8.611 3.438-12.563 2.86-1.677 5.581-1.245 8.812-1.062"/><path fill="#d6dfc8" d="M374 712h1q.044 5.031.062 10.062l.017 3.116c.005 5.39-.095 10.74-.442 16.119l-.19 3.058a270 270 0 0 1-.443 5.753c-.448 6.852 1.027 11.745 3.996 17.892 3.114 6.658 3.114 6.658 2 10a6930 6930 0 0 1-3.438-7.312l-.986-2.092c-5.952-12.703-3.481-27.315-2.576-41.034l.289-4.564q.349-5.499.711-10.998"/><path fill="#4a6528" d="M325 653h2l.25 2.25c.898 3.294 2.335 4.411 4.75 6.75.875 2.062.875 2.062 1 4l-2 3-1-1-2 4c-2-1-2-1-2.887-2.996l-.801-2.442-.824-2.433C323 662 323 662 324 660h2z"/><path fill="#566a3a" d="M318 642c3.331 1.405 5.093 2.989 7.25 5.875l1.578 2.055C328 652 328 652 328 656h2l1 4-4-2v-5h-2l-1 2-4-2v-2h-2v-6l-2-1h2z"/><path fill="#889576" d="M369 692c4.866 4.866 5.202 11.65 5.328 18.23-.008 1.979-.016 3.958-.047 5.937a493 493 0 0 0-.047 6.081c-.045 5.708-.169 11.131-1.234 16.752h-1l.048-2.978c.054-3.685.089-7.369.117-11.054q.022-2.381.061-4.763c.139-8.618.079-16.095-3.226-24.205z"/><path fill="#869570" d="M362 681c3.138 2.164 5.35 4.549 7 8l-1 3-1.062-2.375c-2.576-3.49-4.75-3.864-8.938-4.625l-2 1v-2h-6l-1 2-3-1-1-2c5.232-3.131 11.127-3.075 17-2"/><path fill="#dae1d1" d="M244 648h2l-.324 2.852-.364 3.773-.386 3.727c.118 5.794 2.644 9.518 6.449 13.71l1.84 2.036A205 205 0 0 0 260 681c-7.302-3.428-13.557-8.213-17.195-15.527-1.658-5.095-1.968-10.842.222-15.797z"/><path fill="#758c3b" d="M371 781c5.171 4.656 7.659 12.297 9 19l-2 3c-2-3-2-3-2-7l-3-1v-4l-2-1 2-4-3-1z"/><path fill="#c6d1b8" d="m296 727 1 2-3.312 1.312c-2.776 1.195-4.836 2.219-6.688 4.688-1.543 4.628-1.505 9.167-1 14 2.055 4.037 4.694 6.93 8 10-3.943-1.314-6.38-2.747-9-6-2.615-5.753-2.649-11.187-1.25-17.25 1.412-3.106 2.528-4.69 5.25-6.75 3.75-1.25 3.75-1.25 7-2"/><path fill="#526b36" d="M298 726h3v2h2v-2l3 1c-1.125 2-1.125 2-3 4-3.188.25-3.188.25-6 0v2l-5 1v2l-4 1v-2l2-1v-3l3.438-1.375c3.609-1.196 3.609-1.196 4.562-3.625"/><path fill="#50712b" d="m269 711 2.633.621 3.492.817 3.445.808c3.135.689 6.26 1.258 9.43 1.754v1h-10l3 1v2c-6.625 1.125-6.625 1.125-10 0-1.448-2.896-2-4.742-2-8"/><path fill="#89b148" d="m259.82 651.805 3.305.07 3.32.055L269 652v5h4l-1-3c7.163.156 11.51 3.728 17 8l1.817 1.407c4.083 3.17 8.14 6.372 12.183 9.593l-1 2h-2l1.562 1.813L303 679l-1 3c-1.972-.951-3.779-1.825-5.5-3.187-1.52-1.003-1.52-1.003-3.563-.625-2.209.926-2.846 1.72-3.937 3.812l-1-2-2 3c-3-1-3-1-4.813-3-2.718-2.485-4.559-2.763-8.187-3l-2 1-2-2v-3h-2a244 244 0 0 1-3-4c-1.586-1.226-1.586-1.226-3-2l3-1v-7l-8-1c-.625-1.875-.625-1.875-1-4 2-2 2-2 4.82-2.195"/><path fill="#79a241" d="M346 701h1l1 8 1.375-2 1.625-2h2l1 2h2v-2h2v9h2l1-3h2l2-2c4.596 13.788.434 32.048-2 46-2 0-2 0-3.52-1.207-1.729-2.094-2.379-3.89-3.168-6.481l-.761-2.449L355 743h-2c-2.754-3.786-3.861-7.532-5-12h-2c-1.508-1.969-1.508-1.969-3.125-4.5l-1.633-2.531L340 722l4 1v-5h2z"/><path fill="#86af46" d="M316.063 658.938 319 659c1.146 3.93 1.537 7.946 2 12h2l1-4 2 1-.626 1.563c-.44 2.863.329 4.715 1.21 7.422.76 3.696.033 7.332-.584 11.014h2c2.14 6.564 3 13.096 3 20h-3v-2l-3-1a332 332 0 0 1-4-5l-2.25-1.687L317 697v-2l-1.641-.68c-3.12-1.745-5.512-4.012-8.11-6.445l-1.536-1.418A937 937 0 0 1 302 683c2.502-2.662 4.558-3.74 8-5 1.34-.653 2.676-1.313 4-2v-2h-2v-3h3v-3h-2c-1.366-2.732-1.128-4.981-1-8 1-1 1-1 4.063-1.062"/><path fill="#6f9837" d="M292 677c5.269.193 8.228 3.396 11.938 6.75l3.589 3.172 1.756 1.566c2.095 1.845 4.237 3.626 6.396 5.394 3.915 3.314 7.135 7.109 10.321 11.118l1.812 1.812A117 117 0 0 1 342 724l-1 2-8-1-1 2-1.504-2.125c-3.835-5.37-7.739-10.477-12.246-15.316C317 708 317 708 317 706h-2a130 130 0 0 1-5-5c-6.287-6.456-12.897-12.451-20-18 .875-4.875.875-4.875 2-6"/><path fill="#83ad48" d="M294 686a1082 1082 0 0 1 13.066 11.328c1.78 1.539 3.597 3.015 5.434 4.484L315 704v2h2l2 7-1.355-.91c-3.781-2.496-3.781-2.496-8.145-2.84l-2.5.75c-2.342.103-4.655.046-7 0v2l-6 1 5 1-1 2c-6.237.405-12.128-.196-18.25-1.312l-2.039-.357c-4.352-.84-7.833-2.181-11.711-4.331 3-1 3-1 6-1v-2l1.497-.044c2.252-.075 4.502-.172 6.753-.268l2.355-.069c4.431-.208 7.022-.495 10.395-3.619l3-1v2l2-1v-2h2l1 2h5l1-2h-4l-2-6-1.938.5C297 696 297 696 296 696v2l-3-1-.812-1.75c-1.703-3.226-4.328-5.056-7.188-7.25 2.698-1.349 5.016-1 8-1z"/><path fill="#848633" d="M377 810h10v10h-3v19h-4v2l-5 2c-2.334-1.236-3.47-1.907-5-4-.791-3.736-.791-7.441-.812-11.25l-.077-3.125A451 451 0 0 1 369 817c2.308-1.154 4.472-1.534 7-2z"/><path fill="#749c40" d="M334 728c2 2.75 2 2.75 2 5h2c2.862 4.571 4.716 8.756 6 14h2l.805 2.148c1.662 3.966 3.819 7.602 5.953 11.329C354 763 354 763 354 766l-1.852-.48a536 536 0 0 0-15.668-3.762l-2.948-.66a1712 1712 0 0 0-5.876-1.296l-2.777-.618-2.482-.546c-2.568-.683-4.951-1.606-7.397-2.638v-1l13-1v-2l4 1-1 2 3 1 2-4 3 1-1-2a63 63 0 0 1-.125-4.375l-.008-2.336c.129-2.222.519-4.155 1.133-6.289h-3l-1-4v3q-3.656.08-7.312.125l-2.092.051-2.022.019-1.856.032C320 737 320 737 317 735l11 1-1-3 4 1 1-2h2z"/><path fill="#769f41" d="M307 743q2.438-.079 4.875-.125l2.742-.07C317 743 317 743 319 745l1 3h18l1 5-1.938.375L335 754l-1 2-4-1 1-2-3-1 1 3c-24.386 2.3-24.386 2.3-34.855-6.012L293 748c3.103-1.551 5.618-.564 9 0v-3h5z"/><path fill="#86ae4e" d="M289.54 695.172c2.967.999 3.863 2.19 5.46 4.828l-7 1v4l3 1c-2.245 1.122-3.43 1.116-5.914 1.098l-2.305-.01-2.406-.025-2.43-.014q-2.973-.017-5.945-.05v2c-2.583.958-3.865 1.037-6.563.314-2.788-1.502-3.96-2.514-5.437-5.313-.5-3.062-.5-3.062 0-6 2.375-1.812 2.375-1.812 5-3 6.485-3.242 17.677-.821 24.54.172M268 698v2h-4l1 5h3v-2l13-1v-4z"/><path fill="#4a6826" d="M270 687v3l13 2-1 2-2.562-.141c-7.056-.224-12.416.066-18.438 4.141-.495 3.895-.495 3.895.973 7.406 1.98 1.987 4.072 3.627 6.339 5.282L270 712v2h-2l-1 2h-1l-2 1c-3.334-1.026-6.009-2.066-8-5-.253-3.095-.399-5.201 1-8h-3c.229-1.607.484-3.211.75-4.812l.422-2.708c1.006-3.014 2.296-3.684 4.828-5.48v-3c3.591-1.197 6.231-1.071 10-1"/><path fill="#4a6724" d="M304 638c5.602-.384 9.159.096 14 3v2h-2v2h2v7l-1.32-1.094c-3.101-2.416-5.021-3.819-8.992-4.344-2.832.193-2.832.193-4.688 2.438a95 95 0 0 0-.062 7.5c.183 7.259.183 7.259-.938 9.5h-2v2h-2v-2l-4-2h2c1.162-4.816.911-9.246.645-14.16.355-2.84.355-2.84 2.242-5.211C301 643 301 643 303 643z"/><path fill="#6b9637" d="M343 726c1.938 1.5 1.938 1.5 3 3v2h2q1.256 2.434 2.5 4.875l1.406 2.742C353 741 353 741 353 743h-3l1 8h-2l-1 2c-2-2-2-2-2.125-4.125L346 747h-2l-.551-1.391c-1.181-2.883-2.256-5.352-4.137-7.859C338 736 338 736 338 733h-2l-1-5h-2v-3c3.908-1.303 6.262-.52 10 1"/><path fill="#79a143" d="m335 734 2 1-1 3h3l-1 10c-2.938.081-5.874.14-8.812.188l-2.526.076-2.432.029-2.237.048c-2.55-.436-3.435-1.315-4.993-3.341v-2h-7l-1-2h9l1-4h16z"/><path fill="#4c6b24" d="M321 652h2l1 2 3-1 .25 2.25c.896 3.285 2.263 4.496 4.75 6.75 1.471 2.941 1.104 5.907 1.062 9.125l-.013 1.996q-.02 2.44-.049 4.879l3 1v6l-3 1 .562 2.625c.445 3.427.158 6.017-.562 9.375h-1l-.348-2.149c-2.738-17.82-2.738-17.82-9.504-34.396-1.53-2.748-2.18-4.156-1.843-7.342z"/><path fill="#4b6d20" d="M257 669c9.399 3.421 17.542 10.317 25.5 16.25l2.068 1.537c6.659 5.015 6.659 5.015 9.432 8.213v2l-25-3v-1l2.809.035q1.814.015 3.629.027l1.853.026c1.57.009 3.14-.036 4.709-.088l1-1-2.336.07-3.039.055-3.023.07C272 692 272 692 270 690v-3l4 1v2l4-2-4-1v-2h-2v-2l-2-1-1.312-2c-2.102-2.491-3.517-2.657-6.688-3v-2h-4v-2h-3z"/><path fill="#4a6a23" d="M276 715c38.895 3.71 38.895 3.71 52 19v2l-6-1v-2l-3-1 1-3-6-1v-2l-3.375-.062-1.898-.036c-1.841-.01-1.841-.01-3.727 1.098l-2-1v2h-2v-2l-2.75.188c-3.54-.205-4.699-.834-7.25-3.188l2-3-12-1v-2l-5-1z"/><path fill="#4a6a22" d="m332 685 1 3h2c.853 3.674 1.108 7.045 1.062 10.812l-.027 2.958L336 704h2v-4h3v-5l2-1 3 1v23c-4.75-1.188-4.75-1.188-7-4v-2h-2c-2.731-6.414-4.398-11.764-4.074-18.762.095-2.885-.333-5.422-.926-8.238"/><path fill="#506a25" d="M364 749h1l1 11 4-5-.035 1.941c-.054 5.146.153 9.989 1.035 15.059l2.75-.375c3.25.375 3.25.375 5.625 2.75 2.468 4.242 1.963 8.88 1.625 13.625l-3 1 1.125 2.312L380 794c-.945 1.668-.945 1.668-2 3l-1.031-3.086q-.732-2.145-1.469-4.289l-.792-2.308c-1.732-4.918-3.733-9.597-5.993-14.295-4.012-8.365-5.9-14.709-4.715-24.022"/><path fill="#89af4d" d="M305 646h5l1 6h2l1 5h-4l-1 2h3l1 9h2v3h-3l-1-2-2 4h-2q-1.014-3.777-2-7.562l-.578-2.135c-1.362-5.277-2.563-10.523-.422-15.741z"/><path fill="#496922" d="m350 684 5.176.781c2.014.279 2.014.279 4.824.219 2.014 2.089 2.944 3.33 3.188 6.25L363 693l1.875-.125C367 693 367 693 369 695c-.023 2.383-.023 2.383-.375 5.125l-.336 2.758L368 705h-4l-.988-2.52-1.324-3.292-.647-1.659c-1.251-3.081-2.376-5.48-5.041-7.529-2.5-.667-2.5-.667-5 0-2.805 3.406-3.497 6.678-4 11h-1c-1.945-5.76-2.144-9.282 0-15h4z"/><path fill="#76885c" d="M352 770v4h2v5h2c3.413 4.2 3.345 7.857 3 13h-2l-1-2-1 5c-2-1-2-1-2.638-2.535l-.546-1.957-.623-2.137q-.627-2.234-1.25-4.469l-.627-2.144-.548-1.965c-2.216-5.175-7.965-7.48-12.768-9.793 12.062-1.969 12.062-1.969 16 0"/><path fill="#81a847" d="M353.25 688.563c3.559.566 4.616 1.839 6.746 4.636 1.623 2.912 1.806 5.495 2.004 8.802-.99-.332-1.98-.66-3-1l-1-2-.812 1.5L356 702h-3l-.188 1.75c-1.127 3.121-3.214 4.277-5.812 6.25a507 507 0 0 1-.188-7.188l-.076-2.042c-.065-4.45.509-7.085 3.264-10.77 1-1 1-1 3.25-1.438"/><path fill="#c8d2bb" d="M317.313 638c4.805 3.576 9.634 7.886 10.688 14-2.153-2.076-4.031-4.044-5.75-6.5-3.382-3.757-7.29-6.051-12.336-6.816-4.632-.133-7.242.758-11.915 2.316l-3 15c-3.288-1.644-5.731-3.246-8.625-5.438-7.832-5.456-14.728-6.801-24.125-6.937l-2.185-.043c-4.849.045-7.888.955-12.065 3.418l-2 1c1.385-3.434 2.632-4.734 6-6.25 7.103-2.905 13.933-2.634 21 .25q2.936 1.07 5.875 2.125 2.564.936 5.125 1.875v2l2.813.875c2.464.87 4.166 1.553 6.188 3.125v-5h2l.25-2.25c.899-3.297 2.173-4.564 4.75-6.75 4.95-2.475 12.175-1.551 17.312 0"/><path fill="#888330" d="M387 810h1q.037 7.449.055 14.899.008 2.535.02 5.072.017 3.638.023 7.275l.015 2.304c0 1.817-.051 3.634-.113 5.45-1.561 1.561-3.09 1.17-5.25 1.188-3.667-.053-6.543-.244-9.75-2.188-1.312-2.125-1.312-2.125-2-4l2.25 1.062c2.882.983 3.962.971 6.75-.062v-2h4v-19h3z"/><path fill="#768a33" d="M368 793c4.75 1.875 4.75 1.875 7 3v5l3 1c.73 1.848.73 1.848 1.188 4.062l.48 2.223L380 810l-2.375-.062c-2.606-.125-2.606-.125-4.625 1.062l-2-3c-2.112 2.57-2.22 4.411-2.125 7.688l.055 2.449L369 820h-1l-.367-2.816c-.954-7.749-.954-7.749-2.821-15.309-.806-2.855-.899-4.156.188-6.875v3l2-1c.652-2.025.652-2.025 1-4"/><path fill="#7da547" d="M322 713c3.926 3.513 5.694 5.894 7 11l-1.812-.688L325 723l-1.25 1.562C322 726 322 726 320.387 725.898c-3.812-.901-7.303-2.276-10.887-3.836-6.872-2.876-14.188-3.865-21.5-5.062v-1c2.854-.059 5.708-.094 8.562-.125l2.424-.051c3.852-.031 7.223.09 10.916 1.246 3.091 1.252 3.091 1.252 6.098-.07l.375 1.938L317 721l2 1v-5l3-1z"/><path fill="#4c6c24" d="m365 707 4 1c1.121 2.243 1.121 3.416 1.114 5.899l-.001 2.426-.015 2.62-.005 2.682q-.01 4.249-.031 8.498l-.013 5.754q-.017 7.06-.049 14.121h-2l-1-3-2 1z"/><path fill="#699635" d="M350 743c2.312-.312 2.312-.312 5 0 1.983 2.462 2.931 4.148 3.188 7.312L358 752h2v8h2l-2 4-2-1v-2l-5 2a299 299 0 0 1-2-3.75l-1.125-2.109c-.914-2.235-1.047-3.754-.875-6.141h2z"/><path fill="#4f6533" d="M303 639v4h-2l-2 4h-2l1 14-3-1v-2l-7-2v-2h-8v-2l-5-2v-3h-5l3-3c8.615 1.937 15.028 6.86 22 12l-.047-3.301c-.068-4.787.92-8.36 4.047-12.074 2-1.625 2-1.625 4-1.625"/><path fill="#83946e" d="M362 681c6.516 4.236 9.641 12.355 11.75 19.562.357 3.483.328 6.94.25 10.438h-1a349 349 0 0 1-4-15h-2v-3h-4l-.375-1.875c-.497-2.316-.497-2.316-2.625-4.125l-2-2-2 1a101 101 0 0 1-6-2v2c-1.938-.375-1.938-.375-4-1l-1-2c5.247-3.14 11.109-3.042 17-2"/><path fill="#526a32" d="M371 741h1l.028 1.585c.118 13.207.118 13.207 4.132 25.603C377 770 377 770 377 773l-2-1-1 2v-2h-3c-2.296-9.41-2.296-9.41-2-14l-3 3c-1.799-1.799-1.173-4.451-1.188-6.875l-.042-3.242c.219-2.746.444-3.863 2.23-5.883l1 5h2l-.062-3.375c-.045-2.383-.023-3.455 1.062-5.625"/><path fill="#4c6d26" d="M291 741h1l.5 3.188c1.223 3.991 3.01 5.659 6.605 7.687 4.734 1.84 9.657 2.819 14.635 3.782l2.311.448 2.083.38c1.956.54 3.254 1.301 4.866 2.515l-4 1v-2l-2.336.035-3.039.027-3.023.036C308 758 308 758 306 757l-2.875 1.062c-3.125.938-3.125.938-5.5.063L296 757v-1l-7-1c-.778-3.406-1.1-6.508-1-10h2z"/><path fill="#4e682f" d="m335 675 2 1c.852 2.723.852 2.723 1.625 6.062l.789 3.348L340 688l1.859-2.016L344 684c2.25.25 2.25.25 4 1h-2l.062 3.312c.051 2.661-.189 4.068-1.062 6.688h-3l-1 5h-3v4h-2l-1-16h-2l1-3h2z"/><path fill="#506a30" d="m256 666 3 3-4 4 2.375.438C260 674 260 674 262 675v2h5l.875 1.938c.953 2.214.953 2.214 3.125 3.062l1 3 7 1 1 3-6 1-1-2-2.312-.375c-3.362-.782-4.343-2.138-6.688-4.625-1.42-.936-2.84-1.87-4.273-2.785-3.476-2.446-6.578-5.369-9.727-8.215l4-1v-4z"/><path fill="#517025" d="M303 648c1 2 1 2 .941 5.113-.06 4.237.893 8.007 1.997 12.075l.552 2.115a933 933 0 0 0 1.052 3.98A297 297 0 0 1 309 677c-4.173-1.409-7.243-3.557-10.562-6.375l-1.42-1.172A103 103 0 0 1 289 662h2v-3l-2-1c1.75-.75 1.75-.75 4-1 2.312 1.688 2.312 1.688 4 4-.25 2.25-.25 2.25-1 4l2 1v2h2v-2h2l-.016-1.545q-.03-3.446-.046-6.893l-.026-2.431-.01-2.315-.016-2.142C302 649 302 649 303 648"/><path fill="#4c6222" d="m359 784 2 1v3h2c1.785 7.629 2.11 14.243 1 22l-3-4-2 2-.312-2c-.572-2.495-1.283-4.529-2.25-6.875-1.529-3.903-1.698-6.961-1.438-11.125l2 4h2z"/><path fill="#688f37" d="M364 743h1v22h-2v2h-3l-2 5 2 1-1 6-.75-1.562L357 775l-.777-1.719c-1.794-3.632-3.173-5.606-6.973-7.219L346 765c2.606-.931 3.642-1.149 6.25-.062L354 766l.312-1.938L355 762l3-1 2 2c.105-2.211.105-2.211-1-5 .438-2.688.438-2.688 1-5l1 2h2l-.035-1.609c-.09-7.017-.09-7.017 1.035-10.391"/><path fill="#4a632d" d="m312 727-1 4h-5v2l-2.449.367-3.239.508-3.199.492c-2.911.592-5.403 1.436-8.113 2.633v6h-2l1.062 3.312c.953 2.969.985 3.547-.062 6.688-3.588-4.035-3.445-7.163-3.285-12.375.504-4.645 2.387-6.727 5.597-9.937 3.24-2.035 4.925-2.168 8.688-1.688 2.375 1 2.375 1 4 2l1-2c5.222-2 5.222-2 8-2"/><path fill="#4c6b28" d="M332.375 759.813c1.101.17 2.202.342 3.336.52 3.25.66 6.174 1.552 9.289 2.668l-4 1c.776 3.073.776 3.073 3 5-1 1-1 1-4.187 1.312-3.514-.036-5.318-1.139-8.126-3.29-3.229-1.959-7.005-2.402-10.687-3.023l2-2-1-2c3.663-1.26 6.591-.8 10.375-.187"/><path fill="#9dab8a" d="M260 681c5.662 1.477 5.662 1.477 7.375 4.125L268 687l-8 2v3l-1.875 1.688c-2.872 3.125-3.37 6.218-4.125 10.312h3l-.105 1.609c-.211 4.667-.211 4.667 1.605 8.891l1.5 1.5c-3.474-.869-5.377-2.051-7.312-5-2.566-4.995-2.707-10.586-1.11-15.938.734-1.624.734-1.624 2.422-4.062l3-1v-2l7-3z"/><path fill="#6b903a" d="M363 765h3a334 334 0 0 1 2.062 3.875l1.161 2.18L370 773l-1 2-3-1-.375 3.375c-.325 2.921-.438 3.438-2.625 5.625-.648 2.571-.648 2.571-1 5h-1c-1.726-5.177-2.255-9.555-2-15h-2l3-6h3z"/><path fill="#87b14d" d="M252 655h2l.867 1.457c1.023 1.732 1.023 1.732 3.078 2.055l2.18.176 2.195.199L264 659v7l-2 1 2.5 1.875L267 671v2h2v2l3 1c-6.39-.468-10.405-3.225-14.742-7.863-3.528-4.347-5.025-7.539-5.258-13.137"/><path fill="#917337" d="m370 842 1.75.938c3.887 1.835 7.217 2.181 11.5 2.124l2.703-.027L388 845q.04 2.218.062 4.438l.036 2.496C388 854 388 854 387 855c-3.123.626-5.896.754-9 0-2.706-2.718-5-6.073-5-10l-4-2z"/><path fill="#7ba642" d="m319 738-1 3-1.645.184-2.167.254-2.145.246c-2.237.288-2.237.288-5.043 1.316v2h-5v3h-7v-3h4l-1.062-1.812C297 741 297 741 298 738c7.178-1.012 13.812-.888 21 0"/><path fill="#51702d" d="m310.188 725.438 2.168.308L314 726v2l6 1v3l2 1v2l4 1h-27c2.59-2.59 4.027-2.374 7.625-2.625l3.04-.226 2.334-.15-.562-1.874C311 729 311 729 312 727l-1.187.938c-2.224 1.303-4.284 1.652-6.813 2.062l1 2c-3.687-.499-5.604-1.1-8-4l1-2h3v2h2v-2c2.995-.999 4.173-1.008 7.188-.562"/><path fill="#86ad4c" d="M310 646c5.855 3.088 8.519 7.534 12 13l1.184 1.777c1.724 2.889 1.823 4.184 1.191 7.535C323 671 323 671 320 672l-1-12-3.312.062c-2.661.051-4.068-.189-6.688-1.062l1-3 4 1v-2l-2-1 1-2h-2z"/><path fill="#4c652f" d="m256 645-2 1h5v2c-1.596 1.233-3.194 2.097-5 3l-1 2-5-1-1 14h3v5c-4.209-3.788-5.83-6.704-6.25-12.375.148-4.512 1.051-8.668 3.438-12.563 2.895-1.697 5.498-1.25 8.812-1.062"/><path fill="#7da546" d="m357 698 1.875 1.062L361 700l2-1c.814 2.852 1.119 5.366 1.098 8.328l-.01 2.422-.026 2.5-.013 2.547q-.018 3.102-.049 6.203h-1v-10h-2l-1 4-2-1c-.449-1.559-.449-1.559-.688-3.438l-.261-1.871C357 707 357 707 358 705h-2v2h-2l-1 2v-7l3-1z"/><path fill="#74903c" d="M371 781c2.746 2.371 3.951 4.531 5 8 .125 3.312.125 3.312 0 6l-3 1c-2.688-1.438-2.688-1.438-5-3l-1 5h-2a482 482 0 0 1-1.5-4.688l-.844-2.636c-.655-2.67-.774-4.94-.656-7.676l2-1 1 11c2.23-.828 2.23-.828 2.816-3.25l.746-2.75c1.346-4.908 1.346-4.908 2.438-6"/><path fill="#4c6d21" d="m275 647 1 3c2 1.209 2 1.209 4 2v2h8v2l3 1v5c-3.635-.617-5.831-2.172-8.75-4.375-7.953-5.666-14.542-7.107-24.25-7.625v-1c5.761-1.298 11.087-2.257 17-2"/><path fill="#bdc8ae" d="m328 652 1 2h2l1.023 2.887 1.352 3.801.672 1.896c.956 2.685 1.916 5.33 3.047 7.947 1.117 3.044 1.596 6.086 2.031 9.281l.262 1.811q.313 2.188.613 4.377h2l.75-1.875c1.52-2.584 2.482-3.049 5.25-4.125 2.578-.195 2.578-.195 5.25-.125l2.703.055L358 680v1l-1.793.113c-5.398.449-9.571.982-13.395 5.196-.977 1.198-1.9 2.441-2.812 3.691-1.694-3.047-2.495-5.828-3.125-9.25l-.508-2.703L336 676l-1 2h-2l-.148-2.781C332.46 668.586 331.92 662.4 330 656h-2z"/><path fill="#88af4b" d="M273 676c5.625.392 7.353 2.049 11 6 2.124.226 2.124.226 3.625-1.5L289 679l1.375 2.438c1.372 2.651 1.372 2.651 3.625 3.562l-1 3c-7.864.268-12.18-2.003-18.164-6.992C273 679 273 679 273 676"/><path fill="#7ba345" d="M327 720c4.161 3.711 6.053 6.774 8 12-2.572 1.781-3.687 2.056-6.812 1.5-4.046-1.552-7.075-4.571-10.188-7.5l1.863-.402c2.543-.712 4.084-1.97 6.137-3.598h1z"/><path fill="#7fa749" d="M332 698c1.623 2.434 2.617 4.313 3.625 7l.789 2.062C337 709 337 709 337 712h2c1.543 1.645 1.543 1.645 3.188 3.812l1.667 2.145L345 720l-1 3c-2.615-.145-4.402-.349-6.223-2.332C335 716.577 335 716.577 335 714l-1.875-.688c-2.739-1.691-3.175-3.304-4.125-6.312l3-1z"/><path fill="#88b146" d="m296 693 2 2 3-1c1.461 2.647 2 3.894 2 7h4l-1 4v-2l-5 1-1-3h-2l1 4-3-1v-2l-2 2v1h-6v-3l-2-1 1.68-.402 2.195-.536 2.18-.527c2.004-.483 2.004-.483 3.945-1.535l-1-3z"/><path fill="#798c36" d="M376 791c3.115 3.115 3.902 7.094 4.125 11.438L380 804h3v-5c3 1 3 1 4.188 3.25.811 2.748.975 4.904.812 7.75h-8l-.586-1.715-.789-2.223-.773-2.214c-.705-2.035-.705-2.035-2.852-2.848-1.381-6.213-1.381-6.213-.062-8.938z"/><path fill="#586c3c" d="M372 711h2c.206 23.789.206 23.789-1 34l-4-2q-.04-3.343-.062-6.688l-.026-1.896c-.019-3.611.23-6.882 1.088-10.416h2z"/><path fill="#7da44b" d="m310.25 734.813 1.863-.04c3.193-.005 5.463.005 7.887 2.227-1 1-1 1-3.041 1.114-.875-.005-1.749-.01-2.65-.017-.945-.002-1.889-.005-2.862-.01l-3.009-.024-3.022-.014q-3.708-.018-7.416-.048l1 7h-4v2c-.99-.332-1.98-.66-3-1-.316-3.474-.422-5.376 1.562-8.313 4.952-3.428 10.864-2.788 16.688-2.875"/><path fill="#476a1f" d="M248 652h5l-.105 1.574c-.186 4.782.266 7.405 3.105 11.426v2h-2v4h-4v-5h-3a856 856 0 0 1-.062-5.312l-.036-2.989C247 655 247 655 248 652"/><path fill="#82ac44" d="M316 710c1.875 2.125 1.875 2.125 3 4-2 2-2 2-4.625 2.125L312 716l-1-2h-18l1-2h6v-2c10.82-2.78 10.82-2.78 16 0"/><path fill="#88ae50" d="M324 669c2.354 1.497 3.774 2.422 4.805 5.062l.425 2.368.494 2.643.464 2.802.506 2.846c1.218 7.079 2.04 14.101 2.306 21.279l-3-1-.184-1.941c-.488-5.043-1.054-10.05-1.816-15.059h-2l.07-1.617c.146-6.033-.698-11.517-2.07-17.383"/><path fill="#a5a988" d="M355 795c1.464 2.019 2.019 3.101 2.5 5.625L358 803l2 1-1 4h2c1.5 3 1.239 6.119 1.316 9.414l.063 2.211q.098 3.5.183 7l.131 4.742q.16 5.817.307 11.633h-1l-.168-1.636q-.38-3.652-.77-7.302l-.263-2.576-.264-2.451-.238-2.269c-.125-1.787-.125-1.787-1.297-2.766a82 82 0 0 1-.719-4.41l-.386-2.752-.395-2.9-.395-2.819Q355.987 803.068 355 795"/><path fill="#6f9237" d="m366 774 5 1 2 7h-2l-.551 2.152-.761 2.786-.739 2.777L368 792l-3 1c-.828-6.815-1.504-12.519 1-19"/><path fill="#58621c" d="M365 804c3.703 3.703 3.045 9.151 3.066 14.137A687 687 0 0 1 368 826l-2-1 1-5h-4v7h-1l-.076-1.481q-.176-3.353-.362-6.707l-.119-2.33c-.218-3.915-.53-7.653-1.443-11.482l3 3z"/><path fill="#496920" d="M341 764c10.574 1.057 10.574 1.057 14.156 5.402 2.982 4.801 4.404 10.175 5.844 15.598l-3-1c-1.188-2.562-1.188-2.562-2-5h-2v-5h-2v-4l-10-2z"/><path fill="#556b37" d="M318 642c3.382 1.224 5.124 3.03 7.25 5.875l1.578 2.055c1.281 2.263 1.424 3.515 1.172 6.07h2l1 4-4-2v-5h-2l-1 2-1-3h-2l-2 4c-1.87-2.75-2.099-4.55-1.625-7.75L318 645h-2v-2z"/><path fill="#466223" d="M262.438 642.813c.79-.012 1.579-.024 2.392-.038l2.292-.005c.695-.005 1.39-.009 2.106-.012C271 643 271 643 273 645c-5.902 4.067-10.9 4.744-18 5l1-2h3v-2l-5 2c-.562-1.937-.562-1.937-1-4 2.115-2.115 6.594-1.186 9.438-1.187"/><path fill="#d6dfc8" d="M374 712h1q.044 5.031.062 10.062l.017 3.116c.005 5.39-.095 10.74-.442 16.119l-.19 3.058a270 270 0 0 1-.443 5.753c-.448 6.852 1.027 11.745 3.996 17.892 3.114 6.658 3.114 6.658 2 10q-1.722-3.655-3.438-7.312l-.986-2.092-.947-2.022-.873-1.856c-1.698-3.857-1.911-7.183-1.881-11.316l.008-1.992c.074-7.965.593-15.902 1.117-23.848l.289-4.564q.349-5.499.711-10.998"/><path fill="#acb89e" d="M294 759h4v2c8.493 1.433 16.967 2.475 25.55 3.214l2.36.224 2.098.183c2.322.442 3.98 1.139 5.992 2.379l2 3-16-2v-2l-1.949-.113c-7.604-.553-14.679-2.023-22.051-3.887v-2z"/><path fill="#48691f" d="M306 731h6v2h6v1l-1.465.044c-2.221.075-4.44.172-6.66.268l-2.305.069c-5.806.275-9.687 1.432-14.382 4.994-1.552 2.124-1.84 4.046-2.188 6.625l-4-1v-2h2l-1-6c6.252-2.87 11.096-4.511 18-4z"/><path fill="#516832" d="M369 696h1c2.73 6.609 3.309 11.978 2.688 19.062l-.186 2.624q-.227 3.159-.502 6.314h-2l-.078-3.211q-.084-2.082-.172-4.164l-.043-2.117c-.092-1.92-.206-3.651-.707-5.508-1.914-1.565-1.914-1.565-4-2l-1 2v-4h4z"/><path fill="#52712d" d="m269 711 2.633.621 3.492.817 1.727.408A154 154 0 0 0 288 715v1h-10l3 1v2q-2.406.079-4.812.125l-2.708.07c-2.53-.199-3.572-.585-5.48-2.195v2l-4-2 1-1-2-2 1.812.562c2.352.659 2.352.659 5.188-.562z"/><path fill="#766421" d="M369 825h1c.196 2.812.38 5.625.562 8.438l.17 2.431.147 2.315.143 2.142C371 842 371 842 370 843c-2.338.14-4.656.043-7 0l1-13h4z"/><path fill="#80a945" d="M318 709c2 1.25 2 1.25 4 3 .25 2.188.25 2.188 0 4l-2 1c-.656 2.527-.656 2.527-1 5l-3-1-1-3-3 1a502 502 0 0 1-6-2c-2.657-.44-5.319-.741-8-1l1-2a73 73 0 0 1 6.562-.625l1.866-.117A498 498 0 0 1 312 713v2h5c.553-2.076 1-3.844 1-6"/><path fill="#466125" d="M316 758c1.691.09 3.38.246 5.062.438l2.786.308L326 759l-3 4 1 2c-7.214-.418-14.037-.952-21-3v-1l2.59-.402 3.348-.536 3.339-.527c2.627-.253 2.627-.253 3.723-1.535"/><path fill="#64601e" d="M363 820h4v5l1-5h1v13l-2-2-2 1c-.465 1.895-.465 1.895-.625 4.062l-.227 2.223L364 840c-3.525-6.172-2.149-13.249-1-20"/><path fill="#b3bea4" d="M260 716h4v2c2.873.677 5.748 1.34 8.625 2l2.449.578c5.803 1.321 11.107 2.213 16.926.422v2c1.462 1.141 1.462 1.141 3 2l-1 2a316 316 0 0 1-3.625-.375l-2.039-.211c-2.896-.513-5.545-1.484-8.336-2.414a198 198 0 0 0-3.945-.93l-2.075-.472a322 322 0 0 0-4.234-.922c-4.349-1.012-6.835-2.071-9.746-5.676"/><path fill="#526b35" d="M290 755h7v2c4.054 1.158 6.218.837 10-1l1 1c1.347.231 2.704.412 4.062.562l2.223.254L316 758l-1 2a92 92 0 0 1-7.438 1.188l-2.103.287c-5.193.658-5.193.658-7.459-.475v-2l-2.312-.312c-2.859-.732-3.845-1.458-5.688-3.688"/><path fill="#d9e1d1" d="M244 648h2l-.324 2.852-.364 3.773-.22 1.871c-.502 5.613 1.116 9.156 4.556 13.664l1.727 1.902 1.84 2.036A205 205 0 0 0 260 681c-7.302-3.428-13.557-8.213-17.195-15.527-1.658-5.095-1.968-10.842.222-15.797z"/><path fill="#8ab14c" d="M311 668h1v6h2v2c-3.738 3.625-6.961 4.814-12 6l-.438-1.812c-.449-1.75-.991-3.475-1.562-5.188 1.688-.688 1.688-.688 4-1 2.75 1.438 2.75 1.438 5 3l-.688-1.688c-.439-3.251.815-4.719 2.688-7.312"/><path fill="#83a94a" d="M271.86 650.895c2.11.95 4.137 1.946 6.14 3.105-2 1-2 1-5 1v2h-4v-5c-1.98.114-3.959.242-5.938.375-1.102.07-2.204.14-3.34.21L257 653c-1.232 2.463-1.072 4.28-1 7-2-2.75-2-2.75-2-5h-2v-2h2v-2c4.922-2.461 12.73-1.71 17.86-.105"/><path fill="#89b246" d="M268 698h13v4l-13 1v2l-4-1v-4h4z"/><path fill="#c6d1b8" d="m296 727 1 2-1.426.551c-4.853 1.904-4.853 1.904-8.574 5.449-1.64 4.92-2.183 10.997-.246 15.914 1.99 3.044 4.589 5.619 7.246 8.086-3.943-1.314-6.38-2.747-9-6-2.615-5.753-2.649-11.187-1.25-17.25 1.643-3.615 3.247-5.992 7.066-7.438 1.712-.497 3.447-.911 5.184-1.312"/><path fill="#49612b" d="m268 717 3 1c1.699.148 3.402.247 5.105.316l2.979.127 3.104.119 3.138.131q3.837.16 7.674.307l1 2c-3.855 2.57-7.544 2.487-12 2-10.187-2.094-10.187-2.094-14-4z"/><path fill="#7f8b35" d="m368 805 2 3 2-2 .75 1.438c1.586 1.982 2.797 2.153 5.25 2.562l-2 6c-4.75 1-4.75 1-7 1z"/><path fill="#506420" d="M381 785c2.068 3.308 2.403 6.395 2.754 10.195.161 1.903.161 1.903 1.246 3.805h-2v5h-3l-.184-2.012c-.615-6.537-.615-6.537-1.816-12.988l2-1z"/>
  </g>
  <g class="crop-part crop-part--leaves" data-group-id="leaves-1782198797311-8jmswc" data-layer-index="1">
    <path fill="#6e9437" d="m477 672 1 6-4.812 3.938-3.047 2.5a563 563 0 0 1-5.969 4.812c-10.939 8.19-10.939 8.19-19.172 18.75h-2l-.938 1.875L440 714h-2l-.75 1.625C436 718 436 718 433.938 721.062c-2.043 2.822-2.043 2.822-2.938 5.938l-1.875 1.812c-2.434 2.507-3.687 5.024-5.125 8.188h-2v3h-2l-2 6h-2l-.375 2.625c-.606 3.27-1.508 6.248-2.625 9.375l4 1-2.438 1.312c-2.84 1.493-2.84 1.493-3.562 4.688l-1.438 1.436c-5.188 5.197-6.841 14.272-8.812 21.126l-.812 2.768A1301 1301 0 0 0 398 797c-2-3-2-3-1.5-6.438.5-3.563.464-4.674-1.5-7.562h-3l-.875 2.75c-.89 2.572-1.84 4.863-3.125 7.25h-1c-.251-5.719.249-9.636 2.5-15l.763-1.852c1.671-3.959 3.574-7.519 5.843-11.181 6.906-11.782 5.975-24.388 5.832-37.655-.001-3.55.009-7.1.021-10.65a656 656 0 0 0-.02-6.578l-.017-2.997-.026-2.619c.109-2.58.533-4.953 1.104-7.468h1v51l2-5h2v-4h2l2-5h2v-4c2.574-2.992 4.231-4.744 8-6 1.063-1.812 1.063-1.812 2-4a176 176 0 0 1 3-4.75l1.562-2.422L430 711h2l1-3 2-1 1.812-3.312c1.896-3.454 4.03-5.3 7.188-7.688a475 475 0 0 0 3.539-4.34c2.822-3.206 6.039-6.107 9.461-8.66h2v-2c2.301-1.656 2.301-1.656 5.312-3.5l2.989-1.844L470 674c3-2 3-2 7-2"/><path fill="#83ab48" d="m468 685 6 4-2 4 1.844-.656c5.955-1.892 11.447-2.645 17.656-2.656l2.104-.016c3.668.05 5.267.242 8.396 2.328l-3 1v2h3l-1 5h-2v5l2 1c-9.788 4.165-19.738 5.709-30.166 7.338C455.773 715.723 446.301 721 435 731c-1.734-3.467-1.476-7.209-1-11 1.066-2.491 2.186-3.919 4-6h2l.938-1.875L443 708h2l.652-1.637c1.826-3.202 4.303-5.613 6.91-8.175l1.611-1.599A118 118 0 0 1 468 685"/><path fill="#78a043" d="M433 721c1.858 3.135 2.201 5.375 2 9l3-1v2l3-1c3.87-.285 7.746-.278 11.625-.312l3.199-.088c6.688-.054 12.528.523 18.176 4.4 1.375 2.875 1.375 2.875 1 6-3.555 5.333-7.198 8.338-13.574 9.844q-2.055.343-4.114.656l-2.239.369c-2.356.387-4.714.76-7.073 1.131q-4.626.742-9.25 1.5l-2.267.368c-5.692.946-11.285 2.171-16.881 3.581C417 758 417 758 413 758c.599-4.195 1.575-8.01 3-12h2l.438-1.875C419 742 419 742 420 740h2v-3h2l.25-1.625c1.026-3.248 2.716-5.663 4.75-8.375h2l.438-2.438C432 722 432 722 433 721"/><path fill="#87ae49" d="M464 641c2.333 2.333 2.344 2.817 2.438 6-.11 8.23-3.057 16.194-5.438 24l7-5 2 1-1 4 4 2a1380 1380 0 0 1-5.875 4l-3.305 2.25C461 681 461 681 459 681v2a114 114 0 0 1-5.188 4.25c-4.668 3.702-4.668 3.702-8.687 8.062-3.321 4.2-7.367 7.245-12.125 9.688l-2-1 .908-2.093c1.173-3.123 1.886-6.15 2.565-9.415l.787-3.738.802-3.879 1.598-7.633.707-3.41C439 671 439 671 440 668h2l.562-3.75c1.743-7.91 6.295-15.928 12.438-21.25h2v-2c2.706-1.353 4.133-.788 7 0"/><path fill="#89b14c" d="M516 650c.596 4.097.9 6.641-1.432 10.162-5.121 5.719-10.532 9.932-17.006 14.026l-2.697 1.748a1084 1084 0 0 1-5.294 3.409c-3.889 2.504-7.73 5.078-11.571 7.655-3 2-3 2-5.688 1.625L470 688v-4c1.531-1.492 1.531-1.492 3.5-2.875 3.189-2.458 3.189-2.458 3.938-6.5L477 672l-2.812.188C471 672 471 672 469.125 670.5L468 669c3.036-5.312 6.762-8.803 12-12h2v-2c10.77-7.611 22.128-12.753 34-5"/><path fill="#7ba344" d="M415.563 682.25C418 683 418 683 420 685c2.88 8.286 2.192 17.368 2 26q1.658-1.405 3.312-2.812l1.863-1.583A87 87 0 0 0 432 702l1 2 2-2 3 1c-1.603 3.115-2.953 4.963-5.75 7.125-3.898 3.037-6.038 7.106-8.583 11.273-2.617 4.081-4.956 7.031-9.668 8.602v4h-2l-2 5h-2v4h-2l-1 6-2-1q-.037-8.856-.055-17.712-.008-3.006-.02-6.011c-.137-32.275-.137-32.275 7.075-40.277 3-2 3-2 5.563-1.75"/><path fill="#4b6924" d="M458 635c7.963.919 7.963.919 11 3 .609 2.094.609 2.094.75 4.5l.172 2.406q.077 2.046.078 4.094l2 1v-5h1v7c6.216-.276 9.877-1.219 15-5h3v-2c8.341-2.139 16.397-3.55 25-4 2 3 2 3 2 6h3c.627 10.101.627 10.101-1.875 13.688C517 662 517 662 515 662v-12c-5.381-3.15-9.271-3.787-15.387-2.496-5.27 1.412-9.541 3.397-14.019 6.508C484 655 484 655 482 655v2c-1.614 1.317-3.294 2.554-5 3.75-4.223 2.986-8.367 6.034-12.441 9.219C463 671 463 671 461 671c1.718-10.107 1.718-10.107 3.125-14.562 1.134-4.455 1.444-8.862.875-13.438-1.898-2.35-1.898-2.35-5.125-2.125L457 641v2l-2.188 1.625c-3.127 2.641-4.72 5.233-6.699 8.766L447 655h-2q.425-1.972.875-3.938l.492-2.214C447 647 447 647 449 646l-1-7 10-2z"/><path fill="#4c6d24" d="m482 711 1 3c-3 2-3 2-5.086 1.836l-2.289-.461c-3.969-.58-3.969-.58-7.5 1.563L466 719h-3c1.706 2.784 2.476 3.854 5.688 4.75L471 724l1 7h4l1 2h3l-2 16-1-2-5 1v2h-2v2c-4.552 1.35-9.192 1.367-13.906 1.621-2.943.36-4.544.987-7.094 2.379-6.292.999-12.397 1.029-18.758.969-4.453.043-8.827.473-13.242 1.031 6.866-4.577 16.799-5.023 24.867-6.176l1.992-.286c2.686-.384 5.371-.767 8.062-1.114 11.767-1.502 11.767-1.502 21.079-8.424 1.135-3.121 1.135-3.121 1-6v-2l-1.812-.812C470 732 470 732 468.719 730.453c-2.445-2.067-4.242-1.853-7.41-1.894l-3.362-.08-3.509-.041a926 926 0 0 1-6.879-.129l-3.085-.038C442 728 442 728 440 726a503 503 0 0 1 4.562-3.812l2.567-2.145c6.023-4.286 12.301-5.791 19.433-7.231l2.499-.537c4.385-.908 8.434-1.487 12.939-1.275"/><path fill="#7e8a34" d="m392 782 4 1v3l2 1-.438 2.625c-.718 4.967-.972 9.968-1.308 14.973-.286 3.828-.722 7.601-1.254 11.402h-2l-.028 2.048c-.054 3.068-.138 6.135-.222 9.202l-.043 3.223-.098 3.105-.063 2.857c-.688 3.233-2.063 4.463-4.546 6.565-2.593-9.844-3.427-18.872-3.281-28.99.032-2.234.041-4.466.047-6.699.069-10.815.069-10.815 1.234-14.311l3-2a75 75 0 0 0 1-5c1.062-2.312 1.062-2.312 2-4"/><path fill="#4b6924" d="M437 656h2c1.75 1.875 1.75 1.875 3 5-.221 1.998-.221 1.998-.754 4.316a367 367 0 0 0-2.508 12.469q-.71 3.64-1.426 7.277l-.662 3.682c-1.61 8.007-3.965 13.358-9.65 19.256l-1.593 1.739C424 711 424 711 422 711l-.184-3.219c-.609-10.418-.609-10.418-1.816-20.781l2 1 1-4c4 0 4 0 6 1l.438-3.812c.299-2.615.72-4.662 1.562-7.188h3v-13h2z"/><path fill="#4c6b24" d="M516 663v3h2v2h-7l-.41 1.828c-1.727 6.411-1.727 6.411-4.278 8.66C503.903 679.869 501.82 681 499 681v5h5v2h3v2h3v5h-2l-1 4-.625-2.312c-1.861-3.637-3.607-4.188-7.375-5.688-3.741-.436-3.741-.436-7.688-.312l-2.109.025c-5.859.135-11.497.933-17.203 2.287 3.157-7.335 11.556-11.054 18.055-15.137a536 536 0 0 0 9.32-6.051l2.898-1.917c2.769-1.872 2.769-1.872 5.391-4.071 2.897-2.262 4.663-2.824 8.336-2.824"/><path fill="#4b6624" d="m432 757 1 5c-2.836 1.418-4.991.863-8.125.562l-3.32-.308L419 762v3l-4-1-1 3h-2l1 5h-4l-1 8h2c-.25 2.875-.25 2.875-1 6-1.938 1.188-1.938 1.188-4 2l-2 3 1-9h-2c.62-4.233 2.105-7.523 4.062-11.312l1.661-3.239L409 765h2l.188-1.812c.812-2.188.812-2.188 2.75-3.813 5.924-2.66 11.694-3.967 18.062-2.375"/><path fill="#4c6329" d="M395 729c2 1 2 1 4 4l2 1c-.447 3.731-.91 7.459-1.375 11.188l-.383 3.197-.39 3.095-.35 2.841c-.517 2.76-1.375 5.114-2.502 7.679h-3v5h-2l.105 1.906c.195 6.153-.605 10.469-3.105 16.094h-1c-1.21-19.097-1.21-19.097 3.438-26.875 5.354-8.982 4.672-18.92 4.562-29.125"/><path fill="#919e78" d="m448 760-1 2c-2.5.594-2.5.594-5.785 1.07l-3.545.528-3.732.527-3.745.551q-4.594.673-9.193 1.324v2l-1.875 1.75c-2.49 2.637-3.054 4.821-4.125 8.25l-1.453 1.797c-1.925 2.741-2.491 5.198-3.235 8.453l-.761 3.266L409 794h-3l-1 3-2-1c.75-7.75.75-7.75 3-10h3l1-6h-2c-.125-5.75-.125-5.75 1-8h4l-1-5h2l1-4 4 2v-3l2.238.07c6.342.113 12.127-.349 18.336-1.625 2.839-.521 5.546-.601 8.426-.445"/><path fill="#4b6924" d="M398 688c2 2 2 2 2.25 5.938-.107 5.465-1.133 10.725-2.25 16.062h-2l.992 1.641c1.225 2.866 1.207 5.004 1.133 8.109l-.055 2.984L398 725h2l1-14h1q.04 4.375.062 8.75l.026 2.5.01 2.422.016 2.222c-.12 2.213-.324 4.03-1.114 6.106l-3 1-2-4-1 11h-1q-.075-7.602-.11-15.204-.014-2.579-.041-5.158c-.22-22.246-.22-22.246 4.151-32.638"/><path fill="#446420" d="m408 683-.586 1.871-.789 2.567-.773 2.496c-2.277 8.196-3.353 16.142-3.977 24.628l-.262 3.346q-.315 4.045-.613 8.092l-3-1-.184-2.266-.254-2.984-.246-2.953c-.267-2.362-.67-4.516-1.316-6.797h2l-.062-3.25c.062-3.75.062-3.75.566-5.602.647-2.801.552-5.402.496-8.273-.111-5.654-.111-5.654 1-7.875 2.903-1.375 4.761-2 8-2"/><path fill="#869872" d="M497 638c2.896-.081 5.791-.141 8.688-.188l2.474-.076c4.804-.058 7.944.134 11.838 3.264 4.001 3.971 6.145 7.159 6.188 12.812-.113 7.075-.113 7.075-2.188 10.188-3 1.875-3 1.875-6 3l-2-1v-3l-5 1 4-5v3h2l2-4h2v-11h-3l-1.375-2.938c-1.283-3.133-1.283-3.133-3.625-4.062a248 248 0 0 0-8.125-.562l-2.285-.131q-2.795-.158-5.59-.307z"/><path fill="#abb99c" d="M465 631c4.351 2.217 7.442 4.831 10 9 .599 2.702.812 5.224 1 8h2v-2a432 432 0 0 1 3.812-2l2.145-1.125C486 642 486 642 489 642v-2l8-1c-2.523 1.682-4.811 2.901-7.562 4.125l-2.379 1.07C485 645 485 645 483 645v3l2 1c-1.892 2.417-2.959 2.99-6 3.75-3 .25-3 .25-6-.75l-.438-3.438c-.174-3.37-.174-3.37-1.562-4.562l-.312-3.375c-.33-3.584-.33-3.584-2.387-5.336-2.813-1.576-4.596-1.627-7.801-1.539l-2.844.047A31.3 31.3 0 0 0 451 635v2l-2-1c4.589-5.048 9.393-5.931 16-5"/><path fill="#6d814e" d="m494 710-3 1 6 1-1 3 3 1-7 1-1 3q-3.093.253-6.188.5l-3.48.281c-2.793.184-5.535.261-8.332.219l2-1 1-3 4 2v-4l2-1-2-2a361 361 0 0 1 4.75-1.562l2.672-.879c2.656-.576 4.048-.451 6.578.441"/><path fill="#b7c2a5" d="M433 661h1q.292 2.405.562 4.812l.317 2.708C435 671 435 671 434 674h-3l-2 9c-3-1-3-1-4.938-4.062-1.912-2.452-2.778-2.895-5.914-3.368-6.709-.127-6.709-.127-13.148 1.43-1.154 1.747-1.154 1.747-2 4l-1.438 2.699c-3.19 6.102-5.429 11.503-6.562 18.301h-1c-.949-8.164 2.481-17.068 7.312-23.625 4.883-4.314 9.37-5.694 15.876-5.375 4.852.651 6.865 2.168 9.812 6 1.535-4.276 2.577-8.5 3.438-12.949C431 664 431 664 433 661"/><path fill="#4e692e" d="m447 639 1 2 2 1v5h-3l.188 1.938c-.219 3.566-1.203 6.418-2.387 9.769-1.071 3.065-1.936 6.165-2.801 9.293a111 111 0 0 1-1.5-6.562c-.475-2.561-.475-2.561-1.5-5.438h-2c1.484-6.264 5.441-12.441 10-17"/><path fill="#80916c" d="m460.438 632.625 2.809-.086c3.67.614 5.24 1.726 7.752 4.461.708 3.234.708 3.234.813 6.75l.145 3.547L472 650l-3-1v-11l-7-1v-2h-4v2l-2.16.305c-5.742 1.128-9.268 2.368-12.777 7.195-3.188 5.195-5.284 10.688-7.063 16.5h-2c1.087-9.136 6.543-17.542 13-24h4v-2c3.219-1.893 5.717-2.323 9.438-2.375"/><path fill="#4f6a2b" d="M506 701c2.125.375 2.125.375 4 1v3h-2v3l3 1a358 358 0 0 1-4.688 3l-2.636 1.688c-2.846 1.395-4.555 1.582-7.676 1.312v-2l-6-1 1-2h3v-2l2.117-1.023 2.758-1.352 2.742-1.336c2.478-1.194 2.478-1.194 4.383-3.289"/><path fill="#5c622a" d="m402 793 1 3h2c-1.169 10.466-2.781 20.702-5 31h-1v-7h-2c-.313-15.03-.313-15.03 3-20 .708-2.321 1.38-4.654 2-7"/><path fill="#506634" d="M421 675c2.653 1.985 4.182 4.273 6 7l2 1v2l-7-1v-2h-2v-2l-3 1v-3c-3.814.515-5.421 1.206-8 4-2.438 1.75-2.438 1.75-5 3-2.16-.422-2.16-.422-4-1a238 238 0 0 1 2.25-3.375l1.266-1.898c4.361-5.074 11.329-4.846 17.484-3.727"/><path fill="#8e9d7a" d="M499 681c5.89 2.688 10.737 5.071 15 10l2 2c1.039 7.504-.469 12.57-4.938 18.625-4.483 3.477-9.527 5.203-15.062 6.375-2.371-.398-2.371-.398-4-1l2.16-.734c9.792-3.221 9.792-3.221 17.778-9.454 1.496-3.961 1.308-7.627 1.062-11.812l-2-1-1-3-3-1v-2h-3v-2h-5z"/><path fill="#4f6534" d="m505.063 638.875 2.22-.012c5.463.01 5.463.01 7.717 1.137v2l-1.95.148c-7.41.614-14.712 1.65-22.05 2.852v2a101 101 0 0 1-6 2l-2-1v-3a3198 3198 0 0 1 5.313-2.437l2.988-1.372c4.72-2.083 8.678-2.343 13.762-2.316"/><path fill="#4f6432" d="m477 747 1 3c-6.894 5.932-14.653 8.062-23.73 7.957A156 156 0 0 1 445 757l1.875-.875c2.258-1.062 2.258-1.062 4.125-3.125 1.971-.319 1.971-.319 4.352-.414l2.578-.117 2.695-.094 2.719-.117q3.327-.142 6.656-.258v-2h2v-2c3-1 3-1 5-1"/><path fill="#45671d" d="M401 729h1c.988 15.891.631 27.451-8 41a250 250 0 0 0-3 6c-1.159-3.478-.708-5.459 0-9h2v-5h3c1.757-10.988 3.472-21.977 5-33"/><path fill="#56641e" d="M402 782h2c-.917 16.917-.917 16.917-5 21a274 274 0 0 0-1.062 8.562l-.276 2.444q-.336 2.996-.662 5.994h-3c2.407-32.407 2.407-32.407 8-38"/><path fill="#b3bea2" d="m521 664 1 3a471 471 0 0 1-3.25 3.375l-1.828 1.898c-1.901 1.708-3.623 2.655-5.922 3.727l-1.5 1.5c-1.685 1.685-3.338 2.531-5.5 3.5l3 1v2l2.312.75c2.924 1.36 3.988 2.566 5.688 5.25l-1 2-1.938-2.188c-3.464-3.504-7.713-5.586-12.062-7.812 3.567-3.822 3.567-3.822 6.125-4.875 2.848-1.709 3.035-4.023 3.875-7.125l1-2 3.375-.438c3.556-.551 4.559-.766 6.625-3.562"/><path fill="#7e6922" d="M393 816h1l1 17 2-3c1.447 2.893 1.299 4.766 1 8-1.649 4.392-3.044 7.362-7 10-2-3-2-3-1.688-5.062C390 841 390 841 391 839c.221-1.737.391-3.481.535-5.227l.264-3.125.263-3.273.276-3.297q.336-4.038.662-8.078"/><path fill="#556a3b" d="M468 723c4.167.473 6.929 1.047 10 4v2l3 1c1.335 2.671 1.243 4.83 1.312 7.812l.114 3.145C482 744 482 744 478 749l1-15-3-1v-2h-4c-1.062-2.375-1.062-2.375-2-5l1-2h-2l-1 2z"/><path fill="#746228" d="M394 820h5c1.425 8.55 2.668 18.459-2.438 25.938L394 849h-2c1.061-2.775 2.184-5.333 3.625-7.938 1.483-3.303 1.63-5.486 1.375-9.062l-3 2z"/><path fill="#d0ceb5" d="M406 794h1a590 590 0 0 1-2.5 20l-.395 2.887-.386 2.738-.346 2.477C403 824 403 824 402 825a354 354 0 0 0-.986 11.123c-.497 5.378-1.419 8.764-5.014 12.877h-3l2.402-2.77c3.513-4.935 3.682-10.019 4.16-15.918.829-8.325 1.867-16.491 3.563-24.687l.518-2.518c.655-3.098 1.355-6.101 2.357-9.107"/><path fill="#94a37f" d="m449.5 756.938 2.492.303c2.004.244 4.006.5 6.008.759-3.167 2.111-4.423 2.335-8.105 2.633l-2.979.253-3.104.24-3.138.26q-3.836.318-7.674.614l-1-5c6.09-.999 11.398-.862 17.5-.062"/><path fill="#cbd4bc" d="M394 702c1.157 2.315 1.163 3.74 1.225 6.319l.068 2.714q.108 6.215.167 12.429.039 3.256.123 6.511c.34 13.367.159 23.724-7.583 35.027-1-3-1-3-.039-5.164q1.402-2.44 2.812-4.875c2.786-6.725 2.362-14.378 2.289-21.555l-.011-2.644q-.02-4.131-.051-8.262-.04-5.484-.062-10.969l-.026-2.55c-.008-1.994.035-3.988.088-5.981z"/><path fill="#8ab052" d="M497 692c3.217-.219 5.434-.268 8.375 1.125C507 695 507 695 507.5 697.938c-.605 3.707-1.479 4.88-4.5 7.062h-4v-5h2l-1-3h2v-2h-3v-2z"/><path fill="#94a37f" d="M478 727c4.721 2.421 4.721 2.421 5.812 4.688.491 6.047.463 10.624-1.812 16.312h-2l-.562 1.688c-2.171 3.491-4.769 5.587-8.438 7.312-4.307.979-8.608 1.557-13 2l1-2a86 86 0 0 1 5.625-1.312c6.478-1.533 10.997-3.421 15.035-8.969 1.561-3.168 1.741-5.328 1.715-8.844l.023-3.133c-.448-3.086-1.095-3.78-3.398-5.742z"/><path fill="#496327" d="m510 691 2 3 2-1c.081 1.749.139 3.5.188 5.25l.105 2.953c-.336 3.211-.999 4.551-3.293 6.797h-3v-3h2v-3l-3 1 1-8h2z"/><path fill="#4b6924" d="M412 678h5l1 2h2v2h2c1.04 3.38 1.08 6.478 1 10l-.75-1.688c-1.466-2.712-3.28-4.948-5.25-7.312-5.35.373-7.509 1.996-11 6l1-7 1.938-.312L411 681z"/><path fill="#527726" d="m450 726 1 2h18l1 4-2.1-.494c-3.159-.551-6.089-.619-9.295-.604l-3.642.01-3.775.026-3.834.013q-4.677.018-9.354.049l1-4 11 1z"/><path fill="#526d30" d="M471 714c2.262.145 2.262.145 4.688.812l2.449.645L480 716v3l-1.812-.688L476 718l-1.438 1.438C473 721 473 721 470.312 721.188L468 721v2l-4 1-.438-1.875c-.494-2.158-.494-2.158-1.562-4.125l2.812-.312c3.175-.355 3.175-.355 4.594-2.282z"/><path fill="#87ae49" d="M464 641c2.333 2.333 2.344 2.817 2.438 6-.11 8.23-3.057 16.194-5.438 24l7-5 2 1v3l5 1v-2h-3v-2l1.938-.375L476 666l1-2h3v3l2 1-3 9-3-4c-4.211.528-6.414 1.832-9.625 4.562C462.322 681 462.322 681 459 681l-.668 1.723c-1.706 2.917-4.008 4.688-6.644 6.715-6.106 4.759-11.132 9.981-16.04 15.988C434 707 434 707 431 707l-1 3-2-2 1.023-1.582c3.245-5.354 4.757-10.034 5.618-16.23C435 688 435 688 436 687c.351-1.868.655-3.745.938-5.625.73-4.601 1.651-8.94 3.062-13.375h2l.191-1.547c1.473-8.743 6.055-17.602 12.809-23.453h2v-2c2.706-1.353 4.133-.788 7 0"/><path fill="#78a042" d="M438 714c1.125 1.688 1.125 1.688 2 4-.938 2.625-.938 2.625-2 5l1 2h-2l-1 4h2v2l9-1v2l2.301-.035 3.011-.027 2.989-.036C458 732 458 732 461 733v3h8v7q-2.624.506-5.25 1l-2.953.562c-2.337.366-4.442.528-6.797.438v3h-3v-2h-9v-3l-3.312.562c-5.295.685-10.413.068-15.688-.562l-1 3h-2l-.938 2.875C418 752 418 752 417 754l6 1c-2.929 2.585-6.259 2.577-10 3 .745-7.745.745-7.745 4-11h2l.75-1.938c2.979-7.298 6.309-14.23 10.25-21.062h2l.75-1.625c1.553-2.951 3.372-5.62 5.25-8.375"/><path fill="#78a141" d="M405 691c1.847 5.772 1.413 10.571-1 16v3l2-5h2l-.625-2.75c-.388-3.36-.179-4.491 1.625-7.25h1l2 7 3-2 2 5h3l-.562 1.938L419 709l1 1 1-15h1v16l2 1-1 2 1.125 2.312c.875 2.688.875 2.688-.313 5.376C422 724 422 724 420.512 724.922c-2.341 1.669-3.189 3.993-4.45 6.519C415 733 415 733 412 734v3h-2l-2 6h-2l-1 6-2-1c-3.063-46.874-3.063-46.874 2-57"/><path fill="#8eb257" d="m473 639 2 1c.391 2.063.507 4.094.656 6.188L476 648l2 1-1 2 2 1-2 1 3 1v2l1.938-.562L484 655l1 1 2 1-3 7h3v2l5 1v3l7 1v-2h5a123 123 0 0 1-10.75 7.875l-3.168 2.094-1.572 1.035a1440 1440 0 0 0-6.572 4.371L478 687l-1.586 1.18c-1.414.82-1.414.82-3.976.57C470 688 470 688 468 686a807 807 0 0 1 4.375-4.5l1.25-1.301c1.087-1.105 2.228-2.156 3.375-3.199h2q.252-1.937.5-3.875l.281-2.18c.256-1.95.256-1.95.219-3.945v-3h-3l-1 3h-4v2h3v2c-2.375.188-2.375.188-5 0-1.312-1.5-1.312-1.5-2-3 2.683-3.578 5.314-6.381 9-9h2v-2h-5c-.956-3.998-1.104-7.708-1.062-11.812l.013-1.811q.02-2.188.049-4.377"/><path fill="#86ae4b" d="M480 693h14v2l2.25-.562c2.7-.43 4.196-.289 6.75.562v-2l4 2c.5 2.625.5 2.625 0 6-4.89 5.438-12.11 8.634-19.348 9.176-1.885.01-3.77-.073-5.652-.176l1-3 3-1 1-2h-7v-4h-5v-5h5z"/><path fill="#6c9537" d="M422 726v7l4-2c-1.644 5.678-4.288 10.763-7 16h-2c-1.206 2.332-2.165 4.496-3 7-5.75 1-5.75 1-8 1l-1 2 3 1c.125 5.75.125 5.75-1 8h-2l-1 3c-.922-2.766-1.118-4.383-1.098-7.23l.01-2.432.026-2.526.013-2.56q.018-3.126.049-6.252l2-1c.652-2.025.652-2.025 1-4h2l.438-1.875C409 739 409 739 410 737h2v-3c7.2-8 7.2-8 10-8"/><path fill="#769e41" d="m430.105 742.56 2.645.128 2.691.068c2.188.059 4.372.14 6.56.244v3h9v2h3v-3h6l1 2c2.015 1.134 2.015 1.134 4 2-10.814 2.563-21.684 4.218-32.694 5.68-1.46.203-2.917.42-4.37.66-4.495.739-6.832.363-10.937-1.34 2.17-7.777 4.574-11.602 13.105-11.44"/><path fill="#85ae47" d="m467 686 7 3-1 3h4l-1 2h-1v6h5v4h7l-2 5h-6l-1-2c-3.752-1.879-7.153-2.351-11.312-2.625l-3.239-.227L461 704v-3c-4.028-.183-6.484.058-10 2 4.246-7.457 9.148-12.03 16-17"/><path fill="#82aa44" d="M454 697v4l1.812-.562C458 700 458 700 461 701v3l2.414-.105c10.524-.269 10.524-.269 15.586 3.105v2c-9.11 3.846-18.318 3.309-28 3v2h-3v3l-6 2 1-5 3-1-1-2 1.5-1.188c1.778-1.719 1.778-1.719 1.312-4.124.264-3.78 2.172-5.067 4.876-7.551z"/><path fill="#8bb248" d="M499 648h8c-1.663 3.838-1.663 3.838-3.582 4.762L502 654c-.133 3.092.136 6.069.383 9.152L502 666c-2.508 1.879-2.508 1.879-5 3l1 2-6-1-1-3c-2.015-.733-2.015-.733-4-1v-2h-3c.875-4.75.875-4.75 2-7h5l1-3h2v2l3-1c.798-1.642.798-1.642 1.188-3.562z"/><path fill="#4c6e22" d="m463 716-2 1v2c-2.833 1.542-5.404 2.427-8.562 3.062-2.578.526-4.933 1.103-7.438 1.938l1 2 1.875-.562c4.457-.625 8.68.001 13.125.562v-2l7-1v3c1.203 1.268 2.413 2.531 3.688 3.727 1.657 1.608 2.985 3.387 4.312 5.273-5-2-5-2-7.262-3.058-3.264-1.123-5.903-1.169-9.351-1.137l-1.862.008c-1.946.011-3.892.036-5.837.062l-3.979.027q-4.854.035-9.709.098c1.146-5.408 4.654-7.806 9-11 5.176-2.879 10.113-4.164 16-4"/><path fill="#80a548" d="m447 704 2 4-3 1 1 5-3 1c-1.209 2-1.209 2-2 4l6-2v-3h3v-2l1.573-.06c2.372-.096 4.743-.205 7.115-.315l2.474-.094c4.402-.214 7.774-.704 11.838-2.531 2.098-.266 2.098-.266 4.062-.25l1.973-.016c2.306.312 3.947 1.133 5.965 2.266l-2.281.332a824 824 0 0 0-8.729 1.352 683 683 0 0 1-4.015.625C456.529 715.539 446.97 720.428 436 730v-6l2-1c.162-1.798.162-1.798.125-3.938.509-6.459 4.673-10.477 8.875-15.062"/><path fill="#4b6a23" d="m463 636 6 2q.292 2.154.562 4.312l.317 2.426C470 647 470 647 469 650h3v-5h1v7l2 1v3l4 1v2c-1.437 1.329-1.437 1.329-3.43 2.82l-2.16 1.621-2.285 1.684-2.262 1.707C463.262 671 463.262 671 461 671c1.806-10.626 1.806-10.626 3.062-14.688 1.066-3.763 1.555-7.43 1.938-11.312l2 1-1-6h-2v-2h-2z"/><path fill="#6c9537" d="M437 704c1.125 3.75 1.125 3.75 0 6h2c-.292 5.84-2.988 9.807-7 14h-2l-.188 1.688c-1.191 3.391-3.115 4.944-5.812 7.312h-2l-1-6-3 1 2-4h2l.812-2.312c1.173-2.655 2.145-3.727 4.188-5.688l1.562-2.688L430 711h2l1-3a90 90 0 0 1 4-4"/><path fill="#758e37" d="m390 780 2 1-1 7 1-2h5l-1-5h4c.987 4.343.966 6.124-1 10a102 102 0 0 0-1.125 5.75l-.508 2.984L397 802l-2-1a95 95 0 0 0-5.125-.062l-2.758.027L385 801c1.886-16.974 1.886-16.974 5-21"/><path fill="#4b6925" d="m514 659 6 2-2 1 .562 2.438L519 667c-1 1-1 1-2.629 1.098L511 668l-.41 1.828c-1.1 4.083-1.983 7.355-5.652 9.734-4.459 2.115-9.117 1.787-13.938 1.438l-1-3 1.25-.807c13.042-7.438 13.042-7.438 22.75-18.193"/><path fill="#4d652f" d="m477 747 1 3c-6.559 6.034-15.339 8.082-24.125 8.25C451 758 451 758 448 757v2l-2.449.113-3.239.199-3.199.176c-3.359.552-5.271 1.708-8.113 3.512-2.75-.188-2.75-.188-5-1l-1-2c-1.516-1.122-1.516-1.122-3-2l1.924-.152c2.901-.233 5.801-.478 8.701-.723l3.027-.238c5.08-.438 9.612-.963 14.348-2.887v-1c6.697-1.03 13.231-1.102 20-1v-2h2v-2c3-1 3-1 5-1"/><path fill="#4f6d2a" d="m506 701 1 2 3 1 1 5c-5.717 5.317-10.467 6.376-18.068 6.113-11.749-.719-11.749-.719-15.932-2.113a275 275 0 0 0-4-1l3.332-.516c16.075-2.276 16.075-2.276 29.668-10.484"/><path fill="#506931" d="M468 723c4.167.473 6.929 1.047 10 4v2l3 1c1.338 2.677 1.206 4.824 1.25 7.812l.078 3.145c-.37 3.434-1.246 5.309-3.328 8.043h-2v-2l-4 1 .219-2.773.281-3.602.145-1.828c.624-4.99.624-4.99-1.457-9.297-1.717-1.962-2.947-3.268-5.188-4.5z"/><path fill="#7aa247" d="M447 730c3.062-.058 6.125-.094 9.188-.125l2.619-.051c5.801-.044 9.782.4 14.568 3.926C475 736 475 736 475.125 738.938c-1.473 4.01-3.403 6.002-7.125 8.062-3.166.952-5.938 1.531-9 0l1-2-2-1c2.751-.917 4.359-1.109 7.188-1.062l2.167.027L469 743v-7h-8v-3l-2.047.035-2.703.027-2.672.036c-2.36-.09-4.323-.429-6.578-1.098z"/><path fill="#4f6d2a" d="M483 712v1l8 1v1q-2.592.508-5.188 1l-2.917.562c-2.688.407-5.183.517-7.895.438v3l-7 1v2c-5.464 1.214-5.464 1.214-7.875.25C459 722 459 722 459 719h2v-2h-5l1-2c8.21-2.538 17.434-3.225 26-3"/><path fill="#526b33" d="M499 681c5.88 2.683 10.752 5.066 15 10l1 1a91 91 0 0 1 .062 5.062l-.027 2.786L515 702h-1l-.586-5.371L513 695l-2-1v-3l-2.125.688C506 692 506 692 503.461 690.555c-4.337-2.301-8.902-2.045-13.711-2.117a570 570 0 0 1-5.391-.129l-2.391-.038C480 688 480 688 478 686l4-2v1l7 1v-3h6v2l3-1z"/><path fill="#729737" d="M462 689v2c-1.469 1.445-1.469 1.445-3.5 3.125-5.67 4.824-11.134 9.816-15.5 15.875l-3-1a287 287 0 0 1 2.375-3l1.336-1.688L445 703h2v-2l-4 2c-.66-1.746-.66-1.746-1-4 1.961-3.976 5.032-7.776 8.875-10.062 3.997-1.2 7.094-.787 11.125.062"/><path fill="#45671f" d="M420 680v2h3v10l-.75-1.688c-1.466-2.712-3.28-4.948-5.25-7.312-2.509-.06-3.751-.002-6 1-5.706 5.532-6.845 11.836-7.578 19.375L403 706l-2 1v-2h-2q-.042-4.437-.062-8.875l-.026-2.551-.01-2.441-.016-2.254C399 687 399 687 400 685c1.559-.816 1.559-.816 3.438-1.562 1.897-.765 3.731-1.522 5.562-2.438a93 93 0 0 1 4.5-.562l2.406-.254C418 680 418 680 420 680"/><path fill="#4d6929" d="m429 680 1 2c2.025.652 2.025.652 4 1 .31 5.265-.109 7.502-3 12-1.114 2.965-2.07 5.973-3 9h-4l-1 3c-.263-8.243.394-15.912 2-24l4 2z"/><path fill="#4d602d" d="m394 712 2 1c.647 9.559 1.116 19.105 1.188 28.688l.039 2.497c.008 5.005-.634 9.067-2.227 13.815-.789 2.979-1.412 5.975-2 9h-2v3h-3c-.713-2.123-.713-2.123-1-5 1.418-2.834 1.418-2.834 2.38-4.38 5.969-9.612 5.432-19.02 5.058-29.995q-.054-2.722-.096-5.445A839 839 0 0 0 394 712"/><path fill="#697c51" d="M466.84 631.832c5.877 3.836 5.877 3.836 6.574 7.113l.21 2.18.228 2.195L474 645h-2v5h-3v-12l-7-1v-2h-4v2l-10 2c.915-3.385 1.662-4.761 4.563-6.813 4.484-1.907 9.774-2.391 14.277-.355"/><path fill="#4f682b" d="M411 761c2.891 1.094 5.504 2.161 8 4v-3h6l1 2-1.645.48c-4.994 1.629-6.808 2.789-9.355 7.52-2.562 1.375-2.562 1.375-5 2l-2-1v7h2l-1 6h-3c-1.73-10.007-.424-16.353 5-25"/><path fill="#80a74a" d="M418 683c2.76 2.76 2.949 4.812 3.114 8.657l-.016 2.984-.01 3.242-.026 3.367-.013 3.414q-.018 4.168-.049 8.336l-1-3-2-1 2-5h-2l-1-11-6-1v-3h2v-2h-3c.375-1.938.375-1.938 1-4 2.706-1.353 4.133-.788 7 0"/><path fill="#536420" d="M402 781h2c1.048 4.764 1.342 6.935-1.23 11.246-1.603 3.654-1.544 7.813-1.77 11.754h2v4h-3v6l-2-3-2 1c-.663-10.874 1.878-20.988 6-31"/><path fill="#84ad47" d="m510.938 647 1.062 1-1 1c.41 2.054.41 2.054 1 4h2l-1 5-2-1-1 2h-6l-1 7h-1c-1.721-10.684-1.721-10.684.046-13.91 1.392-1.34 1.392-1.34 3.954-3.09-4.808-.11-9.28.056-14 1 4.197-4.197 13.599-5.756 18.938-3"/><path fill="#8bb24e" d="m508 648 3.438.438 1.933.246C515 649 515 649 516 650c.695 2.808.668 5.187 0 8-2.841 4.163-6.452 8.627-11 11-3.188.125-3.188.125-6 0l-1 2-2-2c3.625-3 3.625-3 7-3l1-7h6l1-3 1 1 2-4h-2c-1-1.375-1-1.375-2-3z"/><path fill="#4a6725" d="M396 713h3q.255 4.968.5 9.938l.145 2.806c.404 8.244.709 16.371-.395 24.568l-.188 1.799c-.562 4.203-1.809 6.211-5.062 8.889 0-3 0-3 .988-6.125 1.279-4.309 1.265-8.406 1.207-12.871l-.008-2.526c-.011-2.639-.036-5.277-.062-7.916q-.015-2.697-.027-5.396-.035-6.583-.098-13.166"/><path fill="#766227" d="M394 820h5c.843 5.059 1.213 9.874 1 15l-.051 1.816c-.385 4.923-2.504 8.653-5.949 12.184h-2l1-3h2l1-7h-2z"/><path fill="#4a6a21" d="M516.168 645.281c1.591.624 3.21 1.178 4.832 1.72v11l-4 1c-1.48-1.48-1.108-2.817-1.187-4.876-.411-3.368-.494-3.864-3.25-6.125-4.319-1.658-9.02-1.243-13.563-1v-2h-5v-1c8.462-2.024 14.064-1.916 22.168 1.281"/><path fill="#486a1d" d="M458 635c2.605-.269 3.65-.275 5.75 1.375C465 638 465 638 465 640h2c1.82 4.497 2.157 7.141 1 12h-1l-.367-1.898-.508-2.477-.492-2.461c-.5-2.351-.5-2.351-2.633-4.164-3.083-.167-3.083-.167-6 0v2a151 151 0 0 1-3.621 2.848c-2.153 1.798-3.7 3.913-5.379 6.152-.076-2.674 0-5 .562-7.625.661-2.511.661-2.511-.562-5.375l10-2z"/><path fill="#476723" d="m487 645 1 2h3v-2h8v2l-1.941.953c-4.085 2.021-8.133 4.044-12.059 6.359-3 1.688-3 1.688-5 1.688v-2l-4-1c.438-2.312.438-2.312 2-5 2.908-1.361 5.893-2.214 9-3"/><path fill="#4d652f" d="m415.25 674.875 3.266.055L421 675l2 4h-2v2l2 1h-3v-2l-2 1c-1.435.152-2.873.273-4.312.375-3.983.383-6.291 1.49-9.688 3.625-2.137-.414-2.137-.414-4-1a238 238 0 0 1 2.25-3.375l1.266-1.898c3.373-3.924 6.752-3.96 11.734-3.852"/><path fill="#a1b08c" d="m447 637 2 1-2.125 2.375c-5.989 7.268-9.714 14.219-10.875 23.625l5 2 1-3 1 2-1 3h-6v3h-2v3h-3l-1 3c-1.377-11.842 4.87-23.826 11.562-33.25l1.817-2.578C445 639 445 639 447 637"/><path fill="#6d943b" d="m407 753 1 2 5-1v4l4 1-2.73.973c-4.42 2.214-5.725 6.1-7.582 10.465-.347.763-.693 1.527-1.049 2.314-1.515 3.392-2.814 6.618-3.639 10.248h-2l.062-2.812c.096-3.211.096-3.211-1.062-6.188h3l1-5h2v-3h2v-8l-2-1z"/><path fill="#456422" d="m448 643 2 4h-2l.219 2.57c-.269 4.212-1.622 6.726-3.719 10.305l-1.012 1.797A387 387 0 0 1 441 666l-5-1c-1.033-2.788-1.045-3.868-.062-6.75L437 656h4v-2h2l.84-1.898 1.098-2.477 1.089-2.461q.944-2.102 1.973-4.164"/><path fill="#b2bea2" d="m521 664 1 3a471 471 0 0 1-3.25 3.375l-1.828 1.898c-1.901 1.708-3.623 2.655-5.922 3.727l-1.5 1.5c-1.685 1.685-3.338 2.531-5.5 3.5l3 1v2l2.312.75c2.924 1.36 3.988 2.566 5.688 5.25l-1 2-1.938-2.188c-3.464-3.504-7.713-5.586-12.062-7.812 3.567-3.822 3.567-3.822 6.125-4.875 2.848-1.709 3.035-4.023 3.875-7.125l1-2c1.758-.228 3.516-.453 5.277-.648 2.297-.469 3.349-1.493 4.723-3.352"/><path fill="#47651f" d="M399 753h2c-.598 3.628-1.594 6.576-3.215 9.871l-1.33 2.74-1.393 2.827c-4.014 8.086-4.014 8.086-7.062 16.562h-1v-17l1 2h3v-3h2l.25-3.25c.514-3.749 1.889-5.247 4.75-7.75z"/><path fill="#4d6f1f" d="m488.25 687.25 3.145.082c5.709.226 9.711.698 14.605 3.668 2.252.254 2.252.254 4 0v4h-2l-1 4-.625-2.312c-1.741-3.404-3.863-4.515-7.375-5.688-2.6-.36-5.13-.333-7.75-.25l-2.117.033c-5.407.115-10.772.495-16.133 1.217 3.113-6.892 8.501-5.023 15.25-4.75"/><path fill="#afb99d" d="M478 727c4.721 2.421 4.721 2.421 5.812 4.688.482 5.934.419 10.733-1.812 16.312h-2l-.562 1.688c-2.972 4.78-6.734 6.999-12.176 8.296-6.833 1.416-13.276 2.164-20.262 2.016l1-3 1.73.105c9.361.313 19.265-.811 26.903-6.628 3.669-3.963 4.782-7.234 4.742-12.602l.023-3.133c-.448-3.086-1.095-3.78-3.398-5.742z"/><path fill="#729837" d="M468 680v3l3 1c-7.354 5.873-7.354 5.873-11.273 6.176-1.956-.28-3.812-.699-5.727-1.176h-3l1.496-1.242 1.942-1.633 1.933-1.617c1.737-1.43 1.737-1.43 2.629-3.508 3.196-1.065 5.657-1.074 9-1"/><path fill="#45661f" d="M399 713h2c1.14 13.665 1.107 27.295 1 41l-3-1-1 3 .092-1.686A653 653 0 0 0 399 713"/><path fill="#89b04f" d="m491.125 689.75 2.129-.023c6.887.026 6.887.026 9.746 2.273l1 4-10-1v-2h-14v2l-7-1c6.034-3.249 11.37-4.325 18.125-4.25"/><path fill="#55662e" d="M404 775c1.964 2.451 2.227 4.077 2.125 7.188l-.055 2.167L406 786h2c-.66 6.86-2.236 13.344-4 20l-1-2h-2c-.518-9.71-.518-9.71 1.5-13.188 1.923-3.604 1.742-5.785 1.5-9.812h-2z"/><path fill="#4d6e21" d="M435 678h2c.219 5.479.025 9.824-2 15l-.688 3.312c-1.376 4.962-4.787 9.03-8.312 12.688l-3 1 1-6h4l.332-1.793c.948-4.727 2.162-8.067 4.668-12.207.523-2.344.765-4.602 1-7h2z"/><path fill="#ccd6be" d="M423.746 675.191c1.38 1.371 1.38 1.371 3.254 3.81l2-6h1c.125 6.624.125 6.624-1 10-3.328-1.11-3.307-1.293-4.938-4.064-1.912-2.452-2.778-2.895-5.914-3.367-6.709-.127-6.709-.127-13.148 1.43-1.154 1.747-1.154 1.747-2 4l-1.438 2.7c-3.128 5.981-5.575 11.558-6.562 18.3h-1c-.93-8.008 2.56-17.174 7.312-23.625 5.481-5.634 15.678-7.794 22.434-3.184"/><path fill="#6b9036" d="M399 765v2l5-1-1 4-1.812-.688c-2.227-.557-2.227-.557-4 .813L396 772l.625 2.188c.524 3.926-1.113 5.682-3.301 8.847-1.298 1.927-2.329 3.868-3.324 5.965v-8l-1-2a87 87 0 0 1 2.812-6.562l.831-1.827C395.269 765 395.269 765 399 765"/><path fill="#476422" d="m435 666 5 1c-.407 4.41-.77 8.098-3 12a69 69 0 0 0-1 4l-6-1 1-8h3z"/><path fill="#4f6633" d="m504.875 638.625 2.145-.113c3.85-.065 6.14.155 8.988 2.886C518 644 518 644 518 646l-8-1v-2l-2.379.035c-5.658.049-11.05-.022-16.621-1.035 4.46-3.185 8.594-3.27 13.875-3.375"/><path fill="#4e7024" d="M473 742c1 2 1 2 .062 5.125L472 750h-2v2c-9.363.993-18.596 1.107-28 1v-1l2.238-.367q3.198-.529 6.391-1.078c2.106-.347 4.218-.66 6.336-.922 6.778-.932 10.975-3.023 16.035-7.633"/><path fill="#abb695" d="M418 766h3v2l-1.875 1.75c-2.49 2.637-3.054 4.821-4.125 8.25l-1.453 1.797c-1.925 2.741-2.491 5.198-3.235 8.453l-.761 3.266L409 794h-2q.465-2.657.938-5.312l.527-2.989C409 783 409 783 410 780h-2v-7l7-1 .938-2.438C417 767 417 767 418 766"/><path fill="#709735" d="M477 673c.668 1.797.668 1.797 1 4-1.074 1.703-1.074 1.703-2.688 3.25l-1.574 1.578c-2.081 1.403-3.278 1.408-5.738 1.172v-3l-5 1c1.388-3.341 2.816-4.902 5.875-6.812l2.055-1.333c2.478-1.023 3.595-.76 6.07.145"/><path fill="#838934" d="M385 815h8q.04 2.375.062 4.75l.036 2.672c-.09 2.36-.429 4.323-1.098 6.578l-5 1v-10h-2z"/><path fill="#4b6d21" d="m442.75 752.688 2.094-.016c4.897.07 4.897.07 7.156 2.327-7.715 1.858-15.209 2.405-23.125 2.626l-3.477.117q-4.198.141-8.398.258c6.988-4.991 17.406-5.28 25.75-5.312"/><path fill="#6c9235" d="m399 768 4 2-1 5-2-1 .562 2.375C401 779 401 779 400 781h-4l1 5h-5l-1 2c.789-3.762 2.377-6.679 4.258-10 .905-2.439.387-3.543-.258-6 1.938-2.25 1.938-2.25 4-4"/><path fill="#7d8c35" d="M395 800c1.417 4.251.193 6.719-1 11l-8-1-1-9z"/><path fill="#526738" d="M516 641c2.955 1.161 5.308 2.687 7.238 5.25 1.945 4.467 1.6 10.24.078 14.797-.816 1.641-.816 1.641-2.316 3.953h-3l.188-1.812c.017-2.293.017-2.293-1.688-3.938L515 658h6v-11h-3z"/><path fill="#d0ceb5" d="M406 794h1c-.702 6.686-1.56 13.343-2.5 20l-.395 2.887-.386 2.738-.346 2.477C403 824 403 824 402 825a61 61 0 0 0-.395 3.824l-.209 2.369a407 407 0 0 0-.382 4.93c-.497 5.378-1.419 8.764-5.014 12.877h-3l1.039-1.12c4.522-5.47 4.963-10.657 5.523-17.568.829-8.325 1.867-16.491 3.563-24.687l.518-2.518c.658-3.115 1.349-6.082 2.357-9.107"/><path fill="#626427" d="m395 808 2 3 1.312-1.5C400 808 400 808 403 808c-.591 6.434-1.642 12.684-3 19h-1v-7h-5z"/><path fill="#678b38" d="M402 729h1q.255 5.465.482 10.931.08 1.852.166 3.704c.368 7.869.314 15.524-.648 23.365h-4v-2l-3 1c.962-3.108 1.771-5.641 3.531-8.406 2.562-5.037 2.048-10.952 2.157-16.469q.05-1.765.103-3.531.123-4.297.209-8.594"/><path fill="#888632" d="M385 820h2l1 9 2-2v2h2c.109 1.582.186 3.166.25 4.75l.141 2.672c-.505 3.328-1.867 4.451-4.391 6.578-1.843-7.713-3.571-15.006-3-23"/><path fill="#7da447" d="m409 685 1 2h3v2h-2l-.438 2.75c-.426 2.465-.913 4.838-1.562 7.25h-2l.625 2.875L408 705l-2 2a89 89 0 0 0-2 4c-1.345-3.363-.63-5.519.465-8.867.872-3.476.937-7.011 1.094-10.582.505-2.922 1.505-4.346 3.441-6.551"/><path fill="#7e6a21" d="M393 816h1v23h2c-.352 4.756-.352 4.756-1 7-2.062 1.438-2.062 1.438-4 2-1.062-1.25-1.062-1.25-2-3 .346-2.284.967-3.934 2-6 .221-1.737.391-3.481.535-5.227l.264-3.125.263-3.273.276-3.297q.336-4.038.662-8.078"/><path fill="#7da541" d="m413 691 1 2h3c1.203 2.405 1.101 3.95 1.062 6.625l-.027 2.477L418 704l2 1-4 1-1-5-3 2c-2.325-2.325-2.295-2.847-2.312-6l-.051-2.125C410 693 410 693 411.52 691.75z"/><path fill="#c8d1b9" d="M394 702c1.157 2.315 1.163 3.74 1.225 6.319l.068 2.714q.108 6.215.167 12.429.039 3.256.123 6.511c.339 13.317.104 23.804-7.583 35.027-1-3-1-3-.039-5.164q1.402-2.44 2.812-4.875c2.786-6.725 2.362-14.378 2.289-21.555l-.011-2.644q-.02-4.131-.051-8.262-.04-5.484-.062-10.969l-.026-2.55-.01-2.338-.016-2.065C393 703 393 703 394 702"/><path fill="#516938" d="m447 639 1 2 2 1-1.875 2.562c-2.255 3.352-3.186 6.527-4.125 10.438l-3-1v2h-4c1.502-6.342 5.397-12.397 10-17"/><path fill="#496326" d="m510 691 2 3 2-1c.081 1.749.139 3.5.188 5.25l.105 2.953c-.332 3.172-1.18 4.467-3.293 6.797l-2-1 1-3-4-1 2-8h2z"/><path fill="#d5ddc7" d="M515 693h1c.421 7.883.082 12.332-5.098 18.496-3.218 3.161-6.88 4.109-11.152 5.254q-2.165.613-4.328 1.234l-1.919.523c-1.541.38-1.541.38-2.503 1.493-2.016.234-4.038.413-6.062.562l-3.348.254L479 721c2.188-2.188 2.824-2.344 5.746-2.859l2.273-.433 2.419-.458c8.508-1.767 18.08-3.794 23.187-11.562 1.856-4.019 2.177-8.311 2.375-12.688"/><path fill="#8aaf4f" d="m499 648-1 7-4 1v-2l-1.125 1.5c-2.623 2.098-4.599 1.639-7.875 1.5l-2 1c.125-1.75.125-1.75 1-4 4.212-3.493 9.378-6 15-6"/><path fill="#506531" d="M397 691h2l-1 23-4-2c-.259-6.858-.125-14.751 3-21"/><path fill="#b1bea2" d="m497 639-3 2 7 2v1l-10 1v2l-1.703-.559c-2.68-.515-4.412-.162-7.047.497l-2.422.589L478 648v-2a432 432 0 0 1 3.812-2l2.145-1.125C486 642 486 642 489 642v-2c2.928-.976 4.956-1.082 8-1"/><path fill="#637446" d="M499 715c-3.89 2.29-8.086 3.122-12.438 4.125l-2.275.551c-3.834.897-7.319 1.561-11.287 1.324l2-1v-3a688 688 0 0 1 7.5-1.562l2.109-.459c5.04-1.004 9.343-.916 14.391.021"/><path fill="#4b6a21" d="M493 680c2 .038 4.001.046 6 0l-1 5h-3v-2h-6v3h-8c1.194-3.581 2.314-4.348 5.391-6.281 2.452-1.095 4.091-.474 6.609.281"/><path fill="#b1bea2" d="M497 638c2.896-.088 5.791-.141 8.688-.188l2.474-.076c4.804-.058 7.944.134 11.838 3.264 1.547 1.535 1.547 1.535 2.75 3.062l1.234 1.536c2.931 4.047 2.341 8.593 2.016 13.402-1 3.125-1 3.125-2 5h-2l.477-2.16c.94-5.103 1.88-10.992-.418-15.817-2.932-3.73-6.168-5.644-10.961-6.272a178 178 0 0 0-6.41-.376l-2.245-.117A759 759 0 0 0 497 639z"/><path fill="#739937" d="M443 696v3l1 3 3-1v2h-2l-2 4h-2l.688 1.812L442 711c-1.438 1.75-1.438 1.75-3 3v-4h-2c0-8 0-8 1.312-9.605l1.688-1.583 1.688-1.605z"/><path fill="#4c6a29" d="M459 720v2l3 1-1 3h-17c3.696-4.821 9.109-6 15-6"/><path fill="#54702e" d="M423 678q1.508 1.178 3 2.375l1.688 1.336L429 683v2l-3-1c-3.798 7.595-2.092 18.703-2 27h-2l-.184-3.219c-.609-10.418-.609-10.418-1.816-20.781l2 1-1-4h2v-3h-2v-2z"/><path fill="#b9c3a9" d="M447 759v3l-26 4 1-2c2.066-.633 2.066-.633 4.562-1.125l2.504-.508L431 762l-1-2c5.658-1.223 11.231-1.092 17-1"/><path fill="#7ca246" d="m430 703 1 2-2 3 1 1 1-2a78 78 0 0 1 5-2c-1.044 3.132-1.389 3.532-3.875 5.375-2.8 2.214-4.477 4.42-6.125 7.625-3-1-3-1-3.934-2.734-.098-3.358 1.764-5.119 3.872-7.516l1.169-1.391A280 280 0 0 1 430 703"/><path fill="#4b6826" d="M398 688c2 2 2 2 2.23 3.953-.083 4.458-.333 8.676-1.23 13.047h2c1.252 2.505 1.114 4.209 1.098 7.008l-.01 2.988-.026 3.129-.013 3.152q-.018 3.862-.049 7.723h-1v-16h-3z"/><path fill="#486420" d="M432 757v1l-6 1v2l2 2-9-1v3l-6-2v-3c6.376-3.069 11.993-3.348 19-3"/><path fill="#7e8733" d="M395 803h1l-1 13-10-1v-10h1v5h7z"/>
  </g>
  <g class="crop-part crop-part--leaves" data-group-id="leaves-1782198799590-sev340" data-layer-index="2">
    <path fill="#868632" d="M369 817c8.299-.215 15.928.015 24 2 .006 3.189-.054 6.374-.125 9.562l.008 2.713c-.17 5.793-1.117 9.313-5.261 13.485-3.087 2.36-5.58 2.007-9.278 1.74-3.306-.705-5.118-1.986-7.344-4.5-.973-2.92-1.193-5.054-1.316-8.105l-.127-2.979-.119-3.104-.131-3.138q-.16-3.837-.307-7.674"/><path fill="#7e641e" d="M369 824h1l.113 3.105.199 4.083.069 2.041c.234 4.371.954 7.277 3.619 10.771 2.569 1.284 4.766 1.33 7.625 1.562l3.039.254L387 846v2l4 1c-1.02 1.52-1.02 1.52-3 3a59 59 0 0 1-7.688-.312l-2.126-.186c-1.73-.153-3.458-.326-5.186-.502v-3h-3l-.812-2.938L368 842l-3-1v-14h2v2h2z"/><path fill="#918155" d="M359 816h6l-1 2h-2q.213 4.313.438 8.625l.119 2.449c.231 4.378.612 8.611 1.443 12.926l3-2c1.5 1.188 1.5 1.188 3 3 .188 2.688.188 2.688 0 5h3v3h13l1 2q-2.843.079-5.688.125l-3.199.07c-5.616-.352-10.183-2.782-14.379-6.449-3.659-5.793-3.316-13.303-3.564-19.999.014-1.775.014-1.775-1.17-2.747-.141-2.671-.042-5.324 0-8"/><path fill="#615f1f" d="m365 816 4 1v12h-2v-2h-2l.527 2.137c.506 3.064.37 5.595.035 8.675l-.308 2.958L365 843l-2-1c-1.231-5.02-1.217-10.11-1.25-15.25l-.062-2.469c-.016-2.359-.016-2.359.312-6.281z"/><path fill="#806a26" d="M393 819h1v20h2c.719 7.066.719 7.066-1.266 9.645C390.75 852 390.75 852 388 852l1-3-3-3 2.418-2.848c3.293-4.609 3.564-9.058 3.894-14.59l.221-2.794q.263-3.382.467-6.768"/><path fill="#776224" d="M394 820h5c-.138 3.792-.287 7.583-.438 11.375l-.119 3.273-.127 3.125-.111 2.889C398 843 398 843 397 845h-2l1-6h-2c-.695-6.512-1.319-12.551 0-19"/><path fill="#e4dcc4" d="m399 841 1 2c-3.634 5.71-6.44 9.847-13 12-6.678.644-13.369 1.082-19-3-2.875-2.688-2.875-2.688-5-5l1-3 1.391 1.496 1.859 1.942 1.828 1.933c4.797 4.065 11.993 3.043 17.922 2.629 5.975-1.77 8.663-6.019 12-11"/><path fill="#93885d" d="M399 821h4l-.473 1.594c-.887 4.05-.925 8.18-1.148 12.312-.353 2.881-.893 4.639-2.379 7.094h-2q.212-4.125.438-8.25l.119-2.355.127-2.286.111-2.094c.212-2.081.65-4.001 1.205-6.015"/><path fill="#848732" d="M369 817c8.597-.226 16.558.07 25 2q-.213 3.594-.438 7.188l-.119 2.041c-.232 3.671-.612 7.174-1.443 10.771h-4v2h-4v-2h-4v2c-2.731 1.011-3.86 1.046-6.688.125C371 840 371 840 370 839a88 88 0 0 1-.316-4.91l-.127-2.998-.119-3.154A2532 2532 0 0 1 369 817"/><path fill="#80651e" d="M369 824h1l.113 3.105.199 4.083.069 2.041c.233 4.342.912 7.198 3.619 10.771 1.725.955 1.725.955 4 1l1.859.258c4.199.371 4.199.371 7.77-1.598A42 42 0 0 0 391 839l1 2h2v2h-2l.812 1.688C393 847 393 847 391 849.656c-2.247 2.137-3.675 2.677-6.77 2.614q-2.026-.19-4.042-.458l-2.1-.212A223 223 0 0 1 373 851v-3h-2v-2l-2-1v-4l-4-2c-.264-4.748-.264-4.748 0-7 1.438-1.062 1.438-1.062 3-2 .733-3.066.733-3.066 1-6"/><path fill="#796426" d="M393 820h6a809 809 0 0 1-.25 11.125l-.043 3.172c-.195 6.175-.578 10.002-4.707 14.703-3.4 3-3.4 3-6 3 1-3 1-3 2.562-3.938L392 847c.25-2.084.25-2.084 0-4h2v-2h-2z"/><path fill="#615f1e" d="m363 816 6 1v16l-2-2c-1.74 1.74-1.372 4.194-1.562 6.562l-.254 3.067L365 843l-2-1c-1.25-5.033-1.15-10.09-1.125-15.25l-.012-2.469.004-2.359.004-2.138C362 818 362 818 363 816"/><path fill="#928155" d="M359 816h4l-.016 1.741q-.03 3.942-.046 7.884l-.026 2.738c-.017 4.677.122 9.056 1.088 13.637l2-3c3.254 2.834 4.521 4.686 5 9h2v3h13l1 2q-2.843.079-5.688.125l-3.199.07c-5.616-.352-10.183-2.782-14.379-6.449-3.659-5.793-3.316-13.303-3.564-19.999.014-1.775.014-1.775-1.17-2.747a59 59 0 0 1-.062-4.062l.027-2.223z"/><path fill="#8a7f33" d="M380 839h4v2h4v-2h3c-2.344 5.23-2.344 5.23-5 7-4.572.646-8.964.374-13-2l-2-4 9 1z"/><path fill="#e4dcc4" d="m399 841 1 2c-3.557 5.589-6.465 9.856-13 12-6.775.653-13.337 1.106-19-3-1.779-1.598-3.378-3.234-5-5l1-3 1.391 1.496 1.859 1.942 1.828 1.933c4.797 4.065 11.993 3.043 17.922 2.629 5.882-1.205 8.857-6.307 12-11"/><path fill="#92885d" d="M399 821h4l-.473 1.594c-.887 4.05-.925 8.18-1.148 12.312-.353 2.881-.893 4.639-2.379 7.094h-2c.139-2.75.288-5.5.438-8.25l.119-2.355.127-2.286.111-2.094c.212-2.081.65-4.001 1.205-6.015"/>
  </g>
</svg>