<svg xmlns="http://www.w3.org/2000/svg" viewBox="0 0 768 1024"><path fill="#6c9338" d="M465 631c4.35 2.22 7.44 4.83 10 9 .6 2.7.81 5.22 1 8h2v-2c1.27-.67 2.54-1.34 3.81-2l2.15-1.12C486 642 486 642 489 642v-2c5.85-1.68 11.11-2.34 17.19-2.31 1.17-.03 1.17-.03 2.36-.05 5.53-.01 8.95.88 13 4.9 4.54 5.76 4.94 9.23 4.45 16.46-1 3.12-1 3.12-2 5h-2c-.13.88-.13.88-.27 1.78-.93 2.82-2.21 3.84-4.48 5.72-1.08.9-1.08.9-2.19 1.82-.68.56-1.36 1.11-2.06 1.68-.91.76-1.81 1.53-2.75 2.31-2.03 1.52-3.94 2.66-6.25 3.69l3 1v2q1.14.375 2.31.75c2.98 1.38 4.01 2.48 5.69 5.25 1.8 5.41 1.73 10.96-.19 16.31-4.17 6.19-8.07 8.57-15.06 10.44-4.75.98-4.75.98-8.75 3.25-7.64.93-15.32 1.16-23 1v2l2.44.12c4.85 1.2 8.84 3.54 12.56 6.88 2.27 5.92 1.29 12.28-1 18h-2c-.19.56-.37 1.11-.56 1.69-2.67 4.28-6.37 6.73-11.15 8.07-3.05.58-6.09 1.06-9.17 1.49-2.08.31-4.16.63-6.24.95-1.37.2-1.37.2-2.77.4-2.09.19-2.09.19-3.11 1.4-1.92.37-3.85.68-5.79.97-1.75.27-1.75.27-3.54.54-1.23.18-2.46.36-3.73.55-1.24.19-2.47.38-3.75.57-3.06.46-6.13.92-9.19 1.37v2c-.62.58-1.24 1.15-1.88 1.75-2.49 2.64-3.05 4.82-4.12 8.25-.72.89-.72.89-1.45 1.8-1.93 2.74-2.49 5.19-3.24 8.45-.37 1.62-.37 1.62-.76 3.27-.27 1.23-.27 1.23-.55 2.48h-2c-.13 1.26-.27 2.52-.41 3.81-.6 5.41-1.33 10.8-2.09 16.19-.2 1.43-.2 1.43-.39 2.89-.13.9-.26 1.8-.39 2.73-.17 1.23-.17 1.23-.35 2.48C403 824 403 824 402 825c-.38 3.71-.72 7.41-.99 11.12-.66 7.21-3.43 12.14-9.01 16.88-6.59 3.23-14.63 3.14-21.5.81-5.73-4.15-8.05-7.01-9.17-13.97-.48-4.15-.82-8.3-1.08-12.47.01-2.32.01-2.32-1.25-3.37-.23-1.32-.4-2.65-.54-3.99-1.54-12.82-4.19-24.82-8.46-37.01-.3-.98-.3-.98-.61-1.98-1.44-4.14-3.34-6.29-7.28-8.23-4.08-1.52-8.27-2.29-12.55-3.04-1.38-.26-1.38-.26-2.79-.52-2.26-.42-4.51-.83-6.77-1.23v-2c-.64-.04-1.29-.07-1.95-.11-7.56-.55-14.71-2.03-22.05-3.89v-2c-1.33-.34-1.33-.34-2.69-.69-4.81-1.9-7.43-4.43-9.62-9.12-1.31-6.06-1.29-11.46 1.31-17.19 2.84-3.65 5.59-4.8 10-6-.87-.07-.87-.07-1.76-.15-.78-.07-1.56-.15-2.36-.23-.77-.06-1.54-.13-2.33-.21-2.99-.48-5.67-1.44-8.55-2.41q-2.88-.66-5.76-1.29c-8.61-1.92-16.56-4.3-21.8-11.96-2.13-4.41-2.1-8.98-1.44-13.75 1.31-3.56 1.31-3.56 3-6 1.49-.5 1.49-.5 3-1v-2l7-3c-.81-.6-1.62-1.21-2.45-1.83-1.08-.81-2.16-1.61-3.24-2.42-1.05-.79-2.11-1.58-3.2-2.39-1.02-.78-2.05-1.56-3.11-2.36-.9-.67-1.79-1.35-2.72-2.04-4.32-3.71-6.91-8.18-7.66-13.85-.09-4.62.02-8.05 2.38-12.11h2q.375-.915.75-1.86c2.25-3.85 6.12-4.92 10.25-6.14 5.74-.71 10.63-.19 16 2 1.96.71 3.92 1.42 5.88 2.12 1.7.63 3.41 1.25 5.12 1.88v2c.93.29 1.86.58 2.81.88C290 650 290 650 293 652v-5h2c.08-.74.17-1.49.25-2.25.9-3.3 2.17-4.56 4.75-6.75 4.95-2.48 12.18-1.55 17.31 0 5.63 4.19 10.12 9 11.69 16h2c.51 1.43.51 1.43 1.02 2.89.45 1.26.9 2.53 1.36 3.8.44 1.24.88 2.48 1.33 3.76.74 2.05 1.52 4.08 2.38 6.08 1.13 3.07 1.58 6.05 2.03 9.28.17 1.16.34 2.33.51 3.52.12.88.25 1.76.37 2.67h2l.75-1.88c1.52-2.57 2.5-3.03 5.25-4.12 5.05-.56 10.62-.8 15 2 8.76 8.09 11.29 18.42 12 30 .36 9.75.25 19.51-.37 29.24-.06 1.02-.12 2.04-.19 3.08-.12 1.93-.27 3.86-.44 5.79-.45 6.87 1.06 11.72 4 17.89.59 1.37 1.17 2.75 1.75 4.12L381 775l2-6h2c.1-.71.21-1.41.31-2.14 1.02-4.24 3.21-7.74 5.31-11.53 2.82-6.81 2.51-14.27 2.41-21.54-.02-1.74-.03-3.47-.04-5.21-.02-2.7-.05-5.39-.09-8.08-.18-15.86.39-28.62 8.91-42.44 3.76-3.54 7.61-4.93 12.76-5.19 4.31.22 7.41.57 10.55 3.69.62.81 1.24 1.61 1.88 2.44 1.23-3.41 2.18-6.76 2.88-10.31 1.04-4.91 2.94-9.19 5.12-13.69.43-.97.87-1.94 1.31-2.94 6.28-11.39 14.31-23.09 28.69-21.06"/><path fill="#86af49" d="M317.313 638c5.63 4.19 10.11 9 11.69 16h2c.5 1.43.5 1.43 1.02 2.89.45 1.26.9 2.53 1.35 3.8.44 1.24.88 2.48 1.34 3.76.74 2.05 1.52 4.08 2.38 6.08 1.13 3.07 1.57 6.05 2.03 9.28.17 1.16.34 2.33.51 3.52.12.88.24 1.76.37 2.67h2l.75-1.88c1.51-2.57 2.5-3.03 5.25-4.12 5.05-.56 10.62-.8 15 2 8.75 8.09 11.29 18.42 12 30 .36 9.75.25 19.51-.37 29.24-.07 1.02-.13 2.04-.19 3.08-.12 1.93-.27 3.86-.44 5.79-.56 8.64 2.43 14.83 6.25 22.39 1.75 3.5 1.75 3.5 1.75 5.5h-2c-1.15-2.25-2.3-4.5-3.44-6.75-.33-.63-.65-1.27-.99-1.92-4.84-9.6-4.1-19.62-3.07-30.14 1.21-13.23.83-25.3-2.5-38.19-.35-1.66-.68-3.33-1-5h-2c-2-2.32-3.8-4.73-5.63-7.19-1.39-1.92-1.39-1.92-3.37-3.81-.99.5-.99.5-2 1v-2h-6c-.5.99-.5.99-1 2h-3v7l-4 1-1-2c-.93.28-.93.28-1.88.56-2.12.44-2.12.44-4.12-.56v-4c-.99.5-.99.5-2 1l1 3c-.01 1.4-.05 2.79-.13 4.19-.08 4.9 1.27 8.31 3.13 12.81v3h2c.64.8 1.28 1.61 1.93 2.44 1.88 2.8 1.88 2.8 5.07 3.56-.03-1.12-.05-2.25-.07-3.4-.29-19.8-.29-19.8 3.49-24.29 1.58-1.31 1.58-1.31 3.95-1.87 3.23.69 4.55 2.12 6.5 4.73 5.32 8.64 6.5 19.08 6.44 29.02v2.83c-.14 10.45-1.62 20.69-3.31 30.98-1.49-.5-1.49-.5-3-1-1.97-3.93-3.34-7.66-4-12h-2v-2c-1.49-.5-1.49-.5-3-1-1.04-1.98-2.03-3.98-3-6q-1.47-1.53-3-3c-3-4.44-3-4.44-3-8-1.49-.5-1.49-.5-3-1-4-5.37-4-5.37-4-8h-2c-5-5.48-5-5.48-5-8-1.49-.5-1.49-.5-3-1-1.35-1.65-2.68-3.32-4-5-.75-.56-1.49-1.11-2.25-1.69-.58-.43-1.16-.86-1.75-1.31v-2l-1.67-.7c-2.98-1.66-5.17-3.77-7.64-6.11-7.42-7.19-7.42-7.19-16.69-11.19-.38 2.81-.38 2.81 0 6 1.87 2.42 1.87 2.42 4.5 4.44.91.76 1.82 1.53 2.76 2.32.91.74 1.81 1.48 2.74 2.24 1.42 1.24 2.84 2.49 4.25 3.75 2.36 2.08 4.77 4.06 7.25 6 .82.74 1.65 1.49 2.5 2.25v3h2c3.88 3.52 7 7.45 10.12 11.62 3.12 4.23 3.12 4.23 6.64 8.11 1.81 1.85 1.9 3.77 2.24 6.27h2c.47.95.94 1.91 1.42 2.89.63 1.26 1.26 2.53 1.89 3.8.46.94.46.94.94 1.89 1.77 3.58 3.66 7.02 5.75 10.42 1.07 1.87 2.14 3.74 3.19 5.62.52.95 1.05 1.89 1.6 2.86 1.21 2.52 1.21 2.52 1.21 5.52-.54-.16-1.07-.33-1.62-.5-2.89-.61-5.55-.56-8.51-.5-5.65.11-5.65.11-7.87-1v5c.98-.01 1.97-.02 2.99-.04l3.88-.02c1.28-.01 2.55-.03 3.87-.04 3.26.1 3.26.1 5.26 1.1v4h2v7h-2c.23.68.45 1.35.69 2.05.43 1.33.43 1.33.87 2.7.44 1.32.44 1.32.88 2.67.57 2.66.45 4.05-.44 6.58-.42-1.09-.83-2.19-1.25-3.31-.28-.73-.56-1.45-.85-2.19-.64-1.76-1.21-3.55-1.75-5.34-.3-.96-.59-1.92-.9-2.91-.4-1.35-.4-1.35-.8-2.73-2.49-4.32-6.27-5.91-10.9-7.2-2.65-.59-5.31-1.1-7.99-1.57-1.38-.26-1.38-.26-2.79-.52-2.26-.42-4.51-.83-6.77-1.23v-2c-.65-.04-1.29-.07-1.95-.11-7.57-.55-14.71-2.03-22.05-3.89v-2c-.89-.23-1.78-.45-2.69-.69-4.81-1.9-7.44-4.43-9.62-9.12-1.31-6.06-1.3-11.46 1.31-17.19 2.83-3.65 5.58-4.8 10-6-.87-.07-.87-.07-1.76-.15-.78-.07-1.56-.15-2.37-.23-.76-.06-1.53-.13-2.32-.21-2.99-.48-5.68-1.44-8.55-2.41q-2.88-.66-5.76-1.29c-8.62-1.92-16.56-4.3-21.81-11.96-2.12-4.41-2.09-8.98-1.43-13.75 1.31-3.56 1.31-3.56 3-6 1.48-.5 1.48-.5 3-1v-2l7-3c-.81-.6-1.62-1.21-2.45-1.83-1.08-.81-2.16-1.61-3.24-2.42-1.06-.79-2.11-1.58-3.2-2.39-1.03-.78-2.05-1.56-3.11-2.36-.9-.67-1.8-1.35-2.72-2.04-4.32-3.71-6.91-8.18-7.67-13.85-.08-4.62.03-8.05 2.39-12.11h2c.25-.61.49-1.23.75-1.86 2.24-3.85 6.11-4.92 10.25-6.14 5.74-.71 10.63-.19 16 2 1.95.71 3.91 1.42 5.87 2.12 1.71.63 3.42 1.25 5.13 1.88v2c.93.29 1.85.58 2.81.88 3.19 1.12 3.19 1.12 6.19 3.12v-5h2c.08-.74.16-1.49.25-2.25.9-3.3 2.17-4.56 4.75-6.75 4.95-2.48 12.17-1.55 17.31 0"/><path fill="#87af4a" d="M464 641c2.33 2.33 2.34 2.82 2.44 6-.11 8.23-3.06 16.19-5.44 24 2.23-1.58 4.46-3.17 6.69-4.75.62-.44 1.25-.89 1.89-1.34 2.83-2.01 5.57-4.03 8.25-6.24C480 657 480 657 482 657v-2c8.22-5.81 16.72-10.12 27-9 2.53 1.14 4.66 2.47 7 4 .59 4.09.9 6.64-1.42 10.15-5.19 5.8-10.73 10.1-17.27 14.29-.92.61-1.84 1.22-2.8 1.85-4.09 2.67-7.91 5-12.51 6.71v2l7 1v-5l4-1v2h2v3h4v-4c.63-.29 1.25-.58 1.9-.88 5.34-2.56 5.34-2.56 8.6-7.31.17-.93.33-1.85.5-2.81l1-2c2.02-.23 4.03-.45 6.05-.65 2.45-.44 3.54-1.32 4.95-3.35-.55 3.71-1.9 5.14-4.75 7.5-.72.6-1.44 1.2-2.19 1.82-.68.56-1.36 1.11-2.06 1.68-.91.76-1.81 1.53-2.75 2.31-2.03 1.52-3.94 2.66-6.25 3.69 1.49.5 1.49.5 3 1v2q1.14.375 2.31.75c2.98 1.38 4.01 2.48 5.69 5.25 1.8 5.41 1.73 10.96-.19 16.31-4.17 6.19-8.07 8.57-15.06 10.44-4.75.98-4.75.98-8.75 3.25-7.64.93-15.32 1.16-23 1v2c-1.98.5-1.98.5-4 1-.14-.62-.29-1.24-.44-1.88-.49-2.15-.49-2.15-1.56-4.12.91-.1 1.81-.21 2.75-.31 3.33-.71 4.62-1.69 7.25-3.69 1.49.5 1.49.5 3 1 7.05.4 14.01-.16 21-1 1.22-.1 2.43-.21 3.69-.31 5.05-1.05 8.76-2.94 12.25-6.88 1.49-3.96 1.31-7.62 1.06-11.81l-2-1v-3c-1.05.34-1.05.34-2.12.69-2.88.31-2.88.31-5.34-1.11-4.99-2.23-9.69-2.34-15.1-2.58-1.03-.08-2.06-.15-3.12-.23-5.3-.4-5.3-.4-10.15 1.35-1.56 1.48-1.56 1.48-3.17 3.88.61-.22 1.22-.43 1.84-.66 8.49-2.69 19.04-4.43 27.7-1.47 2.04 1.15 3.8 2.47 5.46 4.13.44 2.75.44 2.75 0 6-8.62 9.79-24.02 10.44-36.17 12.34-12.43 1.97-23.06 4.99-31.83 14.66-.5 1.49-.5 1.49-1 3l3-1c3.87-.29 7.75-.28 11.62-.31 1.59-.05 1.59-.05 3.2-.09 6.69-.05 12.53.52 18.18 4.4 1.38 2.88 1.38 2.88 1 6-3.56 5.33-7.2 8.34-13.57 9.84-1.37.23-2.74.45-4.12.66-.74.12-1.48.24-2.24.37-2.35.39-4.71.76-7.07 1.13-3.08.49-6.17.99-9.25 1.5-.75.12-1.5.24-2.27.37-5.69.94-11.28 2.17-16.88 3.58-2.6.55-2.6.55-6.6.55.6-4.19 1.57-8.01 3-12h2c.14-.62.29-1.24.44-1.88C419 742 419 742 420 740h2v-11c-2.94-.31-2.94-.31-4.56 1.25-1.53 1.71-1.53 1.71-2.44 3.87-1 1.88-1 1.88-4 2.88-.5.99-.5.99-1 2h-2v4h-2l-1 6-2-1c-.02-5.9-.04-11.81-.05-17.71l-.03-6.01C402.79 692 402.79 692 410 684c3-2 3-2 5.56-1.75C418 683 418 683 420 685c2.88 8.29 2.19 17.37 2 26 1.09-.86 2.17-1.74 3.25-2.62.6-.49 1.21-.98 1.83-1.48 4.32-4.28 6.41-8.59 7.59-14.51l.77-3.72c.24-1.28.49-2.55.75-3.86.51-2.53 1.02-5.07 1.54-7.6.22-1.12.44-2.24.67-3.39.6-2.82.6-2.82 1.6-5.82h2c.28-1.86.28-1.86.56-3.75 1.75-7.91 6.3-15.93 12.44-21.25h2v-2c2.71-1.35 4.13-.79 7 0"/><path fill="#6d9538" d="M291 677c4.75.48 7.71 2.72 11.31 5.62.57.46 1.14.91 1.73 1.37 8.04 6.39 15.53 12.97 21.96 21.01l2.62 2.56c2.09 2.14 3.27 3.71 4.38 6.44h2c1.22 1.71 1.22 1.71 2.5 3.94 1.68 3.11 1.68 3.11 4.5 5.06 1.07 1.78 1.07 1.78 2.12 3.94.36.71.71 1.42 1.08 2.15.8 1.91.8 1.91.8 3.91l3 1q1.545 2.97 3 6c.99.5.99.5 2 1v2h2c.27.68.54 1.36.81 2.06L358 748c.36.92.36.92.73 1.86 1.31 3.76 1.31 3.76 4.27 6.14l-.12-3.69c-.02-3.79.42-7.27 1.12-11 2.48-15.32 3.41-34-5.08-47.65-1.67-2.46-1.67-2.46-2.92-3.66-2.41-.5-2.41-.5-5 0-4.58 5.56-4.21 13-4.56 19.88-.05.78-.09 1.56-.13 2.37-.11 1.92-.21 3.83-.31 5.75-3.23-.7-4.89-1.36-7-4v-2h-2c-2.89-6.66-4.45-12.2-4.04-19.49.04-2.65-.36-4.94-.96-7.51.5 1.49.5 1.49 1 3h2v4h6l1-2v4l4-1v-7h3l1-3c5.88.88 5.88.88 7 2h3c1.32 1.75 1.32 1.75 2.56 4 1.19 2.2 1.19 2.2 2.44 4h2c4.25 3.13 4.52 8.04 5.48 12.93 1.05 7 .34 13.99-.23 21.01l-.3 4.4c-1.31 18.5-1.31 18.5-4.95 21.66v3h2l-2 5-2-1c1.57 5.05 3.31 9.74 5.62 14.5 2.33 4.95 3.11 9.06 3.38 14.5l-1-3h-5l-1-5c-.89 2.67-1.48 5.24-2 8h2v2h-2l1 3c-.19.74-.37 1.49-.56 2.25-.48 3.01.13 4.85 1 7.73 1.01 3.64 1.55 7.35 2.12 11.08.13.83.27 1.66.4 2.51.95 6.19 1.45 12.29 1.63 18.55.47 3.29 1.46 5.21 3.41 7.88 2.4 1.2 4.14 1.31 6.81 1.44l2.58.18c3.11-.74 4.68-2.01 6.59-4.55 2.14-4.35 2.09-9.18 2.33-13.95.11-1.6.11-1.6.22-3.24.18-2.62.33-5.25.47-7.88h2c-.06-1.01-.12-2.02-.19-3.06 0-9.41 2.09-21.39 6.19-29.94l3-1-1 14h2l-1 7-1-2c-2.08.37-2.08.37-4 2-.83 2.83-1.02 5.69-1.25 8.62-.08.81-.15 1.61-.23 2.43-.19 1.98-.36 3.97-.52 5.95h2l1-3c.5 23.98.5 23.98-6 32-4.09 3.59-7.53 4.15-12.88 4.19-1.02.01-2.05.03-3.11.04-5.56-.43-10.12-2.85-14.28-6.48-3.65-5.8-3.31-13.31-3.56-20 .01-1.78.01-1.78-1.17-2.75-.26-1.38-.47-2.77-.65-4.16-.12-.87-.23-1.74-.35-2.63-.13-.94-.25-1.87-.38-2.83-1.21-8.89-2.75-17.61-4.62-26.38-.4-1.98-.79-3.96-1.19-5.94-.16-.79-.31-1.58-.48-2.4-.11-.55-.22-1.1-.33-1.66l2 2 1-6h-2v-4l-2.48.04c-1.08 0-2.16.01-3.27.02l-3.23.04c-2.55-.08-4.6-.35-7.02-1.1v-2c-.99-.5-.99-.5-2-1h2v-2q3.375-.075 6.75-.12c1.25-.03 2.51-.05 3.8-.08 3.18.18 4.82.51 7.45 2.2-.31-.63-.63-1.26-.95-1.91-.43-.85-.86-1.71-1.3-2.59-.46-.92-.92-1.84-1.39-2.79q-1.2-2.37-2.37-4.77c-2.42-4.9-5.04-9.67-7.72-14.42-1.12-2.22-1.8-4.1-2.27-6.52h-2l-1-5-3-1c-1.9-2.33-1.9-2.33-3.94-5.25-4.76-7.12-4.76-7.12-11.06-12.75v-2h-2c-.26-.6-.52-1.19-.79-1.8-1.31-2.38-2.57-3.6-4.65-5.32-4.46-3.77-8.75-7.69-13.04-11.65A80 80 0 0 0 290 683z"/><path fill="#4b6a26" d="M316.375 639.875c2.3 1.24 3.76 2.26 5.62 4.12.2 2.39.2 2.39.13 5.13-.02.91-.04 1.82-.05 2.76-.03.7-.05 1.4-.08 2.11 1.49.5 1.49.5 3 1 1.65 2.61 2 3.87 2 7h2v4h-2v2h-2c-.44-.94-.89-1.88-1.35-2.85-.61-1.25-1.22-2.51-1.83-3.77-.29-.62-.59-1.23-.89-1.87-2.31-4.72-5.07-10.08-9.93-12.51-1.99-.03-4-.04-6 0-2.57 7.73-1.16 15.68 2 23 .37.69.73 1.37 1.11 2.07.89 1.93.89 1.93.89 4.93-3.83-1.34-6.56-3.03-9.68-5.62-.87-.71-1.74-1.42-2.63-2.15-.88-.74-1.77-1.47-2.69-2.23-3.31-2.68-6.64-5.35-10-8-.62-.49-1.25-.99-1.9-1.5-8.95-6.79-17.31-6.87-28.1-6.5v2h-2c.94 6.97 2.83 12.12 8 17 2.68 1.89 5.39 3.65 8.18 5.36 5.02 3.07 9.75 6.42 14.45 9.96.67.5 1.35 1 2.04 1.52 3.33 2.52 6.58 5 9.33 8.16v2c-.85-.14-1.71-.28-2.6-.43-15.72-3.02-15.72-3.02-30.4 1.43-.43 3.78-.36 5.49 1.88 8.63 7.48 5.68 15.98 7.18 25.12 8.37v2c.72.03 1.44.06 2.17.08 14.24.81 25.53 4.89 35.96 14.74 1.87 2.18 1.87 2.18 1.87 4.18-1.08 0-1.08 0-2.18-.01-3.29-.02-6.58-.03-9.88-.05-1.13-.01-2.26-.01-3.43-.02-9.56-.47-9.56-.47-18.44 2.27-1.65 2.82-1.58 4.61-1.07 7.81 4.87 6.35 11.57 8.13 19.13 9.5l3.94.75c.66.12 1.31.24 1.99.37 4.04.8 8.04 1.78 12.04 2.74 2.96.66 5.91 1.17 8.9 1.64-7.72 5.16-18.41 4.77-27.35 3.18-4.58-.93-9.12-2.02-13.65-3.18v-2c-.88.07-1.77.13-2.68.19-3.78-.21-5.36-.87-8.32-3.19-3.9-5.43-4.49-10.38-4-17 1.04-4.48 2.35-7.15 6-10 3.26-1.24 3.26-1.24 6-2l-1.75-.14c-.78-.08-1.57-.15-2.37-.23-.77-.07-1.53-.14-2.32-.21-3-.49-5.68-1.45-8.56-2.42-1.91-.43-3.83-.87-5.76-1.29-8.61-1.92-16.56-4.3-21.8-11.95-2.13-4.41-2.09-8.98-1.44-13.76 1.32-3.56 1.32-3.56 3-6 1.49-.49 1.49-.49 3-1v-2c2.32-.99 4.63-1.98 7-3-.8-.6-1.61-1.2-2.44-1.82-1.08-.81-2.16-1.62-3.24-2.42-1.06-.79-2.11-1.58-3.2-2.4-1.03-.77-2.06-1.55-3.12-2.36-.89-.67-1.79-1.34-2.71-2.04-4.32-3.7-6.92-8.17-7.67-13.85-.08-4.54-.09-8.17 2.38-12.11 8.35-5.86 17.19-5.87 27-5 9.28 1.75 16.59 7.49 24 13-.01-1.08-.03-2.17-.04-3.3.06-4.9.8-8.21 3.98-12.01 5.19-4.24 11.75-3.6 17.44-.81"/><path fill="#78a043" d="M477 672c.5 2.97.5 2.97 1 6-1.6 1.31-3.21 2.62-4.81 3.94-1 .82-2.01 1.64-3.04 2.49-2.02 1.65-4.05 3.29-6.08 4.93-9.69 6.97-9.69 6.97-16.01 16.58L448 708h-2c.5 3.47.5 3.47 1 7l2-1c2.33-.04 4.67-.04 7 0v3l-2.94 1.06c-6.08 2.61-12.46 6.68-15.06 12.94l3-1c3.87-.29 7.75-.28 11.62-.31l3.2-.09c6.69-.05 12.53.52 18.18 4.4 1.38 2.88 1.38 2.88 1 6-3.56 5.33-7.2 8.34-13.57 9.84-1.37.23-2.74.45-4.12.66-.74.12-1.48.24-2.24.37-2.35.39-4.71.76-7.07 1.13-3.08.49-6.17.99-9.25 1.5-.75.12-1.5.24-2.27.37-5.69.94-11.28 2.17-16.88 3.58-2.6.55-2.6.55-6.6.55.6-4.19 1.57-8.01 3-12h2c.14-.62.29-1.24.44-1.88C419 742 419 742 420 740h2v-11c-2.94-.31-2.94-.31-4.56 1.25-1.53 1.71-1.53 1.71-2.44 3.87-1 1.88-1 1.88-4 2.88-.5.99-.5.99-1 2h-2v4h-2l-1 6-2-1c-.02-5.9-.04-11.81-.05-17.71l-.03-6.01C402.79 692 402.79 692 410 684c3-2 3-2 5.56-1.75C418 683 418 683 420 685c2.88 8.29 2.19 17.37 2 26 1.11-.94 2.21-1.87 3.31-2.81.92-.79.92-.79 1.87-1.58A91 91 0 0 0 432 702l1 2c7.43-4.86 7.43-4.86 13.69-11.06 2.99-3.8 6.43-7.04 10.31-9.94h2v-2c2.3-1.66 2.3-1.66 5.31-3.5.99-.61 1.97-1.22 2.99-1.84.89-.55 1.78-1.1 2.7-1.66 3-2 3-2 7-2"/><path fill="#4d692b" d="M465 631c4.35 2.22 7.44 4.83 10 9 .6 2.7.81 5.22 1 8h2v-2c1.27-.67 2.54-1.34 3.81-2l2.15-1.12C486 642 486 642 489 642v-2c5.85-1.68 11.11-2.34 17.19-2.31.78-.02 1.56-.03 2.36-.05 5.53-.01 8.95.88 13 4.9 4.55 5.78 4.91 9.21 4.45 16.46-.81 3.06-.81 3.06-2 5l-3 1-2 3c-1.95.29-1.95.29-4.12.19-1.28-.06-2.56-.13-3.88-.19-.14.6-.27 1.21-.41 1.83-1.73 6.41-1.73 6.41-4.28 8.66-2.41 1.38-4.49 2.51-7.31 2.51v4h-4v-3h-2v-2c-.99.5-.99.5-2 1l1 2h-3v3h-8c1.26-3.77 2.46-4.17 5.81-6.19 1-.61 1.99-1.22 3.01-1.85 1.05-.65 2.1-1.29 3.18-1.96 12.31-7.55 12.31-7.55 22-18 .24-2.06.24-2.06.12-4.19L515 650c-5.38-3.15-9.27-3.79-15.39-2.5-5.27 1.42-9.54 3.4-14.02 6.51-1.59.99-1.59.99-3.59.99v2c-1.61 1.32-3.29 2.55-5 3.75-4.22 2.99-8.37 6.03-12.44 9.22C463 671 463 671 461 671c1.72-10.11 1.72-10.11 3.12-14.56 1.14-4.46 1.45-8.86.88-13.44-1.9-2.35-1.9-2.35-5.12-2.12L457 641v2c-.74.56-1.48 1.12-2.24 1.7-3.18 2.65-4.99 5.54-6.95 9.11l-1.03 1.79c-2.27 4.04-3.66 7.9-4.78 12.4h-2a496 496 0 0 1-1.32 7.26c-.52 2.87-1 5.73-1.46 8.61-2.92 17.37-2.92 17.37-10.22 24.13-.52.57-1.05 1.13-1.59 1.71C424 711 424 711 422 711l-.15-3.15c.17-13.39.17-13.39-4.85-24.85-2.89-.38-2.89-.38-6 1-7.97 8.48-8.28 18.63-8.13 29.69 0 2.27-.01 4.54-.01 6.8 0 3.53.01 7.05.06 10.58.18 15.17-.81 26.01-8.92 38.93-1.03 2.15-2.04 4.32-3 6.5-.39.88-.78 1.75-1.19 2.66-.27.6-.53 1.21-.81 1.84h-2c-.25-5.62-.25-5.62 2-9h-2c-.39-5.59.48-8.3 3.48-12.96 5.53-9.82 4.16-20.7 3.77-31.6-1.03-35.24-1.03-35.24 9.28-48.39 3.3-3.33 5.9-4.44 10.59-4.61 6.99.46 10.09 3.72 14.88 8.56.18-1.45.18-1.45.37-2.92.16-1.27.33-2.53.51-3.83.16-1.25.32-2.51.49-3.8.55-3.01 1.22-4.81 2.63-7.45.36-1.62.67-3.24.94-4.88C436 649.42 443 639.21 452 633c4.28-2.51 8.14-2.68 13-2"/><path fill="#4a6b24" d="M488.313 687.188c1.03.03 2.07.06 3.13.1 5.62.24 9.63.77 14.56 3.71 2.75.26 2.75.26 5 0 .49 1.49.49 1.49 1 3l2-1c.33 5.15.61 9.57-1.44 14.38-4.04 4.13-8.31 7.29-14.2 7.9a83 83 0 0 1-5-.2c-2.61-.09-4.81.4-7.36.92-1.85.09-3.71.13-5.57.13-1.39 0-1.39 0-2.81.01-2.62-.14-2.62-.14-4.8-.77-.6-.12-1.2-.24-1.82-.37-1.71 1.29-3.37 2.62-5 4h-3c1.08 2.12 1.08 2.12 3 4l2.56-.12c5.25.19 9.43 2.8 13.44 6.12 2.83 5.44 2.64 10.75 1 16.5-.33.83-.66 1.65-1 2.5h-2c-.19.56-.37 1.12-.57 1.69-2.66 4.29-6.36 6.73-11.14 8.07-3.05.59-6.1 1.06-9.17 1.49-2.08.32-4.16.63-6.24.96-.91.13-1.83.26-2.77.39-2.09.19-2.09.19-3.11 1.4-1.71.35-3.42.64-5.14.9-1.05.17-2.1.34-3.19.51-2.22.35-4.44.7-6.66 1.04-3.01.49-6.01 1.01-9.01 1.55-1.16.2-2.31.39-3.5.59-4.02 2.27-5.15 5.9-6.88 10.04-.35.8-.71 1.6-1.07 2.43-.87 1.97-1.71 3.96-2.55 5.94-2-1-2-1-3.19-3.56-1.26-5.33-.74-9.5 1.62-14.44.78-.99.78-.99 1.57-2h2c.06-.62.12-1.23.19-1.87.81-2.13.81-2.13 3.37-3.38.8-.24 1.61-.49 2.44-.75v-2c8.19-2.18 16.36-3.96 24.75-5.17.68-.1 1.36-.2 2.06-.3 3.44-.5 6.87-.98 10.32-1.42 7.42-1.08 13.78-2.19 18.87-8.11 1.13-3.12 1.13-3.12 1-6v-2c-7.81-3.21-14.69-3.36-23.07-3.19-1.24.02-2.49.03-3.77.05-3.06.03-6.11.08-9.16.14 1.29-6.17 6.49-9.15 11.37-12.75 10.33-4.91 22.44-6.78 33.69-8.12 7.44-1 15.78-2.84 21.79-7.59 1.79-2.4 1.34-4.65 1.15-7.54-6.78-5.42-14.76-4.66-23-4-3.72.49-7.35 1.14-11 2 3.31-7.64 9.09-6.16 16.31-5.81"/><path fill="#4a6926" d="M316.375 639.875c2.3 1.24 3.76 2.26 5.62 4.12.2 2.39.2 2.39.13 5.13-.02.91-.04 1.82-.05 2.76-.03.7-.05 1.4-.08 2.11 1.49.5 1.49.5 3 1 1.65 2.61 2 3.87 2 7h2v4h-2v2h-2c-.44-.94-.89-1.88-1.35-2.85-.61-1.25-1.22-2.51-1.83-3.77-.29-.62-.59-1.23-.89-1.87-2.31-4.72-5.07-10.08-9.93-12.51-1.99-.03-4-.04-6 0-2.57 7.73-1.16 15.68 2 23 .37.69.73 1.37 1.11 2.07.89 1.93.89 1.93.89 4.93-3.83-1.34-6.56-3.03-9.68-5.62-.87-.71-1.74-1.42-2.63-2.15-.88-.74-1.77-1.47-2.69-2.23-3.31-2.68-6.64-5.35-10-8-.62-.49-1.25-.99-1.9-1.5-8.95-6.79-17.31-6.87-28.1-6.5v2h-2c.94 6.97 2.83 12.12 8 17 2.68 1.89 5.39 3.65 8.18 5.36 5.02 3.07 9.75 6.42 14.45 9.96.67.5 1.35 1 2.04 1.52 3.33 2.52 6.58 5 9.33 8.16v2c-.85-.14-1.71-.28-2.6-.43-14.02-2.38-14.02-2.38-27.9-.44-3.07 2.31-5.09 4.87-7.5 7.87h-2c.26-1.62.53-3.25.82-4.87.15-.9.3-1.81.45-2.74.73-2.39.73-2.39 3.73-4.39 3.19-.12 3.19-.12 6 0 .33-1.64.67-3.29 1-5h2c-.18-.61-.37-1.23-.56-1.87-.44-2.13-.44-2.13.56-4.13-.78-.14-1.56-.28-2.37-.43-2.63-.57-2.63-.57-4.63-1.57v-3h-3.56c-3.95-.47-5.67-1.79-8.31-4.74-4.32-5.57-5.61-9.78-5.44-16.82.48-3.7 1.8-5.72 4.31-8.44 4.69-2.9 8.78-3.51 14.19-3.43l2.28.03c12.41.39 20.89 6.23 30.53 13.4-.01-1.08-.03-2.17-.04-3.3.06-4.9.8-8.21 3.98-12.01 5.19-4.24 11.75-3.6 17.44-.81"/><path fill="#779f41" d="m327 720 5 5c.58.5 1.15.99 1.75 1.5 1.69 2.03 1.9 3.92 2.25 6.5h2c.47.95.94 1.91 1.43 2.89.62 1.26 1.25 2.53 1.88 3.8.47.94.47.94.94 1.89 1.78 3.58 3.66 7.02 5.75 10.42 1.08 1.87 2.14 3.74 3.19 5.62.53.95 1.06 1.89 1.6 2.86C354 763 354 763 354 766c-.53-.16-1.07-.33-1.62-.5-2.89-.61-5.55-.56-8.5-.5-5.66.11-5.66.11-7.88-1v5c.99-.01 1.97-.02 2.99-.04 1.28 0 2.56-.01 3.89-.02 1.27-.01 2.55-.03 3.86-.04 3.26.1 3.26.1 5.26 1.1v4h2v7h-2l.69 2.05c.43 1.33.43 1.33.87 2.7l.88 2.67c.58 2.66.45 4.05-.44 6.58-.41-1.09-.82-2.19-1.25-3.31-.28-.73-.56-1.45-.84-2.19-.64-1.76-1.22-3.55-1.75-5.34l-.91-2.91c-.39-1.35-.39-1.35-.8-2.73-2.49-4.32-6.27-5.91-10.89-7.2-2.66-.59-5.32-1.1-8-1.57-.92-.17-1.84-.35-2.79-.52-2.26-.42-4.51-.83-6.77-1.23v-2c-.64-.04-1.29-.07-1.95-.11-7.56-.55-14.71-2.03-22.05-3.89v-2l-2-1h4v2c19.2 4.09 19.2 4.09 38 1a65 65 0 0 0-10.25-2.88c-1.27-.25-1.27-.25-2.57-.5-1.75-.34-3.5-.68-5.25-1-18.46-3.45-18.46-3.45-24.93-9.62-1.42-2.84-1.31-4.85-1-8 2.01-2.98 3.4-3.84 6.88-4.75 9.68-.87 19.48-.35 29.12.75-1.1-1.27-2.21-2.54-3.31-3.81-.92-1.06-.92-1.06-1.87-2.15-1.55-1.73-3.18-3.4-4.82-5.04l9 1z"/><path fill="#7e8a34" d="M367 780h1v6h7c.85 1.87 1.68 3.75 2.5 5.62.46 1.05.93 2.09 1.41 3.17 1.12 3.29 1.3 5.76 1.09 9.21h3l-.12-3.12c.12-3.75.77-6.42 2.12-9.88l1 2c3.2-1.64 3.2-1.64 3.56-4.38.15-.86.29-1.73.44-2.62 1.06-2.31 1.06-2.31 2-4l4 1v3l2 1-2 11-3 1v6h2l1-2-1 13h-2v2c-.01 3.02-.07 6.04-.12 9.06v3.15c-.15 6.16-.76 10.18-5.26 14.6-3.11 2.28-5.59 1.96-9.28 1.69-3.3-.71-5.11-1.99-7.34-4.5-.93-2.78-1.23-4.87-1.43-7.76-.07-.95-.14-1.9-.22-2.87-.07-1.01-.15-2.02-.23-3.06-.84-10.58-2.44-20.73-4.74-31.1-.41-2.4-.15-3.91.62-6.21h2v-2h-2c-.12-3.38-.12-3.38 0-7z"/><path fill="#83641e" d="M336 764c6.75-.5 12.58-.46 18 4 6.69 8.31 10.08 20.54 11 31 .3 1.04.61 2.08.92 3.16 1.2 4.28 1.96 8.51 2.64 12.9l.4 2.51c.95 6.19 1.45 12.29 1.63 18.55.47 3.29 1.46 5.21 3.41 7.88 2.4 1.2 4.14 1.31 6.81 1.44l2.58.18c3.11-.74 4.68-2.01 6.59-4.55 2.14-4.35 2.09-9.18 2.33-13.95.11-1.6.11-1.6.22-3.24.18-2.62.33-5.25.47-7.88h2c-.06-1.01-.12-2.02-.19-3.06 0-9.41 2.09-21.39 6.19-29.94l3-1-1 14h2l-1 7-1-2c-2.08.37-2.08.37-4 2-.83 2.83-1.02 5.69-1.25 8.62-.08.81-.15 1.61-.23 2.43-.19 1.98-.36 3.97-.52 5.95h2l1-3c.5 23.98.5 23.98-6 32-4.09 3.59-7.53 4.15-12.88 4.19-1.02.01-2.05.03-3.11.04-5.56-.43-10.12-2.85-14.28-6.48-3.65-5.8-3.31-13.31-3.56-20 .01-1.78.01-1.78-1.17-2.75-.26-1.38-.47-2.77-.65-4.16-.12-.87-.23-1.74-.35-2.63l-.38-2.83c-1.21-8.89-2.75-17.61-4.62-26.38-.4-1.98-.79-3.96-1.19-5.94-.16-.79-.31-1.58-.48-2.4-.11-.55-.22-1.1-.33-1.66l2 2 1-6h-2v-4l-2.48.04-3.27.02-3.23.04c-2.55-.08-4.6-.35-7.02-1.1v-2l-2-1h2z"/><path fill="#87ae49" d="M464 641c2.33 2.33 2.34 2.82 2.44 6-.11 8.23-3.06 16.19-5.44 24l7-5 2 1-1 4 4 2c-1.95 1.34-3.91 2.67-5.88 4-1.63 1.11-1.63 1.11-3.3 2.25C461 681 461 681 459 681v2c-1.68 1.47-3.42 2.88-5.19 4.25-4.67 3.7-4.67 3.7-8.69 8.06-3.32 4.2-7.36 7.25-12.12 9.69l-2-1 .91-2.09c1.17-3.13 1.88-6.15 2.56-9.42.26-1.23.52-2.47.79-3.74.26-1.28.53-2.56.8-3.87.53-2.55 1.07-5.09 1.6-7.64.23-1.12.47-2.25.71-3.41C439 671 439 671 440 668h2c.19-1.24.37-2.48.56-3.75 1.75-7.91 6.3-15.93 12.44-21.25h2v-2c2.71-1.35 4.13-.79 7 0"/><path fill="#7ba344" d="M415.563 682.25c2.44.75 2.44.75 4.44 2.75 2.88 8.29 2.19 17.37 2 26 1.1-.94 2.21-1.87 3.31-2.81.61-.52 1.23-1.05 1.86-1.58a88 88 0 0 0 4.83-4.61l1 2 2-2 3 1c-1.6 3.12-2.95 4.96-5.75 7.13-3.9 3.03-6.04 7.1-8.58 11.27-2.62 4.08-4.96 7.03-9.67 8.6v4h-2c-.99 2.48-.99 2.48-2 5h-2v4h-2c-.5 2.97-.5 2.97-1 6l-2-1c-.03-5.9-.05-11.81-.06-17.71 0-2.01-.01-4.01-.02-6.01-.13-32.28-.13-32.28 7.08-40.28 3-2 3-2 5.56-1.75"/><path fill="#7aa342" d="M353.375 688.438c3.23.69 4.55 2.12 6.5 4.73 5.32 8.64 6.5 19.09 6.44 29.02 0 .94-.01 1.87-.01 2.84-.14 10.44-1.61 20.68-3.31 30.97-1.48-.49-1.48-.49-3-1-1.96-3.92-3.34-7.65-4-12h-2v-2l-3-1q-1.545-2.97-3-6-1.455-1.53-3-3c-3-4.44-3-4.44-3-8h2v-5h2c-.02-1.12-.04-2.24-.07-3.4-.28-19.8-.28-19.8 3.5-24.29 1.57-1.31 1.57-1.31 3.95-1.87"/><path fill="#4a6a22" d="M458 635c7.96.92 7.96.92 11 3 .61 2.09.61 2.09.75 4.5.06.79.11 1.59.17 2.41.05 1.36.08 2.73.08 4.09l2 1v-5h1v7c6.22-.28 9.88-1.22 15-5h3v-2c18.2-4.81 18.2-4.81 27-4 3.22 1.99 4.33 4.66 6 8 .79 6.95-.18 12.13-4 18-1 1-1 1-2.85 1.1-2.05-.03-4.1-.07-6.15-.1-.14.6-.27 1.21-.41 1.83-1.73 6.41-1.73 6.41-4.28 8.66-2.41 1.38-4.49 2.51-7.31 2.51v4h-4v-3h-2v-2c-.99.5-.99.5-2 1l1 2h-3v3h-8c1.26-3.77 2.46-4.17 5.81-6.19 1.49-.92 1.49-.92 3.01-1.85 1.05-.65 2.1-1.29 3.18-1.96 12.31-7.55 12.31-7.55 22-18 .24-2.06.24-2.06.12-4.19L515 650c-5.38-3.15-9.27-3.79-15.39-2.5-5.27 1.42-9.54 3.4-14.02 6.51-1.59.99-1.59.99-3.59.99v2c-1.61 1.32-3.29 2.55-5 3.75-4.22 2.99-8.37 6.03-12.44 9.22C463 671 463 671 461 671c1.72-10.11 1.72-10.11 3.12-14.56 1.14-4.46 1.45-8.86.88-13.44-1.9-2.35-1.9-2.35-5.12-2.12L457 641v2c-.72.54-1.44 1.07-2.19 1.62-3.13 2.65-4.72 5.24-6.7 8.77-.36.53-.73 1.06-1.11 1.61h-2c.28-1.31.58-2.63.88-3.94.16-.73.32-1.46.49-2.21C447 647 447 647 449 646l-1-7 10-2z"/><path fill="#506f27" d="M317.313 638c5.63 4.19 10.11 9 11.69 16h2c.5 1.43.5 1.43 1.02 2.89.45 1.26.9 2.53 1.35 3.8.44 1.24.88 2.48 1.34 3.76.74 2.05 1.52 4.08 2.38 6.08 1.13 3.07 1.57 6.05 2.03 9.28.17 1.16.34 2.33.51 3.52.12.88.24 1.76.37 2.67h2l.75-1.88c1.51-2.57 2.5-3.03 5.25-4.12 5.05-.56 10.62-.8 15 2 8.75 8.09 11.29 18.42 12 30 .36 9.75.25 19.51-.37 29.24-.07 1.02-.13 2.04-.19 3.08-.12 1.93-.27 3.86-.44 5.79-.56 8.64 2.43 14.83 6.25 22.39 1.75 3.5 1.75 3.5 1.75 5.5h-2c-1.15-2.25-2.3-4.5-3.44-6.75-.33-.63-.65-1.27-.99-1.92-4.84-9.6-4.1-19.62-3.07-30.14 1.21-13.23.83-25.3-2.5-38.19-.35-1.66-.68-3.33-1-5h-2c-2-2.32-3.8-4.73-5.63-7.19-1.39-1.92-1.39-1.92-3.37-3.81-.99.5-.99.5-2 1v-2h-6c-.5.99-.5.99-1 2h-3v7l-4 1-1-2c-.93.28-.93.28-1.88.56-2.12.44-2.12.44-4.12-.56v-4c-.99.5-.99.5-2 1l1 3c-.28 2.01-.6 4.01-1 6h-1c-.11-.64-.22-1.28-.34-1.94-.51-2.92-1.02-5.83-1.54-8.75-.26-1.51-.26-1.51-.52-3.05-.27-1.46-.27-1.46-.53-2.96-.16-.89-.32-1.79-.48-2.71-.53-2.65-.53-2.65-1.68-5.25-1.11-2.85-.74-4.44.09-7.34h2v-4h-2c-.44-1.09-.87-2.19-1.31-3.31-.96-2.29-1.47-3.5-3.38-5.13-1.31-1.56-1.31-1.56-1.12-5.5.15-2.1.15-2.1-.19-4.06-4.69-4.06-8.66-5.1-14.77-5.23-2.93.22-2.93.22-8.23 2.23l-3 15c-3.03-1.51-5.37-2.93-8.07-4.88-7.98-5.28-15.22-7.46-24.74-7.56-1.08-.01-1.08-.01-2.18-.03-4.73.08-7.95 1.08-12.01 3.47-.99.5-.99.5-2 1 1.38-3.43 2.63-4.73 6-6.25 7.1-2.91 13.93-2.63 21 .25 1.95.71 3.91 1.42 5.87 2.12 1.71.63 3.42 1.25 5.13 1.88v2c.93.29 1.85.58 2.81.88 3.19 1.12 3.19 1.12 6.19 3.12v-5h2c.08-.74.16-1.49.25-2.25.9-3.3 2.17-4.56 4.75-6.75 4.95-2.48 12.17-1.55 17.31 0"/><path fill="#4d6a25" d="M433 661c.62 1.75.62 1.75 1 4-.29.56-.58 1.11-.88 1.69-1.5 3.1-2.06 6.19-2.74 9.56-.4 1.89-.4 1.89-.79 3.83-.2.96-.39 1.93-.59 2.92-3.71-1.24-4.6-3-7-6-4.89-1.63-10.24-2.29-15.04-.05-8.38 6.42-10.62 17.13-11.96 27.05-.17 3.63-.08 7.23.05 10.86l.12 6.13c.06 3.16.14 6.32.25 9.48.37 11.83.67 21.39-5.8 31.62-1.86 3.34-2.28 6.12-2.62 9.91h2l-2 9 2 1c-.35 1-.7 2-1.06 3.04l-1.38 4.02c-.23.66-.46 1.32-.69 1.99-1.47 4.33-2.36 8.41-2.87 12.95h-3c-.1-.55-.2-1.09-.3-1.65-.97-4.91-2.37-9.18-4.5-13.7-1.81-3.99-3.39-8.06-4.97-12.14-1.38-3.48-2.88-6.81-4.61-10.13-2.55-5.52-1.95-11.44-1.62-17.38h1l1 11 3-4h-2c-1-3-1-3-.06-5.19.35-.6.7-1.19 1.06-1.81l1 1c.77-4.96 1.25-9.89 1.54-14.9.04-.72.08-1.45.13-2.19l.39-6.85c.09-1.56.19-3.11.28-4.67L372 710h1c1.14 4.55 1.15 8.91 1.12 13.56V726c-.03 4.42-.2 8.78-.62 13.19-1.29 13.6-.67 23.11 5.73 35.15.77 1.66.77 1.66.77 3.66h2l1-9h2c.1-.71.21-1.41.31-2.14 1.02-4.24 3.21-7.74 5.31-11.53 2.82-6.81 2.51-14.27 2.41-21.54-.02-1.74-.03-3.47-.04-5.21-.02-2.7-.05-5.39-.09-8.08-.18-15.86.39-28.62 8.91-42.44 3.76-3.54 7.61-4.93 12.76-5.19 4.31.22 7.41.57 10.55 3.69.93 1.21.93 1.21 1.88 2.44 1.53-4.28 2.58-8.5 3.44-12.95C431 664 431 664 433 661"/><path fill="#4a6a23" d="M350 683c5.88.88 5.88.88 7 2h3c1.32 1.75 1.32 1.75 2.56 4 1.19 2.2 1.19 2.2 2.44 4h2c4.25 3.13 4.52 8.04 5.48 12.93 1.05 7 .34 13.99-.23 21.01l-.3 4.4c-1.31 18.5-1.31 18.5-4.95 21.66v3h2l-2 5c-.99-.5-.99-.5-2-1-.2-2.65-.38-5.29-.56-7.94-.09-1.1-.09-1.1-.17-2.23-.3-4.61-.11-8.9.47-13.48 1.71-15.43 1.66-32.36-7.74-45.35-1.05-1.25-1.05-1.25-3.38-1.38-2.79.1-2.79.1-4.37 2.5-2.45 5.64-2.5 11.69-2.81 17.76-.05.78-.09 1.56-.13 2.37-.11 1.92-.21 3.83-.31 5.75-3.23-.7-4.89-1.36-7-4v-2h-2c-2.89-6.66-4.45-12.2-4.04-19.49.04-2.65-.36-4.94-.96-7.51l1 3h2v4h6l1-2v4l4-1v-7h3z"/><path fill="#4a6a25" d="M310 723c7.1.36 11.45 4.7 16.5 9.25C328 734 328 734 328 736c-.72-.01-1.44-.01-2.18-.02-3.3-.02-6.59-.03-9.88-.04l-3.44-.03c-9.55-.46-9.55-.46-18.44 2.28-1.65 2.82-1.57 4.6-1.06 7.81 4.87 6.35 11.57 8.13 19.12 9.5 1.32.25 2.63.49 3.95.74.65.13 1.31.25 1.98.38 4.04.79 8.04 1.77 12.05 2.73 2.95.66 5.91 1.18 8.9 1.65-7.73 5.15-18.41 4.76-27.35 3.17-4.58-.93-9.12-2.01-13.65-3.17v-2c-1.05-.09-1.05-.09-2.12-.19-4.34-1.22-7.62-3.82-10.04-7.64-1.63-4.21-1.29-8.73-.84-13.17 1.5-3.19 1.5-3.19 3-5l3 1-3 1 4 1v-2l5-1v-2c1.09-.27 2.19-.54 3.31-.81 3.42-1.1 4.47-1.61 6.69-4.19h2z"/><path fill="#4c652a" d="m400 685 6 2c-.41 2.66-.82 5.3-1.49 7.91-1.63 6.31-1.73 12.29-1.64 18.78 0 2.27-.01 4.54-.01 6.8 0 3.53.01 7.05.06 10.58.18 15.17-.81 26.01-8.92 38.93-1.03 2.15-2.04 4.32-3 6.5-.39.88-.78 1.75-1.19 2.66-.27.6-.53 1.21-.81 1.84h-2c-.25-5.62-.25-5.62 2-9h-2c-.39-5.59.48-8.3 3.48-12.96 5.53-9.82 4.16-20.7 3.77-31.6-.12-4.13-.22-8.25-.3-12.38-.02-.98-.03-1.96-.05-2.97-.09-9.55 1.1-18.75 6.1-27.09"/><path fill="#709737" d="M477 672c.5 2.97.5 2.97 1 6-1.6 1.31-3.21 2.62-4.81 3.94-1.51 1.23-1.51 1.23-3.05 2.5-1.98 1.62-3.97 3.22-5.97 4.81-10.94 8.19-10.94 8.19-19.17 18.75h-2l-.94 1.88c-.68 1.37-1.37 2.74-2.06 4.12h-2c-.25.54-.5 1.07-.75 1.62-1.25 2.38-1.25 2.38-3.31 5.44-2.04 2.82-2.04 2.82-2.94 5.94-.62.6-1.24 1.2-1.88 1.81-2.43 2.51-3.68 5.03-5.12 8.19-1.65-2.97-2.44-5.66-3-9-3.24 2.39-5.51 4.2-7 8h-2v-2h2v-4c2.57-2.99 4.23-4.74 8-6 1.06-1.81 1.06-1.81 2-4 .97-1.6 1.98-3.18 3-4.75.52-.8 1.03-1.6 1.56-2.42.48-.61.95-1.21 1.44-1.83h2l1-3c.99-.5.99-.5 2-1 .6-1.09 1.2-2.19 1.81-3.31 1.9-3.46 4.03-5.3 7.19-7.69 1.19-1.44 2.37-2.88 3.54-4.34 2.82-3.21 6.04-6.11 9.46-8.66h2v-2c2.3-1.66 2.3-1.66 5.31-3.5.99-.61 1.97-1.22 2.99-1.84.89-.55 1.78-1.1 2.7-1.66 3-2 3-2 7-2"/><path fill="#536123" d="M336 764c6.75-.5 12.58-.46 18 4 6.69 8.31 10.08 20.54 11 31 .65 2.34 1.32 4.67 2 7 2.01 7.71 2.22 15.05 2 23h-2v-2h-2c.17.71.35 1.41.53 2.14.5 3.06.37 5.59.03 8.67-.1.98-.2 1.95-.31 2.96-.08.74-.16 1.47-.25 2.23l-2-1c-.93-4.04-1.12-7.92-1.1-12.05.01-1.11.01-2.22.01-3.36l.03-3.47c0-1.16.01-2.33.01-3.53.01-2.86.03-5.73.05-8.59-1.49-.5-1.49-.5-3-1l.12-3.31c.2-3.78.2-3.78-2.12-6.69-1.21-3.12-2.18-6.31-3.19-9.5-.28-.87-.57-1.74-.86-2.63-.27-.83-.53-1.67-.81-2.53-.24-.76-.48-1.52-.73-2.3C351 781 351 781 352 778l1 2 1-6h-2v-4l-2.48.04-3.27.02-3.23.04c-2.55-.08-4.6-.35-7.02-1.1v-2l-2-1h2z"/><path fill="#4e6a2b" d="M521 664c.5 1.49.5 1.49 1 3a1017 1017 0 0 1-5.08 5.27c-1.9 1.71-3.62 2.66-5.92 3.73l-1.5 1.5c-1.69 1.69-3.34 2.53-5.5 3.5l3 1v2q1.14.375 2.31.75c2.98 1.38 4.01 2.48 5.69 5.25 1.8 5.41 1.73 10.96-.19 16.31-4.17 6.19-8.07 8.57-15.06 10.44-4.75.98-4.75.98-8.75 3.25-7.64.93-15.32 1.16-23 1v2c-1.98.5-1.98.5-4 1-.14-.62-.29-1.24-.44-1.88-.49-2.15-.49-2.15-1.56-4.12 1.36-.15 1.36-.15 2.75-.31 3.33-.71 4.62-1.69 7.25-3.69l3 1c7.05.4 14.01-.16 21-1 1.83-.15 1.83-.15 3.69-.31 5.05-1.05 8.76-2.94 12.25-6.88 1.49-3.96 1.31-7.62 1.06-11.81l-2-1v-3c-1.05.34-1.05.34-2.12.69-2.88.31-2.88.31-5.42-1.14-4.62-2.07-8.7-2.04-13.71-2.11-1.8-.04-3.59-.08-5.39-.13-.79-.01-1.58-.03-2.39-.04C480 688 480 688 478 686l4-2v1l7 1v-5l4-1v2h2v3h4v-4c.63-.29 1.25-.58 1.9-.88 5.34-2.56 5.34-2.56 8.6-7.31.17-.93.33-1.85.5-2.81l1-2c2.03-.23 4.05-.44 6.09-.56 2.31-.3 2.31-.3 3.91-3.44"/><path fill="#abb99b" d="M465 631c4.35 2.22 7.44 4.83 10 9 .6 2.7.81 5.22 1 8h2v-2c1.27-.67 2.54-1.34 3.81-2l2.15-1.12C486 642 486 642 489 642v-2c5.85-1.68 11.11-2.34 17.19-2.31.78-.02 1.56-.03 2.36-.05 5.53-.01 8.95.88 13 4.9 4.54 5.76 4.94 9.23 4.45 16.46-1 3.12-1 3.12-2 5h-2c.16-.62.33-1.24.5-1.88.96-5.99 1.47-11.14-1.25-16.68-2.38-2.59-2.94-2.94-6.25-3.44-8.04.17-16.08 1.7-24 3v2c-4.9 2.62-9.55 4.82-15 6l-3-1c-.5-.99-.5-.99-1-2l-3-1v-11l-7-1v-2h-4v2q-1.065.15-2.16.3c-5.74 1.13-9.27 2.37-12.78 7.2-3.19 5.2-5.28 10.69-7.06 16.5h-2c1.26-10.61 8.19-20.16 16.32-26.84 4.82-3.33 8.91-3.97 14.68-3.16"/><path fill="#4e6f25" d="M488.313 687.188c1.03.03 2.07.06 3.13.1 5.62.24 9.63.77 14.56 3.71 2.75.26 2.75.26 5 0 .49 1.49.49 1.49 1 3l2-1c.33 5.15.61 9.57-1.44 14.38-4.04 4.13-8.31 7.29-14.2 7.9a83 83 0 0 1-5-.2c-2.61-.09-4.81.4-7.36.92-1.85.09-3.71.13-5.57.13-.92 0-1.85 0-2.81.01-2.62-.14-2.62-.14-4.81-.77-.6-.12-1.2-.24-1.81-.37-1.67 1.33-3.34 2.66-5 4-2.81.25-2.81.25-5 0v-2h-5l1-2c2.9-.77 5.74-1.42 8.69-2 .86-.17 1.72-.35 2.6-.53 5.02-1.01 10-1.8 15.08-2.4 7.34-.97 15.56-2.86 21.48-7.53 1.79-2.4 1.34-4.65 1.15-7.54-6.78-5.42-14.76-4.66-23-4-3.72.49-7.35 1.14-11 2 3.31-7.64 9.09-6.16 16.31-5.81"/><path fill="#4b6a24" d="m460 752-7 2c.5 1.49.5 1.49 1 3h-6l-1 3c-.73.14-1.46.27-2.22.41-3.32.62-6.64 1.26-9.97 1.9-1.15.22-2.3.43-3.48.65-1.12.21-2.23.43-3.37.65-1.53.29-1.53.29-3.1.59-3.86 1.08-6.85 2.32-9.16 5.7-.31.7-.62 1.39-.94 2.11-.52 1.14-.52 1.14-1.04 2.3-.34.78-.68 1.57-1.03 2.38-.36.79-.72 1.59-1.09 2.41-.88 1.96-1.74 3.93-2.6 5.9-2-1-2-1-3.19-3.56-1.26-5.34-.74-9.51 1.63-14.44.51-.66 1.03-1.32 1.56-2h2c.06-.62.12-1.24.19-1.88.81-2.12.81-2.12 3.37-3.37.81-.25 1.61-.5 2.44-.75v-2c9.74-2.69 19.3-4.44 29.38-5.31 1.5-.13 1.5-.13 3.04-.27 7.17-.56 7.17-.56 10.58.58"/><path fill="#496728" d="M468 723c5.92.3 10.66 3.1 15 7 2.27 5.92 1.29 12.28-1 18h-2c-.28.84-.28.84-.56 1.69-2.67 4.28-6.37 6.73-11.15 8.07-3.05.58-6.09 1.06-9.17 1.49-2.08.31-4.16.63-6.24.95-.91.13-1.82.26-2.77.4-2.09.19-2.09.19-3.11 1.4-1.92.37-3.85.68-5.79.97-1.75.27-1.75.27-3.54.54-1.85.27-1.85.27-3.73.55-1.24.19-2.47.38-3.75.57-3.06.46-6.13.92-9.19 1.37l1-2c2.38-.62 2.38-.62 5.5-1.15 1.67-.3 1.67-.3 3.38-.61 2.37-.41 4.74-.81 7.11-1.21 1.11-.2 2.23-.41 3.38-.62 1.03-.17 2.06-.35 3.12-.53 2.64-.63 2.64-.63 3.74-2.84.25-.68.51-1.35.77-2.04 2.4-2.4 3.07-2.28 6.35-2.41l2.58-.12c1.33-.05 1.33-.05 2.69-.09l2.72-.12c2.22-.1 4.44-.18 6.66-.26v-2h2c.19-1.21.19-1.21.38-2.44.2-.84.41-1.69.62-2.56l2-1c1.72-3.45 2.3-6.16 2-10-.5-1.49-.5-1.49-1-3h-4c-1.06-2.38-1.06-2.38-2-5l1-2h-2l-1 2z"/><path fill="#4b6b22" d="M260.625 644.938c1.23.01 1.23.01 2.48.03.94.01.94.01 1.9.03-.33.66-.67 1.32-1 2h11c.32.99.66 1.98 1 3 2 1.21 2 1.21 4 2v2h8v2l3 1c1.18 2.06 1.18 2.06 2 4l3-2c.58-2.65.58-2.65.68-5.62.07-1.01.13-2.01.2-3.04.04-.77.08-1.54.12-2.34 1.31.66 2.63 1.32 4 2l3-2c-.04.84-.07 1.67-.11 2.53-.19 7.99.41 14.44 4.21 21.53.9 1.94.9 1.94.9 4.94-3.84-1.34-6.57-3.03-9.69-5.62-.87-.71-1.74-1.42-2.63-2.15-.88-.74-1.77-1.47-2.68-2.23-3.32-2.69-6.65-5.35-10-8-.63-.5-1.26-.99-1.91-1.51-8.95-6.78-17.31-6.87-28.09-6.49-.34.66-.66 1.32-1 2l-4-1v-2l5-1v-3c2.4-1.2 3.94-1.1 6.62-1.06"/><path fill="#536736" d="m328 652 1 2h2c.34.95.68 1.91 1.02 2.89.45 1.26.9 2.53 1.36 3.8.44 1.24.88 2.48 1.33 3.76.74 2.05 1.52 4.08 2.38 6.08 1.13 3.07 1.58 6.05 2.03 9.28.17 1.16.34 2.33.51 3.52.12.88.25 1.76.37 2.67h2c.25-.62.5-1.24.75-1.88 1.52-2.57 2.5-3.03 5.25-4.12 5.05-.56 10.62-.8 15 2 8.76 8.09 11.29 18.42 12 30 .36 9.75.25 19.51-.37 29.24-.06 1.02-.12 2.04-.19 3.08-.12 1.93-.27 3.86-.44 5.79-.56 8.64 2.44 14.83 6.25 22.39C382 776 382 776 382 778h-2c-1.15-2.25-2.3-4.5-3.44-6.75-.32-.63-.65-1.27-.98-1.92-4.85-9.6-4.11-19.62-3.08-30.14 1.21-13.23.83-25.3-2.5-38.19-.34-1.66-.68-3.33-1-5h-2c-2-2.32-3.8-4.73-5.62-7.19-1.4-1.92-1.4-1.92-3.38-3.81-.99.5-.99.5-2 1v-2h-6l-1 2h-3v7c-1.98.5-1.98.5-4 1v-4h-2c-1.69-3.05-2.49-5.83-3.12-9.25-.17-.89-.34-1.78-.51-2.7-.18-1.02-.18-1.02-.37-2.05h-2c-2.13-6.54-3.04-13.2-4-20h-2z"/><path fill="#888c5e" d="M418 766h3v2c-.62.58-1.24 1.15-1.88 1.75-2.49 2.64-3.05 4.82-4.12 8.25-.72.89-.72.89-1.45 1.8-1.93 2.74-2.49 5.19-3.24 8.45-.37 1.62-.37 1.62-.76 3.27-.18.82-.36 1.64-.55 2.48h-2c-.13 1.26-.27 2.52-.41 3.81-.6 5.41-1.33 10.8-2.09 16.19-.13.95-.26 1.91-.39 2.89-.2 1.35-.2 1.35-.39 2.73-.17 1.23-.17 1.23-.35 2.48C403 824 403 824 402 825c-.38 3.71-.72 7.41-.99 11.12-.66 7.21-3.43 12.14-9.01 16.88-6.59 3.23-14.63 3.14-21.5.81-2.81-2.03-5.16-4.26-7.5-6.81l1-3c.46.49.92.99 1.39 1.5.61.64 1.23 1.28 1.86 1.94.6.64 1.21 1.27 1.83 1.93 4.79 4.06 12 3.06 17.92 2.63 5.26-1.69 7.47-4.12 10-9 2.69-7.42 2.2-15.23 2-23h-2c-.31-15.09-.31-15.09 2.38-19 1.62-1 1.62-1 4.62-1l1-4h-2q-.045-2.655-.06-5.31c-.01-.99-.03-1.97-.04-2.99.1-2.7.1-2.7 1.1-5.7h-2c.38-2.44.38-2.44 1-5l2-1c.5 2.48.5 2.48 1 5l3 1h-2c.5.99.5.99 1 2 .27-.51.53-1.02.81-1.54l3.63-6.9c.42-.8.84-1.6 1.27-2.43.41-.76.81-1.53 1.22-2.31.38-.71.75-1.42 1.13-2.15C417 767 417 767 418 766"/><path fill="#4c6b26" d="m263 714 10 2 1 3 5 1v2h9v-1c3.08-.29 3.08-.29 6.15-.59.61-.13 1.22-.27 1.85-.41l1-2c5.47 1.02 10.76 2.07 16 4-8.54 8.86-8.54 8.86-13.38 9.31-.86-.1-1.73-.2-2.62-.31v2l-5 1v2l-4 1v-2h-1c-1.54 4.63-1.51 9.17-1 14 2.06 4.04 4.69 6.93 8 10-3.94-1.31-6.38-2.75-9-6-2.61-5.75-2.65-11.19-1.25-17.25 2-4.4 3.98-6.26 8.5-8 .91-.25 1.81-.5 2.75-.75-.58-.05-1.16-.1-1.76-.15-.78-.07-1.56-.15-2.36-.23-1.15-.1-1.15-.1-2.33-.21-2.99-.48-5.67-1.44-8.55-2.41-1.31-.32-2.63-.63-3.95-.93-.68-.16-1.36-.31-2.07-.47-1.41-.32-2.82-.63-4.23-.92-4.37-1.02-6.92-2.17-9.75-5.68h5z"/><path fill="#7d8e6a" d="M244 648h2c-.24.84-.24.84-.48 1.7-1.51 6.68-1.1 12.67 2.36 18.61 3.65 5.48 6.85 6.44 13.12 7.69v3l7 2v6h-2v5c-2.99.78-5.96 1.39-9 2l-3 10h3c-.06 1.24-.12 2.48-.19 3.75-.01 3.03.08 4.07 1.69 6.75l1.5 1.5c-3.69-.92-4.95-1.94-7.31-5-2.33-4.54-2.38-9.02-1.69-14 1.31-3.56 1.31-3.56 3-6 1.49-.5 1.49-.5 3-1v-2l7-3c-.81-.6-1.62-1.21-2.45-1.83-1.08-.81-2.16-1.61-3.24-2.42-1.05-.79-2.11-1.58-3.2-2.39-1.02-.78-2.05-1.56-3.11-2.36-.9-.67-1.79-1.35-2.72-2.04-4.32-3.71-6.91-8.18-7.66-13.85-.09-4.62.02-8.05 2.38-12.11"/><path fill="#6f8356" d="M294 759h4v2c19.2 4.09 19.2 4.09 38 1 1.55.09 3.09.24 4.62.44.82.1 1.64.2 2.48.31.63.08 1.25.16 1.9.25-3 2-3 2-6.19 1.62-.93-.2-1.85-.41-2.81-.62v5c.99-.01 1.97-.02 2.99-.04 1.28 0 2.56-.01 3.89-.02 1.27-.01 2.55-.03 3.86-.04 3.26.1 3.26.1 5.26 1.1v4h2v7h-2l.69 2.05c.29.89.58 1.78.87 2.7l.88 2.67c.58 2.66.45 4.05-.44 6.58-.41-1.09-.82-2.19-1.25-3.31-.28-.73-.56-1.45-.84-2.19-.64-1.76-1.22-3.55-1.75-5.34l-.91-2.91c-.39-1.35-.39-1.35-.8-2.73-2.49-4.32-6.27-5.91-10.89-7.2-2.66-.59-5.32-1.1-8-1.57-.92-.17-1.84-.35-2.79-.52-2.26-.42-4.51-.83-6.77-1.23v-2c-.64-.04-1.29-.07-1.95-.11-7.56-.55-14.71-2.03-22.05-3.89v-2z"/><path fill="#4a6722" d="M336 764c6.75-.5 12.58-.46 18 4 5.05 6.27 7.98 15.28 10 23-.37 2.42-.37 2.42-1 4l-1-3c-.25.8-.5 1.61-.75 2.44-.41.84-.82 1.69-1.25 2.56-2.08.66-2.08.66-4 1-.86-2.77-1.72-5.54-2.56-8.31-.25-.79-.5-1.57-.75-2.38-.34-1.14-.34-1.14-.69-2.3-.22-.69-.43-1.39-.65-2.11-.35-1.9-.35-1.9.65-4.9l1 2 1-6h-2v-4l-2.48.04-3.27.02-3.23.04c-2.55-.08-4.6-.35-7.02-1.1v-2l-2-1h2z"/><path fill="#526c2f" d="M515 693h1c.41 7.62-.02 12.45-5.1 18.5-3.56 3.07-6.68 4.05-11.15 5.25-4.75.98-4.75.98-8.75 3.25-7.64.93-15.32 1.16-23 1v2l-4 1c-.14-.62-.29-1.24-.44-1.88-.49-2.15-.49-2.15-1.56-4.12.91-.1 1.81-.21 2.75-.31 3.33-.71 4.62-1.69 7.25-3.69l3 1c7.05.4 14.01-.16 21-1 1.22-.1 2.43-.21 3.69-.31 5.75-1.2 9.15-3.14 12.69-7.88 2.07-4.08 2.42-8.29 2.62-12.81"/><path fill="#516322" d="M402 782h2l-1 14h2l-1 7-1-2c-2.08.37-2.08.37-4 2-.83 2.83-1.02 5.69-1.25 8.62-.08.81-.15 1.61-.23 2.43-.19 1.98-.36 3.97-.52 5.95h2l1-3c.05 2.67.09 5.33.12 8l.06 2.25c.04 5.26-.72 9.7-2.18 14.75-.8-2.99-1.08-5.52-1-8.62.13-3.32.13-3.32-1-6.38h-2c-.89-14.7 2.18-30.15 7-44z"/><path fill="#cbd5bc" d="M433 661c.62 1.75.62 1.75 1 4-.43.84-.43.84-.88 1.69-1.5 3.1-2.06 6.19-2.74 9.56-.4 1.89-.4 1.89-.79 3.83-.2.96-.39 1.93-.59 2.92-3.71-1.24-4.6-3-7-6-4.89-1.63-10.24-2.29-15.04-.05-8.38 6.42-10.62 17.13-11.96 27.05-.16 3.6-.05 7.16.09 10.76l.12 6.08c.08 3.14.16 6.27.28 9.4.52 14.37-.52 25.48-8.49 37.76-.99.5-.99.5-2 1 .76-5.2 3.1-9.13 5.62-13.67 2.82-6.81 2.51-14.27 2.41-21.54-.02-1.74-.03-3.47-.04-5.21-.02-2.7-.05-5.39-.09-8.08-.18-15.86.39-28.62 8.91-42.44 3.76-3.54 7.61-4.93 12.76-5.19 4.31.22 7.41.57 10.55 3.69.93 1.21.93 1.21 1.88 2.44 1.53-4.28 2.58-8.5 3.44-12.95C431 664 431 664 433 661"/><path fill="#7ea547" d="m447 704 1 4h-2l1 7 2-1c2.33-.04 4.67-.04 7 0v3l-2.94 1.06c-4.16 1.77-7.41 4.39-10.9 7.22-2.62 2.09-5.34 3.91-8.16 5.72-.69-10.75-.69-10.75 1.88-14.69.7-.76 1.4-1.52 2.12-2.31h2l.94-1.88c.68-1.37 1.37-2.74 2.06-4.12h2z"/><path fill="#81926b" d="M497 638c2.9-.08 5.79-.14 8.69-.19.81-.02 1.63-.05 2.47-.07 4.81-.06 7.95.13 11.84 3.26 4 3.97 6.15 7.16 6.19 12.81-.03 3.83-.36 6.75-2.19 10.19h-2c.25-.93.25-.93.5-1.88.96-5.99 1.47-11.14-1.25-16.68-2.38-2.59-2.94-2.94-6.25-3.44-8.04.17-16.08 1.7-24 3v2c-1.98.73-3.98 1.39-6 2l-2-1v-3c1.77-.84 3.54-1.67 5.31-2.5.99-.46 1.97-.93 2.99-1.41C494 640 494 640 497 640z"/><path fill="#ccd6be" d="M317.313 638c4.81 3.58 9.63 7.89 10.69 14-2.15-2.08-4.03-4.04-5.75-6.5-3.38-3.76-7.29-6.05-12.34-6.82-4.55-.13-7.47.84-11.91 2.32l-3 15c-3.03-1.51-5.37-2.93-8.07-4.88-7.98-5.28-15.22-7.46-24.74-7.56-1.08-.01-1.08-.01-2.18-.03-4.73.08-7.95 1.08-12.01 3.47-.99.5-.99.5-2 1 1.38-3.43 2.63-4.73 6-6.25 7.1-2.91 13.93-2.63 21 .25 1.95.71 3.91 1.42 5.87 2.12 1.71.63 3.42 1.25 5.13 1.88v2c.93.29 1.85.58 2.81.88 3.19 1.12 3.19 1.12 6.19 3.12v-5h2c.08-.74.16-1.49.25-2.25.9-3.3 2.17-4.56 4.75-6.75 4.95-2.48 12.17-1.55 17.31 0"/><path fill="#7da549" d="M325.676 737.543c.44.48.87.96 1.32 1.46-6.4.23-11.84-.18-18-2l-2 6h-5v3h-6l-1 2-3-2c-.54-3.55-.46-5.32 1.57-8.32 6.42-4.45 26.14-5.64 32.11-.14"/><path fill="#436420" d="m400 685 6 2c-.52 3.36-1.15 6.64-1.97 9.94-1.3 5.82-1.72 11.68-2.15 17.62-.09 1.11-.18 2.21-.27 3.35-.21 2.7-.41 5.39-.61 8.09l-3-1c-.06-.75-.12-1.5-.18-2.27-.13-1.47-.13-1.47-.26-2.98-.08-.97-.16-1.95-.24-2.95-.27-2.36-.67-4.52-1.32-6.8h2l-.06-3.25c.06-3.75.06-3.75.56-5.6.65-2.8.56-5.4.5-8.27-.11-5.66-.11-5.66 1-7.88"/><path fill="#b8c2a8" d="M478 727c4.72 2.42 4.72 2.42 5.81 4.69.49 6.05.47 10.62-1.81 16.31h-2c-.28.84-.28.84-.56 1.69-2.67 4.28-6.37 6.73-11.15 8.07-3.05.58-6.09 1.06-9.17 1.49-2.08.31-4.16.63-6.24.95-.91.13-1.82.26-2.77.4-2.09.19-2.09.19-3.11 1.4-1.92.37-3.85.68-5.79.97-1.75.27-1.75.27-3.54.54-1.85.27-1.85.27-3.73.55-1.24.19-2.47.38-3.75.57-3.06.46-6.13.92-9.19 1.37l1-2c2.39-.65 2.39-.65 5.53-1.22 1.12-.21 2.24-.42 3.4-.64 2.38-.43 4.76-.85 7.14-1.28 1.12-.21 2.24-.42 3.4-.64 1.03-.19 2.07-.37 3.14-.57L447 759l1-2h13v-2c1.03.06 2.06.12 3.12.19 5.56-.27 8.55-1.98 12.63-5.69 3.28-3.64 4.5-5.87 4.87-10.69.08-.9.15-1.8.23-2.73.05-.69.1-1.37.15-2.08l-3-1c-.5-2.97-.5-2.97-1-6"/><path fill="#46661e" d="M401 729h1c.92 14.84 1.1 26.54-6.98 39.31-1.58 2.62-2.79 5.39-4.02 8.19-.59 1.31-.59 1.31-1.19 2.66-.27.6-.53 1.21-.81 1.84h-2c-.25-5.62-.25-5.62 2-9h-2l1-4v2h3v-3h2v-5h3c1.76-10.99 3.47-21.98 5-33"/><path fill="#516728" d="m386 768 1 4h2l-2 9 2 1-2 4-1-1-3 6h-2v-2h-2c-1.29-8.43-1.29-8.43 0-13l1 2h2l1-9z"/><path fill="#54682c" d="M418 766h3v2c-.62.58-1.24 1.15-1.88 1.75-2.49 2.64-3.05 4.82-4.12 8.25-.48.59-.96 1.19-1.45 1.8-1.93 2.74-2.49 5.19-3.24 8.45-.25 1.08-.5 2.16-.76 3.27-.18.82-.36 1.64-.55 2.48h-3l-1 3-2-1q-.045-2.655-.06-5.31c-.01-.99-.03-1.97-.04-2.99.1-2.7.1-2.7 1.1-5.7h-2c.38-2.44.38-2.44 1-5l2-1 1 5 3 1h-2l1 2c.27-.51.53-1.02.81-1.54l3.63-6.9c.42-.8.84-1.6 1.27-2.43.41-.76.81-1.53 1.22-2.31.38-.71.75-1.42 1.13-2.15C417 767 417 767 418 766"/><path fill="#7f916b" d="m460.438 632.625 2.81-.09c3.67.62 5.24 1.73 7.75 4.47.71 3.23.71 3.23.82 6.74.04 1.18.09 2.35.14 3.55.01.89.03 1.79.04 2.71-.99-.34-1.98-.66-3-1v-11c-2.31-.34-4.62-.66-7-1v-2h-4v2c-.71.1-1.42.2-2.16.3-5.74 1.13-9.27 2.37-12.78 7.2-3.18 5.19-5.28 10.68-7.06 16.5h-2c1.09-9.14 6.54-17.55 13-24h4v-2c3.22-1.9 5.72-2.33 9.44-2.38"/><path fill="#80a54b" d="M353.25 688.563c3.39.54 4.69 1.94 6.75 4.64 1.57 2.82 1.81 5.61 2 8.8l-3-1v2l4 1-1 4v-3c-.6.18-1.2.37-1.81.56-2.19.44-2.19.44-5.19-.56l-1-3 1-2h-3v-2h-2c-.1-6.15-.1-6.15 0-8 1-1 1-1 3.25-1.44"/><path fill="#57693b" d="M372 710h1c1.14 4.55 1.15 8.91 1.12 13.56v2.45c-.04 5.21-.37 10.32-.91 15.5-.18 3.03-.21 5.98-.17 9.01.01.99.02 1.98.04 3.01.03 2 .07 4 .13 5.99.02.93.03 1.85.05 2.8l.06 2.51c-.39 2.65-1.27 3.51-3.32 5.17-1.13-6.83-.89-13.26-.44-20.16.07-1.14.13-2.28.2-3.46.22-3.63.45-7.25.68-10.88.15-2.47.3-4.94.44-7.41.37-6.03.74-12.06 1.12-18.09"/><path fill="#d0d9c2" d="M369 692c2.11 2.11 2.63 3.29 3.56 6.06.25.72.5 1.43.76 2.16 1.81 7.36 1.84 14.86 1.8 22.4.01 1.49.01 1.49.01 3-.02 5.23-.16 10.42-.5 15.64-.06 1.02-.12 2.03-.19 3.08a224 224 0 0 1-.44 5.77c-.56 8.64 2.44 14.83 6.25 22.39C382 776 382 776 382 778h-2c-1.15-2.25-2.3-4.5-3.44-6.75-.49-.95-.49-.95-.98-1.92-4.85-9.6-4.11-19.62-3.08-30.14 1.1-12 1.13-23.38-1.77-35.11-.95-4.02-1.38-7.96-1.73-12.08"/><path fill="#85966f" d="m263 714 10 2 1 3 5 1v2h9v-1c3.38.25 3.38.25 7 1 1.44 2.06 1.44 2.06 2 4-3.71.94-6.33.97-10.05.11-1.42-.32-1.42-.32-2.87-.65-.97-.24-1.95-.47-2.96-.71-.96-.22-1.93-.44-2.93-.66-14.34-3.34-14.34-3.34-18.19-8.09h5z"/><path fill="#4f6633" d="M273 644c8.65 2.2 14.92 6.78 22 12v-7h1l1 10-5 3v-2l-3-2 1-1-2-1v-2h-8v-2c-2.48-.99-2.48-.99-5-2v-3h-5z"/><path fill="#51651f" d="M378 775h1v14h2v2h2l.88-2.88C385 785 385 785 387 783c-.52 5.01-1.37 9.22-3 14-.38 2.33-.72 4.66-1 7h-3l-.3-1.65c-.85-4.31-1.94-8.12-3.82-12.1-1.54-3.24-2.35-5.6-1.88-9.25l3-1z"/><path fill="#8a8134" d="M371 825h1l2 13 10 1v3h-5v2c1.32-.45 2.63-.91 3.94-1.38.73-.25 1.46-.51 2.21-.77 2.04-.7 2.04-.7 2.85-2.85h3c-1.3 2.89-2.52 5-5 7-4.8.9-8.85.68-13.06-1.81-3.04-3.43-3.08-6.28-3.06-10.69-.01-.96-.01-1.92-.01-2.91C370 828 370 828 371 825"/><path fill="#496b1d" d="M314 645h8v9l3 1c1.65 2.6 2 3.86 2 7h2v4h-2v2h-2c-.45-.94-.89-1.88-1.36-2.85-.61-1.26-1.22-2.52-1.83-3.77l-.88-1.88c-1.62-3.3-3.27-6.03-5.73-8.77-.73-.9-1.45-1.8-2.2-2.73z"/><path fill="#50682f" d="M369 696h1c3.04 10.89 3.11 20.24 2.19 31.38l-.33 4.57c-.27 3.69-.56 7.37-.86 11.05h-2l.03-2.57c.04-3.16.06-6.33.08-9.49.01-1.37.02-2.73.04-4.1.03-1.97.04-3.94.05-5.91l.03-3.59c-.24-3.43-1-6.14-2.23-9.34l-3 1v-4h4z"/><path fill="#80a849" d="M332 698c1.62 2.43 2.62 4.31 3.62 7 .27.68.53 1.36.79 2.06.59 1.94.59 1.94.59 4.94h2c1.54 1.64 1.54 1.64 3.19 3.81.55.71 1.1 1.42 1.67 2.15.56 1.01.56 1.01 1.14 2.04l-1 3c-2.25-.12-2.25-.12-5-1-4-5.08-4-5.08-4-8h-2c-2.54-2.61-3.92-4.13-4.25-7.81.08-.72.17-1.45.25-2.19l4 2z"/><path fill="#dae4cc" d="m328 652 1 2h2c.34.95.68 1.91 1.02 2.89.45 1.26.9 2.53 1.36 3.8.44 1.24.88 2.48 1.33 3.76.74 2.05 1.52 4.08 2.38 6.08 1.13 3.07 1.58 6.05 2.03 9.28.17 1.16.34 2.33.51 3.52.12.88.25 1.76.37 2.67h2c.25-.62.5-1.24.75-1.88 1.52-2.58 2.48-3.04 5.25-4.12 2.58-.2 2.58-.2 5.25-.12.89.01 1.78.03 2.7.05.68.02 1.35.05 2.05.07v1c-.74.09-1.47.17-2.23.26-6.16.89-9.78 1.6-13.77 6.74l-2 2c-1.69-3.05-2.49-5.83-3.12-9.25-.17-.89-.34-1.78-.51-2.7-.18-1.02-.18-1.02-.37-2.05h-2c-2.13-6.54-3.04-13.2-4-20h-2z"/><path fill="#92a080" d="m521 664 1 3a1017 1017 0 0 1-5.08 5.27c-1.9 1.71-3.62 2.66-5.92 3.73l-1.5 1.5c-1.69 1.69-3.34 2.53-5.5 3.5l3 1v2q1.14.375 2.31.75c2.93 1.36 3.99 2.57 5.69 5.25l-1 2c-.64-.72-1.28-1.44-1.94-2.19-3.46-3.5-7.71-5.58-12.06-7.81 3.57-3.82 3.57-3.82 6.12-4.88 2.85-1.7 3.04-4.02 3.88-7.12l1-2c2.03-.23 4.05-.44 6.09-.56 2.31-.3 2.31-.3 3.91-3.44"/><path fill="#7b682c" d="M393 816h1v11h4c.11 2.54.19 5.08.25 7.62l.1 2.17c.1 5.22-.95 8.04-4.35 12.21-3.4 3-3.4 3-6 3 1-3 1-3 3.44-5.38 2.49-2.54 3.51-4.27 4.56-7.62h-2l-1-5h-1c-.1-6.11.23-11.93 1-18"/><path fill="#526935" d="M322 645c2.28 2.17 4.31 4.34 6 7v4h2c2.25 4.5 2.17 8.08 2 13l-2-1-2 4-2-1 1-5h2v-4h-2c-.43-1.09-.87-2.19-1.31-3.31-.98-2.34-1.5-3.52-3.44-5.19-1.25-1.5-1.25-1.5-.94-5.19.23-1.09.46-2.18.69-3.31"/><path fill="#656121" d="M367 810h1c.84 4.35 1.11 8.44 1.06 12.88-.01 1.15-.02 2.3-.02 3.49-.02.87-.03 1.73-.04 2.63h-2v-2h-2c.17.71.35 1.41.53 2.14.5 3.06.37 5.59.03 8.67-.1.98-.2 1.95-.31 2.96-.12 1.1-.12 1.1-.25 2.23l-2-1c-1.81-7.24-1.24-14.72 0-22h4z"/><path fill="#dcd3ba" d="M400 830h1c.37 6.81-.17 13.18-4.36 18.83-3.75 3.98-7.22 5.94-12.76 6.47-8 .03-12.74-.36-18.76-5.99-.7-.76-1.4-1.52-2.12-2.31l1-3c.46.49.92.99 1.39 1.5l1.86 1.94c.6.64 1.21 1.27 1.83 1.93 4.79 4.06 12 3.06 17.92 2.63 4.18-1.34 6.8-3.1 9.12-6.91 2.02-4.8 2.88-10 3.88-15.09"/><path fill="#7ca346" d="M327 720c4.2 3.74 6.08 6.84 8 12-2.57 1.78-3.69 2.06-6.81 1.5-4.03-1.89-6.97-4.47-10.19-7.5 3.38-.98 5.57-.86 9 0z"/><path fill="#4b6c25" d="M517 642.25c1 1.75 1 1.75 1 4.75h3v11l-2-1-1-3-2 2v-2.75c-.65-3.28-.65-3.28-2.85-4.54A77 77 0 0 0 507 646l3-1v-2l-3-1c7.45-1.34 7.45-1.34 10 .25"/><path fill="#a8ad8c" d="M355 795c.99 1.49.99 1.49 2 3 .53.46 1.06.92 1.61 1.39 1.87 2.17 1.7 3.49 1.58 6.3-.03.81-.06 1.61-.08 2.45-.04.61-.07 1.23-.11 1.86l2 1 1 33h-1c-.08-.86-.08-.86-.17-1.73-.25-2.57-.51-5.14-.77-7.71-.08-.9-.17-1.79-.26-2.72-.09-.85-.18-1.71-.26-2.59-.12-1.18-.12-1.18-.24-2.39-.12-1.87-.12-1.87-1.3-2.86-.28-1.46-.51-2.93-.72-4.41-.13-.91-.25-1.82-.39-2.75-.13-.96-.26-1.92-.39-2.9-.13-.93-.26-1.86-.39-2.82-.75-5.37-1.45-10.74-2.11-16.12"/><path fill="#4f652d" d="m351 778 2 2 3-1v3h2l-1 10h2v-3h2l1-3c2.09 4.43 2.09 4.43 1.62 7.31-.2.56-.41 1.12-.62 1.69l-1-3c-.25.8-.5 1.61-.75 2.44-.41.84-.82 1.69-1.25 2.56-2.08.66-2.08.66-4 1-.84-2.77-1.67-5.54-2.5-8.31-.24-.79-.48-1.57-.72-2.38-.23-.76-.45-1.52-.69-2.3-.21-.69-.42-1.39-.63-2.11-.46-1.9-.46-1.9-.46-4.9"/><path fill="#507226" d="M315 725c3.57.59 5.5 1.99 8.19 4.38l2.1 1.83C327 733 327 733 328 736h-29c3.02-3.02 6.56-2.47 10.62-2.62l2.43-.12c1.99-.1 3.97-.18 5.95-.26l2-4h-2l-1 2-1-2-2-1z"/><path fill="#4f692e" d="M304 638c6.27-.45 10.77.33 16 4 .99 1.49.99 1.49 2 3-1.99.23-3.97.46-5.96.68-2.23.29-2.23.29-5.04 1.32-2.01-.28-4.01-.6-6-1l4-2-2-2h-3z"/><path fill="#ced7c0" d="M515 693h1c.41 7.62-.02 12.45-5.1 18.5-3.56 3.07-6.68 4.05-11.15 5.25-4.75.98-4.75.98-8.75 3.25-6.63.78-13.32 1.16-20 1v-1c.55-.08 1.11-.15 1.68-.23 21.06-1.98 21.06-1.98 38.73-12.33 2.89-4.48 3.35-9.21 3.59-14.44"/><path fill="#4d6630" d="m448 757-1 3c-2.56.53-5.12 1.05-7.69 1.56-1.08.23-1.08.23-2.18.46-3.96.78-7.22 1.35-11.13-.02l-1-2c7.94-3.81 14.33-4.39 23-3"/><path fill="#748e3c" d="M402 774h2c-1.38 6.59-3.1 13-5.06 19.44-.27.89-.54 1.79-.82 2.71-1.98 6.58-1.98 6.58-3.12 8.85h-2v-6l2-1c.7-2.67.7-2.67 1.12-5.81.17-1.06.34-2.12.51-3.21.45-3.14.45-3.14.37-6.98q1.47-1.53 3-3c1.19-2.6 1.19-2.6 2-5"/><path fill="#4f7126" d="M473 742c1 2 1 2 .06 5.12-.52 1.43-.52 1.43-1.06 2.88h-2v2c-4.14 1.33-9.03 1.98-13 0-1.71-.07-3.42-.08-5.12-.06-.92.01-1.83.02-2.76.02L447 752v-1c1.21-.15 2.41-.29 3.66-.45 12.37-1.5 12.37-1.5 22.34-8.55"/><path fill="#8ab052" d="M497 692c3.22-.22 5.43-.27 8.38 1.12C507 695 507 695 507.5 697.94c-.61 3.7-1.48 4.88-4.5 7.06h-4v-5h2l-1-3h2v-2h-3v-2z"/><path fill="#486522" d="M438 667h2c-.52 5.85-1.55 10.64-4 16l-3 1-3-2c-.39-4.24-.32-7.37 2-11l4 4c.14-1.13.29-2.27.44-3.44C437 668 437 668 438 667"/><path fill="#496327" d="m510 691 2 3 2-1c.08 1.75.14 3.5.19 5.25.03.97.07 1.95.1 2.95-.33 3.21-1 4.55-3.29 6.8h-3v-3h2v-3l-3 1 1-8h2z"/><path fill="#7f6430" d="M366 840c2 1.19 2 1.19 4 3 .25 2.69.25 2.69 0 5h3v3h13l1 2c-1.9.05-3.79.09-5.69.12-1.05.03-2.11.05-3.2.08-5.3-.34-8.31-2-11.92-5.82-.91-.95-.91-.95-1.83-1.92-.68-.72-.68-.72-1.36-1.46 1-2 1-2 3-4"/><path fill="#6e5f22" d="M399 817h1c.05 2.67.09 5.33.12 8l.06 2.25c.04 5.26-.72 9.7-2.18 14.75-.8-2.99-1.08-5.52-1-8.62.13-3.32.13-3.32-1-6.38h-2v-7h5z"/><path fill="#527726" d="m450 726 1 2h18l1 4c-.69-.16-1.39-.33-2.1-.49-3.16-.56-6.09-.62-9.29-.61-1.81.01-1.81.01-3.65.01l-3.77.03c-1.27 0-2.53.01-3.84.01-3.11.01-6.23.03-9.35.05l1-4 11 1z"/><path fill="#54673e" d="M516 641c4.28 1.53 6 4 8 8 1.04 6.19.04 11.03-2.93 16.5C520 667 520 667 518 668l1-5h2v-16h-3z"/><path fill="#566b36" d="M374 765c2.66 3.14 4.11 5.97 5 10-.88 3.38-.88 3.38-2 6h-3l-1 3-1-5h2l-1.12-1.94c-1.25-4.36-.09-7.78 1.12-12.06"/><path fill="#c5d0b6" d="m296 727 1 2-3.31 1.31c-2.78 1.2-4.84 2.22-6.69 4.69-1.54 4.63-1.51 9.17-1 14 2.06 4.04 4.69 6.93 8 10-3.94-1.31-6.38-2.75-9-6-2.61-5.75-2.65-11.19-1.25-17.25 1.41-3.11 2.53-4.69 5.25-6.75 3.75-1.25 3.75-1.25 7-2"/><path fill="#526b36" d="M298 726h3v2h2v-2l3 1c-1.12 2-1.12 2-3 4-3.19.25-3.19.25-6 0v2l-5 1v2l-4 1v-2l2-1v-3c1.13-.45 2.27-.91 3.44-1.38 3.61-1.19 3.61-1.19 4.56-3.62"/><path fill="#5a6d3f" d="M499 681c5.88 2.68 10.75 5.07 15 10l1 1c.07 1.69.08 3.38.06 5.06-.01.92-.02 1.84-.02 2.79-.02.71-.03 1.42-.04 2.15h-1c-.19-1.7-.19-1.7-.38-3.44-.2-1.17-.41-2.35-.62-3.56l-2-1-1-3-3-1v-2h-3v-2h-5z"/><path fill="#dfe7d6" d="M244 648h2c-.24.84-.24.84-.48 1.7-1.41 6.25-1.3 12.55 1.86 18.21 3.58 4.62 8.17 8.34 12.62 12.09-5.44 0-9.21-4.39-13-8-4.52-5.5-5.54-10.49-5.37-17.52.38-2.54 1.09-4.27 2.37-6.48"/><path fill="#83ab44" d="m352 690 1 3h5l1 6-4 3v-2h-3v-2h-2v-7z"/><path fill="#95a57f" d="m254 675 7 1v3l7 2v6c-5.44 1.49-5.44 1.49-11 3v-2l7-3-2.19-2.19z"/><path fill="#486c1d" d="M257 669c4.22 1.49 7.62 3.61 11.31 6.12 1.07.73 2.14 1.45 3.24 2.2L274 679l-2 2h-3l-2-3c-2.56-.73-2.56-.73-5-1v-2h-4v-2l-2-1z"/><path fill="#8d9d77" d="M358 681c2.78.08 4.53.6 6.67 2.41 2.84 3.07 4.24 4.78 4.71 9.03-.13.84-.25 1.69-.38 2.56-.99.5-.99.5-2 1-2.39-2.96-4.74-5.94-7-9l3-2z"/><path fill="#756620" d="M369 825h1l1 17-2-1v-2h-4v-12h2v2h2z"/><path fill="#526834" d="M286 745h2l1 5 4 1v2h3c1 3 1 3 0 6-4.88-1.39-7.08-3.94-10-8-.88-2.25-.88-2.25-1-4z"/><path fill="#476128" d="M304 760h14v2c.62.12 1.24.25 1.88.38C322 763 322 763 324 765c-13.63-.78-13.63-.78-20-3z"/><path fill="#dce3cd" d="M418 766h3v2c-.62.58-1.24 1.15-1.88 1.75-2.49 2.64-3.05 4.82-4.12 8.25-.48.59-.96 1.19-1.45 1.8-1.93 2.74-2.49 5.19-3.24 8.45-.25 1.08-.5 2.16-.76 3.27-.18.82-.36 1.64-.55 2.48h-2c.75-8.87 4.47-21.47 11-28"/><path fill="#58703d" d="M468 723c3.9.27 5.76.81 8.88 3.25 2.12 2.75 2.12 2.75 2.43 5.56-.15 1.09-.15 1.09-.31 2.19l-3-1v-2h-4c-1.06-2.38-1.06-2.38-2-5l1-2h-2l-1 2z"/><path fill="#4a6c20" d="M420 680v2l5 1c-.99 1.49-.99 1.49-2 3-.17 3.13-.17 3.13 0 6-.25-.56-.5-1.11-.75-1.69-1.47-2.71-3.28-4.95-5.25-7.31-5.35.37-7.51 2-11 6 .26-2.34.59-4.68 1-7 2.26-1.13 3.99-1.31 6.5-1.56 1.19-.13 1.19-.13 2.41-.26C418 680 418 680 420 680"/><path fill="#53712f" d="M307 755c1.6.11 3.21.24 4.81.38.9.06 1.79.13 2.71.21C317 756 317 756 320 758c-1.7.22-1.7.22-3.44.44-3.37.17-3.37.17-4.56 1.56-2.67.14-5.32.04-8 0v2c-2.97-.5-2.97-.5-6-1v-1c.57-.11 1.13-.22 1.71-.33 1.11-.24 1.11-.24 2.23-.48.73-.15 1.46-.3 2.21-.46.61-.24 1.22-.48 1.85-.73z"/><path fill="#4f6d2e" d="M259 699h1c2 5.62 2 5.62 2 9l-3-2c.34 2.47.34 2.47 1 5l2 1v4c-2.47-1.15-4.05-2.05-6-4-.2-2.38-.2-2.38-.12-5.12.01-.92.03-1.83.05-2.76.02-.7.05-1.4.07-2.12l3-1z"/><path fill="#b0bea1" d="M267 640c2.29 1.53 2.29 1.53 4 3-1.74.06-1.74.06-3.51.11-1.54.07-3.08.14-4.61.2-1.15.04-1.15.04-2.31.07-4.89.23-8.27 1.08-12.57 3.62-.99.5-.99.5-2 1 1.39-3.43 2.63-4.73 6-6.25 4.9-2 9.77-2.75 15-1.75"/><path fill="#59641a" d="M365 804c3.02 3.02 2.47 6.56 2.62 10.62l.12 2.43c.1 1.99.18 3.97.26 5.95l-1-3h-4c-.24-5.63.61-10.55 2-16"/><path fill="#556735" d="M419 762h6l1 2-3.69.94c-4.83 1.75-6.32 4.71-8.5 9.2-.27.61-.53 1.23-.81 1.86-2-3-2-3-1.62-5.06.3-.96.3-.96.62-1.94v-2h2l1-4 4 2z"/><path fill="#4e7023" d="M506 701c2.12.38 2.12.38 4 1v3h-2v2h-3v2h-11c2.45-2.45 5.01-3.54 8.12-5 2.05-.97 2.05-.97 3.88-3"/><path fill="#7b8a60" d="m386 768 1 4h2c-1.26 3.88-2.42 5.94-6 8h-3v-2h2l1-9z"/><path fill="#4b622b" d="M454.04 752.805c1.78.03 1.78.03 3.59.07 1.78.03 1.78.03 3.6.05.91.03 1.83.05 2.77.08v2l2 1-5-1v2c-3.54 1.18-6.28 1.27-10 1l-2-3c2-2 2-2 5.04-2.2"/><path fill="#526937" d="M335 675c.99.5.99.5 2 1 .82 2.58.82 2.58 1.56 5.81.25 1.06.5 2.12.76 3.21.22.98.45 1.97.68 2.98.33 1.33.66 2.67 1 4-3.75 1.12-3.75 1.12-6 0z"/><path fill="#5e661d" d="M397 797c.19.96.19.96.38 1.94.3 1.02.3 1.02.62 2.06l2 1-1 1c-.4 2.86-.75 5.7-1.06 8.56-.09.81-.18 1.62-.28 2.45L397 820h-3c.31-3.08.62-6.17.94-9.25.08-.87.17-1.75.26-2.64.09-.85.18-1.69.26-2.56.08-.78.16-1.55.24-2.35.29-2.13.74-4.13 1.3-6.2"/><path fill="#54673c" d="m477 747 1 3c-7.34 5.73-7.34 5.73-12 6l-2-1v-2l6-1v-2h2v-2c3-1 3-1 5-1"/><path fill="#d8e1ca" d="M271 642c4.5 1.07 8.75 2.14 13 4v2c.93.29 1.86.58 2.81.88C290 650 290 650 293 652v-5l2 1-1 6c-4.25-.39-6.55-2.11-9.89-4.66-4.02-2.55-8.6-3.88-13.11-5.34z"/><path fill="#586b3d" d="M499 715c-5.91 3.18-12.3 4.34-19 4v-3c6.69-1.49 12.24-2.28 19-1"/><path fill="#9da98c" d="m328 652 1 2h2c2.87 7.03 4.67 13.4 5 21l-2 1c-2.13-6.54-3.04-13.2-4-20h-2z"/><path fill="#4a6b1c" d="M329 667c2.02 1.05 2.02 1.05 4 3 .17 3.36.17 3.36-.25 7.19-.13 1.27-.26 2.54-.39 3.85-.12.98-.24 1.95-.36 2.96-2-1-2-1-3.19-4-1.19-4.43-.56-8.54.19-13"/><path fill="#d6dec7" d="M340 771c2.76.52 5.33 1.11 8 2 3.26 5.6 7.81 13.65 6.57 20.3-.19.56-.37 1.12-.57 1.7l-1.25-3.31c-.28-.73-.56-1.45-.84-2.19-.64-1.76-1.22-3.55-1.75-5.34-1.94-6.53-1.94-6.53-6.91-10.85-1.07-.43-2.14-.86-3.25-1.31z"/><path fill="#a3b092" d="M331 765h5v4h4v2c-6.71-.77-13.35-1.86-20-3v-2c1.46.14 2.92.29 4.38.44 1.21.12 1.21.12 2.46.24C329 767 329 767 331 768z"/><path fill="#475f27" d="m288 733 3 1-3 1 3 2-1 6h-3l-2 4c-.32-5.5-.53-9.44 3-14"/><path fill="#517326" d="M345 702h1v16c-4-1-4-1-6-3 .38-2.12.38-2.12 1-4l4-1z"/><path fill="#80a64d" d="M481.25 709.438c.89.1 1.78.2 2.7.31.68.08 1.35.17 2.05.25v1c-.79.12-1.58.24-2.39.37-1.63.25-1.63.25-3.3.51l-14.62 2.25c-1.64.25-1.64.25-3.3.51-.79.12-1.58.24-2.39.36l1-3c.75-.13 1.5-.26 2.27-.4 1.47-.26 1.47-.26 2.98-.54.97-.17 1.95-.34 2.95-.52 2.69-.47 2.69-.47 4.83-1.13 2.52-.52 4.67-.27 7.22.03"/><path fill="#dce5cc" d="M510 676v2l-6 3 3 1v2q1.14.375 2.31.75c2.93 1.36 3.99 2.57 5.69 5.25l-1 2c-.64-.72-1.28-1.44-1.94-2.19-3.46-3.5-7.71-5.58-12.06-7.81 5.6-6 5.6-6 10-6"/><path fill="#8bb152" d="M465 642c1 1 1 1 1.1 3.29-.01.91-.03 1.83-.04 2.77-.01.92-.02 1.84-.02 2.79-.02.71-.03 1.42-.04 2.15h-2v-6h-7v-2h5v-2l-4 1v-2c3.14-1.05 3.99-1 7 0"/><path fill="#546839" d="M505 707c2.97.5 2.97.5 6 1-2.98 3.33-5.85 5.32-10 7l-3-1v-2h2v-2l5-1z"/><path fill="#547521" d="M304 662h1c.29 1.24.58 2.48.88 3.75.74 3 1.7 5.5 3.12 8.25v3c-3.94-1.31-6.23-2.92-9-6l3-2c.74-3.57.74-3.57 1-7"/><path fill="#495f1d" d="M361 790c2.27 2.27 2.94 3.84 3.1 7.04-.03 1.99-.07 3.97-.1 5.96l-1-3h-3l-2 3-1-8 1 2h2z"/><path fill="#94a381" d="M288 721c3.38.25 3.38.25 7 1 1.44 2.06 1.44 2.06 2 4-4.23 1.19-7.1.72-11.31-.44-1.07-.28-2.14-.57-3.24-.87-.81-.23-1.62-.45-2.45-.69v-1l8-1z"/><path fill="#516938" d="m441 647 4 1-1 5-3 1v2h-4c1.06-3.4 2.01-6.01 4-9"/><path fill="#4f7025" d="M275 647v2c-.99.5-.99.5-2 1l2 1v2c-.76-.31-1.53-.62-2.31-.94-4.86-1.4-9.66-1.72-14.69-2.06v-1c5.76-1.3 11.09-2.26 17-2"/><path fill="#527226" d="M422 685h2v26h-2c-.06-1.06-.12-2.12-.18-3.22-.61-10.42-.61-10.42-1.82-20.78.99.5.99.5 2 1z"/><path fill="#85ac50" d="M418 687c1.49.99 1.49.99 3 2 .34 1.97.34 1.97.29 4.35l-.03 2.58c-.02.89-.05 1.78-.07 2.69l-.04 2.72q-.06 3.33-.15 6.66h-1c-1.72-7.09-2.25-13.71-2-21"/><path fill="#516538" d="M247 647c1.47 2.94.85 5.37.56 8.62-.15 1.79-.15 1.79-.31 3.61-.12 1.37-.12 1.37-.25 2.77h-3c-.55-10.56-.55-10.56 3-15"/><path fill="#719a3e" d="m304 745 2 1-2 4h2v3h7v3c-1.79-.28-3.58-.58-5.38-.88-.99-.16-1.99-.32-3.02-.49C302 754 302 754 300 752l2-1v-4z"/><path fill="#46681c" d="M318 733v1l-3.54.15c-1.55.07-3.1.15-4.65.23l-2.33.09c-4.29.22-7.48.85-11.48 2.53l-3-1c7.41-5.5 16.35-4.05 25-3"/><path fill="#456a18" d="M259 706c4.11 1.45 7.5 3.4 11 6v2c-1.65-.31-3.29-.62-4.94-.94-.91-.17-1.83-.35-2.77-.52C260 712 260 712 259 711c-.04-1.67-.04-3.33 0-5"/><path fill="#436125" d="M437 656h2c2.17 2.82 3.09 4.22 2.69 7.81q-.345 1.08-.69 2.19l-4-1c-1.12-6.75-1.12-6.75 0-9"/><path fill="#4e6436" d="M480 734h2c.11 1.56.19 3.12.25 4.69.05.87.09 1.74.14 2.63-.51 3.48-2.05 5.13-4.39 7.68.14-2.31.29-4.63.44-6.94.08-1.29.16-2.57.24-3.9C479 735 479 735 480 734"/><path fill="#4a6426" d="M319 645h3v9l3 1c.69 2.06.69 2.06 1 4-1.88-.62-1.88-.62-4-2-1.25-3.12-1.25-3.12-2-6h-2c-.04-1.67-.04-3.33 0-5z"/><path fill="#4b6422" d="m408 770 2 2c-.24 1.95-.24 1.95-.88 4.12-.2.73-.4 1.45-.61 2.2q-.255.825-.51 1.68h2l-1 5c-2-1-2-1-3.12-3.75-.8-2.95-1.06-5.22-.88-8.25l3-1z"/><path fill="#516337" d="M391 758h1c.08 4.16-.02 7.95-1 12h-3c-.95-2.6-1.3-4.31-.18-6.89 1.01-1.74 2.09-3.43 3.18-5.11"/></svg>