<svg class="imported-crop imported-crop--carrot imported-crop--stage03" xmlns="http://www.w3.org/2000/svg" viewBox="0 0 768 1024">
  <g class="crop-part crop-part--leaves" data-group-id="leaves-1782123044835" data-layer-index="0">
    <path fill="#c7a155" d="M499 341h1l1 20 8-1v5h2v2h-2v2h-2l.273 2.168c-.374 3.882-2.006 5.332-4.648 8.144l-2.461 2.676C498 384 498 384 496 384l-.75 1.562c-2.497 4.869-5.172 9.382-8.375 13.813-4.586 6.465-8.463 13.324-12.442 20.17a1665 1665 0 0 1-7.995 13.517l-1.591 2.689-1.476 2.472-1.315 2.211L461 442h-1l-.113-3.445c-.392-9.824-1.508-18.983-3.887-28.555q-.848-3.687-1.688-7.375-.654-2.812-1.312-5.625l-4-1 .459 2.228c.69 3.38 1.366 6.764 2.041 10.147l.723 3.504c1.345 6.802 2.134 13.186 1.777 20.121l-2-2c-2.616.327-4.641.82-7 2v2.375c0 3.123-.195 5.607-1 8.625l-2-1-1 3-.586-3.84-.789-5.098-.383-2.517c-.636-4.087-1.342-8.124-2.273-12.154-3.531-15.407-6.268-34.439 1.781-48.703 2.674-4.122 5.07-7.076 9.25-9.688 3.062-.625 3.062-.625 6 0 7.832 5.781 9.756 16.051 11.75 25.062l.668 2.913q.804 3.51 1.582 7.025.716-2.35 1.43-4.703l.804-2.646c2.54-8.791 3.267-17.534 3.766-26.651l2 3 1.75-2.938c2.343-3.189 2.652-3.442 6.25-4.062l1-3c2.602-1.648 3.862-2 7-2l1 6 5 1zm38 46c3.343-.074 5.804-.065 9 1l2.812.25c4.359 1.025 6.093 2.507 9.188 5.75.688 2.5.688 2.5 0 5-5.315 6.809-13.228 9.326-21.312 11.375q-2.371.635-4.739 1.277l-2.455.664C511.501 417.252 499.225 422.422 487 437c4.655 3.569 9.348 3.682 15 4l1 3h-2v2l4 1c-18.267 4.99-18.267 4.99-25.062 3.188C478 449 478 449 477 447c-2.527-.656-2.527-.656-5-1v-2h-2c1.256-9.841 6.509-19.436 14-26h2l.816-1.824c5.372-9.874 19.632-15.919 29.657-19.309 5.228-1.285 10.185-1.307 15.527-.867l3-7h2z"/><path fill="#7b5d2c" d="M600 485c.682 3.143 1.342 6.29 2 9.438l.578 2.662c2.952 14.286 2.952 14.286-.078 19.462L601 518l-5-1c-.8 3.287-1.097 4.71 0 8l-1 3-21-1v-1l7-1v-10h-14l1-3c3.015-1.005 5.042-1.103 8.188-1.062l2.73.027L581 511v-9c-6.436 3.17-12.822 6.349-19 10l3 1v3l-2.414 1.102c-6.311 2.994-10.91 5.73-15.586 10.898h-2v2c-1.398 1.41-1.398 1.41-3.375 3.062a444 444 0 0 0-10.125 8.876L527 546h21v5l-3.848.48c-10.927 1.451-20.834 3.617-31.152 7.52l-3 1c0-3 0-3 2-5l1-2-3-1a90 90 0 0 1 4-4h2l.75-1.734c1.443-2.616 3.132-4.414 5.25-6.516l2.125-2.141C526 536 526 536 528 536l.785-1.801c1.312-2.374 2.585-3.646 4.653-5.387l2.183-1.843L538 525l2.41-2.031c7.439-6.194 15.161-11.997 22.949-17.741a130 130 0 0 0 3.926-3.08C569 501 569 501 572 501v-3c5.78-4.819 12.488-7.864 19.59-10.176 2.418-.765 2.418-.765 4.601-1.929C598 485 598 485 600 485"/><path fill="#b8924c" d="M412 437c1.078.792 2.136 1.61 3.188 2.438l1.792 1.371c6.515 7.068 8.406 15.568 10.332 24.753l.799 3.635q.964 4.398 1.889 8.803c2.691-3.423 4.172-6.653 5.688-10.75l1.324-3.547L438 461l1 4c2.555-1.283 2.555-1.283 5-3v-3l1-2h5l-.562 1.75c-.616 2.217-.616 2.217.164 4.184.62 3.216-1.335 4.892-3.075 7.464-1.885 3.212-3.204 6.572-4.527 10.04-1.62 4.236-3.278 8.291-5.625 12.187-2.676 4.528-4.01 9.299-5.461 14.332-1.053 3.507-2.372 6.728-3.914 10.043h-1l-.148-1.688c-.443-4.519-1.132-8.772-2.329-13.167-.593-2.431-.956-4.859-1.335-7.333-.737-4.263-1.961-7.946-3.626-11.937-3.152-7.765-4.324-15.637-5.562-23.875q-.494-3.001-1-6h-3c1.533 13.669 3.304 26.586 7.922 39.598 1.674 4.73 2.399 8.369 2.078 13.402l-1.562-.875c-3.062-1.413-6.187-2.25-9.438-3.125l-1-6h-3a286 286 0 0 1-1.562-5.438l-.879-3.058c-1.285-8.058 1.053-16.302 2.691-24.192l.659-3.183c1.719-8.01 3.959-15.558 7.091-23.129"/><path fill="#8a6b34" d="m504 487 1 2 9-1 2 3 3-1-1 5h-2l1 3 2-1 2 3 2 1c2.09 6.269 1.177 11.879-1 18-.178 2.966-.228 5.295.688 8.125.312 1.875.312 1.875-1 4.125L520 533h-2v2h-2v2a281 281 0 0 1-5 5l-1.688 2.312L508 546h-2v2h-2v2h-2l-2 6 2 1-6 2-2-2-3-2v-2l-4 1c.033-2.441.1-4.873.188-7.312l.017-2.092c.088-2.022.088-2.022.795-5.596 2.869-2.404 4.254-3 8-3v-2l2.125-1.188c5.593-3.525 9.331-8.413 11.414-14.687.924-4.258 1.448-9.151-.539-13.125h-2v2h-2v10l-2-1 .176-1.793.136-2.395.176-2.355c-.752-3.785-2.465-5.127-5.488-7.457-2.731-.964-5.451-1.411-8.312-1.812l-2.245-.366A343 343 0 0 0 482 499l1-2h-4v-2q3.875-.04 7.75-.062l2.211-.026c3.596-.016 6.524.209 10.039 1.088z"/><path fill="#bd964d" d="M499.375 579.68c6.976 2.986 11.043 8.518 14 15.32 1.56 4.216 2.013 7.539 1.625 12l4 1-2 5h-2l1 3 3 1v2h-2c-1.011 3.049-1.011 3.049 0 6l-2 1-1 3h-3c-3.209-5.09-5.387-9.94-7-15.75-1.483-5.041-2.586-8.111-7-11.25l-1.828-1.394c-6.625-4.454-13.401-4.737-21.172-3.606a58 58 0 0 0-8.695 4.004c-2.702 1.168-3.579.85-6.305-.004l-3 1c2.134-6.743 7.473-10.005 13-14l1.775-1.287c9.213-6.515 17.093-10.326 28.6-7.033"/><path fill="#9f7b3e" d="m473.75 521.875 2.422.055L478 522l1 4-3 1 2.438.625L481 529c.66 3.086.66 3.086 1 6l-4.875 2.437q-2.156 1.078-4.308 2.159a746 746 0 0 1-10.95 5.4C447.756 551.827 434.942 559.602 424 571c-2.088-4.168-2.022-6.778-1.125-11.313l.617-3.238L424 554h2v-2h2v-2h2l.84-1.805c5.035-9.528 16.147-14.163 25.16-19.195l2.965-1.68A294 294 0 0 1 465 524l1.934-1.117c2.428-1.038 4.188-1.085 6.816-1.008"/><path fill="#be9851" d="m486 457 2 1v8l2.188-.562c2.94-.458 4.953-.173 7.812.562-.312 1.938-.312 1.938-1 4l-3 1v3h2v3l-3.625 1.5c-10.757 4.837-19.809 10.272-28.168 18.594C462 499 462 499 459 499v2l-3-1c-.908-2.477-1-4.336-1-7l1-1-2-3c-1.062-3.188-1.062-3.188-1-7 1.891-3.12 4.37-5.495 7-8l1.98-2.004c6.658-6.382 15.219-12.062 24.02-14.996"/><path fill="#c7a153" d="M517 357h16c-4 2-4 2-7 3l.938 2.25c.871 2.257 1.539 4.395 2.062 6.75h2v3l5 1-2.25 1.688c-2.667 2.242-4.666 4.533-6.75 7.312l1.793-.07c4.592-.105 8.026-.021 12.207 2.07q1.902.82 3.812 1.625L548 387c-1.562 1.125-1.562 1.125-4 2-3.75-.875-3.75-.875-7-2v2h-2l-1 4-1.66-.105c-12.727-.435-23.481 2.613-34.512 8.582C495 403 495 403 492 404c2.166-5.878 5.582-10.784 9-16l2.168-3.383 2.144-3.305 1.989-3.074L509 376h2l.938-1.875L514 370h2l.812-1.875C518 366 518 366 521 364l1-3h-8l2-1z"/><path fill="#9a753c" d="M572 397c1 3 1 3 0 6h-5v2h-2v4l3-1c2.074 25.038 2.074 25.038-2 36l-1-2c-2.025-.652-2.025-.652-4-1v-2h-2v-2h-2v-4h2v-2c-3.553-1.149-4.8-1.087-8.312.438L548 433c-2.275-2.167-4.236-4.396-6-7v-2l-3.312-.875C535 422 535 422 532 420v-2l3.656-1.137q2.423-.774 4.844-1.551l2.398-.74c4.91-1.589 9.064-3.546 13.356-6.418C562.537 404 562.537 404 566 404l.75-2.375c1.404-2.948 2.257-3.527 5.25-4.625"/><path fill="#d1ac5d" d="M582 559c5.201-.312 8.72-.113 13 3 1.631 2.571 2.6 4.976 3 8-1.188 3-1.188 3-3 5h-2v7c-1.875.625-1.875.625-4 1l-2-2v2h-10v2l4 2v3l-2 2-1.812-.5c-2.716-.839-2.716-.839-7.188 1.5l-8-9c1-2 1-2 3-3l1.438-1.562C568 578 568 578 571 578l1-4-1.875-.438C568 573 568 573 566 572c-.414-2.066-.414-2.066-.625-4.562l-.227-2.504L565 563l4-1v2h3l2-4 2 1c1.662.356 3.328.692 5 1z"/><path fill="#86632d" d="M555 368c2.284 1.805 3.393 3.512 5 6l-2.922.367-3.828.508-3.797.492c-2.952.541-4.968 1.005-7.453 2.633l-1 2h4v2l9 2v2l1.688.688c3.165 1.796 5.082 3.401 7.312 6.312.832 4.707.613 8.918-2 13-9.795 8.444-25.093 13.88-38 13v-2c-3.118.646-3.118.646-4 3l-5-1 1-3c2.25-1.027 2.25-1.027 5.215-1.938l3.271-1.023 3.452-1.039 3.345-1.039c4.197-1.299 8.393-2.591 12.624-3.773l2.659-.75 2.315-.629c2.402-.917 4.086-2.257 6.119-3.809h2c.617-2.847 1.099-5.128 1-8-3.221-3.998-8.081-5.361-12.793-7.07C542 386 542 386 540 384c-2.068-.425-2.068-.425-4.375-.562-2.983-.245-5.737-.64-8.625-1.438 2.474-6.298 9.243-9.921 15-13 4.233-1.327 8.627-1.864 13-1"/><path fill="#d2ae59" d="M522 435c5.897.562 9.579 2.741 13.875 6.75 2.232 4.464 1.614 8.752.125 13.312-5.033 7.393-11.964 11.365-20 14.938v-3h3l1-3 1-3-2.812 1.562C515 464 515 464 512 463l-3 1-2-1c.547-3.375 1.055-5.082 3-8 .39-1.99.732-3.99 1-6l-3-2c.188-1.812.188-1.812 1-4 3.661-2.929 6.382-3.322 11-3z"/><path fill="#927439" d="m464 637 4 1v3l3.875.625 2.18.352L476 642l2-2c2.323-.4 4.657-.74 7-1l-1 9 2.5.75c4.024 1.437 7.72 3.274 11.5 5.25v2l2.375.812C503 658 503 658 505 661c-.346 3.464-1.033 5.049-3 8h-4v7c-6.412-4.567-12.253-9.627-18-15l-2.613-2.414C471.652 653.104 466.354 647.278 463 640z"/><path fill="#896732" d="m451 471 2 2c-.433 5.627-1.425 10.834-4.781 15.449-3.176 4.689-4.929 10.029-6.907 15.301l-1.302 3.429c-4.283 11.366-8.291 22.829-12.167 34.34a245 245 0 0 1-2.023 5.692c-1.085 3.689-1.524 7.35-1.945 11.164l-.262 2.23Q423.3 563.302 423 566c-4.024-3.742-5.804-7.887-6.312-13.375.307-3.573.963-6.832 1.816-10.305.49-2.293.704-4.483.871-6.82.407-4.291 1.809-7.7 3.687-11.555 1.053-2.078 1.053-2.078 1.938-4.945l7 1 .188-2.375c.721-3.221 1.528-5.153 3.062-8 2.698-5.131 4.366-10.367 5.962-15.916 1.219-4.171 2.782-7.861 4.788-11.709a236 236 0 0 0 2.125-5.312c1.766-4.579 1.766-4.579 2.875-5.688"/><path fill="#d4ac5c" d="M492.063 332.438c3.814.73 4.718 1.35 6.938 4.562.528 3.697.42 7.337.312 11.063l-.03 3.048c-.113 7.38-.113 7.38-1.283 10.889a99 99 0 0 1-5 0c-1-1-1-1-1.062-4.062.02-.97.04-1.94.063-2.938-4.812 1.526-4.812 1.526-8 5l-2.376 1.25c-3.216 2.144-4.142 4.238-5.625 7.75h-1c-.647-12.947 2.942-24.269 11.5-34.125 2.5-1.875 2.5-1.875 5.563-2.437"/><path fill="#8f7038" d="m564.066 510.902 2.496.035c.826.01 1.653.018 2.504.027L571 511l-3 1a88 88 0 0 0-2 5l-2 2-.313 2-.687 2-5 2c-.887 2.041-.887 2.041-1 4h2v2l2 1-1.954.617c-2.358 1.25-2.358 1.25-2.656 4.203l-.14 3.305-.172 3.32L556 546l-1.785-.016q-4.076-.029-8.153-.047l-2.807-.025A128 128 0 0 0 526 547c2.923-4.019 6.276-7.087 10.035-10.286a73 73 0 0 0 4.84-4.652C543 530 543 530 545 530v-2c12.91-12 12.91-12 20-12v-3l-4-1c1-1 1-1 3.066-1.098"/><path fill="#d5ac5d" d="M530.74 349.413a312 312 0 0 1 5.806 2.86c3.306 1.72 3.306 1.72 6.282 2.829C545 356 545 356 547 358v3c-4.12 1.293-7.669 2.263-12 2v2l3 1c-1.688 1.625-1.688 1.625-4 3-3.467-.693-4.905-1.902-7.375-4.437L525 362c1-3 1-3 2-4h-10l-1 2c-2.55.313-5.004.513-7.563.625l-2.154.118c-1.76.094-3.522.177-5.283.257.34-2.903.574-4.558 2.636-6.695 9.375-6.535 16.21-9.857 27.104-4.892"/><path fill="#af8a47" d="M471 503h8v5l2 1v1l13 1c1.125 8.625 1.125 8.625 0 12l-2 1 1 4a553 553 0 0 1-4.312 3l-2.426 1.688C484 534 484 534 481 534l-1-5h-3l-1-2 2-1v-4h8l.438-1.875C487 518 487 518 488 516c-5.801-.237-10.397.309-16 2-4.695.391-8.582-.354-13-2l-1-3c2.64-4.172 4.474-6.178 9.312-7.375L471 505z"/><path fill="#9e7e42" d="M571 498c-1.523 4.092-4.407 6.132-7.812 8.625l-3.532 2.652-1.832 1.363a793 793 0 0 0-8.636 6.548l-1.646 1.26a190 190 0 0 0-10.839 9.032 143 143 0 0 1-4.891 4.145c-2.768 2.338-5.282 4.783-7.812 7.375q-1.904 1.908-3.812 3.812l-1.833 1.833L517 546l-3-2c.875-6.75.875-6.75 2-9h2v-2c3.462-3 3.462-3 6-3l.719-1.734c2.629-4.65 7.264-7.835 11.281-11.266l2.566-2.223c4.641-3.885 8.92-6.803 14.622-8.89 2.165-.871 2.165-.871 3.812-3.887 4.537-2.226 8.899-4 14-4"/><path fill="#cda75a" d="M569 606c5.929 5.502 10.572 12.207 13 20 .234 6.313-1.242 12.319-4 18-2.237 2.022-4.155 2.774-7 4-2.25-.625-2.25-.625-4-2l-3-2c.346-5.387 1.039-10.421 2.5-15.625 1.975-7.38 2.22-14.778 2.5-22.375"/><path fill="#b08c4b" d="m493 491 1 4h-15l5 1-1 2 3.105.516 4.083.734 2.041.332c4.589.851 7.425 2.167 10.771 5.418 1.163 2.326 1.166 3.787 1.188 6.375l.042 2.336c-.252 2.507-.978 4.122-2.23 6.289h-2l-2 4h-2v2l-4 1-1-4h3v-12l-2.562.562c-3.779.481-6.73.294-10.438-.562-2.152-3.228-2.201-4.284-2-8h-8v2c-2.354 1.429-3.48 2.087-6.25 1.625L463 506c5.533-3.609 10.492-5.005 17-6v-2h-2l-1-4c3.285-1.095 5.737-1.1 9.188-1.062l3.292.027L492 493z"/><path fill="#99783d" d="M422 502c2 1 2 1 3.062 3.062 1.17 3.666 1.549 7.111 1.938 10.938l2-5 2 1-.062 2.875c-.164 3.032-.164 3.032 1.062 5.125l-5 1v-2h-2l-.367 1.863-.508 2.449-.492 2.426C423 528 423 528 421 531c-.454 2.279-.454 2.279-.625 4.688l-.227 2.449L420 540h-1l-1-6-1 5h-2v-2h-2v-2h-2l-1 4a1729 1729 0 0 1-3.562-10.812l-1.038-3.104-.966-2.979-.905-2.745C403 517 403 517 404 514l3 2 1-4v5h9c1.297-3.459 2.137-6.651 2.5-10.312L420 503z"/><path fill="#ae8544" d="M586 618c8.714 1.857 8.714 1.857 11 5l-1 1 3 1v-2l10 1v2h2v7h2c-.627 3.662-1.645 6.882-3.062 10.312l-1.098 2.676L608 648l-2-1v-2l-3 1v-2l-4 1-1-4h-2l-1 3-1.207-3.762-1.605-4.926-.792-2.474C589.98 628.517 588.4 624.884 586 621z"/><path fill="#c59f53" d="M455 428c.059 3.521.094 7.041.125 10.562l.051 3.002c.052 7.865-.713 13.742-5.176 20.436l-3-1 2-1 1-3h-5v4c-1 2.25-1 2.25-2 4h-4l1-29h1l1 6h2l-1-5h2l-.625-2.312C444 432 444 432 446 429h3v2l2.438-1.5C454 428 454 428 455 428"/><path fill="#cba656" d="M504.813 452.938c1.464.014 1.464.014 2.957.026 1.103.019 1.103.019 2.23.036l1 3c-1.375 2-1.375 2-3 4l-1 3 4 1-1 9q-2.654.756-5.312 1.5l-2.988.844C499 476 499 476 496 476v-2h-2v-3l3-2 1-3c-3.557-.08-6.568.11-10 1-1-1-1-1-1.098-2.848l.099-6.152c6.15-3.74 10.52-5.15 17.812-5.062"/><path fill="#b28c49" d="m446 490 1 2 3 1h-2v8c2.995.998 4.173 1.007 7.188.562L459 501v-2l2 1-1.277 1.68-1.661 2.195-1.652 2.18c-1.45 1.889-1.45 1.889-2.41 3.945l3.375-2c3.375-2 3.375-2 5.625-2-.312 1.938-.312 1.938-1 4l-3 1v5h6v1h-6v2h-2l-1 2c-2.429-6.286-2.429-6.286-1-10h-4v6h-9l-1 2v-2h-2l-.875 2.625L435 529h-2c.606-5.911 2.239-11.111 4.25-16.688l.944-2.657c2.384-6.649 4.955-13.191 7.806-19.655"/><path fill="#7b5d2d" d="M579 470v3h11l-2 5-3 1v-2h-2v2h-2v6h-2l1 4h-2l-.672 1.797c-1.746 2.896-3.618 3.852-6.578 5.453l-2.828 1.578c-3.194 1.281-5.513 1.394-8.922 1.172l-1-2 2-1c.656-2.527.656-2.527 1-5h3l-.641-1.742c-.468-2.943.268-3.93 1.891-6.383l1.328-2.07C568 479 568 479 571 477l.938-2.5C573 472 573 472 575 470.688c2-.688 2-.688 4-.688"/><path fill="#ac8444" d="M511.313 568.5 513 570v2l-13 2 4.75 3.188c7.255 5.13 10.697 10.325 13.25 18.812.548 3.332.856 6.627 1 10l-4 1-.75-3.875c-1.827-7.999-3.786-14.712-10.373-19.969-4.034-2.482-7.678-3.408-12.377-3.718-7.617-.525-7.617-.525-10.5-1.438l-2-4 9-5 1 3-1 1c1.79.783 1.79.783 4 1 2.513-1.404 3.743-2.395 4.874-5.062C498 567 498 567 500.813 565.625c4.572-.896 6.709.416 10.5 2.875"/><path fill="#906e38" d="M555.875 373.25c2.043.016 2.043.016 4.125.75 3.227 3.317 5.569 7.079 8 11l1.648 2.336c2.093 3.017 3.334 4.817 3.415 8.539-1.318 2.634-2.438 2.932-5.063 4.125l-.937 2.062L566 404c-2.625.75-2.625.75-5 1l1-3c.578-3.462.776-6.56 0-10-1.927-2.07-3.827-3.397-6.25-4.844L554 386v-2l-9-2v-2h-4c1-3 1-3 2.687-4.125 3.971-1.502 8.038-1.822 12.188-2.625"/><path fill="#7d5e2e" d="M509 503c2.776 4.91 2.795 9.751 1.465 15.188-1.461 4.214-3.325 7.57-6.465 10.812h-2l-1 3c-2.562 1.188-2.562 1.188-5 2v2c-5.75 3-5.75 3-8 3l-1 2c-4.369 1.192-6.956 1.022-11-1 1.425-4.274 4.591-5.429 8.312-7.562l2.053-1.209c3.162-1.852 6.324-3.654 9.635-5.229v-2c1.875-2.125 1.875-2.125 4-4h2v-3h3v-10h2v-2h2z"/><path fill="#c7a156" d="M562 615h1c1.755 8.483-.411 14.875-3 23a589 589 0 0 0-1.75 6.375l-.734 2.711L557 649l-5 1c-1.264-2.529-1.29-4.62-1.5-7.438-.233-3.125-.505-5.576-1.5-8.562-.202-2.31-.364-4.623-.5-6.938-.311-5.603-.311-5.603-1.5-11.062h5c1.125 6.75 1.125 6.75 0 9h2l1-6h3v-2h4z"/><path fill="#d1ab5a" d="M517 572c10.947-1.489 21.771 2.699 30.727 8.883A63 63 0 0 1 553 586l2.5 2.438L557 590l-3.438.812L550 592l-1 3 2 1-1 3c-1.5-1.25-1.5-1.25-3-3v-4h-3v-2l-2.375-.812C539 588 539 588 537 585l-2.562-.875L532 583c-.812-2.625-.812-2.625-1-5-3.075.776-3.075.776-5 3-3.125-.375-3.125-.375-6-1v-2h-2z"/><path fill="#b58f47" d="m517 606 4 1 .375 1.938L522 611l2 1v6l1.75-1c2.25-1 2.25-1 6.25-1v4h2c-1.251 5.684-2.977 8.775-7 13-3.213 1.606-6.526 1.624-10 1-3-2.5-3-2.5-5-5h2l.438-1.75L515 625l.5-2.125C516 621 516 621 517 619h2v-2l-4-1v-3h2z"/><path fill="#d1ac5d" d="M588 593v2l2.176-.227c3.659.294 5.175 1.56 8.012 3.852l2.605 2.039c2.541 2.69 3.396 4.749 4.207 8.336-.812 2.25-.812 2.25-2 4l-1 2c-4.898.349-7.659-.532-11.875-3l-2.93-1.688L585 609v-4l2-1-2-1-1-3a70 70 0 0 0-4-1l-1-2-3-2c4.12-1.292 7.668-2.263 12-2"/><path fill="#cea95b" d="m564 556 10 1-4 2 3 2-1 4a85 85 0 0 1-7-2l1 9 7 2-2 1v3h-3l-1 2-2 3c-4.321-.521-6.492-1.917-9.75-4.75-4.484-3.744-9.039-6.632-14.25-9.25 4.293-2.862 7.958-2.608 13-2 3.464 1.081 6.727 2.44 10 4l-1.875-1.875L558 565l2.438-1.125c2.874-1.686 2.874-1.686 3.374-5.063z"/><path fill="#957239" d="m446.504 356.902 3.059.035c1.012.01 2.023.018 3.066.027l2.37.036v3l1.939.312L459 361l1 3c2.505 1.218 2.505 1.218 5 2v4h2l.438 2.812c.483 3.195.483 3.195 1.562 6.188l-1 2h-2l-1 5c-1.553-2.887-2.528-5.65-3.375-8.813-1.331-4.567-3.006-8.217-5.625-12.187-2.903-1.452-4.773-1.373-8-1-6.753 4.272-10.458 10.86-12.312 18.562-1.198 7.062-.847 14.302-.688 21.438-4.29-5.014-5.093-10.518-5-17 1.508-5.403 3.817-10.244 6.313-15.25a852 852 0 0 0 1.88-3.989c5.078-10.733 5.078-10.733 8.31-10.859"/><path fill="#ab8342" d="M564 586c4.875 4.625 4.875 4.625 6 8l-1.562 1.188c-1.721 1.747-1.721 1.747-1.25 4.25.677 2.5.677 2.5 1.871 4.269 4.676 11.389-2.416 30.561-6.684 41.231-2.076 4.913-2.076 4.913-4.375 6.062-.563-7.068.557-12.606 3.027-19.238 3.887-11.036 3.107-23.789-1.152-34.539C559 595 559 595 559 593h3z"/><path fill="#9a743a" d="M568 594c4.016.358 5.702 2.489 8.25 5.438l2.141 2.433C580 604 580 604 580 606l2 2c.345 1.33.675 2.665 1 4 1.499 3.783 3.105 7.257 5.188 10.75C590 626 590 626 590 629c-1.375 1.688-1.375 1.688-3 3h-2l-1 2-.812-2.133c-4.018-10.122-9.155-19.413-15.25-28.429C566 600 566 600 566.125 597.062 567 595 567 595 568 594"/><path fill="#c59f4f" d="m519 581 3 1v2l2.938.375L528 585l1 2 1.828-.359c2.438-.394 4.701-.688 7.172-.641 2.562 1.938 2.562 1.938 4 4l-3 1-1-1-1 2h-5l.656 2.641c4.468 19.111 4.468 19.111 1.344 25.359l-2-1 .062-2.75c-.052-2.734-.313-4.669-1.062-7.25a502 502 0 0 1-1-5l-8 1q.463-2.22.938-4.438l.527-2.496C524 596 524 596 525 595l-2-1v-2h-2c-2.188-1.688-2.188-1.688-4-4 .196-2.744.776-4.552 2-7"/><path fill="#b38945" d="M565 646h3c-.462 2.156-.957 3.922-2.023 5.863-2.053 4.49-1.475 9.611.023 14.199l1 1.938-1.875-.5c-2.086-.576-2.086-.576-4.125-.5h-7v8c-3.132-2.819-4.503-5.107-6-9l-1.516-1.328c-1.999-2.252-1.979-3.889-2.172-6.86l-.199-2.73L544 653l1 2 1.875-.625L549 654l2 2 2.5-.5 2.5-.5 2 2c2.694-1.347 2.919-2.753 4.062-5.5 1.851-4.413 1.851-4.413 2.938-5.5"/><path fill="#c8a156" d="m521 571-4 1 1 6h2v2h3c1.688 1.375 1.688 1.375 3 3v2c-2.867-.573-3.861-.861-6-3l-2 1c-.656 2.527-.656 2.527-1 5l4 2v2h2v2l3 1-2 1c-.687 2.118-.687 2.118-1.125 4.562l-.508 2.504L522 605l-3-1a88 88 0 0 1-2.438-7.688c-2.012-7.448-4.278-13.356-11.187-17.562-2.421-1.496-4.357-2.732-6.375-4.75 7.312-2.742 14.296-3.138 22-3"/><path fill="#a5803e" d="m512 371-1 5h-2l-.846 1.738c-1.975 3.872-4.275 7.548-6.529 11.262l-1.461 2.445c-2.402 3.955-4.639 7.481-8.164 10.555l-1-2c-4.012 5.832-7.664 11.756-11 18l-4-1c1.315-4.52 3.095-7.996 5.75-11.875l2.156-3.16a269 269 0 0 1 6.797-9.16c1.275-1.774 2.285-3.56 3.297-5.493 1.851-3.066 3.524-4.775 6.352-6.914 2.699-2.29 4.822-5.072 7.035-7.824C509 371 509 371 512 371"/><path fill="#98773c" d="M566 515a62 62 0 0 1 7.625-.188l2.141.042c1.745.035 3.489.089 5.234.146l1 11-4.562.812c-3.277.643-6.172 1.383-9.188 2.813-3.379 1.429-5.626 1.64-9.25 1.375v-2h-2l1-6h5l.375-2.312C564 518 564 518 566 515"/><path fill="#866530" d="m513 418 1 5h-5l-1 3c-2.709 1.354-5.009 1.065-8 1v2l1.863-.289 2.449-.336 2.426-.352C509 428 509 428 512 430l3-1a195 195 0 0 1 7 0v4l-3.227.113c-9.592.409-18.425 1.612-27.773 3.887a405 405 0 0 1-5 1c5.254-9.402 15.311-20.649 27-20"/><path fill="#c29d53" d="M523 434c-1.285 2.922-1.285 2.922-3 6-3.438 1.25-3.438 1.25-7 2-1.354.625-2.699 1.272-4 2v4h-6l-2-4h2l-1-2c-2.489-.317-4.95-.379-7.457-.461-3.22-.683-4.439-2.077-6.543-4.539 11.374-4.109 23.089-3.295 35-3"/><path fill="#bd9951" d="m469 442 1 2h2v2l2.312-.125C477 446 477 446 480 448v2l7 1v1l-3.75 1.062c-9.09 3.045-16.764 7.94-23.25 14.938h-2l-1 2c.55-4.267 1.547-7.574 3.504-11.398l1.494-2.95 1.564-3.027 1.577-3.098q1.92-3.769 3.861-7.527"/><path fill="#8b703f" d="M574 468c-1.808 1.999-3.278 3.149-5.688 4.438L566 474v4c-1.5 1.75-1.5 1.75-3 3l3 1-4.59 3.711c-1.543 1.256-1.543 1.256-2.41 3.289l-2.375 1.375c-3.665 2.269-5.264 4.182-6.313 8.375L550 501h3v2l4-1-2 4h-7v-3l-1-3 1-2h-2l-2 5-5-2-1 2-2-1c1.394-4.435 3.606-6.874 7-10v3l4 1c4.002-4.478 7.423-8.988 10.605-14.082C559 480 559 480 562 478c.724-2.059.724-2.059 1-4l-6 1v-2h2l1-3c2.145-.984 2.145-.984 4.812-1.75l2.645-.797c2.597-.463 4.077-.304 6.543.547"/><path fill="#927239" d="M520 482c3.038 2.832 5.898 5.976 6.114 10.247l-.016 2.761-.01 2.988-.026 3.129-.013 3.152q-.018 3.862-.049 7.723l-2 1-.113-1.863-.199-2.449-.176-2.426c-.607-2.682-1.483-3.473-3.512-5.262l-2-3-2 1v-4l2-1c.652-2.025.652-2.025 1-4h-2l-1 2-2-3-3.375.562C507 490 507 490 505 489c.367-2.524.602-3.684 2.637-5.301 4.427-2.184 7.515-3.638 12.363-1.699"/><path fill="#b19762" d="M475.375 634.688c10.818.207 20.023 3.53 29.625 8.312v2h2v2h2l-1 2h-2v-2h-4l-2-2-3 1v5c-5.199.312-8.616-.077-13-3-1-1.875-1-1.875-1-4 .937-2.75.937-2.75 2-5-3.467-1.155-6.541-1.328-10.187-1.562l-3.856-.255L468 637c2.604-2.604 3.749-2.298 7.375-2.312"/><path fill="#93733a" d="M546 498h2l.438 2.375c.821 3.834 1.18 4.37 4.562 6.625l-3.188 1.312c-6.204 3.081-11.177 7.854-16.338 12.397-1.883 1.649-3.803 3.25-5.724 4.853-2.755 2.137-2.755 2.137-3.75 4.438l-2-1c-1.224-4.888-1.425-8.928.438-13.625L524 513h1v7c11.954-9.76 11.954-9.76 21-22"/><path fill="#8f6e36" d="m456 524 1 2 3 1c-11.399 7.773-11.399 7.773-16.75 10.5-5.22 2.791-10.564 7.127-13.25 12.5h-2v2h-2v2h-2c.962-9.46.962-9.46 3-13l1.848-.398c2.816-.787 3.838-2.124 5.777-4.29 6.013-6.237 12.887-10.467 21.375-12.312"/><path fill="#b6904a" d="M548 620h1l.184 2.957.254 3.855.246 3.833c.188 3.347.188 3.347 1.316 6.355.225 2.226.408 4.456.562 6.688l.254 3.574L552 650l4-1 1-5h1l1 6 4-10 2 4 2 2-1.812 1.562c-1.985 2.211-2.717 3.453-3.75 6.126L560 657l-3 1-1-2h-4l-2 2-2-3h-3c-.993-5.178-.83-9.008.375-14.125 1.55-6.937 2.277-13.768 2.625-20.875"/><path fill="#c6a15c" d="M595 562c1.922.711 1.922.711 4 2 2.227 5.65 2.222 12.008 2 18 2.867-.573 3.861-.861 6-3l1-3h2c.312 3.25.312 3.25 0 7-2.801 3.014-4.451 3.929-8.559 4.461l-3.879-.086-3.871-.039c-3.559-.324-6.344-1.146-9.691-2.336-2.332-.075-4.669-.093-7 0v-2h10v-2l5 1 .312-3.312c.692-3.712.959-4.414 3.688-6.688 1.34-2.872 1.34-2.872.062-5L595 565z"/><path fill="#ac8742" d="M451 511h4l-1 4 2 1v4l3-1v-2h16c-2.447 2.447-3.147 2.212-6.5 2.312-5.182.39-8.722 2.137-13.227 4.61-2.856 1.354-5.155 1.488-8.273 1.078v2l-1.863-.035-2.449-.027-2.426-.036c-2.431.001-2.431.001-5.262 1.098.607-4.128 2.038-7.332 4-11h12z"/><path fill="#886530" d="m437 444 3 1c.941 12.586-2.184 23.398-9 34-2-1-2-1-2.594-2.778l-.476-2.3-.528-2.52-.527-2.652-.551-2.605c-.839-4.094-1.585-7.942-1.324-12.145h3l2-2c1.461 2.647 2 3.894 2 7h2v2h2c.904-3.837 1.106-7.375 1.062-11.312l-.027-3.239z"/><path fill="#806132" d="M562 539c2.296 3.445 2.54 5.938 3 10l3.035-.105c13.12-.317 13.12-.317 18.965 3.105v5c-4.958.292-8.028.129-12-3v-2l-2.16.035c-5.403.051-10.518-.089-15.84-1.035l-1-3-2.312.938A112 112 0 0 1 548 551l-1-4-12-1v-1q4.125-.04 8.25-.062l2.355-.026 2.286-.01 2.094-.016c2.115.12 3.981.538 6.015 1.114v-5h3c1.688 2 1.688 2 3 4l-.562-1.875C561 541 561 541 562 539"/><path fill="#7a582a" d="M543 605c5.055 5.055 5.242 12.905 5.375 19.688-.077 10.091-2.046 19.787-5.375 29.312h-1c-.199-4.145-.382-8.291-.562-12.438l-.17-3.529c-.275-6.488-.196-12.603.732-19.033l-2-1h2l-.625-3.688c-.475-3.66-.141-5.988 1.625-9.312"/><path fill="#cea95b" d="m528.504 554.902 3.059.035c1.012.01 2.023.018 3.066.027l2.37.036v2l4-2 .439 2.312c.525 2.77.525 2.77 1.562 5.688-5.014 1.853-8.621 2.046-13.891 1.36-4.071-.472-8.143-.697-12.234-.923l-2.337-.132q-2.769-.156-5.538-.305v-3c3.335-1.93 6.393-2.513 10.188-3.063 3.36-.492 6.19-1.913 9.316-2.035"/><path fill="#83632e" d="M476.438 489.75 478 491v7h2v2l-2.204.664c-6.832 2.155-13.067 4.808-19.397 8.164-2.4 1.172-2.4 1.172-4.4 1.172 1.447-4.541 3.998-7.63 7.188-11.062l1.385-1.565c3.409-3.711 8.546-9.26 13.865-7.623"/><path fill="#9f7c3e" d="M446 478c.791 2.293 1.145 3.568.363 5.902l-1.051 2.036c-1.775 3.695-3.017 7.302-4.124 11.25-2.183 7.364-5.3 14.186-9.188 20.812l-2 1 .062-3.375c.202-3.457.202-3.457-1.062-5.625a96 96 0 0 1 2.125-7l.686-2.03c1.937-5.569 4.334-10.807 7.189-15.97h3l.875-2.375C444 480 444 480 446 478"/><path fill="#977437" d="M491 399c.66 1.715.66 1.715 1 4-1.004 2.191-1.004 2.191-2.562 4.562-2.309 3.629-4.474 7.269-6.5 11.063-1.758 3.262-3.566 6.442-5.563 9.563-2.434 3.804-4.414 7.745-6.375 11.812l-6-5c3.004-6.238 6.199-12.21 10-18l5 1 .781-2.113c1.348-3.193 2.967-6.086 4.719-9.075l1.844-3.167C489 401 489 401 491 399"/><path fill="#d5af5f" d="M558 590c5.908 14.032 5.908 14.032 5 20l-2 3c-2.289-.172-2.289-.172-5-1-1.836-2.328-1.836-2.328-3.375-5.25l-1.586-2.891c-1.15-3.164-1.023-4.689-.039-7.859l-3-1c.625-1.938.625-1.938 2-4 2.742-.685 5.18-1 8-1"/><path fill="#75582c" d="M601 524h1l.438 3.312c.445 3.619.445 3.619 1.562 6.688l1.375-2 1.625-2h2v14l-1-3h-4l-1-3-3-1v-2h-5v-1l-3.938-.375c-2.214-.211-2.214-.211-4.062-.625l-1-2-18-1c1-2 1-2 4-3 3.204-.254 6.412-.231 9.625-.25l2.621-.062c6.111-.037 11.091 1.026 16.754 3.312z"/><path fill="#97743b" d="M435 408h1l.367 2.711c1.134 8.22 1.134 8.22 2.758 16.351 1.269 5.941 1.046 11.894.875 17.938h-2l.07 2.23.055 2.958.07 2.917c-.204 3.023-.926 5.163-2.195 7.895h-2v-2l-2-1 .496-1.65c.583-2.72.599-5.174.566-7.955l-.023-3.229-.039-3.354a1614 1614 0 0 1-.062-6.605l-.036-2.954C433 430 433 430 434 429c.157-1.559.251-3.125.316-4.691l.127-2.862.119-3.009A2428 2428 0 0 0 435 408"/><path fill="#7b5f2f" d="m590 474 1.688.875c2.397 1.166 4.828 2.159 7.312 3.125l1 7a403 403 0 0 1-4.812 2.562l-2.708 1.442C590 490 590 490 587 489l-2-2-5 2-1-4h2v-2l-2-1 2-3h2v-2l3 1z"/><path fill="#aa8340" d="m580 605 2.004 1.254c4.229 2.465 8.622 4.563 13.025 6.697 11.413 5.615 11.413 5.615 12.846 9.299L608 624c-2.915.81-4.461 1.218-7.312.062L599 623v2l-4-1 1-2a478 478 0 0 0-3.812-1.5l-2.145-.844c-2.161-.809-2.161-.809-5.043-.656a432 432 0 0 1-2-3.812l-1.125-2.145C581 611 581 611 581 608l-2-2z"/><path fill="#9c7e4e" d="m476 337 1 2-.875 2.438c-1.294 4.096-1.593 7.902-1.879 12.171C474 356 474 356 473 358a77 77 0 0 0-.062 4.625l.027 2.477L473 367h1c.249 7.29-.277 13.907-2 21h-1v-5h-5v-2h2l-.219-1.898-.281-2.477-.281-2.461C467 372 467 372 467 370h-2c.573-2.867.861-3.861 3-6 .126-1.726.176-3.457.188-5.188.495-8.162 4.086-14.691 7.812-21.812"/><path fill="#a37f40" d="M405 496h2l1 6 2.812-.188C414 502 414 502 415.688 503.5L417 505h3l-.219 2.082-.281 2.73-.281 2.708c-.263 2.563-.263 2.563-.219 5.48v1c-4.111.242-7.334-.045-11-2-2.627-6.63-2.591-13.937-3-21"/><path fill="#d3ad5d" d="M564 556c.312 2.812.312 2.812 0 6-2.062 2-2.062 2-5 3-3.125-.75-3.125-.75-4.887-1.383-4.24-1.238-8.723-1.315-13.113-1.617l1-7c7.686-3.726 14.341-1.589 22 1"/><path fill="#83683f" d="M570 434h1c.074 3.858.111 7.296-1 11l-.25 2.562c-.75 2.438-.75 2.438-2.688 4.25-4.426 1.717-8.38 1.973-13.062 1.188-2.929-1.323-3.85-2.409-6-5-.875-3.812-.875-3.812-1-7 3.249.361 4.655.633 6.938 3.062 1.966 2.208 1.966 2.208 5.062 2.438 3.73-.622 4.772-1.476 7-4.5a127 127 0 0 0 2-6z"/><path fill="#7b603b" d="m494 607 6 1v8c1.952-1.952 2.848-3.532 4-6l.445 1.836c1.994 7.448 5.024 14.633 10.555 20.164v3a132 132 0 0 1-4.25-.688l-2.391-.386c-3.895-1.529-5.577-4.243-7.311-7.973a206 206 0 0 1-2.736-7.078l-.931-2.457c-1.18-3.125-2.325-6.249-3.381-9.418"/><path fill="#836632" d="M571 473c1.125 3.75 1.125 3.75 0 6h-3l-.875 2.25C566 484 566 484 564.875 486.125c-1.086 1.983-1.086 1.983-.875 4.875l-3 2v4l-2 1 5 1c-3.423 3.15-6.443 3.562-11 4v-2h-3c-.51-2.807-.334-4.487 1.23-6.891 1.523-1.849 2.938-3.562 4.77-5.109h3l1-3a95 95 0 0 1 5-4l-5 1c3.152-4.413 6.555-7.008 11-10"/><path fill="#d1ab5a" d="M550 601c2.282 2.675 4.032 5.067 5.562 8.25 1.192 3.054 1.192 3.054 4.438 3.75l1-2 3-4v15h-1l-1-5h-4v2h-3l-1 6h-2v-9h-2l-1 2v-2h-2c-1.409-5.637-.74-8.442 2.09-13.496z"/><path fill="#6e5127" d="M538 644h3c1.284 2.567 1.133 4.447 1.125 7.312l.008 2.864C542 657 542 657 541.496 659.383c-.649 3.425-.59 6.696-.558 10.179l.027 3.942L541 677v4h-6c-1.728-6.089-1.839-12.309.438-18.25 2.303-6.031 2.298-12.361 2.562-18.75"/><path fill="#785e3a" d="m563 474-1 5-3 1c-1.04 1.803-1.04 1.803-2 4a177 177 0 0 1-3.375 5.062l-1.773 2.598c-1.782 2.252-3.48 3.747-5.852 5.34l-4-2c1.323-5.048 3.653-8.411 7.062-12.25 3.309-3.636 3.309-3.636 5.938-7.75 2.699-.574 5.238-1 8-1"/><path fill="#a17e3f" d="M413 469h2c10.14 27.579 10.14 27.579 8 34h-3l-1 2-.551-2.816c-1.454-7.767-1.454-7.767-4.074-15.184-2.55-5.564-2.579-10.986-2.375-17z"/><path fill="#be9750" d="M582 628c2.084 3.126 3.286 6.057 4.625 9.562l1.352 3.504C589 644 589 644 589 646h-4c-2.108 6.606-3.766 13.176-5 20h-2c-.286-17.429-.286-17.429 2-22l-2-1q.713-3.47 1.438-6.938l.808-3.902C581 629 581 629 582 628"/><path fill="#987438" d="m483.75 514.938 2.422.027c.603.011 1.206.024 1.828.034 0 3.106-.539 4.353-2 7l-3.402.08c-10.872.253-10.872.253-20.836 4.277-1.762.644-1.762.644-3.992-.242l-1.77-1.115c-.66.66-1.32 1.322-2 2l-1-3c7.305-4.379 13.507-5.839 22-6v-2c2.995-.871 5.636-1.108 8.75-1.062"/><path fill="#997739" d="M503 659c3.46 1.153 4.479 2.465 6.215 5.613 1.627 4.946 1.063 10.249.785 15.387-4.901.288-8.216.339-12-3-1.455-5.091-1.455-5.091 0-8h4c1.95-4.947 1.95-4.947 1-10"/><path fill="#ad8744" d="m540 564 2 1-2 4 2.625.812c3.293 1.159 6.286 2.57 9.375 4.188-1.375 1.5-1.375 1.5-3 3h-2v3c-4.795-1.529-9.483-3.174-14.125-5.125-4.016-1.644-7.56-2.5-11.875-2.875v-1l3.312-.375c3.762-.38 3.762-.38 6.688-2.625 3.188-.125 3.188-.125 6 0v-3z"/><path fill="#a38346" d="m500 643 .625 1.938c1.254 2.403 1.254 2.403 4.375 2.687l3 .375c2.398 2.398 2.343 3.333 2.625 6.625l.227 2.477L511 659l-2 1-2-1-1 3v-2l-1.75-.875L498 656v-2l-1.812-.375C494 653 494 653 491 651h6l-.188-2.312C497 646 497 646 498.5 644.188z"/><path fill="#977645" d="M596 593h6l2 5h2v3h2v2l3.312-.188C615 603 615 603 616.75 604.188c1.737 2.517 1.364 4.014.938 7l-.364 2.73L617 616a422 422 0 0 1-12.062-10.625c-3.493-3.162-6.911-5.938-10.938-8.375z"/><path fill="#775728" d="M543 502c-2.971 7.022-9.031 12.467-15 17l-3 1c-.177-10.095-.177-10.095 1-15 1.812-1.5 1.812-1.5 4-2 2.25.375 2.25.375 4 1l1-2c2.995-1.136 4.979-.971 8 0"/><path fill="#8d6e37" d="M539 445c2 2 2 2 2.195 4.82l-.07 3.305-.055 3.32L541 459h-3l-1 4h-3v4h-4v2h-2l-1 3-1 2h-3v-2h-3c.475-4.562.475-4.562 2.82-6.52l2.305-1.292c4.333-2.654 7.29-5.61 10.465-9.551C537 453 537 453 539 452l-.562-2.938L538 446z"/><path fill="#927956" d="M476 561h2l.188 3.25c.967 4.465 2.225 5.164 5.812 7.75l-2.992 2.117-3.883 2.758-1.973 1.395-1.894 1.347-1.746 1.238c-1.664 1.206-1.664 1.206-3.512 3.145-3.125.125-3.125.125-6 0l1.938-.75c2.552-1.216 2.552-1.216 3.062-5.25l-7 5c1.017-4.068 1.24-4.609 4.25-7.062l1.906-1.579C468 573 468 573 470.75 571.688c3.555-2.667 4.171-6.504 5.25-10.688"/><path fill="#8f6c36" d="M429 389c2.933 2.428 3.524 4.35 4.125 8.062.57 3.588.57 3.588 1.875 6.938.085 1.886.107 3.776.098 5.664l-.01 3.398-.026 3.563-.013 3.586q-.018 4.394-.049 8.789l-2-1c-.414-2.066-.414-2.066-.625-4.562l-.227-2.504L432 419h-2q-.292-3.655-.562-7.312l-.17-2.092c-.234-3.221-.3-5.499.732-8.596h-2a564 564 0 0 1-.062-4.312l-.036-2.426C428 392 428 392 429 389"/><path fill="#705024" d="M533 593c8.633 7.096 8.633 7.096 10 10-.162 1.971-.336 3.946-.672 5.895-.477 3.059-.392 6.013-.328 9.105h-2l-1 3c-2.07-1.695-2.923-2.602-3.441-5.27l-.121-2.542c-.213-3.07-.483-5.319-1.5-8.25-1.28-4.01-1.105-7.765-.938-11.938"/><path fill="#967237" d="M505 345h2v2h6l1-2c16.85-.647 16.85-.647 23 3 2.296 2.148 4.201 4.425 6 7-4.226-.618-7.461-2.127-11.25-4.062-5.426-2.53-9.796-4.405-15.75-2.938-5.719 2.314-9.815 5.561-14 10h-2c-.188-2.875-.188-2.875 0-6l3-2c1.205-2.552 1.205-2.552 2-5"/><path fill="#cfa95a" d="M547 359c2.939 2.86 5.587 5.688 8 9l-2.668.332-3.52.48-3.48.458c-3.37.738-5.43 1.941-8.332 3.73-3.312-.312-3.312-.312-6-1v-3h-2l1-2 2.375.625L535 368l2-2-2-1v-2c4.12-1.292 7.668-2.263 12-2z"/><path fill="#ae8544" d="M480.688 575.625A121 121 0 0 1 486 579l-3.332 1.871c-8.127 4.633-15.574 9.255-22.567 15.512C458 598 458 598 455 598c17.68-24.237 17.68-24.237 25.688-22.375"/><path fill="#927039" d="m479 596-1 3c-2.004.922-2.004.922-4.562 1.75-9.04 3.404-16.119 10.612-20.438 19.25h-2l-3-6c7.311-7.848 19.182-19.525 31-18"/><path fill="#caa557" d="m582 588 10 6-2 2-2-1v-2l-9 3 1 3 5 1v3l3 1-5 3c-5.204-4.249-9.321-8.366-13-14h2l1-2c2-1 2-1 3.938-.375L579 591z"/><path fill="#816943" d="m437 558 1 4 5 1a159 159 0 0 1-5 6h-2v2c-2.74 3.044-5.181 5.444-9 7l-3-7a85.2 85.2 0 0 1 13-13"/><path fill="#816a46" d="M479 596q2.187-.079 4.375-.125l2.461-.07C488 596 488 596 490 598l-7 1v2h3v2l-2.375.188L481 604a134 134 0 0 0-2 5 108 108 0 0 1-3.375 5l-1.871 2.617A155 155 0 0 1 468 624l-1-3h2v-4h2l1-6h2v-2l2-2v-3l-8-1c3.144-2.66 6.125-3.708 10-5z"/><path fill="#907c58" d="m475 538 1 2c2.527.656 2.527.656 5 1 1.163 3.55.924 6.558.562 10.25l-.308 3.266L481 557h-2l-1 3c.525-5.03 1.106-10.019 2-15l-1.898.875-2.477 1.125-2.461 1.125C471 549 471 549 469 549v2c-1.812 1.062-1.812 1.062-4 2l-3-1 1.375-1.312c1.825-1.796 1.825-1.796 3.625-4.688l-5-1c3.829-3.33 8.375-5.053 13-7"/><path fill="#8f6e34" d="M464 435c2.438.688 2.438.688 5 2 1.456 3.536 1.014 4.966-.434 8.551a185 185 0 0 1-2.004 3.761l-1.025 1.956A405 405 0 0 1 463 456l-6-2c-.576-4.898 1.285-7.044 4-11 1.138-2.634 2.063-5.284 3-8"/><path fill="#936e36" d="M484 334c.664 1.746.664 1.746 1 4-1.039 1.91-1.039 1.91-2.625 4.062-3.168 4.963-4.729 9.855-6.187 15.5l-.626 2.397c-1.316 5.333-2.054 10.572-2.562 16.041h-1q-.04-4.437-.062-8.875l-.026-2.551-.01-2.441-.016-2.254C472 358 472 358 473 356c.155-1.706.275-3.415.375-5.125.414-5.146 1.576-9.154 3.625-13.875h3v-2c2-1 2-1 4-1"/><path fill="#765c33" d="m576.875 529.375 2.664.172c2.154.14 4.308.295 6.461.453v1h-9v2l-2.266.734-2.984 1.016-2.953.984c-3.018 1.366-4.734 2.687-6.797 5.266.14 2.707.14 2.707 1 5l-3-1c-.687-2.063-.687-2.063-1-4h-3c.487-6.449.487-6.449 2.687-8.813 6.281-3.225 11.311-3.33 18.188-2.812"/><path fill="#846d4d" d="M464.188 544.938 468 545c-3.118 5.697-5.214 9.466-11.375 12.063l-2.394 1.02c-4.868 2.003-4.868 2.003-7.231 2.917v2h-4v-5l5-1v-2l8-1v-3l-4-1c4.099-3.433 6.803-5.15 12.188-5.062"/><path fill="#6b5028" d="M471 604h5l1 5h-3v2h-2l1 4h-2v2h-2l-1 8-6-1v7c-1.562-1.188-1.562-1.188-3-3 .384-3.832 1.598-6.27 3.812-9.375 2.627-3.779 4.961-7.599 7.188-11.625h2z"/><path fill="#72552e" d="M500 603c2.769 2.59 2.975 3.717 3.312 7.562C503 614 503 614 501 617h-2v-8l-3.125-.812c-3.524-.998-6.644-2.454-9.875-4.188v-3h-3l-1-3c6.327-2.531 12.793 1.595 18 5"/><path fill="#947b54" d="m513 416 2 1-1 2 5 1 1-3h3v2l9-1v2l7 2-4 1v2h3l1 7-2.5-2.188c-6.891-6.092-6.891-6.092-15.5-7.874-3.791.756-7.006 2.396-10.336 4.32L509 427l-2-1c2-3 2-3 5-5l-2-2v-2z"/><path fill="#a4753b" d="M573 394c2.867 3.409 4.508 7.17 6.188 11.25l.826 1.969q.999 2.387 1.986 4.781c-4.126 1.178-6.302.808-10.188-.938-3.291-1.566-3.291-1.566-6.812-2.062v-4h2v-2h5z"/><path fill="#997742" d="m553 429 6 2v2h-2v4h2v2h2v2l4 1-1 4-1.375-1.5c-1.501-1.726-1.501-1.726-3.625-1.5l-1-2c-3.029-.658-3.029-.658-6-1v-2h-2l1 4-4-1v4l2 1h-3c-4-6.75-4-6.75-4-9h3v2l4 1-2-9h6z"/><path fill="#bf9753" d="M607 607a562 562 0 0 1 3.875 2.812l2.18 1.583C615 613 615 613 617 616c.047 2.742.047 2.742-.25 5.875l-.266 3.117c-.472 2.931-1.269 5.31-2.484 8.008h-3v-7h-2l-2-6h2v2l3-1c-1.866-3.628-1.866-3.628-5-6z"/><path fill="#998155" d="M609 531c1.896 3.791 3.095 7.438 4.188 11.5l.576 2.012c.936 3.463 1.599 6.084.236 9.488-3-3.625-3-3.625-3-7h-3v7l-2 1c-2.688-3.91-3.572-7.128-4.188-11.812l-.48-3.52L601 537l3 1v3h4z"/><path fill="#b7904a" d="m452 483 2 1a171 171 0 0 1 2 7l1 2-2 2 2 3v3l-9 2c-.844-5.483-1.619-10.605 0-16 2.062-2.312 2.062-2.312 4-4"/><path fill="#a17a3d" d="M543 650h1l.367 3.027.508 3.911.492 3.902L546 664l2 1v9l-4 1-1 5c-1.477-1.066-1.477-1.066-3-3-1.174-9.292.219-18.112 3-27"/><path fill="#a18c6b" d="M614 569c3.956 4.816 4.537 8.771 4 15-3.329 6.412-7.536 8.453-14 11l1.969 1.496 2.531 1.942 2.531 1.933L613 602v1h-5v-2h-2c-2.125-1.75-2.125-1.75-4-4v-4h2v-4h7v-3h2l.562-3.875.317-2.18c.289-2.026.289-2.026-.879-3.945q.421-3.511 1-7"/><path fill="#bf9848" d="M532 605q.063 3 0 6l1 2c.04 2 .043 4 0 6l-2-3c-3.075.776-3.075.776-5 3l-2-1v-2l-2-1v-4a816 816 0 0 0-3-5l1-2c2.215-.484 2.215-.484 4.938-.75l2.714-.297C530 603 530 603 532 605"/><path fill="#735427" d="M471 603c-2.168 3.855-4.699 7.294-7.379 10.797-2.262 3.074-4.294 6.285-6.324 9.515L456 625h-2c-1.148-2.23-1.148-2.23-2-5 2.783-7.244 10.729-17.788 19-17"/><path fill="#9b7c4c" d="m510.25 474.375 3.828.336L517 475v3q-2.904.755-5.812 1.5l-3.27.844C505 481 505 481 502 481v2h-2v2h-2c-.687 2.491-1 4.379-1 7l-3-1 1-5-6 1v-2l3-2 1-2c2.469-.816 2.469-.816 5.5-1.563 3.548-.645 3.548-.645 6.5-2.437l-6-1c3.764-2.491 6.866-2.031 11.25-1.625"/><path fill="#aa8041" d="M562 665c2 1.375 2 1.375 4 3v2l-5 1-1-2h-5v4l3 1-1 4q-2.374.506-4.75 1l-2.672.562C547 680 547 680 543 680v-5l1.938-.562c2.483-1.38 2.483-1.38 2.812-5.063L548 666c2.409 2.409 3.538 4.943 5 8l1-7 3.438-.438c3.37-.174 3.37-.174 4.562-1.562"/><path fill="#725429" d="M516 480c-2.41 1.928-4.549 3.254-7.375 4.562-4.94 2.7-7.104 7.6-9.625 12.438l-5-2 1-5h2l-1-2h2v-3h2v-2h2v-2c5.166-1.792 8.511-2.12 14-1"/><path fill="#855d28" d="M574 652h3v19l-9 3c.993-7.778 2.097-15.081 6-22"/><path fill="#927037" d="m456 451 2 3c2.05 1.192 2.05 1.192 4 2-1.76 5.92-4.397 11.416-7 17h2c-1.119 4.851-2.133 7.778-6 11l.254-2.266.308-2.984.317-2.953c.112-2.594-.25-4.323-.879-6.797.938-3.25.938-3.25 2-6h2z"/><path fill="#9c8152" d="M527 429c5.408.338 9.104 3.516 13 7 2.062 2.625 2.062 2.625 3 5-.312 2.312-.312 2.312-1 4l-1.75-2.375c-2.108-2.459-3.319-3.453-6.25-4.625l-2-1v-2h-3l-1 2-1.918-.961c-4.135-1.394-8.058-1.5-12.394-1.664l-2.534-.117A971 971 0 0 0 505 434v-1h17v-2h5z"/><path fill="#7e633b" d="m470 604 2 1v2h-2l-.625 2.5c-1.491 3.794-3.405 6.418-5.937 9.57-2.256 3.028-3.584 4.86-3.063 8.68L461 630l1-6 5 1c-1.258 4.508-2.904 7.491-6 11a185 185 0 0 1-3.125-4.188l-1.758-2.355C455 627 455 627 455.617 624.5a73 73 0 0 1 4.633-7.312l1.863-2.606A645 645 0 0 1 470 604"/><path fill="#a58043" d="m438 525 1 2 2.875-.562C445 526 445 526 447 527v-2h5c-2.798 2.189-5.648 3.964-8.75 5.688-4.605 2.704-8.065 5.843-11.656 9.773C430 542 430 542 428 542c.674-5.258 2.243-10.026 4-15l1 2c3.122-1.309 3.122-1.309 5-4"/><path fill="#906f35" d="m490 453 2 1v2l-2.668.988-3.52 1.324-3.48 1.301c-3.318 1.272-3.318 1.272-6.051 3.106C474 464 474 464 470.688 463.188L468 462c1.522-4.566 4.808-5.592 8.93-7.766 4.417-1.776 8.39-1.958 13.07-1.234"/><path fill="#a6823d" d="M511 448c.562 1.938.562 1.938 1 4-3.418 3.418-15.166 2.822-20 3-3.6-.327-6.524-.974-10-2v-1c10.109-3.489 18.39-4.535 29-4"/><path fill="#8b672c" d="M553 547c3 1 3 1 4 3 1.835.467 1.835.467 4.035.633l2.451.254 2.576.238 2.588.262q3.174.316 6.35.613v2l3 1v1c-17.098.53-17.098.53-23.797-2.266-4.545-1.515-9.447-1.501-14.203-1.734v-1l2.082-.184 2.73-.254 2.708-.246c2.607-.251 2.607-.251 5.48-1.316z"/><path fill="#96773d" d="M514 537c1.014 3.621 1.499 7.278 2 11q-1.871 1.443-3.75 2.875l-2.109 1.617C506.44 555.099 504.64 556 500 556c.506-2.169 1-4 2-6h2v-2h2v-2h2l.75-1.688c1.466-2.712 3.28-4.948 5.25-7.312"/><path fill="#876430" d="M568 409c2.285.536 4.275 1.12 6.438 2.062 2.704.99 4.707 1.101 7.562.938l2 5h-11l-1 8h-2l-1 4c-1.238-6.656-1.091-13.247-1-20"/><path fill="#b9924c" d="M576 644h4q-.21 5.376-.438 10.75l-.119 3.078-.127 2.969-.111 2.729c-.188 2.27-.579 4.29-1.205 6.474h-1v-18h-3l-1 5h-4v-6h-2c.625-1.875.625-1.875 2-4 3.062-1.188 3.062-1.188 6-2z"/><path fill="#87775a" d="M540 630h1c1.129 5.361 1.097 10.553 1 16h-3l-.113 2.309c-.376 5.894-1.112 10.925-3.188 16.445-1.24 3.984-1.448 8.098-1.699 12.246l2 1-2 3c-4.619-13.858.212-29.445 4.355-42.765.784-2.718 1.28-5.431 1.645-8.235"/><path fill="#876a41" d="M602 561c5.378 1.16 8.653 2.335 12 7 .406 2.806.242 5.142 0 8l-4 1q-1.944-2.37-3.875-4.75l-2.18-2.672c-1.629-2.16-2.853-4.118-3.945-6.578z"/><path fill="#907749" d="m594 454 1 6a516 516 0 0 1-6.188 2.062l-3.48 1.161c-3.307.771-5.123.738-8.332-.223v-5c1.888-.87 3.786-1.721 5.688-2.562l3.199-1.442c3.279-1.049 4.872-1 8.113.004"/><path fill="#9a7f53" d="M415 430c7.532 3.069 10.393 9.173 13.961 16.062 1.133 3.203 1.038 4.741.039 7.938l-3-2c-.188-3.625-.188-3.625 0-7h-2v-4l-3.812.188c-2.583-.019-3.933-.056-6.25-1.25-1.505-3.109-.666-5.664.062-8.938z"/><path fill="#a77b3d" d="M591 650h1l1 12-14 7 2-13 4-1-1 3 3 1v-2l3-2c.73-2.563.73-2.563 1-5"/><path fill="#93703c" d="M610 577h5c-.486 3.123-.999 5.996-2 9h-2v3h-7v4h-8l-1 3-3-1c1.375-1.5 1.375-1.5 3-3h2v-3l-3-2 2.266-.113 2.984-.199 2.953-.176c3.106-.568 4.556-1.313 6.797-3.512.809-3.102.809-3.102 1-6"/><path fill="#82622f" d="M401 484c5.149 10.02 5.594 20.964 6 32-2.438-.75-2.438-.75-5-2-1.265-3.286-1.115-6.594-1.098-10.078l.01-3.516.026-3.656.013-3.703q.018-4.524.049-9.047"/><path fill="#ab8744" d="M456 415h2c2.296 9.41 2.296 9.41 2 14l-1-2h-3v31l-3 1c-1.219 2.504-1.219 2.504-2 5l-1-3a743 743 0 0 1 3-5c1.315-5.529 1.148-11.102 1.125-16.75l.012-2.844c-.009-6.192-.402-12.258-1.137-18.406h2z"/><path fill="#bfa77a" d="M509 649h2c6.935 9.441 12.906 19.999 12 32h-1l-1-7h-2c-4-6.625-4-6.625-4-10l-4-1-.438-3.625A211 211 0 0 0 509 649"/><path fill="#8f7349" d="M587 552c15.488 4.733 15.488 4.733 19 10l-2 1v-2l-1.562 1.625C600 564 600 564 596.875 563.438A103 103 0 0 1 593 562l-2.676-1.035A459 459 0 0 1 583 558l4-1-1-3z"/><path fill="#b9934d" d="M509 360h14c-1.912 4.781-3.237 6.707-7 10h-2l-1 3-1-2-5 2v-4h2v-2h2v-2h-2z"/><path fill="#ba9449" d="M558 564v2l2.438.812L563 568l1 3c-7.75-1.875-7.75-1.875-10-3a79 79 0 0 0-4.875-.125l-2.617-.008c-2.315.123-4.291.483-6.508 1.133l1-4-9 1c8.635-4.318 16.924-5.723 26-2"/><path fill="#b79452" d="m511 658 1 3-1 2 4 1q.04 3.688.062 7.375l.026 2.117c.025 5.281.025 5.281-1.088 7.508h-4l-.148-2.922-.227-3.828-.211-3.797c-.378-3.15-.963-4.739-2.414-7.453v-4z"/><path fill="#ac874b" d="M509 561v2h17v1l-3.84.113-5.098.199-2.517.069c-5.737.245-11.39.913-16.545 3.619-1.767 3.033-1.767 3.033-3 6-2.996 1.229-4.313 1.279-7.312.062L486 573l2-1 .16-1.863c.84-2.137.84-2.137 4.149-3.805q2.055-.783 4.129-1.52l4.121-1.542L504 562c2-1 2-1 5-1"/><path fill="#886731" d="m505 476 2 2c-9.41 3.444-9.41 3.444-14 3v4h-4v2h-2l1-4h-2v2c-3.529 1.667-5.283 2.136-9 1 17.423-11.69 17.423-11.69 28-10"/><path fill="#9a743a" d="M594 640c2.57 4.949 5.121 10.216 4.875 15.875-.964 2.341-1.863 3.596-3.875 5.125h-2l-.586-2.668-.789-3.52-.773-3.48A54 54 0 0 0 588 643h6z"/><path fill="#b08b44" d="m449 396 5 1c.751 2.934 1.476 5.87 2.188 8.812l.654 2.526.576 2.432.555 2.237C458 415 458 415 456.661 416.764 455 418 455 418 453 418a1186 1186 0 0 1-2-7.625l-.578-2.16c-1.072-4.173-1.641-7.867-1.422-12.215"/><path fill="#ac946d" d="m494.5 325.25 2.344.203c2.524.64 3.505 1.578 5.156 3.547h-5v-2h-9v2l3 1v2h5l-1 2-2.75-.188c-3.54.205-4.699.834-7.25 3.188l-1-3-4 1v2h-3c1.309-5.563 5.389-8.115 10-11 2.982-.994 4.445-1.056 7.5-.75"/><path fill="#715425" d="m595.125 469 1.875 1 1 8c-2.463-.44-3.844-.869-5.781-2.5-2.752-1.86-4.676-1.992-7.969-2.188l-2.984-.199L579 473c.375-1.938.375-1.938 1-4 4.451-2.225 10.523-1.473 15.125 0"/><path fill="#9f7b3d" d="M466 461a101 101 0 0 1 6 2l1 2-1.723 1.066c-5.419 3.466-9.923 7.202-14.277 11.934l-1-3 1-2h-2c.188-2.375.188-2.375 1-5a77 77 0 0 1 5-2c2.772-2.521 2.772-2.521 5-5"/><path fill="#816130" d="m533 622 4 1-1 4h-2l.625 3.875c.352 2.18.352 2.18.375 4.125-2.287 2.287-2.906 2.295-6 2.562-2.38.215-3.847.361-6 1.438v-4l-3-1 3.25-.688c4.217-1.475 5.412-2.589 7.75-6.312 1.24-2.679 1.24-2.679 2-5"/><path fill="#bd9755" d="M599 564c8.565 7.039 8.565 7.039 10 10-.312 3.75-.312 3.75-1 7h-3l-1 2h-3c-1.18-3.848-1.332-7.758-1.562-11.75l-.131-2.113q-.158-2.568-.307-5.137"/><path fill="#7b5d2d" d="M488 541c.39 7.598-.392 13.845-3 21l-2-1v-9l-1 1h-1c-.125-7.75-.125-7.75 1-10l-2-1c5.75-2.125 5.75-2.125 8-1"/><path fill="#a48040" d="M453 459h2v4h-2l-.332 1.758c-1.407 6.931-2.834 11.913-8.668 16.242-1.268 2.585-1.268 2.585-2 5l-2-1c2.818-9.486 6.77-18.255 13-26"/><path fill="#846434" d="M535 423c2.916-.117 4.386-.156 7 1 3.912 4.613 6.678 9.887 7 16l-4-1v-2h-4a357 357 0 0 1-1.5-3.75l-.844-2.109C538 429 538 429 538 425h-3z"/><path fill="#b79248" d="m532 392 2 4c-3.068 1.023-4.759.985-7.938.812-6.544-.096-12.023 1.827-18.062 4.188l1-6c15.745-3.444 15.745-3.444 23-3"/><path fill="#7b5d2d" d="m513 553 1 4h-4l-.062 1.812c-.938 2.188-.938 2.188-4.188 4-3.65 1.156-5.199 1.372-8.75.188l-1-4a570 570 0 0 1 5.688-3l3.199-1.688c3.035-1.279 4.873-1.601 8.113-1.312"/><path fill="#7f6949" d="m515 632 8 3v4l1-2h8c-2.966 3.249-5.13 3.908-9.562 4.375-5.359-.05-10.082-2.361-14.438-5.375l-1-3 8 2z"/><path fill="#a68347" d="M418 533h1c.202 7.353.212 13.949-2 21-3.618-3.618-5.668-9.15-6.258-14.215.008-1.91.008-1.91.258-4.785h2v2h2c1.294-1.229 1.294-1.229 3-4"/><path fill="#c8b896" d="M427 395h1v6h2v18h2c1.715 7.879 2.31 15.385 2.25 23.438l.023 3.216-.007 3.092-.007 2.771c-.271 2.601-.943 4.245-2.259 6.483l-2-7 3 1c-.294-10.259-1.551-20.043-3.54-30.108-1.764-8.998-2.608-17.725-2.46-26.892"/><path fill="#866430" d="M578 584c4.844-.238 8.744.602 13.375 2l3.773 1.125L598 588c-.773 3.836-.773 3.836-2.812 5.312-2.658.836-3.571.595-6.188-.312a92 92 0 0 1-5.188-3.438l-2.667-1.871C579 586 579 586 578 584"/><path fill="#735528" d="M524 483h3c1.524 3.143 1.999 5.017 1.875 8.562.153 4.206 1.178 4.676 4.125 7.438.25 2.75.25 2.75 0 5h-3c-1.34.306-2.675.635-4 1l-.148-3.07-.227-4.055-.094-2.016c-.25-4.257-1.006-7.88-2.531-11.859z"/><path fill="#6e5229" d="M604 511h1q1.006 3.904 2 7.812l.578 2.237c.775 3.056 1.422 5.785 1.422 8.951h-2l-2 5c-3.043-3.043-3.158-4.864-3.188-9.062.035-5.258.857-9.863 2.188-14.938"/><path fill="#7c5929" d="m495 559 5 5c-3.163 2.109-6.135 3.288-9.688 4.625l-3.574 1.352L484 571v-7z"/><path fill="#75582d" d="m456 551 1 4h-9v2l-1.938.75c-2.249 1.066-2.249 1.066-2.812 3.375L443 563l-5-1c.269-3.45.67-4.705 3.293-7.055l2.895-1.82 2.855-1.867c3.492-1.486 5.34-1.212 8.957-.258"/><path fill="#77603b" d="M608 547h3l1.375 2.938c1.283 3.133 1.283 3.133 3.625 4.062.414 2.066.414 2.066.625 4.562l.227 2.504L617 563c-3.322-.285-5.082-1.056-7.875-2.938-2.792-4.023-2.252-6.36-1.52-11.05z"/><path fill="#977840" d="M581 502v9l-18 1c2.899-2.899 5.481-4.631 9-6.688l3.188-1.886C578 502 578 502 581 502"/><path fill="#c5a05b" d="M552 552v1q-2.873.758-5.75 1.5l-3.234.844c-3.209.698-6.147.681-9.418.586-4.789-.104-8.176.104-12.598 2.07-3.312.125-3.312.125-6 0 12.199-6.387 23.559-6.482 37-6"/><path fill="#dbd1bc" d="M565 537c1.354 2.709 1.065 5.009 1 8l3.156.41c8.054 1.167 15.381 2.841 22.844 6.152l2.084.925c4.77 2.221 4.77 2.221 5.916 4.513q-1.908-.622-3.812-1.25l-2.512-.816C591 554 591 554 588.48 552.91c-7.993-3.368-14.926-3.326-23.48-2.91-.897-2.691-1.279-4.889-1.562-7.688l-.254-2.449L563 538z"/><path fill="#9f773a" d="M569 663c1.114 2.786.935 4.531.562 7.562-1.686 3.71-1.947 4.004-5.5 5.376-2.564.8-4.336 1.062-7.062 1.062v-3l-2-1v-4l5-1 1 3c2.452-.106 2.452-.106 5-1 1.325-2.395 1.325-2.395 2-5z"/><path fill="#a38d6b" d="M502 329c2.746 2.371 3.951 4.531 5 8 .125 3.312.125 3.312 0 6l1.617-.656c5.76-2.153 11.227-3.24 17.383-2.344l2 2c-2.963.988-4.971 1.134-8.062 1.125l-2.661.008C515 343 515 343 513 342v2l-8 1-.586-2.152-.789-2.786-.773-2.777c-.619-2.452-.619-2.452-2.852-3.285z"/><path fill="#916d37" d="M588 629h3c3.444 9.41 3.444 9.41 3 14h-6a478 478 0 0 1-1.5-3.812l-.844-2.145C585 635 585 635 585 632h2z"/><path fill="#c6a256" d="M542 590h2v2h3c3.705 7.872 3.705 7.872 3 12-1.19 2.75-2.545 5.382-4 8h-1l-2-10h2v-3l-4-1 2-3c-.312-2.646-.312-2.646-1-5"/><path fill="#886b37" d="M602 511h1c.214 6.644-.488 12.532-2 19l-6-1c0-10 0-10 1-12l5 1z"/><path fill="#b3965c" d="m587 463-4 3 6 1v1l-3.75.625c-5.333 1.16-9.847 3.498-14.648 6.035C568 476 568 476 565 477c.346-2.821.827-3.843 2.969-5.781C583.01 461.005 583.01 461.005 587 463"/><path fill="#a49272" d="M542 444h2c.438 7.916.228 14.126-4.992 20.391-3.971 4.144-7.623 7.538-13.008 9.609 1-3 1-3 2-5h2v-2h4v-4h3l1-4h3l-.035-2.266-.027-2.984-.036-2.953c.086-2.455.391-4.459 1.098-6.797"/><path fill="#9f7c3e" d="M456 427h3c1.328 2.655 1.337 4.98 1.562 7.938l.254 3.214c.374 5.801-.858 7.948-3.816 12.848h-1z"/><path fill="#917d5b" d="M527 480c3 1 3 1 4.625 4.25 2.143 5.844 2.48 10.584 2.375 16.75l2 1-3 3-.332-1.934-.48-2.504-.458-2.496L531 496l-3-1 .07-1.793c.104-4.545.067-8.066-2.07-12.207z"/><path fill="#98815c" d="M451 591h2v4h-3v2h-2c.669 3.113.669 3.113 3.062 4.188L453 602a470 470 0 0 1-2.875 4l-1.617 2.25L447 610h-2c-2-3-2-3-1.812-5.812.86-3.375 2.143-6.14 3.812-9.188h2v-2h2z"/><path fill="#a47e3d" d="M527 564c1.44.257 2.877.531 4.312.812l2.426.458c2.496.806 3.586 1.751 5.262 3.73l-8-1-1 2c-3.003 1.502-5.791 1.093-9.125 1.062l-3.883-.027L514 571l3-2 2.375-2.188C522 565 522 565 524.812 565.25L527 566z"/><path fill="#bd8e4e" d="M596 641h2l2 3c3.066.733 3.066.733 6 1 .715 1.766.715 1.766 1 4-1.434 1.922-1.434 1.922-3.438 3.75l-1.996 1.859L600 656c-3.436-5.154-4.244-8.777-4-15"/><path fill="#886939" d="m585 486 3 3c-4.246 4.246-10.383 7.007-16 9v3l-2-1 1-2-6 1c2.71-2.99 5.525-4.313 9.16-5.938 2.164-1.068 2.164-1.068 3.84-4.062a118 118 0 0 1 7-3"/><path fill="#be974d" d="m455 599 2 1h3l1 3-12 11-3-2c1.491-3.283 3.386-5.931 5.625-8.75l1.914-2.422z"/><path fill="#af8141" d="M585 646h5c1.478 2.957 1.06 5.742 1 9l-4 2v2l-4-1 1-2-2-1z"/><path fill="#cca65a" d="m604 605 3 1c1.125 5.625 1.125 5.625 0 9l1.875.625c2.972 1.923 3.255 4.041 4.125 7.375l-4-1v-2l-1.562-.312c-3.298-.931-6.304-2.302-9.438-3.688l1.875-.125c2.444-.72 2.444-.72 3.375-3.687.903-3.291.903-3.291.75-7.188"/><path fill="#9a783a" d="M551.813 575.063c3.323 1.423 5.615 3.423 8.188 5.938v4a266 266 0 0 1-4.813-.313l-2.707-.177c-2.846-.587-3.84-1.13-5.48-3.51v-4c3-2 3-2 4.812-1.938"/><path fill="#bd9e5b" d="m595 460 2 10-15-3c6.632-7 6.632-7 13-7"/><path fill="#ab8642" d="M409 453h3q1.048 3.62 2.062 7.25l.604 2.066c1.734 6.267 1.734 6.267.334 9.684v-3l-2 1c-.658 3.029-.658 3.029-1 6h-1c-1.231-7.727-2.27-15.168-2-23"/><path fill="#9d783b" d="m511.57 563.902 2.715.01 2.84.025 2.863.014q3.505.017 7.012.05v2c-.722-.084-1.444-.166-2.188-.25-3.666.324-4.983 1.971-7.812 4.25-3.313.75-3.313.75-6 1l-1.313-1.876c-1.685-2.345-1.685-2.345-4.687-4.125 2.4-1.2 3.893-1.115 6.57-1.098"/><path fill="#654d24" d="m482 551 2 1-.035 1.688c-.047 3.977.033 7.807.597 11.75C485 569 485 569 484 571c-1.875-.312-1.875-.312-4-1-2.454-3.681-2.233-5.653-2-10l1-3h2z"/><path fill="#988257" d="M578 460v3l2 2c-3.682 2.183-7.598 2.856-11.75 3.625l-2.113.406q-2.568.49-5.137.969c3.032-3.139 6.009-5.927 9.625-8.375l2.289-1.586C575 459 575 459 578 460"/><path fill="#947342" d="m495.5 326.75 2.344.484c2.392.85 3.52 1.857 5.156 3.766l-2 1 1 5-3 1c-3-3.75-3-3.75-3-6l-2.312.188C491 332 491 332 489.188 330.625 488 329 488 329 488 327c3.198-1.066 4.303-.953 7.5-.25"/><path fill="#917850" d="M535 608h1l1 10 5 1v9l-1-3h-2l-.312 2.312c-.732 2.859-1.458 3.845-3.688 5.688l-1-6h2v-4l-2-1z"/><path fill="#bab09a" d="M577 531h10v2l2.012-.176c7.126-.364 7.126-.364 9.765 1.289 1.348 1.387 1.348 1.387 3.223 3.887l-1 3-1.211-1.398c-4.899-4.386-14.328-5.843-20.789-5.602a70 70 0 0 0-7.836 2.406C569 537 569 537 566 536c6.5-3 6.5-3 11-3z"/><path fill="#9d7d43" d="m519 468 2 1-1 3h3v2l2 1c1.125 2.062 1.125 2.062 2 4h-4l-1-3-2.773-.148-3.602-.227-3.586-.211C509 475 509 475 507 473a710 710 0 0 1 5.875-2.562l3.305-1.442z"/><path fill="#bb974d" d="M538 589c1.875.125 1.875.125 4 1 1.25 3.062 1.25 3.062 2 6l-2 2 3 1v3l-3 1-8-9-2 3v-5h5z"/><path fill="#806034" d="m457 587 4 2c-1.492 4.475-3.655 8.636-7 12-2.812.438-2.812.438-5 0l-1-4h2v-2h3l1-5h2z"/><path fill="#b7904b" d="m566 650 3 1v6l3 1-4 8h-2c-2.073-3.11-2.274-3.891-2.25-7.438l-.016-2.308c.291-2.468 1.036-4.112 2.266-6.254"/><path fill="#916f35" d="M471 383c.327 6.131.394 10.627-3 16-2.93-5.274-3.117-10.027-3-16 2.491-1.245 3.411-.777 6 0"/><path fill="#8e713a" d="m472.012 636.902 2.295.01 2.38.025 2.417.014q2.947.019 5.896.05l-3 1v2c-5.335 2.285-9.28 3.47-15 2v-2l-2-2c2.707-.904 4.238-1.12 7.012-1.099"/><path fill="#8a6f47" d="m467 578-.5 2.312c-.591 2.724-.591 2.724-.5 5.688-4.015 4.266-7.415 4.621-13 5 1.548-3.835 3.937-6.026 7-8.75l2.688-2.422C465 578 465 578 467 578"/><path fill="#80653f" d="M572 419h1c.087 4.271.14 8.541.188 12.812l.076 3.682.029 3.526.048 3.253C573 445 573 445 571.482 446.874L570 448c-1.125-4.75-1.125-4.75 0-7 .04-2 .043-4 0-6l-2 1 2-11h2z"/><path fill="#b29f77" d="M456 356c4.302 2.458 7.606 5.407 11 9l1-9h1c.369 7.385.369 7.385-1.5 10.5L466 368v-2l-3 1v-2l-4-1v-3l-5-1 1-3h-9c4.437-2.219 5.391-2.29 10-1"/><path fill="#aa8b4f" d="M515 667c5.875 4.75 5.875 4.75 7 7 .04 2.333.043 4.667 0 7h-8z"/><path fill="#a47e3c" d="m560 582 4 3c-.875 5.75-.875 5.75-2 8-4.263-.474-6.215-2.922-9-6l-2-3c2.788-1.033 3.868-1.045 6.75-.062L560 585z"/><path fill="#d8b460" d="m514 461 2 2 5-2c-.506 2.169-1 4-2 6h-3l-1 4-6 1c.503-3.687.998-6.821 3-10z"/><path fill="#b69048" d="M509 396c-.121 2.262-.121 2.262-1 5-2.723 2.02-2.723 2.02-6.062 3.812l-3.348 1.833L496 408l-2-5q2.404-1.474 4.812-2.938l2.708-1.652c2.533-1.44 4.533-2.41 7.48-2.41"/><path fill="#c6a25a" d="M565 556q3.531-.08 7.062-.125l3.973-.07c4.083.201 7.115.923 10.965 2.195v1l-2.438.375L582 560l-1 2h-3l-1 2v-2l-3.375-.312L570 561l-2-3h4l-7-1z"/><path fill="#8f6c34" d="m417 440 7 1v4h2l.438 3.312c.445 3.619.445 3.619 1.562 6.688h-2l-2 2-.516-1.758c-1.573-5.073-3.427-8.92-6.484-13.242z"/><path fill="#aa8643" d="m491 403 4 1 1 4-1.828 1.609-2.422 2.141-2.391 2.109A154 154 0 0 0 483 420l-1-2 1.207-1.758c2.921-4.306 5.612-8.516 7.793-13.242"/><path fill="#8e7141" d="M513 342c2.752-.135 5.497-.234 8.25-.312l2.355-.127c2.239-.048 4.205-.031 6.395.439 2.547 2.52 2.547 2.52 4 5l-2.543-.492c-3.638-.535-7.094-.641-10.769-.633l-3.739-.008c-2.837-.204-2.837-.204-3.949 1.133q-3 .063-6 0v-2l6-1z"/><path fill="#937138" d="m491 553 3 3h2c-.223 1.859-.223 1.859-1 4-1.996 1.266-1.996 1.266-4.438 2.25l-2.433 1.016C486 564 486 564 484 564c2.344-11 2.344-11 7-11"/><path fill="#8d7247" d="M486 483h2l-1 4 2 1-11 6-2-4c-2.05-.805-2.05-.805-4-1 4.477-2.985 8.638-4 14-4z"/><path fill="#d0ab52" d="m531 578 1 5 6 2c-3.188 2.125-5.265 2.502-9 3l-1-3h-2v-2l-3-1c1.727-3.454 4.293-4 8-4"/><path fill="#a19176" d="M573 417h11v2c-6.75 1.125-6.75 1.125-9 0l.035 3.762.027 4.926.026 2.474c.016 4.083-.058 7.855-1.088 11.838h-1z"/><path fill="#9c7940" d="M502 334c2.044 3.065 2.387 4.384 2.75 7.938l.297 2.589c-.053 2.769-.481 4.2-2.047 6.473l-3 1-1-14 3-1z"/><path fill="#7f6032" d="M523 476v3l3-1 2 2-5 5-9-5 1-2h2v-2c3-1 3-1 6 0"/><path fill="#9e7d3d" d="M529 435h3v2l2.188-.5c2.812.5 2.812.5 4.292 2.176 1.363 2.088 2.59 4.008 3.52 6.324l-1 3-2-2 1 6-4 2 .141-2.012c.274-5.772.274-5.772-1.953-10.988-2.22-2.131-2.22-2.131-5.188-4z"/><path fill="#8c734d" d="m515.188 426.375 2.442.133c3.38.202 6.134.413 9.37 1.492v3h-5v-2l-6 1v1c-2.375.125-2.375.125-5 0l-2-2c-2.21-.243-2.21-.243-4.625-.125l-2.476.055-1.9.07v-2c5.186-1.119 9.943-.965 15.188-.625"/><path fill="#a47d3f" d="m550 438 9 3v2l3-1c.562 1.938.562 1.938 1 4-1 1-1 1-3.75 1.375-4.315-.498-5.589-2.03-8.25-5.375z"/>
  </g>
</svg>