<?xml version="1.0" encoding="UTF-8"?>
<!-- Generator: visioncortex VTracer -->
<svg id="svg" version="1.1" xmlns="http://www.w3.org/2000/svg" style="display: block;" viewBox="0 0 768 1024"><path d="M0 0 C0.61746094 0.54527344 1.23492188 1.09054687 1.87109375 1.65234375 C2.56074219 2.24917969 3.25039063 2.84601562 3.9609375 3.4609375 C12.10836809 11.00148313 16.73553042 20.68533798 17.20703125 31.83984375 C17.68774101 62.26824928 4.84765072 86.19789105 -16.09301758 107.90234375 C-27.46403937 119.44280387 -39.64133089 128.38264221 -54.12890625 135.65234375 C-55.08627686 136.13380859 -55.08627686 136.13380859 -56.06298828 136.625 C-73.14017422 144.95660998 -94.11783604 149.91287573 -113.12890625 149.71484375 C-114.26328125 149.70582031 -115.39765625 149.69679688 -116.56640625 149.6875 C-117.41203125 149.67589844 -118.25765625 149.66429687 -119.12890625 149.65234375 C-118.95500366 150.6110437 -118.95500366 150.6110437 -118.77758789 151.58911133 C-118.24396662 154.54682924 -117.71765967 157.50580638 -117.19140625 160.46484375 C-116.91780273 161.97208008 -116.91780273 161.97208008 -116.63867188 163.50976562 C-114.67688775 174.60276315 -113.96833318 185.59247861 -113.56640625 196.83984375 C-113.52322266 197.98259766 -113.48003906 199.12535156 -113.43554688 200.30273438 C-113.33074329 203.08585186 -113.22857326 205.8690384 -113.12890625 208.65234375 C-112.52780029 208.77351562 -111.92669434 208.8946875 -111.30737305 209.01953125 C-91.66006589 213.14786733 -73.68060254 229.87453819 -62.62890625 246.15234375 C-55.52246648 257.13298017 -50.5586457 269.09421093 -52.5390625 282.41015625 C-54.09977576 288.52217106 -56.97262876 292.97986906 -61.12890625 297.65234375 C-61.78246094 298.42191406 -62.43601562 299.19148438 -63.109375 299.984375 C-82.70086636 321.39676229 -113.63279116 329.50617079 -141.71875 330.8203125 C-172.29568426 330.99870768 -203.81760482 324.71047926 -227.12890625 303.65234375 C-235.35361118 295.12737182 -240.5647256 285.53230567 -240.40625 273.55859375 C-238.72617926 255.9533454 -227.70186795 242.14159705 -215.75390625 230.02734375 C-215.22974121 229.49375244 -214.70557617 228.96016113 -214.16552734 228.41040039 C-210.37471671 224.65234375 -210.37471671 224.65234375 -208.12890625 224.65234375 C-208.12890625 223.99234375 -208.12890625 223.33234375 -208.12890625 222.65234375 C-207.13890625 222.65234375 -206.14890625 222.65234375 -205.12890625 222.65234375 C-205.12890625 221.99234375 -205.12890625 221.33234375 -205.12890625 220.65234375 C-203.14890625 219.99234375 -201.16890625 219.33234375 -199.12890625 218.65234375 C-199.12890625 217.99234375 -199.12890625 217.33234375 -199.12890625 216.65234375 C-194.27330034 214.09211518 -189.57734692 212.01721654 -184.34375 210.37109375 C-182.25025221 209.69172233 -180.23249073 208.91120571 -178.19140625 208.08984375 C-173.63104617 206.33940251 -168.92824425 205.48829402 -164.12890625 204.65234375 C-164.15984375 202.79609375 -164.15984375 202.79609375 -164.19140625 200.90234375 C-164.24061204 197.94999629 -163.8828849 195.5012873 -163.12890625 192.65234375 C-163.62181152 192.96461914 -164.1147168 193.27689453 -164.62255859 193.59863281 C-186.90980928 207.65234375 -186.90980928 207.65234375 -194.12890625 207.65234375 C-194.12890625 208.31234375 -194.12890625 208.97234375 -194.12890625 209.65234375 C-224.43133964 219.21897737 -260.09015523 221.01150629 -290.25390625 210.33984375 C-291.02428223 210.06841553 -291.7946582 209.7969873 -292.58837891 209.51733398 C-305.01485255 204.7749748 -315.63875421 194.735088 -321.12890625 182.65234375 C-325.88722697 171.98477276 -324.53371026 159.42916963 -321.16015625 148.51953125 C-316.53639766 136.55399382 -308.90862927 126.85091595 -300.12890625 117.65234375 C-299.33806641 116.74935547 -299.33806641 116.74935547 -298.53125 115.828125 C-283.43235881 99.26182239 -258.12298078 89.53879545 -236.11572266 88.51171875 C-214.04025949 87.87268378 -194.32320563 89.39563677 -174.12890625 98.65234375 C-173.01902344 99.14605469 -171.90914062 99.63976562 -170.765625 100.1484375 C-168.20919797 101.29509409 -165.66709317 102.46615589 -163.12890625 103.65234375 C-163.15247192 102.68748047 -163.15247192 102.68748047 -163.17651367 101.703125 C-163.80257979 72.07461219 -158.1303958 47.16160172 -137.46484375 25.03125 C-136.69398438 24.24621094 -135.923125 23.46117187 -135.12890625 22.65234375 C-134.6181958 22.11464355 -134.10748535 21.57694336 -133.58129883 21.02294922 C-104.1483283 -9.4157417 -36.25034724 -29.61826708 0 0 Z " transform="translate(537.12890625,524.34765625)" style="fill: #567530;"/><path d="M0 0 C0.33 0 0.66 0 1 0 C2.88245697 14.31032822 3.56893472 28.57858839 4 43 C4.90165894 43.18175781 4.90165894 43.18175781 5.8215332 43.3671875 C25.46884036 47.49552358 43.44830371 64.22219444 54.5 80.5 C61.60643977 91.48063642 66.57026055 103.44186718 64.58984375 116.7578125 C63.02913049 122.86982731 60.15627749 127.32752531 56 132 C55.34644531 132.76957031 54.69289063 133.53914062 54.01953125 134.33203125 C34.42803989 155.74441854 3.49611509 163.85382704 -24.58984375 165.16796875 C-55.16677801 165.34636393 -86.68869857 159.05813551 -110 138 C-118.22470493 129.47502807 -123.43581935 119.87996192 -123.27734375 107.90625 C-121.59727301 90.30100165 -110.5729617 76.4892533 -98.625 64.375 C-98.10083496 63.84140869 -97.57666992 63.30781738 -97.03662109 62.75805664 C-93.24581046 59 -93.24581046 59 -91 59 C-91 58.34 -91 57.68 -91 57 C-90.01 57 -89.02 57 -88 57 C-88 56.34 -88 55.68 -88 55 C-86.02 54.34 -84.04 53.68 -82 53 C-82 52.34 -82 51.68 -82 51 C-77.14439409 48.43977143 -72.44844067 46.36487279 -67.21484375 44.71875 C-65.12134596 44.03937858 -63.10358448 43.25886196 -61.0625 42.4375 C-56.4850935 40.68051569 -51.81652519 39.86965038 -47 39 C-47 34.71 -47 30.42 -47 26 C-46.34 26 -45.68 26 -45 26 C-44.505 28.97 -44.505 28.97 -44 32 C-44.66 32 -45.32 32 -46 32 C-46 34.31 -46 36.62 -46 39 C-42.535 38.505 -42.535 38.505 -39 38 C-39.020625 37.05125 -39.04125 36.1025 -39.0625 35.125 C-39 32 -39 32 -38 30 C-36.515 30.495 -36.515 30.495 -35 31 C-34.505 34.465 -34.505 34.465 -34 38 C-25.03627101 32.81047269 -18.30692062 25.59346421 -14.16015625 16.140625 C-12.38749814 12.8698619 -10.26394514 11.66992542 -7 10 C-6.01 10.99 -5.02 11.98 -4 13 C-3.01 12.67 -2.02 12.34 -1 12 C-0.67 8.04 -0.34 4.08 0 0 Z " transform="translate(420,690)" style="fill: #B26842;"/><path d="M0 0 C3.12142016 2.6651698 6.14785756 5.29571512 8 9 C9.14906242 32.64930786 3.99190335 55.86132363 -12 74 C-12.84820313 74.96808594 -13.69640625 75.93617188 -14.5703125 76.93359375 C-29.33904217 93.54352475 -48.68601207 107.72017514 -71.5078125 110.4140625 C-79.68041306 110.89065044 -87.81350151 111.23326522 -96 111 C-97.19302734 110.97486328 -97.19302734 110.97486328 -98.41015625 110.94921875 C-102.06777967 110.70993497 -103.93721102 110.04777422 -106.875 107.8125 C-109.66439069 104.12065938 -111.28026011 101.56828524 -110.76171875 96.81640625 C-105.09312568 72.71524522 -73.21125291 48.96177894 -53.33203125 36.30078125 C-51 35 -51 35 -49 35 C-49 34.01 -49 33.02 -49 32 C-68.23245801 33.76034793 -83.31570055 41.45562359 -98 54 C-99.16982422 54.98613281 -99.16982422 54.98613281 -100.36328125 55.9921875 C-104.20315165 59.0708659 -104.20315165 59.0708659 -107 63 C-107.66 63 -108.32 63 -109 63 C-109 63.66 -109 64.32 -109 65 C-109.66 65 -110.32 65 -111 65 C-111.24105469 65.53753906 -111.48210937 66.07507813 -111.73046875 66.62890625 C-113.33316008 69.62224052 -115.2748714 72.2218034 -117.3125 74.9375 C-118.07175781 75.95714844 -118.83101563 76.97679687 -119.61328125 78.02734375 C-121.91738153 80.89709876 -124.3501187 83.45045844 -127 86 C-127.33 86.33 -127.66 86.66 -128 87 C-135.07070707 87.70707071 -135.07070707 87.70707071 -138.875 84.8125 C-142.58077907 79.90779241 -143.28317578 75.78336524 -143.625 69.6875 C-143.69976562 68.43324219 -143.77453125 67.17898438 -143.8515625 65.88671875 C-143.90054687 64.93410156 -143.94953125 63.98148438 -144 63 C-144.99 63.99 -144.99 63.99 -146 65 C-144.63018746 46.91847449 -133.5047978 30.56449372 -120.6875 18.28125 C-90.49237661 -7.34949427 -35.45699237 -24.95558698 0 0 Z " transform="translate(532,531)" style="fill: #A0AF41;"/><path d="M0 0 C1.56640625 1.41015625 1.56640625 1.41015625 3 3 C4.62004976 3.86276439 6.26914338 4.67231388 7.9375 5.4375 C15.09491958 8.96919025 15.09491958 8.96919025 17 12 C17.3080265 14.75630612 17.18602865 17.20957028 17 20 C13.62902617 21.49821059 11.79557881 22 8 22 C8 22.66 8 23.32 8 24 C7.30777344 24.07476563 6.61554688 24.14953125 5.90234375 24.2265625 C-11.63048452 26.58275286 -27.03050859 34.91819222 -39 48 C-39.82054452 50.14807257 -39.82054452 50.14807257 -40 52 C-40.66 52 -41.32 52 -42 52 C-42.33 53.32 -42.66 54.64 -43 56 C-37.05671723 52.85565801 -31.28481862 49.57053826 -25.625 45.9375 C-19.00842202 41.81401061 -10.99955437 37 -3 37 C-2.67 37.99 -2.34 38.98 -2 40 C-1.13955078 39.89171875 -1.13955078 39.89171875 -0.26171875 39.78125 C9.15093451 38.75285693 18.54614553 38.91182934 28 39 C28 39.66 28 40.32 28 41 C28.66 41 29.32 41 30 41 C30 40.34 30 39.68 30 39 C30.99 39.33 31.98 39.66 33 40 C33.33 39.67 33.66 39.34 34 39 C35.32 39 36.64 39 38 39 C38.06058594 39.63808594 38.12117187 40.27617188 38.18359375 40.93359375 C38.26738281 41.75988281 38.35117187 42.58617187 38.4375 43.4375 C38.55931641 44.67306641 38.55931641 44.67306641 38.68359375 45.93359375 C38.78930815 47.98662025 38.78930815 47.98662025 40 49 C40.72040479 55.62772405 38.46539562 60.91355455 36 67 C35.34 67 34.68 67 34 67 C34.08894531 67.72445312 34.17789063 68.44890625 34.26953125 69.1953125 C33.72070706 74.9062657 28.12337973 78.44093105 24 82 C11.72871056 91.82095209 -4.72291998 96.40641029 -20 99 C-21.30203369 99.24943359 -21.30203369 99.24943359 -22.63037109 99.50390625 C-30.04380158 100.8630554 -37.21793984 101.38610514 -44.75 101.375 C-45.90798096 101.37338867 -47.06596191 101.37177734 -48.2590332 101.37011719 C-56.34677721 101.25787147 -64.20636164 100.55439312 -72.1875 99.25 C-73.15977539 99.09321777 -74.13205078 98.93643555 -75.13378906 98.77490234 C-80.33186247 97.82407973 -84.67542374 96.47975643 -89.27612305 93.85693359 C-91.23280404 92.78161298 -91.23280404 92.78161298 -94.625 92.375 C-99.9144244 90.22004932 -101.62364236 86.00325778 -104 81 C-107.73877157 71.82301523 -106.72158802 62.09883224 -103.3125 52.99609375 C-93.70768685 31.07082087 -75.76071911 14.39614792 -53.8125 5.1875 C-37.51600413 -0.54313591 -17.0707347 -4.40951002 0 0 Z " transform="translate(328,622)" style="fill: #A7B345;"/><path d="M0 0 C-1.38975925 5.73645308 -2.77648276 11.4125496 -4.6875 17 C-6.81003414 24.02242679 -7.46052943 31.64236331 -4.3125 38.4375 C1.39157186 48.05691038 11.85943231 53.15280744 22 57 C27.34577993 58.31347774 32.77068804 59.12086758 38.2109375 59.93945312 C47.19120486 61.49247266 47.19120486 61.49247266 50.08203125 65.04296875 C50.71496094 66.01878906 51.34789062 66.99460937 52 68 C54.6526218 69.84475674 54.6526218 69.84475674 57 71 C50.49216262 79.00964601 43.09940978 87.02344224 33.125 90.5 C30.59031856 91.39085038 28.20911344 92.36443747 25.76171875 93.4921875 C21.82893564 95.19358939 17.89931057 95.93799475 13.6875 96.625 C8.7007887 97.33404988 8.7007887 97.33404988 4 99 C-8.32269008 101.14401813 -22.01832554 99.42333556 -34 96 C-34.33 95.34 -34.66 94.68 -35 94 C-35.86625 93.855625 -36.7325 93.71125 -37.625 93.5625 C-45.64909099 92.2251515 -49.7743159 88.68304962 -55.47265625 83.05859375 C-58.23551909 80.80816297 -60.64430117 80.08186581 -64 79 C-64.75 76.4375 -64.75 76.4375 -65 74 C-65.66 73.67 -66.32 73.34 -67 73 C-66.835 73.78375 -66.67 74.5675 -66.5 75.375 C-66 78 -66 78 -66 80 C-65.68197057 81.66965451 -65.35015049 83.33678518 -65 85 C-71.0267449 79.810303 -74.34884054 72.79638671 -75.23828125 64.87890625 C-75.47791418 57.39983643 -73.46164204 51.01128403 -71 44 C-69.62643413 47.70862786 -70.55925113 49.43742096 -72 53 C-72.27783469 56.18470911 -72.27783469 56.18470911 -72.1875 59.5 C-72.18105469 60.6034375 -72.17460937 61.706875 -72.16796875 62.84375 C-72.01744156 65.67226083 -71.64204162 68.24692555 -71 71 C-69.58622659 68.36095629 -68.62759865 65.92879371 -68 63 C-67.67 63.33 -67.34 63.66 -67 64 C-66.90525391 62.94425781 -66.90525391 62.94425781 -66.80859375 61.8671875 C-65.07710414 47.9059134 -58.32825012 37.25100868 -49 27 C-48.17242187 26.05060547 -48.17242187 26.05060547 -47.328125 25.08203125 C-36.80230757 13.6964317 -15.92097553 0 0 0 Z " transform="translate(372,738)" style="fill: #E09D55;"/><path d="M0 0 C0.33 0 0.66 0 1 0 C1 11.55 1 23.1 1 35 C-9.8 31.4 -9.8 31.4 -11 29 C-11.94875 29.474375 -12.8975 29.94875 -13.875 30.4375 C-15.58333333 31.29166667 -17.29166667 32.14583333 -19 33 C-18.03320312 33.47308594 -17.06640625 33.94617188 -16.0703125 34.43359375 C-7.62704983 38.67967154 -0.69747692 43.21322338 6 50 C7.98 51.98 7.98 51.98 10 54 C-0.23 53.67 -10.46 53.34 -21 53 C-21 53.99 -21 54.98 -21 56 C-20.41476562 55.97679687 -19.82953125 55.95359375 -19.2265625 55.9296875 C-12.99706258 55.79873705 -6.8789913 56.18236454 -0.6875 56.8125 C0.45887939 56.91763916 0.45887939 56.91763916 1.62841797 57.02490234 C7.73210778 57.69301434 11.93927883 59.37251482 16.82421875 63.23046875 C20.67333799 68.12997601 20.09127009 73.86907417 19.41113281 79.80517578 C16.50392888 95.3252253 4.05577504 107.77449574 -8.38305664 116.48046875 C-19.22617381 123.6711521 -31.39255081 128.87603029 -44 132 C-44.64066406 132.18046875 -45.28132813 132.3609375 -45.94140625 132.546875 C-73.38043907 140.13748595 -108.73701806 140.12046181 -134.0625 126.4375 C-137.87671996 124.10192037 -140.33989124 121.59391137 -143 118 C-139.33861474 117.54232684 -137.81273686 118.09998477 -134.48828125 119.875 C-109.74362672 132.56543261 -72.86887145 127.28008884 -47.53515625 119.35546875 C-34.72789549 115.05155054 -22.3762465 109.02547795 -14 98 C-13.21627841 95.34101633 -13.21627841 95.34101633 -13 93 C-12.34 93 -11.68 93 -11 93 C-10.814375 91.6696875 -10.814375 91.6696875 -10.625 90.3125 C-10 87 -10 87 -8.9375 84.5625 C-6.9301098 79.07563346 -7.72161863 73.0681153 -9.9375 67.75 C-10.8882194 65.83403567 -10.8882194 65.83403567 -13 65 C-13 65.66 -13 66.32 -13 67 C-14.32 66.34 -15.64 65.68 -17 65 C-17 65.66 -17 66.32 -17 67 C-17.66 67 -18.32 67 -19 67 C-19 66.34 -19 65.68 -19 65 C-19.86238281 65.165 -20.72476563 65.33 -21.61328125 65.5 C-24.8870264 65.98332108 -27.88401744 66.06565928 -31.1875 66 C-37.18519103 65.94484882 -43.04285484 66.33146267 -49 67 C-49.33 65.68 -49.66 64.36 -50 63 C-59.3881848 66.39792387 -68.30035767 69.68575764 -76.59375 75.35546875 C-79.02375312 77.01623387 -81.49690771 78.49638408 -84.0625 79.9375 C-84.77535156 80.33839844 -85.48820312 80.73929688 -86.22265625 81.15234375 C-88 82 -88 82 -90 82 C-89.505 80.02 -89.505 80.02 -89 78 C-88.34 78 -87.68 78 -87 78 C-86.979375 77.319375 -86.95875 76.63875 -86.9375 75.9375 C-83.89257349 66.39673025 -71.36630282 60.10626961 -63.0625 55.75 C-55.31992965 52.02799317 -47.65273537 49.42315098 -39 50 C-39 49.34 -39 48.68 -39 48 C-36.36 47.34 -33.72 46.68 -31 46 C-30.70293731 43.07888352 -30.51575438 40.85225993 -31 38 C-35.46443058 32.81160771 -41.78342202 30.59945877 -48 28 C-48 27.67 -48 27.34 -48 27 C-68.73331853 21.76345343 -94.48137789 27.57698753 -112.68359375 38.0703125 C-130.61625865 48.90463088 -146.29234146 65.57397743 -151.625 86.3046875 C-151.74875 86.86414063 -151.8725 87.42359375 -152 88 C-152.66 88 -153.32 88 -154 88 C-154 88.99 -154 89.98 -154 91 C-154.66 91 -155.32 91 -156 91 C-156.33 90.34 -156.66 89.68 -157 89 C-157.99 89 -158.98 89 -160 89 C-159.67 95.6 -159.34 102.2 -159 109 C-163.78895027 101.81657459 -162.13960081 91.5775443 -160.78125 83.4453125 C-157.40885087 68.57303235 -148.34040482 56.83370853 -138 46 C-137.47277344 45.39800781 -136.94554687 44.79601562 -136.40234375 44.17578125 C-121.30345256 27.60947864 -95.99407453 17.8864517 -73.98681641 16.859375 C-51.91135324 16.22034003 -32.19429938 17.74329302 -12 27 C-10.89011719 27.49371094 -9.78023437 27.98742187 -8.63671875 28.49609375 C-6.08029172 29.64275034 -3.53818692 30.81381214 -1 32 C-1.00523682 31.31486328 -1.01047363 30.62972656 -1.01586914 29.92382812 C-1.03681445 26.78256163 -1.0497156 23.64130989 -1.0625 20.5 C-1.07087891 19.42234375 -1.07925781 18.3446875 -1.08789062 17.234375 C-1.10571885 11.38671618 -0.89105963 5.78136329 0 0 Z " transform="translate(375,596)" style="fill: #5C7D2F;"/><path d="M0 0 C3.6648045 5.49720675 3.02123549 12.47811822 3.17578125 18.9375 C3.21155273 20.43216797 3.21155273 20.43216797 3.24804688 21.95703125 C3.29167277 24.01670214 3.32255612 26.07667574 3.34179688 28.13671875 C3.36951172 29.12285156 3.39722656 30.10898437 3.42578125 31.125 C3.44036377 32.01445313 3.45494629 32.90390625 3.4699707 33.8203125 C3.78044719 36.18987669 3.78044719 36.18987669 6.03588867 37.3046875 C6.68404541 37.53414062 7.33220215 37.76359375 8 38 C8 38.66 8 39.32 8 40 C9.32 40.33 10.64 40.66 12 41 C12.33 43.31 12.66 45.62 13 48 C9.7 47.01 6.4 46.02 3 45 C3.04125 46.340625 3.0825 47.68125 3.125 49.0625 C3.14533896 56.13028703 2.04188116 63.02311723 1 70 C0.34 70 -0.32 70 -1 70 C-1.103125 70.86625 -1.20625 71.7325 -1.3125 72.625 C-2.60111414 78.95092395 -5.22153671 82.56972414 -9.98828125 86.703125 C-17.92945377 91.82248282 -28.93855292 90.93153279 -38 90 C-43.69925603 88.51381449 -47.50487301 86.05556512 -51.0625 81.375 C-54.96879525 74.57048569 -55.22294955 67.8011134 -53.30859375 60.28564453 C-51.40361161 53.79226091 -49.24266918 47.38376803 -47 41 C-59.48207015 45.18141787 -71.25682832 49.21730461 -82 57 C-82.886875 57.63679687 -83.77375 58.27359375 -84.6875 58.9296875 C-97.0670667 68.32759027 -109.98380167 82.63260509 -112.390625 98.58984375 C-112.46796875 99.40582031 -112.5453125 100.22179687 -112.625 101.0625 C-112.74875 102.361875 -112.8725 103.66125 -113 105 C-113.99 105.495 -113.99 105.495 -115 106 C-115.144375 106.804375 -115.28875 107.60875 -115.4375 108.4375 C-116 111 -116 111 -119 113 C-119.79733605 108.77092959 -120.16210046 104.74018192 -120.1875 100.4375 C-120.20167969 99.34308594 -120.21585937 98.24867188 -120.23046875 97.12109375 C-119.99767687 93.96853932 -119.27132783 91.86530324 -118 89 C-117.773125 87.80375 -117.54625 86.6075 -117.3125 85.375 C-114.85181471 75.30511866 -106.98535316 67.26046125 -100 60 C-99.2471875 59.20722656 -98.494375 58.41445313 -97.71875 57.59765625 C-93.72514468 53.48105946 -93.72514468 53.48105946 -92 52 C-91.34 52 -90.68 52 -90 52 C-90 51.34 -90 50.68 -90 50 C-89.01 50 -88.02 50 -87 50 C-87 49.34 -87 48.68 -87 48 C-85.02 47.34 -83.04 46.68 -81 46 C-81 45.34 -81 44.68 -81 44 C-76.14439409 41.43977143 -71.44844067 39.36487279 -66.21484375 37.71875 C-64.12134596 37.03937858 -62.10358448 36.25886196 -60.0625 35.4375 C-55.4850935 33.68051569 -50.81652519 32.86965038 -46 32 C-46 27.71 -46 23.42 -46 19 C-45.34 19 -44.68 19 -44 19 C-43.505 21.97 -43.505 21.97 -43 25 C-43.66 25 -44.32 25 -45 25 C-45 27.31 -45 29.62 -45 32 C-42.69 31.67 -40.38 31.34 -38 31 C-38.020625 30.05125 -38.04125 29.1025 -38.0625 28.125 C-38 25 -38 25 -37 23 C-35.515 23.495 -35.515 23.495 -34 24 C-33.505 27.465 -33.505 27.465 -33 31 C-24.03627101 25.81047269 -17.30692062 18.59346421 -13.16015625 9.140625 C-11.38749814 5.8698619 -9.26394514 4.66992542 -6 3 C-5.01 3.99 -4.02 4.98 -3 6 C-2.01 5.67 -1.02 5.34 0 5 C0 3.35 0 1.7 0 0 Z " transform="translate(419,697)" style="fill: #7A702C;"/><path d="M0 0 C0.19934422 1.35247384 0.38374778 2.70715087 0.5625 4.0625 C0.66691406 4.81660156 0.77132812 5.57070313 0.87890625 6.34765625 C1 9 1 9 0.546875 12.15234375 C-1.56862796 27.03641811 -0.65213059 41.83488657 5.15234375 55.765625 C6.13742434 58.36224296 5.97030137 59.44193276 5 62 C4.67 62.66 4.34 63.32 4 64 C5.11375 64.185625 5.11375 64.185625 6.25 64.375 C8.81448542 64.9578376 10.69166512 65.78664449 13 67 C13 65.845 13 64.69 13 63.5 C14.77270781 47.44433215 29.72254261 25.98565736 41.375 15.75 C44 14 44 14 47 14 C47 14.99 47 15.98 47 17 C46.34 17 45.68 17 45 17 C44.77570313 17.51820313 44.55140625 18.03640625 44.3203125 18.5703125 C42.50103743 21.91820923 40.17253185 24.84812995 37.875 27.875 C30.64368313 37.61383638 24.78284664 47.72233772 20 58.875 C19.69674805 59.5644873 19.39349609 60.25397461 19.08105469 60.96435547 C16.79192139 66.55000211 16.2694808 71.43871889 17.5 77.4375 C18.94570482 84.84673722 17.88411436 91.09914339 15 98 C14.50693359 99.18916016 14.50693359 99.18916016 14.00390625 100.40234375 C10.63468486 107.78198783 5.73773264 114.26226736 0 120 C-0.29643736 121.55587743 -0.53780894 123.12235187 -0.75390625 124.69140625 C-0.88603516 125.63564453 -1.01816406 126.57988281 -1.15429688 127.55273438 C-1.35635742 129.04256836 -1.35635742 129.04256836 -1.5625 130.5625 C-1.77036133 132.05813477 -1.77036133 132.05813477 -1.98242188 133.58398438 C-2.32535906 136.05549716 -2.66437454 138.52748545 -3 141 C-5.31 141.33 -7.62 141.66 -10 142 C-10 139.69 -10 137.38 -10 135 C-9.34 135 -8.68 135 -8 135 C-8.33 133.02 -8.66 131.04 -9 129 C-9.92039062 129.65226563 -10.84078125 130.30453125 -11.7890625 130.9765625 C-31.95748122 145 -31.95748122 145 -41 145 C-41 145.66 -41 146.32 -41 147 C-71.30243339 156.56663362 -106.96124898 158.35916254 -137.125 147.6875 C-138.28056396 147.28035767 -138.28056396 147.28035767 -139.45947266 146.86499023 C-151.12438441 142.41326861 -161.19628426 133.16935089 -167.125 122.23828125 C-169.23660475 116.83672087 -169.12954554 111.32902809 -169.0625 105.625 C-169.05798828 104.88894531 -169.05347656 104.15289063 -169.04882812 103.39453125 C-169.03715142 101.59631842 -169.01922011 99.79814803 -169 98 C-167.02 97.505 -167.02 97.505 -165 97 C-165 97.99 -165 98.98 -165 100 C-164.34 100 -163.68 100 -163 100 C-162.67 99.01 -162.34 98.02 -162 97 C-161.92523438 98.01578125 -161.85046875 99.0315625 -161.7734375 100.078125 C-160.76160665 111.45948712 -158.42916433 121.14685646 -149.875 129.375 C-134.08807561 142.02024789 -114.59133186 144.92620026 -95 144.625 C-94.10980164 144.61791016 -93.21960327 144.61082031 -92.3024292 144.60351562 C-58.87942922 144.29273604 -29.1871998 136.15485559 -4.0390625 113.2109375 C3.86010178 105.09731627 9.76062227 93.79358775 9.9375 82.375 C9.57930441 76.10678003 9.57930441 76.10678003 6.125 71.125 C-1.48803602 66.6877666 -11.03558349 66.57453859 -19.625 65.875 C-21.13126953 65.74544922 -21.13126953 65.74544922 -22.66796875 65.61328125 C-25.11159966 65.40382717 -27.55553841 65.19948243 -30 65 C-30 64.01 -30 63.02 -30 62 C-20.43 62 -10.86 62 -1 62 C-9.11121952 53.82960833 -9.11121952 53.82960833 -18.375 48.125 C-26.13267043 44.08126051 -26.13267043 44.08126051 -29 41 C-27.34302621 40.30959426 -25.6744239 39.6469365 -24 39 C-23.4121875 38.7525 -22.824375 38.505 -22.21875 38.25 C-18.8186258 37.86688741 -16.72517968 39.35289343 -13.75 40.9375 C-12.67234375 41.50339844 -11.5946875 42.06929687 -10.484375 42.65234375 C-9.66453125 43.09707031 -8.8446875 43.54179688 -8 44 C-8.16242188 43.1646875 -8.32484375 42.329375 -8.4921875 41.46875 C-10.09349312 30.53060087 -8.95928326 18.96323721 -8 8 C-7.34 8 -6.68 8 -6 8 C-6 6.68 -6 5.36 -6 4 C-5.34 4 -4.68 4 -4 4 C-4 3.34 -4 2.68 -4 2 C-1 0 -1 0 0 0 Z " transform="translate(384,587)" style="fill: #2F4F19;"/><path d="M0 0 C-3.91736581 1.1700097 -6.97959015 0.69584017 -11 0 C-11 0.66 -11 1.32 -11 2 C-11.99 1.67 -12.98 1.34 -14 1 C-13.67 0.67 -13.34 0.34 -13 0 C-13.95712891 0.01740234 -13.95712891 0.01740234 -14.93359375 0.03515625 C-15.75988281 0.04417969 -16.58617187 0.05320312 -17.4375 0.0625 C-18.67306641 0.07990234 -18.67306641 0.07990234 -19.93359375 0.09765625 C-22 0 -22 0 -23 -1 C-31.63182066 -1.73462304 -40.14034513 -0.76378125 -48.6875 0.375 C-49.65582764 0.50100586 -50.62415527 0.62701172 -51.62182617 0.75683594 C-52.990448 0.95067871 -52.990448 0.95067871 -54.38671875 1.1484375 C-55.20358154 1.26364746 -56.02044434 1.37885742 -56.86206055 1.49755859 C-59.28043151 1.93444166 -59.28043151 1.93444166 -62 4 C-63.19232613 6.05003955 -63.19232613 6.05003955 -64 8 C-63.01 8.495 -63.01 8.495 -62 9 C-62 9.66 -62 10.32 -62 11 C-62.969375 11.25652344 -63.93875 11.51304687 -64.9375 11.77734375 C-90.34070632 18.87769831 -111.85490277 35.06551816 -125 58 C-128.53778292 64.77491408 -131.1394095 71.34171149 -132 79 C-131.01 78.505 -131.01 78.505 -130 78 C-129.96261719 79.01320313 -129.92523438 80.02640625 -129.88671875 81.0703125 C-129.82101612 82.42190939 -129.75457029 83.77347029 -129.6875 85.125 C-129.66494141 85.79015625 -129.64238281 86.4553125 -129.61914062 87.140625 C-129.36871415 91.78489787 -128.23583268 94.95991628 -126 99 C-126 99.66 -126 100.32 -126 101 C-122.35593938 102.21468687 -118.75412801 102.92134277 -115 102 C-111.23087438 98.72587031 -108.32546325 94.94749387 -105.375 90.9375 C-104.61960937 89.91527344 -103.86421875 88.89304687 -103.0859375 87.83984375 C-101.82088157 86.11756723 -100.57139691 84.38350219 -99.3515625 82.62890625 C-98.90554688 82.09136719 -98.45953125 81.55382812 -98 81 C-97.34 81 -96.68 81 -96 81 C-96 80.34 -96 79.68 -96 79 C-95.34 79 -94.68 79 -94 79 C-93.76023437 78.42765625 -93.52046875 77.8553125 -93.2734375 77.265625 C-85.61038997 63.63198215 -64.42299334 53.243278 -50.015625 48.6796875 C-45.31946457 47.62122647 -40.7817474 47.66113601 -36 48 C-36 48.99 -36 49.98 -36 51 C-38.24609375 52.55078125 -38.24609375 52.55078125 -41.4375 54.3125 C-61.56825926 66.07784775 -89.11509602 88.0191709 -96.3125 111.125 C-97.28318467 115.09429653 -96.91454419 117.37914 -95 121 C-92.82342747 123.83688105 -91.66791398 124.85746295 -88.14453125 125.609375 C-87.04496094 125.65578125 -85.94539063 125.7021875 -84.8125 125.75 C-83.58917969 125.80542969 -82.36585938 125.86085938 -81.10546875 125.91796875 C-74.0705856 126.08879373 -67.03602277 126.07666369 -60 126 C-64.03664687 128.69109792 -66.97722589 129.12835112 -71.765625 129.09765625 C-72.65507812 129.09443359 -73.54453125 129.09121094 -74.4609375 129.08789062 C-75.38132812 129.07951172 -76.30171875 129.07113281 -77.25 129.0625 C-78.18585938 129.05798828 -79.12171875 129.05347656 -80.0859375 129.04882812 C-82.39069041 129.03706918 -84.69531227 129.02063426 -87 129 C-87 129.66 -87 130.32 -87 131 C-87.66 131 -88.32 131 -89 131 C-89 130.01 -89 129.02 -89 128 C-89.5775 127.9175 -90.155 127.835 -90.75 127.75 C-93.61735579 126.79421474 -94.91800845 125.14915257 -97 123 C-97.99 122.67 -98.98 122.34 -100 122 C-100.19480711 116.44799744 -99.68872765 112.2772739 -98 107 C-98 106.34 -98 105.68 -98 105 C-98.61875 105.825 -99.2375 106.65 -99.875 107.5 C-100.57625 108.325 -101.2775 109.15 -102 110 C-102.66 110 -103.32 110 -104 110 C-102.50548809 105.46551499 -99.94362819 102.05874042 -97 98.375 C-93.37506013 93.78052804 -93.37506013 93.78052804 -90 89 C-89.34 89 -88.68 89 -88 89 C-88 88.01 -88 87.02 -88 86 C-94.94754171 89.18428995 -98.58732583 93.86996075 -103 100 C-103.59433838 100.81090088 -103.59433838 100.81090088 -104.20068359 101.63818359 C-112.07693768 112.47149826 -120.43524458 125.43164132 -122 139 C-125.14737182 138.30058404 -128.02588876 137.23921302 -131 136 C-130.62875 134.8553125 -130.62875 134.8553125 -130.25 133.6875 C-129.94220452 129.14751662 -131.17522617 126.22661984 -132.89453125 122.07421875 C-135.65076781 114.40934889 -136.29921666 107.23464585 -136.1875 99.125 C-136.18177979 98.15771973 -136.17605957 97.19043945 -136.17016602 96.19384766 C-136.11140988 90.43186125 -135.8903996 84.74099452 -135.12109375 79.0234375 C-134.98866207 76.81054685 -135.35546419 75.11025797 -136 73 C-137.485 73.495 -137.485 73.495 -139 74 C-139 74.66 -139 75.32 -139 76 C-139.66 76 -140.32 76 -141 76 C-141 77.32 -141 78.64 -141 80 C-141.66 80 -142.32 80 -143 80 C-140.81082408 61.41434323 -129.70546859 45.12410017 -117 32 C-116.48783936 31.45939941 -115.97567871 30.91879883 -115.44799805 30.36181641 C-86.62367854 0.56047061 -39.6141156 -9.91828826 0 0 Z " transform="translate(519,515)" style="fill: #728336;"/><path d="M0 0 C0.33 0 0.66 0 1 0 C1 11.55 1 23.1 1 35 C-9.8 31.4 -9.8 31.4 -11 29 C-11.94875 29.474375 -12.8975 29.94875 -13.875 30.4375 C-15.58333333 31.29166667 -17.29166667 32.14583333 -19 33 C-18.03320312 33.47308594 -17.06640625 33.94617188 -16.0703125 34.43359375 C-7.62704983 38.67967154 -0.69747692 43.21322338 6 50 C6.74894531 50.74765625 7.49789062 51.4953125 8.26953125 52.265625 C8.84058594 52.83796875 9.41164063 53.4103125 10 54 C8.92234375 53.84144531 7.8446875 53.68289063 6.734375 53.51953125 C-10.00557059 51.45092077 -26.75885487 52.60135653 -43 57 C-43.74765625 57.19835449 -44.4953125 57.39670898 -45.265625 57.60107422 C-60.17107068 61.69551155 -73.88146011 68.91248778 -87 77 C-85.80892115 70.25055317 -79.56863236 66.26939005 -74.3125 62.4375 C-63.83353311 55.37213596 -51.9600923 49.13599385 -39 50 C-39 49.34 -39 48.68 -39 48 C-36.36 47.34 -33.72 46.68 -31 46 C-30.70293731 43.07888352 -30.51575438 40.85225993 -31 38 C-35.46443058 32.81160771 -41.78342202 30.59945877 -48 28 C-48 27.67 -48 27.34 -48 27 C-68.73331853 21.76345343 -94.48137789 27.57698753 -112.68359375 38.0703125 C-130.61625865 48.90463088 -146.29234146 65.57397743 -151.625 86.3046875 C-151.74875 86.86414063 -151.8725 87.42359375 -152 88 C-152.66 88 -153.32 88 -154 88 C-154 88.99 -154 89.98 -154 91 C-154.66 91 -155.32 91 -156 91 C-156.33 90.34 -156.66 89.68 -157 89 C-157.99 89 -158.98 89 -160 89 C-159.67 95.6 -159.34 102.2 -159 109 C-163.78895027 101.81657459 -162.13960081 91.5775443 -160.78125 83.4453125 C-157.40885087 68.57303235 -148.34040482 56.83370853 -138 46 C-137.47277344 45.39800781 -136.94554687 44.79601562 -136.40234375 44.17578125 C-121.30345256 27.60947864 -95.99407453 17.8864517 -73.98681641 16.859375 C-51.91135324 16.22034003 -32.19429938 17.74329302 -12 27 C-10.89011719 27.49371094 -9.78023437 27.98742187 -8.63671875 28.49609375 C-6.08029172 29.64275034 -3.53818692 30.81381214 -1 32 C-1.00523682 31.31486328 -1.01047363 30.62972656 -1.01586914 29.92382812 C-1.03681445 26.78256163 -1.0497156 23.64130989 -1.0625 20.5 C-1.07087891 19.42234375 -1.07925781 18.3446875 -1.08789062 17.234375 C-1.10571885 11.38671618 -0.89105963 5.78136329 0 0 Z " transform="translate(375,596)" style="fill: #74803A;"/><path d="M0 0 C14.47535084 4.55705489 26.21967207 21.26851751 33.375 34.0625 C38.29960831 43.88907475 41.09406058 54.48194238 38.3125 65.375 C36.51297929 70.36384983 33.88053806 74.12158462 30.375 78.0625 C29.72144531 78.83207031 29.06789063 79.60164062 28.39453125 80.39453125 C8.80303989 101.80691854 -22.12888491 109.91632704 -50.21484375 111.23046875 C-82.63837933 111.41963757 -112.48254061 103.86379753 -137.46484375 82.48828125 C-139.42210195 80.08289659 -139.23577354 77.06510411 -139.625 74.0625 C-140.285 73.7325 -140.945 73.4025 -141.625 73.0625 C-141.13 72.0725 -141.13 72.0725 -140.625 71.0625 C-140.625 69.7425 -140.625 68.4225 -140.625 67.0625 C-139.635 67.3925 -138.645 67.7225 -137.625 68.0625 C-137.521875 68.68125 -137.41875 69.3 -137.3125 69.9375 C-137.085625 70.63875 -136.85875 71.34 -136.625 72.0625 C-135.71105469 72.51496094 -134.79710937 72.96742188 -133.85546875 73.43359375 C-130.61470336 75.0676919 -128.76954824 76.68042463 -126.25 79.25 C-105.75121698 98.23379001 -73.57447431 102.01553649 -46.94775391 101.25488281 C-21.10129441 99.75840889 6.59990127 90.55986607 24.375 71.0625 C28.33570521 65.55506341 30.33184114 59.99388452 29.984375 53.1796875 C26.71071049 36.43363442 15.02195655 20.59228676 1.29296875 10.8828125 C-1.31615226 9.21485067 -3.9397377 7.60422854 -6.625 6.0625 C-6.3125 4.1875 -6.3125 4.1875 -5.625 2.0625 C-2.625 0.0625 -2.625 0.0625 0 0 Z " transform="translate(445.625,743.9375)" style="fill: #834A35;"/><path d="M0 0 C0.33 0 0.66 0 1 0 C1.9364058 4.78617882 2.19019839 9.46582333 2.23828125 14.328125 C2.246353 15.11717224 2.25442474 15.90621948 2.26274109 16.71917725 C2.27651412 18.38323819 2.2872663 20.04732659 2.29516602 21.71142578 C2.30667369 23.39673262 2.32710646 25.08200337 2.35668945 26.76708984 C2.52569617 36.41463524 2.44771604 44.22243079 -2 53 C-2.74105754 55.28129479 -3.45489469 57.57186494 -4.125 59.875 C-6.2046875 67.0078125 -6.2046875 67.0078125 -8 70 C-12.21763962 72.10881981 -17.42092168 71.51579105 -22 71 C-26.42403365 69.24721329 -30.92800305 66.38775825 -33 62 C-35.28785678 54.89975483 -32.95193501 49.52580524 -30.34375 42.82421875 C-27.06170359 33.99340533 -25.87609245 24.16415588 -25.2109375 14.8203125 C-25 13 -25 13 -24 11 C-23.01 11.33 -22.02 11.66 -21 12 C-20.67 14.31 -20.34 16.62 -20 19 C-12.80493287 14.83443482 -6.90879776 8.65373378 -1.7578125 2.18359375 C-1.17773438 1.46300781 -0.59765625 0.74242187 0 0 Z " transform="translate(406,709)" style="fill: #B2B446;"/><path d="M0 0 C0.33 0.99 0.66 1.98 1 3 C1.66 3 2.32 3 3 3 C3.33 2.01 3.66 1.02 4 0 C4.07476562 1.01578125 4.14953125 2.0315625 4.2265625 3.078125 C5.23839335 14.45948712 7.57083567 24.14685646 16.125 32.375 C31.91192439 45.02024789 51.40866814 47.92620026 71 47.625 C71.89019836 47.61791016 72.78039673 47.61082031 73.6975708 47.60351562 C94.68592812 47.40835801 113.74787184 44.68474231 132.953125 35.8046875 C137.80429327 33.57041704 142.78404308 32.12524014 148 31 C148.33 31.66 148.66 32.32 149 33 C151.01669827 34.13350534 151.01669827 34.13350534 153 35 C132.16666667 48 132.16666667 48 125 48 C125 48.66 125 49.32 125 50 C94.69756661 59.56663362 59.03875102 61.35916254 28.875 50.6875 C28.10462402 50.41607178 27.33424805 50.14464355 26.54052734 49.86499023 C14.87561559 45.41326861 4.80371574 36.16935089 -1.125 25.23828125 C-3.23660475 19.83672087 -3.12954554 14.32902809 -3.0625 8.625 C-3.05798828 7.88894531 -3.05347656 7.15289063 -3.04882812 6.39453125 C-3.03715142 4.59631842 -3.01922011 2.79814803 -3 1 C-2.01 0.67 -1.02 0.34 0 0 Z " transform="translate(218,684)" style="fill: #39582A;"/><path d="M0 0 C0.495 1.485 0.495 1.485 1 3 C1.495 3.99 1.495 3.99 2 5 C3.19822315 18.61879203 2.83932308 31.49931321 -3 44 C-3.28939453 44.62165039 -3.57878906 45.24330078 -3.87695312 45.88378906 C-10.17965578 59.15158033 -18.92245545 70.35783921 -29 81 C-29.76957031 81.82242188 -30.53914062 82.64484375 -31.33203125 83.4921875 C-37.69927257 90.09601453 -44.58931768 95.63625807 -52 101 C-53.20269531 101.87785156 -53.20269531 101.87785156 -54.4296875 102.7734375 C-57.44425405 104.83244333 -59.28845408 106.04447162 -63 105.8125 C-63.99 105.4103125 -63.99 105.4103125 -65 105 C-65 105.66 -65 106.32 -65 107 C-66.32 107 -67.64 107 -69 107 C-69 107.66 -69 108.32 -69 109 C-71.475 109.495 -71.475 109.495 -74 110 C-74 110.33 -74 110.66 -74 111 C-78.455 111.495 -78.455 111.495 -83 112 C-83 112.99 -83 113.98 -83 115 C-90.42857143 117.42857143 -90.42857143 117.42857143 -94 116 C-93.01 115.505 -93.01 115.505 -92 115 C-92 114.34 -92 113.68 -92 113 C-94.475 113.99 -94.475 113.99 -97 115 C-97 114.01 -97 113.02 -97 112 C-97.66 111.67 -98.32 111.34 -99 111 C-98.47792969 110.82984375 -97.95585937 110.6596875 -97.41796875 110.484375 C-60.92054496 98.46771007 -32.09703555 78.44155245 -13.90039062 43.83642578 C-11.407521 38.75199918 -9.6471898 33.41028194 -8 28 C-7.76539063 27.2471875 -7.53078125 26.494375 -7.2890625 25.71875 C-5.25581908 18.05725306 -5.34374028 9.87888915 -5 2 C-3.35 1.34 -1.7 0.68 0 0 Z " transform="translate(551,550)" style="fill: #2F5127;"/><path d="M0 0 C-3.07859966 0.98105913 -4.93590306 0.96130602 -8.02734375 0.0859375 C-13.55342837 -1.25078213 -18.89488978 -1.38214311 -24.5625 -1.375 C-25.64007568 -1.37628906 -26.71765137 -1.37757813 -27.82788086 -1.37890625 C-37.71550664 -1.25244581 -47.16283452 0.23925144 -56.84765625 2.125 C-61.32265508 2.97092926 -65.4532829 3.17137214 -70 3 C-70 3.66 -70 4.32 -70 5 C-70.52730713 5.17015625 -71.05461426 5.3403125 -71.59790039 5.515625 C-92.02941896 12.18496931 -112.87299257 20.97737296 -126.375 38.5 C-127.07955322 39.40226318 -127.07955322 39.40226318 -127.79833984 40.32275391 C-131.79316652 45.53192096 -135.22804107 50.98591514 -138.5390625 56.6484375 C-139.26222656 57.81246094 -139.26222656 57.81246094 -140 59 C-140.33 59 -140.66 59 -141 59 C-141.80504609 45.48550292 -131.29617195 33.38424827 -122.98828125 23.640625 C-95.58774424 -5.79538048 -35.44064522 -24.02088176 0 0 Z " transform="translate(530,530)" style="fill: #F8DE6E;"/></svg>