<svg xmlns="http://www.w3.org/2000/svg" aria-label="Detailed carrot crop" class="crop-art crop-art--carrot state-harvestable" viewBox="0 0 180 210"><defs><filter id="cropSoftShadow" width="140%" height="150%" x="-20%" y="-20%"><feDropShadow dx="0" dy="9" flood-color="#352411" flood-opacity=".28" stdDeviation="5"/></filter><filter id="rootTexture" width="120%" height="120%" x="-10%" y="-10%"><feTurbulence baseFrequency=".08" numOctaves="2" result="noise" seed="9" type="fractalNoise"/><feColorMatrix in="noise" result="mutedNoise" type="saturate" values=".25"/><feBlend in="SourceGraphic" in2="mutedNoise" mode="soft-light"/></filter></defs><g class="crop-art__shadow" filter="url(#cropSoftShadow)"><g class="crop-leaf-cluster"><path d="M83 116c-21-20-40-25-61-16-14 6-15 21 0 27 22 9 44-1 61-11m10 0c19-20 42-28 64-20 15 6 17 22 3 30-22 13-48 2-67-10" class="crop-leaf crop-leaf--back"/><path d="M84 107C57 77 35 60 15 63 2 65-2 78 10 87c19 15 46 17 74 20m8 0c25-30 48-49 69-47 15 1 20 16 8 27-19 16-48 18-77 20" class="crop-leaf"/><path d="M82 102C67 71 60 42 70 24c8-14 23-11 28 4 6 21-6 50-16 74" class="crop-leaf crop-leaf--back"/><path d="M94 104c2-39 15-70 35-82 15-9 27 2 20 18-10 24-33 47-55 64" class="crop-leaf"/><path d="M89 111c-16-34-14-68-1-84 13-15 27-9 30 8 3 26-14 54-29 76" class="crop-leaf"/><path d="M77 122c-23-13-46-13-62-1-11 9-6 22 9 23 21 2 39-10 53-22m24 0c24-14 48-13 64-1 12 9 6 22-9 23-22 2-41-10-55-22m-13 2c-14-23-14-46 1-59 14 12 14 36-1 59" class="crop-leaf crop-leaf--front"/><path d="M83 116c-24-13-46-27-68-45m77 43c25-19 50-36 77-46m-80 43c-2-29 2-58 6-83m1 75c15-29 31-55 50-76m-68 94c-22 2-41 9-58 18" class="crop-leaf-vein"/><path d="M50 90c-10-6-20-12-30-16m105 7c12-9 24-14 35-16m-58 3c7-15 16-28 26-39" class="crop-leaf-highlight"/></g><g class="crop-root-group"><path d="M32 150c0-34 24-52 58-52 36 0 58 20 58 53 0 37-23 56-59 56-35 0-57-21-57-57" class="crop-root" filter="url(#rootTexture)"/><path d="M40 145c0-25 21-39 51-39 31 0 48 16 49 44-7-14-20-22-39-22-29 0-47 10-61 17" class="crop-root-glow"/><ellipse cx="63" cy="135" class="crop-root-highlight" rx="19" ry="8" transform="rotate(31 63 135)"/><ellipse cx="84" cy="143" class="crop-root-highlight crop-root-highlight--small" rx="11" ry="5" transform="rotate(10 84 143)"/><path d="M42 154c9 12 21 19 34 23m61-23c-9 14-21 22-36 26" class="crop-root-shadow"/><path d="M54 190c15 5 37 5 52 1m-62-53c10 11 20 17 32 20m48-21c-5 10-12 17-22 21" class="crop-root-cut crop-harvest-detail"/><path d="M66 108c1-13 7-20 16-17 5 1 8 6 9 17 2-11 8-18 17-15 11 4 10 20 2 29-11 11-33 10-42 0-4-4-4-10-2-14" class="crop-crown"/></g></g></svg>