<svg xmlns="http://www.w3.org/2000/svg" viewBox="0 0 768 1024"><path fill="#587b2f" d="M537.129 524.348c.62.55 1.23 1.09 1.87 1.65.69.6 1.38 1.2 2.09 1.81 8.15 7.54 12.78 17.23 13.25 28.38.48 30.43-12.36 54.36-33.3 76.06-11.37 11.54-23.55 20.48-38.04 27.75-.96.48-.96.48-1.93.97-17.08 8.34-38.06 13.29-57.07 13.09-1.13 0-2.27-.01-3.44-.02-.84-.01-1.69-.03-2.56-.04.17.96.17.96.35 1.94.54 2.96 1.06 5.92 1.59 8.87.27 1.51.27 1.51.55 3.05 1.96 11.09 2.67 22.08 3.07 33.33.05 1.14.09 2.29.13 3.46.11 2.79.21 5.57.31 8.35.6.12 1.2.24 1.82.37 19.65 4.13 37.63 20.85 48.68 37.13 7.11 10.98 12.07 22.94 10.09 36.26-1.56 6.11-4.43 10.57-8.59 15.24-.65.77-1.31 1.54-1.98 2.33-19.59 21.42-50.52 29.53-78.61 30.84-30.58.18-62.1-6.11-85.41-27.17-8.22-8.52-13.43-18.12-13.28-30.09 1.68-17.61 12.71-31.42 24.66-43.53.52-.54 1.04-1.07 1.58-1.62 3.8-3.76 3.8-3.76 6.04-3.76v-2h3v-2l6-2v-2c4.86-2.56 9.55-4.63 14.79-6.28 2.09-.68 4.11-1.46 6.15-2.28 4.56-1.75 9.26-2.6 14.06-3.44l-.06-3.75c-.05-2.95.31-5.4 1.06-8.25-.49.31-.98.63-1.49.95-22.29 14.05-22.29 14.05-29.51 14.05v2c-30.3 9.57-65.96 11.36-96.12.69l-2.34-.82c-12.42-4.75-23.05-14.78-28.54-26.87-4.76-10.67-3.4-23.22-.03-34.13 4.62-11.97 12.25-21.67 21.03-30.87l1.6-1.82c15.1-16.57 40.41-26.29 62.41-27.32 22.08-.64 41.8.89 61.99 10.14 1.11.5 2.22.99 3.36 1.5 2.56 1.15 5.1 2.32 7.64 3.5-.02-.96-.02-.96-.05-1.95-.62-29.63 5.05-54.54 25.72-76.67.77-.78 1.54-1.57 2.33-2.38.51-.54 1.02-1.07 1.55-1.63 29.43-30.44 97.33-50.64 133.58-21.02"/><path fill="#ae613f" d="M422 708h1l1 25c4.45.99 4.45.99 9 2 20.41 8.12 38.05 27.1 47.69 46.38 4.14 9.78 6.06 20.15 2.37 30.36-1.84 3.92-4.19 7.03-7.06 10.26-.65.77-1.31 1.54-1.98 2.33-19.59 21.41-50.52 29.52-78.61 30.84-30.58.18-62.1-6.11-85.41-27.17-8.22-8.52-13.44-18.12-13.28-30.09 1.68-17.61 12.71-31.42 24.66-43.53.52-.54 1.04-1.07 1.58-1.62 3.79-3.76 3.79-3.76 6.04-3.76v-2h3v-2l6-2v-2c4.86-2.56 9.55-4.64 14.79-6.28 2.09-.68 4.11-1.46 6.15-2.28 4.57-1.76 9.24-2.57 14.06-3.44v-13h2c.5 2.97.5 2.97 1 6h-2v7l7-1-.06-2.88C381 722 381 722 382 720l3 1c.5 3.47.5 3.47 1 7 6.29-3.64 10.97-8.83 16-14 1.66-1.67 3.33-3.34 5-5 .94 4.79 1.19 9.47 1.24 14.33.01.79.01 1.58.02 2.39.02 1.66.03 3.33.04 4.99.01 1.69.03 3.37.06 5.06.17 9.64.09 17.45-4.36 26.23-.74 2.28-1.45 4.57-2.12 6.88-2.08 7.13-2.08 7.13-3.88 10.12-3.72 1.86-8.58.94-12.7.79-4.64-.11-4.64-.11-8.84 1.72L375 783c5.37 3.33 9.82 3.46 15.94 3.38l2.63.03c6.62-.03 11.76-.89 16.74-5.6.56-.6 1.12-1.19 1.69-1.81h2c.29-.87.58-1.73.88-2.62 1.04-3.13 2.08-6.26 3.12-9.38h2c.06-.97.12-1.93.18-2.93.48-7.37 1.01-14.72 1.82-22.07 3.72.51 6.73 1.12 10 3v-5l-2-1-1.88-1.94c-2.21-2.36-2.21-2.36-6.12-4.06z"/><path fill="#a0af41" d="M532 531c3.12 2.67 6.15 5.3 8 9 1.15 23.65-4.01 46.86-20 65-.85.97-1.7 1.94-2.57 2.93-14.77 16.61-34.12 30.79-56.94 33.48-8.17.48-16.3.82-24.49.59-1.19-.03-1.19-.03-2.41-.05-3.66-.24-5.53-.9-8.47-3.14-2.78-3.69-4.4-6.24-3.88-10.99 5.67-24.1 37.55-47.86 57.43-60.52C481 566 481 566 483 566v-3c-19.23 1.76-34.32 9.46-49 22-1.17.99-1.17.99-2.36 1.99-3.84 3.08-3.84 3.08-6.64 7.01h-2v2h-2c-.24.54-.48 1.08-.73 1.63-1.6 2.99-3.54 5.59-5.58 8.31-.76 1.02-1.52 2.04-2.3 3.09-2.31 2.87-4.74 5.42-7.39 7.97l-1 1c-7.07.71-7.07.71-10.88-2.19-3.7-4.9-4.4-9.03-4.74-15.12-.08-1.26-.15-2.51-.23-3.8L388 594l-2 2c1.37-18.08 12.5-34.44 25.31-46.72 30.2-25.63 85.23-43.24 120.69-18.28"/><path fill="#9eaf41" d="M328 622c1.57 1.41 1.57 1.41 3 3 1.62.86 3.27 1.67 4.94 2.44 7.15 3.53 7.15 3.53 9.06 6.56.31 2.76.19 5.21 0 8-3.37 1.5-5.2 2-9 2v2c-.69.07-1.38.15-2.1.23-17.53 2.35-32.93 10.69-44.9 23.77-.82 2.15-.82 2.15-1 4h-2l-1 4c5.94-3.14 11.72-6.43 17.38-10.06C308.99 663.81 317 659 325 659l1 3c.86-.11.86-.11 1.74-.22 9.41-1.03 18.81-.87 28.26-.78v2h2v-2l3 1 1-1h4l.18 1.93c.09.83.17 1.66.26 2.51.12 1.23.12 1.23.24 2.49.11 2.06.11 2.06 1.32 3.07.72 6.63-1.53 11.91-4 18h-2c.09.72.18 1.45.27 2.2-.55 5.71-6.15 9.24-10.27 12.8-12.27 9.82-28.72 14.41-44 17-1.3.25-1.3.25-2.63.5-7.41 1.36-14.59 1.89-22.12 1.88-1.16-.01-2.32-.01-3.51-.01-8.09-.11-15.95-.82-23.93-2.12-.97-.16-1.94-.31-2.94-.48-5.2-.95-9.55-2.29-14.15-4.91-1.95-1.08-1.95-1.08-5.34-1.48-5.29-2.16-7-6.38-9.38-11.38-3.74-9.18-2.72-18.9.69-28 9.6-21.93 27.55-38.6 49.5-47.81 16.29-5.73 36.74-9.6 53.81-5.19"/><path fill="#5a7d2f" d="M375 596h1v35c-8.31-2.77-8.31-2.77-11-4l-1-2c-.87.52-1.73 1.03-2.62 1.56-3.84 1.63-5.46 1.75-9.38.44-1.88-2.06-1.88-2.06-3-4l2-2c-7.97-3.9-16.29-3.71-25-4v2h2v2c2.81.94 5.6 1.55 8.5 2.15 17.81 3.83 34.04 11.26 46.5 24.85l2 2-31-1v3c.59-.02 1.17-.05 1.77-.07 6.23-.13 12.35.25 18.54.88 1.15.11 1.15.11 2.32.21 6.1.67 10.31 2.35 15.19 6.21 3.85 4.9 3.27 10.64 2.59 16.58-2.91 15.52-15.35 27.96-27.79 36.67C349.3 723.96 330.19 728.44 310 732l2 1v5h9v1c-24.67 4-50.42 4.07-74.12-4.31-.78-.27-1.55-.55-2.34-.83-12.43-4.74-23.05-14.78-28.54-26.86-4.76-10.67-3.4-23.22-.03-34.13C220.59 660.9 228.22 651.2 237 642c.53-.6 1.05-1.2 1.6-1.82 15.1-16.57 40.41-26.29 62.41-27.32 22.08-.64 41.8.88 61.99 10.14 1.11.49 2.22.99 3.36 1.5 2.56 1.14 5.1 2.31 7.64 3.5-.01-.69-.01-1.37-.02-2.08-.02-3.14-.03-6.28-.04-9.42l-.03-3.27c-.02-5.84.2-11.45 1.09-17.23m-135.33 55.52c-10.18 11.84-18.48 25.41-18.02 41.46.91 7.86 4.01 15.18 9.35 21.02 3.37 1.34 3.37 1.34 7 2 1.01.47 2.02.93 3.05 1.41 27.87 12.19 66.29 6.91 93.73-3.69 10.5-4.32 20.35-10.46 27.22-19.72.36-2.71.36-2.71 0-5h2c3.27-8.08 5.06-14.32 3-23-.33-1.67-.67-3.33-1-5h-4l-1 1-3-1v2h-2v-2c-15.03-.18-15.03-.18-30 1l-1-3c-9.83 1.36-18.06 5.78-26.24 11.22-4.44 2.86-9.09 5.32-13.76 7.78l1-4h2c.23-.72.46-1.45.7-2.2 5-10.76 19.28-17.99 29.8-22.11 5.71-1.95 11.53-2.9 17.5-3.69v-2c2.05-.23 4.1-.46 6.15-.68 1.86-.14 1.86-.14 2.85-1.32.79-5.14.79-5.14-1.21-9.69-4.62-4.16-10.17-6.76-15.79-9.31v-1c-32.29-6.47-66.26 5.67-88.33 29.52"/><path fill="#db934f" d="M372 738c-1.39 5.74-2.78 11.41-4.69 17-2.12 7.02-2.77 14.64.38 21.44 5.7 9.62 16.17 14.71 26.31 18.56 5.35 1.31 10.77 2.12 16.21 2.94 8.98 1.55 8.98 1.55 11.87 5.1.63.98 1.27 1.95 1.92 2.96 2.65 1.84 2.65 1.84 5 3-6.51 8.01-13.9 16.02-23.88 19.5-2.53.89-4.91 1.86-7.36 2.99-3.93 1.7-7.86 2.45-12.07 3.13-4.99.71-4.99.71-9.69 2.38-12.32 2.14-26.02.42-38-3-.5-.99-.5-.99-1-2-.87-.14-1.73-.29-2.62-.44-11.12-1.85-18.74-9.82-25.22-18.64-3.86-6.41-3.93-12.6-3.16-19.92 4.83-19 20.98-34.03 37-44 8.05-4.61 19.49-11 29-11"/><path fill="#617f30" d="M519 515c-3.92 1.17-6.98.7-11 0v2l-3-1 1-1-1.93.04c-.83 0-1.66.01-2.51.02l-2.49.04C497 515 497 515 496 514c-1.35-.23-2.7-.41-4.06-.56-1.3-.15-2.6-.29-3.94-.44v4c2.4 2.4 3.33 2.34 6.62 2.62.82.08 1.64.15 2.48.23.63.05 1.25.1 1.9.15v1c-.61.01-1.22.03-1.84.04-34.46.92-66.57 8.71-91.2 34.59-9.12 11.01-17.34 23.94-18.96 38.37.99-.5.99-.5 2-1 .04 1.01.07 2.03.11 3.07.07 1.35.14 2.7.2 4.05.03.67.05 1.34.07 2.02.25 4.64 1.38 7.82 3.62 11.86v2c3.64 1.21 7.25 1.92 11 1 3.77-3.27 6.67-7.05 9.62-11.06.76-1.02 1.52-2.05 2.29-3.1 1.27-1.72 2.52-3.46 3.74-5.21.44-.54.89-1.08 1.35-1.63h2v-2h2l.73-1.73c7.66-13.64 28.85-24.03 43.25-28.59 4.7-1.06 9.24-1.02 14.02-.68v3c-2.25 1.55-2.25 1.55-5.44 3.31-20.13 11.77-47.68 33.71-54.87 56.81-.97 3.97-.6 6.26 1.31 9.88 2.18 2.84 3.33 3.86 6.86 4.61 1.1.05 2.19.09 3.33.14 1.22.06 2.44.11 3.7.17 7.04.17 14.07.16 21.11.08-4.04 2.69-6.98 3.13-11.77 3.1-.89-.01-1.77-.01-2.69-.01l-2.79-.03c-.94 0-1.87-.01-2.84-.01-2.3-.01-4.61-.03-6.91-.05v2h-2v-3c-.58-.08-1.15-.16-1.75-.25-2.87-.96-4.17-2.6-6.25-4.75l-3-1c-.19-5.55.31-9.72 2-15v-2c-.62.83-1.24 1.65-1.88 2.5-.7.83-1.4 1.65-2.12 2.5h-2c1.49-4.53 4.06-7.94 7-11.62 3.62-4.6 3.62-4.6 7-9.38h2v-3c-6.95 3.18-10.59 7.87-15 14-.59.81-.59.81-1.2 1.64-7.88 10.83-16.24 23.79-17.8 37.36-3.15-.7-6.03-1.76-9-3l.75-2.31c.31-4.54-.93-7.46-2.64-11.62-2.76-7.66-3.41-14.84-3.3-22.95.01-.96.01-1.93.02-2.93.06-5.76.28-11.45 1.05-17.17.13-2.21-.24-3.91-.88-6.02-1.49.5-1.49.5-3 1v2h-2v4h-2c2.19-18.59 13.29-34.88 26-48l1.55-1.64c28.83-29.8 75.84-40.28 115.45-30.36"/><path fill="#9aa63d" d="M406 709h1c.94 4.79 1.19 9.47 1.24 14.33.01.79.01 1.58.02 2.39.02 1.66.03 3.33.04 4.99.01 1.69.03 3.37.06 5.06.17 9.64.09 17.45-4.36 26.23-.74 2.28-1.45 4.57-2.12 6.88-2.08 7.13-2.08 7.13-3.88 10.12-3.7 1.85-8.52.95-12.62.79-4.76-.1-7.37.39-11.38 3.21-3.3-.7-4.16-2.21-6.19-4.94-3.9-6.6-3.98-13.46-2.12-20.77 1.91-6.5 4.07-12.91 6.31-19.29-12.48 4.18-24.26 8.22-35 16-.89.64-1.77 1.27-2.69 1.93-10.9 8.28-20.49 19.1-25.31 32.07l-2-4c-3.91 1.27-5.79 2.51-8 6 1.69-14.29 12.68-25.78 22.38-35.62.52-.54 1.04-1.07 1.58-1.62 3.79-3.76 3.79-3.76 6.04-3.76v-2h3v-2l6-2v-2c4.86-2.56 9.55-4.64 14.79-6.28 2.09-.68 4.11-1.46 6.15-2.28 4.57-1.76 9.24-2.57 14.06-3.44v-13h2c.5 2.97.5 2.97 1 6h-2v7l7-1-.06-2.88C381 722 381 722 382 720l3 1c.5 3.47.5 3.47 1 7 7.2-4.17 13.09-10.35 18.24-16.82.58-.72 1.16-1.44 1.76-2.18"/><path fill="#865240" d="M445.625 743.938c14.48 4.56 26.22 21.27 33.38 34.06 4.92 9.83 7.71 20.42 4.93 31.32-1.8 4.98-4.43 8.74-7.93 12.68-.66.77-1.31 1.54-1.99 2.33-19.59 21.42-50.52 29.53-78.6 30.84-30.58.18-62.1-6.11-85.41-27.17-8.6-8.91-13.22-18.22-13.11-30.58.11-2.56.44-4.94 1.11-7.42h2c.66-2.31 1.31-4.62 2-7 .66.33 1.31.66 2 1 2.09-.4 2.09-.4 4-1 1 2 1 2 .06 5.32-2.28 8.72-2.32 17.43 2.27 25.35 13.48 18.95 36.86 26.14 58.67 30.33 29.45 4.66 63.49-.5 88.17-17.87 8.69-6.55 16-12.59 18.36-23.64.95-11.77-6.4-24.02-13.38-32.96-6.88-8.06-13.94-14.24-23.15-19.53.31-1.87.31-1.87 1-4 3-2 3-2 5.62-2.06"/><path fill="#274a17" d="M384 587c.2 1.35.38 2.71.56 4.06.16 1.13.16 1.13.32 2.29.12 2.65.12 2.65-.33 5.8-2.12 14.89-1.2 29.68 4.6 43.62.99 2.59.82 3.67-.15 6.23-.5.99-.5.99-1 2 1.11.19 1.11.19 2.25.38 2.56.58 4.44 1.41 6.75 2.62v-3.5c1.77-16.06 16.72-37.51 28.38-47.75C428 601 428 601 431 601v3h-2c-.22.52-.45 1.04-.68 1.57-1.82 3.35-4.15 6.28-6.44 9.31-7.24 9.73-13.1 19.84-17.88 31-.3.68-.61 1.37-.92 2.08-2.29 5.59-2.81 10.48-1.58 16.48 1.45 7.41.38 13.66-2.5 20.56-.33.79-.66 1.59-1 2.4-3.37 7.38-8.26 13.86-14 19.6-.3 1.56-.54 3.12-.75 4.69-.14.95-.27 1.89-.4 2.86-.21 1.49-.21 1.49-.41 3.01-.14 1-.28 2-.42 3.02-.35 2.48-.68 4.95-1.02 7.42l-7 1v-7h2l-1-6c-.92.65-1.84 1.3-2.79 1.98C352.04 732 352.04 732 343 732v2c-10.63 3.42-19.88 4.53-31 4v-5h-6c3.12-1.76 5.88-2.46 9.41-3.01 25.13-4.2 51.13-12.98 67.89-33.53 6.78-9.82 11.11-18.95 10.41-31.07-.7-3.34-1.18-4.9-3.59-7.27-7.61-4.43-17.16-4.55-25.74-5.24-1.51-.13-1.51-.13-3.05-.27-2.44-.21-4.89-.41-7.33-.61v-3h29c-7.92-8.05-7.92-8.05-16.94-13.81-.7-.38-1.39-.75-2.11-1.14-1.97-1.04-3.96-2.05-5.95-3.05-.86-.43-1.73-.87-2.62-1.31-6.16-2.74-12.71-3.95-19.31-5.12-5.74-1.12-5.74-1.12-7.6-3.69-.16-.62-.31-1.24-.47-1.88h-2v-2c4.44-1.22 8.44-.8 12.94-.19.69.09 1.38.17 2.09.25 4.19.55 8.01 1.47 11.97 2.94l-3 4c3.44 2.51 3.44 2.51 7.56 2.75 2.35-.68 2.35-.68 4.2-1.48 3.42-.41 5.5 1.07 8.49 2.67 1.62.85 1.62.85 3.27 1.71.82.45 1.64.89 2.48 1.35-.16-.84-.32-1.67-.49-2.53-1.6-10.94-.47-22.51.49-33.47h2v-4h2v-2c3-2 3-2 4-2"/><path fill="#87823e" d="M375 596h1v35c-8.31-2.77-8.31-2.77-11-4l-1-2c-.87.52-1.73 1.03-2.62 1.56-3.84 1.63-5.46 1.75-9.38.44-1.88-2.06-1.88-2.06-3-4l2-2c-7.97-3.9-16.29-3.71-25-4v2h2v2c2.81.94 5.6 1.55 8.5 2.15 17.81 3.83 34.04 11.26 46.5 24.85l2 2c-1.08-.16-2.16-.32-3.27-.48-16.74-2.07-33.49-.92-49.73 3.48-.75.2-1.5.4-2.27.6-14.9 4.1-28.61 11.31-41.73 19.4 1.19-6.75 7.43-10.73 12.69-14.56 10.48-7.07 22.35-13.3 35.31-12.44v-2l8-2c.3-2.92.48-5.15 0-8-4.46-5.19-10.78-7.4-17-10v-1c-20.73-5.24-46.48.58-64.68 11.07-17.94 10.83-33.61 27.5-38.94 48.23-.13.56-.25 1.12-.38 1.7h-2v3h-2c-2-2-2-2-3-6v24c-4.79-7.18-3.14-17.42-1.78-25.55 3.37-14.88 12.44-26.62 22.78-37.45.53-.6 1.05-1.2 1.6-1.82 15.1-16.57 40.41-26.29 62.41-27.32 22.08-.64 41.8.88 61.99 10.14 1.11.49 2.22.99 3.36 1.5 2.56 1.14 5.1 2.31 7.64 3.5-.01-.69-.01-1.37-.02-2.08-.02-3.14-.03-6.28-.04-9.42l-.03-3.27c-.02-5.84.2-11.45 1.09-17.23"/><path fill="#5c6f22" d="m446 662-1 8c-.93.2-1.85.41-2.81.62-1.2.27-2.39.54-3.63.82-1.19.26-2.39.53-3.62.81-2.81.45-2.81.45-3.94 1.75-2.19.07-4.38.08-6.56.06l-3.63-.02c-.93-.02-1.86-.03-2.81-.04.28 1.24.55 2.49.84 3.77 3.77 18.33 3.98 36.59 4.16 55.23l4 2v2l4 1c.5 3.47.5 3.47 1 7l-10-3 .12 4.06c.03 7.07-1.08 13.96-2.12 20.94h-2c-.15 1.3-.15 1.3-.31 2.62-1.29 6.33-3.91 9.95-8.68 14.08-5.68 3.67-11.48 3.64-18.01 3.61-.88.02-1.75.03-2.66.05-5.18.01-8.87-.42-13.34-3.36l-1-2c4.36-3.3 8.07-3.26 13.31-3 9.8.33 9.8.33 18.2-4.36 11.13-12.33 9.24-37 8.49-52.64-.83-15.6-2.17-31.08-6.08-46.25-.85-3.45-1.18-6.23-.92-9.75 1.59-1.59 3.28-1.18 5.49-1.25l2.81-.09c1-.03 1.99-.07 3.01-.1 7.29-.27 14.29-.7 21.45-2.16 2.24-.4 2.24-.4 6.24-.4"/><path fill="#597a2d" d="M406 667h1c4.79 17.91 7.32 36.48 8 55 .03.71.05 1.42.08 2.15.34 10.13-.1 20.04-1.33 30.1-.11.95-.22 1.9-.33 2.88-.98 7.27-2.77 13.81-8.42 18.81-2.52 1.73-4.02 2.72-7 3.06.82-3.41 1.8-6.77 2.81-10.12.32-1.06.63-2.11.96-3.2C403 762 403 762 404.02 760c4.19-8.6 3.46-17.47 3.29-26.81l-.03-5.09c-.01-1.62-.03-3.25-.04-4.87-.01-.75-.02-1.5-.02-2.28-.07-3.76-.33-7.29-1.22-10.95-.71.8-1.43 1.59-2.16 2.41-10.05 11.15-10.05 11.15-15.84 15.59h-2l-.88-3.44c-.37-1.17-.74-2.35-1.12-3.56l-2-1c-.13-12.57-.13-12.57 4.12-17.12l1.9-1.86c5.74-5.87 9.48-13.28 11.98-21.02q1.08-3 2.19-6c.6-1.67 1.21-3.33 1.81-5h2z"/><path fill="#3c5c36" d="M551 550c.5 1.49.5 1.49 1 3 .5.99.5.99 1 2 1.2 13.62.84 26.5-5 39l-.88 1.88c-6.3 13.27-15.04 24.48-25.12 35.12-.77.82-1.54 1.64-2.33 2.49-6.37 6.61-13.26 12.15-20.67 17.51-1.2.88-1.2.88-2.43 1.77-3.01 2.06-4.86 3.27-8.57 3.04l-2-.81v2h-4v2c-2.48.5-2.48.5-5 1v1c-4.45.5-4.45.5-9 1v3c-7.43 2.43-7.43 2.43-11 1 .99-.5.99-.5 2-1v-2c-2.48.99-2.48.99-5 2v-3l-2-1c.52-.17 1.04-.34 1.58-.52 36.5-12.01 65.32-32.04 83.52-66.64 2.49-5.09 4.25-10.43 5.9-15.84.23-.75.47-1.51.71-2.28 2.03-7.66 1.95-15.84 2.29-23.72z"/><path fill="#f9df6e" d="M530 530c-3.08.98-4.94.96-8.03.09-5.52-1.34-10.86-1.47-16.53-1.47h-3.27c-9.89.13-19.33 1.62-29.02 3.5-4.47.85-8.6 1.05-13.15.88v2c-.53.17-1.05.34-1.6.52-20.43 6.66-41.27 15.46-54.78 32.98-.7.9-.7.9-1.42 1.82-3.99 5.21-7.43 10.67-10.74 16.33L390 589h-1c-.81-13.51 9.7-25.62 18.01-35.36C434.41 524.2 494.56 505.98 530 530"/><path fill="#224515" d="m395 666 7 1c.32 6.74-.4 11.78-3 18-.33.79-.66 1.59-1 2.4-3.37 7.38-8.26 13.86-14 19.6-.3 1.56-.54 3.12-.75 4.69-.2 1.42-.2 1.42-.4 2.86-.14 1-.27 1.99-.41 3.01-.14 1-.28 2-.42 3.02-.35 2.48-.68 4.95-1.02 7.42-3.47.5-3.47.5-7 1v-7h2c-.5-2.97-.5-2.97-1-6-.92.65-1.84 1.3-2.79 1.98C352.04 732 352.04 732 343 732v2c-10.63 3.42-19.88 4.53-31 4v-5h-6c3.12-1.76 5.88-2.46 9.41-3.01 25.23-4.21 50.97-13.03 67.89-33.51 6.38-9.33 10.84-19.11 11.7-30.48"/><path fill="#f9dd6f" d="M326 623c-.97.03-1.94.05-2.94.08C295.77 624.1 271.38 634.8 252 654c-.82.8-1.63 1.61-2.48 2.44C235.78 670.8 229.85 688.51 228 708c-4.45-4-5.65-9.02-6.33-14.84-.65-17.71 9.52-32.19 21-44.74 16.58-17.76 59.28-39.01 83.33-25.42"/><path fill="#6b8633" d="M328 622c21.21 3.5 40.07 9.72 55 26l2 2c-1.62-.24-1.62-.24-3.27-.48-16.74-2.07-33.49-.92-49.73 3.48-.75.2-1.5.4-2.27.6-14.9 4.1-28.61 11.31-41.73 19.4 1.19-6.75 7.43-10.73 12.69-14.56 10.48-7.07 22.35-13.3 35.31-12.44v-2l8-2c.3-2.92.48-5.15 0-8-4.46-5.19-10.78-7.4-17-10z"/><path fill="#fbcf6f" d="M372 738c-.42 1.96-.86 3.92-1.31 5.88-.25 1.09-.49 2.18-.74 3.3C369 750 369 750 366 752h-4l-1 3c-1.65.71-3.32 1.37-5 2-.85.6-1.69 1.2-2.56 1.81-2.93 2.06-5.98 3.23-9.32 4.5-5.81 2.37-9.78 5.2-14.12 9.69l-1.98 1.92c-8.32 8.58-15.85 21.36-16.64 33.39-.08 1.07-.15 2.14-.23 3.24L311 814c-3.57-3.08-4.78-6.28-5.37-10.91-.35-16.42 8.75-29.35 19.68-40.9C336.57 751.53 355.87 738 372 738"/><path fill="#36592e" d="M216 679h1c.14.76.29 1.53.44 2.31.52 2.77.52 2.77 1.56 5.69h2l1-3c.07 1.02.15 2.03.23 3.08 1.01 11.38 3.34 21.07 11.89 29.3 7.82 6.26 16.46 9.72 26 12.43.73.21 1.46.42 2.21.63 9.93 2.64 20.08 2.78 30.29 3.12 1.8.07 1.8.07 3.63.13 2.91.11 5.83.21 8.75.31v4l4 2c-18.56 2.35-40.23 3.52-58-3-1.17-.39-2.34-.77-3.55-1.17-6.7-2.34-12.18-5.06-17.45-9.83-.76-.68-1.52-1.36-2.31-2.07-7.42-7-12.37-13.81-12.78-24.25-.04-2.64-.05-5.29-.03-7.93-.01-.91-.01-1.82-.02-2.76 0-.87.01-1.74.01-2.63v-2.39C215 681 215 681 216 679"/><path fill="#837e38" d="M519 515c-3.92 1.17-6.98.7-11 0v2l-3-1 1-1-1.93.04c-.83 0-1.66.01-2.51.02l-2.49.04C497 515 497 515 496 514c-1.35-.23-2.7-.41-4.06-.56-1.3-.15-2.6-.29-3.94-.44v4c2.4 2.4 3.33 2.34 6.62 2.62.82.08 1.64.15 2.48.23.63.05 1.25.1 1.9.15v1c-.61.01-1.22.03-1.84.04-33.65.9-60.76 8.26-86.78 30.34-5.34 4.52-5.34 4.52-8.38 4.62l-3-2-2 2h-2c6.32-15.32 28.58-28.09 43.08-34.24 25.61-10.21 53.99-13.5 80.92-6.76"/><path fill="#808f33" d="M483 563v3c-2.25 1.55-2.25 1.55-5.44 3.31-20.13 11.77-47.68 33.71-54.87 56.81-.97 3.97-.6 6.26 1.31 9.88 2.18 2.84 3.33 3.86 6.86 4.61 1.1.05 2.19.09 3.33.14 1.22.06 2.44.11 3.7.17 7.04.17 14.07.16 21.11.08-4.04 2.69-6.98 3.13-11.77 3.1-.89-.01-1.77-.01-2.69-.01-1.38-.01-1.38-.01-2.79-.03-.94 0-1.87-.01-2.84-.01-2.3-.01-4.61-.03-6.91-.05v2h-2v-3c-.58-.08-1.15-.16-1.75-.25-2.87-.96-4.17-2.6-6.25-4.75l-3-1c-.19-5.55.31-9.72 2-15v-2c-.62.83-1.24 1.65-1.88 2.5-.7.83-1.4 1.65-2.12 2.5h-2c1.49-4.53 4.06-7.94 7-11.62 3.62-4.6 3.62-4.6 7-9.38h2c.39-.88.39-.88.79-1.77 5.92-10.88 19.51-18.82 29.33-25.98.74-.54 1.48-1.09 2.25-1.65 5.01-3.61 10.17-6.72 15.63-9.6-14.41 1.55-28.21 14.49-38.81 23.56-.63.53-1.25 1.06-1.89 1.61a77 77 0 0 0-10.04 10.53c-.42.43-.83.86-1.26 1.3h-2v-3c-3.46 1.25-6.15 2.68-9 5 1.37-2.95 2.88-5.52 5-8h2v-2h2l.73-1.73c7.66-13.64 28.85-24.03 43.25-28.59 4.7-1.06 9.24-1.02 14.02-.68"/><path fill="#a86b3b" d="m373 729-1 9c-.6.2-1.2.4-1.81.61-11.9 4.03-22.95 7.97-33.19 15.39-.89.64-1.77 1.27-2.69 1.93-10.9 8.28-20.49 19.1-25.31 32.07l-2-4c-3.91 1.27-5.79 2.51-8 6 1.69-14.29 12.68-25.78 22.38-35.62.52-.54 1.04-1.07 1.58-1.62 3.79-3.76 3.79-3.76 6.04-3.76v-2h3v-2l6-2v-2c4.85-2.56 9.55-4.63 14.78-6.28 2.13-.69 4.2-1.47 6.28-2.28 4.4-1.68 9.2-3.44 13.94-3.44"/><path fill="#884d33" d="m302 783 2 1c2.1-.4 2.1-.4 4-1 1 2 1 2 .06 5.31-2.28 8.73-2.32 17.44 2.28 25.35 8.58 12.08 21.25 18.66 34.66 24.11 2.41.99 4.7 2.03 7 3.23-.62.45-1.24.91-1.88 1.38-2.18 1.59-2.18 1.59-4.12 3.62l3.38.88C353 848 353 848 355 850c-18.96-2.87-37.69-12.55-49.94-27.5-6.34-8.69-8.51-16.89-8.06-27.5.5-3.12.5-3.12 1-5h2z"/><path fill="#576422" d="M488 513c4.28-.07 7.87-.07 12 1 2.33.04 4.67.04 7 0l-1 2 2 1v-2c13.54-.14 24.34 3.8 34.06 13.31 4.46 4.78 7.71 9.55 9.94 15.69l1.11 3.05c1.44 5.2 1.1 10.54 1.01 15.89 0 1.06-.01 2.13-.02 3.23-.03 2.61-.06 5.22-.1 7.83h-1c-.06-1.18-.12-2.36-.18-3.58-.09-1.56-.17-3.11-.26-4.67-.04-.78-.08-1.55-.12-2.36-.04-.75-.08-1.5-.12-2.28-.04-.69-.08-1.38-.11-2.1-.31-3.84-.31-3.84-2.21-7.01h-4c-.5.99-.5.99-1 2-.26-.82-.51-1.64-.78-2.49-3.78-11.04-8.81-18.7-19.47-23.95-12.19-5-24.76-6.32-37.75-7.56l1-2-3-2h3z"/><path fill="#c3ba46" d="m383 727 1 2h2l2 2 4-2c1.84 3.78 2.16 5.95 1 10l3 1c.19 2.88.19 2.88 0 6l-3 2c-1.12 3.66-1.09 7.2-1 11h-2c.08.76.17 1.53.25 2.31-.25 2.69-.25 2.69-2.25 4.5l-2 1.19v-2c-.78.35-1.57.7-2.38 1.06-.86.31-1.73.62-2.62.94l-2-1c-.14.78-.29 1.57-.44 2.38C378 771 378 771 377 773h-3c-2.29-4.88-2.72-8.77-1.05-13.95.43-1.04.86-2.09 1.3-3.17 2.65-7.02 4.13-14.01 5.41-21.39.14-.83.29-1.66.45-2.51.12-.74.25-1.49.38-2.25.25-.86.25-.86.51-1.73z"/><path fill="#864c38" d="M445.625 743.938c14.16 4.46 26.67 21.24 33.38 34.06 1.38 3.64 2.29 7.18 3 11 .32.99.65 1.98 1 3 .09 2.7.13 5.37.12 8.06.01 1.1.01 1.1.01 2.23-.01 5.46-.01 5.46-1.13 7.71h-3v-10l-2 2-.82-3.01c-5.46-19.3-16.36-37.2-34.25-47.49-.97-.49-1.94-.99-2.93-1.5.31-1.87.31-1.87 1-4 3-2 3-2 5.62-2.06"/><path fill="#d8964e" d="M422 708h1l1 25c4.45.99 4.45.99 9 2 2.64 1.15 2.64 1.15 4.69 2.38.73.43 1.47.86 2.22 1.31 2.74 1.72 5.43 3.47 8.09 5.31-2.31 1.15-4.47 1.53-7 2-1.3 3.92-.27 5.81 1.3 9.56 1.35 4.7.92 9.6.7 14.44-5.26-.66-9.93-2.26-14.88-4.06L420 763l2-21c6.75 1.12 6.75 1.12 10 3v-5l-2-1-1.88-1.94c-2.21-2.36-2.21-2.36-6.12-4.06z"/><path fill="#406021" d="M431 601v3h-2c-.22.52-.45 1.04-.68 1.57-1.82 3.35-4.15 6.28-6.44 9.31C410.8 629.79 398.89 647.7 401 667c-2.97-.5-2.97-.5-6-1v8h-1l.03-2.41c-.09-6.1-.09-6.1-2.3-11.65-7.07-6.64-18.22-6.32-27.35-7.06-1.01-.09-2.01-.18-3.05-.27-2.44-.21-4.89-.41-7.33-.61v-3h34v2c1.11.19 1.11.19 2.25.38 2.56.58 4.44 1.41 6.75 2.62v-3.5c1.77-16.06 16.72-37.51 28.38-47.75C428 601 428 601 431 601"/><path fill="#596520" d="M375 596h1v35c-8.31-2.77-8.31-2.77-11-4-.5-.99-.5-.99-1-2-.87.52-1.73 1.03-2.62 1.56-3.84 1.63-5.46 1.75-9.38.44-1.88-2.06-1.88-2.06-3-4l2-2c-7.97-3.9-16.29-3.71-25-4v2h2v2l3 1c-.88-.01-1.75-.01-2.66-.02-3.28-.01-6.55-.03-9.83-.03l-4.24-.03c-2.04-.01-4.08-.01-6.12-.02-1.23 0-2.45-.01-3.71-.01-3.25.1-6.25.53-9.44 1.11-2.29.07-4.58.09-6.88.06-1.15-.01-2.3-.02-3.49-.02-.87-.02-1.73-.03-2.63-.04l1-4-9 2c3.9-3.9 10.13-4.87 15.5-5.25 2.5.25 2.5.25 4.5 1.25l1-3c20.6-6.87 48.81.2 68 9 1.11.49 2.22.99 3.36 1.5 2.56 1.14 5.1 2.31 7.64 3.5-.01-.69-.01-1.37-.02-2.08-.02-3.14-.03-6.28-.04-9.42l-.03-3.27c-.02-5.84.2-11.45 1.09-17.23"/><path fill="#70892f" d="M413 700c1.97 18.28 2.95 35.95.75 54.25-.16 1.43-.16 1.43-.33 2.89-.98 7.26-2.77 13.8-8.42 18.8-2.52 1.73-4.02 2.72-7 3.06.82-3.41 1.8-6.77 2.81-10.12.32-1.06.63-2.11.96-3.2C403 762 403 762 404.02 760c4.19-8.6 3.46-17.47 3.29-26.81l-.03-5.09c-.01-1.62-.03-3.25-.04-4.87-.01-.75-.02-1.5-.02-2.28-.12-6.69-.12-6.69-2.22-12.95 1.05-3.16 4.29-8 8-8"/><path fill="#a9af42" d="m402 719-1 3c-.06 1.81-.06 3.63-.03 5.45.01 1.07.03 2.15.04 3.26.03 2.25.07 4.51.12 6.76.08 8.49-.83 15.69-4.13 23.53-.69 2.33-1.36 4.66-2 7h-2c-.19.64-.37 1.28-.56 1.94-1.44 2.06-1.44 2.06-5.06 2.81-1.12.08-2.23.16-3.38.25v2h-8l-1-2h2l2-7c6.75-1 6.75-1 9-1l2-6h2c-.31-1.58-.31-1.58-.62-3.19-.38-3.82-.3-5.55 1.62-8.81l3-1c-.34-2.97-.34-2.97-1-6l-2-1 .12-2.25c-.12-2.84-.69-4.34-2.12-6.75l-4 2-1-3-5-1c-.12-5.75-.12-5.75 1-8l3 1 1 7c3.9-2.57 7.68-5.22 11.39-8.05C399 719 399 719 402 719"/><path fill="#294b22" d="m365 715 2 2c1.32.7 2.65 1.37 4 2-20.83 13-20.83 13-28 13v2c-10.63 3.42-19.88 4.53-31 4v-5h-6c3.12-1.76 5.88-2.46 9.41-3.01 13.49-2.26 25.28-5.38 37.67-11.14 3.86-1.71 7.85-2.78 11.92-3.85"/><path fill="#854e3d" d="M480 783c4.58 4.58 4.65 11.52 5.02 17.68-.06 8.69-3.35 14.95-9.02 21.32-.65.77-1.31 1.54-1.98 2.33-5.22 5.71-10.9 9.8-17.46 13.86-.79.49-1.58.99-2.4 1.49-.75.45-1.51.9-2.28 1.36-.68.41-1.35.81-2.05 1.22C448 843 448 843 445 842c.99-.5.99-.5 2-1l-7-2c1.56-1.72 2.83-2.92 4.94-3.94 2.16-.97 2.16-.97 3.8-2.86 2.63-2.56 5.44-4.39 8.51-6.39 7.95-5.35 14.8-11.43 17.75-20.81.41-2.32.76-4.66 1-7l2 2 2-1c.12 7.62.12 7.62-1 11h3c.05-2.9.09-5.79.12-8.69l.06-2.47c.03-4.49-.28-7.7-2.18-11.84z"/><path fill="#294c22" d="M515 625c0 3 0 3-2.31 5.5-.89.83-1.78 1.65-2.69 2.5l-1.81 1.81L507 636c.52.41 1.03.83 1.56 1.25 1.44 1.75 1.44 1.75 1.32 3.61-1.89 4.61-6.98 7.28-10.88 10.14-.75.55-1.5 1.1-2.27 1.66-4.95 3.39-4.95 3.39-8.73 3.15-.66-.27-1.32-.53-2-.81v2h-4v2c-2.48.5-2.48.5-5 1v1c-4.45.5-4.45.5-9 1v3c-7.43 2.43-7.43 2.43-11 1 .99-.5.99-.5 2-1v-2l-5 2v-3l-2-1c.52-.17 1.04-.34 1.58-.52 23.05-7.58 44.37-17.72 61.42-35.48"/><path fill="#858027" d="M373 716h2l1 6h-2v7c3.46-.5 3.46-.5 7-1-.49 10.22-2.72 21.03-6.81 30.44-1.51 4.51-1.48 8-.19 12.56 2.18 3.45 4.64 5.72 8 8-1.24.73-2.49 1.43-3.75 2.12-1.04.6-1.04.6-2.11 1.2-2.14.68-2.14.68-4.27-.02-3.61-2.51-5.5-6.2-6.87-10.3-1.07-7.68.48-14.1 2.88-21.31 3.71-11.2 5.12-22.89 5.12-34.69"/><path fill="#7e442e" d="M364.836 843.104c12.31 2.32 24.67 2.62 37.16 2.9l-1 5 3 2c-5.37.05-10.74.08-16.11.11-1.82.01-3.65.02-5.47.04-18.65.17-18.65.17-27.42-2.15v-2l-11-3c7.8-5.85 11.71-4.66 20.84-2.9"/><path fill="#847827" d="M519 515c-3.92 1.17-6.98.7-11 0v2l-3-1 1-1-1.93.04c-.83 0-1.66.01-2.51.02l-2.49.04C497 515 497 515 496 514c-1.35-.23-2.7-.41-4.06-.56-1.3-.15-2.6-.29-3.94-.44v4c2.4 2.4 3.33 2.34 6.62 2.62.82.08 1.64.15 2.48.23.63.05 1.25.1 1.9.15v1c-.61.01-1.22.03-1.84.04-22.6.61-42.38 3.8-63.16 12.96v-2h2v-3c1.24-.33 2.48-.66 3.75-1 1.04-.28 1.04-.28 2.11-.56C444 527 444 527 448 527v-2c1.42-.09 1.42-.09 2.88-.19 3.29-.47 3.29-.47 4.56-3.19.81-2.71.81-2.71-.44-5.62 2.14-.49 4.29-.96 6.44-1.44l3.62-.81c17.54-3.54 36.62-3.09 53.94 1.25"/><path fill="#204619" d="m446 662-1 8c-9.89 2.85-18.79 3.35-29 3l1 9-5 1-1 4c-.68-2.37-1.34-4.75-2-7.12-.19-.67-.38-1.34-.58-2.02-1.11-4.05-1.73-7.66-1.42-11.86 1.59-1.59 3.28-1.18 5.49-1.25l2.81-.09c1-.03 1.99-.07 3.01-.1 7.29-.27 14.29-.7 21.45-2.16 2.24-.4 2.24-.4 6.24-.4"/><path fill="#51611b" d="m399 552 1 3 6-1c-1.42 3.18-3.31 5.89-5.33 8.72-6.46 9.16-10.65 18.85-14.67 29.28h-2l-1-4c-1.49.5-1.49.5-3 1v2h-2v4h-2c1.56-13.21 8.19-28.02 17-38 1.65-.7 3.32-1.37 5-2z"/><path fill="#b17644" d="m373 729-1 9c-.62.22-1.25.44-1.89.67-2.87 1.02-5.74 2.05-8.61 3.08-.98.35-1.96.7-2.98 1.05-5.73 2.07-11.13 4.35-16.52 7.2l-1-2-2 1-1-4-5 1v3h-4v-2h3v-2l6-2v-2c4.85-2.56 9.55-4.63 14.78-6.28 2.13-.69 4.2-1.47 6.28-2.28 4.4-1.68 9.2-3.44 13.94-3.44"/><path fill="#4c6722" d="M377 648v1h-23v3h11v1c-.59.03-1.18.07-1.79.1-22.84 1.42-45.36 5.21-64.7 18.22C288.52 678 288.52 678 285 678c.13-1.74.13-1.74 1-4a51 51 0 0 1 5.88-4.19c.61-.38 1.22-.77 1.85-1.16 11.88-7.24 24.74-13.36 38.27-16.65 1.04-.27 1.04-.27 2.09-.54 14.33-3.65 28.18-3.93 42.91-3.46"/><path fill="#f6e06a" d="m383 727 1 2h2c1.24 14.68-2.38 30.9-9 44h-3c-2.29-4.88-2.72-8.77-1.05-13.95.43-1.04.86-2.09 1.3-3.17 2.65-7.02 4.13-14.01 5.41-21.39.14-.83.29-1.66.45-2.51.12-.74.25-1.49.38-2.25.25-.86.25-.86.51-1.73z"/><path fill="#28491a" d="m551 550 1 3 1 2c.86 11.75 1.47 28.37-6.67 37.97-.44.34-.88.68-1.33 1.03l-2-6c-.99.5-.99.5-2 1 .45-4.66 1.22-8.93 2.5-13.44 2.04-7.75 2.23-15.58 2.5-23.56z"/><path fill="#334f1c" d="M534 523c8 3.48 13.41 10.75 17.03 18.45 2.82 7.42 3.22 13.56 3.09 21.49 0 1.06-.01 2.13-.02 3.23-.03 2.61-.06 5.22-.1 7.83h-1c-.09-1.77-.09-1.77-.18-3.58-.09-1.56-.17-3.11-.26-4.67-.04-.78-.08-1.55-.12-2.36-.04-.75-.08-1.5-.12-2.28-.04-.69-.08-1.38-.11-2.1-.31-3.84-.31-3.84-2.21-7.01h-4l-1 2c-.29-.86-.58-1.71-.88-2.6-2.53-7.04-4.96-12-10.12-17.4v-2h2l-1-5-3-1z"/><path fill="#fac565" d="M342 777c3.49-.2 6.2-.35 9.44 1.06 1.56 1.94 1.56 1.94 2 5.25-.58 4.85-1.98 8.23-5.44 11.69-2.31.3-2.31.3-5 .31-.89.02-1.77.04-2.69.05-.76-.12-1.52-.24-2.31-.36-2.14-3.2-2.23-4.02-2.12-7.69.01-.81.03-1.61.05-2.45.02-.61.05-1.23.07-1.86h2l2-4h2z"/><path fill="#829735" d="M407 709c.94 4.79 1.19 9.47 1.24 14.33.01.79.01 1.58.02 2.39.02 1.66.03 3.33.04 4.99.01 1.69.03 3.37.06 5.06.17 9.64.09 17.45-4.36 26.23-.74 2.28-1.45 4.57-2.12 6.88-2.08 7.13-2.08 7.13-3.88 10.12-2.76 1.38-5.05 1.1-8.12 1.06-1.1-.01-2.2-.02-3.33-.02L384 780v-1h8v-2l2-2c.86-2.04 1.67-4.11 2.44-6.19 1.29-3.47 2.59-6.88 4.11-10.26 4.38-10.75 6.24-24.79 3.91-36.21-.64-3.25-.03-6.1.54-9.34l-2-1c2.88-3 2.88-3 4-3"/><path fill="#586b3a" d="M216 679h1c.14.76.29 1.53.44 2.31.52 2.77.52 2.77 1.56 5.69h2l1-3c.1 1.04.2 2.08.3 3.15.85 8.18 2 15.38 5.7 22.85-2.08.55-3.84 1-6 1v2c.64.21 1.28.41 1.94.62 2.06 1.38 2.06 1.38 2.81 4.5.12 1.43.12 1.43.25 2.88-5.92-4.27-9.91-9.43-11.63-16.64-.5-4.55-.51-9.04-.49-13.61-.01-.91-.01-1.82-.02-2.76 0-.87.01-1.74.01-2.63v-2.39C215 681 215 681 216 679"/><path fill="#626f26" d="M481 564c-3.35 2.8-6.68 5.03-10.5 7.12-11.09 6.39-20.68 14.75-30.31 23.12-.53.46-1.06.91-1.61 1.38q-1.605 1.41-3.18 2.85c-3.15 2.81-4 3.53-8.4 3.53 7.3-16.44 30.61-28.88 46-37 2.93-.98 4.96-1.08 8-1"/><path fill="#783b27" d="M470 773c3 0 3 0 4.44 1.25.51.58 1.03 1.15 1.56 1.75.68.54 1.36 1.07 2.06 1.62 2.43 2.99 2.87 5.53 3.55 9.26.37 2.3.37 2.3 1.39 5.12.1 2.7.14 5.36.12 8.06.01.74.01 1.47.02 2.22-.01 5.47-.01 5.47-1.14 7.72h-3v-10l-2 2c-.31-1.06-.63-2.12-.95-3.22-.43-1.43-.87-2.85-1.3-4.28-.22-.73-.45-1.47-.68-2.23-1.21-3.87-2.5-7.41-4.51-10.96C468 778 468 778 468.75 775c.41-.66.82-1.32 1.25-2"/><path fill="#829134" d="M326 649v4h-2v2c-1.14.48-2.27.97-3.45 1.47-8.88 3.84-17.4 7.92-25.73 12.87-2.24 1.32-4.47 2.54-6.82 3.66 1.19-6.75 7.43-10.73 12.69-14.56 17.57-11.93 17.57-11.93 25.31-9.44"/><path fill="#6f9036" d="M429 604h1c.49 4.77.82 8.52-2.31 12.38-.45.55-.9 1.1-1.37 1.67-2.57 3.8-3.83 8.41-4.32 12.95 1.05 3.98 2.73 6.5 6 9 2.91.7 2.91.7 6.19.75 1.22.06 2.44.11 3.7.17 7.04.17 14.07.16 21.11.08-4.04 2.69-6.98 3.13-11.77 3.1-.89-.01-1.77-.01-2.69-.01-1.38-.01-1.38-.01-2.79-.03-1.4 0-1.4 0-2.84-.01-2.3-.01-4.61-.03-6.91-.05v2h-2v-3c-.58-.08-1.15-.16-1.75-.25-2.87-.96-4.17-2.6-6.25-4.75l-3-1c-.19-5.55.31-9.72 2-15v-2c-.62.83-1.24 1.65-1.88 2.5-1.05 1.24-1.05 1.24-2.12 2.5h-2c1.49-4.53 4.06-7.94 7-11.62 3.62-4.6 3.62-4.6 7-9.38"/><path fill="#3b5b2d" d="M222 710c3.06-.5 3.06-.5 7 0 1.86 1.78 3.32 3.74 4.9 5.76 3.92 4.19 9.1 6.54 14.1 9.24l3 2c-3.96.5-3.96.5-8 1v3l-3 1c-5.8-2.94-11.83-6.93-14.19-13.12-.27-.95-.53-1.9-.81-2.88l-1-2-3-1z"/><path fill="#1e4317" d="M275 733h30v4l4 2c-8.01 1-15.94 1.18-24 1.19-1.84.02-1.84.02-3.71.03-1.17.01-2.34.01-3.54.01-1.06 0-2.11.01-3.2.01C272 740 272 740 270 738h6z"/><path fill="#1d4415" d="M346 724c-3 2-3 2-5 3-.1.97-.21 1.94-.31 2.94-.69 3.06-.69 3.06-2.81 4.44-3.39.73-6.43.82-9.88.62l-1-1c-2.11.06-2.11.06-4.5.38-1.22.13-1.22.13-2.47.27-2.02.15-2.02.15-3.03 1.35h7c-3.2 2.14-4.02 2.23-7.69 2.12-.81-.01-1.61-.03-2.45-.05-.92-.03-.92-.03-1.86-.07v-5h-6c3.24-1.84 6.24-2.56 9.9-3.22 1.14-.21 2.28-.42 3.45-.64 1.78-.31 1.78-.31 3.59-.64 2.34-.42 4.68-.85 7.02-1.28 1.56-.28 1.56-.28 3.15-.57 11.96-2.7 11.96-2.7 12.89-2.65"/><path fill="#446139" d="M416 673h15v1h-13c.14 1.1.29 2.2.44 3.33 1.05 8.26 1.88 16.32 1.56 24.67h-2c-.29.76-.58 1.53-.88 2.31C416 707 416 707 414 710c-1.88-3.76-1.73-8.23-2.12-12.38-.1-.95-.2-1.91-.31-2.9-.08-.93-.17-1.85-.27-2.81-.08-.84-.16-1.69-.25-2.56-.05-2.33.27-4.13.95-6.35h3c.62-3.44 1-6.49 1-10"/><path fill="#4d6b47" d="m486 655 3 1c-13.62 11.49-39.6 18.01-57 17 2.96-1.67 5.37-2.33 8.75-2.62.8-.08 1.6-.15 2.42-.23L445 670v-3l-2-1 2-2 1-2c2.88-.81 2.88-.81 6-1 1.62 1.5 1.62 1.5 3 3 2.16-.23 2.16-.23 4-1 .99 1.49.99 1.49 2 3l6-2v-3l8-1v-1h7v-2h4z"/><path fill="#71301b" d="m377.706 845.773 3.4.03 3.67.02c1.27.02 2.54.03 3.85.05l3.87.03c3.17.02 6.34.06 9.5.1l-1 5 3 2c-4.41.14-8.83.23-13.25.31-1.25.04-2.5.08-3.8.13-1.8.02-1.8.02-3.65.05-1.66.03-1.66.03-3.36.07-2.94-.56-2.94-.56-5.33-3.09-.79-1.23-.79-1.23-1.61-2.47 2-2 2-2 4.71-2.23"/><path fill="#747836" d="M304.637 612.902c1.95 0 1.95 0 3.94.01l4.11.03a3424 3424 0 0 1 14.31.06v1l-1.8.06c-2.69.09-5.38.2-8.07.31-.94.03-1.88.06-2.84.1-1.35.05-1.35.05-2.72.11-.82.04-1.65.07-2.5.1-2.29.14-2.29.14-4.07 2.32-1.98.71-3.98 1.38-6 2v2l2 1c-4.35.84-8.44 1.11-12.87 1.06l-3.49-.03-2.64-.03 1-4-9 2c3.9-3.9 10.14-4.87 15.5-5.25 2.5.25 2.5.25 4.5 1.25l1-3c3.42-1.14 6.04-1.12 9.64-1.1"/><path fill="#80854b" d="M222 664h1v5h4c-.65 3.52-1.51 6.89-2.56 10.31-.27.89-.54 1.77-.82 2.68-.2.66-.41 1.33-.62 2.01h-2v3h-2c-2-2-2-2-3-6v24c-4.83-7.25-3.07-17.45-1.75-25.64 1.05-4.71 2.69-9.01 4.75-13.36h3zm-1 5 1 3 1-3z"/><path fill="#809371" d="M375 596h1v35c-8.31-2.77-8.31-2.77-11-4-.5-.99-.5-.99-1-2-1.3.77-1.3.77-2.62 1.56-3.84 1.63-5.46 1.75-9.38.44-1.88-2.06-1.88-2.06-3-4l2-2c-5.88-2.6-10.84-3.39-17.27-3.59-3.06-.46-4.45-1.37-6.73-3.41 5.06-.15 9.71.29 14.62 1.44.72.16 1.43.33 2.17.5 9.19 2.31 17.75 6.33 26.32 10.3 1.86.89 1.86.89 3.89.76-.01-.65-.01-1.31-.02-1.98-.02-3.01-.03-6.01-.04-9.02l-.03-3.12c-.02-5.73.23-11.21 1.09-16.88"/><path fill="#b8b442" d="M393 737h4c.7 23.45.7 23.45-5 32-4.87 2.72-9.52 3.34-15 3l2-6c6.75-1 6.75-1 9-1l2-6h2c-.21-1.05-.41-2.1-.62-3.19-.38-3.82-.3-5.55 1.62-8.81l3-1c-.34-2.97-.34-2.97-1-6l-2-1z"/><path fill="#3b561a" d="m353 620-3 4c1.24.68 1.24.68 2.5 1.38.82.53 1.65 1.07 2.5 1.62v2c-1.05-.27-2.1-.53-3.18-.8-1.02-.26-1.02-.26-2.05-.52-1.48-.37-2.95-.74-4.42-1.12-3.89-.98-7.77-1.85-11.73-2.56-3.62-1-3.62-1-4.85-3.06-.25-.64-.51-1.28-.77-1.94h-2v-2c8.63-2.75 18.75.04 27 3"/><path fill="#6d7622" d="m365 762 3 1c2.14-.39 2.14-.39 4-1 .1.59.2 1.18.3 1.79 1.18 6.26 2.88 9.93 7.95 14.02.58.39 1.15.79 1.75 1.19-1.24.73-2.49 1.43-3.75 2.12-.7.4-1.39.79-2.11 1.2-2.14.68-2.14.68-4.27-.02-3.61-2.51-5.5-6.2-6.87-10.3a100 100 0 0 1-.06-5.19c.01-.9.02-1.8.02-2.73.02-.69.03-1.37.04-2.08"/><path fill="#799b3c" d="M344 660c3.73-.12 7.46-.19 11.19-.25l3.19-.1c7.75-.1 7.75-.1 11.83 2.01 3.34 4.36 2.37 9.11 1.79 14.34-1.23 7.15-3.82 11.94-9 17l-1-4h2c.12-.89.25-1.77.38-2.69.62-3.31.62-3.31 1.68-5.75 2.01-5.48 1.22-11.49-1-16.81-.95-1.92-.95-1.92-3.06-2.75v2l-4-2v2h-2v-2c-1.3.28-1.3.28-2.62.56-3.43.45-6.02.16-9.38-.56z"/><path fill="#7e7c38" d="M229 651c2.94.75 2.94.75 6 2 .94 1.66.94 1.66 1 4-1.23 2.4-2.46 4.52-3.94 6.75-.38.6-.77 1.2-1.17 1.82-.95 1.49-1.92 2.96-2.89 4.43l-5-1-1-3h-2c1.39-3.89 3.22-6.97 5.62-10.31.64-.89 1.27-1.77 1.92-2.68.48-.66.96-1.33 1.46-2.01m-8 18h2l-1 3z"/><path fill="#8b4823" d="m302 783 2 1c2.1-.4 2.1-.4 4-1 1.43 2.85.35 4.75-.46 7.7-.74 3.15-.97 6.29-1.2 9.51-.11.59-.22 1.18-.34 1.79l-2 1c-.14.8-.29 1.61-.44 2.44C303 808 303 808 300 810c-1.71-9.05-2.7-18.77 2-27"/><path fill="#ab826a" d="M422 708h1l1 25c4.45.99 4.45.99 9 2 2.64 1.15 2.64 1.15 4.69 2.38.73.43 1.47.86 2.22 1.31 2.74 1.72 5.43 3.47 8.09 5.31-2 1-2 1-4.44 1.38-2.79.68-3.76 1.44-5.56 3.62l-6-3v-6l-2-1-1.88-1.94c-2.21-2.36-2.21-2.36-6.12-4.06z"/><path fill="#8da13a" d="M405 713c-.03 1.95-.07 3.91-.1 5.86.03 2.12.03 2.12.58 4.03 2.14 8.73.39 18.14-1.29 26.8-.17.87-.33 1.74-.5 2.64-.17.83-.35 1.65-.52 2.49-.15.74-.31 1.47-.46 2.23-.82 2.26-1.9 3.38-3.71 4.95.13-.54.27-1.08.4-1.63 2.89-13.46 2.7-27.66 2.6-41.37-.78.52-1.57 1.03-2.38 1.56-.86.48-1.73.95-2.62 1.44l-2-1c1.29-1.34 2.58-2.67 3.88-4l2.17-2.25C403 713 403 713 405 713"/><path fill="#668431" d="M413 700c1.52 14.05 2.28 27.87 2 42h-1l-1-11-3 1c.19-.8.37-1.61.56-2.44.15-.84.29-1.69.44-2.56l-1-1c-.23-1.48-.39-2.98-.54-4.47-.08-.9-.17-1.8-.26-2.73l-.26-2.86c-.09-.95-.18-1.9-.28-2.88L408 706l-2 2c.34-3.22 1.02-4.02 3.5-6.25C412 700 412 700 413 700"/><path fill="#244414" d="M376 600c2 3 2 3 2 5l4-2v18h-2v4h-2v4h-2c-1.25-3.85-1.15-7.69-1.12-11.69v-2.15c.04-5.12.4-10.09 1.12-15.16"/><path fill="#6c8633" d="M540 541c6.45 8.61 6.87 17.41 6 28-.55 2.39-1.25 4.66-2 7h-1v-7h-2v-6h-2z"/><path fill="#747128" d="M489.688 511.688h3.39c8.94.11 17.25 1.14 25.92 3.31-3.91 1.17-6.98.7-11 0v2l-3-1 1-1-1.93.04-2.5.03c-1.24.01-1.24.01-2.5.03-2.07-.1-2.07-.1-3.07-1.1-1.34-.23-2.7-.41-4.06-.56-1.3-.14-2.6-.29-3.94-.44v4l2 2-23-2v-2l5.96-.58c13.53-2.74 13.53-2.74 16.73-2.73"/><path fill="#965d3c" d="M298 790h1c.06.95.12 1.91.18 2.89.09 1.25.17 2.51.26 3.8.08 1.24.16 2.48.24 3.76.26 2.93.67 5.68 1.32 8.55 1.41-2.64 2.37-5.07 3-8 2 1 2 1 2.96 3.33.33.96.65 1.93.98 2.92 1.31 3.93 2.83 7.26 5.06 10.75l-5-1c-.12-.8-.25-1.61-.38-2.44-.2-.84-.41-1.69-.62-2.56l-2-1c.17.78.33 1.57.5 2.38.5 2.62.5 2.62.5 4.62.32 1.67.65 3.34 1 5-5.53-4.76-8.59-10.83-10-18-.28-5.05-.31-10.08 1-15"/><path fill="#be7341" d="M440 750c5.27 2.8 9.59 5.98 14 10l-3 1-1-2-4 2c.34 1.83.34 1.83.69 3.69.38 3.09.35 4.21-.88 7.19-1.83 2.15-3.19 3.12-5.81 4.12-.27-.6-.54-1.2-.81-1.81-1.17-2.16-2.38-3.55-4.19-5.19 2-1 2-1 5.12-.06L443 770c-.44-6.89-1.08-13.36-3-20"/><path fill="#8a9736" d="m325 659 2 5c-.84.22-1.67.44-2.54.66-7.45 2.04-14.5 4.39-21.57 7.5-4.58 1.94-4.58 1.94-7.89.84 19.92-14 19.92-14 30-14"/><path fill="#864728" d="M445.938 744.188c3.12.83 4.83 1.49 7.06 3.81v4h2l-1 5-3 1c-2.41-1.4-2.41-1.4-5.06-3.37-3.34-2.52-3.34-2.52-6.94-4.63.32-1.87.32-1.87 1-4 3-2 3-2 5.94-1.81"/><path fill="#566c3c" d="M534 523c7.53 3.23 13.75 10.6 17 18l-1 3-1-3h-2c-.43-1.18-.43-1.18-.88-2.38-.97-2.72-.97-2.72-3.12-4.62-.15.93-.15.93-.31 1.88C542 538 542 538 539 540c-5-5.75-5-5.75-5-8h2l-1-5-3-1z"/><path fill="#59734b" d="M419 685h1c1.52 7.04 2.23 13.94 2.31 21.12l.06 2.27c-.01 2.12-.01 2.12-.37 5.61l-3 2c-1.21 3.05-1.21 3.05-2 6h-1c-.25-2.4-.48-4.79-.69-7.19-.07-.67-.14-1.34-.22-2.04-.37-4.52.01-7.22 2.91-10.77h2zm-5 25h1v12h-1z"/><path fill="#335017" d="M384 587c1.04 7.07.82 13.48.06 20.56-.1 1.01-.2 2.02-.3 3.06-.25 2.46-.5 4.92-.76 7.38h-1l-1-14-3 1c-1.6-3.51-2.22-6.14-2-10h2v-4h2v-2c3-2 3-2 4-2"/><path fill="#a15d28" d="m338 745 2 3 2-1c-.12 1.7-.12 1.7-1 4-2 1.73-3.91 3.24-6.06 4.75-.57.41-1.14.82-1.72 1.25-1.4 1.01-2.81 2-4.22 3l-5-5c3.52-4.69 3.52-4.69 5-6h4v-3c2-1 2-1 5-1"/><path fill="#6c7625" d="M317 661c-2.78 1.86-5.49 3.24-8.5 4.69-5.25 2.58-10.09 5.51-14.93 8.79-2.78 1.64-5.48 2.6-8.57 3.52.11-1.73.11-1.73 1-4 2.09-1.64 4.06-3.01 6.31-4.38.63-.38 1.25-.77 1.9-1.17 17.11-10.46 17.11-10.46 22.79-7.45"/><path fill="#4c5a1b" d="M216 679h1c.14.76.29 1.53.44 2.31.52 2.77.52 2.77 1.56 5.69h2l1-3q.075 3.405.12 6.81c.03 1.27.05 2.53.08 3.83C222 698 222 698 220 701h-3l-1 2c-1.19-2.38-1.13-3.85-1.13-6.5 0-.89-.01-1.77-.01-2.69.01-.93.01-1.85.02-2.81-.01-.93-.01-1.86-.02-2.81 0-.89.01-1.78.01-2.69v-2.47C215 681 215 681 216 679"/><path fill="#445b1b" d="m384 575 2 3 2-2c1.73 3.46.64 7.28 0 11-1.06 3.06-1.06 3.06-2 5h-2l-1-4-3 1v2h-2v4h-2c2.54-13.93 2.54-13.93 7-18z"/><path fill="#546722" d="M431 601v3h-2c-.28.59-.56 1.17-.84 1.77-1.1 2.11-2.29 3.92-3.69 5.83-.48.66-.96 1.31-1.46 1.99-.5.67-1 1.34-1.51 2.03-.5.69-1 1.37-1.51 2.07-3.72 5.04-3.72 5.04-5.99 7.31v-5l-2-1c1.53-2.07 3.08-4.13 4.62-6.19.43-.58.86-1.15 1.3-1.75C425.53 601 425.53 601 431 601"/><path fill="#797930" d="M373 716h2l1 6h-2v7c3.46-.5 3.46-.5 7-1-.42 5.6-.92 10.72-3 16-2-3-2-3-2-5l-4 1c-.14-8.04.41-15.99 1-24"/><path fill="#a36433" d="M316 769h3c-1.62 4.42-3.87 7.89-6.56 11.72-1.49 2.35-2.48 4.67-3.44 7.28l-2-4c-3.91 1.27-5.79 2.51-8 6 .61-5.49.61-5.49 2.44-7.88C303 781 303 781 305 781q.375-1.14.75-2.31c1.36-2.93 2.57-3.99 5.25-5.69l1 1c.6-.83 1.2-1.65 1.81-2.5 1.09-1.24 1.09-1.24 2.19-2.5"/><path fill="#656f2c" d="m399 552 1 3 6-1c-1.47 3.11-3.2 5.9-5.12 8.75-.81 1.2-.81 1.2-1.64 2.42-.41.61-.82 1.21-1.24 1.83l-3-1c-2.14.39-2.14.39-4 1 0-7 0-7 2.38-9.62C396 555 396 555 398 554z"/><path fill="#304d19" d="M415 710h1l1 11c.27-.97.54-1.94.81-2.94.59-1.51.59-1.51 1.19-3.06l3-1v19l-7-2z"/><path fill="#6c8630" d="M429 604h1c1.21 9.08-2.69 13.9-8 21l-2 3c-.08-3.04.02-5.07 1-8-.62.83-1.24 1.65-1.88 2.5-1.05 1.24-1.05 1.24-2.12 2.5h-2c1.49-4.53 4.06-7.94 7-11.62 3.62-4.6 3.62-4.6 7-9.38"/><path fill="#576e22" d="M415 731c2.94.38 2.94.38 6 1 1 2 1 2 .44 3.88-.29.74-.58 1.48-.88 2.24-1.19 3.3-1.69 5.76-1.44 9.26L419 751c-2.51 1.73-2.51 1.73-5 3-.12-7.74.15-15.31 1-23"/><path fill="#66805f" d="m300 732 12 1v5h9v1c-15.29 2.48-30.55 2.2-46 2v-1c.7-.03 1.4-.05 2.12-.08q4.785-.165 9.57-.36l3.34-.12 3.23-.12c.98-.04 1.96-.08 2.97-.11 2.66-.2 5.16-.63 7.77-1.21v-4z"/><path fill="#bc7045" d="M327 829c3.7.89 7.35 1.95 11 3v2c1.13.12 2.27.25 3.44.38 3.22.35 6.44.73 9.66 1.13.73.09 1.47.18 2.22.28 1.46.18 2.93.36 4.39.55 4.8.59 9.45.74 14.29.66-2.81 2.81-5.66 2.49-9.44 2.69l-2.06.14c-3.17.19-5.46.18-8.5-.83l-3.17.18c-4.83-.23-7.94-1.81-12.14-4.06-1.07-.54-1.07-.54-2.17-1.1-2.82-1.46-5.26-2.76-7.52-5.02"/><path fill="#7a8d31" d="m441 592 2 2c-.14 4.86-2.7 7.28-5.94 10.69-.89.95-1.79 1.9-2.71 2.88-1.44 1.49-2.89 2.97-4.35 4.43-.84-6.71-.84-6.71 1.42-10.17 1.79-2.03 3.64-3.95 5.58-5.83.8-.83 1.61-1.65 2.44-2.5.51-.5 1.03-.99 1.56-1.5"/><path fill="#e5d36a" d="m312 620.75 2.79-.03c.87.01 1.75.01 2.65.01.78.01 1.56.01 2.37.01 2.43.29 4.07 1.05 6.19 2.26-.98.04-1.96.07-2.97.11-8.64.4-16.71 1.45-25.12 3.46-.96.14-1.92.29-2.91.43l-2-2c-1.32-.7-2.65-1.37-4-2 7.69-1.78 15.14-2.22 23-2.25"/><path fill="#4a5c1b" d="M301 614c4.27-.06 8.54-.09 12.81-.12l3.68-.06c1.17 0 2.33-.01 3.53-.02 1.61-.01 1.61-.01 3.25-.03C327 614 327 614 330 616l-4 1v2h2v2l3 1c-1.42.05-2.83.09-4.25.12-.79.03-1.58.05-2.39.08-2.57-.22-4.15-.91-6.36-2.2l2-3c-3.85-1.18-7.76-1.33-11.75-1.56-.7-.05-1.39-.09-2.11-.13-1.72-.11-3.43-.21-5.14-.31z"/><path fill="#70331f" d="m479 788 3 1c1.24 3.72 1.15 7.19 1.12 11.06.01.74.01 1.47.02 2.22-.01 5.47-.01 5.47-1.14 7.72h-3v-10l-2 2c-.25-1.43-.47-2.87-.69-4.31-.13-.8-.25-1.6-.38-2.43.07-2.26.07-2.26 1.55-3.93.5-.44 1-.88 1.52-1.33z"/><path fill="#636a20" d="M488 513c5.53-.19 9.76.25 15 2l-4 2c3.16 2.11 4.51 2.34 8.19 2.62.9.08 1.8.15 2.73.23.69.05 1.37.1 2.08.15-3.43 2.28-4.17 2.17-8.11 1.76-.98-.1-1.96-.2-2.97-.3-1.03-.11-2.05-.22-3.11-.34-1.03-.1-2.07-.2-3.14-.31-2.56-.26-5.11-.53-7.67-.81l1-2-3-2h3z"/><path fill="#ecd56d" d="M222 684h2c.19.77.39 1.54.59 2.34l.79 3.04c.25.99.51 1.99.77 3.02.67 2.73.67 2.73 2.85 4.6-.02 2.6-.02 2.6-.38 5.62-.11 1.01-.22 2.01-.33 3.04-.1.77-.19 1.55-.29 2.34-4.54-4.09-5.84-9.27-6.19-15.26 0-2.92.06-5.82.19-8.74"/><path fill="#798e35" d="M328 622c2.4.43 4.79.86 7.19 1.31.67.12 1.34.24 2.04.36 4.15.79 7.29 1.92 10.77 4.33l-5 5c-.6-.56-1.2-1.11-1.81-1.69-4.4-3.19-9.21-5.18-14.19-7.31z"/><path fill="#915229" d="M422 733c2.48.99 2.48.99 5 2v2l4 1 1 7-10-3z"/><path fill="#1e4315" d="M470 657c-3.46 1.49-3.46 1.49-7 3l2 2-1 2 2 1c-4.43 2.09-4.43 2.09-7.31 1.62-.56-.2-1.12-.41-1.69-.62l2-1v-2l-5 2v-3l-2-1c2.43-.87 4.87-1.72 7.31-2.56.69-.25 1.38-.5 2.09-.75 5.26-1.8 5.26-1.8 8.6-.69"/><path fill="#f8c163" d="m358.063 794.938 2.94.06c.62 3.38.62 3.38 1 7-2 2-2 2-5.06 2.19-2.94-.19-2.94-.19-3.94-1.19.85-7.97.85-7.97 5.06-8.06"/><path fill="#435a1c" d="m534 523-1 3 2 1v2l2 1-3 3c-1.3-.74-2.59-1.49-3.88-2.25-.71-.42-1.43-.84-2.17-1.27-2.16-1.64-2.94-3-3.95-5.48 3.58-2.34 5.92-1.93 10-1"/><path fill="#768c31" d="M407 752h2c-.26 1.9-.53 3.79-.81 5.69-.15 1.05-.3 2.11-.46 3.2-.76 3.26-1.93 5.31-3.73 8.11q-1.155 2.64-2.19 5.31c-.34.89-.69 1.77-1.04 2.68L400 779h-2c2.21-9.26 5.28-18.24 9-27"/><path fill="#6e8634" d="M232 714c5.11-.64 8.67 1.59 13 4v4l7 1 1 3c-7.16-.16-12.42-3.71-18-8-1.83-2.23-1.83-2.23-3-4"/><path fill="#6d8f36" d="m368 662 4 2c.4 8.69.65 17.63-5.19 24.62-.89.69-.89.69-1.81 1.38.42-2.52.8-4.63 2.03-6.89 1.11-2.41 1.2-4.01 1.17-6.66-.01-.84-.02-1.69-.02-2.56l-.06-2.64c0-.89-.01-1.78-.02-2.69-.03-2.19-.06-4.37-.1-6.56"/><path fill="#829581" d="m486 655 3 1c-4.12 3.28-8.48 5.1-13.31 7.12-.83.36-1.66.72-2.52 1.09-4.77 2.02-9 3.33-14.17 3.79 2.46-2.46 4.71-3 8-4v-3l8-1v-1h7v-2h4z"/><path fill="#7e7a2c" d="M473 517c4.83-.08 9.24.05 14 1v2h12v1h-26l-1-2z"/><path fill="#7c9435" d="M407 709c1 4.95 1.13 9.66 1.1 14.68 0 .81-.01 1.63-.01 2.46q0 3.87-.03 7.74c0 1.75-.01 3.51-.01 5.26-.01 4.29-.03 8.57-.05 12.86-.99.5-.99.5-2 1 .01-1.07.01-2.14.02-3.24.01-3.97.03-7.95.03-11.92l.03-5.16c.01-2.47.01-4.94.02-7.41 0-.77.01-1.54.01-2.33 0-5.05 0-5.05-1.11-9.94l-2-1c2.88-3 2.88-3 4-3"/><path fill="#616f34" d="M222 696c2.08 3.85 3.5 7.9 5 12-.99.5-.99.5-2 1l-3-4-4 1 1 5-2-1c-1.29-6.43-1.29-6.43 0-9h3z"/><path fill="#b3b899" d="M478 512c14.02-.33 27.33-.42 41 3-3.92 1.17-6.98.7-11 0v2l-3-1 1-1-1.93.04c-.83 0-1.66.01-2.51.02l-2.49.04C497 515 497 515 496 514c-1.34-.16-2.69-.25-4.04-.32a1025 1025 0 0 0-5.02-.24c-.86-.05-1.71-.09-2.59-.13-2.12-.11-4.23-.21-6.35-.31z"/><path fill="#768657" d="M519 516c5.85.45 10.08 3.04 15 6-2 1-2 1-5.56 1.44-1.7.28-1.7.28-3.44.56l-1 2 3 1c-.99.5-.99.5-2 1l-3-2v-2h-2c0-2 0-2 1.5-3.62L523 519h-3z"/><path fill="#6b6f26" d="M421 734h1c.18 19 .18 19-1 27h-1c-2.85-19-2.85-19 1-27"/><path fill="#995324" d="m307 783 2 2c-.43 1.91-.88 3.81-1.42 5.69-.94 3.72-1.24 7.5-1.58 11.31h-1c-1.51-5.81-2.22-11-2-17z"/><path fill="#748c30" d="M382 719c4.38.52 8.69 1.06 13 2-4.43 5.78-4.43 5.78-7.31 6.88L386 728l-.88-3.38c-.81-3.62-.81-3.62-3.12-5.62"/><path fill="#7b8e77" d="m342 732 1 2c-2.35.68-4.71 1.34-7.06 2-.99.29-.99.29-1.99.58-5.15 1.42-10.28 2.51-15.39.42-.51-.33-1.03-.66-1.56-1l1-2c2.29-.41 2.29-.41 5.06-.62.92-.08 1.84-.15 2.79-.23L328 733v2c6.93-1.49 6.93-1.49 14-3"/><path fill="#55621f" d="M216 679h1c.14.76.29 1.53.44 2.31.52 2.77.52 2.77 1.56 5.69h2v8l-3-1-1 3c-1.99-1.99-1.45-5.71-1.62-8.44-.06-.69-.11-1.39-.16-2.1-.34-5.21-.34-5.21.78-7.46"/><path fill="#627f34" d="m544 553 2 1c.05 2.35.09 4.71.12 7.06.03 1.31.05 2.62.08 3.98-.21 4.08-.93 7.11-2.2 10.96h-1v-7h-2c.46-1.18.46-1.18.94-2.38 1.32-4.52 1.71-8.93 2.06-13.62"/><path fill="#869e3c" d="M539 540h1c.27 12.66-.04 24.83-4 37-1.19-1.56-1.19-1.56-2-4 .73-1.69 1.47-3.39 2.27-5.05 1.01-2.69.82-5.23.7-8.06.04-4.03.54-7.96 1.03-11.95.1-.78.19-1.55.29-2.35.23-1.86.47-3.73.71-5.59"/><path fill="#e9dd70" d="M518 525c4.75.58 7.97 2.55 12 5-3.74 1.17-6.17.49-9.94-.45-6.92-1.24-14.05-1.26-21.06-1.55v-1h19z"/><path fill="#779a3c" d="M428 641h31c-8.89 5.93-21.15 2.75-31 1z"/><path fill="#809c3c" d="m409 609 2 1c-3.62 5.75-3.62 5.75-7 8-7.15.68-7.15.68-10.5-2-.5-.66-.99-1.32-1.5-2 2.78 0 5.42.21 8.19.5.9.09 1.8.19 2.73.28.69.07 1.37.15 2.08.22v-2h2v-2h2z"/><path fill="#809137" d="m386 589 1 4h2v12l-1-2-4 1c-.19-5.53.25-9.76 2-15"/><path fill="#3a521a" d="M222 710h7l2 4c-.99 1.49-.99 1.49-2 3v4h-2c-.31-.78-.62-1.57-.94-2.38-.99-2.54-.99-2.54-2.06-4.62l-3-1z"/><path fill="#73855b" d="m380 580 4 3-1 5-3 1v2h-2v4h-2c1.93-10.56 1.93-10.56 4-15"/><path fill="#919562" d="m409 540 2 1c-1.14 1.33-1.14 1.33-2.31 2.69-1.69 2-3.02 3.86-4.38 6.12C403 552 403 552 401 553l-1 2h-1c-1.34.32-2.67.66-4 1 1.66-4.33 4.87-7.09 8.12-10.25.57-.55 1.13-1.11 1.71-1.68 1.39-1.36 2.78-2.72 4.17-4.07"/><path fill="#afaa79" d="m475 513 2 2h-10v2h3v2h-8l1-2h-8c5.88-3.23 13.32-4.67 20-4"/><path fill="#4a6221" d="M418 612h2c-.43 5.42-1.65 8.7-5 13h-1v-5l-2-1c.95-1.17 1.91-2.34 2.88-3.5.53-.65 1.06-1.3 1.61-1.97z"/><path fill="#aab49b" d="M327 614c5.52-.22 10.28.54 15.62 1.88.74.17 1.48.34 2.24.52 3.86.94 7.49 2 11.14 3.6-3.46 1.15-4.13.81-7.44-.38-5-1.62-9.66-2.05-14.9-2.21-3.01-.46-4.41-1.4-6.66-3.41"/><path fill="#e9da68" d="m392 575 1 2h3c-1.57 4.31-3.68 8.06-6 12h-1c-.35-5.65.57-9.03 3-14"/><path fill="#607448" d="M534 523c3.22 1.41 5.32 3.1 7.75 5.62l1.86 1.92c.69.72.69.72 1.39 1.46-3 1-3 1-5 1l-1-3c-.99.5-.99.5-2 1v-2h-2v-2l-3-1z"/><path fill="#596c23" d="M327 655c-.62 1.88-.62 1.88-2 4-4.08 1.85-7.55 2.21-12 2l1-3c2.43-1.2 2.43-1.2 5.44-2.25.99-.36 1.97-.71 2.99-1.08C325 654 325 654 327 655"/><path fill="#b78b6c" d="M311 766c.61 1.82.61 1.82 1 4-1.75 2.94-1.75 2.94-4 6-.77 1.39-.77 1.39-1.56 2.81C305 781 305 781 302 782c1.48-6.26 5.24-10.92 9-16"/><path fill="#798d34" d="m325 659 2 5c-8.19 1.45-8.19 1.45-11.56-.44-.48-.51-.95-1.03-1.44-1.56 1.27-.51 2.54-1 3.81-1.5.71-.28 1.42-.56 2.15-.84C322 659 322 659 325 659"/><path fill="#a9b444" d="m480 567 2 1c-2.23 3.35-3.8 4.21-7.31 6.06-.95.51-1.89 1.02-2.87 1.54A89 89 0 0 1 464 579c4.56-5 9.94-8.97 16-12"/><path fill="#939e75" d="M389 563c.59 1.89.59 1.89 1 4-1.44 1.69-1.44 1.69-3 3v1l3 1c-2.83 2.93-5.79 5.5-9 8 1.81-6.34 4.26-11.57 8-17"/><path fill="#bd713d" d="M413 795c4.31.48 6.17 1.75 9 5l-1 3-2-1v-2l-16-2v-1h10z"/><path fill="#803d22" d="M449 748c1.98.5 1.98.5 4 1v3h2l-1 5-3 1-3-2v-4h3z"/><path fill="#ce8549" d="m313 799 2 1c-.5 1.42-.5 1.42-1 2.88-1.1 2.89-1.1 2.89-1 5.12l3 1v2l-2 2-1 3c-2-2-2-2-2.27-4.71.01-1.07.01-2.13.02-3.23-.01-1.06-.01-2.12-.02-3.21C311 802 311 802 313 799"/><path fill="#8e5136" d="M449 746c2.12.94 2.12.94 4 2-.99.5-.99.5-2 1l-2-1 3 5-4-1-1 3-5-5h3l1 1c.19-.96.19-.96.38-1.94.2-.68.41-1.36.62-2.06z"/><path fill="#618331" d="M372 666h2c1.47 6.89.78 11.05-3 17-1.26-3.79-.68-6.26-.06-10.19.19-1.27.39-2.54.59-3.85.15-.98.31-1.95.47-2.96"/><path fill="#515e28" d="M301 614h26l-4 1-1 3c-2.97-.5-2.97-.5-6-1v-1l-15-1z"/><path fill="#ad8b7b" d="M324 834c.9.99.9.99 1.81 2 2.07 2.34 2.07 2.34 5.19 2l3 2v2l3 1c-3 1-3 1-5.66-.14-.98-.55-1.96-1.11-2.96-1.67-.99-.55-1.97-1.09-2.98-1.65C323 838 323 838 322 836h2z"/><path fill="#8d9c39" d="M394 771h2l-2 6h-2v2h-10c3-2 6.01-3.48 9.26-5 1.91-.89 1.91-.89 2.74-3"/><path fill="#9dad97" d="M551 544c2.84 4.26 3.13 7.36 3.1 12.42-.01 1.03-.01 2.05-.01 3.11l-.03 3.22c0 1.08-.01 2.16-.01 3.27-.01 2.66-.03 5.32-.05 7.98h-1c-.06-1.18-.12-2.36-.18-3.58-.09-1.56-.17-3.11-.26-4.67-.04-.78-.08-1.55-.12-2.36-.04-.75-.08-1.5-.12-2.28-.04-.69-.08-1.38-.11-2.1-.22-2.08-.69-3.99-1.21-6.01-.07-1.58-.09-3.17-.06-4.75.01-.8.02-1.6.02-2.42.02-.61.03-1.21.04-1.83"/><path fill="#919a36" d="M298 662v3h-2l-.06 1.75c-1.52 3.63-4.5 4.5-7.94 6.25.58-3.57 1.87-5.25 4.44-7.75.61-.61 1.23-1.23 1.87-1.86C296 662 296 662 298 662"/><path fill="#224614" d="m537 595 1 2c-1.77 4.22-4.16 7.76-6.91 11.39-1.28 1.74-1.28 1.74-2.09 4.61-2.06.69-2.06.69-4 1 .45-.7.89-1.4 1.36-2.12 3.57-5.61 7.12-11.23 10.64-16.88"/><path fill="#c6a796" d="M298 790h1l1 22c-4.03-6.05-3.62-13.12-2.5-20.12.17-.62.33-1.24.5-1.88"/></svg>