<?xml version="1.0" encoding="UTF-8"?>
<!-- Generator: visioncortex VTracer 0.6.4 -->
<svg version="1.1" xmlns="http://www.w3.org/2000/svg" width="768" height="1024">
<path d="M0 0 C2.64 3.13 2.93 6.05 2.69 10 C1.07 17.84 -2.17 25.18 -5.19 32.56 C-12.4 50.28 -16.6 68.28 -20.31 87 C-23.71 104.05 -27.59 120.58 -33.31 137 C-33.69 138.11 -34.08 139.22 -34.47 140.36 C-38.49 151.99 -42.57 163.57 -47.44 174.88 C-56.47 195.88 -64.68 218.15 -67.31 241 C-62.83 238.76 -61.39 236.8 -58.44 232.81 C-57.11 231.05 -57.11 231.05 -55.77 229.26 C-54.96 228.19 -54.15 227.11 -53.31 226 C-49.14 220.69 -44.47 216.32 -39.31 212 C-38.55 211.31 -37.78 210.62 -36.99 209.91 C-28.87 202.84 -19.82 197.93 -10.31 193 C-9.34 192.48 -8.38 191.97 -7.38 191.43 C16.17 179.72 54.59 174.85 79.47 184.46 C82.71 186.01 84.6 187.08 86.69 190 C87.51 193.28 87.26 195.08 85.46 197.95 C75.91 209.79 59.54 215.02 45.94 220.95 C21.98 231.43 -3.52 244.96 -21.61 264.23 C-23.34 266.02 -25.15 267.59 -27.06 269.19 C-48.26 287.62 -65.01 312.99 -75.31 339 C-75.75 340.09 -76.18 341.17 -76.62 342.29 C-82.92 360.2 -82.06 379.12 -77.12 397.19 C-74.92 405.6 -74.08 413.53 -78.06 421.5 C-87.94 432.47 -95.22 435.65 -109.88 435.3 C-119.72 434.63 -126.29 430.82 -132.31 423 C-137.93 413.62 -135.54 402.53 -133.75 392.25 C-131.17 377.21 -133.38 365.08 -143.45 353.15 C-144.07 352.44 -144.68 351.73 -145.31 351 C-145.88 350.25 -146.46 349.5 -147.05 348.73 C-155.26 338.44 -168.58 331.19 -181.85 330.62 C-191.83 330.72 -201.63 334.14 -211.19 336.73 C-234.41 342.95 -234.41 342.95 -245.31 341 C-249.05 337.99 -250.18 336.01 -250.81 331.25 C-250.57 317.76 -239.63 306.62 -230.25 298.13 C-216.27 286.89 -199.02 282.94 -181.56 286.06 C-171.52 288.38 -162.1 292.91 -154.25 299.64 C-151.48 301.59 -148.44 302.73 -145.31 304 C-156.47 270.59 -172.39 239.89 -193.62 211.7 C-204.28 197.31 -212.91 181.37 -221.35 165.62 C-235.75 138.75 -250.75 116.21 -272.61 94.79 C-273.96 93.46 -273.96 93.46 -275.35 92.1 C-277.12 90.36 -278.91 88.63 -280.7 86.91 C-290.4 77.43 -290.4 77.43 -290.25 69.75 C-289.14 66.48 -288.22 65.77 -285.31 64 C-255.54 58.13 -215.79 84.44 -193.12 100.74 C-191.18 102.12 -191.18 102.12 -188.5 103.64 C-186.14 105.11 -184.69 106.61 -182.94 108.75 C-180.73 111.38 -178.58 113.69 -176.06 116.06 C-166.55 125.45 -159.31 137.73 -152.31 149 C-151.69 150 -151.06 151 -150.42 152.03 C-146.31 158.72 -146.31 158.72 -146.31 161 C-145.65 161 -144.99 161 -144.31 161 C-145.17 153.07 -146.26 145.21 -147.59 137.35 C-147.94 135.31 -147.94 135.31 -148.29 133.23 C-148.76 130.48 -149.24 127.74 -149.72 125.01 C-150.9 118.05 -151.85 111.94 -150.31 105 C-147.31 102 -147.31 102 -143.94 101.56 C-138.85 102.18 -136.48 104.43 -133.46 108.5 C-129.25 115.49 -125.31 122.6 -121.5 129.81 C-121.03 130.7 -120.56 131.58 -120.08 132.49 C-117.44 137.56 -115.2 142.6 -113.31 148 C-110.95 141.92 -108.91 135.75 -106.9 129.54 C-98.3 103.13 -87.3 80.07 -70.31 58 C-66.17 52.87 -66.17 52.87 -63.31 47 C-61.31 45.33 -59.31 43.67 -57.31 42 C-54.89 39.41 -52.61 36.7 -50.31 34 C-45.89 28.83 -41.43 24.05 -36.22 19.67 C-34.42 18.09 -32.82 16.44 -31.19 14.69 C-23.96 7.33 -11.01 -4.76 0 0 Z " fill="#6D8A3A" transform="translate(503.3125,420)"/>
<path d="M0 0 C2.64 3.13 2.93 6.05 2.69 10 C1.07 17.84 -2.17 25.18 -5.19 32.56 C-12.4 50.28 -16.6 68.28 -20.31 87 C-25.49 112.97 -33.19 137.17 -42.31 162 C-44.58 157.47 -44.24 155.82 -43.31 151 C-42.65 151 -41.99 151 -41.31 151 C-41.29 148.88 -41.27 146.75 -41.25 144.62 C-41.24 143.44 -41.23 142.26 -41.21 141.04 C-41.1 138.08 -41.1 138.08 -42.31 136 C-43.3 138.97 -44.29 141.94 -45.31 145 C-45.97 145 -46.63 145 -47.31 145 C-47.52 146.42 -47.73 147.85 -47.94 149.31 C-49.2 155.61 -52.04 160.54 -55.31 166 C-56.48 168 -57.65 170 -58.81 172 C-59.4 173 -59.99 174 -60.59 175.03 C-63.72 180.43 -66.71 185.92 -69.6 191.46 C-74.23 200.24 -79.59 208.58 -84.97 216.91 C-86.15 218.74 -87.29 220.59 -88.43 222.45 C-90.31 225 -90.31 225 -94.31 227 C-96.03 228.95 -97.71 230.95 -99.31 233 C-100.68 228.89 -99.36 227.57 -97.38 223.81 C-96.81 222.73 -96.24 221.64 -95.66 220.52 C-94.99 219.27 -94.99 219.27 -94.31 218 C-95.3 218.99 -96.29 219.98 -97.31 221 C-98.3 221 -99.29 221 -100.31 221 C-100.27 219.7 -100.23 218.4 -100.19 217.06 C-100.23 215.72 -100.27 214.38 -100.31 213 C-100.97 212.67 -101.63 212.34 -102.31 212 C-102.7 209.34 -103.03 206.67 -103.31 204 C-104.07 200.98 -104.87 198 -105.72 195.02 C-105.99 194.08 -106.26 193.15 -106.53 192.18 C-106.95 190.73 -106.95 190.73 -107.38 189.25 C-107.8 187.77 -107.8 187.77 -108.23 186.27 C-108.92 183.85 -109.62 181.42 -110.31 179 C-110.97 179 -111.63 179 -112.31 179 C-112.81 176.52 -112.81 176.52 -113.31 174 C-112.98 174.66 -112.65 175.32 -112.31 176 C-112.09 172.7 -112.09 172.7 -114.31 169 C-114.64 169.66 -114.97 170.32 -115.31 171 C-117.88 171.62 -117.88 171.62 -120.31 172 C-120.58 171.34 -120.85 170.68 -121.12 170 C-122.33 167.02 -123.54 164.04 -124.75 161.06 C-125.17 160.02 -125.59 158.98 -126.03 157.91 C-126.63 156.42 -126.63 156.42 -127.25 154.91 C-127.8 153.54 -127.8 153.54 -128.37 152.13 C-129.13 150.06 -129.13 150.06 -130.31 149 C-128.98 160.12 -128.98 160.12 -127.31 171.19 C-124.39 190.33 -124.29 208.67 -125.31 228 C-125.64 228 -125.97 228 -126.31 228 C-126.44 227 -126.44 227 -126.57 225.97 C-127.46 219.01 -128.35 212.05 -129.25 205.09 C-129.58 202.5 -129.91 199.9 -130.25 197.3 C-130.72 193.57 -131.2 189.84 -131.68 186.11 C-131.83 184.94 -131.98 183.77 -132.13 182.57 C-132.27 181.49 -132.41 180.41 -132.56 179.3 C-132.68 178.34 -132.8 177.39 -132.93 176.41 C-133.27 173.87 -133.27 173.87 -134.31 171 C-135.96 171 -137.61 171 -139.31 171 C-139.31 171.66 -139.31 172.32 -139.31 173 C-139.97 173 -140.63 173 -141.31 173 C-142.6 170.88 -142.6 170.88 -143.94 168.12 C-144.38 167.22 -144.83 166.32 -145.29 165.38 C-146.31 163 -146.31 163 -146.31 161 C-145.65 161 -144.99 161 -144.31 161 C-145.17 153.07 -146.26 145.21 -147.59 137.35 C-147.82 135.99 -148.05 134.63 -148.29 133.23 C-148.76 130.48 -149.24 127.74 -149.72 125.01 C-150.9 118.05 -151.85 111.94 -150.31 105 C-147.31 102 -147.31 102 -143.94 101.56 C-138.85 102.18 -136.48 104.43 -133.46 108.5 C-129.25 115.49 -125.31 122.6 -121.5 129.81 C-121.03 130.7 -120.56 131.58 -120.08 132.49 C-117.44 137.56 -115.2 142.6 -113.31 148 C-110.95 141.92 -108.91 135.75 -106.9 129.54 C-98.3 103.13 -87.3 80.07 -70.31 58 C-66.17 52.87 -66.17 52.87 -63.31 47 C-61.31 45.33 -59.31 43.67 -57.31 42 C-54.89 39.41 -52.61 36.7 -50.31 34 C-45.89 28.83 -41.43 24.05 -36.22 19.67 C-34.42 18.09 -32.82 16.44 -31.19 14.69 C-23.96 7.33 -11.01 -4.76 0 0 Z " fill="#93A845" transform="translate(503.3125,420)"/>
<path d="M0 0 C-2.38 4.77 -4.28 5.72 -9 8 C-10.32 8 -11.64 8 -13 8 C-13 8.66 -13 9.32 -13 10 C-15.82 13.45 -17.72 14.21 -22 15 C-22.66 15.99 -23.32 16.98 -24 18 C-26.32 19.35 -28.66 20.68 -31 22 C-33.07 23.5 -35.09 25.05 -37.11 26.63 C-39 28 -39 28 -43 30 C-44.64 31.48 -44.64 31.48 -46.19 33.19 C-48.66 35.76 -51.19 37.96 -54.06 40.08 C-59.76 44.46 -64.76 49.46 -69.81 54.56 C-70.74 55.48 -71.67 56.4 -72.62 57.35 C-73.52 58.25 -74.41 59.14 -75.33 60.07 C-76.13 60.87 -76.94 61.67 -77.76 62.5 C-80.16 65.18 -82.06 67.98 -84 71 C-85.5 72.89 -87.02 74.77 -88.56 76.62 C-93.6 81.74 -93.6 81.74 -96 88 C-95.34 88.33 -94.68 88.66 -94 89 C-94 89.66 -94 90.32 -94 91 C-93.34 91 -92.68 91 -92 91 C-92 90.34 -92 89.68 -92 89 C-91.34 89 -90.68 89 -90 89 C-90.53 94.1 -93.15 98.04 -95.69 102.38 C-110.11 127.73 -115.67 153.72 -107.81 182.19 C-105.6 190.6 -104.77 198.53 -108.75 206.5 C-118.63 217.47 -125.91 220.65 -140.57 220.3 C-150.4 219.63 -156.98 215.82 -163 208 C-168.61 198.62 -166.23 187.53 -164.44 177.25 C-161.86 162.21 -164.06 150.08 -174.14 138.15 C-174.75 137.44 -175.37 136.73 -176 136 C-176.57 135.25 -177.14 134.5 -177.73 133.73 C-186.29 123.02 -199.84 116.05 -213.56 115.69 C-217.73 115.8 -221.48 116.51 -225.52 117.55 C-230.62 118.47 -235.84 118.14 -241 118 C-240.69 115.07 -240.69 115.07 -240 112 C-236.94 110.81 -236.94 110.81 -233 110 C-231.06 109.26 -229.12 108.52 -227.18 107.77 C-223.66 106.53 -220.07 105.71 -216.44 104.88 C-214.3 104.38 -214.3 104.38 -212.12 103.87 C-192.28 99.69 -169.86 99.54 -153 112 C-145.44 118.75 -137.23 126.21 -134.38 136.19 C-134.11 137.09 -133.85 137.99 -133.59 138.92 C-133.39 139.61 -133.2 140.29 -133 141 C-132.26 129.94 -135.94 121.09 -142 112 C-141.98 108.43 -141.98 108.43 -141.62 104.31 C-141.51 102.95 -141.4 101.58 -141.29 100.18 C-141.19 99.13 -141.1 98.08 -141 97 C-140.34 97 -139.68 97 -139 97 C-138.9 96.2 -138.79 95.39 -138.69 94.56 C-137.84 90.19 -136.46 86.2 -135 82 C-134.34 82 -133.68 82 -133 82 C-132.67 80.02 -132.34 78.04 -132 76 C-131.34 76 -130.68 76 -130 76 C-129.67 75.34 -129.34 74.68 -129 74 C-128.34 74.66 -127.68 75.32 -127 76 C-122.71 71.27 -118.55 66.48 -114.56 61.5 C-100.9 44.8 -83.86 33.16 -65 23 C-63.35 22.11 -63.35 22.11 -61.66 21.2 C-51.04 15.69 -39.94 11.44 -28.48 8.07 C-23.53 6.55 -18.68 4.79 -13.82 3.02 C-9.15 1.33 -4.98 0 0 0 Z " fill="#5E6E31" transform="translate(534,635)"/>
<path d="M0 0 C2.64 3.13 2.93 6.05 2.69 10 C1.07 17.84 -2.17 25.18 -5.19 32.56 C-12.4 50.28 -16.6 68.28 -20.31 87 C-25.49 112.97 -33.19 137.17 -42.31 162 C-44.58 157.47 -44.24 155.82 -43.31 151 C-42.65 151 -41.99 151 -41.31 151 C-41.26 148.92 -41.22 146.83 -41.19 144.75 C-41.16 143.59 -41.14 142.43 -41.12 141.23 C-41.12 137.74 -41.12 137.74 -43.31 134 C-42.53 130.94 -41.66 128.14 -40.56 125.19 C-40 123.62 -39.45 122.05 -38.89 120.48 C-38.48 119.34 -38.48 119.34 -38.07 118.18 C-36.06 112.4 -35.02 107.12 -34.66 101.04 C-34.54 100.37 -34.43 99.69 -34.31 99 C-33.65 98.67 -32.99 98.34 -32.31 98 C-31.91 95.68 -31.57 93.34 -31.31 91 C-34.63 93.8 -34.63 93.8 -35.31 98 C-35.97 98 -36.63 98 -37.31 98 C-36.73 91.19 -35.74 84.68 -34.31 78 C-33.98 78.66 -33.65 79.32 -33.31 80 C-32.65 80 -31.99 80 -31.31 80 C-30.82 78.02 -30.82 78.02 -30.31 76 C-29.65 76 -28.99 76 -28.31 76 C-27.66 73.13 -27.02 70.25 -26.38 67.38 C-26.19 66.57 -26.01 65.76 -25.82 64.93 C-24.86 60.63 -23.98 56.35 -23.31 52 C-22.65 52 -21.99 52 -21.31 52 C-21.35 51.28 -21.39 50.55 -21.43 49.81 C-21.3 46.76 -20.61 44.84 -19.38 42.06 C-18.18 39.25 -17.31 36.97 -16.81 33.94 C-16.09 29.7 -14.5 25.71 -12.31 22 C-11.65 22 -10.99 22 -10.31 22 C-10.64 19.69 -10.97 17.38 -11.31 15 C-10.32 15 -9.33 15 -8.31 15 C-8.31 13.68 -8.31 12.36 -8.31 11 C-9.36 12.05 -9.36 12.05 -10.43 13.12 C-12.38 15.07 -14.35 17.01 -16.32 18.94 C-17.35 19.95 -18.38 20.96 -19.44 22 C-20.47 23.01 -21.51 24.02 -22.57 25.06 C-24.99 27.65 -26.52 29.99 -28.31 33 C-29.98 34.73 -31.69 36.41 -33.44 38.06 C-38.31 42.83 -42.39 47.82 -46.38 53.34 C-47.9 55.43 -49.53 57.45 -51.19 59.44 C-53.33 61.89 -53.33 61.89 -54.75 64.44 C-56.45 67.23 -58.48 69.59 -60.63 72.04 C-65.25 77.42 -69.2 82.61 -72.31 89 C-72.97 89 -73.63 89 -74.31 89 C-75.3 90.98 -75.3 90.98 -76.31 93 C-76.92 94.19 -77.53 95.38 -78.15 96.61 C-78.85 97.99 -79.55 99.37 -80.25 100.75 C-80.6 101.43 -80.94 102.11 -81.3 102.8 C-83.08 106.32 -84.64 109.79 -85.94 113.52 C-86.39 114.67 -86.85 115.82 -87.31 117 C-87.97 117 -88.63 117 -89.31 117 C-89.41 117.68 -89.51 118.36 -89.61 119.05 C-90.48 122.7 -91.98 125.75 -93.62 129.12 C-96.25 134.61 -98.56 140.06 -100.49 145.83 C-101.31 148 -101.31 148 -103.31 151 C-106.55 160.16 -106.55 160.16 -107.31 169.75 C-107.31 170.82 -107.31 171.89 -107.31 173 C-109.29 173.99 -109.29 173.99 -111.31 175 C-112.3 173.02 -113.29 171.04 -114.31 169 C-114.64 169.66 -114.97 170.32 -115.31 171 C-117.88 171.62 -117.88 171.62 -120.31 172 C-120.58 171.34 -120.85 170.68 -121.12 170 C-122.33 167.02 -123.54 164.04 -124.75 161.06 C-125.17 160.02 -125.59 158.98 -126.03 157.91 C-126.63 156.42 -126.63 156.42 -127.25 154.91 C-127.8 153.54 -127.8 153.54 -128.37 152.13 C-129.13 150.06 -129.13 150.06 -130.31 149 C-128.98 160.12 -128.98 160.12 -127.31 171.19 C-124.39 190.33 -124.29 208.67 -125.31 228 C-125.64 228 -125.97 228 -126.31 228 C-126.44 227 -126.44 227 -126.57 225.97 C-127.46 219.01 -128.35 212.05 -129.25 205.09 C-129.58 202.5 -129.91 199.9 -130.25 197.3 C-130.72 193.57 -131.2 189.84 -131.68 186.11 C-131.83 184.94 -131.98 183.77 -132.13 182.57 C-132.27 181.49 -132.41 180.41 -132.56 179.3 C-132.68 178.34 -132.8 177.39 -132.93 176.41 C-133.27 173.87 -133.27 173.87 -134.31 171 C-135.96 171 -137.61 171 -139.31 171 C-139.31 171.66 -139.31 172.32 -139.31 173 C-139.97 173 -140.63 173 -141.31 173 C-142.6 170.88 -142.6 170.88 -143.94 168.12 C-144.38 167.22 -144.83 166.32 -145.29 165.38 C-146.31 163 -146.31 163 -146.31 161 C-145.65 161 -144.99 161 -144.31 161 C-145.17 153.07 -146.26 145.21 -147.59 137.35 C-147.82 135.99 -148.05 134.63 -148.29 133.23 C-148.76 130.48 -149.24 127.74 -149.72 125.01 C-150.9 118.05 -151.85 111.94 -150.31 105 C-147.31 102 -147.31 102 -143.94 101.56 C-138.85 102.18 -136.48 104.43 -133.46 108.5 C-129.25 115.49 -125.31 122.6 -121.5 129.81 C-121.03 130.7 -120.56 131.58 -120.08 132.49 C-117.44 137.56 -115.2 142.6 -113.31 148 C-110.95 141.92 -108.91 135.75 -106.9 129.54 C-98.3 103.13 -87.3 80.07 -70.31 58 C-66.17 52.87 -66.17 52.87 -63.31 47 C-61.31 45.33 -59.31 43.67 -57.31 42 C-54.89 39.41 -52.61 36.7 -50.31 34 C-45.89 28.83 -41.43 24.05 -36.22 19.67 C-34.42 18.09 -32.82 16.44 -31.19 14.69 C-23.96 7.33 -11.01 -4.76 0 0 Z " fill="#AE9E52" transform="translate(503.3125,420)"/>
<path d="M0 0 C1.65 0.33 3.3 0.66 5 1 C5 1.66 5 2.32 5 3 C5.66 3 6.32 3 7 3 C7 2.34 7 1.68 7 1 C7.66 1 8.32 1 9 1 C8.47 6.1 5.85 10.04 3.31 14.38 C-11.11 39.73 -16.67 65.72 -8.81 94.19 C-6.6 102.6 -5.77 110.53 -9.75 118.5 C-19.63 129.47 -26.91 132.65 -41.57 132.3 C-51.4 131.63 -57.98 127.82 -64 120 C-69.61 110.62 -67.23 99.53 -65.44 89.25 C-62.86 74.21 -65.06 62.08 -75.14 50.15 C-75.75 49.44 -76.37 48.73 -77 48 C-77.57 47.25 -78.14 46.5 -78.73 45.73 C-87.29 35.02 -100.84 28.05 -114.56 27.69 C-118.73 27.8 -122.48 28.51 -126.52 29.55 C-131.62 30.47 -136.84 30.14 -142 30 C-141.69 27.07 -141.69 27.07 -141 24 C-137.94 22.81 -137.94 22.81 -134 22 C-132.06 21.26 -130.12 20.52 -128.18 19.77 C-124.66 18.53 -121.07 17.71 -117.44 16.88 C-116.01 16.54 -114.59 16.21 -113.12 15.87 C-93.28 11.69 -70.86 11.54 -54 24 C-46.55 30.65 -38.26 38.1 -35.44 47.94 C-35.19 48.79 -34.94 49.65 -34.68 50.53 C-32.63 57.94 -32.63 57.94 -35 62 C-36.32 62 -37.64 62 -39 62 C-39.33 63.32 -39.66 64.64 -40 66 C-40.66 66 -41.32 66 -42 66 C-42 66.66 -42 67.32 -42 68 C-42.66 68 -43.32 68 -44 68 C-44.99 69.98 -44.99 69.98 -46 72 C-47.15 72.32 -48.29 72.63 -49.48 72.96 C-53.71 75.41 -53.65 76.05 -54.52 80.66 C-54.84 82.98 -55.12 85.3 -55.38 87.62 C-55.53 88.78 -55.68 89.93 -55.83 91.11 C-56.26 94.41 -56.63 97.7 -57 101 C-57.12 101.9 -57.25 102.81 -57.37 103.74 C-58.02 108.63 -58.03 110.99 -55 115 C-55 115.66 -55 116.32 -55 117 C-54.34 117.33 -53.68 117.66 -53 118 C-52.41 118.49 -51.81 118.98 -51.2 119.48 C-45.24 123.58 -36.8 123.47 -30 122 C-27.64 121.08 -25.29 120.1 -23 119 C-23.66 118.34 -24.32 117.68 -25 117 C-25.01 114.61 -25.01 114.61 -24.69 111.75 C-24.54 110.35 -24.54 110.35 -24.39 108.92 C-24.14 107.05 -23.85 105.19 -23.49 103.33 C-22.79 98.55 -22.63 93.77 -22.44 88.94 C-22.37 87.35 -22.37 87.35 -22.3 85.73 C-22.07 79.73 -21.99 73.77 -22.08 67.78 C-22.21 59.91 -21.89 52.34 -20.69 44.56 C-20.57 43.79 -20.45 43.01 -20.33 42.21 C-19.34 36.48 -17.49 32.08 -14.12 27.38 C-12.17 24.27 -10.87 21.39 -9.5 18 C-7.73 13.6 -5.77 9.88 -3 6 C-1.97 4.01 -0.96 2.02 0 0 Z " fill="#536132" transform="translate(435,723)"/>
<path d="M0 0 C2.22 3.11 2.36 4.42 1.56 8.19 C-6.85 21.62 -25.29 27.08 -39.19 33.14 C-63.14 43.62 -88.65 57.15 -106.73 76.41 C-108.46 78.21 -110.27 79.78 -112.19 81.38 C-122.21 90.09 -130.21 100.24 -137.89 111 C-138.46 111.79 -139.02 112.58 -139.6 113.39 C-140.1 114.1 -140.6 114.81 -141.12 115.54 C-142.44 117.19 -142.44 117.19 -144.44 118.19 C-144.44 117.53 -144.44 116.87 -144.44 116.19 C-145.1 116.19 -145.76 116.19 -146.44 116.19 C-146.44 116.85 -146.44 117.51 -146.44 118.19 C-147.1 118.19 -147.76 118.19 -148.44 118.19 C-148.44 117.53 -148.44 116.87 -148.44 116.19 C-149.43 115.86 -150.42 115.53 -151.44 115.19 C-150.13 111.39 -148.58 108.96 -145.81 106.06 C-142.87 102.9 -140.32 99.68 -137.88 96.12 C-133.18 89.6 -127.72 84.06 -122 78.44 C-121.01 77.45 -120.03 76.46 -119.01 75.44 C-114.04 70.5 -109.05 65.86 -103.39 61.71 C-100.16 59.19 -97.71 56.6 -95.44 53.19 C-95.44 53.85 -95.44 54.51 -95.44 55.19 C-94.72 54.59 -93.99 53.99 -93.25 53.38 C-90.71 51.4 -88.22 49.8 -85.44 48.19 C-82.76 46.53 -80.1 44.86 -77.44 43.19 C-77.77 42.53 -78.1 41.87 -78.44 41.19 C-77.3 41.08 -76.17 40.98 -75 40.88 C-73.82 40.65 -72.65 40.42 -71.44 40.19 C-71.11 39.2 -70.78 38.21 -70.44 37.19 C-69.45 37.19 -68.46 37.19 -67.44 37.19 C-67.44 36.53 -67.44 35.87 -67.44 35.19 C-65.12 34.14 -62.79 33.15 -60.44 32.19 C-56.76 30.35 -56.76 30.35 -54.44 27.19 C-63.33 29.52 -71.88 32.38 -80.47 35.62 C-84.98 37.31 -89.49 38.85 -94.12 40.19 C-100.64 42.08 -106.63 44.94 -112.71 47.89 C-116.83 49.33 -119.23 49.16 -123.44 48.19 C-121.3 41.77 -110.04 38.64 -103.9 36.17 C-99.79 34.59 -95.66 33.1 -91.52 31.63 C-88.46 30.55 -85.44 29.43 -82.44 28.19 C-82.77 27.86 -83.1 27.53 -83.44 27.19 C-85.86 27.61 -88.28 28.1 -90.69 28.62 C-95.02 29.56 -99 30.4 -103.44 30.19 C-102.65 28.06 -101.86 25.94 -101.06 23.81 C-100.62 22.63 -100.18 21.45 -99.73 20.23 C-98.44 17.19 -98.44 17.19 -96.44 15.19 C-95.78 13.87 -95.12 12.55 -94.44 11.19 C-97.1 11.1 -99.77 11.11 -102.44 11.19 C-102.77 11.85 -103.1 12.51 -103.44 13.19 C-104.43 12.86 -105.42 12.53 -106.44 12.19 C-84.16 -7.12 -24.76 -18.41 0 0 Z " fill="#778345" transform="translate(588.4375,607.8125)"/>
<path d="M0 0 C2.17 3.26 2.25 4.23 2.19 8 C2.18 8.87 2.17 9.73 2.17 10.62 C2 13 2 13 1 16 C0.34 16 -0.32 16 -1 16 C-0.5 17.98 -0.5 17.98 0 20 C-0.5 21.49 -0.5 21.49 -1 23 C-0.92 24.56 -0.92 24.56 -0.84 26.15 C-1.03 30.83 -2.58 34.38 -4.5 38.56 C-5.24 40.26 -5.98 41.96 -6.71 43.66 C-7.29 44.98 -7.29 44.98 -7.87 46.33 C-15.86 65.16 -22.65 85.61 -25 106 C-20.51 103.76 -19.07 101.8 -16.12 97.81 C-15.24 96.64 -14.36 95.47 -13.45 94.26 C-12.24 92.65 -12.24 92.65 -11 91 C-6.83 85.7 -2.17 81.3 3 77 C3.92 76.23 4.84 75.46 5.78 74.66 C17.6 64.84 17.6 64.84 21.81 65.31 C22.53 65.54 23.26 65.77 24 66 C24.5 64.51 24.5 64.51 25 63 C27.64 63.33 30.28 63.66 33 64 C32.34 65.98 31.68 67.96 31 70 C30.34 70 29.68 70 29 70 C28.9 70.68 28.79 71.36 28.69 72.06 C27.86 75.59 26.49 78.71 25 82 C31.01 81.41 36.81 80.49 42.71 79.21 C43.47 79.14 44.22 79.07 45 79 C45.66 79.66 46.32 80.32 47 81 C44.46 82.07 41.92 83.13 39.38 84.19 C38.59 84.51 37.81 84.84 37.01 85.18 C32.55 87.02 28.11 88.63 23.5 90.06 C-4.88 99.96 -33.31 120.97 -50 146 C-51.17 141.33 -50.61 140.76 -48 137 C-48.33 136.67 -48.66 136.34 -49 136 C-56.14 143.18 -61.03 151.26 -66 160 C-69.31 155.78 -71.3 152.47 -71 147 C-70.34 148.32 -69.68 149.64 -69 151 C-67.53 146.15 -66.48 141.37 -65.62 136.38 C-62.48 119.48 -56.39 98.39 -44 86 C-41.93 82.75 -40.25 79.8 -39.1 76.11 C-37.96 72.89 -36.53 70.46 -34.62 67.62 C-31.72 63.18 -29.31 58.78 -27 54 C-24.35 48.96 -21.67 43.96 -18.56 39.19 C-12.76 30.08 -8.41 20.22 -5 10 C-4.34 10 -3.68 10 -3 10 C-2.88 8.91 -2.75 7.81 -2.62 6.69 C-2 3 -2 3 0 0 Z " fill="#507435" transform="translate(461,555)"/>
<path d="M0 0 C0.5 0.99 0.5 0.99 1 2 C-1.94 2.12 -1.94 2.12 -5 2 C-5.5 1.01 -5.5 1.01 -6 0 C-11.16 -0.4 -11.16 -0.4 -16 1 C-15.4 1.4 -14.79 1.8 -14.17 2.21 C-13.37 2.74 -12.57 3.27 -11.75 3.81 C-10.57 4.6 -10.57 4.6 -9.36 5.39 C-4.78 8.51 -4.78 8.51 -3 10 C-3 10.66 -3 11.32 -3 12 C-3.92 11.99 -4.83 11.98 -5.77 11.96 C-6.96 11.96 -8.15 11.95 -9.38 11.94 C-10.56 11.93 -11.74 11.91 -12.96 11.9 C-15.92 11.79 -15.92 11.79 -18 13 C-14.7 13.33 -11.4 13.66 -8 14 C-8 14.66 -8 15.32 -8 16 C-6.35 16.33 -4.7 16.66 -3 17 C-3.33 18.32 -3.66 19.64 -4 21 C-9.67 23.61 -16.28 24.29 -22.39 25.41 C-29.65 26.8 -36.35 28.68 -43 32 C-46.25 32.12 -46.25 32.12 -49 32 C-49.33 33.98 -49.66 35.96 -50 38 C-47.03 38 -44.06 38 -41 38 C-53.22 44.11 -71.4 48.69 -85 46 C-88.73 42.98 -89.87 41.01 -90.5 36.25 C-90.26 22.76 -79.32 11.62 -69.94 3.13 C-49.03 -13.68 -22.42 -13.62 0 0 Z " fill="#8BA346" transform="translate(343,715)"/>
<path d="M0 0 C14.09 4.8 27.24 10.77 40.19 18.09 C36.09 20.14 30.56 18.01 26.19 17.09 C28.48 21.66 29.29 21.9 33.82 23.71 C35.64 24.45 37.44 25.22 39.19 26.09 C39.19 26.75 39.19 27.41 39.19 28.09 C41.79 29.35 44.09 30.07 46.94 30.53 C47.69 30.71 48.43 30.9 49.19 31.09 C49.52 32.08 49.85 33.07 50.19 34.09 C52.18 35.95 52.18 35.95 54.57 37.71 C55.36 38.32 56.15 38.94 56.97 39.56 C59.2 41.24 59.2 41.24 62.19 42.09 C63.91 43.71 65.56 45.39 67.19 47.09 C67.81 47.69 68.43 48.29 69.07 48.9 C69.71 49.52 70.35 50.14 71.01 50.78 C71.61 51.36 72.22 51.94 72.84 52.54 C74.19 54.09 74.19 54.09 74.19 56.09 C74.85 56.09 75.51 56.09 76.19 56.09 C77.22 57.74 78.21 59.41 79.19 61.09 C80.76 63.22 82.37 65.32 83.99 67.42 C85.19 69.09 85.19 69.09 85.19 70.09 C83.54 70.09 81.89 70.09 80.19 70.09 C80.11 69.35 80.02 68.61 79.94 67.85 C79.04 64.53 77.78 63.2 75.32 60.84 C74.62 60.15 73.92 59.47 73.2 58.76 C71.2 56.89 71.2 56.89 68.19 56.09 C68.19 55.43 68.19 54.77 68.19 54.09 C67.53 54.09 66.87 54.09 66.19 54.09 C66.19 53.43 66.19 52.77 66.19 52.09 C64.87 51.43 63.55 50.77 62.19 50.09 C60.77 49.04 59.38 47.95 58.01 46.84 C54.33 43.93 50.58 41.25 46.64 38.7 C44.83 37.51 43.05 36.28 41.28 35.04 C36.67 31.84 32.47 28.93 27.07 27.28 C23.19 26.09 23.19 26.09 21.19 23.09 C20.16 22.57 19.13 22.06 18.07 21.53 C17.12 21.05 16.17 20.58 15.19 20.09 C15.19 19.43 15.19 18.77 15.19 18.09 C14.53 17.76 13.87 17.43 13.19 17.09 C12.53 16.43 11.87 15.77 11.19 15.09 C9.87 14.76 8.55 14.43 7.19 14.09 C7.19 13.43 7.19 12.77 7.19 12.09 C6.51 12.15 5.83 12.21 5.13 12.28 C1.37 12.04 -1.37 10.6 -4.81 9.09 C-6.79 8.69 -8.79 8.33 -10.81 8.09 C-10.81 7.43 -10.81 6.77 -10.81 6.09 C-12.46 6.09 -14.11 6.09 -15.81 6.09 C-14.71 7.38 -13.6 8.67 -12.49 9.96 C-11.88 10.68 -11.26 11.4 -10.63 12.14 C-8.76 14.28 -8.76 14.28 -5.81 16.09 C-5.81 16.75 -5.81 17.41 -5.81 18.09 C-5.15 18.09 -4.49 18.09 -3.81 18.09 C-3.81 18.75 -3.81 19.41 -3.81 20.09 C-3.15 20.09 -2.49 20.09 -1.81 20.09 C-1.81 20.75 -1.81 21.41 -1.81 22.09 C-0.49 22.75 0.83 23.41 2.19 24.09 C2.19 24.75 2.19 25.41 2.19 26.09 C3.51 26.75 4.83 27.41 6.19 28.09 C7.18 28.75 8.17 29.41 9.19 30.09 C9.19 30.75 9.19 31.41 9.19 32.09 C10.18 32.09 11.17 32.09 12.19 32.09 C12.19 32.75 12.19 33.41 12.19 34.09 C12.85 34.09 13.51 34.09 14.19 34.09 C14.19 34.75 14.19 35.41 14.19 36.09 C14.85 36.09 15.51 36.09 16.19 36.09 C17.21 38.08 18.21 40.08 19.19 42.09 C20.18 42.58 20.18 42.58 21.19 43.09 C21.19 44.08 21.19 45.07 21.19 46.09 C22.18 46.42 23.17 46.75 24.19 47.09 C24.19 48.08 24.19 49.07 24.19 50.09 C24.85 50.09 25.51 50.09 26.19 50.09 C27.67 52.39 27.67 52.39 29.26 55.4 C29.78 56.39 30.31 57.37 30.85 58.39 C32.19 61.09 32.19 61.09 33.19 64.09 C33.85 64.42 34.51 64.75 35.19 65.09 C36.59 67.74 37.91 70.39 39.19 73.09 C45.34 88.14 45.34 88.14 55.19 100.09 C55.38 103.21 55.38 103.21 55.19 106.09 C51.52 102.84 49.18 99.07 46.66 94.92 C46.18 94.31 45.69 93.71 45.19 93.09 C44.2 93.09 43.21 93.09 42.19 93.09 C40.2 90.86 38.54 88.77 37.19 86.09 C34.24 89.04 34.58 92.05 34.19 96.09 C34.85 96.09 35.51 96.09 36.19 96.09 C38.19 100.09 38.19 100.09 37.19 104.09 C36.73 103.24 36.73 103.24 36.27 102.37 C32.6 95.59 28.91 88.84 25.19 82.09 C24.71 81.21 24.23 80.34 23.74 79.44 C12.43 58.97 -1.43 42.22 -18.1 25.88 C-19.01 24.99 -19.91 24.1 -20.84 23.19 C-22.62 21.45 -24.4 19.72 -26.19 18 C-35.89 8.52 -35.89 8.52 -35.74 0.84 C-31.41 -11.87 -9.03 -2.93 0 0 Z " fill="#CCAC5D" transform="translate(248.80615234375,488.91162109375)"/>
<path d="M0 0 C1.7 -0.01 1.7 -0.01 3.43 -0.01 C5.02 -0.01 5.02 -0.01 6.64 -0.01 C7.6 -0.01 8.56 -0.01 9.55 -0 C11.75 0.12 11.75 0.12 12.75 1.12 C14.48 1.28 14.48 1.28 16.25 1.44 C17.98 1.78 17.98 1.78 19.75 2.12 C20.25 4.11 20.25 4.11 20.75 6.12 C8.5 13.31 -4.2 19 -17.94 22.62 C-20.96 23.43 -23.44 24.22 -26.25 25.62 C-28.92 26.96 -31.07 27.66 -33.94 28.38 C-40.17 29.98 -46.11 32.24 -52.13 34.51 C-56.7 36.22 -61.25 37.78 -65.94 39.12 C-72.45 41.02 -78.44 43.88 -84.52 46.83 C-88.65 48.26 -91.04 48.1 -95.25 47.12 C-93.11 40.7 -81.85 37.57 -75.71 35.1 C-71.61 33.53 -67.48 32.03 -63.33 30.57 C-60.27 29.49 -57.25 28.36 -54.25 27.12 C-54.58 26.79 -54.91 26.47 -55.25 26.12 C-57.68 26.55 -60.09 27.04 -62.5 27.56 C-66.83 28.5 -70.81 29.34 -75.25 29.12 C-70.24 17.99 -62.91 10.08 -51.05 6.57 C-50.21 6.34 -49.37 6.11 -48.5 5.88 C-47.62 5.62 -46.74 5.37 -45.83 5.12 C-39.36 3.32 -32.93 1.86 -26.25 1.12 C-24.9 0.96 -24.9 0.96 -23.52 0.79 C-15.69 0.02 -7.85 0.02 0 0 Z " fill="#93A748" transform="translate(560.25,608.875)"/>
<path d="M0 0 C3 3 3 3 4 7 C3.67 7.66 3.34 8.32 3 9 C4.32 9.33 5.64 9.66 7 10 C9.71 13.99 11 16.13 11 21 C11.66 21.33 12.32 21.66 13 22 C14.29 23.74 14.29 23.74 15.62 25.88 C16.07 26.57 16.52 27.27 16.98 27.99 C18 30 18 30 18 33 C18.66 33 19.32 33 20 33 C21.26 34.87 21.26 34.87 22.69 37.44 C25.33 42.03 28.31 46.1 31.68 50.19 C33 52 33 52 33 54 C33.66 54 34.32 54 35 54 C44 62.29 44 62.29 44 66 C45.32 66.66 46.64 67.32 48 68 C47.34 68.99 46.68 69.98 46 71 C46.87 73.07 46.87 73.07 48.38 75.06 C51 78.83 51 78.83 51 81 C51.66 81 52.32 81 53 81 C54.19 82.81 54.19 82.81 55.56 85.44 C56.09 86.43 56.61 87.43 57.15 88.46 C57.76 89.63 58.37 90.8 59 92 C59.75 93.4 60.5 94.8 61.25 96.2 C65.1 103.36 68.78 110.53 72 118 C72.99 119.49 72.99 119.49 74 121 C74.08 124.32 74.08 124.32 73.81 128.12 C73.74 129.39 73.66 130.65 73.58 131.95 C73.39 132.95 73.2 133.96 73 135 C72.01 135.33 71.02 135.66 70 136 C69.67 135.01 69.34 134.02 69 133 C68.01 132.01 67.02 131.02 66 130 C64.74 127.35 63.57 124.71 62.44 122 C52.5 99.1 39.71 77.64 24.69 57.7 C19.32 50.45 14.7 42.69 10 35 C9.58 34.32 9.16 33.65 8.73 32.95 C4.21 25.67 1.04 19.55 0 11 C-0.66 11 -1.32 11 -2 11 C-2.25 3.38 -2.25 3.38 0 0 Z " fill="#627A40" transform="translate(285,574)"/>
<path d="M0 0 C-2 2 -3.64 2.95 -6.12 4.25 C-9.45 6.05 -12.45 8 -15.44 10.31 C-19 13 -19 13 -21 13 C-21.66 14.32 -22.32 15.64 -23 17 C-24.66 19.01 -26.33 21.01 -28 23 C-30.35 26.1 -30.35 26.1 -32 29 C-31.67 29.66 -31.34 30.32 -31 31 C-27.85 30.4 -24.71 29.8 -21.56 29.19 C-20.68 29.02 -19.81 28.86 -18.9 28.69 C-13.82 27.69 -9.01 26.43 -4.13 24.72 C1.78 22.72 7.94 21.44 14 20 C14.93 19.77 15.87 19.54 16.83 19.3 C22.46 18.02 27.77 17.86 33.53 18.03 C36 18.18 36 18.18 38 17 C37.67 18.32 37.34 19.64 37 21 C31.33 23.61 24.72 24.29 18.61 25.41 C11.35 26.8 4.65 28.68 -2 32 C-5.25 32.12 -5.25 32.12 -8 32 C-8.33 33.98 -8.66 35.96 -9 38 C-6.03 38 -3.06 38 0 38 C-12.22 44.11 -30.4 48.69 -44 46 C-47.73 42.98 -48.87 41.01 -49.5 36.25 C-49.4 26.46 -42.72 16.72 -36 10 C-35.67 10 -35.34 10 -35 10 C-35 12.64 -35 15.28 -35 18 C-30.37 15.2 -26 12.27 -21.69 9 C-15.24 4.26 -8.27 -0.47 0 0 Z " fill="#BABF55" transform="translate(302,715)"/>
<path d="M0 0 C2.48 0.5 2.48 0.5 5 1 C5 1.66 5 2.32 5 3 C5.66 3 6.32 3 7 3 C7 2.34 7 1.68 7 1 C7.66 1 8.32 1 9 1 C8.47 6.1 5.85 10.04 3.31 14.38 C-11.11 39.73 -16.67 65.72 -8.81 94.19 C-6.93 101.29 -6.38 107.78 -8 115 C-8.99 115.99 -8.99 115.99 -10 117 C-10.85 113.35 -11.08 110.05 -11 106.31 C-10.82 102.51 -10.82 102.51 -12 99 C-11.34 99 -10.68 99 -10 99 C-10.99 96.36 -11.98 93.72 -13 91 C-13.14 92.46 -13.29 93.93 -13.44 95.44 C-13.88 99.88 -13.88 99.88 -15 101 C-15.13 102.54 -15.23 104.08 -15.31 105.62 C-15.75 110.73 -17.16 113.78 -20 118 C-21.65 117.67 -23.3 117.34 -25 117 C-24.86 115.29 -24.71 113.58 -24.56 111.88 C-24.48 110.92 -24.4 109.97 -24.32 108.99 C-24 106 -24 106 -23.5 103.32 C-22.78 98.54 -22.63 93.77 -22.44 88.94 C-22.39 87.88 -22.35 86.82 -22.3 85.73 C-22.07 79.73 -21.99 73.77 -22.08 67.78 C-22.21 59.91 -21.89 52.34 -20.69 44.56 C-20.57 43.79 -20.45 43.01 -20.33 42.21 C-19.34 36.48 -17.49 32.08 -14.12 27.38 C-12.17 24.27 -10.87 21.39 -9.5 18 C-7.73 13.6 -5.77 9.88 -3 6 C-1.97 4.01 -0.96 2.02 0 0 Z " fill="#605834" transform="translate(435,723)"/>
<path d="M0 0 C0 1.98 0 3.96 0 6 C0.66 6 1.32 6 2 6 C3.45 7.47 3.45 7.47 5.12 9.5 C8.87 13.9 12.88 17.95 17 22 C17.79 22.79 18.58 23.58 19.39 24.4 C21.15 26.16 22.93 27.9 24.73 29.62 C35.33 39.92 63 66.95 63 83 C64.49 83.5 64.49 83.5 66 84 C67.62 85.76 69.04 87.61 70.5 89.5 C72 91.35 72 91.35 75 91 C76.28 92.9 76.28 92.9 77.5 95.38 C79.16 98.73 79.79 99.86 83 102 C83.19 105.12 83.19 105.12 83 108 C79.33 104.75 76.99 100.98 74.46 96.83 C73.98 96.22 73.5 95.62 73 95 C72.01 95 71.02 95 70 95 C68 92.77 66.34 90.68 65 88 C62.05 90.95 62.39 93.96 62 98 C62.66 98 63.32 98 64 98 C66 102 66 102 65 106 C64.54 105.15 64.54 105.15 64.07 104.28 C60.41 97.51 56.72 90.75 53 84 C52.52 83.13 52.04 82.25 51.55 81.35 C38.26 57.29 20.92 38.69 1.44 19.47 C0.62 18.66 -0.21 17.85 -1.05 17.01 C-1.79 16.28 -2.53 15.56 -3.29 14.81 C-5.91 12.04 -6.18 10.22 -6.25 6.5 C-6.28 5.71 -6.3 4.91 -6.33 4.09 C-5.74 0.33 -3.44 0 0 0 Z " fill="#BBA556" transform="translate(221,487)"/>
<path d="M0 0 C1.32 0.33 2.64 0.66 4 1 C3.34 5.34 1.9 9.05 0 13 C-0.66 13.33 -1.32 13.66 -2 14 C-2 12.35 -2 10.7 -2 9 C-1.01 9 -0.02 9 1 9 C1 7.68 1 6.36 1 5 C-0.05 6.05 -0.05 6.05 -1.12 7.12 C-3.07 9.07 -5.03 11.01 -7.01 12.94 C-8.04 13.95 -9.07 14.96 -10.12 16 C-11.16 17.01 -12.19 18.02 -13.26 19.06 C-15.68 21.65 -17.21 23.99 -19 27 C-20.67 28.73 -22.38 30.41 -24.12 32.06 C-28.99 36.83 -33.07 41.82 -37.06 47.34 C-38.59 49.43 -40.21 51.45 -41.88 53.44 C-44.02 55.89 -44.02 55.89 -45.44 58.44 C-47.14 61.23 -49.17 63.59 -51.32 66.04 C-55.94 71.42 -59.89 76.61 -63 83 C-63.66 83 -64.32 83 -65 83 C-65.66 84.32 -66.32 85.64 -67 87 C-67.61 88.19 -68.21 89.38 -68.84 90.61 C-69.54 91.99 -70.24 93.37 -70.94 94.75 C-71.28 95.43 -71.63 96.11 -71.99 96.8 C-73.77 100.32 -75.32 103.79 -76.63 107.52 C-77.08 108.67 -77.53 109.82 -78 111 C-78.66 111 -79.32 111 -80 111 C-80.1 111.68 -80.19 112.36 -80.29 113.05 C-81.17 116.7 -82.67 119.75 -84.31 123.12 C-87.26 129.31 -89.82 135.5 -92 142 C-93.14 137.44 -92.62 135.98 -91.16 131.61 C-90.53 129.72 -90.53 129.72 -89.89 127.79 C-89.43 126.46 -88.97 125.12 -88.5 123.75 C-88.04 122.39 -87.58 121.03 -87.1 119.63 C-80.13 99.35 -70.95 80.83 -59 63 C-58.47 62.2 -57.94 61.4 -57.39 60.57 C-56.32 59 -55.17 57.49 -54 56 C-53.34 56 -52.68 56 -52 56 C-51.73 55.3 -51.45 54.59 -51.17 53.87 C-49.73 50.33 -47.74 48.02 -45.25 45.12 C-44.77 44.57 -44.3 44.02 -43.81 43.44 C-23.05 19.52 -23.05 19.52 -13.12 12.19 C-10.05 10.02 -10.05 10.02 -8 7 C-7.03 6.73 -6.06 6.46 -5.06 6.19 C-1.79 5.31 -1.79 5.31 -0.62 2.38 C-0.32 1.2 -0.32 1.2 0 0 Z " fill="#DBCA5D" transform="translate(494,426)"/>
<path d="M0 0 C3.92 0.16 4.85 0.81 7.35 3.94 C8.1 5.14 8.85 6.33 9.62 7.56 C11.8 11.11 11.8 11.11 14 14 C14.99 14 15.98 14 17 14 C17.18 14.64 17.36 15.28 17.55 15.93 C17.8 16.76 18.05 17.59 18.31 18.44 C18.68 19.67 18.68 19.67 19.05 20.93 C19.86 23.36 19.86 23.36 23 24 C23.33 25.32 23.66 26.64 24 28 C25.47 30.87 26.95 32.95 29.24 35.24 C32.28 38.28 35.09 41.48 37.88 44.75 C38.67 45.68 38.67 45.68 39.48 46.62 C42.9 50.65 46.2 54.75 49.4 58.96 C51.7 61.89 54.2 64.63 56.71 67.37 C58 69 58 69 58 71 C58.66 71 59.32 71 60 71 C60 71.66 60 72.32 60 73 C61.32 73.66 62.64 74.32 64 75 C66 78 66 78 66 81 C67.98 81.5 67.98 81.5 70 82 C71.92 83.67 71.92 83.67 73.75 85.75 C74.36 86.43 74.98 87.1 75.61 87.8 C77 90 77 90 76.95 92.64 C76.98 93.81 76.98 93.81 77 95 C78.98 95.99 78.98 95.99 81 97 C82.55 98.8 82.55 98.8 83.88 100.88 C84.33 101.55 84.78 102.23 85.24 102.93 C86 105 86 105 84 109 C83.43 108.29 82.86 107.58 82.28 106.84 C80.05 104.06 77.81 101.27 75.56 98.5 C74.82 97.58 74.08 96.66 73.32 95.72 C71.03 92.96 71.03 92.96 68.4 90.47 C66.08 88.08 64.7 85.84 63 83 C61.23 80.96 59.41 78.97 57.56 77 C54.9 74.16 52.29 71.38 49.9 68.31 C48.06 66.08 46.38 64.67 44 63.06 C40.39 60.47 38.38 57.78 36 54 C34.35 52.65 32.68 51.31 31 50 C31 49.34 31 48.68 31 48 C30.34 48 29.68 48 29 48 C27.69 46.5 27.69 46.5 26.21 44.42 C25.68 43.67 25.15 42.92 24.61 42.15 C24.06 41.36 23.51 40.57 22.94 39.75 C22.38 38.97 21.83 38.2 21.26 37.39 C18.72 33.78 17.09 31.35 16 27 C15.34 27 14.68 27 14 27 C10 19.71 10 19.71 10 17 C9.34 16.67 8.68 16.34 8 16 C6.4 12.94 4.98 9.82 3.54 6.69 C2.23 3.71 2.23 3.71 -1 3 C-0.67 2.01 -0.34 1.02 0 0 Z " fill="#73983A" transform="translate(289,580)"/>
<path d="M0 0 C3.29 2.99 5.24 5.94 7.28 9.88 C7.87 11.03 8.47 12.18 9.08 13.36 C9.7 14.56 10.31 15.76 10.94 17 C11.55 18.17 12.15 19.34 12.78 20.54 C16.14 27.08 19.22 33.65 21.96 40.48 C22.87 42.69 23.93 44.85 25 47 C25.29 49.24 25.49 51.49 25.62 53.75 C25.7 54.92 25.77 56.09 25.85 57.3 C25.9 58.19 25.95 59.08 26 60 C24.51 60.5 24.51 60.5 23 61 C22.73 60.34 22.47 59.68 22.19 59 C20.98 56.02 19.77 53.04 18.56 50.06 C17.93 48.5 17.93 48.5 17.29 46.91 C16.88 45.92 16.48 44.93 16.07 43.91 C15.69 42.99 15.32 42.08 14.94 41.13 C14.18 39.06 14.18 39.06 13 38 C14.34 49.12 14.34 49.12 16 60.19 C18.92 79.33 19.03 97.67 18 117 C17.67 117 17.34 117 17 117 C16.9 116.21 16.8 115.43 16.7 114.62 C10.56 60.95 10.56 60.95 0.84 7.89 C0 4 0 4 0 0 Z " fill="#D1CC59" transform="translate(360,531)"/>
<path d="M0 0 C1.65 0 3.3 0 5 0 C5.5 1.98 5.5 1.98 6 4 C-6.25 11.18 -18.95 16.88 -32.69 20.5 C-35.71 21.3 -38.19 22.09 -41 23.5 C-43.67 24.83 -45.82 25.53 -48.69 26.25 C-54.92 27.86 -60.86 30.11 -66.88 32.38 C-71.45 34.09 -76 35.65 -80.69 37 C-87.2 38.89 -93.19 41.75 -99.27 44.71 C-103.4 46.14 -105.79 45.97 -110 45 C-107.87 38.6 -96.82 35.57 -90.72 33.06 C-85.2 30.89 -79.61 28.93 -74 27 C-72.73 26.56 -72.73 26.56 -71.43 26.11 C-60.98 22.52 -50.47 19.14 -39.83 16.13 C-35.04 14.74 -30.58 13.02 -26.05 10.93 C-23.45 9.75 -20.81 8.73 -18.12 7.75 C-17.22 7.41 -16.32 7.08 -15.38 6.73 C-13 6 -13 6 -10 6 C-10 5.34 -10 4.68 -10 4 C-9.03 4.04 -8.06 4.08 -7.06 4.12 C-6.05 4.08 -5.04 4.04 -4 4 C-3.67 3.34 -3.34 2.68 -3 2 C-2.01 2 -1.02 2 0 2 C0 1.34 0 0.68 0 0 Z " fill="#BBC45B" transform="translate(575,611)"/>
<path d="M0 0 C5.96 0.35 8.08 1.6 12 6 C14.12 7.85 16.27 9.65 18.43 11.45 C20 13 20 13 20 15 C20.66 15 21.32 15 22 15 C22 15.66 22 16.32 22 17 C22.66 17 23.32 17 24 17 C24 17.66 24 18.32 24 19 C25.32 19.66 26.64 20.32 28 21 C28 21.66 28 22.32 28 23 C29.32 23.66 30.64 24.32 32 25 C32.99 25.66 33.98 26.32 35 27 C35 27.66 35 28.32 35 29 C35.99 29 36.98 29 38 29 C38 29.66 38 30.32 38 31 C38.66 31 39.32 31 40 31 C40 31.66 40 32.32 40 33 C40.66 33 41.32 33 42 33 C43.02 34.99 44.02 36.99 45 39 C45.99 39.5 45.99 39.5 47 40 C47 40.99 47 41.98 47 43 C47.99 43.33 48.98 43.66 50 44 C50 44.99 50 45.98 50 47 C50.66 47 51.32 47 52 47 C53.47 49.3 53.47 49.3 55.06 52.31 C55.59 53.3 56.12 54.28 56.66 55.3 C58 58 58 58 59 61 C59.99 61.5 59.99 61.5 61 62 C61.93 63.76 62.85 65.54 63.71 67.34 C64.72 69.42 65.76 71.48 66.82 73.54 C67.45 74.78 68.09 76.03 68.75 77.31 C69.36 78.5 69.98 79.7 70.61 80.93 C72 84 72 84 72 87 C67.66 84.83 65.98 82.74 63 79 C62.01 78.01 61.02 77.02 60 76 C58.48 73.45 57.01 70.9 55.56 68.31 C45.74 51.23 33.07 35.48 18.8 21.93 C17 20 17 20 17 18 C15.68 17.34 14.36 16.68 13 16 C10.68 13.9 8.46 11.78 6.25 9.56 C5.35 8.68 5.35 8.68 4.43 7.79 C0 3.37 0 3.37 0 0 Z " fill="#D8CD5F" transform="translate(223,492)"/>
<path d="M0 0 C0.5 0.99 0.5 0.99 1 2 C-1.94 2.12 -1.94 2.12 -5 2 C-5.5 1.01 -5.5 1.01 -6 0 C-11.37 -0.38 -11.37 -0.38 -16.44 1.12 C-19.74 2.25 -21.93 1.36 -25.24 0.54 C-38.98 -2.16 -51.01 1.09 -62.24 9.4 C-64.06 10.92 -65.84 12.47 -67.57 14.08 C-70.28 16.22 -72.69 17.09 -76 18 C-76.74 13.32 -77.14 10.55 -74.27 6.64 C-53.27 -13.29 -24.14 -14.66 0 0 Z " fill="#838D4D" transform="translate(343,715)"/>
<path d="M0 0 C0.5 0.99 0.5 0.99 1 2 C4.03 2.66 4.03 2.66 7 3 C4.37 5.04 1.73 6.8 -1.17 8.43 C-13.11 15.27 -23.74 22.83 -34 32 C-34.83 32.74 -35.66 33.48 -36.52 34.24 C-42.1 39.54 -46.52 45.77 -51 52 C-51.99 51.67 -52.98 51.34 -54 51 C-44.8 27.24 -21.32 12 0 0 Z " fill="#78A044" transform="translate(464,654)"/>
<path d="M0 0 C5.51 1.67 10.74 3.65 16 6 C16.8 6.33 17.61 6.67 18.43 7.01 C19.26 7.36 20.09 7.7 20.94 8.06 C21.71 8.38 22.48 8.7 23.28 9.04 C23.85 9.35 24.41 9.67 25 10 C25 10.66 25 11.32 25 12 C27.59 13.26 29.9 13.98 32.75 14.44 C33.49 14.62 34.24 14.81 35 15 C35.5 16.49 35.5 16.49 36 18 C37.98 19.86 37.98 19.86 40.38 21.62 C41.17 22.24 41.96 22.85 42.77 23.48 C45.01 25.16 45.01 25.16 48 26 C49.71 27.62 51.37 29.3 53 31 C53.93 31.9 53.93 31.9 54.88 32.82 C55.52 33.43 56.16 34.05 56.81 34.69 C57.42 35.27 58.02 35.85 58.64 36.45 C60 38 60 38 60 40 C60.66 40 61.32 40 62 40 C63.03 41.65 64.02 43.32 65 45 C66.57 47.13 68.17 49.23 69.79 51.33 C71 53 71 53 71 54 C69.35 54 67.7 54 66 54 C65.91 53.26 65.83 52.53 65.74 51.77 C64.85 48.44 63.59 47.12 61.12 44.75 C60.43 44.06 59.73 43.38 59.01 42.67 C57.01 40.8 57.01 40.8 54 40 C54 39.34 54 38.68 54 38 C53.34 38 52.68 38 52 38 C52 37.34 52 36.68 52 36 C50.68 35.34 49.36 34.68 48 34 C46.58 32.95 45.19 31.86 43.81 30.75 C40.13 27.84 36.38 25.16 32.45 22.61 C30.64 21.42 28.85 20.2 27.08 18.95 C22.47 15.75 18.27 12.84 12.88 11.19 C9 10 9 10 7 7 C5.97 6.48 4.94 5.97 3.88 5.44 C2.45 4.73 2.45 4.73 1 4 C1 3.34 1 2.68 1 2 C0.34 1.67 -0.32 1.34 -1 1 C-0.67 0.67 -0.34 0.34 0 0 Z " fill="#CDBD55" transform="translate(263,505)"/>
<path d="M0 0 C2.64 0.33 5.28 0.66 8 1 C7.34 2.98 6.68 4.96 6 7 C5.34 7 4.68 7 4 7 C3.9 7.68 3.79 8.36 3.69 9.06 C3 12 3 12 1.31 15.69 C0.88 16.78 0.45 17.87 0 19 C0.66 19.66 1.32 20.32 2 21 C-0.07 21.56 -0.07 21.56 -2.19 22.12 C-7.84 23.8 -13.02 26.23 -18.31 28.79 C-21 30 -21 30 -23 30 C-19.54 23.08 -14.71 17.93 -8 14 C-8.79 9.1 -8.79 9.1 -12 6 C-6.71 1.94 -6.71 1.94 -3.12 2.25 C-2.42 2.5 -1.72 2.75 -1 3 C-0.67 2.01 -0.34 1.02 0 0 Z " fill="#5C7D3B" transform="translate(486,618)"/>
<path d="M0 0 C-1.83 1.83 -4.56 1.05 -7 1 C-7.33 2.98 -7.66 4.96 -8 7 C-5.03 7 -2.06 7 1 7 C-12.53 13.77 -27.2 14.21 -42 14 C-42 13.34 -42 12.68 -42 12 C-42.66 11.34 -43.32 10.68 -44 10 C-42 7 -42 7 -38.82 6.48 C-37.46 6.38 -36.09 6.29 -34.69 6.19 C-26.43 5.47 -18.84 3.45 -10.96 0.94 C-10.11 0.68 -9.26 0.42 -8.39 0.14 C-7.64 -0.1 -6.89 -0.34 -6.11 -0.59 C-4 -1 -4 -1 0 0 Z " fill="#98964C" transform="translate(301,746)"/>
<path d="M0 0 C0 2.64 0 5.28 0 8 C1.65 7.34 3.3 6.68 5 6 C2.85 10.3 0.31 14.15 -2.34 18.15 C-4.03 21.04 -5.06 23.8 -6 27 C-3.36 27 -0.72 27 2 27 C2 27.33 2 27.66 2 28 C0.93 28.07 0.93 28.07 -0.15 28.15 C-1.07 28.22 -1.99 28.3 -2.94 28.38 C-4.31 28.48 -4.31 28.48 -5.71 28.59 C-6.47 28.72 -7.22 28.86 -8 29 C-8.33 29.66 -8.66 30.32 -9 31 C-8.34 31.66 -7.68 32.32 -7 33 C-7.33 33.66 -7.66 34.32 -8 35 C-1.73 34.67 4.54 34.34 11 34 C6.54 36.23 3.94 36.33 -1 36.38 C-3.1 36.42 -3.1 36.42 -5.25 36.46 C-9.42 35.95 -10.54 35.31 -13 32 C-15.45 27.1 -14.56 22.42 -12.65 17.54 C-4.16 0 -4.16 0 0 0 Z " fill="#B4A764" transform="translate(267,725)"/>
<path d="M0 0 C0.33 0.66 0.66 1.32 1 2 C2.07 2.12 3.14 2.25 4.25 2.38 C8.4 3.07 9.95 4.22 13 7 C13.66 7.33 14.32 7.66 15 8 C15 8.66 15 9.32 15 10 C17.31 10.33 19.62 10.66 22 11 C21.5 9.02 21.5 9.02 21 7 C21.66 6.67 22.32 6.34 23 6 C23.12 7.13 23.25 8.27 23.38 9.44 C23.58 10.61 23.79 11.79 24 13 C24.66 13.33 25.32 13.66 26 14 C23.69 14.33 21.38 14.66 19 15 C19 15.66 19 16.32 19 17 C20.32 17.33 21.64 17.66 23 18 C19.38 19.21 18.7 18.69 15.31 17.19 C12.01 15.77 9.24 14.83 5.69 14.06 C1.37 12.82 0.06 11.21 -3 8 C-5.92 6.18 -8.94 4.57 -12 3 C-7.8 -1.2 -5.78 -0.41 0 0 Z " fill="#476734" transform="translate(338,714)"/>
<path d="M0 0 C1.49 0.99 1.49 0.99 3 2 C4.32 1.34 5.64 0.68 7 0 C7.41 0.96 7.82 1.93 8.24 2.92 C8.78 4.19 9.32 5.45 9.88 6.75 C10.68 8.63 10.68 8.63 11.49 10.55 C12.59 13.06 13.77 15.54 15 18 C15.29 20.24 15.49 22.49 15.62 24.75 C15.7 25.92 15.77 27.09 15.85 28.3 C15.9 29.19 15.95 30.08 16 31 C15.01 31.33 14.02 31.66 13 32 C12.73 31.34 12.47 30.68 12.19 30 C10.98 27.02 9.77 24.04 8.56 21.06 C8.14 20.02 7.72 18.98 7.29 17.91 C6.88 16.92 6.48 15.93 6.07 14.91 C5.69 13.99 5.32 13.08 4.94 12.13 C4.18 10.06 4.18 10.06 3 9 C2.01 9.5 2.01 9.5 1 10 C0.67 6.7 0.34 3.4 0 0 Z " fill="#BAC44E" transform="translate(370,560)"/>
<path d="M0 0 C1.76 3.52 2.67 6.33 3.56 10.12 C4.47 14.18 4.47 14.18 6 18 C6.69 25.49 6.47 30.85 2 37 C0.35 36.67 -1.3 36.34 -3 36 C-2.86 34.29 -2.71 32.58 -2.56 30.88 C-2.48 29.92 -2.4 28.97 -2.32 27.99 C-2 25 -2 25 -1.5 22.25 C-0.83 17.88 -0.64 13.53 -0.44 9.12 C-0.39 8.25 -0.35 7.37 -0.31 6.46 C-0.2 4.31 -0.1 2.15 0 0 Z " fill="#74533D" transform="translate(413,804)"/>
<path d="M0 0 C4.13 3.45 5.94 7.72 8 12.56 C8.35 13.37 8.69 14.17 9.05 15 C10.05 17.33 11.03 19.66 12 22 C12.46 23.09 12.93 24.19 13.41 25.31 C15.72 31.13 16.41 35.74 16 42 C13.84 38.76 12.53 35.58 11 32 C10.18 30.33 9.34 28.66 8.5 27 C7.08 24.21 5.77 21.46 4.56 18.56 C2.7 14.32 0.35 10.48 -2.09 6.55 C-3 4 -3 4 -1.66 1.67 C-0.84 0.84 -0.84 0.84 0 0 Z " fill="#527E33" transform="translate(375,685)"/>
<path d="M0 0 C0 0.33 0 0.66 0 1 C-2.25 1.16 -4.49 1.33 -6.74 1.49 C-9.42 1.88 -9.42 1.88 -12 5 C-14.15 5.37 -14.15 5.37 -16.66 5.37 C-18.05 5.39 -18.05 5.39 -19.48 5.42 C-20.98 5.43 -20.98 5.43 -22.5 5.44 C-33.39 5.68 -43.46 7.35 -54 10 C-54 9.34 -54 8.68 -54 8 C-37.48 0.88 -17.82 -2.39 0 0 Z " fill="#B2B758" transform="translate(557,610)"/>
<path d="M0 0 C0.66 0 1.32 0 2 0 C0.93 3.13 -0.38 5.58 -2.19 8.38 C-6.67 15.35 -10.24 23.18 -13.08 30.96 C-13.38 31.63 -13.69 32.31 -14 33 C-14.66 33 -15.32 33 -16 33 C-16.33 30.36 -16.66 27.72 -17 25 C-16.34 25 -15.68 25 -15 25 C-14.9 24.2 -14.79 23.39 -14.69 22.56 C-13.84 18.19 -12.46 14.2 -11 10 C-10.34 10 -9.68 10 -9 10 C-8.67 8.02 -8.34 6.04 -8 4 C-7.34 4 -6.68 4 -6 4 C-5.67 3.34 -5.34 2.68 -5 2 C-4.34 2.66 -3.68 3.32 -3 4 C-2.55 3.34 -2.09 2.68 -1.62 2 C-0.82 1.01 -0.82 1.01 0 0 Z " fill="#537F34" transform="translate(410,707)"/>
<path d="M0 0 C-0.99 0.33 -1.98 0.66 -3 1 C-3.35 4.12 -3.35 4.12 -1 6 C-3.51 7.21 -6.03 8.39 -8.56 9.56 C-9.27 9.9 -9.97 10.25 -10.7 10.6 C-15.58 12.83 -18.79 13.25 -24 12 C-22.54 7.62 -19.18 6.8 -15.25 4.94 C-14.53 4.59 -13.82 4.23 -13.08 3.87 C-2.52 -1.26 -2.52 -1.26 0 0 Z " fill="#9EB754" transform="translate(489,644)"/>
<path d="M0 0 C0.66 0 1.32 0 2 0 C1.51 3.12 1 6 0 9 C0.66 9.33 1.32 9.66 2 10 C0.93 11.8 -0.16 13.59 -1.25 15.38 C-1.85 16.37 -2.46 17.37 -3.08 18.4 C-5 21 -5 21 -9 23 C-10.72 24.95 -12.4 26.95 -14 29 C-15.45 24.64 -13.68 22.96 -11.5 19 C-10.95 18.01 -10.95 18.01 -10.4 16.99 C-3.49 4.53 -3.49 4.53 0 0 Z " fill="#96B552" transform="translate(418,624)"/>
<path d="M0 0 C0.33 0 0.66 0 1 0 C3.72 18.87 4.19 36.98 3 56 C2.67 56 2.34 56 2 56 C1.46 52.54 0.95 49.09 0.44 45.62 C0.29 44.66 0.13 43.69 -0.02 42.7 C-0.83 37.13 -1 32.19 -0.28 26.61 C0.26 21.55 0.1 16.46 0.06 11.38 C0.06 10.28 0.05 9.18 0.05 8.04 C0.04 5.36 0.02 2.68 0 0 Z " fill="#A8C051" transform="translate(375,592)"/>
<path d="M0 0 C20.05 6.08 20.05 6.08 24 12 C23.34 12 22.68 12 22 12 C22 12.66 22 13.32 22 14 C19.09 13.27 16.24 12.52 13.38 11.62 C12.6 11.39 11.82 11.16 11.02 10.91 C9 10 9 10 7 7 C5.97 6.48 4.94 5.97 3.88 5.44 C2.45 4.73 2.45 4.73 1 4 C1 3.34 1 2.68 1 2 C0.34 1.67 -0.32 1.34 -1 1 C-0.67 0.67 -0.34 0.34 0 0 Z " fill="#D2C358" transform="translate(263,505)"/>
<path d="M0 0 C0.5 0.99 0.5 0.99 1 2 C-0.11 1.54 -0.11 1.54 -1.25 1.06 C-5.68 -0.19 -9.9 -0.48 -14.49 -0.75 C-17 -1 -17 -1 -18 -2 C-21.32 -2.09 -24.62 -2.12 -27.94 -2.1 C-28.94 -2.1 -29.94 -2.09 -30.96 -2.09 C-34.16 -2.09 -37.36 -2.08 -40.56 -2.06 C-42.73 -2.06 -44.89 -2.05 -47.05 -2.05 C-52.37 -2.04 -57.68 -2.02 -63 -2 C-63 -2.33 -63 -2.66 -63 -3 C-43.85 -6.15 -17.89 -8.87 0 0 Z " fill="#D5D0AA" transform="translate(586,606)"/>
<path d="M0 0 C0 0.66 0 1.32 0 2 C0.99 2 1.98 2 3 2 C4.82 3.64 4.82 3.64 6.69 5.81 C7.31 6.52 7.93 7.23 8.57 7.96 C10 10 10 10 10 13 C10.99 13.33 11.98 13.66 13 14 C16.25 20.26 16.25 20.26 15 24 C14.67 23.45 14.34 22.91 14 22.35 C8.23 13.2 1.88 6.26 -8.13 1.88 C-8.75 1.59 -9.36 1.3 -10 1 C-10 0.67 -10 0.34 -10 0 C-6.3 -0.95 -3.7 -0.95 0 0 Z " fill="#56803C" transform="translate(380,741)"/>
<path d="M0 0 C1.33 0 2.67 0 4 0 C5.23 10.57 6.03 21.5 4 32 C3.67 32 3.34 32 3 32 C-0.57 10.47 -0.57 10.47 0 0 Z " fill="#C7D461" transform="translate(371,590)"/>
<path d="M0 0 C1 3 1 3 0.03 5.02 C-0.47 5.8 -0.98 6.58 -1.5 7.38 C-4.71 12.46 -7.52 17.68 -10.29 23.02 C-11.98 25.96 -13.73 28.49 -16 31 C-16.66 31 -17.32 31 -18 31 C-17.2 27.79 -16.41 24.98 -15 22 C-14.34 22 -13.68 22 -13 22 C-12.52 20.44 -12.04 18.88 -11.56 17.31 C-11.3 16.44 -11.03 15.57 -10.75 14.68 C-10.04 12.13 -9.48 9.6 -9 7 C-8.67 7.66 -8.34 8.32 -8 9 C-5.07 6.15 -2.36 3.35 0 0 Z " fill="#608435" transform="translate(427,605)"/>
<path d="M0 0 C0.33 0 0.66 0 1 0 C0.38 8.62 0.38 8.62 -3 12 C-4.33 15.12 -5.47 18.29 -6.62 21.48 C-7.08 22.31 -7.53 23.14 -8 24 C-9.32 24 -10.64 24 -12 24 C-13.11 26.39 -13.11 26.39 -14 29 C-15.49 29.99 -15.49 29.99 -17 31 C-15.72 26.02 -13.39 22.45 -10.51 18.29 C-9.14 16.22 -8.01 14.17 -6.94 11.94 C-4.87 7.73 -2.58 3.91 0 0 Z " fill="#708F31" transform="translate(448,585)"/>
<path d="M0 0 C6.88 5.62 6.88 5.62 8 9 C8.66 9 9.32 9 10 9 C11.03 10.65 12.02 12.32 13 14 C14.57 16.13 16.17 18.23 17.79 20.33 C19 22 19 22 19 23 C17.35 23 15.7 23 14 23 C13.91 22.26 13.83 21.53 13.74 20.77 C12.85 17.44 11.59 16.12 9.12 13.75 C8.43 13.06 7.73 12.38 7.01 11.67 C5.01 9.8 5.01 9.8 2 9 C2 8.34 2 7.68 2 7 C1.34 7 0.68 7 0 7 C0 6.34 0 5.68 0 5 C-0.99 4.67 -1.98 4.34 -3 4 C-2.34 3.67 -1.68 3.34 -1 3 C-0.67 2.01 -0.34 1.02 0 0 Z " fill="#BAAE51" transform="translate(315,536)"/>
<path d="M0 0 C1.32 0.66 2.64 1.32 4 2 C4.33 1.34 4.66 0.68 5 0 C5 0.99 5 1.98 5 3 C4.34 3 3.68 3 3 3 C2.9 3.68 2.81 4.36 2.71 5.05 C1.83 8.7 0.33 11.75 -1.31 15.12 C-4.26 21.31 -6.82 27.5 -9 34 C-10.18 29.28 -9.47 27.59 -7.91 23.05 C-7.46 21.71 -7 20.37 -6.53 18.98 C-6.05 17.59 -5.56 16.19 -5.06 14.75 C-4.58 13.32 -4.09 11.9 -3.6 10.47 C-2.41 6.98 -1.21 3.49 0 0 Z " fill="#BCC359" transform="translate(411,534)"/>
<path d="M0 0 C0.66 0.33 1.32 0.66 2 1 C1.77 3.09 1.52 5.17 1.25 7.25 C1.11 8.41 0.97 9.57 0.83 10.77 C-0.11 14.42 -1.29 15.5 -4 18 C-4.33 19.32 -4.66 20.64 -5 22 C-5.66 22 -6.32 22 -7 22 C-6.42 15.19 -5.43 8.68 -4 2 C-3.67 2.66 -3.34 3.32 -3 4 C-2.34 4 -1.68 4 -1 4 C-0.67 2.68 -0.34 1.36 0 0 Z " fill="#BAC153" transform="translate(473,496)"/>
<path d="M0 0 C-8.85 6.12 -18.21 10.62 -28 15 C-29.26 15.59 -30.53 16.19 -31.83 16.8 C-35 18 -35 18 -38 17 C-32.25 14 -32.25 14 -30 14 C-30 13.34 -30 12.68 -30 12 C-27.31 10.21 -25.34 9.34 -22.31 8.38 C-21.5 8.11 -20.7 7.85 -19.86 7.59 C-19.25 7.39 -18.63 7.2 -18 7 C-18 6.67 -18 6.34 -18 6 C-15.36 5.67 -12.72 5.34 -10 5 C-10.33 4.01 -10.66 3.02 -11 2 C-9.35 2 -7.7 2 -6 2 C-6 1.34 -6 0.68 -6 0 C-2 -1 -2 -1 0 0 Z " fill="#C0C098" transform="translate(584,623)"/>
<path d="M0 0 C1.11 3.32 1.32 6.2 1.56 9.69 C1.65 10.87 1.73 12.05 1.82 13.26 C1.88 14.17 1.94 15.07 2 16 C1.01 16.33 0.02 16.66 -1 17 C-2.01 14.73 -3.01 12.46 -4 10.19 C-4.56 8.92 -5.11 7.66 -5.69 6.36 C-7 3 -7 3 -7 0 C-4 -1 -4 -1 0 0 Z " fill="#ACBF45" transform="translate(384,575)"/>
<path d="M0 0 C5.07 7.61 7.77 15.89 7 25 C4.84 21.76 3.53 18.58 2 15 C0.65 12.4 -0.72 9.81 -2.11 7.23 C-3 5 -3 5 -2 2 C-1.34 1.34 -0.68 0.68 0 0 Z " fill="#457031" transform="translate(384,702)"/>
<path d="M0 0 C0 0.33 0 0.66 0 1 C-0.71 0.99 -1.42 0.99 -2.16 0.98 C-5.37 0.96 -8.59 0.95 -11.81 0.94 C-12.93 0.93 -14.05 0.92 -15.21 0.91 C-16.28 0.91 -17.35 0.91 -18.46 0.9 C-19.45 0.9 -20.44 0.89 -21.46 0.89 C-24.12 0.89 -24.12 0.89 -27 2 C-27 4.64 -27 7.28 -27 10 C-29.17 5.65 -29.34 4.51 -28 0 C-20.77 -6.87 -8.46 -2.26 0 0 Z " fill="#DAC797" transform="translate(242,487)"/>
<path d="M0 0 C4.12 0.5 5.69 1.59 8.62 4.44 C8.3 5.1 7.96 5.76 7.62 6.44 C6.96 5.78 6.31 5.12 5.62 4.44 C3.18 4.19 3.18 4.19 0.5 4.31 C-0.41 4.33 -1.32 4.35 -2.26 4.37 C-2.96 4.39 -3.66 4.41 -4.38 4.44 C-4.57 12.52 -4.5 20.13 -2.82 28.05 C-2.23 31.2 -2.23 34.25 -2.38 37.44 C-2.7 37.44 -3.04 37.44 -3.38 37.44 C-4.08 33.46 -4.76 29.48 -5.44 25.5 C-5.64 24.38 -5.84 23.27 -6.04 22.12 C-7.13 15.58 -7.74 9.96 -6.38 3.44 C-3.38 0.44 -3.38 0.44 0 0 Z " fill="#DAD0A7" transform="translate(359.375,521.5625)"/>
<path d="M0 0 C0.33 0 0.66 0 1 0 C2.49 4.48 3.21 7.42 2 12 C2.33 12.33 2.66 12.66 3 13 C3.07 14.85 3.08 16.71 3.06 18.56 C3.05 19.57 3.04 20.59 3.04 21.63 C3.02 22.41 3.01 23.19 3 24 C2.67 24 2.34 24 2 24 C1.67 21.03 1.34 18.06 1 15 C0.71 15.97 0.42 16.94 0.12 17.94 C-1 21 -1 21 -3 22 C-3.12 13.12 -3.12 13.12 -2 12 C-1.6 9.99 -1.26 7.96 -0.94 5.94 C-0.67 4.28 -0.67 4.28 -0.4 2.59 C-0.27 1.74 -0.14 0.88 0 0 Z " fill="#5B3A1E" transform="translate(422,811)"/>
<path d="M0 0 C-2.66 1.13 -5.33 2.26 -8 3.38 C-8.74 3.69 -9.49 4.01 -10.25 4.34 C-15.12 6.37 -19.86 7.84 -25 9 C-25 8.34 -25 7.68 -25 7 C-22.36 6.34 -19.72 5.68 -17 5 C-17.33 3.68 -17.66 2.36 -18 1 C-15.57 0.44 -13.13 -0.1 -10.69 -0.62 C-9.33 -0.93 -7.97 -1.23 -6.57 -1.54 C-3 -2 -3 -2 0 0 Z " fill="#678431" transform="translate(508,636)"/>
<path d="M0 0 C1.41 4.23 -0.22 7.26 -1.62 11.31 C-5.19 22.04 -7.65 32.95 -10 44 C-10.33 44 -10.66 44 -11 44 C-11.03 42.19 -11.05 40.38 -11.06 38.56 C-11.07 37.55 -11.09 36.54 -11.1 35.5 C-11 33 -11 33 -10 32 C-9.77 30.49 -9.59 28.96 -9.44 27.44 C-9.29 25.97 -9.15 24.51 -9 23 C-8.34 23 -7.68 23 -7 23 C-6.83 22.26 -6.66 21.52 -6.48 20.76 C-4.78 13.63 -2.65 6.83 0 0 Z " fill="#DFD7B5" transform="translate(494,457)"/>
<path d="M0 0 C4.65 9.31 6.04 18.74 4 29 C3.34 29.66 2.68 30.32 2 31 C1.15 27.35 0.92 24.05 1 20.31 C1.18 16.51 1.18 16.51 0 13 C0.66 13 1.32 13 2 13 C1.67 12.34 1.34 11.68 1 11 C-0.25 7.24 -0.13 3.94 0 0 Z " fill="#A29585" transform="translate(423,809)"/>
</svg>
