<?xml version="1.0" encoding="UTF-8"?>
<!-- Generator: visioncortex VTracer -->
<svg id="svg" version="1.1" xmlns="http://www.w3.org/2000/svg" style="display: block;" viewBox="0 0 768 1024"><path d="M0 0 C2.64040167 3.12936494 2.93182631 6.05319042 2.6875 10 C1.07200384 17.8402401 -2.17041655 25.18360847 -5.1875 32.5625 C-12.40195818 50.28104881 -16.59713978 68.27749852 -20.3125 87 C-23.71267207 104.04922696 -27.58647937 120.57743584 -33.3125 137 C-33.6945459 138.10907715 -34.0765918 139.2181543 -34.47021484 140.36083984 C-38.48805256 151.98974241 -42.56620861 163.57244125 -47.4375 174.875 C-56.46770667 195.88663878 -64.68446395 218.14606628 -67.3125 241 C-63.07646863 239.46761077 -60.9952769 236.31803773 -58.4375 232.8125 C-57.54807459 231.62800454 -56.65745808 230.44440248 -55.765625 229.26171875 C-55.12850586 228.4116626 -55.12850586 228.4116626 -54.47851562 227.54443359 C-49.99011438 221.59936946 -45.01039902 216.77984874 -39.3125 212 C-38.54550781 211.31035156 -37.77851563 210.62070312 -36.98828125 209.91015625 C-28.87359124 202.83931611 -19.8273712 197.93508015 -10.3125 193 C-9.34441406 192.48308594 -8.37632812 191.96617187 -7.37890625 191.43359375 C16.68941824 179.45575364 49.67635669 177.3110131 75.6875 183 C80.06574929 184.56828608 83.91408866 186.11722412 86.6875 190 C87.375 192.75 87.375 192.75 86.6875 196 C78.3317275 209.3478794 59.74121571 214.93539177 45.93920898 220.95288086 C21.96824535 231.43481693 -3.50708085 244.94368395 -21.609375 264.2265625 C-23.33588656 266.02435206 -25.14850035 267.59250029 -27.0625 269.1875 C-48.27740535 287.63703831 -65.00853371 312.97748318 -75.3125 339 C-75.745625 340.08539062 -76.17875 341.17078125 -76.625 342.2890625 C-82.93732408 360.25133764 -82.07616481 379.08872244 -77.125 397.1875 C-74.86207121 405.52658573 -74.10595661 413.58691322 -78.0625 421.5 C-89.53837645 434.25097384 -89.53837645 434.25097384 -98.32397461 435.22241211 C-108.59653889 435.76221801 -118.24014943 435.91222852 -126.58203125 429.1640625 C-131.29859155 424.72794633 -134.88555026 420.42815529 -135.7109375 413.80078125 C-135.66131062 406.41464743 -135.01540721 399.51495988 -133.75 392.25 C-131.53812558 379.33674469 -132.50219659 368.83561955 -139.91796875 357.55859375 C-141.63863127 355.29456411 -143.4518671 353.14989095 -145.3125 351 C-145.88484375 350.24976563 -146.4571875 349.49953125 -147.046875 348.7265625 C-154.81736475 338.9968467 -167.10848122 332.28786354 -179.47900391 330.7265625 C-190.32933801 330.26209049 -200.82234502 333.92552255 -211.19262695 336.72753906 C-234.41222793 342.95445021 -234.41222793 342.95445021 -245.3125 341 C-249.0470349 337.99238281 -250.17828665 336.00660013 -250.8125 331.25 C-250.61359251 319.98460328 -242.59488841 310.17939538 -235 302.5546875 C-223.42856707 291.55509864 -209.40699226 285.25822592 -193.3125 284.625 C-178.94198696 285.21203076 -165.21375274 290.23892536 -154.25390625 299.640625 C-151.45681659 301.59915056 -148.47541021 302.71824854 -145.3125 304 C-156.19995458 271.40568285 -171.52529235 240.94261988 -192.31347656 213.45043945 C-203.51278042 198.52984792 -212.55771113 182.02917771 -221.34863281 165.61889648 C-235.74908303 138.74710574 -250.74795109 116.21167924 -272.609375 94.79296875 C-273.96482422 93.45927246 -273.96482422 93.45927246 -275.34765625 92.09863281 C-277.12151865 90.35986482 -278.90502182 88.63086337 -280.69921875 86.91308594 C-285.17600272 82.53708265 -288.52457152 79.06374043 -290.3125 73 C-290.25 69.75 -290.25 69.75 -289.3125 67 C-285.53220635 63.47897428 -282.63746929 63.49365237 -277.65625 63.6640625 C-247.02716639 66.74128352 -217.64920622 83.10781397 -193.12255859 100.74169922 C-191.18473755 102.12477225 -191.18473755 102.12477225 -188.5 103.63671875 C-186.14333364 105.10542689 -184.69278003 106.6094146 -182.9375 108.75 C-180.75253845 111.35226107 -178.55438724 113.75541779 -176.0625 116.0625 C-166.51250618 125.48401857 -159.35295816 137.66158773 -152.3125 149 C-151.68859375 149.99902344 -151.0646875 150.99804688 -150.421875 152.02734375 C-146.3125 158.71948014 -146.3125 158.71948014 -146.3125 161 C-145.6525 161 -144.9925 161 -144.3125 161 C-145.17317087 153.07412045 -146.25237477 145.21069187 -147.59375 137.3515625 C-147.70805862 136.6745076 -147.82236725 135.9974527 -147.94013977 135.29988098 C-148.63973062 131.15677372 -148.63973062 131.15677372 -149.36459351 127.01803589 C-151.96427526 112.43686606 -151.96427526 112.43686606 -150.3125 105 C-148.15894872 102.25915219 -147.55757425 102.03176888 -143.9375 101.5625 C-139.65171134 102.07975036 -138.43943035 103.10758942 -135.3125 106 C-129.87052734 113.33633023 -125.75790765 121.75747584 -121.5 129.8125 C-121.03190918 130.69542725 -120.56381836 131.57835449 -120.08154297 132.48803711 C-117.43738468 137.56468724 -115.20175695 142.59584639 -113.3125 148 C-110.94525752 141.91718274 -108.9112143 135.75322499 -106.90063477 129.54418945 C-98.36433889 103.24432154 -87.27692507 79.98157846 -70.3125 58 C-69.10191339 56.41838881 -67.89310405 54.83541249 -66.6875 53.25 C-66.24148438 52.67765625 -65.79546875 52.1053125 -65.3359375 51.515625 C-64.1139413 49.85237074 -64.1139413 49.85237074 -63.3125 47 C-61.90018349 45.82306958 -60.48411078 44.65027288 -59.046875 43.50390625 C-55.78130108 40.6722712 -53.10449654 37.28782679 -50.3125 34 C-45.8889815 28.82884457 -41.43190423 24.05417562 -36.22265625 19.66796875 C-34.41793379 18.0920659 -32.81782158 16.44040215 -31.1875 14.6875 C-27.8215646 11.25923246 -24.07754768 8.48400646 -20.1875 5.6875 C-19.58921387 5.2546167 -18.99092773 4.8217334 -18.37451172 4.37573242 C-12.64242369 0.33428386 -6.97855482 -3.01775344 0 0 Z " transform="translate(503.3125,420)" style="fill: #567A36;"/><path d="M0 0 C3.21838735 1.79630922 4.42788813 3.72719531 6.42578125 6.74609375 C8.17528602 9.17806787 10.21756346 10.83112396 12.6875 12.5 C13.3475 12.5 14.0075 12.5 14.6875 12.5 C14.76097656 11.34371094 14.76097656 11.34371094 14.8359375 10.1640625 C14.91070312 9.16117188 14.98546875 8.15828125 15.0625 7.125 C15.13210938 6.12726562 15.20171875 5.12953125 15.2734375 4.1015625 C15.6875 1.5 15.6875 1.5 17.6875 -0.5 C18.6775 -0.005 18.6775 -0.005 19.6875 0.5 C20.6775 0.62375 20.6775 0.62375 21.6875 0.75 C22.6775 1.12125 22.6775 1.12125 23.6875 1.5 C24.35416667 3.16666667 25.02083333 4.83333333 25.6875 6.5 C28.61666561 7.82284898 29.56572605 7.54059132 32.6875 6.5 C35.3882066 18.45206324 36.65753609 30.54366525 37.328125 42.7578125 C37.37893219 43.64329773 37.42973938 44.52878296 37.48208618 45.44110107 C37.68998845 49.08634547 37.89675561 52.73100143 38.06298828 56.37841797 C38.62143941 68.30549017 39.97996809 77.87579247 45.6875 88.5 C46.0175 88.5 46.3475 88.5 46.6875 88.5 C47.6775 83.22 48.6675 77.94 49.6875 72.5 C51.0075 72.17 52.3275 71.84 53.6875 71.5 C53.62691406 72.37398437 53.56632813 73.24796875 53.50390625 74.1484375 C53.37364327 76.06029727 53.24391832 77.97221238 53.12426758 79.88476562 C52.88627953 83.68201674 52.60562918 87.46892943 52.2578125 91.2578125 C52.12993039 92.83851921 52.00232101 94.419248 51.875 96 C51.79773682 96.74040527 51.72047363 97.48081055 51.64086914 98.24365234 C51.22311596 103.87600804 52.52367112 106.83104865 55.6875 111.5 C56.05101562 110.8709375 56.41453125 110.241875 56.7890625 109.59375 C59.64767443 104.72677994 62.60294778 100.08848529 66.0625 95.62890625 C67.96702699 93.13379276 69.75515553 90.56628795 71.5625 88 C74.11833215 84.38945784 76.54852864 81.73584519 80 79 C85.77315447 73.56577828 85.5556684 65.34227878 86.37792969 57.89111328 C86.8734102 54.06403431 87.43313621 50.15830296 88.6875 46.5 C89.3475 46.17 90.0075 45.84 90.6875 45.5 C90.6875 46.49 90.6875 47.48 90.6875 48.5 C91.3475 48.5 92.0075 48.5 92.6875 48.5 C94.95891454 53.89460953 94.89163361 58.76157749 94.6875 64.5 C97.23555026 63.3165959 98.79262447 62.39487553 100.8125 60.375 C103.31402919 57.87347081 104.17092254 58.5 107.6875 58.5 C108.6775 58.83 109.6675 59.16 110.6875 59.5 C109.43995909 63.24262273 108.17291088 63.7634161 104.9375 65.9375 C91.0332806 75.77879814 78.97301527 88.22323924 69.6875 102.5 C69.18605469 103.26699219 68.68460938 104.03398438 68.16796875 104.82421875 C61.08881831 116.12470956 52.68771386 130.61369706 53.6875 144.5 C55.04460834 148.06794655 56.7001923 150.81383943 58.890625 153.9296875 C63.04177337 159.86763452 62.97995899 166.48098423 62.6875 173.5 C64.3375 173.5 65.9875 173.5 67.6875 173.5 C67.6875 172.84 67.6875 172.18 67.6875 171.5 C69.0075 171.5 70.3275 171.5 71.6875 171.5 C72.19654657 169.62743583 72.69432455 167.75180659 73.1875 165.875 C73.4659375 164.83085938 73.744375 163.78671875 74.03125 162.7109375 C74.67868596 159.54312582 74.8036292 156.72258533 74.6875 153.5 C75.3475 153.17 76.0075 152.84 76.6875 152.5 C77.3475 152.83 78.0075 153.16 78.6875 153.5 C78.6875 152.18 78.6875 150.86 78.6875 149.5 C79.3475 149.17 80.0075 148.84 80.6875 148.5 C80.6875 147.51 80.6875 146.52 80.6875 145.5 C81.3475 145.5 82.0075 145.5 82.6875 145.5 C83.3475 144.18 84.0075 142.86 84.6875 141.5 C84.6875 142.82 84.6875 144.14 84.6875 145.5 C85.6775 145.5 86.6675 145.5 87.6875 145.5 C88.0175 144.84 88.3475 144.18 88.6875 143.5 C89.6775 142.84 90.6675 142.18 91.6875 141.5 C92.42093428 138.43443402 92.42093428 138.43443402 92.6875 135.5 C93.3475 135.5 94.0075 135.5 94.6875 135.5 C94.6875 134.84 94.6875 134.18 94.6875 133.5 C96.3375 133.17 97.9875 132.84 99.6875 132.5 C98.56753542 135.45785518 97.31574589 138.31029176 95.91796875 141.14453125 C83.87555502 165.58302726 79.57464606 189.00135902 86.875 215.6875 C89.13792879 224.02658573 89.89404339 232.08691322 85.9375 240 C74.46162355 252.75097384 74.46162355 252.75097384 65.67602539 253.72241211 C55.40346111 254.26221801 45.75985057 254.41222852 37.41796875 247.6640625 C32.70140845 243.22794633 29.11444974 238.92815529 28.2890625 232.30078125 C28.33868938 224.91464743 28.98459279 218.01495988 30.25 210.75 C32.46187442 197.83674469 31.49780341 187.33561955 24.08203125 176.05859375 C22.36136873 173.79456411 20.5481329 171.64989095 18.6875 169.5 C18.11515625 168.74976563 17.5428125 167.99953125 16.953125 167.2265625 C9.18263525 157.4968467 -3.10848122 150.78786354 -15.47900391 149.2265625 C-26.32933801 148.76209049 -36.82234502 152.42552255 -47.19262695 155.22753906 C-70.41222793 161.45445021 -70.41222793 161.45445021 -81.3125 159.5 C-85.0470349 156.49238281 -86.17828665 154.50660013 -86.8125 149.75 C-86.61359251 138.48460328 -78.59488841 128.67939538 -71 121.0546875 C-59.42856707 110.05509864 -45.40699226 103.75822592 -29.3125 103.125 C-14.58728275 103.72652031 -1.4793292 108.99185935 9.93359375 118.2109375 C12.66017308 120.21488222 15.52986587 121.3158872 18.6875 122.5 C17.52195193 116.4490696 16.23406904 110.46533774 14.6875 104.5 C15.3475 104.5 16.0075 104.5 16.6875 104.5 C16.3575 103.18 16.0275 101.86 15.6875 100.5 C15.0275 101.49 14.3675 102.48 13.6875 103.5 C12.93231781 101.78203573 12.20920909 100.04994751 11.5 98.3125 C11.09394531 97.34957031 10.68789063 96.38664063 10.26953125 95.39453125 C9.6875 92.5 9.6875 92.5 10.94921875 89.63671875 C11.52285156 88.93160156 12.09648437 88.22648438 12.6875 87.5 C13.3475 87.5 14.0075 87.5 14.6875 87.5 C14.34074219 86.93152344 13.99398437 86.36304688 13.63671875 85.77734375 C12.31428407 83.32490297 11.30364949 81.22312222 10.6875 78.5 C11.81366304 75.63529033 13.50727343 73.64572931 15.6875 71.5 C15.0275 71.5 14.3675 71.5 13.6875 71.5 C14.1825 69.52 14.1825 69.52 14.6875 67.5 C18.04370271 68.88877354 19.76048728 70.41677965 21.6875 73.5 C21.6875 74.16 21.6875 74.82 21.6875 75.5 C22.3475 75.5 23.0075 75.5 23.6875 75.5 C23.6875 76.16 23.6875 76.82 23.6875 77.5 C24.3475 77.5 25.0075 77.5 25.6875 77.5 C26.0175 78.16 26.3475 78.82 26.6875 79.5 C28.1725 79.995 28.1725 79.995 29.6875 80.5 C30.85546875 82.27734375 30.85546875 82.27734375 31.875 84.4375 C32.21917969 85.14777344 32.56335938 85.85804688 32.91796875 86.58984375 C33.6875 88.5 33.6875 88.5 33.6875 90.5 C34.3475 90.5 35.0075 90.5 35.6875 90.5 C37.34375 92.9140625 37.34375 92.9140625 39.1875 96.125 C39.7959375 97.16914062 40.404375 98.21328125 41.03125 99.2890625 C42.6875 102.5 42.6875 102.5 43.78125 105.8359375 C44.38803742 108.6430803 44.38803742 108.6430803 46.6875 109.5 C42.2303579 95.21688555 35.4898013 81.6372235 26.4375 69.6875 C21.60087737 63.28693951 18.04181685 56.45482949 16.6875 48.5 C16.0275 48.5 15.3675 48.5 14.6875 48.5 C14.23310547 46.94152344 14.23310547 46.94152344 13.76953125 45.3515625 C11.36922021 37.29669116 8.66532416 29.93079653 4.6875 22.5 C3.63009608 20.18692892 2.66297595 17.85001024 1.6875 15.5 C1.40777344 14.87996094 1.12804687 14.25992188 0.83984375 13.62109375 C-0.4579432 10.72974515 -1.3125 8.70797265 -1.3125 5.5 C-1.9725 5.5 -2.6325 5.5 -3.3125 5.5 C-3.8075 3.025 -3.8075 3.025 -4.3125 0.5 C-2.3125 -0.5 -2.3125 -0.5 0 0 Z " transform="translate(339.3125,601.5)" style="fill: #496530;"/><path d="M0 0 C26.03777523 6.88432588 49.57819243 19.12597644 71.35180664 34.78051758 C73.28962769 36.16359061 73.28962769 36.16359061 75.97436523 37.67553711 C78.3310316 39.14424525 79.78158521 40.64823296 81.53686523 42.78881836 C83.72182679 45.39107943 85.91997799 47.79423615 88.41186523 50.10131836 C97.96185906 59.52283693 105.12140707 71.70040609 112.16186523 83.03881836 C112.78577148 84.0378418 113.40967773 85.03686523 114.05249023 86.06616211 C118.16186523 92.7582985 118.16186523 92.7582985 118.16186523 95.03881836 C118.82186523 95.03881836 119.48186523 95.03881836 120.16186523 95.03881836 C119.30119436 87.11293881 118.22199046 79.24951023 116.88061523 71.39038086 C116.76630661 70.71332596 116.65199799 70.03627106 116.53422546 69.33869934 C115.83463461 65.19559208 115.83463461 65.19559208 115.10977173 61.05685425 C112.51008998 46.47568442 112.51008998 46.47568442 114.16186523 39.03881836 C116.31541652 36.29797055 116.91679098 36.07058724 120.53686523 35.60131836 C124.82265389 36.11856871 126.03493488 37.14640778 129.16186523 40.03881836 C137.42074239 51.17262111 145.80480758 65.85220888 150.16186523 79.03881836 C149.83186523 80.02881836 149.50186523 81.01881836 149.16186523 82.03881836 C148.83186523 80.71881836 148.50186523 79.39881836 148.16186523 78.03881836 C147.50186523 78.03881836 146.84186523 78.03881836 146.16186523 78.03881836 C145.83186523 77.04881836 145.50186523 76.05881836 145.16186523 75.03881836 C144.50186523 75.03881836 143.84186523 75.03881836 143.16186523 75.03881836 C143.16186523 74.04881836 143.16186523 73.05881836 143.16186523 72.03881836 C141.18186523 72.03881836 139.20186523 72.03881836 137.16186523 72.03881836 C137.90243164 73.6669043 137.90243164 73.6669043 138.65795898 75.32788086 C139.30546058 76.77302935 139.95257559 78.21835109 140.59936523 79.66381836 C140.92485352 80.37666992 141.2503418 81.08952148 141.58569336 81.82397461 C144.20859539 87.71874411 145.31201871 92.92746101 145.22436523 99.41381836 C145.2153418 100.28780273 145.20631836 101.16178711 145.19702148 102.06225586 C145.17961914 103.0406543 145.17961914 103.0406543 145.16186523 104.03881836 C141.90236827 100.28788955 140.30380405 95.96640933 138.47436523 91.41381836 C138.1540332 90.63780273 137.83370117 89.86178711 137.50366211 89.06225586 C135.16186523 83.31012366 135.16186523 83.31012366 135.16186523 81.03881836 C134.50186523 81.03881836 133.84186523 81.03881836 133.16186523 81.03881836 C133.30809326 82.08634277 133.45432129 83.13386719 133.60498047 84.21313477 C134.15570765 88.16741258 134.70027869 92.12251948 135.24316406 96.07788086 C135.47720997 97.77699957 135.71283888 99.47590113 135.95019531 101.17456055 C138.01253225 115.94664836 139.34078924 130.4757232 139.22436523 145.41381836 C139.21985352 146.54303711 139.2153418 147.67225586 139.21069336 148.83569336 C139.19910677 151.5701285 139.1827998 154.30444164 139.16186523 157.03881836 C138.50186523 156.70881836 137.84186523 156.37881836 137.16186523 156.03881836 C136.58349609 153.21899414 136.58349609 153.21899414 136.12670898 149.48413086 C136.00133507 148.49810379 136.00133507 148.49810379 135.87342834 147.49215698 C135.60675591 145.38368675 135.35251401 143.27395137 135.09936523 141.16381836 C134.84055704 139.061152 134.57915126 136.95885335 134.31459045 134.85690308 C134.07489327 132.94437988 133.84269103 131.03092184 133.61083984 129.11743164 C133.24978069 126.0092096 133.24978069 126.0092096 132.16186523 123.03881836 C129.68686523 123.53381836 129.68686523 123.53381836 127.16186523 124.03881836 C123.16186523 119.28881836 123.16186523 119.28881836 123.16186523 117.03881836 C121.50571866 116.65663069 119.83729499 116.32486734 118.16186523 116.03881836 C116.42229865 117.77838494 116.78996138 120.23248056 116.59936523 122.60131836 C116.51557617 123.61323242 116.43178711 124.62514648 116.34545898 125.66772461 C116.28487305 126.45018555 116.22428711 127.23264648 116.16186523 128.03881836 C114.84186523 128.36881836 113.52186523 128.69881836 112.16186523 129.03881836 C111.75967773 128.07975586 111.75967773 128.07975586 111.34936523 127.10131836 C110.27518771 124.7075015 110.27518771 124.7075015 107.16186523 124.03881836 C105.8100626 122.30986703 104.69790111 120.49619627 103.54077148 118.63256836 C101.85885418 116.68859595 100.66026077 116.4207387 98.16186523 116.03881836 C97.83186523 117.68881836 97.50186523 119.33881836 97.16186523 121.03881836 C97.82186523 121.03881836 98.48186523 121.03881836 99.16186523 121.03881836 C99.38100586 121.62147461 99.60014648 122.20413086 99.82592773 122.80444336 C101.69062906 127.6253785 103.73093695 132.2552211 106.09936523 136.85131836 C110.4976538 145.52510064 114.58468478 154.2267507 115.16186523 164.03881836 C115.82186523 164.03881836 116.48186523 164.03881836 117.16186523 164.03881836 C117.9549789 165.76732181 118.74629113 167.4966519 119.53686523 169.22631836 C119.97772461 170.18924805 120.41858398 171.15217773 120.87280273 172.14428711 C121.67412143 173.94361182 122.42963159 175.76498308 123.11108398 177.61303711 C124.2911389 180.3372531 125.7691959 182.32759389 127.59936523 184.66381836 C135.94957827 195.93965348 144.76413626 209.27365993 148.16186523 223.03881836 C147.83186523 224.02881836 147.50186523 225.01881836 147.16186523 226.03881836 C143.57923326 223.07388155 142.39383174 220.33140978 140.95483398 216.07006836 C140.16215079 214.03954984 139.21934694 212.44610796 137.97436523 210.66381836 C136.16186523 208.03881836 136.16186523 208.03881836 136.16186523 206.03881836 C135.50186523 206.03881836 134.84186523 206.03881836 134.16186523 206.03881836 C133.49031591 204.74968349 132.82477664 203.45741632 132.16186523 202.16381836 C131.79061523 201.44452148 131.41936523 200.72522461 131.03686523 199.98413086 C130.16186523 198.03881836 130.16186523 198.03881836 130.16186523 196.03881836 C128.84186523 195.70881836 127.52186523 195.37881836 126.16186523 195.03881836 C126.16186523 194.37881836 126.16186523 193.71881836 126.16186523 193.03881836 C125.50186523 193.03881836 124.84186523 193.03881836 124.16186523 193.03881836 C124.16186523 192.37881836 124.16186523 191.71881836 124.16186523 191.03881836 C123.50186523 191.03881836 122.84186523 191.03881836 122.16186523 191.03881836 C121.52249023 190.06944336 120.88311523 189.10006836 120.22436523 188.10131836 C118.45125516 184.79626611 118.45125516 184.79626611 115.16186523 184.03881836 C114.83186523 185.02881836 114.50186523 186.01881836 114.16186523 187.03881836 C114.82186523 187.03881836 115.48186523 187.03881836 116.16186523 187.03881836 C115.03734796 190.01075686 113.93892732 192.37322523 112.16186523 195.03881836 C112.65686523 195.80194336 113.15186523 196.56506836 113.66186523 197.35131836 C115.16186523 200.03881836 115.16186523 200.03881836 115.16186523 203.03881836 C114.50186523 203.36881836 113.84186523 203.69881836 113.16186523 204.03881836 C111.84637461 205.7936727 111.84637461 205.7936727 111.16186523 208.03881836 C111.561501 210.44260756 111.561501 210.44260756 112.53686523 212.78881836 C112.83334961 213.58803711 113.12983398 214.38725586 113.43530273 215.21069336 C113.67506836 215.81397461 113.91483398 216.41725586 114.16186523 217.03881836 C115.15186523 216.37881836 116.14186523 215.71881836 117.16186523 215.03881836 C117.13866211 215.70268555 117.11545898 216.36655273 117.09155273 217.05053711 C116.99153268 221.94437535 117.10072085 225.53006502 119.16186523 230.03881836 C119.28686523 232.85131836 119.28686523 232.85131836 119.16186523 235.03881836 C117.60712404 232.05107185 116.33634142 229.02647123 115.13061523 225.88256836 C104.92059491 199.57857425 92.29826928 175.08238867 75.53295898 152.30053711 C71.17969062 146.37349242 67.18826775 140.19021774 63.16186523 134.03881836 C62.22020508 132.6040918 62.22020508 132.6040918 61.25952148 131.14038086 C54.66363584 120.93994093 48.84399948 110.34245444 43.11474609 99.64013672 C28.72822447 72.77133322 13.71862178 50.24286303 -8.13500977 28.83178711 C-9.03864258 27.94265625 -9.94227539 27.05352539 -10.87329102 26.13745117 C-12.64715341 24.39868317 -14.43065658 22.66968173 -16.22485352 20.9519043 C-20.70163749 16.57590101 -24.05020628 13.10255879 -25.83813477 7.03881836 C-25.77563477 3.78881836 -25.77563477 3.78881836 -24.83813477 1.03881836 C-18.22410037 -5.12159864 -7.96956671 -1.94059718 0 0 Z " transform="translate(238.838134765625,485.961181640625)" style="fill: #91A243;"/><path d="M0 0 C2.64040167 3.12936494 2.93182631 6.05319042 2.6875 10 C1.07200384 17.8402401 -2.17041655 25.18360847 -5.1875 32.5625 C-12.40195818 50.28104881 -16.59713978 68.27749852 -20.3125 87 C-28.99151235 130.51851852 -28.99151235 130.51851852 -35.3125 140 C-35.60125 139.030625 -35.89 138.06125 -36.1875 137.0625 C-36.95464682 133.89335797 -36.95464682 133.89335797 -39.3125 133 C-38.9825 131.68 -38.6525 130.36 -38.3125 129 C-37.9825 129.66 -37.6525 130.32 -37.3125 131 C-36.6525 131 -35.9925 131 -35.3125 131 C-35.3125 128.36 -35.3125 125.72 -35.3125 123 C-38.56790246 125.12496618 -39.95008468 126.75204765 -41.27734375 130.39453125 C-41.59985107 131.26126465 -41.9223584 132.12799805 -42.25463867 133.02099609 C-42.58310791 133.94219238 -42.91157715 134.86338867 -43.25 135.8125 C-43.59844971 136.75432129 -43.94689941 137.69614258 -44.3059082 138.66650391 C-45.84454112 142.84488177 -47.33640124 147.03687711 -48.765625 151.25390625 C-49.17296875 152.44886719 -49.5803125 153.64382813 -50 154.875 C-50.33386719 155.90367187 -50.66773438 156.93234375 -51.01171875 157.9921875 C-52.36123278 161.11268542 -54.01200078 163.45853286 -56.03051758 166.16552734 C-58.16224281 169.21595266 -59.70961171 172.52548835 -61.3125 175.875 C-62.00132237 177.2792753 -62.69142112 178.68292526 -63.3828125 180.0859375 C-63.7118457 180.75592773 -64.04087891 181.42591797 -64.37988281 182.11621094 C-65.60935149 184.59960892 -66.87743798 187.05816843 -68.1875 189.5 C-68.55617188 190.1909375 -68.92484375 190.881875 -69.3046875 191.59375 C-69.63726562 192.0578125 -69.96984375 192.521875 -70.3125 193 C-70.9725 193 -71.6325 193 -72.3125 193 C-72.42118408 193.55921143 -72.52986816 194.11842285 -72.6418457 194.69458008 C-73.42620388 197.39086484 -74.60832474 199.47243035 -76.04296875 201.88671875 C-76.87731445 203.2953418 -76.87731445 203.2953418 -77.72851562 204.73242188 C-78.31310547 205.70759766 -78.89769531 206.68277344 -79.5 207.6875 C-80.34788086 209.12125977 -80.34788086 209.12125977 -81.21289062 210.58398438 C-83.94199598 215.17000678 -86.72242447 219.72097668 -89.61328125 224.20703125 C-90.08548096 224.94026611 -90.55768066 225.67350098 -91.04418945 226.42895508 C-91.46273193 226.9473999 -91.88127441 227.46584473 -92.3125 228 C-92.9725 228 -93.6325 228 -94.3125 228 C-94.6425 228.66 -94.9725 229.32 -95.3125 230 C-95.6425 229.67 -95.9725 229.34 -96.3125 229 C-97.3025 229.99 -97.3025 229.99 -98.3125 231 C-97.77947208 222.64922918 -93.45712421 216.74937465 -89 209.875 C-85.84382074 204.97677374 -83.0837428 199.94750747 -80.3815918 194.79223633 C-76.86465099 188.09489179 -73.10417092 181.54466603 -69.3125 175 C-69.9725 174.67 -70.6325 174.34 -71.3125 174 C-71.415625 174.928125 -71.51875 175.85625 -71.625 176.8125 C-72.35219512 180.18404102 -72.84205057 180.8260045 -75.3125 183 C-76.48824711 185.09989652 -76.48824711 185.09989652 -77.3125 187 C-78.3025 187 -79.2925 187 -80.3125 187 C-81.3025 184.525 -81.3025 184.525 -82.3125 182 C-80.9925 181.67 -79.6725 181.34 -78.3125 181 C-78.6425 180.01 -78.9725 179.02 -79.3125 178 C-78.98645931 174.85200765 -78.23432524 171.77836267 -77.5625 168.6875 C-77.39234375 167.84509766 -77.2221875 167.00269531 -77.046875 166.13476562 C-76.02599186 161.33436293 -74.69747626 157.33454813 -72.3125 153 C-71.61278027 151.01132287 -70.93585603 149.01391949 -70.3125 147 C-69.6525 147 -68.9925 147 -68.3125 147 C-68.3125 147.66 -68.3125 148.32 -68.3125 149 C-67.6525 149 -66.9925 149 -66.3125 149 C-66.3125 147.35 -66.3125 145.7 -66.3125 144 C-67.3025 143.67 -68.2925 143.34 -69.3125 143 C-70.85040219 136.56877267 -69.49978576 132.1412254 -67.3125 126 C-66.74789062 124.40285156 -66.74789062 124.40285156 -66.171875 122.7734375 C-65.33327343 120.42216855 -64.48797842 118.07327834 -63.63671875 115.7265625 C-62.2765965 111.89896183 -61.00753994 108.04949307 -59.75 104.1875 C-58.16373355 99.38408691 -56.4372566 94.7844294 -54.29296875 90.20703125 C-52.3814078 85.90411516 -50.87268414 81.43988573 -49.3125 77 C-52.62789241 79.77664114 -54.35131218 83.48245498 -56.3125 87.25 C-56.65539062 87.89324219 -56.99828125 88.53648437 -57.3515625 89.19921875 C-59.01807829 92.36051015 -60.56375649 95.52272554 -61.93359375 98.82421875 C-63.3125 102 -63.3125 102 -65.375 104.5625 C-67.55025196 107.2991073 -68.36764039 109.65665061 -69.3125 113 C-69.8075 114.485 -69.8075 114.485 -70.3125 116 C-73.375 117.1875 -73.375 117.1875 -76.3125 118 C-76.3125 117.01 -76.3125 116.02 -76.3125 115 C-79.6125 115 -82.9125 115 -86.3125 115 C-86.6425 116.98 -86.9725 118.96 -87.3125 121 C-87.93125 121.04125 -88.55 121.0825 -89.1875 121.125 C-89.88875 121.41375 -90.59 121.7025 -91.3125 122 C-92.03503742 123.98050098 -92.69234563 125.98509231 -93.3125 128 C-94.1066946 129.96582823 -94.91950056 131.92423185 -95.75 133.875 C-97.71934149 138.54781621 -99.57236697 143.23753066 -101.3125 148 C-103.2996651 143.00724768 -100.70958412 138.33453912 -99.125 133.5078125 C-98.27692226 129.84639995 -98.56075352 127.62912095 -99.3125 124 C-98.375 121.125 -98.375 121.125 -97.3125 119 C-98.6325 119 -99.9525 119 -101.3125 119 C-101.621875 120.093125 -101.93125 121.18625 -102.25 122.3125 C-102.89587897 124.55407994 -103.5748117 126.7869351 -104.3125 129 C-103.6525 129 -102.9925 129 -102.3125 129 C-101.8175 128.01 -101.8175 128.01 -101.3125 127 C-101.90937434 130.34249629 -103.04853877 132.46436342 -105.3125 135 C-105.9725 135 -106.6325 135 -107.3125 135 C-106.9825 136.32 -106.6525 137.64 -106.3125 139 C-106.9725 139 -107.6325 139 -108.3125 139 C-108.6425 141.64 -108.9725 144.28 -109.3125 147 C-109.9725 147 -110.6325 147 -111.3125 147 C-110.40795908 139.54976492 -108.1384149 132.76964865 -105.75 125.6875 C-105.52496796 125.01737885 -105.29993591 124.34725769 -105.06808472 123.65682983 C-96.94005785 99.54978792 -85.88120897 78.17308552 -70.3125 58 C-69.10191339 56.41838881 -67.89310405 54.83541249 -66.6875 53.25 C-66.24148438 52.67765625 -65.79546875 52.1053125 -65.3359375 51.515625 C-64.1139413 49.85237074 -64.1139413 49.85237074 -63.3125 47 C-61.90018349 45.82306958 -60.48411078 44.65027288 -59.046875 43.50390625 C-55.78130108 40.6722712 -53.10449654 37.28782679 -50.3125 34 C-45.8889815 28.82884457 -41.43190423 24.05417562 -36.22265625 19.66796875 C-34.41793379 18.0920659 -32.81782158 16.44040215 -31.1875 14.6875 C-27.8215646 11.25923246 -24.07754768 8.48400646 -20.1875 5.6875 C-19.58921387 5.2546167 -18.99092773 4.8217334 -18.37451172 4.37573242 C-12.64242369 0.33428386 -6.97855482 -3.01775344 0 0 Z " transform="translate(503.3125,420)" style="fill: #A8B34C;"/><path d="M0 0 C26.03777523 6.88432588 49.57819243 19.12597644 71.35180664 34.78051758 C73.28962769 36.16359061 73.28962769 36.16359061 75.97436523 37.67553711 C78.3310316 39.14424525 79.78158521 40.64823296 81.53686523 42.78881836 C83.72182679 45.39107943 85.91997799 47.79423615 88.41186523 50.10131836 C97.96185906 59.52283693 105.12140707 71.70040609 112.16186523 83.03881836 C112.78577148 84.0378418 113.40967773 85.03686523 114.05249023 86.06616211 C118.16186523 92.7582985 118.16186523 92.7582985 118.16186523 95.03881836 C118.82186523 95.03881836 119.48186523 95.03881836 120.16186523 95.03881836 C119.30119436 87.11293881 118.22199046 79.24951023 116.88061523 71.39038086 C116.76630661 70.71332596 116.65199799 70.03627106 116.53422546 69.33869934 C115.83463461 65.19559208 115.83463461 65.19559208 115.10977173 61.05685425 C112.51008998 46.47568442 112.51008998 46.47568442 114.16186523 39.03881836 C116.31541652 36.29797055 116.91679098 36.07058724 120.53686523 35.60131836 C124.82265389 36.11856871 126.03493488 37.14640778 129.16186523 40.03881836 C137.42074239 51.17262111 145.80480758 65.85220888 150.16186523 79.03881836 C149.83186523 80.02881836 149.50186523 81.01881836 149.16186523 82.03881836 C148.83186523 80.71881836 148.50186523 79.39881836 148.16186523 78.03881836 C147.50186523 78.03881836 146.84186523 78.03881836 146.16186523 78.03881836 C145.83186523 77.04881836 145.50186523 76.05881836 145.16186523 75.03881836 C144.50186523 75.03881836 143.84186523 75.03881836 143.16186523 75.03881836 C143.16186523 74.04881836 143.16186523 73.05881836 143.16186523 72.03881836 C141.18186523 72.03881836 139.20186523 72.03881836 137.16186523 72.03881836 C137.90243164 73.6669043 137.90243164 73.6669043 138.65795898 75.32788086 C139.30546058 76.77302935 139.95257559 78.21835109 140.59936523 79.66381836 C140.92485352 80.37666992 141.2503418 81.08952148 141.58569336 81.82397461 C144.20859539 87.71874411 145.31201871 92.92746101 145.22436523 99.41381836 C145.2153418 100.28780273 145.20631836 101.16178711 145.19702148 102.06225586 C145.17961914 103.0406543 145.17961914 103.0406543 145.16186523 104.03881836 C141.90236827 100.28788955 140.30380405 95.96640933 138.47436523 91.41381836 C138.1540332 90.63780273 137.83370117 89.86178711 137.50366211 89.06225586 C135.16186523 83.31012366 135.16186523 83.31012366 135.16186523 81.03881836 C134.50186523 81.03881836 133.84186523 81.03881836 133.16186523 81.03881836 C133.30809326 82.08634277 133.45432129 83.13386719 133.60498047 84.21313477 C134.15570765 88.16741258 134.70027869 92.12251948 135.24316406 96.07788086 C135.47720997 97.77699957 135.71283888 99.47590113 135.95019531 101.17456055 C138.01253225 115.94664836 139.34078924 130.4757232 139.22436523 145.41381836 C139.21985352 146.54303711 139.2153418 147.67225586 139.21069336 148.83569336 C139.19910677 151.5701285 139.1827998 154.30444164 139.16186523 157.03881836 C138.50186523 156.70881836 137.84186523 156.37881836 137.16186523 156.03881836 C136.67579651 153.91371155 136.67579651 153.91371155 136.33984375 151.0703125 C136.20953262 150.00732437 136.0792215 148.94433624 135.94496155 147.84913635 C135.81157883 146.68583298 135.67819611 145.5225296 135.54077148 144.32397461 C135.39534409 143.12510117 135.24991669 141.92622772 135.1000824 140.69102478 C134.63281692 136.82877549 134.17787977 132.96520451 133.72436523 129.10131836 C131.41951809 109.21846809 131.41951809 109.21846809 128.56420898 89.40991211 C128.45162247 88.68820328 128.33903595 87.96649445 128.22303772 87.22291565 C127.65386626 83.86528388 127.08607331 81.92513047 125.16186523 79.03881836 C124.50186523 80.68881836 123.84186523 82.33881836 123.16186523 84.03881836 C122.50186523 84.03881836 121.84186523 84.03881836 121.16186523 84.03881836 C121.3900293 85.29178711 121.61819336 86.54475586 121.85327148 87.83569336 C122.14406661 89.48665925 122.43440748 91.1377052 122.72436523 92.78881836 C122.87583008 93.61381836 123.02729492 94.43881836 123.18334961 95.28881836 C123.39121094 96.48764648 123.39121094 96.48764648 123.60327148 97.71069336 C123.73419189 98.44384766 123.8651123 99.17700195 124 99.93237305 C124.17433935 102.20115123 123.8306133 103.87660415 123.16186523 106.03881836 C122.21785482 104.24845378 121.2738444 102.45808919 120.32983398 100.66772461 C119.17166724 98.71613849 119.17166724 98.71613849 116.16186523 98.03881836 C116.05874023 97.39944336 115.95561523 96.76006836 115.84936523 96.10131836 C115.50905273 95.08038086 115.50905273 95.08038086 115.16186523 94.03881836 C112.47875689 92.90595039 109.98683931 92.16272131 107.10717773 91.73022461 C104.45925835 90.78909664 104.07037712 89.65912266 102.84936523 87.16381836 C98.12100918 78.04172838 92.94847349 68.25132629 84.34936523 62.28881836 C83.29749023 61.54631836 82.24561523 60.80381836 81.16186523 60.03881836 C81.16186523 59.37881836 81.16186523 58.71881836 81.16186523 58.03881836 C80.59346924 57.77456055 80.02507324 57.51030273 79.43945312 57.23803711 C77.01038055 55.9590571 74.92127722 54.49131848 72.72045898 52.85131836 C71.8896582 52.23514648 71.05885742 51.61897461 70.20288086 50.98413086 C68.91414063 50.02120117 68.91414063 50.02120117 67.59936523 49.03881836 C65.89014138 47.76743154 64.18052262 46.49657542 62.47045898 45.22631836 C61.71563232 44.66299805 60.96080566 44.09967773 60.18310547 43.51928711 C56.77314154 41.0216399 54.32497786 39.7139177 50.16186523 39.03881836 C50.16186523 38.37881836 50.16186523 37.71881836 50.16186523 37.03881836 C48.84186523 37.36881836 47.52186523 37.69881836 46.16186523 38.03881836 C45.17186523 35.56381836 45.17186523 35.56381836 44.16186523 33.03881836 C42.84186523 33.03881836 41.52186523 33.03881836 40.16186523 33.03881836 C40.16186523 32.37881836 40.16186523 31.71881836 40.16186523 31.03881836 C39.17186523 31.03881836 38.18186523 31.03881836 37.16186523 31.03881836 C37.16186523 30.37881836 37.16186523 29.71881836 37.16186523 29.03881836 C36.17186523 29.36881836 35.18186523 29.69881836 34.16186523 30.03881836 C33.17186523 29.70881836 32.18186523 29.37881836 31.16186523 29.03881836 C31.16186523 28.37881836 31.16186523 27.71881836 31.16186523 27.03881836 C30.50186523 27.03881836 29.84186523 27.03881836 29.16186523 27.03881836 C29.16186523 26.37881836 29.16186523 25.71881836 29.16186523 25.03881836 C28.27499023 24.79131836 27.38811523 24.54381836 26.47436523 24.28881836 C23.03030267 22.98917211 20.8316172 21.55152609 18.16186523 19.03881836 C18.16186523 18.37881836 18.16186523 17.71881836 18.16186523 17.03881836 C16.18186523 17.03881836 14.20186523 17.03881836 12.16186523 17.03881836 C12.16186523 16.37881836 12.16186523 15.71881836 12.16186523 15.03881836 C11.17186523 15.03881836 10.18186523 15.03881836 9.16186523 15.03881836 C9.16186523 14.37881836 9.16186523 13.71881836 9.16186523 13.03881836 C6.52186523 13.03881836 3.88186523 13.03881836 1.16186523 13.03881836 C1.16186523 12.37881836 1.16186523 11.71881836 1.16186523 11.03881836 C0.50186523 11.69881836 -0.15813477 12.35881836 -0.83813477 13.03881836 C-0.82430612 15.09596668 -0.82430612 15.09596668 0.16186523 17.03881836 C0.75741211 17.31854492 1.35295898 17.59827148 1.96655273 17.88647461 C4.71720529 19.33032248 6.15879464 21.10525942 8.16186523 23.47631836 C11.57013252 27.38744475 15.11938902 30.82778055 19.03686523 34.22631836 C35.437787 48.89128158 46.16329519 70.27827752 55.58813477 89.8359375 C57.84109939 94.50332714 60.39747049 98.88039524 63.22827148 103.21850586 C63.53635742 103.81920898 63.84444336 104.41991211 64.16186523 105.03881836 C63.83186523 105.69881836 63.50186523 106.35881836 63.16186523 107.03881836 C62.55600586 106.16741211 61.95014648 105.29600586 61.32592773 104.39819336 C57.02524366 98.2675968 52.65923859 92.29248543 47.78686523 86.60131836 C44.36052039 82.57697937 41.52352776 78.7621434 39.16186523 74.03881836 C37.18186523 75.02881836 37.18186523 75.02881836 35.16186523 76.03881836 C35.16186523 78.34881836 35.16186523 80.65881836 35.16186523 83.03881836 C32.14000533 80.42109778 30.59765215 77.35214918 28.72436523 73.85131836 C19.14366154 56.648011 5.84739486 42.53103551 -8.13500977 28.83178711 C-9.03864258 27.94265625 -9.94227539 27.05352539 -10.87329102 26.13745117 C-12.64715341 24.39868317 -14.43065658 22.66968173 -16.22485352 20.9519043 C-20.70163749 16.57590101 -24.05020628 13.10255879 -25.83813477 7.03881836 C-25.77563477 3.78881836 -25.77563477 3.78881836 -24.83813477 1.03881836 C-18.22410037 -5.12159864 -7.96956671 -1.94059718 0 0 Z " transform="translate(238.838134765625,485.961181640625)" style="fill: #C4B35C;"/><path d="M0 0 C3.21838735 1.79630922 4.42788813 3.72719531 6.42578125 6.74609375 C8.17528602 9.17806787 10.21756346 10.83112396 12.6875 12.5 C13.3475 12.5 14.0075 12.5 14.6875 12.5 C14.73648437 11.72914063 14.78546875 10.95828125 14.8359375 10.1640625 C14.91070312 9.16117188 14.98546875 8.15828125 15.0625 7.125 C15.13210938 6.12726562 15.20171875 5.12953125 15.2734375 4.1015625 C15.6875 1.5 15.6875 1.5 17.6875 -0.5 C18.3475 -0.17 19.0075 0.16 19.6875 0.5 C20.3475 0.5825 21.0075 0.665 21.6875 0.75 C22.3475 0.9975 23.0075 1.245 23.6875 1.5 C24.35416667 3.16666667 25.02083333 4.83333333 25.6875 6.5 C28.61666561 7.82284898 29.56572605 7.54059132 32.6875 6.5 C35.3882066 18.45206324 36.65753609 30.54366525 37.328125 42.7578125 C37.37893219 43.64329773 37.42973938 44.52878296 37.48208618 45.44110107 C37.68998845 49.08634547 37.89675561 52.73100143 38.06298828 56.37841797 C38.62143941 68.30549017 39.97996809 77.87579247 45.6875 88.5 C46.0175 88.5 46.3475 88.5 46.6875 88.5 C48.1725 80.58 48.1725 80.58 49.6875 72.5 C51.6675 72.005 51.6675 72.005 53.6875 71.5 C53.59662109 72.81097656 53.59662109 72.81097656 53.50390625 74.1484375 C53.37364327 76.06029727 53.24391832 77.97221238 53.12426758 79.88476562 C52.88627953 83.68201674 52.60562918 87.46892943 52.2578125 91.2578125 C52.12993039 92.83851921 52.00232101 94.419248 51.875 96 C51.79773682 96.74040527 51.72047363 97.48081055 51.64086914 98.24365234 C51.22311596 103.87600804 52.52367112 106.83104865 55.6875 111.5 C56.05101562 110.8709375 56.41453125 110.241875 56.7890625 109.59375 C59.64767443 104.72677994 62.60294778 100.08848529 66.0625 95.62890625 C67.96702699 93.13379276 69.75515553 90.56628795 71.5625 88 C74.11833215 84.38945784 76.54852864 81.73584519 80 79 C85.77315447 73.56577828 85.5556684 65.34227878 86.37792969 57.89111328 C86.8734102 54.06403431 87.43313621 50.15830296 88.6875 46.5 C89.3475 46.17 90.0075 45.84 90.6875 45.5 C90.6875 46.49 90.6875 47.48 90.6875 48.5 C91.3475 48.5 92.0075 48.5 92.6875 48.5 C94.95891454 53.89460953 94.89163361 58.76157749 94.6875 64.5 C97.23555026 63.3165959 98.79262447 62.39487553 100.8125 60.375 C103.31402919 57.87347081 104.17092254 58.5 107.6875 58.5 C109.1725 58.995 109.1725 58.995 110.6875 59.5 C109.43995909 63.24262273 108.17291088 63.7634161 104.9375 65.9375 C91.0332806 75.77879814 78.97301527 88.22323924 69.6875 102.5 C69.18605469 103.26699219 68.68460937 104.03398438 68.16796875 104.82421875 C61.08881831 116.12470956 52.68771386 130.61369706 53.6875 144.5 C55.40143941 149.00608403 57.93225219 152.57676671 60.6875 156.5 C63.46740997 162.80191456 62.88991907 169.75269773 62.6875 176.5 C62.0275 176.83 61.3675 177.16 60.6875 177.5 C60.56375 176.72398437 60.44 175.94796875 60.3125 175.1484375 C57.92037678 162.61969214 51.76606092 149.46151039 41.2578125 141.70703125 C35.04038228 137.57675536 28.53924792 134.42437918 21.6875 131.5 C21.0275 131.17 20.3675 130.84 19.6875 130.5 C19.6875 129.51 19.6875 128.52 19.6875 127.5 C22.1625 127.005 22.1625 127.005 24.6875 126.5 C23.0375 126.17 21.3875 125.84 19.6875 125.5 C20.6775 125.005 20.6775 125.005 21.6875 124.5 C21.254375 123.88125 20.82125 123.2625 20.375 122.625 C17.32651627 116.97965976 15.87568079 110.77718151 14.6875 104.5 C15.3475 104.5 16.0075 104.5 16.6875 104.5 C16.3575 103.18 16.0275 101.86 15.6875 100.5 C15.0275 101.49 14.3675 102.48 13.6875 103.5 C12.93231781 101.78203573 12.20920909 100.04994751 11.5 98.3125 C11.09394531 97.34957031 10.68789063 96.38664063 10.26953125 95.39453125 C9.6875 92.5 9.6875 92.5 10.94921875 89.63671875 C11.52285156 88.93160156 12.09648437 88.22648438 12.6875 87.5 C13.3475 87.5 14.0075 87.5 14.6875 87.5 C14.34074219 86.93152344 13.99398438 86.36304688 13.63671875 85.77734375 C12.31428407 83.32490297 11.30364949 81.22312222 10.6875 78.5 C11.81366304 75.63529033 13.50727343 73.64572931 15.6875 71.5 C15.0275 71.5 14.3675 71.5 13.6875 71.5 C14.0175 70.18 14.3475 68.86 14.6875 67.5 C18.04370271 68.88877354 19.76048728 70.41677965 21.6875 73.5 C21.6875 74.16 21.6875 74.82 21.6875 75.5 C22.3475 75.5 23.0075 75.5 23.6875 75.5 C23.6875 76.16 23.6875 76.82 23.6875 77.5 C24.3475 77.5 25.0075 77.5 25.6875 77.5 C26.1825 78.49 26.1825 78.49 26.6875 79.5 C27.6775 79.83 28.6675 80.16 29.6875 80.5 C30.85546875 82.27734375 30.85546875 82.27734375 31.875 84.4375 C32.39126953 85.50291016 32.39126953 85.50291016 32.91796875 86.58984375 C33.6875 88.5 33.6875 88.5 33.6875 90.5 C34.3475 90.5 35.0075 90.5 35.6875 90.5 C37.34375 92.9140625 37.34375 92.9140625 39.1875 96.125 C39.7959375 97.16914062 40.404375 98.21328125 41.03125 99.2890625 C42.6875 102.5 42.6875 102.5 43.78125 105.8359375 C44.38803742 108.6430803 44.38803742 108.6430803 46.6875 109.5 C42.2303579 95.21688555 35.4898013 81.6372235 26.4375 69.6875 C21.60087737 63.28693951 18.04181685 56.45482949 16.6875 48.5 C16.0275 48.5 15.3675 48.5 14.6875 48.5 C14.38457031 47.46101562 14.08164062 46.42203125 13.76953125 45.3515625 C11.36922021 37.29669116 8.66532416 29.93079653 4.6875 22.5 C3.63009608 20.18692892 2.66297595 17.85001024 1.6875 15.5 C1.40777344 14.87996094 1.12804687 14.25992188 0.83984375 13.62109375 C-0.4579432 10.72974515 -1.3125 8.70797265 -1.3125 5.5 C-1.9725 5.5 -2.6325 5.5 -3.3125 5.5 C-3.6425 3.85 -3.9725 2.2 -4.3125 0.5 C-2.3125 -0.5 -2.3125 -0.5 0 0 Z " transform="translate(339.3125,601.5)" style="fill: #3B612B;"/><path d="M0 0 C-1.11996458 2.95785518 -2.37175411 5.81029176 -3.76953125 8.64453125 C-15.81194498 33.08302726 -20.11285394 56.50135902 -12.8125 83.1875 C-10.54957121 91.52658573 -9.79345661 99.58691322 -13.75 107.5 C-25.22587645 120.25097384 -25.22587645 120.25097384 -34.01147461 121.22241211 C-44.28403889 121.76221801 -53.92764943 121.91222852 -62.26953125 115.1640625 C-66.98609155 110.72794633 -70.57305026 106.42815529 -71.3984375 99.80078125 C-71.34881204 92.41485919 -70.70382987 85.5146967 -69.4375 78.25 C-67.63770409 67.81553053 -67.74914754 59.80705619 -72.16015625 49.99609375 C-73 48 -73 48 -73 46 C-72.01 46.33 -71.02 46.66 -70 47 C-70.33 47.66 -70.66 48.32 -71 49 C-70.01 49.33 -69.02 49.66 -68 50 C-68 51.32 -68 52.64 -68 54 C-67.0925 54.020625 -66.185 54.04125 -65.25 54.0625 C-61.62276269 55.10881846 -61.36742851 55.45370668 -59.625 58.5625 C-59.08875 59.696875 -58.5525 60.83125 -58 62 C-53.85351967 61.52155996 -50.68439654 60.90162402 -47 59 C-45.453125 58.8453125 -45.453125 58.8453125 -43.875 58.6875 C-42.451875 58.3471875 -42.451875 58.3471875 -41 58 C-39.54708727 55.53744315 -39.54708727 55.53744315 -39 53 C-37.35 53 -35.7 53 -34 53 C-34 53.66 -34 54.32 -34 55 C-33.01 54.67 -32.02 54.34 -31 54 C-30.01 54.495 -30.01 54.495 -29 55 C-29 54.34 -29 53.68 -29 53 C-28.01 53 -27.02 53 -26 53 C-25.98582031 51.90300781 -25.97164063 50.80601562 -25.95703125 49.67578125 C-25.91011292 48.22131302 -25.86186562 46.76688723 -25.8125 45.3125 C-25.80669922 44.59126953 -25.80089844 43.87003906 -25.79492188 43.12695312 C-25.61947196 38.85767192 -25.32567086 37.38551849 -22.44921875 33.98046875 C-21.64097656 33.32691406 -20.83273437 32.67335938 -20 32 C-19.34 32.66 -18.68 33.32 -18 34 C-17.505 33.01 -17.505 33.01 -17 32 C-16.34 32 -15.68 32 -15 32 C-15.495 28.535 -15.495 28.535 -16 25 C-17.65 25 -19.3 25 -21 25 C-20.855625 24.38511719 -20.71125 23.77023437 -20.5625 23.13671875 C-20.2840625 21.92435547 -20.2840625 21.92435547 -20 20.6875 C-19.7215625 19.48673828 -19.7215625 19.48673828 -19.4375 18.26171875 C-18.90504177 15.89304062 -18.90504177 15.89304062 -19 13 C-18.34 13 -17.68 13 -17 13 C-16.34 11.68 -15.68 10.36 -15 9 C-15 10.32 -15 11.64 -15 13 C-14.01 13 -13.02 13 -12 13 C-11.67 12.34 -11.34 11.68 -11 11 C-10.01 10.34 -9.02 9.68 -8 9 C-7.26656572 5.93443402 -7.26656572 5.93443402 -7 3 C-6.34 3 -5.68 3 -5 3 C-5 2.34 -5 1.68 -5 1 C-3 0 -3 0 0 0 Z " transform="translate(439,734)" style="fill: #6C5030;"/><path d="M0 0 C1.5625 2.1875 1.5625 2.1875 2.25 4.9375 C1.22110181 9.80138233 -1.78355656 12.90912249 -5.4375 16.1875 C-6.4275 16.5175 -7.4175 16.8475 -8.4375 17.1875 C-8.4375 15.8675 -8.4375 14.5475 -8.4375 13.1875 C-7.1175 13.1875 -5.7975 13.1875 -4.4375 13.1875 C-4.4375 12.5275 -4.4375 11.8675 -4.4375 11.1875 C-5.0975 10.8575 -5.7575 10.5275 -6.4375 10.1875 C-6.1075 9.1975 -5.7775 8.2075 -5.4375 7.1875 C-6.12972656 7.6309375 -6.82195312 8.074375 -7.53515625 8.53125 C-10.58309967 10.27058783 -13.58312166 11.47776379 -16.875 12.6875 C-21.2216554 14.28862926 -25.30002923 16.11008461 -29.4375 18.1875 C-31.76913378 18.86008667 -34.1027039 19.52597444 -36.4375 20.1875 C-37.98524214 20.79729946 -39.52648495 21.42373646 -41.0625 22.0625 C-44.77049222 23.57789203 -48.47456436 24.85353974 -52.3125 26 C-58.78328036 27.9397187 -65.13603066 30.15112657 -71.50048828 32.40942383 C-75.92736893 33.97494713 -80.36086887 35.50245531 -84.828125 36.94921875 C-93.90631458 39.89122463 -102.7593059 42.92538209 -111.37792969 47.0546875 C-114.88823616 48.69901886 -117.54942141 49.54832548 -121.4375 49.1875 C-121.4296875 46.953125 -121.4296875 46.953125 -120.4375 44.1875 C-118.0061979 42.37060078 -115.31979693 41.18427774 -112.5625 39.9375 C-111.46228516 39.4115625 -111.46228516 39.4115625 -110.33984375 38.875 C-107.39338192 37.47959003 -104.53433965 36.21977988 -101.4375 35.1875 C-104.25259993 32.9101499 -104.25259993 32.9101499 -107.4375 33.1875 C-109.99370935 34.09371469 -112.49069913 35.04168697 -115 36.0625 C-115.68513672 36.33191406 -116.37027344 36.60132813 -117.07617188 36.87890625 C-119.98526371 38.04939462 -122.19757759 38.94757759 -124.4375 41.1875 C-125.7575 41.1875 -127.0775 41.1875 -128.4375 41.1875 C-128.4375 40.5275 -128.4375 39.8675 -128.4375 39.1875 C-129.035625 39.043125 -129.63375 38.89875 -130.25 38.75 C-131.99900404 38.3002561 -133.72427023 37.75857659 -135.4375 37.1875 C-135.4375 38.5075 -135.4375 39.8275 -135.4375 41.1875 C-137.9125 41.6825 -137.9125 41.6825 -140.4375 42.1875 C-136.91863926 34.640037 -130.71114315 29.45032849 -124.4375 24.1875 C-123.28701172 23.15302734 -123.28701172 23.15302734 -122.11328125 22.09765625 C-113.99859124 15.02681611 -104.9523712 10.12258015 -95.4375 5.1875 C-93.98537109 4.41212891 -93.98537109 4.41212891 -92.50390625 3.62109375 C-69.83507502 -7.66027468 -21.8116783 -16.21894027 0 0 Z " transform="translate(588.4375,607.8125)" style="fill: #7C8F42;"/><path d="M0 0 C5.18662213 3.85671902 8.79379946 8.40329311 12.65625 13.57421875 C15.31272979 16.32367533 17.32819354 17.09787514 21 18 C21 18.66 21 19.32 21 20 C20.34 20 19.68 20 19 20 C19 20.66 19 21.32 19 22 C19.66 22 20.32 22 21 22 C21.12375 22.639375 21.2475 23.27875 21.375 23.9375 C21.58125 24.618125 21.7875 25.29875 22 26 C22.66 26.33 23.32 26.66 24 27 C27 31.5 27 31.5 27 34 C27.66 34 28.32 34 29 34 C29 34.66 29 35.32 29 36 C29.66 36 30.32 36 31 36 C31 36.99 31 37.98 31 39 C30.360625 39.0825 29.72125 39.165 29.0625 39.25 C28.381875 39.4975 27.70125 39.745 27 40 C26.18553891 42.00572641 26.18553891 42.00572641 26 44 C26.66 44 27.32 44 28 44 C28.21914063 44.58265625 28.43828125 45.1653125 28.6640625 45.765625 C30.52876383 50.58656014 32.56907172 55.21640274 34.9375 59.8125 C39.33578857 68.48628228 43.42281955 77.18793234 44 87 C44.66 87 45.32 87 46 87 C46.79311367 88.72850345 47.5844259 90.45783354 48.375 92.1875 C48.81585938 93.15042969 49.25671875 94.11335937 49.7109375 95.10546875 C50.5122562 96.90479346 51.26776635 98.72616472 51.94921875 100.57421875 C53.12927366 103.29843474 54.60733067 105.28877553 56.4375 107.625 C64.78771304 118.90083512 73.60227102 132.23484157 77 146 C76.67 146.99 76.34 147.98 76 149 C72.41736802 146.03506319 71.23196651 143.29259142 69.79296875 139.03125 C69.00028556 137.00073148 68.0574817 135.4072896 66.8125 133.625 C65 131 65 131 65 129 C64.34 129 63.68 129 63 129 C62.32845067 127.71086513 61.66291141 126.41859796 61 125.125 C60.62875 124.40570312 60.2575 123.68640625 59.875 122.9453125 C59 121 59 121 59 119 C57.02 118.505 57.02 118.505 55 118 C55 117.34 55 116.68 55 116 C54.34 116 53.68 116 53 116 C53 115.34 53 114.68 53 114 C52.34 114 51.68 114 51 114 C50.360625 113.030625 49.72125 112.06125 49.0625 111.0625 C47.28938993 107.75744775 47.28938993 107.75744775 44 107 C43.505 108.485 43.505 108.485 43 110 C43.66 110 44.32 110 45 110 C43.87548273 112.9719385 42.77706209 115.33440687 41 118 C41.495 118.763125 41.99 119.52625 42.5 120.3125 C44 123 44 123 44 126 C43.01 126.495 43.01 126.495 42 127 C40.68450937 128.75485434 40.68450937 128.75485434 40 131 C40.39963577 133.4037892 40.39963577 133.4037892 41.375 135.75 C41.67148437 136.54921875 41.96796875 137.3484375 42.2734375 138.171875 C42.51320313 138.77515625 42.75296875 139.3784375 43 140 C43.99 139.34 44.98 138.68 46 138 C45.97679687 138.66386719 45.95359375 139.32773437 45.9296875 140.01171875 C45.82966745 144.90555699 45.93885562 148.49124666 48 153 C48.125 155.8125 48.125 155.8125 48 158 C46.4452588 155.01225349 45.17447619 151.98765287 43.96875 148.84375 C33.75872968 122.53975589 21.13640405 98.04357031 4.37109375 75.26171875 C0.42926228 69.894852 -3.20277316 64.31322288 -6.85253906 58.74560547 C-7.94299589 57.08671902 -9.04539872 55.43570337 -10.1484375 53.78515625 C-10.78007812 52.82480469 -11.41171875 51.86445312 -12.0625 50.875 C-12.61035156 50.04742188 -13.15820312 49.21984375 -13.72265625 48.3671875 C-15.06869237 45.87269853 -15.56849942 43.78599287 -16 41 C-16.226875 40.34 -16.45375 39.68 -16.6875 39 C-17.13250194 36.15198759 -16.35213099 34.50144233 -15 32 C-14.01 31.67 -13.02 31.34 -12 31 C-11.23816406 32.39412109 -11.23816406 32.39412109 -10.4609375 33.81640625 C-6.77527005 40.46569518 -3.13768737 46.34854389 2 52 C2 52.66 2 53.32 2 54 C2.99 54 3.98 54 5 54 C3.39690085 48.36960298 1.38239859 43.73570601 -1.859375 38.86328125 C-3.38335678 36.37376307 -4.2290025 33.80362727 -5 31 C-2.70324466 32.95224204 -1.40122884 35.00039059 0 37.625 C1.64839466 41.24664852 1.64839466 41.24664852 5 42 C5 40.68 5 39.36 5 38 C5.66 38 6.32 38 7 38 C7 37.34 7 36.68 7 36 C9 34.66666667 11 33.33333333 13 32 C13 31.34 13 30.68 13 30 C13.66 29.67 14.32 29.34 15 29 C15 27.68 15 26.36 15 25 C14.34 25 13.68 25 13 25 C11.37890625 22.76953125 11.37890625 22.76953125 9.5625 19.8125 C8.66724609 18.36810547 8.66724609 18.36810547 7.75390625 16.89453125 C6.88572266 15.46173828 6.88572266 15.46173828 6 14 C5.443125 13.10152344 4.88625 12.20304688 4.3125 11.27734375 C3.07513672 9.13037116 2.59313372 7.37253487 2 5 C1.34 4.67 0.68 4.34 0 4 C0 2.68 0 1.36 0 0 Z " transform="translate(310,563)" style="fill: #587D3A;"/><path d="M0 0 C0.66 0 1.32 0 2 0 C0.60569313 5.75860072 -1.00957321 11.24776457 -3.375 16.6875 C-5.70074065 22.05620072 -7.44464222 27.47157744 -9.11791992 33.06591797 C-10.39965714 37.27986236 -11.9027671 41.27722414 -13.6875 45.3125 C-16.02761221 50.70878399 -17.55695571 56.1138401 -18 62 C-17.67 62.66 -17.34 63.32 -17 64 C-17.33 64.66 -17.66 65.32 -18 66 C-16.68 66.33 -15.36 66.66 -14 67 C-14.33 68.65 -14.66 70.3 -15 72 C-15.66 72 -16.32 72 -17 72 C-17 71.34 -17 70.68 -17 70 C-19.25552668 70.84681777 -19.25552668 70.84681777 -19.9375 73.4375 C-20.4634375 75.2009375 -20.4634375 75.2009375 -21 77 C-21.226875 77.6909375 -21.45375 78.381875 -21.6875 79.09375 C-24.14621129 86.77722277 -27 95.90468874 -27 104 C-28.98 104.495 -28.98 104.495 -31 105 C-30.56320931 100.92328692 -30.06782222 97.02300481 -29 93.0625 C-27.85183867 88.75261084 -27.39011418 84.43498222 -27 80 C-28.0725 80.391875 -29.145 80.78375 -30.25 81.1875 C-32.10625 81.5896875 -32.10625 81.5896875 -34 82 C-35.35335895 81.02727325 -36.68662604 80.0260734 -38 79 C-41.68815293 79.22868094 -41.68815293 79.22868094 -45 80 C-45 78.68 -45 77.36 -45 76 C-47.43903176 78.43903176 -48.47935164 80.90021681 -50 84 C-53.48360656 90.82786885 -53.48360656 90.82786885 -57 92 C-57 90.02 -57 88.04 -57 86 C-60.465 86.495 -60.465 86.495 -64 87 C-63.70754395 87.89195068 -63.41508789 88.78390137 -63.11376953 89.70288086 C-62.01825541 93.05091282 -60.92658792 96.4001505 -59.83740234 99.75024414 C-59.36755546 101.19279323 -58.89623376 102.63486292 -58.42333984 104.07641602 C-51.64299428 124.75431977 -51.64299428 124.75431977 -52 136 C-52.66 136 -53.32 136 -54 136 C-54.66 135.01 -55.32 134.02 -56 133 C-56.16435547 133.95712891 -56.16435547 133.95712891 -56.33203125 134.93359375 C-56.56986328 136.17302734 -56.56986328 136.17302734 -56.8125 137.4375 C-56.96332031 138.26121094 -57.11414063 139.08492187 -57.26953125 139.93359375 C-57.63111328 140.95646484 -57.63111328 140.95646484 -58 142 C-58.99 142.33 -59.98 142.66 -61 143 C-61.33 143.99 -61.66 144.98 -62 146 C-64.83470803 148.20477292 -66.19204286 149.08977302 -69.8125 148.6875 C-70.8953125 148.3471875 -70.8953125 148.3471875 -72 148 C-72.66 148.99 -73.32 149.98 -74 151 C-74.66 151 -75.32 151 -76 151 C-76 149.02 -76 147.04 -76 145 C-75.67 145 -75.34 145 -75 145 C-74.65759077 124.99803324 -75.67482995 105.51908934 -79.03442383 85.78222656 C-79.91345723 80.45262728 -80.11828923 75.40366721 -80 70 C-79.34 70 -78.68 70 -78 70 C-75.03 76.93 -72.06 83.86 -69 91 C-69 79.28133248 -72.60740255 70.60853724 -77 60 C-74.69 60.33 -72.38 60.66 -70 61 C-70 61.99 -70 62.98 -70 64 C-68.515 63.505 -68.515 63.505 -67 63 C-67 64.32 -67 65.64 -67 67 C-66.34 67 -65.68 67 -65 67 C-64.67 67.99 -64.34 68.98 -64 70 C-63.01 70 -62.02 70 -61 70 C-60.01 70 -59.02 70 -58 70 C-58.04125 69.071875 -58.0825 68.14375 -58.125 67.1875 C-58 64 -58 64 -56 61 C-56 60.01 -56 59.02 -56 58 C-53.5 55.3125 -53.5 55.3125 -51 53 C-51.66 52.67 -52.32 52.34 -53 52 C-52.71788123 50.3733152 -52.42397625 48.74867104 -52.125 47.125 C-51.96257812 46.22007812 -51.80015625 45.31515625 -51.6328125 44.3828125 C-51 42 -51 42 -49 40 C-47.68 40.66 -46.36 41.32 -45 42 C-45.165 42.598125 -45.33 43.19625 -45.5 43.8125 C-46.1114124 46.11344336 -46.1114124 46.11344336 -46 49 C-46.6238664 55.86253043 -48.23695421 62.34699702 -50 69 C-49.61328125 67.9378125 -49.2265625 66.875625 -48.828125 65.78125 C-41.52514281 45.89372754 -41.52514281 45.89372754 -37 42 C-36.34 42 -35.68 42 -35 42 C-35 40.68 -35 39.36 -35 38 C-31.7 38 -28.4 38 -25 38 C-24.67 38.66 -24.34 39.32 -24 40 C-21.46255685 39.45291273 -21.46255685 39.45291273 -19 38 C-18.59367909 36.01354224 -18.27050453 34.00946222 -18 32 C-16.125 28.9375 -16.125 28.9375 -14 26 C-11.35010239 21.81555717 -9.17902229 17.43996272 -7 13 C-2.16647128 3.15123095 -2.16647128 3.15123095 0 0 Z " transform="translate(452,497)" style="fill: #88A03E;"/><path d="M0 0 C2.64040167 3.12936494 2.93182631 6.05319042 2.6875 10 C0.89209657 18.71335649 -2.86052986 26.90498233 -6.23022461 35.09765625 C-9.91528581 44.20466451 -12.65844384 53.54995156 -15.3125 63 C-15.6425 63 -15.9725 63 -16.3125 63 C-16.2403125 62.154375 -16.168125 61.30875 -16.09375 60.4375 C-15.58906954 54.26918322 -15.19115498 48.18859588 -15.3125 42 C-13.9925 41.67 -12.6725 41.34 -11.3125 41 C-11.126875 39.205625 -11.126875 39.205625 -10.9375 37.375 C-9.83709432 28.52459432 -9.83709432 28.52459432 -7.3125 26 C-8.3025 25.34 -9.2925 24.68 -10.3125 24 C-11.7975 24.495 -11.7975 24.495 -13.3125 25 C-13.97759193 26.77079163 -13.97759193 26.77079163 -14.25 28.9375 C-14.87694792 32.35496025 -15.77556175 35.33735517 -17.15234375 38.5234375 C-19.58101158 44.44925517 -21.26712341 50.51228036 -22.9375 56.6875 C-23.53380112 58.85808749 -24.13015387 61.0286608 -24.7265625 63.19921875 C-25.00016602 64.20259277 -25.27376953 65.2059668 -25.55566406 66.23974609 C-26.44977662 69.50066113 -27.37378698 72.75168118 -28.3125 76 C-28.9725 76 -29.6325 76 -30.3125 76 C-29.9825 76.99 -29.6525 77.98 -29.3125 79 C-29.9725 79 -30.6325 79 -31.3125 79 C-31.4053125 80.794375 -31.4053125 80.794375 -31.5 82.625 C-32.21755375 89.42001657 -34.87198724 95.66907575 -37.3125 102 C-37.6425 102 -37.9725 102 -38.3125 102 C-38.3125 98.7 -38.3125 95.4 -38.3125 92 C-37.6525 92 -36.9925 92 -36.3125 92 C-36.19777344 90.92363281 -36.08304687 89.84726562 -35.96484375 88.73828125 C-35.26600189 83.15368735 -34.05747977 77.68620331 -32.875 72.1875 C-31.39128508 65.24441861 -29.97264102 58.31288976 -28.8125 51.30737305 C-28.14949866 48.24779019 -26.80929949 45.73328603 -25.3125 43 C-24.61342586 40.26427415 -24.61342586 40.26427415 -24.3125 38 C-23.6525 38 -22.9925 38 -22.3125 38 C-22.13074219 37.40832031 -21.94898438 36.81664062 -21.76171875 36.20703125 C-19.03204674 27.62606232 -19.03204674 27.62606232 -16.3125 24 C-15.3225 23.67 -14.3325 23.34 -13.3125 23 C-12.08729736 19.99152582 -12.08729736 19.99152582 -11.3125 17 C-12.96186048 18.28715972 -14.60689047 19.57987019 -16.25 20.875 C-17.16652344 21.59429687 -18.08304687 22.31359375 -19.02734375 23.0546875 C-21.37259485 24.79420836 -21.37259485 24.79420836 -22.3125 27 C-22.9725 27 -23.6325 27 -24.3125 27 C-24.580625 27.598125 -24.84875 28.19625 -25.125 28.8125 C-27.01757216 32.29881714 -29.82348318 34.41594887 -32.875 36.875 C-36.9530627 40.4182348 -40.12503168 44.4556905 -43.32958984 48.76733398 C-45.92766042 52.24753788 -48.63054451 55.55014908 -51.52758789 58.78515625 C-73.85546844 83.84154749 -90.67923733 116.24012334 -101.3125 148 C-103.2996651 143.00724768 -100.70958412 138.33453912 -99.125 133.5078125 C-98.27692226 129.84639995 -98.56075352 127.62912095 -99.3125 124 C-98.375 121.125 -98.375 121.125 -97.3125 119 C-98.6325 119 -99.9525 119 -101.3125 119 C-101.621875 120.093125 -101.93125 121.18625 -102.25 122.3125 C-102.89587897 124.55407994 -103.5748117 126.7869351 -104.3125 129 C-103.6525 129 -102.9925 129 -102.3125 129 C-101.8175 128.01 -101.8175 128.01 -101.3125 127 C-101.90937434 130.34249629 -103.04853877 132.46436342 -105.3125 135 C-105.9725 135 -106.6325 135 -107.3125 135 C-106.9825 136.32 -106.6525 137.64 -106.3125 139 C-106.9725 139 -107.6325 139 -108.3125 139 C-108.6425 141.64 -108.9725 144.28 -109.3125 147 C-109.9725 147 -110.6325 147 -111.3125 147 C-110.40795908 139.54976492 -108.1384149 132.76964865 -105.75 125.6875 C-105.52496796 125.01737885 -105.29993591 124.34725769 -105.06808472 123.65682983 C-96.94005785 99.54978792 -85.88120897 78.17308552 -70.3125 58 C-69.10191339 56.41838881 -67.89310405 54.83541249 -66.6875 53.25 C-66.24148438 52.67765625 -65.79546875 52.1053125 -65.3359375 51.515625 C-64.1139413 49.85237074 -64.1139413 49.85237074 -63.3125 47 C-61.90018349 45.82306958 -60.48411078 44.65027288 -59.046875 43.50390625 C-55.78130108 40.6722712 -53.10449654 37.28782679 -50.3125 34 C-45.8889815 28.82884457 -41.43190423 24.05417562 -36.22265625 19.66796875 C-34.41793379 18.0920659 -32.81782158 16.44040215 -31.1875 14.6875 C-27.8215646 11.25923246 -24.07754768 8.48400646 -20.1875 5.6875 C-19.58921387 5.2546167 -18.99092773 4.8217334 -18.37451172 4.37573242 C-12.64242369 0.33428386 -6.97855482 -3.01775344 0 0 Z " transform="translate(503.3125,420)" style="fill: #C0A456;"/><path d="M0 0 C0 0.33 0 0.66 0 1 C-2.33294775 1.04241723 -4.66702567 1.04092937 -7 1 C-7.495 0.505 -7.495 0.505 -8 0 C-16.69995465 -0.38615987 -25.35351117 -0.00665982 -34 1 C-32.02 1.66 -30.04 2.32 -28 3 C-28 3.66 -28 4.32 -28 5 C-27.04287109 4.98259766 -27.04287109 4.98259766 -26.06640625 4.96484375 C-25.24011719 4.95582031 -24.41382813 4.94679688 -23.5625 4.9375 C-22.73878906 4.92589844 -21.91507812 4.91429687 -21.06640625 4.90234375 C-19 5 -19 5 -18 6 C-17.71256474 10.21571713 -18.20239787 13.18009548 -20 17 C-20.66 17 -21.32 17 -22 17 C-22 17.99 -22 18.98 -22 20 C-21.26362305 19.98952637 -20.52724609 19.97905273 -19.76855469 19.96826172 C-16.42907124 19.92666298 -13.08964235 19.90066136 -9.75 19.875 C-8.01169922 19.84986328 -8.01169922 19.84986328 -6.23828125 19.82421875 C-5.12324219 19.81777344 -4.00820313 19.81132813 -2.859375 19.8046875 C-1.31975098 19.78897705 -1.31975098 19.78897705 0.25097656 19.77294922 C3.06301396 20.00520453 4.56395389 20.66277857 7 22 C9.30584933 22.24185309 11.62111149 22.40111468 13.9375 22.5 C18.35565164 22.68901183 22.06764339 22.85639493 26 25 C26.495 26.485 26.495 26.485 27 28 C26.40799805 28.03963867 25.81599609 28.07927734 25.20605469 28.12011719 C11.97430656 29.04302525 -0.90287493 30.52323023 -13.83935547 33.50390625 C-15.32341793 33.8446537 -16.81254268 34.16385101 -18.30517578 34.46484375 C-20.22730288 34.87803918 -22.11891443 35.42831813 -24 36 C-24.33 36.99 -24.66 37.98 -25 39 C-25.99 39.33 -26.98 39.66 -28 40 C-25.64046906 42.35953094 -24.22104383 42.49141413 -21 43 C-21 42.34 -21 41.68 -21 41 C-15.06 41 -9.12 41 -3 41 C-3 41.33 -3 41.66 -3 42 C-3.86890869 42.09071777 -4.73781738 42.18143555 -5.63305664 42.27490234 C-12.89943138 43.12785964 -19.90892344 44.33645036 -26.99609375 46.1640625 C-27.76635895 46.36191345 -28.53662415 46.5597644 -29.33023071 46.76361084 C-32.49357456 47.58338693 -35.6537573 48.413592 -38.80883789 49.26464844 C-49.29852527 52.07575904 -60.08991315 54.83438842 -71 53 C-74.74080933 50.00228858 -75.86626995 48.00297538 -76.5 43.25 C-76.30109251 31.98460328 -68.28238841 22.17939538 -60.6875 14.5546875 C-43.1791891 -2.08838711 -22.87872079 -5.53836469 0 0 Z " transform="translate(329,708)" style="fill: #A1AA52;"/><path d="M0 0 C3.28288561 2.97090512 5.14698816 5.83334341 7.0625 9.8125 C7.57554687 10.87726562 8.08859375 11.94203125 8.6171875 13.0390625 C9.30167969 14.50472656 9.30167969 14.50472656 10 16 C10.31195313 16.66773438 10.62390625 17.33546875 10.9453125 18.0234375 C12.66542372 21.88010793 13.94632477 25.84288435 15.23828125 29.85546875 C16.04086641 32.25336633 16.04086641 32.25336633 17.6875 35.375 C19 38 19 38 19 41 C19.7734375 41.9590625 19.7734375 41.9590625 20.5625 42.9375 C22 45 22 45 21.6875 46.9375 C21.460625 47.618125 21.23375 48.29875 21 49 C21 49.886875 21 50.77375 21 51.6875 C21 54 21 54 20 55 C20.721875 55.70125 21.44375 56.4025 22.1875 57.125 C24.99823813 59.92770745 27.49516226 62.92262792 30 66 C29.67 66.66 29.34 67.32 29 68 C28.401875 67.835 27.80375 67.67 27.1875 67.5 C24.88655664 66.8885876 24.88655664 66.8885876 22 67 C20.17595732 65.23277176 18.53017779 63.47744875 16.875 61.5625 C15.89501331 60.45804976 14.91321813 59.35520174 13.9296875 58.25390625 C13.43952148 57.7036377 12.94935547 57.15336914 12.44433594 56.58642578 C9.70924604 53.58226517 6.78924836 50.76603517 3.875 47.9375 C-1 42.9 -1 42.9 -1 40 C-1.721875 39.79375 -2.44375 39.5875 -3.1875 39.375 C-6.9255306 37.54751837 -8.49246917 35.29561194 -11 32 C-13.3890198 36.53338332 -13.3890198 36.53338332 -13.6875 41.4375 C-13.3471875 42.2109375 -13.3471875 42.2109375 -13 43 C-17.37047294 39.20874636 -20.06593195 34.37539784 -23.0625 29.5 C-24.11435968 27.80113772 -25.16769541 26.10318826 -26.22265625 24.40625 C-26.68422119 23.65666016 -27.14578613 22.90707031 -27.62133789 22.13476562 C-28.98140166 19.95579061 -28.98140166 19.95579061 -30.66577148 17.88476562 C-32.38804481 15.45183789 -32.14992555 13.92354817 -32 11 C-32.33 10.01 -32.66 9.02 -33 8 C-32.25 5.375 -32.25 5.375 -31 3 C-30.01 2.67 -29.02 2.34 -28 2 C-27.23816406 3.39412109 -27.23816406 3.39412109 -26.4609375 4.81640625 C-22.77527005 11.46569518 -19.13768737 17.34854389 -14 23 C-14 23.66 -14 24.32 -14 25 C-13.01 25 -12.02 25 -11 25 C-12.60309915 19.36960298 -14.61760141 14.73570601 -17.859375 9.86328125 C-19.38335678 7.37376307 -20.2290025 4.80362727 -21 2 C-18.70324466 3.95224204 -17.40122884 6.00039059 -16 8.625 C-14.35160534 12.24664852 -14.35160534 12.24664852 -11 13 C-11 11.68 -11 10.36 -11 9 C-10.34 9 -9.68 9 -9 9 C-9 8.34 -9 7.68 -9 7 C-7 5.66666667 -5 4.33333333 -3 3 C-3 2.34 -3 1.68 -3 1 C-2.01 0.67 -1.02 0.34 0 0 Z " transform="translate(326,592)" style="fill: #6E8F3D;"/><path d="M0 0 C0.99 0.495 0.99 0.495 2 1 C5.03656349 12.2786644 -1.69304467 23.82627331 -5.91772461 34.09765625 C-9.60278581 43.20466451 -12.34594384 52.54995156 -15 62 C-15.33 62 -15.66 62 -16 62 C-15.9278125 61.154375 -15.855625 60.30875 -15.78125 59.4375 C-15.27656954 53.26918322 -14.87865498 47.18859588 -15 41 C-13.68 40.67 -12.36 40.34 -11 40 C-10.814375 38.205625 -10.814375 38.205625 -10.625 36.375 C-9.52459432 27.52459432 -9.52459432 27.52459432 -7 25 C-7.99 24.34 -8.98 23.68 -10 23 C-11.485 23.495 -11.485 23.495 -13 24 C-13.66509193 25.77079163 -13.66509193 25.77079163 -13.9375 27.9375 C-14.56444792 31.35496025 -15.46306175 34.33735517 -16.83984375 37.5234375 C-19.26851158 43.44925517 -20.95462341 49.51228036 -22.625 55.6875 C-23.22130112 57.85808749 -23.81765387 60.0286608 -24.4140625 62.19921875 C-24.68766602 63.20259277 -24.96126953 64.2059668 -25.24316406 65.23974609 C-26.13727662 68.50066113 -27.06128698 71.75168118 -28 75 C-28.66 75 -29.32 75 -30 75 C-29.67 75.99 -29.34 76.98 -29 78 C-29.66 78 -30.32 78 -31 78 C-31.0928125 79.794375 -31.0928125 79.794375 -31.1875 81.625 C-31.90505375 88.42001657 -34.55948724 94.66907575 -37 101 C-37.33 101 -37.66 101 -38 101 C-38 97.7 -38 94.4 -38 91 C-37.34 91 -36.68 91 -36 91 C-35.88527344 89.92363281 -35.77054687 88.84726562 -35.65234375 87.73828125 C-34.95350189 82.15368735 -33.74497977 76.68620331 -32.5625 71.1875 C-31.07878508 64.24441861 -29.66014102 57.31288976 -28.5 50.30737305 C-27.83699866 47.24779019 -26.49679949 44.73328603 -25 42 C-24.30092586 39.26427415 -24.30092586 39.26427415 -24 37 C-23.34 37 -22.68 37 -22 37 C-21.81824219 36.40832031 -21.63648438 35.81664062 -21.44921875 35.20703125 C-18.71954674 26.62606232 -18.71954674 26.62606232 -16 23 C-15.01 22.67 -14.02 22.34 -13 22 C-11.77479736 18.99152582 -11.77479736 18.99152582 -11 16 C-12.64936048 17.28715972 -14.29439047 18.57987019 -15.9375 19.875 C-16.85402344 20.59429687 -17.77054687 21.31359375 -18.71484375 22.0546875 C-21.06009485 23.79420836 -21.06009485 23.79420836 -22 26 C-22.66 26 -23.32 26 -24 26 C-24.268125 26.598125 -24.53625 27.19625 -24.8125 27.8125 C-26.70507216 31.29881714 -29.51098318 33.41594887 -32.5625 35.875 C-36.6405627 39.4182348 -39.81253168 43.4556905 -43.01708984 47.76733398 C-45.61516042 51.24753788 -48.31804451 54.55014908 -51.21508789 57.78515625 C-73.54296844 82.84154749 -90.36673733 115.24012334 -101 147 C-102.44419563 142.44260609 -101.02597789 138.95070073 -99.5625 134.5625 C-99.15197388 133.30928955 -99.15197388 133.30928955 -98.7331543 132.03076172 C-97.84098034 129.34701071 -96.9251348 126.67255799 -96 124 C-95.70416016 123.14035645 -95.40832031 122.28071289 -95.10351562 121.39501953 C-88.73583886 103.15873915 -80.42307187 85.64464191 -69 70 C-68.55011719 69.38318359 -68.10023438 68.76636719 -67.63671875 68.13085938 C-51.19923539 45.68653842 -32.21431471 20.11144365 -7 7 C-6.34 7 -5.68 7 -5 7 C-6.1094072 10.48670834 -7.26337666 13.77484237 -9 17 C-8.34 17 -7.68 17 -7 17 C-7 16.01 -7 15.02 -7 14 C-6.01 13.34 -5.02 12.68 -4 12 C-2.68 12.33 -1.36 12.66 0 13 C0 8.71 0 4.42 0 0 Z " transform="translate(503,421)" style="fill: #D2C661;"/><path d="M0 0 C1.5625 2.1875 1.5625 2.1875 2.25 4.9375 C1.22110181 9.80138233 -1.78355656 12.90912249 -5.4375 16.1875 C-6.9225 16.6825 -6.9225 16.6825 -8.4375 17.1875 C-8.4375 15.8675 -8.4375 14.5475 -8.4375 13.1875 C-7.1175 13.1875 -5.7975 13.1875 -4.4375 13.1875 C-4.4375 12.5275 -4.4375 11.8675 -4.4375 11.1875 C-5.0975 10.8575 -5.7575 10.5275 -6.4375 10.1875 C-5.9425 8.7025 -5.9425 8.7025 -5.4375 7.1875 C-6.12972656 7.6309375 -6.82195312 8.074375 -7.53515625 8.53125 C-10.58309967 10.27058783 -13.58312166 11.47776379 -16.875 12.6875 C-21.2216554 14.28862926 -25.30002923 16.11008461 -29.4375 18.1875 C-31.76913378 18.86008667 -34.1027039 19.52597444 -36.4375 20.1875 C-37.98524214 20.79729946 -39.52648495 21.42373646 -41.0625 22.0625 C-44.77049222 23.57789203 -48.47456436 24.85353974 -52.3125 26 C-58.78328036 27.9397187 -65.13603066 30.15112657 -71.50048828 32.40942383 C-75.92736893 33.97494713 -80.36086887 35.50245531 -84.828125 36.94921875 C-93.90631458 39.89122463 -102.7593059 42.92538209 -111.37792969 47.0546875 C-114.88823616 48.69901886 -117.54942141 49.54832548 -121.4375 49.1875 C-121.39453125 46.94140625 -121.39453125 46.94140625 -120.4375 44.1875 C-117.97327434 42.55983803 -115.78204626 41.34038341 -113.125 40.125 C-112.39514893 39.77703369 -111.66529785 39.42906738 -110.91333008 39.07055664 C-105.95087397 36.75343745 -100.95449762 34.83792008 -95.71484375 33.234375 C-92.44163404 32.18882053 -89.25667863 30.99979265 -86.0480957 29.77416992 C-74.77312668 25.47944338 -63.29274645 22.0868467 -51.6796875 18.83251953 C-48.01341453 17.89187006 -48.01341453 17.89187006 -45 15.75 C-43.25548529 14.00548529 -41.73371441 13.07635719 -39.4375 12.1875 C-38.7775 12.5175 -38.1175 12.8475 -37.4375 13.1875 C-37.2209375 12.259375 -37.2209375 12.259375 -37 11.3125 C-36.4375 9.1875 -36.4375 9.1875 -35.4375 7.1875 C-37.4175 7.1875 -39.3975 7.1875 -41.4375 7.1875 C-41.4375 7.8475 -41.4375 8.5075 -41.4375 9.1875 C-42.0975 9.1875 -42.7575 9.1875 -43.4375 9.1875 C-43.4375 8.5275 -43.4375 7.8675 -43.4375 7.1875 C-60.29979454 7.44158609 -60.29979454 7.44158609 -76.81640625 10.46875 C-79.67131561 11.25161635 -82.51291954 11.74086804 -85.4375 12.1875 C-85.4375 11.5275 -85.4375 10.8675 -85.4375 10.1875 C-82.52404772 9.21838094 -79.60728499 8.26220314 -76.6875 7.3125 C-75.88183594 7.04308594 -75.07617188 6.77367187 -74.24609375 6.49609375 C-61.16023784 2.27152609 -48.31057322 1.80722587 -34.6875 1.5625 C-32.91144111 1.52422846 -31.13539896 1.48517176 -29.359375 1.4453125 C-25.05222263 1.35033122 -20.74498396 1.26594544 -16.4375 1.1875 C-16.1075 0.1975 -15.7775 -0.7925 -15.4375 -1.8125 C-16.571875 -1.956875 -17.70625 -2.10125 -18.875 -2.25 C-22.4375 -2.8125 -22.4375 -2.8125 -23.4375 -3.8125 C-25.29119611 -3.89987645 -27.14817541 -3.91948153 -29.00390625 -3.91015625 C-30.12861328 -3.90693359 -31.25332031 -3.90371094 -32.41210938 -3.90039062 C-33.59611328 -3.89201172 -34.78011719 -3.88363281 -36 -3.875 C-37.18787109 -3.87048828 -38.37574219 -3.86597656 -39.59960938 -3.86132812 C-42.54562226 -3.84949675 -45.49153681 -3.83301287 -48.4375 -3.8125 C-48.4375 -3.4825 -48.4375 -3.1525 -48.4375 -2.8125 C-54.7075 -2.8125 -60.9775 -2.8125 -67.4375 -2.8125 C-67.4375 -2.1525 -67.4375 -1.4925 -67.4375 -0.8125 C-68.39462891 -0.72162109 -68.39462891 -0.72162109 -69.37109375 -0.62890625 C-70.19738281 -0.54511719 -71.02367187 -0.46132813 -71.875 -0.375 C-73.11056641 -0.25318359 -73.11056641 -0.25318359 -74.37109375 -0.12890625 C-76.42412025 -0.02319185 -76.42412025 -0.02319185 -77.4375 1.1875 C-79.77047433 1.22842937 -82.10455225 1.22991723 -84.4375 1.1875 C-66.37456556 -10.8544563 -17.80743393 -13.24142523 0 0 Z " transform="translate(588.4375,607.8125)" style="fill: #B6BC61;"/><path d="M0 0 C0.99 0.33 1.98 0.66 3 1 C2.67 1.66 2.34 2.32 2 3 C2.99 3.33 3.98 3.66 5 4 C5 5.32 5 6.64 5 8 C7.97 8.495 7.97 8.495 11 9 C11 9.99 11 10.98 11 12 C10.34 12 9.68 12 9 12 C9 20.25 9 28.5 9 37 C9.66 37 10.32 37 11 37 C11.20496094 36.07316406 11.40992188 35.14632812 11.62109375 34.19140625 C11.89050781 32.99386719 12.15992188 31.79632812 12.4375 30.5625 C12.70433594 29.36753906 12.97117187 28.17257812 13.24609375 26.94140625 C14 24 14 24 15 23 C16.39347545 22.86798654 17.79018452 22.76941967 19.1875 22.6875 C23.7541236 22.26708068 26.20660881 20.55833359 30 18 C32.1875 18.25 32.1875 18.25 34 20 C35.26778835 22.5921744 36.18127614 25.23615513 37 28 C37.18820312 28.59425781 37.37640625 29.18851563 37.5703125 29.80078125 C38.19196444 32.98250893 38.17122296 36.07336813 38.1875 39.3125 C38.20167969 40.58738281 38.21585937 41.86226562 38.23046875 43.17578125 C37.67322262 52.42228903 37.67322262 52.42228903 34.15234375 55.7421875 C27.69001874 59.0474331 22.19815749 60 15 60 C15.33 60.99 15.66 61.98 16 63 C15.195625 62.979375 14.39125 62.95875 13.5625 62.9375 C11.06645115 62.70366379 11.06645115 62.70366379 10 64 C10.99 64.33 11.98 64.66 13 65 C13.6875 67.0625 13.6875 67.0625 14 69 C14.495 68.505 14.495 68.505 15 68 C16.66617115 67.95936168 18.33388095 67.957279 20 68 C20 69.65 20 71.3 20 73 C13.07241002 72.08435332 9.03521239 67.29613705 4.5625 62.25 C-0.98570749 54.26058122 1.97070223 41.26542063 3.5625 32.25 C5.36470914 21.81664793 5.25022779 13.80566679 0.83984375 3.99609375 C0 2 0 2 0 0 Z " transform="translate(366,780)" style="fill: #87613A;"/><path d="M0 0 C0 2.64 0 5.28 0 8 C-0.99 7.67 -1.98 7.34 -3 7 C-3 7.99 -3 8.98 -3 10 C-2.34 9.67 -1.68 9.34 -1 9 C1.81041901 17.78255939 -1.44763729 24.83465435 -4.625 33.0625 C-5.08503418 34.27897217 -5.54506836 35.49544434 -6.01904297 36.7487793 C-8.67364013 43.71791443 -11.4750197 50.58354453 -14.4921875 57.40234375 C-16.56143721 62.339595 -18.41220404 67.34769884 -20.25 72.375 C-20.5917627 73.30352783 -20.93352539 74.23205566 -21.28564453 75.1887207 C-23.17550825 80.41433042 -24.75683911 85.58337041 -26 91 C-26.33 91 -26.66 91 -27 91 C-27.33 87.37 -27.66 83.74 -28 80 C-27.01 80.33 -26.02 80.66 -25 81 C-21.90575376 72.14087832 -21.66213753 64.27244773 -22 55 C-22.66 55 -23.32 55 -24 55 C-24.25910156 55.77859375 -24.51820313 56.5571875 -24.78515625 57.359375 C-25.72748142 60.18332051 -26.67329722 63.00601583 -27.62109375 65.828125 C-28.22659839 67.63540464 -28.83206622 69.44269662 -29.4375 71.25 C-29.73720703 72.14074219 -30.03691406 73.03148437 -30.34570312 73.94921875 C-32.34767253 79.93341364 -34.22324449 85.94514399 -36 92 C-36.5534764 89.92446352 -37 88.15634036 -37 86 C-37.66 86 -38.32 86 -39 86 C-39 85.34 -39 84.68 -39 84 C-39.99 84 -40.98 84 -42 84 C-42.2475 84.886875 -42.495 85.77375 -42.75 86.6875 C-44.03934768 90.10427135 -45.59980129 92.2797748 -48 95 C-47.34 96.32 -46.68 97.64 -46 99 C-48.475 99.495 -48.475 99.495 -51 100 C-51.33 101.32 -51.66 102.64 -52 104 C-52.66 104 -53.32 104 -54 104 C-54.28875 104.5775 -54.5775 105.155 -54.875 105.75 C-55.91666667 107.83333333 -56.95833333 109.91666667 -58 112 C-57.34 112.33 -56.68 112.66 -56 113 C-56.61875 113.598125 -57.2375 114.19625 -57.875 114.8125 C-60.13676954 117.00811144 -60.13676954 117.00811144 -62 120 C-62.66 119.67 -63.32 119.34 -64 119 C-64.12600586 119.71188477 -64.25201172 120.42376953 -64.38183594 121.15722656 C-65.0103114 124.04741943 -65.8950193 126.70070362 -66.890625 129.484375 C-69.09426288 135.98371204 -70.48545708 142.51372421 -71.75 149.25 C-72.08064453 150.95736328 -72.08064453 150.95736328 -72.41796875 152.69921875 C-72.95250288 155.46485184 -73.4797309 158.23165457 -74 161 C-78.47097661 154.29353509 -76.91571467 142.43185294 -75.61328125 134.70605469 C-74.50747786 129.97542778 -72.8529039 125.48371936 -71 121 C-70.54270508 119.89325928 -70.54270508 119.89325928 -70.07617188 118.76416016 C-68.13648969 114.13537313 -66.10269521 109.55684956 -64 105 C-63.01 105 -62.02 105 -61 105 C-58.46295129 104.65464897 -57.35037995 104.40873396 -55.66308594 102.44042969 C-55.27411133 101.77430664 -54.88513672 101.10818359 -54.484375 100.421875 C-54.0414209 99.67881104 -53.5984668 98.93574707 -53.14208984 98.17016602 C-52.6827002 97.37151123 -52.22331055 96.57285645 -51.75 95.75 C-50.77900026 94.10786329 -49.80764323 92.4659378 -48.8359375 90.82421875 C-48.35866211 90.00872559 -47.88138672 89.19323242 -47.38964844 88.35302734 C-45.4412148 85.0538349 -43.41055021 81.80837736 -41.375 78.5625 C-39.55480171 75.65389742 -38.08448881 73.25346643 -37 70 C-36.34 69.67 -35.68 69.34 -35 69 C-33.66128353 66.51761184 -32.40654119 64.04021442 -31.1875 61.5 C-30.46760982 60.02923044 -29.74626422 58.55917234 -29.0234375 57.08984375 C-28.67506836 56.38069824 -28.32669922 55.67155273 -27.96777344 54.94091797 C-25.79282424 50.57894871 -23.40843484 46.31878336 -20.87817383 42.15307617 C-16.78790976 35.22000611 -14.12121187 27.78327296 -11.375 20.25 C-10.65834868 18.29202348 -9.93947282 16.33498049 -9.21450806 14.38006592 C-8.5612638 12.61767667 -7.91588558 10.85237759 -7.27099609 9.08691406 C-3.52957925 0 -3.52957925 0 0 0 Z " transform="translate(468,543)" style="fill: #728E42;"/><path d="M0 0 C3.35620271 1.38877354 5.07298728 2.91677965 7 6 C7 6.66 7 7.32 7 8 C7.66 8 8.32 8 9 8 C9 8.66 9 9.32 9 10 C9.66 10 10.32 10 11 10 C11.33 10.66 11.66 11.32 12 12 C12.99 12.33 13.98 12.66 15 13 C16.16796875 14.77734375 16.16796875 14.77734375 17.1875 16.9375 C17.53167969 17.64777344 17.87585938 18.35804688 18.23046875 19.08984375 C19 21 19 21 19 23 C19.66 23 20.32 23 21 23 C22.65625 25.4140625 22.65625 25.4140625 24.5 28.625 C25.1084375 29.66914062 25.716875 30.71328125 26.34375 31.7890625 C28 35 28 35 29.09375 38.3359375 C29.70053742 41.1430803 29.70053742 41.1430803 32 42 C32.66 41.34 33.32 40.68 34 40 C34.53518883 42.0379507 35.05254093 44.08059009 35.5625 46.125 C35.85253906 47.26195312 36.14257812 48.39890625 36.44140625 49.5703125 C37.34847625 55.13959545 35.81650887 59.97887833 34.4375 65.375 C34.16808594 66.43460938 33.89867187 67.49421875 33.62109375 68.5859375 C33.41613281 69.38257813 33.21117187 70.17921875 33 71 C29.34380137 69.64123318 26.13173482 67.98126486 22.8125 65.9375 C19.4614921 63.86894235 19.4614921 63.86894235 16 62 C15.24951172 60.24560547 15.24951172 60.24560547 14.5546875 57.9921875 C14.2978418 57.17717773 14.04099609 56.36216797 13.77636719 55.52246094 C13.52016602 54.69004883 13.26396484 53.85763672 13 53 C12.52593423 51.52263401 12.04944572 50.04604282 11.5703125 48.5703125 C11.33489746 47.84320068 11.09948242 47.11608887 10.85693359 46.36694336 C8.34137873 38.66169309 5.53375312 31.30546942 2 24 C1.26488989 22.3568127 0.5354233 20.71108524 -0.1875 19.0625 C-1.38603862 16.33391207 -2.65050025 13.65738496 -4 11 C-2.35 8.69 -0.7 6.38 1 4 C0.34 4 -0.32 4 -1 4 C-0.67 2.68 -0.34 1.36 0 0 Z " transform="translate(354,669)" style="fill: #406B2F;"/><path d="M0 0 C0.33 0.33 0.66 0.66 1 1 C2.45742463 1.08096803 3.91612807 1.13917774 5.375 1.1875 C14.32095474 2.00541586 21.2655702 7.26380629 28.140625 12.67578125 C30.9272423 14.66036794 33.80524834 15.80196813 37 17 C37.495 15.515 37.495 15.515 38 14 C38.680625 15.4540625 38.680625 15.4540625 39.375 16.9375 C40.65786221 20.07079582 40.65786221 20.07079582 43 21 C42.67 21.66 42.34 22.32 42 23 C40.68 22.67 39.36 22.34 38 22 C38.88214887 24.35355339 38.88214887 24.35355339 42 25 C41.505 25.495 41.505 25.495 41 26 C41.73863281 26.268125 42.47726562 26.53625 43.23828125 26.8125 C54.60685975 31.20392041 64.60748981 37.30561188 71 48 C71.6796875 50.265625 71.6796875 50.265625 72 52 C71.01 51.154375 70.02 50.30875 69 49.4375 C68.35675781 48.8909375 67.71351563 48.344375 67.05078125 47.78125 C65.71303221 46.6193194 64.39639654 45.4324883 63.10546875 44.21875 C51.11220159 33.08040005 36.91434063 30.6827158 21 30 C21 29.67 21 29.34 21 29 C24.96 28.67 28.92 28.34 33 28 C32.11785113 25.64644661 32.11785113 25.64644661 29 25 C25.45111434 24.72833561 21.90249891 24.55459248 18.34765625 24.37890625 C15 24 15 24 13.15698242 23.00219727 C10.40132744 21.72183918 8.17289164 21.67876199 5.140625 21.5859375 C3.46806641 21.52792969 3.46806641 21.52792969 1.76171875 21.46875 C0.60285156 21.4378125 -0.55601562 21.406875 -1.75 21.375 C-2.92433594 21.33632813 -4.09867187 21.29765625 -5.30859375 21.2578125 C-8.20557268 21.1636018 -11.10254626 21.07798398 -14 21 C-14 20.01 -14 19.02 -14 18 C-13.34 18 -12.68 18 -12 18 C-11.67 14.37 -11.34 10.74 -11 7 C-13.97 6.67 -16.94 6.34 -20 6 C-20 5.34 -20 4.68 -20 4 C-22.64 3.67 -25.28 3.34 -28 3 C-22.58768433 -2.41231567 -7.37529054 -0.32736277 0 0 Z " transform="translate(321,707)" style="fill: #5E7F3D;"/></svg>