<svg xmlns="http://www.w3.org/2000/svg" viewBox="0 0 768 1024"><path fill="#638d3e" d="M334.875 523.938c7.44 4.02 13.22 10.11 19.12 16.06.69-.33 1.37-.66 2.07-1 4.97-1.69 8.52-1.59 13.37.44 9.93 6.43 15.66 17.14 18.23 28.48.16 1.03.16 1.03.33 2.08.6.02 1.19.03 1.8.05 4.15.25 6.6.51 10.02 3.01 10.33 13.88 8.53 34.11 6.92 50.7-2.12 13.99-10.69 32.19-20.74 42.24-.77 6.56 1.41 12.16 3.5 18.32.66 1.97 1.32 3.94 1.97 5.92.3.87.59 1.73.89 2.63.64 2.13.64 2.13.64 4.13l2-1c.34-.99.66-1.98 1-3 .51-.47 1.01-.95 1.53-1.44 2.6-2.75 2.12-6.69 2.35-10.31 1.23-14.44 6.34-26.56 13.12-39.25h2c.27-.97.54-1.94.82-2.94l1.18-3.06c1-.33 1.99-.66 3-1v-2c5.65-5.83 14.21-14.62 22.6-15.17.96 0 1.92-.01 2.9-.01 1.44-.03 1.44-.03 2.91-.05 2.59.23 2.59.23 5.59 2.23.9-.54 1.79-1.08 2.72-1.64 9.76-5.82 19.49-11.23 31.28-9.36 3.86 2 5.6 3.4 8 7 2.03.29 2.03.29 4.33.01l2.62-.2c.9-.08 1.81-.16 2.74-.25 13.89-1.22 13.89-1.22 19.31 2.99 3.92 4.79 3.92 4.79 4.38 8.39-.12.68-.25 1.36-.38 2.06l1.69.26c7.32 1.35 14.85 4.49 19.31 10.74 1.91 6.91.28 11.75-3 18-2.24 3.13-2.24 3.13-4 5 .32.56.64 1.11.96 1.68 1.98 4.4 2.06 8.64 1.04 13.32-3.77 5.82-8.82 9.05-15 11.94-2.8 1.28-2.8 1.28-5 3.06-.86 2.68-.95 4.74-.77 7.54-.32 3.52-1.78 4.96-4.23 7.46-8.41 5.82-19.72 9-30 9l-.06 2.13c-1.43 4.39-4.07 6.47-7.94 8.87-6.58 2.12-13.22 2.28-20.06 1.88-.91-.05-1.82-.11-2.75-.16-13.99-.96-25.59-4.32-37.89-11.01-2.55-1.32-4.5-2.24-7.3-2.71-9.94 17.28-9.98 34.64-7.71 53.84.88 7.75.91 15.38.71 23.16.85.07 1.7.13 2.57.19 8.1.88 13.12 2.48 18.43 8.81 1.36 2.71.89 4.68.69 7.69-.13 4.43-.13 4.43 1.65 8.34 1.1 1.09 2.2 2.18 3.31 3.27 2.16 2.71 2.18 5.11 1.94 8.49-1.35 5.07-5.08 8.14-9.21 11.09-3.58 1.7-6.62 2.24-10.57 2.16-11.07-.2-11.07-.2-20.62 4.84-.68.7-1.37 1.39-2.08 2.11-5.59 5.34-11.33 5.65-18.74 5.5-4.2-.61-6.3-1.77-9.17-4.83-2.36-3.26-3.2-5.65-3.2-9.66-1.76.06-1.76.06-3.56.13-4.91-.05-9.25-.34-13.2-3.57-2.76-2.88-4.1-4.95-4.98-8.87 1.71-8.45 6.59-14.36 13.51-19.28 5.51-3.47 9.63-4.54 16.23-4.41 2.82-33.08 2.82-33.08-4-65-2.07 3.12-3.57 6.25-5.18 9.63-5.39 10.95-13.77 23.18-25.82 27.37-4.09.37-6.52.21-10.31-1.44-4.45-.67-5.03 0-8.56 2.57-1.29.98-1.29.98-2.6 1.98-6.86 5.14-13.02 6.59-21.58 6.37-3.02-.49-4.12-.94-6.26-3.04-2.51-2.84-2.51-2.84-6.19-2.38-1.5.3-3 .62-4.5.94-16.38 2.98-16.38 2.98-23 0-4-3.09-5.21-5.11-6-10-.82-.01-1.64-.03-2.49-.04-9.23-.39-16.58-1.84-23.13-8.71-2.48-5.86-1.81-10.93-.06-16.93.63-2.21.63-2.21.68-4.32-1.59-2.05-3.26-4.06-5-6-.93-4.51-.31-9.02 2-13 1.63-1.38 3.29-2.72 5-4 .5-.99.5-.99 1-2h2v-2l6-2c-.11-.58-.23-1.16-.35-1.76-.69-4.12-.96-6.54.79-10.42 8.22-9.02 18.5-12.7 30.56-13.82.03-.7.05-1.4.07-2.12 1.42-4.37 4.06-6.52 7.93-8.88 16.29-6.42 39.5-1.36 55 5 8.2 3.59 15.62 7.16 22.06 13.46 3.94 3.13 9.86 5.54 14.94 5.54-.26-1.67-.53-3.33-.81-5-.15-.93-.3-1.85-.45-2.81-.9-3.91-2.27-7.45-3.74-11.19-1.21-.1-2.42-.19-3.67-.29-15.56-1.36-31.56-3.34-46.33-8.71-1.33-.47-1.33-.47-2.69-.94-13.29-5.07-27.39-12.99-35.31-25.12-1.89-5.55-1.26-9.67 1-14.94-.72-.68-1.44-1.35-2.19-2.05-8.28-7.91-15.69-15.83-16.18-27.82.02-3.7.38-5.81 2.75-8.69 2.62-2.44 2.62-2.44 4.62-3.44-.19-.55-.38-1.11-.58-1.68-6.56-19.22-6.56-19.22-3.23-28.69 3.03-4.39 5.33-6.34 10.63-7.38 1.58-.12 1.58-.12 3.18-.25l-.1-1.87c-.25-7.68.69-14.38 5.54-20.57 4.19-4.18 7.28-4.83 13.01-4.94 1.24.01 1.24.01 2.49.01.84 0 1.68-.01 2.55-.01 7.39.13 13.63 1.61 20.51 4.38 1.15-1.2 1.15-1.2 2.32-2.44 5.47-5.21 12.07-4.59 18.56-1.62"/><path fill="#5d883b" d="M491.5 610.813c2.5 2.19 2.5 2.19 4.5 5.19 2.02.29 2.02.29 4.32 0 .87-.06 1.73-.13 2.62-.19.91-.08 1.81-.17 2.75-.25 13.89-1.22 13.89-1.22 19.31 2.99 3.92 4.79 3.92 4.79 4.38 8.38l-.38 2.07 1.69.26c7.31 1.35 14.85 4.49 19.31 10.74 1.91 6.91.27 11.74-3 18-2.25 3.12-2.25 3.12-4 5 .47.83.47.83.96 1.67 1.97 4.41 2.06 8.64 1.04 13.33-3.77 5.82-8.82 9.04-15 11.93-2.81 1.29-2.81 1.29-5 3.07-.86 2.68-.96 4.73-.78 7.53-.32 3.53-1.78 4.96-4.22 7.47-8.42 5.82-19.72 9-30 9l-.06 2.12c-1.44 4.4-4.08 6.47-7.94 8.88-6.58 2.11-13.22 2.27-20.06 1.87-.91-.05-1.82-.1-2.76-.15-13.98-.96-25.58-4.32-37.89-11.02-2.55-1.32-4.5-2.23-7.29-2.7-9.94 17.28-9.98 34.63-7.72 53.84.88 7.74.91 15.37.72 23.16.85.06 1.69.12 2.56.19 8.11.87 13.12 2.47 18.44 8.81 1.35 2.71.88 4.67.69 7.69-.13 4.43-.13 4.43 1.64 8.34 1.1 1.09 2.2 2.18 3.31 3.26 2.16 2.72 2.19 5.11 1.95 8.5-1.35 5.07-5.08 8.13-9.21 11.08-3.59 1.7-6.63 2.24-10.58 2.16-11.07-.19-11.07-.19-20.61 4.84-.69.7-1.38 1.4-2.08 2.12-5.6 5.34-11.34 5.65-18.75 5.49-4.19-.6-6.3-1.77-9.16-4.83-2.36-3.26-3.2-5.65-3.2-9.65l-3.56.12c-4.91-.04-9.26-.34-13.21-3.57-2.75-2.87-4.09-4.95-4.98-8.86 1.72-8.46 6.59-14.37 13.52-19.29 5.5-3.46 9.63-4.54 16.23-4.4 1.11-20.67 1.11-41.31 1-62h-2c-1.76-3.09-2-4.24-2-8h-4v-2h-2l-1-3-2 2c-.06-.97-.12-1.93-.18-2.92-.09-1.27-.17-2.53-.26-3.83-.08-1.26-.16-2.51-.24-3.8-.25-2.64-.56-4.93-1.32-7.45h5c1.99 3.43 3.9 6.8 5.62 10.37 1.11 2.74 1.11 2.74 3.38 3.63v2c1.08.18 1.08.18 2.19.37 2.81.63 2.81.63 5.31 1.69 2.68 1 4.67 1.1 7.5.94 3.77-8.45 2.9-16.06 2-25-.1-1.08-.2-2.15-.3-3.26-.22-2.25-.45-4.5-.7-6.74.95.49 1.9.99 2.88 1.5 2.84 1.64 2.84 1.64 5.12 1.5l2-4h2l1 6 3-1c1.11-2.39 1.11-2.39 2-5 .99-1.49.99-1.49 2-3h2v-4c-1.98-.5-1.98-.5-4-1l-1-20h2c-.09-.61-.19-1.22-.28-1.85-.81-9.78 3.64-16.89 8.28-25.15h2c.27-.97.54-1.94.81-2.94.39-1.01.79-2.02 1.19-3.06l3-1v-2c5.65-5.83 14.21-14.63 22.59-15.17.96-.01 1.92-.01 2.91-.02l2.91-.04c2.59.23 2.59.23 5.59 2.23.89-.55 1.79-1.09 2.71-1.65 22.94-13.68 22.94-13.68 34.79-7.54"/><path fill="#79a54a" d="M334.875 523.938c7.44 4.02 13.22 10.11 19.12 16.06.69-.33 1.37-.66 2.07-1 4.97-1.69 8.52-1.59 13.37.44 9.93 6.43 15.66 17.14 18.23 28.48.16 1.03.16 1.03.33 2.08.6.02 1.19.03 1.8.05 4.15.25 6.6.51 10.02 3.01 7.03 9.44 7.39 18.45 7.43 29.93 0 2.05.04 4.09.07 6.14.06 8.67-.95 16.53-3.32 24.87h-1c-1.1-4.41-1.07-8.48-1-13h2c1.04-5.28 1.32-10.51 1.57-15.87.06-1.32.06-1.32.13-2.67l.3-6.46h-2c-2.2-4.55-2.58-9.03-3-14h-2c-.33.99-.65 1.98-1 3l-3-3-.02 1.78c-.71 35.36-.71 35.36-11.56 46.91-4.41 3.79-7.37 4.67-13.03 4.59-4.82-.56-8.15-2.87-11.35-6.52-2.19-2.97-3.95-6.02-5.72-9.26-4-7.15-8.49-13.86-13.32-20.5-.39-.54-.78-1.09-1.19-1.65-9.56-14.01-9.56-14.01-22.81-23.35 2.85 5.19 6.02 9.92 9.5 14.69 4.64 6.45 8.92 13.06 13 19.87.5.83.99 1.65 1.5 2.49 5.53 9.35 9.13 16.42 9.19 27.51.02 1.1.03 2.19.05 3.32-.3 4.02-.92 6.86-3.88 9.7-11.08 6.29-25.53 4.77-37.41 1.57-10.77-3.24-20.58-7.46-28.95-15.15 1-3 1-3 4.07-4.68.97-.44 1.94-.87 2.93-1.32a72 72 0 0 0-8.37-7.44c-3.62-2.77-7.15-5.61-10.63-8.56-.32 1.98-.66 3.96-1 6 .51.31 1.02.61 1.54.92 1.96 1.27 3.75 2.49 5.46 4.08.44 2.82.44 2.82 0 5-9.59-7.76-18.45-15.95-20.4-28.64-.27-4.42-.05-7.41 2.78-10.92 2.62-2.44 2.62-2.44 4.62-3.44-.19-.55-.38-1.11-.58-1.68-6.56-19.22-6.56-19.22-3.23-28.69 3.03-4.39 5.33-6.34 10.63-7.38 1.05-.08 2.1-.16 3.18-.25l-.1-1.87c-.25-7.68.69-14.38 5.54-20.57 4.19-4.18 7.28-4.83 13.01-4.94 1.24.01 1.24.01 2.49.01.84 0 1.68-.01 2.55-.01 7.39.13 13.63 1.61 20.51 4.38.77-.8 1.53-1.61 2.32-2.44 5.47-5.21 12.07-4.59 18.56-1.62"/><path fill="#7aa54a" d="M491.5 610.813c2.5 2.19 2.5 2.19 4.5 5.19 2.02.29 2.02.29 4.32 0 .87-.06 1.73-.13 2.62-.19 1.36-.12 1.36-.12 2.75-.25 13.89-1.22 13.89-1.22 19.31 2.99 3.92 4.79 3.92 4.79 4.38 8.38l-.38 2.07c.56.08 1.11.17 1.69.26 7.31 1.35 14.85 4.49 19.31 10.74 1.91 6.91.27 11.74-3 18-2.25 3.12-2.25 3.12-4 5 .32.55.63 1.1.96 1.67 1.97 4.41 2.06 8.64 1.04 13.33-3.77 5.82-8.82 9.04-15 11.93-2.81 1.29-2.81 1.29-5 3.07-.86 2.68-.96 4.73-.78 7.53-.32 3.53-1.78 4.96-4.22 7.47-8.42 5.82-19.72 9-30 9-.5 1.48-.5 1.48-1 3v-5h7l2-4c-2.96-1.98-3.68-2.27-7.01-2.42-.76-.04-1.52-.07-2.3-.11-.78-.03-1.57-.07-2.38-.1-.79-.04-1.59-.07-2.41-.11-1.97-.1-3.93-.18-5.9-.26l2 6h-14v-2c-1.24.1-2.48.2-3.75.31-9.25-.01-18.69-4.91-25.25-11.31-3.03-3.49-4.32-6.87-4.12-11.5.93-5.19 3.04-8.22 7.12-11.5 8.51-5.67 17.38-9.55 27-13 1.67-.68 3.34-1.37 5-2.07 14.76-5.93 14.76-5.93 21-5.93v-2c-18.19 1.13-35.73 4.18-51.68 13.46-4.78 2.69-7.98 2.98-13.32 2.54-4.57-2.14-4.57-2.14-6-5-2.17-11.27 3.15-21.66 9-31 2.43-2.89 4.8-5.04 8-7l3-2c3.19-.13 3.19-.13 6 0l2 9c.65-.57 1.31-1.14 1.98-1.73 8.3-7.02 17.14-14.05 28.02-16.27l-4-3 2.38.12c2.78.16 2.78.16 4.62-2.12-5.01-.17-8.39-.11-13 2h-3l-1 2-2-2c1.58-.65 3.17-1.3 4.75-1.94.88-.36 1.76-.72 2.67-1.09 6.68-2.52 13.58-3.52 20.08-.16M283.313 684.75c12.03.01 23.03 1.38 32.69 9.25 1.69 2.66 2 3.8 2 7-1.07 3.2-2.01 4.34-4.9 6.03-2.61 1.2-5.27 2.13-7.98 3.1-10.79 4.01-27.77 12.17-33.12 22.87 4.95-1.46 9.09-3.62 13.56-6.13 12.5-6.83 28.75-15.56 43.44-13.87 6.1 1.84 10.6 5.64 14 11 2.87 8.16 1.65 18.31-2 26-3.08 5.91-7.16 11.41-12 16h-2l-3-7c-.8.96-.8.96-1.62 1.94-7.46 8.66-15.29 16.24-27.07 17.43-3.31-.37-3.31-.37-5.19-1.87-1.56-3.47-1.7-6.72-2.12-10.5-1.04.57-2.08 1.13-3.14 1.71-1.37.75-2.74 1.49-4.11 2.23-.68.37-1.37.74-2.07 1.13-.99.53-.99.53-2.01 1.08-.61.33-1.22.66-1.84 1-3.97 1.84-7.61 1.99-11.96 1.98h-3.19c-2.68-.13-2.68-.13-4.68-1.13-.08-3.96.03-7.13 1-11-4.46.99-4.46.99-9 2 .74 1.33.74 1.33 1.5 2.69 1.49 3.29 1.5 4.83 1.5 8.31 1.44 1.69 1.44 1.69 3 3v2h22c-6.74 3.37-13.74 3.71-21.02 1.79-3.2-1.28-4.95-3.06-6.98-5.79-.39-1.65-.73-3.32-1-5-.91-.06-1.81-.12-2.74-.18-1.77-.13-1.77-.13-3.57-.26-1.18-.08-2.35-.16-3.56-.24-3.13-.32-3.13-.32-6.13-1.32v-3l-2-1c.18-.97.37-1.94.56-2.94.14-1.01.29-2.02.44-3.06l-1-1c-1.22-8.76 1.57-14.36 6.67-21.26.65-.86.65-.86 1.33-1.74l-1.9-.15c-.82-.07-1.64-.15-2.48-.22-.81-.07-1.62-.14-2.46-.22-2.16-.41-2.16-.41-4.16-2.41-.11-3.72 1.41-5.79 3.81-8.44 4.42-4.2 11.89-9.56 18.19-9.56-2.26-2.34-4.28-4.19-7-6 0-2.19 0-2.19 1-5 8.4-8.31 23.85-9.58 35-10-.67-.61-1.33-1.23-2.01-1.86-.66-.71-1.32-1.41-1.99-2.14.58-6.79 5.83-5.23 11.31-5.25"/><path fill="#7d5a3b" d="M371 752h1c.77 3.39 1.12 6.51 1.1 9.99-.01.96-.01 1.93-.01 2.92l-.03 3.12c0 1.07-.01 2.14-.01 3.24-.02 4.56-.04 9.13-.07 13.69-.02 3.34-.03 6.67-.04 10.01l-.03 3.12c0 .97 0 1.93-.01 2.92 0 .85-.01 1.69-.01 2.56.12 2.56.55 4.93 1.11 7.43h-2l1 6c1.18-.01 2.36-.02 3.58-.04 1.56 0 3.11-.01 4.67-.02l2.36-.03c1.13 0 1.13 0 2.28-.01 1.04-.01 1.04-.01 2.1-.01 2.11.12 3.98.53 6.01 1.11.39-.48.77-.96 1.17-1.46.52-.63 1.04-1.26 1.58-1.92.51-.62 1.02-1.25 1.55-1.89 1.82-1.85 3.29-2.79 5.7-3.73h3v-14h9c-.5.99-.5.99-1 2 1.2-.14 2.39-.29 3.62-.44 3.56.03 5.34.68 7.88 3.19 3.29 4.3 2.62 8.21 2.31 13.39.27 4.05 2.04 5.42 4.83 8.15 2.16 2.72 2.19 5.12 1.95 8.5-1.35 5.07-5.08 8.13-9.21 11.09-3.59 1.69-6.63 2.23-10.58 2.16-11.07-.2-11.07-.2-20.61 4.84-.69.69-1.38 1.39-2.08 2.11-5.6 5.34-11.34 5.65-18.75 5.49-4.19-.6-6.3-1.77-9.16-4.82-2.36-3.26-3.2-5.65-3.2-9.66l-3.56.12c-4.91-.04-9.26-.34-13.21-3.57-2.75-2.87-4.09-4.95-4.98-8.86 1.72-8.45 6.59-14.37 13.52-19.28 5.5-3.47 9.63-4.54 16.23-4.41.88-17.68 1.13-35.3 1-53"/><path fill="#8db85c" d="M334 523.5c.99.5 1.98.99 3 1.5l-4 2v-2c-2.1-.11-4.21-.19-6.31-.25-1.17-.05-2.35-.09-3.55-.14-3.2.07-3.2.07-5.01 2.25-2.25 4.26-2.32 7.52-1.13 12.14h2c.08-.74.17-1.49.25-2.25.92-3.36 1.93-4.71 4.75-6.75 6.08 0 12.29 4.05 16.56 8.12 3.39 3.59 6.14 7.55 8.86 11.65 1.4 1.97 2.81 3.59 4.58 5.23.37-.87.37-.87.75-1.75 1.46-2.63 2.89-4.37 5.25-6.25 2.25.25 2.25.25 4 1l-2 4h-2c-.27.93-.54 1.86-.81 2.81-1.69 4.52-1.69 4.52-4.19 6.19-2.44.5-2.44.5-5 0-4-4.11-4-4.11-4-7h-2c-1.51-1.68-1.51-1.68-3.12-3.88-.54-.71-1.08-1.43-1.64-2.17C338 546 338 546 338 544c-.68-.27-1.36-.54-2.06-.81-3.34-1.35-6.64-2.77-9.94-4.19q-.405 1.11-.81 2.25c-1.13 2.62-2.4 4.55-4.19 6.75-4.42-.61-7.93-2.37-11.81-4.44-9.61-5.05-9.61-5.05-20.19-5.56-4.68 5.69-4.12 12.84-4 19.81.05 2.74.05 5.45 0 8.19l-1 1c-3.34-.01-6.67-.08-10.01-.21-3.37-.07-5.57-.04-8.5 1.72L264 570c-.2-6.05-.2-6.05 0-8 2-2 2-2 4.62-2.12l2.38.12-1-2h-3l2-4-4-1q-.375 1.14-.75 2.31c-1.37 2.95-2.49 4.05-5.25 5.69h-2v2c1.49-.5 1.49-.5 3-1l-.06 3.44c-.01 4.57.47 9.03 1.06 13.56h-2v2l2 1 1 2-2 3c-.65-1.56-1.3-3.12-1.94-4.69-.36-.87-.72-1.74-1.09-2.63-2.46-6.79-3.2-14.19-.78-21.06 3.03-4.38 5.33-6.33 10.62-7.37 1.05-.08 2.11-.16 3.19-.25-.03-.62-.07-1.23-.11-1.87-.24-7.68.7-14.38 5.55-20.57 4.18-4.18 7.28-4.83 13.01-4.94h5.04c7.39.13 13.63 1.61 20.51 4.38.76-.8 1.53-1.61 2.31-2.44 5.03-4.79 11.54-4.71 17.69-2.06"/><path fill="#66933f" d="m436 680 2 1-2.06 2.94c-2.16 3.81-2.35 6.64-1.6 10.92 1.69 5.47 5.25 8.08 9.97 10.83 7.21 3.7 13.57 5.76 21.69 6.31v2h14l-3-5 1-2c2.94.06 5.87.15 8.81.25.84.01 1.67.03 2.53.04 6.2.25 6.2.25 8.73 2.76.46.96.46.96.93 1.95-1.06 1.5-1.06 1.5-3 3-3.69.19-3.69.19-7 0 .22 1.55.22 1.55.44 3.12-.45 4.01-.58 4.6-3.32 7.19-7.04 5.14-15.79 5.05-24.18 4.57-.91-.06-1.82-.11-2.76-.16-15.36-1.06-27.76-5.28-41.18-12.72 3.5-1.75 7.35.05 11 1l3-4c-.93-.16-1.86-.33-2.81-.5-5.72-1.64-11.02-5.32-15.19-9.5-.65-3.77-.16-4.75 2-8h2v-2h2v-2c1.68-1.51 1.68-1.51 3.88-3.12.71-.54 1.43-1.08 2.17-1.64C428 686 428 686 430 686v-2c1.96-1.39 3.96-2.73 6-4"/><path fill="#567b39" d="M524 625h2l1 6 2.88-.12C533 631 533 631 535 633l3 2c.5.99.5.99 1 2 2.06.39 2.06.39 4.44.5 4.34.28 4.34.28 6.56 2.5 1.74 6.97.3 11.7-3 18-2.25 3.12-2.25 3.12-4 5 .32.55.63 1.11.96 1.68 1.97 4.4 2.06 8.63 1.04 13.32-3.77 5.82-8.82 9.05-15 11.94-3.95 1.87-3.95 1.87-5.88 5.58-.23 2.53-.2 4.94-.12 7.48l-1 2h-5v2l-2 2h-4v2c-3.38.19-3.38.19-7 0l-2-3c1-3 1-3 3-4.1.8-.32 1.61-.63 2.44-.96 2.81-1.13 4.4-1.78 6.56-3.94 0-2.81-.42-4.41-2.41-6.44-1.49-1.24-3.04-2.4-4.59-3.56 2.75-1.83 5.06-2.71 8.19-3.65 8.23-2.48 15.23-5 19.81-12.73.33-.86.66-1.73 1-2.62-.63-.2-1.25-.41-1.9-.62-.82-.27-1.63-.54-2.48-.82-.81-.26-1.62-.53-2.46-.81C528 667 528 667 526 666v-2c1.57-1.3 1.57-1.3 3.69-2.75 6.64-4.87 9.76-9.06 11.31-17.25-7.37-5.68-15.02-6.66-24-8 .6-2.02 1.27-4.02 2-6 2.12-.88 2.12-.88 4-1z"/><path fill="#77a349" d="M395 758c6.63 9.94 4.18 30.02 4.38 41.69.03 1.22.07 2.43.11 3.69.09 9.71.09 9.71-3.01 13.45-1.23 1.08-1.23 1.08-2.48 2.17-.82-.31-1.65-.62-2.5-.94-2.77-.84-4.98-1.28-7.81-1.56-1.22-.16-2.44-.33-3.69-.5-2.26-4.52-1.11-11.16-1.03-16.15.03-3.2 0-6.39-.02-9.58.01-2.34.03-4.68.05-7.02l-.06-3.43c.14-7.9.14-7.9 2.77-10.54 2.05-1.24 4.13-2.25 6.29-3.28 2.29-2.13 2.29-2.13 4-4.31.58-.7 1.15-1.4 1.75-2.12.41-.52.82-1.03 1.25-1.57"/><path fill="#856b4d" d="M371 752h1c.77 3.39 1.12 6.51 1.1 9.99-.01.96-.01 1.93-.01 2.92l-.03 3.12c0 1.07-.01 2.14-.01 3.24-.02 4.56-.04 9.13-.07 13.69-.02 3.34-.03 6.67-.04 10.01l-.03 3.12c0 .97 0 1.93-.01 2.92 0 .85-.01 1.69-.01 2.56.12 2.56.55 4.93 1.11 7.43h-2l1 6h2l1 5c.75.03 1.5.05 2.27.08 7.91.45 7.91.45 11.48 2.48 1.9 3.71 1.47 6.61.25 10.44-4.78 10.39-4.78 10.39-8 12-1.54.07-3.08.08-4.62.06-.82-.01-1.64-.02-2.48-.02-.63-.02-1.25-.03-1.9-.04l-1-3h-2v-11c-1.1.03-2.19.07-3.32.11-1.46.02-2.91.05-4.37.08-.72.02-1.44.05-2.18.07-4.61.07-7.43-.48-11.13-3.26 1.04-6.75 5.93-11.3 10.89-15.52 2.98-2.09 5.55-2.81 9.11-3.48-.5-2.48-.5-2.48-1-5l-8 1c3.64-2.43 5.71-2.16 10-2 .88-17.68 1.13-35.3 1-53"/><path fill="#537a37" d="M324 758c1.68 3.26 2.89 6.5 4 10h7c-.25 2.38-.25 2.38-1 5-2.9 1.92-4.74 2.11-8.12 1.69-5.41-.15-8.25 2.32-12.42 5.49-6.86 5.09-12.86 6.27-21.35 6.45-3.11-.63-3.11-.63-5.65-3.18-3.12-2.87-5.7-2.76-9.85-2.68-2.43.13-4.87.29-7.3.48q-3.66.24-7.32.45c-1.08.08-2.16.16-3.27.24C256 782 256 782 253 781c-1.84-1.88-3.37-3.93-5-6l2-1c-.57-2.87-.86-3.86-3-6v-3h-6v-1l16-2-2 12c9.01.47 15.93.11 24-4 .94-.46 1.87-.91 2.84-1.38 2.4-1.18 4.78-2.39 7.16-3.62l.15 1.86c.07.81.15 1.62.23 2.45.1 1.2.1 1.2.21 2.43.31 2.53.31 2.53 2.41 5.26 8.02 1.15 14.39-2.61 20.62-7.25 4.31-3.49 7.9-7.44 11.38-11.75"/><path fill="#4f7633" d="M356 714h5c1.95 3.37 3.84 6.66 5.5 10.19 1.34 2.84 1.34 2.84 3.44 4.75 7.93 7.93 10.21 20.71 10.51 31.55 0 2.58-.02 5.17-.06 7.76-.01 1.39-.01 2.78-.02 4.17-.01 3.6-.05 7.21-.1 10.81-.04 3.71-.05 7.41-.07 11.11-.05 7.22-.12 14.44-.2 21.66h8v1c-2.1.25-4.21.47-6.31.69-1.17.13-2.35.25-3.55.38-3.14-.07-3.14-.07-5-1.43-2.3-3.31-2.23-5.64-2.14-9.64l1 4h2c-.33-.72-.65-1.45-.99-2.19-1.01-2.82-1.25-4.74-1.22-7.7 0-.95.01-1.89.01-2.87.01-1.01.03-2.02.04-3.06.01-1.05.01-2.11.02-3.2.01-3.37.04-6.74.08-10.1.03-3.35.05-6.7.07-10.05.01-2.08.03-4.16.05-6.24.04-5.82-.23-11.51-.84-17.3C371 746 371 746 371 743h-2c-1.76-3.09-2-4.23-2-8h-4v-2h-2l-1-3-2 2c-.06-.96-.12-1.93-.18-2.92-.09-1.27-.17-2.53-.26-3.83-.08-1.25-.16-2.51-.24-3.8-.25-2.63-.56-4.93-1.32-7.45"/><path fill="#8f6946" d="M425 800c2.01 1.64 2.01 1.64 4 4 .18 2.77.18 2.77-.12 5.81-.27 4.36-.27 4.36 1.44 8.21 1.1 1.1 2.21 2.19 3.32 3.27 2.16 2.72 2.19 5.12 1.95 8.5-1.35 5.07-5.08 8.13-9.21 11.09-3.71 1.75-7.07 2.25-11.15 2.44-.89.04-1.77.08-2.69.12l-2.79.12c-.94.05-1.87.09-2.84.13-2.3.11-4.61.21-6.91.31v-2l3.21-.08c1.39-.05 2.78-.11 4.17-.17.69-.01 1.39-.03 2.11-.04 2.29-.07 2.29-.07 5.51-.71 1.56-1.91 1.56-1.91 2-4l-5-1v-2c-.6-.1-1.21-.2-1.83-.31-3.23-1.03-4.34-2.9-6.2-5.64-1.63-3.44-1.3-6.3-.97-10.05 3.94-1.97 8.71-1.46 13-1 2.47 1.07 3.94 2.22 6 4 1.56-4.39 1.56-4.39 2-9l2-2v2h2v-6h-2v-2l-3-1c1-2 1-2 2-3"/><path fill="#5f8144" d="M320 524c5.3-.18 8.97.21 14 2 1.14-.13 1.14-.13 2.29-.27 4.01.4 6.09 2.87 8.83 5.58.53.5 1.05 1 1.59 1.52 2.47 2.35 4.89 4.75 7.29 7.17l2.06-1c5.09-1.73 8.6-1.61 13.5.62 3.58 2.3 7.02 4.84 9.44 8.38.38 3.38.38 3.38 0 6-3.19.88-3.19.88-7 1-1.28-1.47-2.55-2.95-3.69-4.54-1.41-1.8-1.41-1.8-4.75-2.77-4.06.35-4.46.8-7 3.75-.87 1.17-1.74 2.35-2.56 3.56-3.54-1.18-3.81-1.91-5.69-5-5.45-8.41-11.3-16.04-21.31-19-3.29.45-4.95 1.36-7 4-.71 2.1-.71 2.1-1 4h-2c-2.22-6.28-2.22-6.28-1.12-9.94L317 527h2z"/><path fill="#684a2d" d="M407 795h9l-1 2 3.88-.12c2.17-.08 2.17-.08 4.12.12l2 2c-.38 2.12-.38 2.12-1 4l2 1v2h2v6h-3c.5 1.98.5 1.98 1 4h-2l-1 6c-.93-.66-1.86-1.32-2.81-2-4.82-2.77-9.78-2.69-15.19-2-3.75 1.13-3.75 1.13-6.25 3.94-.61 1.68-1.19 3.37-1.75 5.06-2.6-.45-4.88-.95-7.31-2-2.92-1.08-5.41-1.4-8.5-1.62-.98-.08-1.95-.15-2.96-.23-.74-.05-1.47-.1-2.23-.15l-1-5c6.08-1.62 12.95-1.76 19 0 .39-.48.77-.96 1.17-1.46.52-.63 1.04-1.26 1.58-1.92.51-.62 1.02-1.25 1.55-1.89 1.82-1.85 3.29-2.79 5.7-3.73h3z"/><path fill="#8cb75c" d="M491.563 610.688c2.65 2.51 3.24 3.72 3.44 7.31h7v-1h18v2h3l-2 5c-1.31.03-2.61.05-3.96.08-14.53.15-14.53.15-28.04 4.92-1.33 2.03-1.33 2.03-2 4h-5l-2-7c-8.47-.97-15.55 2.62-22.24 7.7-1.76 1.3-1.76 1.3-3.76 1.3v2h-3c4.35-10.01 15.52-14.93 25-19 2.42-.69 2.42-.69 4-1l-4-3c.78.04 1.56.08 2.37.13 2.79.16 2.79.16 4.63-2.13-5.01-.17-8.39-.11-13 2h-3l-1 2-2-2c1.58-.65 3.16-1.29 4.75-1.93.88-.36 1.76-.72 2.67-1.09 6.71-2.53 13.53-3.42 20.14-.29"/><path fill="#8eb85f" d="M524.773 618.516c2.59 2.8 4.11 4.58 4.6 8.42-.12.68-.25 1.36-.37 2.06q.825.135 1.68.27c5.9 1.08 10.6 2.98 15.32 6.73.49.99.49.99 1 2h-9l-2-4c-.99.5-.99.5-2 1-.5-1.98-.5-1.98-1-4h-6c-.5-2.97-.5-2.97-1-6l-2 1-1 3-3 1c-1.71 3-1.71 3-3 6 1.11-.06 2.22-.12 3.37-.18 7.58.01 14.76 2.37 20.63 7.18 1.25 3.77.37 5.38-1 9h-3c-.59-1.11-.59-1.11-1.19-2.25-2.54-3.84-5.55-5.36-9.81-6.75-3.67-.67-7.32-1.18-11.03-1.6-2.97-.4-2.97-.4-4.97-1.4v-10c-7.59-.22-14.56.57-22 2l-1-3c9.04-3.99 16.8-5.61 26.69-5.54 4.66.06 4.66.06 8.36-2.48.31-.65.62-1.3.95-1.98h-3v-2c-6.44.5-6.44.5-13 1v1l-12-1 1-2c21.89-3.36 21.89-3.36 28.77 2.52"/><path fill="#517735" d="m484 611-2 4h-4l7 1v1c-.73.14-1.45.27-2.2.41-11.66 2.5-20.52 7.84-29.06 16.09C452 635 452 635 450 635l-2-9c-6.24 1.3-10.12 3.99-15 8-.55.42-1.1.83-1.66 1.26-2.9 2.24-5 4.54-7.03 7.55-.76 1.05-1.52 2.11-2.31 3.19h-3v-9h2v-2h2l1-2 3-2c.29-.58.58-1.15.88-1.75 2.74-5.48 6.28-9.3 12.12-11.25 9.69-.88 9.69-.88 14 2 .78-.52.78-.52 1.57-1.06 3.86-2.51 6.83-4.25 11.43-4.94 1.26-.51 2.5-1.03 3.75-1.56 4.45-1.75 8.53-1.73 13.25-1.44"/><path fill="#8db85d" d="m278 695-1 2c-3.64.9-7.27 1.63-10.95 2.32-5.6 1.14-10 3.01-15.05 5.68h-2c1 2.23 1.81 3.83 3.62 5.5C254 712 254 712 254 716c-1.96 1-3.91 2-5.88 3-1.09.56-2.18 1.11-3.3 1.69C242 722 242 722 240 722v2c-.82.64-1.65 1.28-2.5 1.94-.82.68-1.65 1.36-2.5 2.06v3l6 2c-.44 5.53-1.84 8.5-5 13-2.06 4.89-2.56 9.76-3 15l-5-2c-.92-9.76 2.19-15.41 8-23-.63-.05-1.25-.1-1.9-.15-.82-.07-1.63-.15-2.48-.23-.81-.06-1.62-.13-2.46-.21C227 735 227 735 225 733c-.11-3.72 1.41-5.79 3.81-8.44 4.42-4.2 11.89-9.56 18.19-9.56-2.26-2.34-4.28-4.19-7-6 0-2.19 0-2.19 1-5 9.16-9.05 24.99-9.67 37-9"/><path fill="#679341" d="M307 677c10.38-.94 20.09 4.19 29 9-3.21 1.6-5.67.04-9-1-1.31-.38-2.62-.75-3.94-1.12-1.51-.44-1.51-.44-3.06-.88l-1 2v-2l-3 1v2c.88.35 1.77.7 2.68 1.07 19.8 8.14 19.8 8.14 26.32 16.93-.55.03-1.11.05-1.68.08-14.18.63-14.18.63-28.32 1.92.33-.6.67-1.2 1.01-1.81 1.41-3.12.94-4.95-.01-8.19-2.88-3.44-5.74-5.02-9.88-6.69-1-.41-2.01-.83-3.05-1.26-6.04-2.07-12.12-2.3-18.45-2.61-.83-.05-1.66-.09-2.51-.13-2.04-.11-4.07-.21-6.11-.31v-1l2.26-.06c3.41-.1 6.83-.21 10.24-.32 1.76-.04 1.76-.04 3.55-.09 6.25-.21 12-.52 17.95-2.53l1-2h-4z"/><path fill="#65884d" d="M267 616c3.32 1.46 5.61 3.33 8.25 5.81 4.01 3.66 8.07 6.46 12.75 9.19-3.13 2.64-6.09 3.84-10 5 .9 6.4 2.6 9.32 7.65 13.34 5.8 4.1 11.93 7.62 18.35 10.66l-2 5h-6v-2c-.77-.19-.77-.19-1.56-.38-.81-.2-1.61-.41-2.44-.62-1.07-.23-2.14-.45-3.25-.69-7.91-2.76-13.84-8.63-18.75-15.31-1.42-4.26-1.73-8.23 0-12.44.33-.51.66-1.03 1-1.56h2c-.97-4.32-.97-4.32-4-7.25-.66-.25-1.32-.5-2-.75l-2-2z"/><path fill="#67894c" d="m230 713 2 1c-.99 1.49-.99 1.49-2 3h-3c1 2.99 1.75 3.95 4 6-1.27 1.33-1.27 1.33-2.56 2.69-2.27 2.65-2.27 2.65-2.25 6.19.27.7.53 1.4.81 2.12 4.46.99 4.46.99 9 2-2 4-2 4-3.29 6.01-4.25 6.74-4.53 12.19-3.21 19.93.16.68.33 1.36.5 2.06v5c-4.96-1.24-7.14-2.76-10-7-2.4-4.81-1.16-10.74.31-15.69.64-2.2.64-2.2.69-4.31-1.6-2.06-3.27-4.06-5-6-.94-4.51-.32-9.02 2-13 1.62-1.39 3.29-2.73 5-4l1-2h2v-2c1.88-1.06 1.88-1.06 4-2"/><path fill="#537a36" d="m400 725 3 1v4h2v3c-.99.5-.99.5-2 1-.05 6.94-.09 13.88-.11 20.83-.01 2.36-.02 4.72-.04 7.08-.03 3.39-.04 6.79-.05 10.18l-.03 3.21v2.97c0 .87-.01 1.74-.01 2.63.04 2.32.04 2.32 2.24 4.1.32 2.43.32 2.43.41 5.45l.12 3.26.09 3.41.12 3.45c.1 2.81.18 5.62.26 8.43l-7 3c-.06-1.27-.11-2.54-.17-3.85l-.63-14.29-.27-6.16c-.63-14.59-.63-14.59-1.72-29.16-1.96-24.01-1.96-24.01 3.79-33.54"/><path fill="#618348" d="M360 729c.5 1.98.5 1.98 1 4h2v2h4v4l2 1v3h2l1-2-1 11c-1.98-3.96-3.48-7.85-5-12-2.08 3.11-3.58 6.25-5.19 9.62-5.38 10.96-13.76 23.19-25.81 27.38-4.44.38-6.26.49-10-2 3.13-1.86 5.37-2.2 9-2-.12-.91-.25-1.82-.38-2.75.13-1.07.25-2.14.38-3.25 2.44-1.69 2.44-1.69 4.09-2.64 10.09-7.2 16.62-20.44 18.91-32.36h2z"/><path fill="#577c3a" d="M477 707c3.11.05 6.21.15 9.31.25l2.67.04c6.55.25 6.55.25 9.13 2.76.44.96.44.96.89 1.95-1.06 1.5-1.06 1.5-3 3-3.69.19-3.69.19-7 0 .06 1.09.12 2.19.19 3.31-.19 3.69-.19 3.69-1.38 5.63-2.37 1.39-4.11 1.28-6.81 1.06v2c-5.74.99-11.31 1.15-17.12 1.12-.89.01-1.77.01-2.67.02-4.2-.01-8.12-.07-12.21-1.14v-1h6v-2l-2.48.04-3.27.02-3.23.04c-2.55-.08-4.6-.35-7.02-1.1v-2h2v-2c3.84-.07 7.37-.1 11.18.49 4.51.6 8.9.69 13.44.7l2.53.03c4.4.02 7.84-.15 11.85-2.22-.55-3.96-1.46-7.32-3-11"/><path fill="#547a38" d="M265 553h6c-1.49 1.98-1.49 1.98-3 4l3 1v2l-6 2c-.75 12.16 1.72 19.91 9.61 29.19C276 593 276 593 276 595c-1.01.06-1.01.06-2.05.11-.89.07-1.78.13-2.7.2-.88.06-1.76.12-2.67.18-2.9.57-4.37 1.59-6.58 3.51.61 4.34 1.26 8.68 2 13h-2v2c-1.98.5-1.98.5-4 1-3.23-5.11-4-10.08-3-16 1.52-2.3 1.52-2.3 3-4l-1-1c.47-.72.95-1.44 1.44-2.19 1.55-2.79 2.32-4.64 2.56-7.81-.85-2.75-.85-2.75-2-5h2c-.14-.57-.29-1.14-.44-1.72-1.18-4.9-1.77-9.24-1.56-14.28h-2v-2c2-1.33 4-2.67 6-4v-2h2z"/><path fill="#63442a" d="m368 806 2 5c-3 2-3 2-5.69 2.69-5.61 2.22-9.72 6.24-13.37 11-1.1 2.24-1.1 2.24-.82 4.56.29.58.58 1.15.88 1.75 3.71 1.24 7.31 1.36 11.19 1.56.75.05 1.5.09 2.27.13 1.85.11 3.69.21 5.54.31v8l-1.88.88c-2.25 1.06-2.25 1.06-4.12 3.12v-6c-.93-.1-1.86-.21-2.81-.31-3.19-.69-3.19-.69-4.69-2.31-.74-.69-.74-.69-1.5-1.38-2 .32-4 .65-6 1-3.81-.81-3.81-.81-7-2-1.53-3.06-1.62-5.7-1-9 3.14-7.47 8.01-12.94 15-17 4.01-1.58 7.67-2 12-2"/><path fill="#5f8342" d="m277 529 1 2h6v2h-2c-2.78 9.63-4.08 18.1-2 28-1.48-.11-2.96-.24-4.44-.38-.82-.06-1.64-.13-2.49-.21-.69-.13-1.37-.27-2.07-.41l-1-2h-3l2-4-4-1q-.375 1.14-.75 2.31c-1.37 2.95-2.49 4.05-5.25 5.69h-2v2c1.49-.5 1.49-.5 3-1l-.06 3.44c-.01 4.57.47 9.03 1.06 13.56h-2v2l2 1 1 2-2 3c-.65-1.56-1.3-3.12-1.94-4.69-.36-.87-.72-1.74-1.09-2.63-2.46-6.79-3.2-14.19-.78-21.06 3.03-4.38 5.33-6.33 10.62-7.37 1.05-.08 2.11-.16 3.19-.25-.03-.62-.07-1.23-.11-1.87-.19-6.16.3-11.56 3.11-17.13 2.19-2.06 2.19-2.06 4-3"/><path fill="#8f6a46" d="M387 823c2.62 1.5 2.62 1.5 4 4 .25 7.24-3.06 13.05-7 19-2.34 1.17-3.89 1.2-6.5 1.25-.79.03-1.59.05-2.41.08-.69-.11-1.38-.22-2.09-.33-2.85-4.27-2.5-8.34-1.58-13.23.65-2.71 1.33-5.27 2.58-7.77h2v-2c3.47-1.73 7.21-1.46 11-1"/><path fill="#8cb75d" d="M291.625 523.625h2.56c4.5.07 6.64.29 10.82 2.38h-24c.32 1.32.66 2.63 1 4 3.3.33 6.6.65 10 1-3 2-3 2-6 3l3 3c-.48.86-.95 1.73-1.44 2.62-2.77 5.98-2.67 11.74-2.56 18.19.04 2.73.04 5.45 0 8.19-.33.33-.67.65-1 1-3.35-.01-6.68-.08-10.01-.22-3.38-.07-5.57-.04-8.51 1.72-.49.5-.98.99-1.48 1.5-.2-6.06-.2-6.06 0-8 2-2 2-2 3.98-2.24 4.12.08 8 .2 12.02 1.24-.33-.79-.67-1.57-1-2.38-2.06-7.46-1.43-15.3 1-22.62.66-1 1.31-1.99 2-3h2v-2c-1.99.99-1.99.99-4 2v-2h-4v-3c4.93-4.46 9.17-4.57 15.62-4.38"/><path fill="#64854b" d="M404 661h1v8h-2c.15.5.31 1.01.47 1.52.86 4.01.93 8.09 1.14 12.17.16 3.78.16 3.78 1.39 7.31h2v4h-2c-.23.7-.45 1.4-.69 2.12-1.64 3.6-3.66 5.96-6.31 8.88h-1v-8l-1.88 2c-2.12 2-2.12 2-4.12 2l-1 2-4-4c-.99.5-.99.5-2 1-1.49-5.45-1.49-5.45-3-11h4c.04-2.33.04-4.67 0-7l-1-1q-.06-3 0-6h-2v8l-3 1c-.69-1.62-.69-1.62-1-4 1.44-3.25 1.44-3.25 3-6h2l-1-7 2-1c.21 1.26.41 2.52.62 3.81 1.26 6.41 3.32 12.56 5.35 18.76l.79 2.43c.36 1.08.36 1.08.72 2.19.52 1.81.52 1.81.52 3.81.99-.5.99-.5 2-1l1-3c.5-.47 1.01-.94 1.52-1.43 1.84-1.96 1.92-3.02 2.1-5.67.1-1.19.1-1.19.2-2.41l.18-2.55c.59-6.96 1.47-13.38 4-19.94"/><path fill="#537936" d="M399 582h2l3 14h2q.045 4.53.06 9.06l.03 2.57c.02 4.91-.26 9.53-1.09 14.37l-3-1c.12.89.24 1.78.36 2.7.13 1.17.26 2.34.39 3.55.14 1.16.28 2.32.42 3.52-.17 3.23-.17 3.23-1.98 5.67-2.19 1.56-2.19 1.56-4.94 1.31q-1.11-.375-2.25-.75c.38-3.28.82-6.37 1.73-9.55 3.74-13.31 3.21-27.86 1.28-41.46 0-.66-.01-1.32-.01-1.99z"/><path fill="#608147" d="M379 550c3.47 2.74 4.66 6.57 6.19 10.56.27.69.54 1.37.82 2.08 1.99 5.07 1.99 5.07 1.99 7.36l1.79.04c4.16.25 6.6.51 10.02 3.02 7.03 9.44 7.4 18.45 7.43 29.92.01 2.05.04 4.1.07 6.15.07 8.66-.94 16.53-3.31 24.87h-1c-1.1-4.41-1.08-8.48-1-13h2c1.03-5.28 1.32-10.51 1.56-15.88.07-1.31.07-1.31.13-2.66.11-2.15.21-4.31.31-6.46h-2c-2.2-4.55-2.59-9.03-3-14h-2l-1 3c-2.55-1.28-2.93-2.4-4-5v-3h-5l-.81-2.06c-.39-.97-.79-1.94-1.19-2.94-.24-.61-.48-1.22-.73-1.86-1.31-3.76-1.31-3.76-4.27-6.14-.62-2.06-.62-2.06-1-4-2.48 1.49-2.48 1.49-5 3-3-5.75-3-5.75-3-8l6-1z"/><path fill="#66462b" d="m361 838 3 1c.69 2.06.69 2.06 1 4l2-2h3v3h2l1 2c6.88.57 11.03-.52 17-4-.28 1.67-.28 1.67-.56 3.38-.76 3.45-.76 3.45.56 5.62-2 3-2 3-5 4-11.62 1.15-11.62 1.15-16.41-1.16-3.32-2.75-5.55-5.58-6.59-9.84v-3l-3.56.12c-4.12-.01-7.57-.6-11.44-2.12-1.94-2.12-1.94-2.12-3-4l3.25.06c3.53.15 3.53.15 5.81-.81 3.31-.43 5.35 1.88 7.94 3.75"/><path fill="#608349" d="M315 665c3.48.43 6.76.93 10.12 1.94 9.85 2.9 20.05 3.36 30.25 3.63l2.52.09c.74.01 1.49.03 2.25.05C362 671 362 671 364 673h-5l-1 3c-33.02 2.24-33.02 2.24-42-2l-1-3h-2v-2h2z"/><path fill="#567b37" d="M524 625h2l1 6 2.88-.12C533 631 533 631 535 633l3 2 1 2c2.03.23 4.05.44 6.09.56C547 638 547 638 549 641c.2 2.26.2 2.26.12 4.69-.01.81-.03 1.61-.05 2.45-.02.61-.05 1.23-.07 1.86l-4-2v10c-1.07-.25-2.14-.5-3.25-.75-3.78-.67-3.78-.67-6.19 1.69-.77 1.02-.77 1.02-1.56 2.06l-2-1c.48-.48.96-.97 1.46-1.47 4.46-4.73 6.51-8.1 7.54-14.53-7.37-5.68-15.02-6.66-24-8 .6-2.02 1.27-4.02 2-6 2.12-.88 2.12-.88 4-1z"/><path fill="#557b39" d="M486 613c5.5-.37 5.5-.37 7.88 1.38C495 616 495 616 495 618h7v-1h18v2h3l-2 5c-.56.01-1.12.03-1.69.04-2.59.08-5.17.18-7.75.27-1.32.04-1.32.04-2.66.07-5.41.22-9.87 1.09-14.94 2.98-2.38.78-4.47.88-6.96.64.14-1 .14-1 .29-2.01.91-6.71.91-6.71-1.29-12.99"/><path fill="#667b49" d="M405.188 722.375c.6.21 1.2.41 1.81.62.16 4.93.03 9.31-1 14.13-2.12 10.93-1.01 21.76.29 32.71.87 7.75.91 15.38.71 23.16 1.39.19 1.39.19 2.81.37 1.2.17 2.4.34 3.63.51 1.19.16 2.39.32 3.62.49.97.21 1.94.42 2.94.63l1 2c-2.87.63-2.87.63-6 1-.66-.65-1.32-1.31-2-2-1.98-.33-3.96-.65-6-1v14h-1l-.15-2.18c-.23-3.25-.48-6.5-.72-9.75-.08-1.14-.16-2.28-.24-3.45-.08-1.08-.17-2.16-.25-3.27-.11-1.5-.11-1.5-.23-3.03-.13-.76-.27-1.53-.41-2.32-.66-.33-1.32-.65-2-1v-50c.99-.33 1.98-.65 3-1v-3h-2c-.18-.92-.18-.92-.37-1.87-.5-2.32-.5-2.32-2.63-4.13 3-2 3-2 5.19-1.62"/><path fill="#7b644d" d="M425 800c2.01 1.64 2.01 1.64 4 4 .18 2.77.18 2.77-.12 5.81-.27 4.36-.27 4.36 1.44 8.21 1.1 1.1 2.21 2.19 3.32 3.27 2.16 2.72 2.18 5.11 1.96 8.49-1.05 3.89-3.49 6.71-6.6 9.22h-2v-2l-4-1v-4l1.56-1.5L426 829c-.27-2.97-.85-3.85-3-6-.25-3.5-.25-3.5 0-7l2-2-1-3 2-1v2h2v-6h-2v-2l-3-1c1-2 1-2 2-3"/><path fill="#577c3c" d="M230 760c1.23.48 1.23.48 2.48.96 4.03 1.19 7.72 1.48 11.9 1.66l2.23.12c1.79.1 3.59.18 5.39.26v1l-5 1c.5.89.99 1.77 1.5 2.69 1.49 3.29 1.5 4.83 1.5 8.31 1.44 1.69 1.44 1.69 3 3v2h22c-6.74 3.37-13.74 3.71-21.02 1.79-3.2-1.28-4.95-3.06-6.98-5.79-.39-1.65-.73-3.32-1-5-.9-.06-1.81-.12-2.74-.18-1.18-.09-2.36-.17-3.57-.26-1.17-.08-2.35-.16-3.55-.24C233 771 233 771 230 770v-3l-2-1z"/><path fill="#86a070" d="M432 715c2.92.36 2.92.36 6.19 1.31 1.08.31 2.17.61 3.29.93l2.52.76-3 1v2h-2v2l16 1-1 3h27v-2l-2-1c2.97.5 2.97.5 6 1-3.52 4.13-7.82 4.37-13 5-3.37.17-6.69.07-10.06-.12-.91-.06-1.82-.11-2.76-.16-15.36-1.06-27.76-5.28-41.18-12.72 2.7-1.35 4.1-.69 7 0 1.05.37 1.05.37 2.12.75.93.12.93.12 1.88.25.41-.52.81-1.03 1.23-1.57.58-.47 1.17-.94 1.77-1.43"/><path fill="#809a6d" d="m307 676-2 3c-2.61.34-2.61.34-5.88.29l-3.54-.03c-1.22-.02-2.44-.05-3.7-.07l-3.74-.04c-3.04-.04-6.09-.09-9.14-.15v2l-3.44.88c-1.17.37-2.35.74-3.56 1.12l-1 2-3-3-1 7h-11v-1c3.46-.5 3.46-.5 7-1l.06-2.12c1.43-4.37 4.07-6.52 7.94-8.88 10.48-4.13 25.39-3.09 36 0"/><path fill="#4c7332" d="M399 728c2.87 2.87 2.51 5.88 2.69 9.75l.12 2.37c.47 11.45.62 23.65-1.81 34.88h-2c-1.29-10.08-2.22-20.08-2.31-30.25l-.06-2.63c.01-5.47.87-9.24 3.37-14.12"/><path fill="#4f7535" d="m230 713 2 1c-.99 1.49-.99 1.49-2 3h-3c1 2.99 1.75 3.95 4 6l-1.24 1.18c-4.69 4.87-5.98 9.18-6.76 15.82a98 98 0 0 1-6-2c-1.96-3.92-1.35-8.61-.31-12.75 1.64-2.82 3.71-4.31 6.31-6.25l1-2h2v-2c1.88-1.06 1.88-1.06 4-2"/><path fill="#7b9666" d="m303 777 2 1c1.54.22 3.08.41 4.62.56.82.09 1.64.17 2.48.26.63.06 1.25.12 1.9.18-4.21 4.56-9.14 6.62-15.27 7.43-8.46.33-8.46.33-11.61-1.56-.47-.45-.95-.9-1.43-1.37-2.92-2.71-3.33-2.84-7.07-2.81-1.19.1-2.39.2-3.62.31 3.67-2.44 6.18-3.35 10.56-2.5 5.38.78 12.48.98 17.44-1.5"/><path fill="#4f7635" d="M316 683c4.86-.19 8.45.32 13 2 1.33.25 1.33.25 2.69.5 2.31.5 2.31.5 5.31 2.5.69 2.62.69 2.62 1 5l5-1 1 6c-1.73.66-1.73.66-4 1-2.09-1-2.09-1-4.38-2.56-6.22-3.98-12.79-6.66-19.62-9.44z"/><path fill="#65874e" d="m430 624 2 1c-.99.9-.99.9-2 1.81-2.34 2.07-2.34 2.07-2 5.19-4.22 3-4.22 3-7 3v2h-2c.58 5.31.58 5.31 3 10l-7 11-3-1v-3l-3 1c.5-4.97 1.55-8.64 4-13h2c.27-.97.54-1.94.81-2.94.39-1.01.79-2.02 1.19-3.06l3-1v-2c1.68-1.66 1.68-1.66 3.88-3.5 2.11-1.79 4.16-3.54 6.12-5.5"/><path fill="#4d7332" d="M407 657h4v4h2c-1.7 10.03-1.7 10.03-3.06 14.5-1.29 4.79-1.6 9.57-1.94 14.5l-4-1-1-20h2l-.12-3.75c-.02-3.27.26-5.46 2.12-8.25"/><path fill="#7e986a" d="M524.773 618.516c2.59 2.8 4.11 4.58 4.6 8.42-.12.68-.25 1.36-.37 2.06q.825.135 1.68.27c5.9 1.08 10.6 2.98 15.32 6.73.49.99.49.99 1 2h-9l-2-4c-.99.5-.99.5-2 1-.5-1.98-.5-1.98-1-4h-6l-1-6c-.99.5-.99.5-2 1l-1 3h-3v-4h-2v-2c.96-.43.96-.43 1.93-.87 2.22-.95 2.22-.95 3.07-3.13h-3v-2c-6.44.5-6.44.5-13 1v1l-12-1 1-2c21.89-3.36 21.89-3.36 28.77 2.52"/><path fill="#694b32" d="M402.127 834.863c.68 0 1.36.01 2.06.01 1.31 0 2.63 0 3.98-.01 3.39.12 6.52.49 9.83 1.14l-2 4 2 2h-18v3h-6l-2-5h2c.47-.96.47-.96.94-1.94 1.87-3.63 3.21-3.19 7.19-3.2"/><path fill="#5e8242" d="M234 699c1.97 2.95 2.57 4.55 3 8-1 3-1 3-2 4l3 2 1 1 1-5c2.94 1.31 2.94 1.31 6 3l1 3c-2.27 1.15-4.54 2.29-6.81 3.44-.97.49-.97.49-1.95.98-2.72 1.37-5.34 2.61-8.24 3.58v-2l-3-1v-3h3c.55-3.44 1.01-6.64.88-10.12.14-3.41 1.18-5.13 3.12-7.88"/><path fill="#557938" d="M320 524c5.66-.21 11.72-.32 17 2 1.26 2.08 1.26 2.08 2 4-.99.5-.99.5-2 1-.65 2.02-.65 2.02-1 4-.9-.45-.9-.45-1.83-.91l-2.42-1.15c-.79-.39-1.58-.77-2.39-1.16-2.65-.88-3.79-.78-6.36.22-2.63 2.04-3.44 3.74-4 7h-2c-2.22-6.28-2.22-6.28-1.12-9.94L317 527h2z"/><path fill="#527a37" d="M280 647c3.57.62 5.74 2.09 8.62 4.25 4.89 3.52 9.92 6.23 15.38 8.75l-2 5h-6v-2c-.56-.12-1.11-.25-1.69-.38-2.62-.7-4.89-1.35-7.31-2.62-1.31-2.62-1.31-2.62-2-5h-5c-.62-1.88-.62-1.88-1-4l2-2z"/><path fill="#547936" d="M251 691h7l1 2-1.44 1.38c-1.65 1.55-1.65 1.55-2.56 3.62-1.95.9-3.94 1.72-5.94 2.5-4.42 1.65-4.42 1.65-8.06 4.5-.68 2.2-.68 2.2-1.12 4.62-.26 1.23-.26 1.23-.51 2.48-.12.63-.25 1.25-.37 1.9l-6-3 1-3 1 1 1-7-2-1 5-5 2 2-1 2 4-1-2-2 1-3c1.13-.12 2.27-.25 3.44-.38 1.17-.2 2.35-.41 3.56-.62z"/><path fill="#537937" d="M380 559h3v5h2c.19.71.39 1.42.59 2.15l.79 2.79c.25.91.51 1.83.77 2.77.62 2.46.62 2.46 2.85 3.29l-1 2h5l-1 2c-.72-.08-1.44-.16-2.19-.25-3.65.32-5.09 1.9-7.81 4.25h-2c-.7-2.91-1.38-5.83-2.06-8.75-.2-.83-.4-1.65-.61-2.5-.18-.8-.36-1.6-.55-2.42-.18-.74-.35-1.47-.53-2.22-.28-2.36-.06-3.88.75-6.11z"/><path fill="#4e7332" d="M291.813 524.813c.7-.01 1.4-.02 2.12-.04 4.41-.01 7.97.6 12.07 2.23.38 1.99.71 3.99 1 6l-1 1c-8.13-.56-16.04-2.34-24-4l-1-4c3.64-1.22 7.01-1.19 10.81-1.19"/><path fill="#507535" d="M396 697h2c2.07 6.21-1.36 11.96-4.12 17.5-.96 1.84-1.91 3.67-2.88 5.5h-2q-.765-3.81-1.5-7.62c-.14-.72-.29-1.43-.43-2.17-.8-4.13-1.23-7.97-1.07-12.21.95.5 1.9.99 2.88 1.5 2.84 1.64 2.84 1.64 5.12 1.5z"/><path fill="#6f8e57" d="m258 590 2 1-2 2v3c-.99 1.49-.99 1.49-2 3-.61 4.65-.51 8.79 1.31 13.12.56.62 1.12 1.24 1.69 1.88h3v-2h2l1-2c1.62 2.62 1.62 2.62 3 6-.81 3.38-.81 3.38-2 6 .51.3 1.01.61 1.53.92 1.96 1.26 3.76 2.49 5.47 4.08.44 2.81.44 2.81 0 5-9.6-7.76-18.45-15.96-20.41-28.64-.27-4.51-.02-7.43 2.91-10.98.82-.79 1.65-1.57 2.5-2.38"/><path fill="#6a8b4d" d="M334 523.5c.99.5 1.98.99 3 1.5l-4 2v-2c-2.1-.11-4.21-.19-6.31-.25-1.17-.05-2.35-.09-3.55-.14-3.2.07-3.2.07-5.01 2.25-2.25 4.26-2.32 7.52-1.13 12.14h2l1-5 1 2c-.94 2.62-.94 2.62-2 5-4.74-1.83-9.36-3.92-14-6 .19-.74.37-1.49.56-2.25.43-2.7.29-4.2-.56-6.75 4.89.95 4.89.95 7 1.88l2 .12c2.6-2.35 2.6-2.35 5-5 5.24-1.75 9.97-1.67 15 .5"/><path fill="#859f71" d="M359 673h5l2 5h-2l.06 2.44C364 683 364 683 363 684a77 77 0 0 0-.06 4.56c.01.83.02 1.66.02 2.51.02.63.03 1.27.04 1.93-2.08-3.85-3.5-7.9-5-12l-1.77-.15c-2.66-.23-5.32-.48-7.98-.73-.92-.07-1.84-.15-2.79-.23-.89-.09-1.78-.17-2.69-.26-.82-.07-1.64-.14-2.48-.22-2.41-.43-4.17-1.21-6.29-2.41 5.31-.84 10.57-1.28 15.94-1.56.78-.05 1.56-.09 2.36-.13 1.9-.11 3.8-.21 5.7-.31z"/><path fill="#74905e" d="M270 541h1v12h-6q-.375 1.14-.75 2.31c-1.37 2.95-2.49 4.05-5.25 5.69h-2v2l3-1-.06 3.44c-.01 4.57.47 9.03 1.06 13.56h-2v2l2 1 1 2-2 3c-.65-1.56-1.3-3.12-1.94-4.69-.36-.87-.72-1.74-1.09-2.63-2.46-6.79-3.2-14.19-.78-21.06 3.03-4.38 5.33-6.33 10.62-7.37 1.05-.08 2.11-.16 3.19-.25z"/><path fill="#4e7534" d="M331 670c4.38.09 8.76.2 13.13.32 1.49.04 2.98.07 4.47.1 2.14.05 4.28.11 6.42.17 1.94.04 1.94.04 3.91.09C362 671 362 671 364 673h-5l-1 3c-3.9.2-7.79.38-11.69.56-1.1.06-2.2.11-3.34.17-1.07.05-2.13.1-3.23.15-.98.05-1.96.09-2.97.14-2.73-.02-5.12-.39-7.77-1.02v-1h6v-2l4-1-8-1z"/><path fill="#618246" d="M544 659v7l1 1c.56 3.75.66 7.26 0 11-1.98 2.61-4.21 4.31-7 6-.27-.97-.54-1.94-.81-2.94-.39-1.01-.79-2.02-1.19-3.06l-3-1c.71-.9.71-.9 1.44-1.81 1.72-2.19 1.72-2.19 2.56-5.19l-2-1 3-1q1.545-2.97 3-6c1.69-1.88 1.69-1.88 3-3"/><path fill="#4d7333" d="M304 677c4.75.88 4.75.88 7 2l-1 3c-3 1.5-5.64 1-8.98.88-.68-.02-1.37-.05-2.07-.07-2.19-.08-4.38-.16-6.57-.25-1.49-.05-2.97-.1-4.46-.16-3.64-.12-7.28-.26-10.92-.4l2-1v-2c3-1 4.97-1.12 8.11-1.1.98.01 1.96.01 2.97.01 1.54.01 1.54.01 3.11.03A1974 1974 0 0 1 304 678z"/><path fill="#698954" d="M414.25 706.313c.58.23 1.15.45 1.75.69-.23.76-.45 1.52-.69 2.31-.15 1.33-.15 1.33-.31 2.69 1.33 1.83 1.33 1.83 3 3l-1.8.12c-3.38 1.35-3.95 3.71-5.45 6.94-.52 1.1-1.04 2.21-1.58 3.35-.38.85-.77 1.71-1.17 2.59h-1c-2.16-7.64-2.16-7.64-1-12l-1-2c1.94-3.98 4.32-8.37 9.25-7.69"/><path fill="#72905b" d="M307 677c10.38-.94 20.09 4.19 29 9-3.21 1.6-5.67.04-9-1-1.31-.38-2.62-.75-3.94-1.12-1.51-.44-1.51-.44-3.06-.88l-1 2v-2l-3 1v3l-14-3v-1c.57-.12 1.13-.24 1.71-.37.74-.16 1.47-.33 2.23-.51 1.09-.24 1.09-.24 2.21-.49 2.06-.46 2.06-.46 2.85-2.63h-4z"/><path fill="#8ba277" d="m518 705 4 1c-9.49 7.35-20.08 10.46-32 11l-1 3v-5h7l2-4-3-2 1-2c2.65-.59 5.29-.74 8-1l1 4 7 1v-2c3-2 3-2 6-2z"/><path fill="#6f8d57" d="M402 634c1 3 1 3 .38 4.81-.34.65-.68 1.31-1.03 1.98-.37.72-.73 1.43-1.11 2.16l-1.18 2.24c-.58 1.12-.58 1.12-1.17 2.27-.95 1.85-1.92 3.7-2.89 5.54-.41-.62-.82-1.24-1.25-1.88-1.81-2.49-1.81-2.49-5.75-4.12l5-11c1.39.34 1.39.34 2.81.69 3.16.67 3.16.67 5.07-1.13.37-.51.74-1.03 1.12-1.56"/><path fill="#6f8e56" d="M337 526c3.12 1.41 5.45 3.1 8 5.38.69.61 1.38 1.23 2.09 1.87 2.03 1.86 4 3.76 5.91 5.75l-1 2-2-2c-2.06.01-2.06.01-4 1-1.14 2.01-1.14 2.01-2 4-1.15-1.29-2.29-2.58-3.44-3.88-.64-.71-1.27-1.43-1.93-2.17C337 536 337 536 336 534l1-3-2-1 3-2z"/><path fill="#507735" d="M414 705c4.2 1.49 7.95 3.59 11.82 5.78 2.03 1.14 4.09 2.2 6.18 3.22-1.88 3.88-1.88 3.88-3 5-5.17.42-7.79-1.19-12-4v-2l-4-1h2l-1-3h2z"/><path fill="#4f7635" d="M382 659c2.42 2.42 2.61 3.64 3 7-.28 1.68-.61 3.35-1 5v3c-1.38 1.5-1.38 1.5-3 3l-2 3c-2.43-5.68-3.62-9.82-3-16 1.74-3.24 2.47-3.82 6-5"/><path fill="#8cb75d" d="M475 621v3l3 1c-1.92.31-1.92.31-3.88.62-4.9 1.07-8.59 3.22-12.76 5.94-2.39 1.46-4.74 2.47-7.36 3.44v2h-3c3.22-7.57 11.05-12.35 17.96-16.29 2.43-.85 3.65-.56 6.04.29"/><path fill="#7e5d3d" d="M407 802c1.77.09 3.54.2 5.31.31.99.06 1.97.12 2.99.18 2.7.51 2.7.51 4.56 1.74C421 806 421 806 421 811l-17-1 3-1z"/><path fill="#779460" d="M491.625 610.813c.78.72 1.57 1.44 2.38 2.19v3l-1.82-1c-2.24-1.21-2.24-1.21-5.18-1 .32.55.66 1.11 1 1.69 1.13 2.61 1.15 4.49 1 7.31-.19-.64-.38-1.28-.57-1.94-.47-.68-.95-1.36-1.43-2.06-2.34-.35-4.67-.68-7-1-2.44-2.07-2.44-2.07-4-4 .78.04 1.56.08 2.37.12 2.79.16 2.79.16 4.63-2.12-5.02-.17-8.39-.11-13 2h-3c-.33.66-.67 1.32-1 2-.67-.66-1.32-1.32-2-2 1.58-.65 3.16-1.3 4.74-1.94.89-.36 1.77-.72 2.68-1.09 6.32-2.38 14.15-3.93 20.2-.16"/><path fill="#547b37" d="m517 700 3 1c.69 2.06.69 2.06 1 4h-3v2l-2 2h-4v2c-3.38.19-3.38.19-7 0l-2-3c1-3 1-3 2.71-3.91 1.04-.36 1.04-.36 2.1-.71 1.03-.36 1.03-.36 2.08-.73 1.43-.44 2.86-.83 4.31-1.17 1.81-.32 1.81-.32 2.8-1.48"/><path fill="#4d7432" d="M430 626c.77 2.98 1.41 5.98 2 9l-2.19 1.56c-2.86 2.48-4.61 4.87-6.6 8.05L422 646h-3v-9h2v-2h2l1-2 3-2c1.13-2.02 1.13-2.02 2-4z"/><path fill="#537b34" d="m266 583 1 2c.58.25 1.15.5 1.75.75 3.3 1.83 4.98 4.23 7.25 7.25v2c-.66.01-1.33.03-2.01.04-6.16.23-6.16.23-11.11 3.52-.62.81-1.24 1.61-1.88 2.44l-2-1c1.5-3.11 3.08-6.12 5-9h2z"/><path fill="#86a072" d="M379 550c3.47 2.74 4.66 6.57 6.19 10.56.27.69.54 1.37.82 2.08 1.99 5.07 1.99 5.07 1.99 7.36l4 1h-5l-1.38-2.94c-1.28-3.13-1.28-3.13-3.62-4.06-.62-2.06-.62-2.06-1-4-2.48 1.49-2.48 1.49-5 3-3-5.75-3-5.75-3-8l6-1z"/><path fill="#537a36" d="M267 616c3.48 1.52 5.96 3.58 8.75 6.12l2.42 2.2c.91.83.91.83 1.83 1.68-.87 1.95-.87 1.95-2 4-2.12.75-2.12.75-4 1v-3c-1.11-.43-2.23-.87-3.38-1.31C267 625 267 625 265 622c.88-3.19.88-3.19 2-6"/><path fill="#917963" d="M422.605 834.387c.46.53.92 1.06 1.39 1.61l3 1c-.12 1.88-.12 1.88-1 4-5.29 2.41-10.66 2.43-16.37 2.63l-2.81.12c-2.27.09-4.54.17-6.82.25v-2c1.59-.04 1.59-.04 3.22-.07l4.16-.18c.7-.01 1.4-.03 2.12-.04 2.28-.07 2.28-.07 5.5-.71 1.57-1.91 1.57-1.91 2-4l-5-1v-1a231 231 0 0 1 4.32-1.18c1.2-.33 1.2-.33 2.42-.67 2.26-.15 2.26-.15 3.87 1.24"/><path fill="#72583f" d="m368 806 2 5c-3 2-5.59 2.91-9 4-.99.5-.99.5-2 1-1.71-1.63-2.93-2.87-4-5l-4 2c4.94-5.87 9.42-7 17-7"/><path fill="#65462b" d="M357 833h13v8l-1.88.88c-2.25 1.06-2.25 1.06-4.12 3.12v-6c-2.97-.5-2.97-.5-6-1z"/><path fill="#9fb08e" d="M403 579c5.29 5.29 4.28 15.22 4.32 22.18v2.03c-.01 2.02.02 4.04.04 6.07.01 8.63-1.02 16.4-3.36 24.72h-1c-1.1-4.41-1.08-8.48-1-13h2c1.23-5.76 1.18-11.45 1.19-17.31l.03-3.02c.02-5.47-.36-10.42-1.79-15.72C403 583 403 583 403 579"/><path fill="#8c7663" d="m361 838 3 1v8c-2-3-2-3-2-6l-3.56.12c-4.12-.01-7.57-.6-11.44-2.12-1.94-2.12-1.94-2.12-3-4l3.25.06c3.53.15 3.53.15 5.81-.81 3.31-.43 5.35 1.88 7.94 3.75"/><path fill="#afbea1" d="M230 769c1.9-.05 3.79-.09 5.69-.12 1.05-.03 2.11-.05 3.2-.08 3.18.2 5.31.68 8.11 2.2l1 3 2.56 2.56L253 779v2h22c-6.74 3.37-13.74 3.71-21.02 1.79-3.2-1.28-4.95-3.06-6.98-5.79-.39-1.65-.73-3.32-1-5-1.36-.07-1.36-.07-2.74-.15-1.77-.11-1.77-.11-3.57-.23-1.17-.06-2.35-.13-3.55-.21C233 771 233 771 230 769"/><path fill="#708f5b" d="M277 640c2.86 3.23 4.76 5.6 5 10l-2 2 1 2c.62.08 1.24.16 1.88.25 2.12.75 2.12.75 3.87 3.81L288 661c-5.27-1.48-9.6-4.77-13-9-1.04-3.74-.44-6.9 1-10.5.33-.5.66-.99 1-1.5"/><path fill="#aebfa0" d="M336 687c4.21.95 6.65 2.45 9.69 5.38 4.56 4.22 10.93 7.62 17.31 7.62v-7c2.3 3.44 2.54 5.94 3 10-4.01-.54-7.9-1.43-11.81-2.44-.96-.24-1.91-.49-2.9-.74C349 699 349 699 348 697h-5l-1-4h-4z"/><path fill="#89a176" d="M405.188 722.375c.6.21 1.2.41 1.81.62.2 5.95-.32 11.19-1.49 17.01-.9 5.29-1.18 10.64-1.51 15.99h-1l-1-22c.99-.33 1.98-.65 3-1v-3h-2c-.18-.92-.18-.92-.37-1.87-.5-2.32-.5-2.32-2.63-4.13 3-2 3-2 5.19-1.62"/><path fill="#8aa377" d="M288 661c3.72-.2 4.77-.15 8 2v2c2.93-.27 2.93-.27 6-1l2-3 4 1-2 4h-2l2 1v2h5v2l2 2c-9.08-1.53-17.49-5.8-25-11z"/><path fill="#6d8c55" d="M391.8 652.285c.73.24 1.45.47 2.2.71-1.59 5.09-4.75 8.88-8 13-2-2-2-2-3-4.06-.85-2.1-.85-2.1-3-2.94 1.38-1.2 2.78-2.38 4.19-3.56 1.16-.99 1.16-.99 2.35-2 2.46-1.44 2.46-1.44 5.26-1.15"/><path fill="#8c7764" d="m349 813 2 1c-.99 1.49-.99 1.49-2 3l1 3-4 3 2 1c0 2 0 2-2 4.12l-2 1.88 2 2-3 3c-2.58-3.87-2.59-5.39-2-10 2.14-4.38 4.54-8.54 8-12"/><path fill="#5a7635" d="M378 805h1l1 11h8v1c-2.1.25-4.21.47-6.31.69-1.17.13-2.35.25-3.55.38-3.14-.07-3.14-.07-5-1.43-2.3-3.31-2.23-5.64-2.14-9.64l1 4c4.06-2.04 4.06-2.04 6-6"/><path fill="#829c6f" d="m445.5 617.813 2.91-.04c2.59.23 2.59.23 5.59 2.23 2.15-.31 2.15-.31 4-1a94 94 0 0 1-4 4h-2l-2-2c-.8.33-1.61.66-2.44 1-4.31 1.21-8.12 1.15-12.56 1h-3c4.61-3.87 7.5-5.15 13.5-5.19"/><path fill="#577b3a" d="M305 526c1.5 1.81 1.5 1.81 2 4-.29 1.34-.62 2.68-1 4-9.41-.96-9.41-.96-14-2l1-3 10 1v-2l-11-1v-1c4.61-1.01 8.4-1.15 13 0"/><path fill="#8e7966" d="M364 847c2.87.41 3.82.79 5.72 3.06 2.19 2.26 2.19 2.26 5.51 2.11 1.74-.21 1.74-.21 3.52-.42 1.17-.13 2.34-.26 3.55-.39.89-.12 1.78-.24 2.7-.36v2l4-1-1 2c-5.5 1.83-11.28 1.7-17 1-2.96-1.52-5.11-3.25-7-6z"/><path fill="#a4b793" d="M270 541h1v12h-6q-.375 1.14-.75 2.31c-1.37 2.95-2.49 4.05-5.25 5.69h-2l-1 11h-1c-.32-6.04-.57-10.83 3-16 3.73-3.83 6.73-4.59 12-5z"/><path fill="#4e7733" d="M441 719c6.57-.25 12.57.68 19 2l-1 2c-2.63.34-5.17.56-7.81.69-.73.04-1.45.09-2.2.14-3.5.2-6.65.34-9.99-.83v-2h2z"/><path fill="#8da47b" d="m527 683 10 2c-2.52 2.94-4.63 4.29-8.19 5.62-2.14.87-2.14.87-3.81 2.38-1 3.35-1.11 6.52-1 10h-1q-.045-2.655-.06-5.31c-.01-.99-.03-1.97-.04-2.99.1-2.7.1-2.7 1.1-5.7l2-1z"/><path fill="#92a97f" d="M527 622c2 2 2 2 2.12 4.62L529 629c.56.09 1.11.17 1.69.26 5.89 1.09 10.59 2.98 15.31 6.74l1 2h-9l-2-4c-.99.5-.99.5-2 1l-1-4-5-1z"/><path fill="#879f72" d="M291.625 523.625h2.56c4.5.07 6.64.29 10.82 2.38h-24c.32 1.32.66 2.63 1 4 3.3.33 6.6.65 10 1v1c-.7-.02-1.4-.03-2.12-.04l-5.5-.06c-2.4-.07-2.4-.07-4.38 1.1v-2h-4v-3c4.93-4.46 9.17-4.57 15.62-4.38"/><path fill="#5c863a" d="M285.875 681.813c1.1-.01 2.2-.02 3.34-.04h3.21c.98-.01 1.95-.01 2.95-.02 2.69.25 4.32.87 6.62 2.25l-2.3.03c-3.46.05-6.92.13-10.38.22-1.2.01-2.4.03-3.63.04-1.16.03-2.32.06-3.51.1l-3.22.06c-3.59.66-5.31 2.1-7.96 4.55.38-2.94.38-2.94 1-6 4.1-2.05 9.38-1.19 13.88-1.19"/><path fill="#547835" d="m277 529 1 2h6v2h-2c-1.76 6.66-3.34 13.14-4 20h-1c-.03-2.1-.05-4.21-.06-6.31-.01-1.17-.03-2.35-.04-3.55.1-3.14.1-3.14 1.1-6.14h-2v-3l-2-1z"/><path fill="#89a177" d="M256 690c-.87.4-.87.4-1.75.81-2.31 1.11-2.31 1.11-4.19 2.88-2.06 1.31-2.06 1.31-4.81 1q-1.11-.345-2.25-.69v3l3 2-7 2 1-4-5 2c4.85-5.63 13.4-11.36 21-9"/><path fill="#547a39" d="M260 602c2 1 2 1 3.12 3.31.88 2.69.88 2.69.88 6.69h-2v2l-4 1c-1.5-2.38-2.03-3.66-1.81-6.5.87-2.67 2-4.37 3.81-6.5"/><path fill="#4b7131" d="m239 696 2 2-1 1c-.07 2.75 0 5.49.06 8.24-.05 2.45-.35 4.42-1.06 6.76l-6-3 1-3 1 1 1-7-2-1z"/><path fill="#54783a" d="M374 546.188c2.34.95 3.5 1.79 5 3.81v4l-7 1-3-7c3-2 3-2 5-1.81"/><path fill="#88a074" d="M384 666h1c.12.62.24 1.23.37 1.87 1.13 5.73 2.34 11.43 3.63 17.13l-2-4h-2v-6h-2v8l-3 1c-.69-1.62-.69-1.62-1-4 1.44-3.25 1.44-3.25 3-6h2c-.28-1.7-.28-1.7-.56-3.44-.15-1.17-.29-2.35-.44-3.56z"/><path fill="#a9bb9a" d="m258 590 2 1-2 2v3c-.99 1.49-.99 1.49-2 3-.81 6.12-.1 10.62 3 16l-1 2c-4.15-6.96-6.22-12.74-5-21 1.42-2.52 2.88-3.98 5-6"/><path fill="#7f6751" d="M391 841h2l1 3 5 1c-3.13 3.39-5.57 5.61-10 7-1.14-3.41-.87-4 .44-7.19.28-.71.57-1.43.87-2.17.23-.54.45-1.08.69-1.64"/><path fill="#688a4e" d="m464 615 1 2c1.9.47 1.9.47 4.06.62 1.3.13 2.6.25 3.94.38v2c-4.95 2.48-4.95 2.48-10 5v-4l2-1-7-1c3.75-4 3.75-4 6-4"/><path fill="#5f4126" d="M379.063 847.875c.88 0 1.76-.01 2.66-.01 2.28.13 2.28.13 4.28 1.13v2c-5.28.66-10.56 1.33-16 2 .33-1.32.66-2.63 1-4 2.96-.98 4.97-1.13 8.06-1.12"/><path fill="#7a9663" d="M314 770h4v3h7v2c-.74.1-1.49.21-2.25.31-2.92.73-4.48 1.76-6.75 3.69-2.46-1.23-3.42-2.78-5-5 1.25-2 1.25-2 3-4"/><path fill="#a8ba9b" d="M362 735h5v4l2 1v3h2l1-2-1 11c-1.98-3.96-3.48-7.85-5-12-.99 1.49-.99 1.49-2 3l-2 2z"/><path fill="#7b9863" d="m230 713 2 1c-.99 1.49-.99 1.49-2 3h-3c1 2.99 1.75 3.95 4 6-.99 1.49-.99 1.49-2 3-4.88-1.75-4.88-1.75-6-4l-2-1c1.38-2 1.38-2 3-4h2v-2c1.88-1.06 1.88-1.06 4-2m-5 6 1 2Z"/><path fill="#527b36" d="M315 665c3.38.25 3.38.25 7 1 1.44 2.06 1.44 2.06 2 4l-3 1-2 2h-4v-2h-2v-2h2z"/><path fill="#9aad88" d="M547 638c3 2 3 2 3.94 5.5.5 5.28-1.42 9.92-3.94 14.5l-2 1v-11l3 1 .06-3.81c.01-.71.03-1.42.04-2.15-.02-2.24-.02-2.24-1.1-5.04"/><path fill="#97ab88" d="m430 624 2 1c-.99.9-.99.9-2 1.81-2.34 2.07-2.34 2.07-2 5.19-4.22 3-4.22 3-7 3v2h-2l1 4-5 1c.81-2.94.81-2.94 2-6l3-1v-2c1.68-1.66 1.68-1.66 3.88-3.5 2.11-1.79 4.16-3.54 6.12-5.5"/><path fill="#6b4c31" d="M389 842c1.07 3.22.87 3.9 0 7v3l-4 1 1-4-12-1v-1q.99-.165 2.01-.33c4.9-.88 8.89-1.66 12.99-4.67"/><path fill="#507633" d="M394 648v5h-4c-2.04 1.27-4.05 2.6-6 4-.99.5-.99.5-2 1 .67-1.33 1.33-2.67 2-4 .47-1.05.95-2.1 1.44-3.19 2.3-4.14 4.36-4.11 8.56-2.81"/><path fill="#b9c7ab" d="M404 758h1c1.43 11.74 2.29 23.17 2 35l3 1h-4l-1-22h-2z"/><path fill="#c6d1ba" d="M404 661h1v8h-2l-.15 3.25c-.07 1.44-.15 2.88-.23 4.31l-.09 2.14c-.26 4.71-1.08 8.8-2.53 13.3-1.72-3.45-.66-7.25-.25-11 .09-.86.18-1.72.27-2.6.7-6.03 1.79-11.71 3.98-17.4"/><path fill="#638646" d="m266 580 3 4c-.99.5-.99.5-2 1-.66 3.03-.66 3.03-1 6-2.97-.5-2.97-.5-6-1 .81-3.44.81-3.44 2-7l3-1z"/><path fill="#4c7232" d="M383 675h2v6l2 1-1 7h-4c-.38-1.66-.71-3.32-1-5l1-1c.23-1.35.41-2.7.56-4.06.15-1.3.29-2.6.44-3.94"/><path fill="#a3b792" d="M544 659v7l1 1c.07 1.85.08 3.71.06 5.56-.01 1.01-.02 2.03-.02 3.07-.02.78-.03 1.56-.04 2.37l-2 1v-11c-.99 1.49-.99 1.49-2 3l-3-1c1.12-4.85 2.13-7.78 6-11"/><path fill="#496f30" d="m413 646 2 1c.45 2 .45 2 .69 4.44.08.8.17 1.6.26 2.43C416 656 416 656 415 658l-3-1v-3l-3 1 1-4h2z"/><path fill="#a3b691" d="M334 523.5c.99.5 1.98.99 3 1.5l-4 2v-2c-2.1-.08-4.21-.14-6.31-.19-1.17-.03-2.35-.07-3.55-.1-3.13 0-3.13 0-5.06 1.8-.36.49-.71.98-1.08 1.49l-2-1c5.38-5.76 11.82-6.6 19-3.5"/><path fill="#4c6e35" d="M351 702c1.75-.08 3.5-.14 5.25-.19.97-.03 1.95-.07 2.95-.1 3.17.33 4.47 1.18 6.8 3.29l-4 2-1-1c-1.51-.23-3.04-.41-4.56-.56-.83-.09-1.66-.17-2.51-.26-.63-.06-1.27-.12-1.93-.18z"/><path fill="#5c7b44" d="M278 779c-6.25 4.16-14.72 3.14-22 3v-2c.76-.06 1.52-.12 2.3-.18.99-.09 1.99-.17 3.01-.26.99-.08 1.97-.16 2.99-.24 8.83-1.04 8.83-1.04 13.7-.32"/><path fill="#4d7132" d="M368 541q1.53 1.47 3 3v1h-17l-1-2c1-.06 2-.12 3.03-.18 1.29-.09 2.58-.17 3.91-.26 1.29-.08 2.57-.16 3.9-.24 3.02.03 3.02.03 4.16-1.32"/><path fill="#689442" d="M356 709c4.22.48 6.8 1.17 10 4-.99 1.49-.99 1.49-2 3 .31 2.15.31 2.15 1 4l-4-4c-.87-.77-.87-.77-1.75-1.56C358 713 358 713 358 710z"/><path fill="#4b7131" d="m268 682 3 1v7l-7 2v-2l-3-1h6z"/><path fill="#4d7533" d="M399 582h2q.045 2.595.06 5.19c.01.96.03 1.92.04 2.92-.1 2.75-.48 5.21-1.1 7.89-1.74-3.06-2.4-5.63-2.75-9.12-.1-.87-.2-1.74-.3-2.64C397 584 397 584 399 582"/><path fill="#618246" d="m516 696 6 2 1 7h-2l-1-4h-3l-2 2-2-2z"/><path fill="#9fb58c" d="m366 538 3 2c-5.49 1.87-10.22 2.24-16 2 3.86-4.22 7.42-4.3 13-4"/><path fill="#9ab088" d="m337 773 2 2c-3.64 2.33-6.75 2.31-11 2l-3-2c3.92-2.61 7.45-2.29 12-2"/><path fill="#5a7f41" d="M334 770v3c-3.13 1.86-5.37 2.2-9 2v-2h-4v-2c1.79-.17 3.58-.33 5.38-.5.99-.09 1.99-.19 3.02-.28 2.6-.22 2.6-.22 4.6-.22"/><path fill="#a8b999" d="M221 722v6h-2v11c-3-3-3-3-3.31-6.88.13-3.39.66-6.1 2.31-9.12 2-1 2-1 3-1"/><path fill="#4f7735" d="M314 664v2h-2v2l-6 1v-2l-3-1c4.03-2.96 6.17-3.24 11-2"/><path fill="#789562" d="M408 652c1.94.81 1.94.81 4 2l1 3 2 2c-.99 1.49-.99 1.49-2 3l-2-1v-4c-2.99 1-3.95 1.75-6 4 .56-3.34 1.35-6.03 3-9"/><path fill="#9fb78f" d="M478 609c9.67-.69 9.67-.69 13.62 1.81.79.72 1.57 1.45 2.38 2.19v3c-.6-.33-1.2-.66-1.81-1-2.24-1.21-2.24-1.21-5.19-1l-1 2-3-2 4-3-9-1z"/></svg>