<svg xmlns="http://www.w3.org/2000/svg" viewBox="0 0 768 1024"><path fill="#547e3c" d="M328.25 531.813c.69.58 1.37 1.17 2.08 1.77 1.63 1.5 1.63 1.5 3.67 2.42.49-.74.49-.74 1-1.5 2.11-2.84 3.8-5.07 7.19-6.3 6.33-.91 10.11.79 15.21 4.57 15.12 12.93 21.56 33.1 23.6 52.23.75 12.1-1.1 24.53-5 36l-1 1c-.25 5.07-.07 8.31 2 13 .39-1.26.77-2.51 1.17-3.81 6.36-20.5 14.18-37.32 28.83-53.19.82-.9 1.65-1.79 2.5-2.72 23.73-24.68 56-36.15 89.71-37.26 29.55-.53 58.86 7.87 80.73 28.48 13.64 14.71 19.98 31.66 19.4 51.49-1.1 20.68-13.26 38.94-27.93 52.95-9.77 8.34-20.26 15.7-31.41 22.06-.61.35-1.22.7-1.84 1.06-35.44 20.29-78.36 30.83-119.16 29.94-.27 17.92-.27 17.92.5 35.81 1.35 18.42.83 37.02-.37 55.44-.08 1.22-.16 2.43-.24 3.69-1.61 22.21-1.61 22.21-10.08 30.25-7.12 5.7-14.91 6.55-23.88 6.35-7.47-1.03-14.58-4.04-19.88-9.58-3.35-4.98-4.55-10.06-3.45-16 .33-1.53.67-3.06 1.02-4.58.17-.82.35-1.63.53-2.47.57-2.6 1.14-5.19 1.72-7.79.58-2.58 1.14-5.17 1.71-7.76.35-1.61.7-3.21 1.06-4.82 1.51-6.82 2.51-13.53 2.42-20.54-.01-.95-.02-1.9-.02-2.88l-.04-2.12c-.8.66-1.6 1.33-2.43 2.02-29.07 23.73-63.05 37.17-100.72 37.16-2.02 0-4.03.02-6.04.04-11.87.02-23.48-.9-34.75-4.85-1.13-.39-1.13-.39-2.28-.79-21.65-7.78-38.97-21.65-49.12-42.57-7.52-16.25-8.19-35.05-2.4-52.05 3.94-10.49 9.26-19.6 16.74-27.96.66-.81 1.33-1.61 2.01-2.44 19.71-23.28 50.89-37.95 80.99-40.56 19.11-1.02 37.87-.45 56 6 .67.23 1.34.46 2.03.7 9.91 3.48 19.19 7.44 27.97 13.3-.7-4.47-2.25-8.52-3.94-12.69-.26-.68-.53-1.35-.8-2.05-1.16-2.88-2.04-5.04-4.26-7.26-2.87-.59-2.87-.59-6.31-.94-1.37-.17-2.73-.35-4.1-.52-2.35-.29-4.7-.55-7.06-.79-23.27-2.37-43.8-11.36-59.64-29.12-4.49-5.51-7.22-9.91-6.76-17.2.59-4.13 1.72-6.55 4.87-9.43 1.65-.71 3.32-1.38 5-2-.69-1-.69-1-1.39-2.02-8.81-13.24-11.73-25.95-11.92-41.67l-.06-2.7c.01-5.88.88-10.26 3.37-15.61 14.28-12.3 50.48.89 63.25 10.81M371 774.003l1 2Z"/><path fill="#7aa34b" d="M579.938 566.5c13.65 14.71 19.98 31.66 19.41 51.49-1.1 20.7-13.27 38.9-27.92 52.94-5.88 5.01-12.11 9.63-18.43 14.07-.7.51-1.41 1.02-2.14 1.55-.69.47-1.39.95-2.11 1.44l-1.89 1.32c-1.86.69-1.86.69-4.09-.18-.58-.38-1.17-.75-1.77-1.13.91-.43 1.82-.87 2.75-1.31 3.18-1.54 3.18-1.54 5.5-3.38 1.75-1.31 1.75-1.31 3.75-1.31v-2h4l-5-5c1.34-4.26 2.94-6.08 6.56-8.62 3.65-2.47 3.65-2.47 5.44-6.38h-2l-1-3-3-1-1 3c-1.76.52-1.76.52-4 1-5.74 2.96-10.86 6.43-15.52 10.9-1.48 1.1-1.48 1.1-4.48 1.1v2c-2.85.84-5.7 1.68-8.56 2.5-.8.24-1.6.48-2.42.72-4.85 1.39-8.98 2.05-14.02 1.78v2c-3.09 1.76-4.23 2-8 2l-1 2c-2.47.6-2.47.6-5.62 1.06-1.63.25-1.63.25-3.29.51-2.38.33-4.76.64-7.15.93-3.12.33-3.12.33-5.94 2.5-2.5.31-2.5.31-5 0-1.81-1.5-1.81-1.5-3-3-4.15 1.06-4.15 1.06-7.41 3.62-1.59 1.38-1.59 1.38-3.81 1.31-.8-.21-1.59-.41-2.4-.62-.8-.19-1.6-.38-2.42-.57-1.96-.74-1.96-.74-2.96-2.74h-2v2c-2.47.99-2.47.99-5 2l-2-3-2 2-7-3v-2c-.8-.29-1.61-.58-2.44-.88-2.56-1.12-2.56-1.12-3.56-3.12-.17-2.62-.27-5.19-.31-7.81l-.09-2.16c-.06-5.14 1.06-7.27 4.4-11.03.34-1.67.68-3.33 1-5 1.71-2.54 1.71-2.54 3.82-5.06.68-.84 1.37-1.68 2.08-2.54 3.96-4.51 3.96-4.51 6.1-6.4h3c.07-.55.13-1.1.2-1.67 1.15-3.32 3.19-5.12 5.68-7.58.88-.89 1.77-1.78 2.68-2.7 2.44-2.05 2.44-2.05 5.44-2.05.21-.57.42-1.13.64-1.72 1.87-3.13 4.28-4.67 7.24-6.78 2.99-2.15 5.79-4.16 8.38-6.78 1.74-1.72 1.74-1.72 3.74-1.72v-3c.75-.1 1.49-.21 2.25-.31 2.98-.75 4.39-1.79 6.75-3.69 1.32-.7 2.65-1.37 4-2-2-1.26-2-1.26-4.44-.5-2.56.5-2.56.5-5.56-.5-2.13.61-2.13.61-4 2-.26.66-.52 1.31-.79 1.99-1.21 2.01-1.21 2.01-3.6 2.92-.94.19-1.89.39-2.86.59-3.52.83-6.23 1.54-9.12 3.75-2.63 1.75-2.63 1.75-5.5 1.5l-2.13-.75c-.49 1.49-.49 1.49-1 3h-2v2l-8 1v2c-2.71 1.35-5.01 1.07-8 1v2h-4v2c-9.78.58-9.78.58-14-3-3.93-6.42-2.16-14.57-.64-21.57.62-2.35 1.38-4.59 2.2-6.87 1.54-4.31 1.91-8.43 2.13-12.98.43-3.54 1.73-6.42 3.31-9.58h2l-1-2c-1.46.11-2.91.24-4.37.38q-1.215.09-2.46.21c-2.37.24-2.37.24-4.17 2.41-1.04 2.32-2.04 4.65-3 7h-2l2 4c-3 2-3 2-6 2l-1 9c-1.98.5-1.98.5-4 1v-3l-4-1 1 4h-4c1.46-4.48 3.95-7.68 7-11.19.49-.57.98-1.14 1.49-1.72 23.49-26.95 54.05-42.2 89.7-44.84 31.92-1.64 63.95 5.82 87.75 28.25"/><path fill="#7ca649" d="M278.875 655.938c1.32.01 1.32.01 2.66.01 2.16.02 4.31.03 6.46.05v2h2c.5.99.5.99 1 2 1-.66 1.99-1.32 3-2h2c1-.66 1.99-1.32 3-2v2h2c-.32 1.98-.65 3.96-1 6 .78.39 1.55.78 2.34 1.17 1 .53 2.01 1.05 3.04 1.58 1 .51 2 1.02 3.02 1.55 2.72 1.78 3.65 2.65 4.6 5.7-.27 5.56-1.21 10.1-4 15a93 93 0 0 1-6 3c-1.39 1.43-1.39 1.43-2.62 3.06-2.14 2.65-3.23 3.86-6.38 4.94h-2c-3.84 1.46-6.21 4.06-9 7-.65-.33-1.31-.66-2-1 .5-.99.5-.99 1-2l-2 2c-2 2-2 2-4.93 2.44-3.37.62-3.86 1.16-6.07 3.56-.84.31-1.69.62-2.56.94-2.58.85-2.58.85-3.75 3.19-.22.62-.45 1.23-.69 1.87 1.49.5 1.49.5 3 1 .44-.47.87-.95 1.32-1.44 1.68-1.56 1.68-1.56 4.68-2.56 1-.99 1-.99 2-2 2.61-.63 2.61-.63 5.63-1.12 1-.17 2.01-.34 3.04-.51.77-.12 1.54-.24 2.33-.37l1-3h4v-2c.95-.29 1.9-.57 2.88-.87 3.18-.9 3.18-.9 5.12-3.13l2 1 1.79-.97c3.53-1.64 6.71-.66 10.46-.12 3.15.11 4.89-.65 7.75-1.91 7.02-1.59 13.82-2.24 21-2 .34.99.66 1.98 1 3 2.19 1.22 2.19 1.22 4.82 2.13.87.33 1.74.66 2.64 1.01 2.17.74 4.31 1.35 6.54 1.86v2h2c1.38 1.29 2.71 2.63 4 4l2 2c3.2 6.34 3.19 14.69 1.33 21.47-.83 1.91-.83 1.91-2.33 4.53h-2c-.1.7-.21 1.4-.33 2.12-1.49 6.43-4.44 13.09-9.6 17.26-1.01.53-2.02 1.07-3.07 1.62-1.87 1.57-3.67 3.19-5.48 4.83-1.52 1.17-1.52 1.17-3.52 1.17v2c-12.05 10.72-29.49 17.43-45 21-1 .24-1 .24-2.03.47-19.81 4.48-42.28 6.45-61.97.53v-2c-1.73-.15-1.73-.15-3.5-.31-4.51-.55-8.3-1.96-12.5-3.69v-2c-.94-.24-1.89-.49-2.87-.75-3.13-1.25-3.13-1.25-4.5-3.37-.21-.62-.41-1.24-.63-1.88h-2v-2h-4v-2c-.57-.27-1.15-.53-1.74-.81-3.71-1.96-5.9-3.12-7.26-7.19a89 89 0 0 0-4-4c-5.66-5.66-6.26-10.6-6.38-18.45.04-18.85.04-18.85 4.38-27.55.37-.76.73-1.53 1.1-2.32 11.79-22.93 34.07-42.49 58.66-50.59 11.75-3.54 22.82-6.27 35.12-6.15"/><path fill="#608940" d="M328 651c.67.23 1.33.47 2.02.71 1.85.65 3.7 1.31 5.54 1.98 1.83.65 1.83.65 3.69 1.32.91.33 1.82.65 2.75.99v1l-15 2c4.28 2.85 7 4.55 11.56 6.25 9.02 3.64 17.9 8.43 24.44 15.75v2h2c1.2 2.41 1.1 3.95 1.06 6.62-.01.82-.02 1.64-.02 2.48L366 694l3 1v2c.62.15 1.23.29 1.87.45 8.44 2.23 16.32 5.93 21.13 13.55 2.69 8.65 1.12 17.83-2.9 25.77-3.9 7.28-8.04 13.85-14.18 19.46-2.69 2.48-5.01 5.23-7.38 8.01-1.54 1.76-1.54 1.76-3.18 3.3-1.61 1.53-1.61 1.53-2.36 4.46l3 1v3l3-3 3 1c-1.31 3.92-3.78 5.55-6.94 8-.62.48-1.23.96-1.87 1.45-27.88 21.2-60.31 32.74-95.34 32.74-2.02 0-4.03.02-6.04.03-11.87.02-23.48-.9-34.75-4.84-.75-.27-1.51-.53-2.28-.8-21.65-7.78-38.97-21.65-49.12-42.56-7.52-16.26-8.19-35.06-2.4-52.06 3.94-10.49 9.26-19.6 16.74-27.96.66-.81 1.33-1.61 2.01-2.44C223.1 647.66 281.88 634.6 328 651m-77 9c-1.07.29-2.13.58-3.23.88-14.46 4.37-28.57 11.92-39.29 22.64-2.48 2.48-2.48 2.48-5.05 4.51-11.12 9.03-20.51 24.98-23.43 38.97-.25 3.91-.23 7.83-.25 11.75l-.06 3.21c-.03 6.42.63 11.19 3.31 17.04h2c1.02 1.66 2.02 3.32 3 5l2 1c.27.6.54 1.2.81 1.81 1.56 2.87 3.53 4.33 6.19 6.19h2v2h4v2h2c.21.62.41 1.24.62 1.88 1.93 2.97 4.05 3.25 7.38 4.12v2c1.91.67 3.83 1.34 5.75 2 1.6.56 1.6.56 3.23 1.12 3.14 1.07 3.14 1.07 7.02.88v2c30.05 9.03 66.5 1.87 93.69-12.44 7.97-4.3 7.97-4.3 15.31-9.56v-2c.66-.19 1.32-.37 2-.56 3.67-1.76 6.25-4.14 9.23-6.88C351 758 351 758 353 757c1.29-2.28 2.48-4.53 3.62-6.88.33-.63.65-1.27.99-1.93 1.45-2.91 2.39-4.89 2.39-8.19h2c4.21-7.37 4.24-16.2 2.14-24.32-1.42-3.34-2.98-4.06-6.14-5.68l-1-2h-2v-2c-.52-.1-1.03-.21-1.56-.31-4.7-1.33-9.12-3.44-13.44-5.69v-2c-12.89-.56-12.89-.56-25 3.1-3.41 1.54-6.74.51-10.34-.01-2.92-.1-4.15.55-6.66 1.91l-2-1-2 3c-2.62.69-2.62.69-5 1v2l-5 1v2c-.85.12-1.71.24-2.59.37-1.66.25-1.66.25-3.35.51-1.1.16-2.2.32-3.34.49-.9.21-1.79.41-2.72.63-.5.99-.5.99-1 2-1.49.5-1.49.5-3 1-1.67 1.5-1.67 1.5-3 3-1.49-.5-1.49-.5-3-1 2.34-4.69 2.34-4.69 5.38-6.12.86-.29 1.73-.58 2.62-.88 1.24-.77 1.24-.77 2.5-1.56 2.56-1.47 4.6-2.03 7.5-2.44v-2l2-1-1 3c2.49-1.07 4.07-2.07 6-4 1.96-1.96 3.39-3.08 6-4 1.49.5 1.49.5 3 1 2.14-2.05 2.14-2.05 4.19-4.88 1.96-2.42 3.61-3.64 6.43-4.93 3.11-1.64 4.15-3.15 5.38-6.44 1.23-4.71 1.43-8.07 0-12.75-2.46-1.75-4.31-2.83-7-4-1.67-.99-3.34-1.99-5-3l1-6h-2c-.5-.99-.5-.99-1-2-.43.5-.87.99-1.31 1.5C295 659 295 659 292 659l-1 1c-.5-.99-.5-.99-1-2h-2v-2c-12.96-.52-24.5.51-37 4"/><path fill="#739f40" d="M328.25 531.813c.69.58 1.37 1.17 2.08 1.77 1.63 1.5 1.63 1.5 3.67 2.42.33-.5.66-.99 1-1.5 2.11-2.84 3.8-5.07 7.19-6.3 6.33-.91 10.09.8 15.2 4.56 7.13 6.12 13.52 15.31 16.61 24.24-.5.99-.5.99-1 2l-2-2c-1.98-.72-3.98-1.39-6-2v-2h-2c.48 1.04.96 2.08 1.46 3.15.64 1.4 1.28 2.81 1.91 4.22l.97 2.06c8.53 19.02 5.83 40.45-.69 59.57-.75 2.31-1.27 4.61-1.65 7h-2c-2.91-3.76-4.63-7.35-6.13-11.83-.82-2.24-.82-2.24-2.24-4.31-3.86-6.15-3.71-10.88-2.6-17.81.98-6.24 1.15-12.31 1.1-18.62l-.03-2.83c-.03-2.2-.06-4.4-.1-6.6h-3c-.04 1.18-.07 2.36-.11 3.58-.33 8.5-.69 16.41-3.89 24.42-3.31-1.54-5.04-2.87-7-6v-2h-2c-1.3-1.51-1.3-1.51-2.87-3.69-4.93-6.52-10.52-12.39-16.13-18.31-.66-.71-1.33-1.42-2.01-2.14-7.12-7.37-15.58-13.09-23.99-18.86 2.03 3.64 4.21 6.46 7.19 9.37.8.79 1.6 1.57 2.42 2.38 2.05 1.92 4.12 3.75 6.26 5.56 3.63 3.11 6.89 6.5 10.13 10 .49.53.99 1.06 1.5 1.6 3.5 3.84 3.5 3.84 3.5 6.09h2c4 5.41 4 5.41 4 8h2c3.77 4.5 6.69 9.01 7 15-.55-.15-1.1-.29-1.67-.44-6.71-1.5-13.29-1.81-20.14-1.87l-2.75-.06c-5.26.01-8.85.49-13.44 3.37v3h22v4c.91-.56 1.81-1.12 2.75-1.69 5.44-2.39 10.91-.22 16.25 1.69 1.49.99 1.49.99 3 2v2h3c2.61 2.76 4.61 5.14 5 9-.5 1.48-.5 1.48-1 3l4 2v7c-1.14-.15-2.27-.29-3.45-.44-17.09-2.75-17.09-2.75-33.55.44l8 1v2c1.23-.03 2.46-.05 3.73-.07l4.9-.06c.8-.01 1.61-.03 2.44-.05 4.73-.04 8.48.35 12.93 2.18v2l2 1c-3.84 0-7.54-.56-11.34-1.09-3.89-.55-7.78-1.04-11.69-1.43-23.08-2.53-44.11-12.91-58.97-31.17-4.19-5.72-5.56-10.17-4.54-17.2.81-3.16 2.15-4.92 4.54-7.11 1.65-.71 3.32-1.38 5-2-.69-1-.69-1-1.39-2.02-8.81-13.24-11.73-25.95-11.92-41.67l-.06-2.7c.01-5.88.88-10.26 3.37-15.61 14.28-12.3 50.48.89 63.25 10.81m39.75 20.19-1 3h2l1-3z"/><path fill="#5a8739" d="m368 552 2 1-1 2-2-1zm-76-8c4.47 2.11 8.11 4.99 12 8 .75.57 1.51 1.13 2.29 1.71 10.27 7.91 26.5 20.67 30.71 33.29h2c1.34 1.99 2.68 3.99 4 6l3 2c2.25-9.28 2.61-18.5 3-28l2-1c2.84 2.42 2.98 2.83 3.36 6.85 0 1.59-.01 3.18-.05 4.77 0 .85 0 1.7-.01 2.57-.07 4.94-.53 9.64-1.38 14.51-1.74 10.24.78 15.49 6.08 24.3 1.54 3.26 2.86 6.57 4 10h2c.06-1.13.12-2.27.19-3.44.4-3.91 1.38-7.35 2.67-11.06 2.73-8.04 3.6-15.44 3.58-23.94 0-.99-.01-1.99-.01-3.01-.19-9.34-1.66-17.55-5.55-26.05-2.88-6.33-2.88-6.33-2.88-8.5h2v2c1.07.25 2.14.5 3.25.75 3.97 1.32 5.2 2.03 7.75 5.25.9 2.63 1.59 5.06 2.19 7.75.16.68.33 1.36.5 2.05 3.92 16.72 2.84 33.92-2.69 50.2l-1 1c-.25 5.07-.07 8.31 2 13 .39-1.26.77-2.51 1.17-3.8 8.48-27.34 8.48-27.34 14.83-35.2 2.19-.78 2.19-.78 4-1v-3c5.75 1.88 5.75 1.88 8 3-.21-.54-.41-1.07-.62-1.62-.51-3.21.47-5.39 1.62-8.38h3l2-2-1-3c.45-.39.91-.78 1.38-1.19 1.9-2.12 2.6-4.16 3.62-6.81 2.5-2.5 3.67-2.36 7.12-2.62.92-.08 1.83-.15 2.76-.23 1.05-.08 1.05-.08 2.12-.15v3l-2 2c-1.66 3.46-2.23 6.31-2.38 10.12-.38 5.24-1.8 9.47-3.7 14.33-2.47 6.84-3.62 16.45-.79 23.27 2.49 3.04 4.21 3.14 8.06 3.59 1.08.14 2.17.28 3.29.43 1.25.13 1.25.13 2.52.26v-2h4v-2l8-1v-2c1.98-.73 3.98-1.39 6-2l2 1v-2c1.63-1.38 3.29-2.72 5-4l1 2c.55-.37 1.11-.75 1.68-1.13.72-.47 1.45-.95 2.2-1.43.71-.48 1.43-.95 2.17-1.44.65-.33 1.29-.66 1.95-1l2 1c-3.35 4.04-7.07 5.59-12 7h-2v2h-2l-1 3q-2.97 1.545-6 3l-1 2c-1.69.93-3.39 1.86-5.09 2.78-2.04 1.3-3.55 2.73-5.22 4.47L431 637h-2l-2 4h-2c-.42.89-.42.89-.84 1.79-1.09 2.08-2.25 3.74-3.73 5.56q-.72.9-1.47 1.83l-3.06 3.78c-.73.9-.73.9-1.47 1.83-.44.54-.88 1.09-1.34 1.65-1.29 1.69-1.29 1.69-2.09 4.56l-5-1c.06 1.05.12 2.1.19 3.19C406.1 676 401.54 685.88 396 696h-2v-2c-.72-.08-1.44-.16-2.19-.25-3.52-.94-5.23-2.17-7.81-4.75-1.79-8.74.37-17.05 4-25h-4v2h-3c-.5 2.49-.99 4.97-1.46 7.46-.89 4.65-1.9 9.09-3.54 13.54-2.67-3.13-3.65-5.78-4.62-9.75-1.92-7.02-4.29-13.81-6.82-20.63l-1.12-3.09c-4.11-11.3-4.11-11.3-12.44-19.53h3c.25-2.92.25-2.92 0-6l-3-2c-.34-2-.67-4-1-6-1.5-1.67-1.5-1.67-3-3v-3h-3v-2c-1.56-.48-3.12-.96-4.69-1.44-.87-.26-1.74-.53-2.63-.81-5.75-1.62-8.89-1.68-14.68.25v-4c-1.03.19-2.06.37-3.12.56-6.3.82-12.59.01-18.88-.56-.5-1.49-.5-1.49-1-3 5.85-4.04 10.23-4.61 17.25-4.44l2.81.03c6.62.16 12.73.97 18.94 3.41-1.97-4.69-3.8-9-7-13v-2h-2c-4-5.41-4-5.41-4-8h-2c-1.41-1.4-1.41-1.4-3.06-3.38-.63-.73-1.25-1.46-1.89-2.21-.68-.8-1.35-1.59-2.05-2.41-5.93-6.86-12.19-13.01-19-19-1.8-1.62-3.4-3.18-5-5z"/><path fill="#6e4f39" d="M404 722h15c-.01 1.98-.02 3.96-.04 6q-.03 8.19-.03 16.38c0 1.9 0 1.9.01 3.84.08 5.13.45 10.21.83 15.33 1.05 17.18.47 34.54-.65 51.7-.07 1.22-.15 2.44-.23 3.69-1.61 22.21-1.61 22.21-10.08 30.25-7.12 5.71-14.91 6.55-23.88 6.35-7.47-1.03-14.58-4.04-19.88-9.58-3.38-5.02-4.38-9.78-3.46-15.81q.48-2.175.99-4.35l1.08-4.83c.19-.83.37-1.67.57-2.52 2.93-12.94 5.6-25.66 6.42-38.92.54-5.45 1.92-8.51 5.91-12.22 2.59-2.38 2.59-2.38 4.44-5.31h2c.27-.58.54-1.15.81-1.75 1.22-2.31 2.49-4.27 4.19-6.25h2l2-6h2v-4h2l2-6h2c.12-.83.25-1.65.38-2.5 1.73-9.72 1.73-9.72 3.62-13.5"/><path fill="#689143" d="M259 648v2l-6 1 24 1v2c10.89.5 10.89.5 22 1l-5 5h-2l-2 1v-3h-2v-2c-12.77.28-24.66 1.66-37 5-1.07.29-2.13.57-3.23.87-12.61 3.83-24.07 10.03-34.32 18.25-2.11 1.62-4.08 2.71-6.45 3.88-.68 1.32-1.35 2.66-2 4-1.64 1.69-3.31 3.35-5 5-12.41 13.07-19.16 27.93-19.25 45.81l-.06 3.24c-.04 7.27.3 12.77 5.5 18.26.6.56 1.19 1.12 1.81 1.69v2c1.49.5 1.49.5 3 1l1 3c1.63 1.37 1.63 1.37 3.56 2.56 1.94 1.26 1.94 1.26 3.44 2.44v2h4v2l3-1c.5 2.48.5 2.48 1 5 .62.14 1.24.29 1.88.44C211 782 211 782 213 783v2c.78.1 1.57.21 2.38.31 4.65.89 9.1 2.27 13.62 3.69v2l2.5-.12c3.5.12 3.5.12 6.99 1.11 5.37 1.38 10.67 1.35 16.2 1.32 1.09 0 2.19-.01 3.32-.01 28.09-.38 55.11-7.52 77.99-24.3h2v-2c1.57-1.37 1.57-1.37 3.69-2.88 2.46-1.78 4.84-3.56 7.19-5.5C351 757 351 757 353 757c.08-.68.16-1.36.25-2.06.97-3.81 2.71-6.58 4.75-9.94 1 2 1 2 .36 4.53-.34.98-.69 1.96-1.05 2.97l-1.01 2.97c-1.45 2.82-2.37 3.49-5.3 4.53v2c-2.12 1.73-2.12 1.73-4.88 3.62-.9.64-1.8 1.27-2.74 1.92C341 769 341 769 339 769c-.31.78-.62 1.57-.94 2.38C337 774 337 774 336 776h-2c-.34 1.29-.67 2.58-1 3.88-.19.71-.37 1.43-.56 2.17-.51 1.94-.51 1.94-.44 3.95h-2v2l3 1c-9.71 6-9.71 6-15 6v2c-2.5.79-5 1.59-7.5 2.38-.7.22-1.39.44-2.11.67-21.93 6.9-48.15 9.6-70.54 3.63-6.08-1.45-12.34-1.87-17.85 1.32l1 2c1.24-.23 2.47-.45 3.75-.69 3.12-.41 3.93-.49 6.75 1.13.5.51.99 1.03 1.5 1.56l-1 3 3 1c-19.18-1.34-36.39-14.15-49.38-27.43-13.09-15.19-17.87-33.43-16.82-53.11 1.37-16.7 9.14-32.09 20.2-44.46.66-.81 1.33-1.61 2.01-2.44 14.6-17.25 44.49-38.68 67.99-37.56"/><path fill="#426732" d="M329.188 631.813c19.58.16 19.58.16 26.81 5.19 4.8 6.1 7.56 13.36 10.07 20.62.33.95.67 1.9 1.01 2.87 2.31 6.57 4.48 13.18 6.46 19.85.76 3.08.76 3.08 2.46 5.66.11-.86.22-1.72.33-2.6.87-6.28 1.78-11.74 4.67-17.4h3v-2h4c-.47 2.69-1.05 5.14-2 7.72-1.1 3.62-1.41 6.88-1.62 10.65-.08 1.25-.15 2.49-.23 3.78-.07 1.41-.07 1.41-.15 2.85 1.49.49 1.49.49 3 1v2h4v2h3v2h2c.23-.79.46-1.57.69-2.38 1.31-3.62 1.31-3.62 2.45-5.58 4.89-8.41 5.66-17.54 6.86-27.04 2.38.31 2.38.31 5 1 2.65 3.97 2.07 7.18 1.75 11.75l-.12 2.38c-.3 4.9-1.11 9.2-2.63 13.87h-2c-.18 1.27-.18 1.27-.37 2.56-.63 3.44-.63 3.44-1.88 6.81-1.02 4.92.15 7.12 2.25 11.63 1.22 1.45 1.22 1.45 4.88 1.11 1.73 0 3.46 0 5.19-.01.91-.01 1.82-.01 2.75-.01 2.92 0 5.83-.02 8.75-.03 1.97-.01 3.94-.01 5.91-.01 4.84-.01 9.68-.03 14.52-.05v4h13c-2.82 2.82-5.57 2.33-9.35 2.38-1.1.02-1.1.02-2.22.05-2.35.05-4.7.09-7.05.13-2.33.04-4.66.09-6.99.14-1.45.03-2.9.06-4.35.08-4.74.1-9.34.57-14.04 1.22l2 2h-17l-4 16h-2l-2 6h-2v4h-2l-2 6h-2c-.27.57-.53 1.15-.81 1.75-1.22 2.3-2.49 4.27-4.19 6.25h-2l-.79 1.73c-1.3 2.43-2.75 4.4-4.52 6.52-.57.7-1.15 1.41-1.74 2.14-1.95 1.61-1.95 1.61-4.68 1.84-.75-.08-1.5-.15-2.27-.23v2h-2l-1-3-2-1c.57-3.67 1.95-5.25 4.63-7.75 7.05-6.82 12.96-14.06 18.37-22.25.61-.91.61-.91 1.23-1.84 4.73-7.66 6.83-16.22 5.77-25.16-1.49-5.59-3.93-8.38-8.54-11.59-3.77-2.17-7.75-3.72-11.82-5.24-2.62-1.16-4.01-1.83-5.64-4.17-.51-2.7-.51-2.7-.69-5.69-.06-.99-.13-1.99-.19-3.01l-.12-2.3h-2c-.19-.57-.39-1.14-.6-1.73-1.96-3.18-4.72-4.79-7.83-6.71-.63-.4-1.26-.79-1.91-1.2-4.52-2.8-9.14-5.14-14.04-7.23-4.3-1.86-8.45-4.01-12.62-6.13l1-2c2.71-.49 5.27-.79 8-1 .71-.09 1.42-.18 2.15-.27 8.2-.64 14.27 3.88 20.85 8.27-.68-4.44-2.27-8.39-4-12.5-1.73-4.12-3.31-8.06-4-12.5-5.12-.99-10.17-1.31-15.37-1.57-1.25-.06-1.25-.06-2.52-.13l-6.11-.3v-2h-14c3.45-2.3 5.94-2.48 10-3 1.84-1.84 4.72-1.18 7.19-1.19"/><path fill="#729252" d="M493.79 539.531c.86-.01 1.72-.02 2.6-.02 1.82-.01 3.64-.02 5.46-.01 2.72 0 5.43-.04 8.15-.09 26.09-.18 50.83 9.08 69.94 27.09 13.65 14.71 19.98 31.66 19.4 51.49-1.1 20.7-13.27 38.9-27.91 52.94-5.89 5.01-12.11 9.63-18.43 14.07-.71.51-1.41 1.02-2.14 1.54-.7.48-1.39.96-2.11 1.45-.62.43-1.25.87-1.89 1.31-1.86.7-1.86.7-4.09-.18-.88-.55-.88-.55-1.77-1.12.91-.43 1.82-.87 2.75-1.31 3.18-1.54 3.18-1.54 5.5-3.38 1.75-1.31 1.75-1.31 3.75-1.31v-2h4l-5-5c1.34-4.26 2.94-6.08 6.56-8.63 3.65-2.46 3.65-2.46 5.44-6.37h-2l-1-3c-1.48-.5-1.48-.5-3-1-.49 1.48-.49 1.48-1 3-1.76.52-1.76.52-4 1-5.75 2.95-10.86 6.43-15.53 10.9-1.47 1.1-1.47 1.1-4.47 1.1v2c-1.6.53-3.2 1.05-4.81 1.56-.89.29-1.79.58-2.71.88-2.48.56-2.48.56-5.48-.44h2v-2c1.18-.4 1.18-.4 2.38-.81 2.9-1.04 2.9-1.04 4.62-4.19v3c.78-.5 1.57-.99 2.38-1.5 2.62-1.5 2.62-1.5 4.62-1.5v-3c1.63-2.19 1.63-2.19 4-4 3.25-.25 3.25-.25 6 0 .5-1.49.5-1.49 1-3 3-2 3-2 6-2.88 3.3-1.23 4.1-2.27 6-5.12h2v-2h2v-2c.95-.41 1.9-.83 2.88-1.25 3.13-1.76 3.99-2.46 5.12-5.75h2c.27-.59.54-1.18.81-1.79 1.19-2.22 2.47-3.76 4.19-5.59 2.72-3.06 3.76-5.71 5-9.62l2.02-1.11c2.32-2.22 2.32-2.82 2.55-5.92.03-1.64.02-3.27-.01-4.91l-.03-2.59c-.52-15.72-9.79-27.43-20.71-38-4-3.51-8.08-6.08-12.82-8.47-1.46-.77-1.46-.77-2.95-1.55-7.79-3.87-15.53-6.21-23.99-8.01q-2.13-.45-4.23-.99c-7.09-1.66-14.03-1.72-21.29-1.66-2.06.02-4.13.02-6.19.02-6.36-.33-6.36-.33-12.35 1.19-1.71.07-3.42.08-5.12.06l-2.76-.03-2.12-.03v-2l-2.3-.15c-.99-.07-1.99-.15-3.01-.23-1.48-.1-1.48-.1-2.99-.21-2.7-.41-2.7-.41-5.7-2.41 5.84-2.25 11.25-2.37 17.44-2.56 3.51-.16 3.51-.16 5.73-1.94 3.91-2.08 7.26-1.97 11.62-1.97"/><path fill="#719741" d="M328.25 531.813c.69.58 1.37 1.17 2.08 1.77 1.63 1.5 1.63 1.5 3.67 2.42.33-.5.66-.99 1-1.5 2.11-2.84 3.8-5.07 7.19-6.3 5.09-.73 8.39-.04 12.81 2.8v3l-4-2v-2h-5c1.32 5.66 3.49 7.66 8 11-3.75 1.12-3.75 1.12-6 0q-.165.99-.33 2.01c-1.32 7.33-3.13 11.83-8.67 16.99-3.41-1.41-4.85-3.06-7-6h-2v-2h-2v-2h-2v-3c-.72-.29-1.44-.58-2.19-.88-1.84-.74-3.68-1.51-5.5-2.31l-2.31-.81c-.99.49-.99.49-2 1-.5-1.49-.5-1.49-1-3-.8-.13-1.61-.25-2.44-.38-1.27-.31-1.27-.31-2.56-.62-.5-.99-.5-.99-1-2-5.88-2.32-11.95-4.07-18.25-4.63-1.24-.12-2.48-.24-3.75-.37l-1-2-2.31.93c-1.88.75-3.78 1.43-5.69 2.07 1.09 14.78 1.09 14.78 5 29 .3.76.6 1.52.91 2.31 1.9 4.53 4.17 8.61 6.94 12.67 1.46 2.56 2.28 5.2 3.15 8.02-.8.24-1.59.48-2.41.73-5.79 1.83-10.78 3.53-15.59 7.27-1-1-1-1-1.06-4.57l.06-3.43h3l1-9-3-1-3-3-3-1c-5.29-10.2-6.18-21.43-6.31-32.69l-.06-2.7c.01-5.88.88-10.26 3.37-15.61 14.28-12.3 50.48.89 63.25 10.81"/><path fill="#648e41" d="m422 577 2 1-1 1c-.13 1.62-.23 3.25-.31 4.88-.42 5.31-1.84 9.63-3.77 14.57-2.47 6.84-3.62 16.45-.79 23.27 2.49 3.04 4.21 3.14 8.06 3.59 1.08.14 2.17.28 3.29.43.83.08 1.66.17 2.52.26v-2h4v-2l8-1v-2c1.98-.73 3.98-1.39 6-2l2 1v-2c1.63-1.38 3.29-2.72 5-4l1 2c.55-.37 1.11-.75 1.68-1.13.72-.47 1.45-.95 2.2-1.43.71-.48 1.43-.95 2.17-1.44.97-.5.97-.5 1.95-1l2 1c-3.35 4.04-7.07 5.59-12 7h-2v2h-2l-1 3q-2.97 1.545-6 3c-.5.99-.5.99-1 2-1.69.93-3.39 1.86-5.09 2.78-2.04 1.3-3.55 2.73-5.22 4.47L431 637h-2l-2 4h-2c-.28.59-.56 1.18-.84 1.78-1.81 3.47-4.25 6.4-6.66 9.47-.5.65-1 1.3-1.51 1.97-1.28 1.63-2.63 3.21-3.99 4.78h-2c-.09-.93-.09-.93-.19-1.88-.63-2.3-.63-2.3-2.87-3.37-5.49-1.4-9.79-1.7-14.69 1.19-1.07.68-2.14 1.36-3.25 2.06-2.2.63-2.2.63-4 1-1.32-23.01 7.98-46.99 22-65h2c.25-.72.5-1.44.75-2.19 1.37-3.09 2.97-5.32 5.25-7.81h2v-2c1.63-1.38 3.29-2.72 5-4"/><path fill="#886745" d="M407 766h2c3.12 15.3 1.05 32.08-.07 47.56-.12 1.7-.23 3.41-.35 5.11-.16 2.43-.34 4.85-.53 7.28l-.14 2.19c-.43 4.96-1.8 8-4.91 11.86-5.29 3.91-10.39 5.43-17 5-4.86-1.29-9.84-2.89-13-7-1.16-5.55.38-10.68 2.15-15.91.71-2.58 1.17-4.98 1.54-7.62.12-.81.23-1.61.35-2.44.22-1.63.42-3.25.61-4.87.29-2.16.61-4.11 1.35-6.16 2.37-1.74 2.37-1.74 5-3 1.98-2.23 1.98-2.23 3.69-4.69 1.06-1.47 2.15-2.92 3.31-4.31h2c.26-.74.52-1.47.79-2.23 1.22-2.8 2.58-4.69 4.52-7.02 3.48-4.32 6.16-8.83 8.69-13.75"/><path fill="#496e38" d="M426 569c.5 1.49.5 1.49 1 3l-2 2-1 3c-4.46 4-4.46 4-7 4v2h-2c-.25.54-.5 1.07-.75 1.62A67 67 0 0 1 409 593h-2c-.39 1.1-.39 1.1-.79 2.22-1.23 2.82-2.65 4.85-4.52 7.28-3.49 4.86-5.57 9.74-7.57 15.36-.97 2.72-2.07 5.31-3.24 7.95-4.04 10.03-5.22 21.48-5.88 32.19 1.07-.62 2.14-1.24 3.25-1.88.65-.36 1.29-.72 1.96-1.1 1.26-.72 2.5-1.48 3.73-2.27 4.49-1.63 8.65-1.36 12.94.5 2.22 1.84 3.19 3.04 4.12 5.75v3l-5-1c.06 1.05.12 2.1.19 3.19C406.1 676 401.54 685.88 396 696h-2v-2c-.72-.08-1.44-.16-2.19-.25-3.52-.94-5.23-2.17-7.81-4.75-1.79-8.74.37-17.05 4-25h-4v2c-1.87-.22-1.87-.22-4-1-1.14-1.96-1.14-1.96-2.04-4.52-.33-.92-.66-1.84-1.01-2.79-.33-.97-.67-1.94-1.01-2.94-2.87-8.15-2.87-8.15-6.94-15.75-.19-2.81-.19-2.81 0-5 2-1 2-1 5.12-.06L377 635c.39-1.26.77-2.51 1.17-3.8 8.48-27.34 8.48-27.34 14.83-35.2 2.19-.78 2.19-.78 4-1v-3c5.75 1.88 5.75 1.88 8 3-.21-.54-.41-1.07-.62-1.62-.51-3.21.47-5.39 1.62-8.38h3l2-2c-.5-1.49-.5-1.49-1-3 .45-.39.91-.78 1.38-1.19 1.9-2.12 2.6-4.16 3.62-6.81 2.4-2.4 3.33-2.34 6.62-2.62.82-.08 1.64-.15 2.48-.23.63-.05 1.25-.1 1.9-.15"/><path fill="#54793f" d="m361 769 1 3 3 1v3l3-3 3 1c-1.31 3.92-3.78 5.55-6.94 8-.62.48-1.23.96-1.87 1.45-27.88 21.2-60.31 32.74-95.34 32.74-2.02 0-4.03.02-6.04.03-8.81.02-17.13-.73-25.81-2.22v-2h-3v-3c-3.28-2.19-4.21-2.28-8-2-1.34.29-2.68.61-4 1l-1-4c7.36-3.29 14.29-2.54 21.94-.5 23.23 5.41 48.79 1.51 71.04-5.98C314 797 314 797 318 797v-2c.76-.26 1.53-.51 2.32-.78 14.86-5.31 29.45-13.99 40.68-25.22"/><path fill="#664f2d" d="M404 722h15l-1 4c-.15 1.88-.25 3.76-.32 5.64l-.12 3.24-.12 3.37c-.07 1.69-.07 1.69-.13 3.41-.11 2.78-.21 5.56-.31 8.34h-1l-1-24-5 1c-1.03 7.7-2.03 15.94-.46 23.62.63 3.27.03 6.12-.54 9.38.99.5.99.5 2 1l-2 4h-2c-.26.88-.52 1.76-.79 2.66-1.92 5.29-5.09 9.69-8.21 14.34-.5.75-.99 1.5-1.5 2.27-1.11 1.62-2.3 3.18-3.5 4.73h-2l-.79 1.73c-1.32 2.47-2.83 4.4-4.65 6.52-.59.71-1.19 1.41-1.81 2.14C382 801 382 801 379 801l-2 5c-1.46-.99-1.46-.99-3-3-.38-2.79-.6-5.39-.69-8.19-.03-.75-.07-1.5-.1-2.27-.08-1.85-.15-3.69-.21-5.54h-1c-1.23-13.1-1.23-13.1 1.75-17.71 2-1.92 4.05-3.6 6.25-5.29l1-2h2c.27-.58.54-1.15.81-1.75 1.22-2.31 2.49-4.27 4.19-6.25h2l2-6h2v-4h2l2-6h2c.12-.83.25-1.65.38-2.5 1.73-9.72 1.73-9.72 3.62-13.5"/><path fill="#688d46" d="m592 594 3 1-1 8 4 1v9l-3-2 .22 2.74c.09 1.18.18 2.36.28 3.57.09 1.17.19 2.35.28 3.55.14 2.05.22 4.09.22 6.14l.03 2.24c-.55 15.94-13.47 31.02-24.6 41.69-5.89 5.01-12.11 9.63-18.43 14.07-.71.51-1.41 1.02-2.14 1.55l-2.11 1.44c-.94.65-.94.65-1.89 1.32-1.86.69-1.86.69-4.09-.18-.88-.56-.88-.56-1.77-1.13.91-.43 1.82-.87 2.75-1.31 3.18-1.54 3.18-1.54 5.5-3.38C551 682 551 682 553 682v-2h4l-5-5c1.34-4.26 2.94-6.08 6.56-8.62 3.65-2.47 3.65-2.47 5.44-6.38h-2l-1-3-3-1-1 3c-1.76.52-1.76.52-4 1-5.75 2.96-10.86 6.43-15.53 10.9C536 672 536 672 533 672v2c-1.6.53-3.21 1.05-4.81 1.56-.9.29-1.79.58-2.71.88C523 677 523 677 520 676h2v-2c1.18-.4 1.18-.4 2.38-.81 2.9-1.04 2.9-1.04 4.62-4.19v3c.78-.5 1.57-.99 2.38-1.5C534 669 534 669 536 669v-3c1.62-2.19 1.62-2.19 4-4 3.25-.25 3.25-.25 6 0 .5-1.49.5-1.49 1-3 3-2 3-2 6-2.88 3.3-1.23 4.1-2.27 6-5.12h2v-2h2v-2c.95-.41 1.9-.83 2.88-1.25 3.13-1.75 3.99-2.46 5.12-5.75h2c.27-.59.54-1.18.81-1.79 1.19-2.22 2.47-3.76 4.19-5.59 2.72-3.05 3.76-5.71 5-9.62.67-.45 1.34-.89 2.03-1.35 2.2-1.49 2.2-1.49 2.42-4.01l-.06-2.75-.04-2.97c-.03-1.03-.07-2.05-.1-3.11-.02-1.03-.04-2.07-.05-3.14-.05-2.56-.12-5.11-.2-7.67h2c.5 2.48.5 2.48 1 5 1.5-1.5 1.33-2.99 1.56-5.06.15-1.3.29-2.6.44-3.94"/><path fill="#456b35" d="M329.188 631.813c19.58.16 19.58.16 26.81 5.19 4.8 6.1 7.56 13.36 10.07 20.62.33.95.67 1.9 1.01 2.87 2.31 6.57 4.48 13.18 6.46 19.85.76 3.08.76 3.08 2.46 5.66l1-5h1v9h2l1 3c.97.6 1.94 1.19 2.94 1.81 3.56 2.55 4.27 3.94 5.06 8.19-.46 2.19-.46 2.19-1 4-.53-.39-1.06-.78-1.61-1.17-4.9-3.43-9.58-5.91-15.22-7.88-2.41-1.06-3.63-1.82-5.17-3.95-.51-2.7-.51-2.7-.69-5.69-.06-.99-.13-1.99-.19-3.01l-.12-2.3h-2c-.19-.57-.39-1.14-.6-1.73-1.96-3.18-4.72-4.79-7.83-6.71-.63-.4-1.26-.79-1.91-1.2-4.52-2.8-9.14-5.14-14.04-7.23-4.3-1.86-8.45-4.01-12.62-6.13l1-2c2.71-.49 5.27-.79 8-1 .71-.09 1.42-.18 2.15-.27 8.2-.64 14.27 3.88 20.85 8.27-.68-4.44-2.27-8.39-4-12.5-1.73-4.12-3.31-8.06-4-12.5-5.12-.99-10.17-1.31-15.37-1.57-1.25-.06-1.25-.06-2.52-.13l-6.11-.3v-2h-14c3.45-2.3 5.94-2.48 10-3 1.84-1.84 4.72-1.18 7.19-1.19"/><path fill="#8db44d" d="M294.645 527.164c2.11.53 4.23 1.01 6.37 1.42 12.67 2.61 23.81 9.36 31.99 19.42l3 5 4-12c-.99-.5-.99-.5-2-1l1-4h-2l-1 2h-4c2.21-4.44 6.44-8.14 11-10 4.58-.21 7.93.14 11.56 3.06.47.64.95 1.28 1.44 1.94-3 0-3 0-5-1v-2h-5c1.31 5.66 3.48 7.66 8 11-3.75 1.12-3.75 1.12-6 0-.11.66-.22 1.32-.34 2.01-1.31 7.33-3.12 11.83-8.66 16.99-3.42-1.42-4.85-3.07-7-6h-2v-2h-2v-2h-2v-3c-.73-.29-1.45-.58-2.19-.88-1.85-.74-3.68-1.51-5.5-2.31-1.15-.4-1.15-.4-2.31-.81-.99.49-.99.49-2 1-.5-1.49-.5-1.49-1-3-.81-.13-1.61-.25-2.44-.38-.85-.21-1.69-.41-2.56-.62-.5-.99-.5-.99-1-2-5.88-2.32-11.96-4.07-18.25-4.63-1.86-.18-1.86-.18-3.75-.37l-1-2-2.32.93c-1.87.74-3.77 1.43-5.68 2.07 1.08 14.78 1.08 14.78 5 29 .29.76.59 1.52.9 2.31 1.94 4.62 4.28 8.79 7.04 12.96 1.06 1.73 1.06 1.73 2.06 4.73-5.54-.65-7.6-3.15-11.07-7.28-7.51-10.6-9.29-22.98-9.12-35.66v-2.82c.04-6.82.04-6.82 1.19-10.24 7.15-4.12 15.16-1.72 22.64.16"/><path fill="#567f3a" d="M285.625 644.688c1.82.01 1.82.01 3.68.01 13.47.16 26 1.79 38.7 6.3.66.24 1.33.47 2.02.71 1.85.65 3.69 1.32 5.54 1.98 1.22.44 2.43.87 3.69 1.32.91.33 1.81.66 2.75.99v1l-15 2c.99 1.49.99 1.49 2 3-1.17-.26-2.33-.53-3.52-.8-4.82-1.1-9.65-2.15-14.48-3.2-1.01-.22-2.02-.44-3.06-.67-10.49-2.04-21.3-1.99-31.94-2.33.32-.99.66-1.98 1-3h-24c-.34-.66-.66-1.32-1-2h7v-3c8.92-1.61 17.55-2.35 26.62-2.31"/><path fill="#76a341" d="M277 606c2.29.89 3.79 1.78 5.5 3.56 1.77 1.7 3.11 2.03 5.5 2.44l1-4c.59.36 1.19.73 1.8 1.1 6.3 3.82 12.7 7.42 19.2 10.9-.38 1.94-.38 1.94-1 4-.99.5-.99.5-2 1 6.68 3.02 12.64 5.58 20 6-2.94 1.52-5.92 2.8-9 4l8 1v2c1.23-.02 2.46-.05 3.73-.07 1.63-.02 3.26-.04 4.89-.05l2.45-.06c4.73-.03 8.48.35 12.93 2.18v2l2 1c-3.84 0-7.54-.55-11.34-1.09-3.89-.55-7.78-1.03-11.69-1.43-16.56-1.81-35.49-7.31-47.26-19.94C280 618 280 618 280 614h-4l.06-2.38c.13-2.6.13-2.6-1.06-4.62z"/><path fill="#537a33" d="m368 552 2 1-1 2-2-1zm-5 1h2v2c1.07.25 2.14.5 3.25.75 3.97 1.32 5.2 2.03 7.75 5.25.9 2.63 1.59 5.06 2.19 7.75.16.68.33 1.36.5 2.05 3.89 16.6 3.02 34.08-2.69 50.2l-2 3h-3v6l-4 2c-1.61-1.61-1.29-3.26-1.38-5.5.02-5.13 1.23-9.39 2.88-14.19 2.42-7.28 2.97-14.09 2.94-21.75-.01-1.49-.01-1.49-.01-3.01-.19-9.34-1.66-17.55-5.55-26.05-2.88-6.33-2.88-6.33-2.88-8.5"/><path fill="#648b45" d="M259 648v2l-6 1 24 1v2c10.89.5 10.89.5 22 1l-5 5h-2l-2 1v-3h-2v-2c-23.19.51-43.18 5.87-64 16v-3h-11v2c-1.7 2.23-2.77 2.94-5.5 3.69-2.5.31-2.5.31-5.5.31 14.31-12.36 37.39-27.94 57-27"/><path fill="#688e43" d="M492.926 539.707c.75 0 1.5.01 2.27.01 2.37.02 4.74.06 7.12.1 1.61.01 3.23.02 4.84.04 3.95.03 7.9.08 11.84.14v1c2.48.5 2.48.5 5 1v2c5.03.78 8.98 1.13 14 0v2h6c-2 2-2 2-5.12 2.13-.95-.04-1.9-.08-2.88-.13v2h-2v2c-4.25 1.19-7.09.69-11.32-.42-7.88-1.81-15.37-1.95-23.43-1.83-1.36.01-2.72.01-4.09.02-6.26-.29-6.26-.29-12.16 1.23-1.7.07-3.41.09-5.12.07l-2.76-.03c-.7-.01-1.4-.03-2.12-.04v-2c-.76-.05-1.51-.09-2.3-.15-.99-.07-1.98-.14-3.01-.22-1.48-.11-1.48-.11-2.99-.21-2.7-.42-2.7-.42-5.7-2.42 5.84-2.24 11.25-2.36 17.45-2.56 3.5-.16 3.5-.16 5.78-1.95 3.59-1.93 6.73-1.87 10.7-1.78"/><path fill="#57813a" d="M365 624h1l1 7 4-1v-6h3l2 10h-6c-.33 4.29.63 6.7 2.69 10.44 9.2 17.67 9.2 17.67 8.31 25.56l-2 3c-.61 3.38-1.02 6.76-1.44 10.16-.18.94-.37 1.88-.56 2.84-.99.5-.99.5-2 1a1249 1249 0 0 0-6.31-18.56c-.3-.87-.6-1.73-.91-2.62-1.45-4.14-2.93-8.26-4.57-12.32-5.96-14.83-5.96-14.83-4.21-21.5 1.35-1.76 1.35-1.76 3-3h3z"/><path fill="#739841" d="M328.375 531.688c2.15 1.7 2.15 1.7 3.62 3.31v3h4c.5-1.48.5-1.48 1-3 1.5 1.31 1.5 1.31 3 3 0 2.83-.33 5.23-.87 8-.16.87-.32 1.73-.49 2.63-.64 2.37-.64 2.37-2.64 5.37-.41-.57-.82-1.13-1.24-1.72-12.9-17.24-29.17-22.6-49.76-26.28 2-2 2-2 4.63-2.12l2.37.12v-2h-20v-2c-1.31-.33-2.63-.66-4-1 18.89-5.63 44.77 1.16 60.38 12.69"/><path fill="#466d39" d="m492 704-1 5 4 2h-2v2c-15.56 4.08-31.01 8.09-47 10-1.63.2-1.63.2-3.3.39-7.89.79-15.78.71-23.7.61l-1 2c.19-.78.37-1.57.56-2.38.7-2.59.7-2.59-.56-4.62 8.82-1.21 17.67-1.34 26.56-1.56 1.6-.05 3.2-.09 4.79-.13 3.89-.11 7.77-.21 11.65-.31-5.44-.5-5.44-.5-11-1l-2-5c.54-.03 1.07-.05 1.62-.08 5.53-.4 10.77-1.41 16.13-2.8.68-.17 1.36-.35 2.06-.53.68-.17 1.36-.35 2.07-.53 3.94-1.02 7.89-1.97 11.87-2.87l3.36-.77c2.74-.4 4.32-.34 6.89.58"/><path fill="#6b6830" d="M401.082 658.621c1.92.38 1.92.38 3.92 1.38.37 14.57-2.31 23.27-9 36h-2v-2c-.72-.08-1.45-.17-2.19-.25-3.53-.94-5.24-2.15-7.81-4.75-1.63-8.7-.27-16.89 4.44-24.26 3.75-5 6.36-6.63 12.64-6.12"/><path fill="#5d833b" d="M453 548h7v2h2c.03 2.75.03 2.75-1 6-2.59 1.85-5.47 2.87-8.44 4-1.65.68-3.29 1.36-4.94 2.04-.8.33-1.59.66-2.41 1-5.15 2.24-9.93 5.18-14.34 8.63C429 573 429 573 427 573v2l-3-1 1-2h2c-.5-.99-.5-.99-1-2-1.46.11-2.92.24-4.38.38-1.21.1-1.21.1-2.46.21-2.36.24-2.36.24-4.16 2.41-1.04 2.32-2.04 4.65-3 7h-2l2 4c-3 2-3 2-6 2l-1 9c-1.98.5-1.98.5-4 1v-3l-4-1 1 4h-4c1.46-4.48 3.95-7.68 7-11.19.49-.57.98-1.14 1.49-1.72 10.47-12.02 26.11-29.58 42.76-32.03L448 551c.5 1.49.5 1.49 1 3 2.25-2.05 3-3.01 4-6"/><path fill="#537b3b" d="m586 637-1 8h2c.5 1.49.5 1.49 1 3h-3c.39 1.29.39 1.29.8 2.61.23 3.86-.59 5.15-3.06 8.03l-1.49 1.61c-.51.57-1.01 1.13-1.53 1.72-7.48 8.25-15.62 15.14-24.66 21.59-.73.53-1.47 1.05-2.22 1.59-1.05.73-1.05.73-2.12 1.48-.62.43-1.24.87-1.88 1.31-1.99 1.14-3.56 1.79-5.84 2.06l-2-2c.91-.43 1.82-.87 2.75-1.31 3.18-1.54 3.18-1.54 5.5-3.38C551 682 551 682 553 682v-2h4l-5-5c1.39-4.56 3.44-6.51 7.19-9.38 8.88-7.02 15.71-14.37 21.33-24.3 2.76-4.32 2.76-4.32 5.48-4.32"/><path fill="#5e8345" d="M190 775c.99.85 1.98 1.69 3 2.56.64.55 1.29 1.1 1.95 1.66 1.33 1.16 2.65 2.33 3.94 3.53 7.86 7.18 16.64 11.66 26.32 15.95C228 800 228 800 231 802l-11 2c.5 1.49.5 1.49 1 3 1.24-.23 2.47-.45 3.75-.69 3.12-.41 3.93-.49 6.75 1.13.5.51.99 1.03 1.5 1.56l-1 3 3 1c-14.95-1.04-29.52-9.73-40.81-19.12-.62-.51-1.24-1.01-1.87-1.53-4.24-3.67-4.24-3.67-4.64-7.03.1-.77.21-1.53.32-2.32l-1-3c1.44-2.69 1.44-2.69 3-5"/><path fill="#60873e" d="M216 667c.5.99.5.99 1 2h7c-.26 3.26-1.08 4.07-3.58 6.29-1.07.77-2.13 1.54-3.23 2.33-1.06.78-2.12 1.56-3.21 2.36-2.98 2.02-2.98 2.02-5.31 3.18-2.28 1.15-2.56 2.56-3.67 4.84-1.64 1.69-3.31 3.35-5 5-4.5 4.73-7.97 9.9-11.39 15.45A83 83 0 0 1 184 715c.1-.72.21-1.44.31-2.19-.43-3.93-2.41-5.27-5.31-7.81l1-2h2l.88-3.38C184 696 184 696 186 694h4l-1-4 4-1c.1-.57.2-1.13.3-1.71 1.64-5.36 6.07-10 10.39-13.41 2.6-.99 3.76-.92 6.31.12l1-3h2v-2z"/><path fill="#517741" d="M552 673c2.62 2.38 2.62 2.38 5 5v2h-4l-.12 1.81c-1.33 3.31-3.71 3.8-6.88 5.19-3.25 1.72-3.25 1.72-4 5-4.85 3.62-8.93 5.28-15 5-1.36.96-2.7 1.96-4 3h-4v2h-6l-1 2c-8.18-1.59-8.18-1.59-11-3v-3q1.215-.405 2.46-.81c16.02-5.48 31.38-12.49 44.8-22.95C550 673 550 673 552 673"/><path fill="#765740" d="m416 817 2 1c.34 9.74.68 20.24-6 28-6.72 7.1-13.54 9.11-23.19 9.62-8.55-.12-14.66-3.3-21.81-7.62v-3l2 1c2.33.36 4.66.7 7 1l1-6c1 .36 1 .36 2.02.73 7.15 2.3 12.8 2.72 19.98.27 3.11-1.91 3.11-1.91 5-4 2.48.99 2.48.99 5 2v4l2-1c-.08-.74-.17-1.49-.25-2.25.25-2.75.25-2.75 2.25-4.44 3.16-3.65 2.32-7.67 2-12.31h1z"/><path fill="#668949" d="m198 678 2 1c-.42.47-.84.94-1.28 1.43-.55.62-1.09 1.24-1.66 1.88-.54.62-1.09 1.23-1.65 1.87-1.61 1.87-1.61 1.87-2.41 4.82l-3 2v3c-.76.19-1.53.37-2.31.56-3.77 2.02-4.23 4.54-5.69 8.44l-2 2c.64.6 1.28 1.2 1.94 1.81C184 709 184 709 185 712c-.56 2.14-1.2 4.27-1.88 6.38-2.88 9.69-2.95 19.57-3.12 29.62h-1l-1-16h-2v-17h-2c.01.86.01 1.72.02 2.6.01 3.19.03 6.38.03 9.57l.03 4.14c.01 1.98.01 3.97.02 5.96 0 1.19.01 2.38.01 3.61-.09 2.61-.39 4.65-1.11 7.12q-.135 2.31-.12 4.62c-.01.78-.01 1.56-.01 2.36 0 2.09 0 2.09 1.13 4.02l-2 3c-6.41-18.78-3.82-38.82 4.75-56.38 3.36-6.52 7.33-12.16 12.25-17.62.83-.93 1.65-1.87 2.5-2.83 2.15-2.41 4.32-4.79 6.5-7.17"/><path fill="#51602c" d="M406 661c2.48.5 2.48.5 5 1 .25 5.51.25 5.51-1 7.94-1.27 2.17-1.27 2.17-.75 5.31-.31 4.62-1.79 6.11-4.66 9.56-2.25 3.1-3.4 6.39-4.63 9.99-1.03 2.36-1.92 3.64-3.96 5.2-3.19.19-3.19.19-6 0l-1-4c-1.39-.19-1.39-.19-2.81-.38C383 695 383 695 380 693v-3h-2c-.08-2.69-.14-5.37-.19-8.06-.04-1.13-.04-1.13-.07-2.28-.07-5.33.85-8.9 3.26-13.66h3v-2h4c-.48 2.69-1.05 5.15-2 7.72-1.1 3.62-1.41 6.88-1.62 10.66-.08 1.24-.15 2.49-.23 3.77-.05.94-.1 1.88-.15 2.85l3 1v2h4v2h3v2h2c.23-.78.45-1.57.69-2.38 1.31-3.62 1.31-3.62 2.45-5.58 4.89-8.41 5.66-17.54 6.86-27.04"/><path fill="#5a803f" d="M174 715h2v17h2l1-2c0 1.08.01 2.16.01 3.27.17 8.71 1.14 16.6 3.8 24.92.25.77.5 1.55.75 2.35 1.66 4.85 3.77 9.08 6.44 13.46l-7 2v-3c-1.98.5-1.98.5-4 1v-2l-3-1c-2.62-4.18-3.22-7.12-3-12l-1-2c-.1-1.64-.13-3.29-.12-4.94-.01-.87-.01-1.75-.01-2.65C172 747 172 747 173 744c.15-2.21.25-4.42.32-6.64l.12-3.93.12-4.12c.05-1.38.09-2.76.13-4.15.11-3.39.21-6.77.31-10.16"/><path fill="#557d3c" d="M426 569c.5 1.49.5 1.49 1 3l-2 2-1 3c-4.46 4-4.46 4-7 4v2h-2c-.25.54-.5 1.07-.75 1.62A67 67 0 0 1 409 593h-2q-.375 1.11-.75 2.25c-1.61 3.55-3.92 5.58-6.81 8.13-2.03 2.28-3.16 4.87-4.44 7.62h-2v-2h-2c-1.36-2.78-2.36-4.87-1.38-7.92 1.49-2.81 2.64-4.77 5.63-6.02L397 595v-3c5.75 1.88 5.75 1.88 8 3-.21-.54-.41-1.07-.62-1.62-.51-3.21.47-5.39 1.62-8.38h3l2-2-1-3c.45-.39.91-.78 1.38-1.19 1.9-2.12 2.6-4.16 3.62-6.81 2.4-2.4 3.33-2.34 6.62-2.62.82-.08 1.64-.15 2.48-.23.63-.05 1.25-.1 1.9-.15"/><path fill="#4b7432" d="M329.188 631.813c21.8.18 21.8.18 28.69 7.06 1.46 2.77.92 4.18.12 7.13.5.49.5.49 1 1 .31 1.61.55 3.24.75 4.87.12.89.24 1.77.36 2.68-.11 2.45-.11 2.45-1.59 4.27-.5.39-1 .78-1.52 1.18-.98-2.4-1.96-4.79-2.93-7.19l-.85-2.04c-1.44-3.57-2.63-6.94-3.22-10.77-5.12-.99-10.17-1.31-15.37-1.57-1.25-.06-1.25-.06-2.52-.13l-6.11-.3v-2h-14c3.45-2.3 5.94-2.48 10-3 1.84-1.84 4.72-1.18 7.19-1.19"/><path fill="#574025" d="M381 762h2c-.38 5.02-.77 10.03-1.17 15.05-.14 1.71-.27 3.41-.4 5.12-.18 2.45-.38 4.91-.58 7.37-.05.76-.11 1.51-.17 2.29-.86 10.35-.86 10.35-4.68 14.17-2.48-3.72-2.44-6.87-2.62-11.19l-.12-2.27c-.1-1.85-.18-3.69-.26-5.54h-1c-1.23-13.1-1.23-13.1 1.75-17.71 2-1.92 4.05-3.6 6.25-5.29z"/><path fill="#6a943b" d="M269 556h3c.29.83.58 1.67.88 2.53 3.66 10.05 7.5 17.96 16.12 24.47 1.01.99 2.02 1.98 3 3-.8.24-1.59.48-2.41.73-5.79 1.84-10.78 3.53-15.59 7.27-1-1-1-1-1.06-4.56L273 586h3c.5-4.46.5-4.46 1-9l-3-1c-3.05-1.96-4.71-3.14-5.88-6.62-.16-4.53.3-8.9.88-13.38"/><path fill="#5e8838" d="M269 572c3.37 1.12 5.49 2.49 8 5 .34 6.32.34 6.32-1 9h-3c.86 7.51 1.62 13.72 6 20l-3 2 1 3-1 3h4l2 6c-6.91-2.87-12.33-10.01-15.62-16.56-1.79-4.62-1.81-8.71-.38-13.44 2.46-4.13 4.6-5.37 9-7-.43-.63-.87-1.25-1.31-1.9-.56-.82-1.12-1.63-1.69-2.48-.56-.81-1.11-1.62-1.69-2.46C269 574 269 574 269 572"/><path fill="#6f934b" d="M519 540c5.62-.24 10.45.56 15.88 2 .81.22 1.63.43 2.47.65C546 545.07 554.17 548.6 562 553c.5.99.5.99 1 2l-3 1v-2h-3v-2l-4 1c.5 3.96.5 3.96 1 8-4.02-.83-7.76-2.41-11.56-3.94-.67-.26-1.35-.53-2.04-.8-3.04-1.22-5.67-2.44-8.4-4.26h2v-2h2v-2l6-1-4-1v-2c-1.52.56-1.52.56-3.06 1.12-4.23 1.25-6.87.38-10.94-1.12v-2h-6z"/><path fill="#537c35" d="M298 622c5.16 1.63 10.1 3.45 15.06 5.62 4.77 2.04 8.78 3.08 13.94 3.38-2.94 1.52-5.92 2.8-9 4l8 1v2c1.23-.02 2.46-.05 3.73-.07 1.63-.02 3.26-.04 4.89-.05l2.45-.06c4.73-.03 8.48.35 12.93 2.18v2l2 1c-5.24 0-10.42-.95-15.61-1.67-2.6-.36-5.2-.69-7.8-1.03-1.87-.24-3.73-.49-5.59-.74-.88-.11-1.77-.22-2.68-.33-5.26-.72-9.54-1.9-14.32-4.23v-2l-8-3v-2l-4-1c3-1 3-1 6 0v-3h-2z"/><path fill="#638d42" d="M520 678c-2.81 1.87-5.09 3.02-8.38 3.88-3.75.92-3.75.92-6.67 3.55-4.52 3.32-9.26 3.97-14.7 4.82-1.87.32-3.74.63-5.61.95-.82.13-1.64.26-2.48.4-2.33.38-2.33.38-5.16 1.4-2.44.08-4.85.12-7.29.1-1.06 0-1.06 0-2.14-.01-2.25 0-4.51-.01-6.76-.03-1.53 0-3.05-.01-4.58-.01-3.74-.01-7.49-.03-11.23-.05v-3h3v-2l3-1c.33.47.66.95 1 1.44 3.1 2.42 6.12 2.24 10 2.56.31-.96.31-.96.62-1.94 1.38-2.06 1.38-2.06 4.5-2.81 1.43-.12 1.43-.12 2.88-.25v2c5.28 1.2 5.28 1.2 10-1 2.65-.59 5.26-1.11 7.94-1.56 7.46-1.22 7.46-1.22 14.62-3.5C505 681 505 681 508 681v-2c1.62-.36 3.25-.71 4.88-1.06.9-.2 1.8-.4 2.74-.6C518 677 518 677 520 678"/><path fill="#8cb34d" d="M352 529c2.56 2.06 2.56 2.06 4 4-3 0-3 0-5-1v-2h-5c1.32 5.67 3.49 7.66 8 11-3.75 1.12-3.75 1.12-6 0-.11.68-.22 1.35-.33 2.05-.16.89-.32 1.78-.48 2.7-.15.88-.3 1.76-.46 2.67-.79 2.8-1.76 4.45-3.73 6.58h-2l-1 2v-2h-2c-.18-5.22.03-9.07 2-14l-2-1 1-4h-2l-1 2h-4c4.14-8.29 11.39-11.44 20-9m-16 26c.99.5.99.5 2 1-.99.5-.99.5-2 1z"/><path fill="#5d7b52" d="M470.625 715.938c1.06.01 1.06.01 2.14.01 1.75.02 3.49.03 5.24.05-4.21 2.26-8.35 3.09-13 4-.89.18-1.77.35-2.67.53a202 202 0 0 1-43.33 3.47c-.33.66-.67 1.32-1 2 .27-1.17.27-1.17.56-2.37.69-2.6.69-2.6-.56-4.63 9.56-1.31 19.18-1.34 28.81-1.55 2.29-.05 4.58-.11 6.87-.17.7-.01 1.41-.02 2.14-.04 5.11-.13 9.59-1.36 14.8-1.3"/><path fill="#84ad48" d="M295 585v2h2c-.19 2.37-.19 2.37-1 5-2.21 1.22-2.21 1.22-4.94 2.06-3.76 1.1-3.76 1.1-6.38 3.81-.88 2.39-.88 2.39-.68 6.13-1.38 1.75-1.38 1.75-3 3h-2c-2.63-3.21-4.66-6.67-5.69-10.69 1.12-3.76 3.38-5.49 6.69-7.31 10.71-4 10.71-4 15-4"/><path fill="#426b35" d="M533.27 692.05c.57.31 1.14.63 1.73.95l-4 1v3c-.87.18-.87.18-1.75.37-2.27.55-2.27.55-4.25 1.69-2 .94-2 .94-6 .94v2h-6l-1 2c-8.18-1.59-8.18-1.59-11-3v-3c.93-.33 1.86-.65 2.82-.99 1.23-.44 2.47-.87 3.74-1.32.65-.23 1.3-.46 1.96-.69 3.2-1.13 6.27-2.33 9.29-3.88 4.94-1.74 9.71-1.27 14.46.93"/><path fill="#577949" d="m361 769 1 3 3 1v3l3-3 3 1c-1.38 4.15-4.33 5.92-7.69 8.5-.61.49-1.22.97-1.85 1.47-3.65 2.84-7.23 5.11-11.46 7.03l-2-5 2-1-2-2c1.4-4.75 3.77-6.81 7.62-9.81 1.01-.79 2.01-1.58 3.04-2.4 1.16-.88 1.16-.88 2.34-1.79"/><path fill="#8d9249" d="M401.047 658.656c1.95.34 1.95.34 3.95 1.34.29 3.38.45 6.63 0 10-2.83 2.6-4.17 3-8 3v2c-5.4.36-5.4.36-7.87-1.12-1.75-2.92-1.71-4.52-1.13-7.88 3.15-5.93 6.41-7.79 13.05-7.34"/><path fill="#537745" d="M526 696c2.48.5 2.48.5 5 1-3.84 3.35-8.35 5.02-13 6.94-.85.35-1.69.7-2.56 1.06-18.11 7.44-18.11 7.44-22.44 6l-3-2c.31-1.18.31-1.18.62-2.38.13-.86.25-1.73.38-2.62l-2-2 12-3v2c1.44.17 2.87.33 4.31.5 1.2.14 1.2.14 2.43.28 2.38.27 2.38.27 5.26.22h6v-2c3.47-1.49 3.47-1.49 7-3z"/><path fill="#557943" d="M315 648c7.08.46 12.52 2.2 19 5 1.54.59 3.08 1.18 4.62 1.75 1.12.41 2.23.83 3.38 1.25v1l-15 2c.99 1.49.99 1.49 2 3l-18-4v-2h-3v-4h14v-2h-7z"/><path fill="#7f9b63" d="M514.063 538.5c1.41.14 1.41.14 2.85.28.69.07 1.38.15 2.09.22v1c-1.01.01-2.01.03-3.04.04-3.74.06-7.48.14-11.21.22-1.62.04-3.23.06-4.85.09-2.33.03-4.65.08-6.98.14l-2.17.02c-4.48.13-7.07 1.02-10.75 3.49-3.67.44-3.67.44-7.63.56-5.54.05-5.54.05-10.37 2.44l11 2v2l2 1c-9.41 2.11-9.41 2.11-14 3l1-5h-2v-2h-7l-.32 1.81c-.77 2.47-1.75 3.51-3.68 5.19l-1-4h-2l-1 2-2-2c22.48-9.78 46.45-14.99 71.06-12.5"/><path fill="#608d3a" d="M292 544c4.47 2.11 8.11 4.99 12 8 .75.57 1.51 1.13 2.29 1.71 7.54 5.81 14.09 12.48 20.71 19.29-.99.5-.99.5-2 1-.66 2.53-.66 2.53-1 5-3.32-3.27-6.51-6.62-9.66-10.06-4.66-5.11-9.32-10.03-14.62-14.49A80 80 0 0 1 292 547z"/><path fill="#547234" d="M406.875 653.25c2.23 1.84 3.19 3.04 4.12 5.75v3c-2.47-.5-2.47-.5-5-1v8h-1v-9c-6.74-.88-6.74-.88-12.84 1.34-1.53 1.81-1.53 1.81-3.16 4.66-.32-.66-.66-1.32-1-2h-4c-.32.66-.66 1.32-1 2 .53-2.76 1.11-5.33 2-8 2.33-1.45 4.59-2.74 7-4 .64-.41 1.28-.83 1.94-1.25 4.5-1.63 8.66-1.36 12.94.5"/><path fill="#597f38" d="M374 559c2.77 2.77 3.18 5.93 4.06 9.62.18.69.35 1.38.53 2.09 2.8 11.46 2.94 22.63 1.41 34.29h-1v-8l-5 3q-.045-5.94-.06-11.88l-.03-3.35c-.02-5.96.17-11.77.92-17.69.23-2.81-.18-5.35-.83-8.08"/><path fill="#497236" d="M366 687c7.16 1.63 15.71 4.51 20.82 9.93 1.89 3.31 1.87 6.3 2.18 10.07-.61-.39-1.21-.77-1.84-1.17-5.2-3.24-10.25-5.84-16.03-7.87-2.32-1.04-3.6-1.94-5.13-3.96-.19-3.69-.19-3.69 0-7"/><path fill="#658a3d" d="m368 552 2 1-1 2-2-1zm-5 1h2v2l3.38.88C372 557 372 557 374 559c2.35 5.22 2.07 9.7 1.62 15.25l-.33 4.83c-.14 1.94-.14 1.94-.29 3.92v2h-2v13h-1l-.15-3.8c-.57-13.37-2.03-24.02-7.61-36.29C363 555 363 555 363 553"/><path fill="#5b5e29" d="M384 664h4c-.48 2.69-1.05 5.15-2 7.72-1.1 3.62-1.41 6.88-1.62 10.66-.08 1.24-.15 2.49-.23 3.77-.05.94-.1 1.88-.15 2.85l3 1v2l2 1-9-1v-2h-2c-.08-2.69-.14-5.37-.19-8.06-.04-1.13-.04-1.13-.07-2.28-.07-5.33.85-8.9 3.26-13.66h3z"/><path fill="#6e904c" d="M229.824 658.129c2.18.87 2.18.87 4.18 2.87 2.06.64 2.06.64 4 1l-8 1v4h-2l1 3-5 2v-3h-11v2c-1.7 2.23-2.77 2.94-5.5 3.69-2.5.31-2.5.31-5.5.31 5.62-4.86 11.5-9.15 17.81-13.06.63-.41 1.27-.81 1.92-1.23 2.84-1.72 4.73-2.73 8.09-2.58"/><path fill="#7ba542" d="m290 580 2 1v2c2.97.5 2.97.5 6 1v2l2 1-2 7h-2c-.28.9-.28.9-.56 1.81-2.09 3.18-5 3.72-8.44 5.19-1.48 2.04-1.48 2.04-2 4l4 2-1 5c-3.24-.35-4.62-.56-6.81-3.06-.39-.64-.79-1.28-1.19-1.94.99-1.49.99-1.49 2-3h2c-.25-.91-.5-1.82-.75-2.75-.25-3.25-.25-3.25 1.13-5.44 3.11-2.15 6.04-3 9.69-3.9 2.14-.74 2.14-.74 2.7-3 .08-.63.15-1.26.23-1.91h-2v-2l-3 1-3-3z"/><path fill="#6f973f" d="m336 535 3 1c1.27 3.8.86 6.06.12 9.94-.16.87-.32 1.75-.49 2.65C338 551 338 551 336 554c-.71-.92-.71-.92-1.43-1.86-.62-.81-1.24-1.62-1.88-2.45-.62-.8-1.23-1.6-1.87-2.43-1.71-2.23-1.71-2.23-3.54-3.85-1.28-1.41-1.28-1.41-1.47-4.6.06-.93.13-1.85.19-2.81h6v2h4z"/><path fill="#6b8d55" d="m417 568 2 1c-.6.52-1.2 1.03-1.81 1.56-2.7 3.01-3.75 5.69-5.19 9.44h-2l2 4c-3 2-3 2-6 2l-1 9-4 1v-3l-4-1 1 4h-4c1.46-4.48 3.95-7.68 7-11.19.48-.56.96-1.12 1.46-1.7 4.59-5.3 9.49-10.25 14.54-15.11"/><path fill="#62844a" d="M174 723c.03 3.42.05 6.83.06 10.25l.03 2.93c0 .94 0 1.87.01 2.84 0 .85.01 1.71.01 2.6-.1 2.27-.51 4.19-1.11 6.38q-.135 2.31-.12 4.62c-.01.78-.01 1.56-.01 2.36 0 2.09 0 2.09 1.13 4.02l-2 3c-3.96-11.59-4.97-26.02-2-38 2-1 2-1 4-1"/><path fill="#65884f" d="M285.875 644.75c1.22 0 2.44.01 3.69.01 8.62.08 16.96.63 25.43 2.24v1c-7.92.81-15.78 1.11-23.74 1.13-1.35 0-1.35 0-2.71.01-.84 0-1.67-.01-2.53-.01h-2.27c-1.75-.13-1.75-.13-2.75-1.13-1.63-.09-3.27-.11-4.91-.1-1.48.01-1.48.01-2.99.01-1.56.01-1.56.01-3.16.03-1.56 0-1.56 0-3.16.01-2.59.01-5.18.03-7.78.05v-1c9.02-1.64 17.72-2.32 26.88-2.25"/><path fill="#739949" d="M587 601h1v22l-2-2c-2.21 1.81-2.97 2.89-3.75 5.69-1.76 4.65-4.86 7.74-8.25 11.31-.61-1.89-.61-1.89-1-4 1.31-1.36 2.65-2.69 4-4 2.42-4.83 3.83-9.73 5.16-14.96q.405-1.005.84-2.04l3-1zm-16 37h2v2h-2c-.25.8-.5 1.61-.75 2.44-1.25 2.56-1.25 2.56-3.37 3.37-.62.06-1.24.13-1.88.19l2-1c.68-1.66 1.35-3.33 2-5z"/><path fill="#658a42" d="M557 552v2l2.69.06c4.03 1.14 5.3 2.52 7.54 5.95 1.3 3.35.12 5.83-1.23 8.99-11.3-5.3-11.3-5.3-13.02-9.47-.21-2.25-.24-4.29.02-6.53 2-1 2-1 4-1"/><path fill="#587f37" d="M190 689h2v12h-4c.25.83.5 1.65.75 2.5.34 4.71-1.4 7.52-3.75 11.5l-1-3c-1.42-2.83-3.23-5.37-5-8l3-1c.72-2.32 1.38-4.65 2-7l2-2h4c-.28-.96-.28-.96-.56-1.94-.15-.68-.29-1.36-.44-2.06z"/><path fill="#83a062" d="M356 533c8.21 3.13 13.63 14.6 17.32 22.04.22.65.45 1.29.68 1.96l-1 2-2-2c-1.98-.71-3.98-1.39-6-2v-2c-.93-.09-.93-.09-1.88-.19-2.12-.81-2.12-.81-3.37-3.37-.25-.81-.5-1.61-.75-2.44l3-1v-2l-2-1 1-2-2-1c-.72-1.65-1.38-3.31-2-5zm12 19-1 3h2l1-3z"/><path fill="#598336" d="M277 606c3.17 1.22 5.39 3.09 7.88 5.38 3.22 2.89 6.45 5.33 10.12 7.62l-1.94.94c-2 .89-2 .89-3.06 2.06-3.45.48-4.81.12-7.81-1.75C280 618 280 618 280 614h-4l.06-2.38c.13-2.6.13-2.6-1.06-4.62z"/><path fill="#6e9242" d="M346 530c2.94-.24 4.54-.29 7.06 1.31.64.56 1.28 1.12 1.94 1.69l2.25 1.44c.58.51 1.15 1.03 1.75 1.56v4l3 1v5l-4 1c-.53-.61-1.06-1.23-1.61-1.86-.71-.81-1.41-1.62-2.14-2.45-.7-.8-1.39-1.6-2.11-2.43-2.04-2.29-2.04-2.29-4.39-3.88-.87-.69-.87-.69-1.75-1.38-.25-2.69-.25-2.69 0-5"/><path fill="#4e7639" d="M310 648h5v2h7v2c-6.44.5-6.44.5-13 1l-1 3 3 1c-1.94-.11-3.88-.24-5.81-.38-1.08-.06-2.16-.13-3.27-.21C299 656 299 656 296 654v-2l-4-1c1-1 1-1 4.82-1.1 1.58.01 3.16.02 4.74.04.81 0 1.62.01 2.45.01 1.99.01 3.99.03 5.99.05z"/><path fill="#4a7136" d="M353 636c3.44 1.15 4.27 1.88 6 5-.38 2.69-.38 2.69-1 5l1 1c.31 1.61.55 3.24.75 4.88.12.88.24 1.76.36 2.67-.11 2.45-.11 2.45-1.59 4.27-.75.58-.75.58-1.52 1.18-.98-2.39-1.96-4.79-2.94-7.19-.28-.67-.55-1.34-.84-2.04-1.18-2.92-2.18-5.59-2.79-8.7-.14-.68-.28-1.36-.43-2.07l-2-1c2.31-1.56 2.31-1.56 5-3"/><path fill="#567d3c" d="M190 775c1.11.94 2.21 1.87 3.31 2.81.62.52 1.23 1.05 1.87 1.58 3.36 2.97 3.36 2.97 4.82 4.61-.09 2.77-.84 3.82-2.69 5.88-2.31 1.12-2.31 1.12-5.5.56-2.81-1.44-2.81-1.44-3.62-3.25-.06-.72-.13-1.45-.19-2.19-.25-.8-.5-1.61-.75-2.44-.33-3.38.82-4.85 2.75-7.56"/><path fill="#617e51" d="M306 634h8v1l12 1v2c1.23-.02 2.46-.05 3.73-.07 1.63-.02 3.26-.04 4.89-.05l2.45-.06c4.73-.03 8.48.35 12.93 2.18v2l2 1c-5.24 0-10.42-.95-15.61-1.67-2.6-.36-5.2-.69-7.8-1.03-1.87-.24-3.73-.49-5.59-.74-1.33-.16-1.33-.16-2.68-.33-5.26-.72-9.54-1.9-14.32-4.23z"/><path fill="#4d723a" d="m348 779 2 3-1 1 2 2-3 1c.99 1.49.99 1.49 2 3v3c-5.54.37-5.54.37-7.88-1.5-.37-.5-.74-.99-1.12-1.5v3c-.56-.19-1.11-.37-1.69-.56-2.71-.52-4.65-.1-7.31.56 1.5-4.26 4.14-5.52 8-7.62 4.29-2.31 4.29-2.31 8-5.38"/><path fill="#79975d" d="M595 592c4.21 6.32 4.36 13.38 4.31 20.75v2.64c-.1 6.91-1.07 13.05-3.31 19.61h-1c0-10 0-10 .04-11.88 0-.7.01-1.4.02-2.12.01-.7.03-1.4.04-2.12.02-1.97.02-1.97-1.1-3.88q-.06-3 0-6l3 3c.09-3.2-.09-5.93-1-9h-2c-.12-7.62-.12-7.62 1-11"/><path fill="#83a057" d="M301 520c-3.49 2.33-4.86 2.24-8.98 2.2l-3.53-.02-3.68-.06c-1.22 0-2.45-.01-3.71-.02-3.04-.03-6.07-.06-9.1-.1v-2l-4-1c10.92-3.26 22.11-1.87 33 1"/><path fill="#88a761" d="M352 529c2.56 2.06 2.56 2.06 4 4-3 0-3 0-5-1v-2h-5l1 6-3 1c-1.71 3-1.71 3-3 6l-1-2-2-1 1-4h-2l-1 2h-4c4.14-8.29 11.39-11.44 20-9"/><path fill="#83ac4e" d="M266 700c1 3 1 3 1 6h-2v2l-3 1v3h-2v3c-3 1-3 1-4 1-.19.58-.37 1.15-.56 1.75-1.74 2.72-3.74 3.57-6.55 5.04-3.29 2.11-5.54 5.14-7.89 8.21l-2-1c3.71-5.35 7.56-10.3 13-14h2c.1-.64.21-1.28.31-1.94.34-1.02.34-1.02.69-2.06l3-1 1-3c1.31-1.35 2.65-2.69 4-4l1-2h2z"/><path fill="#739258" d="M282 620c2.05.29 4.1.59 6.15.88l1.85.12 1-1c2.34.29 4.67.62 7 1v3h2v3h-5l3 1v2h5v1c2.48.5 2.48.5 5 1l-2 2c-4.53-.29-8.15-2.51-12-4.75-.6-.34-1.21-.67-1.83-1.02-4.01-2.3-7.03-4.83-10.17-8.23"/><path fill="#598934" d="M308 600h2v2c2.42.17 2.42.17 5 0l2-2c7.3-.46 7.3-.46 11 2l-1 3h-26l1-4 2.44.06c2.49.24 2.49.24 3.56-1.06"/><path fill="#4e7435" d="M174 715h2v45c-4-3-4-3-4.43-5.38l.12-2.62c.02-.87.05-1.73.07-2.62C172 747 172 747 173 744c.15-2.21.25-4.42.32-6.64l.12-3.93.12-4.12c.05-1.38.09-2.76.13-4.15.11-3.39.21-6.77.31-10.16"/><path fill="#618249" d="m377 603 2 2c-.32 6.05-1.92 11.34-4 17l-6-2c-.19-2.31-.19-2.31 0-5l1.41-1.41c1.83-1.83 2.36-3.27 3.15-5.71.69-2.14.69-2.14 1.44-3.88z"/><path fill="#85ad4a" d="M202 689h2l1 3-2 2v3c-1.43 2.12-1.43 2.12-3.31 4.44-.62.76-1.23 1.52-1.87 2.31-.6.74-1.2 1.48-1.82 2.25-1.01 1.33-2.01 2.66-3 4v-4l-3-1c7.98-11.63 7.98-11.63 12-16"/><path fill="#669042" d="m471 612 1 2 3 1c-.66.52-1.33 1.04-2.01 1.57-5.59 4.41-5.59 4.41-10.8 9.24-2.19 2.19-2.19 2.19-4.5 3.5-4.15 2.6-7.32 6.17-10.69 9.69l-1-2c2.51-2.51 5.02-5.02 7.56-7.5 2.5-2.45 2.5-2.45 4.5-5.31.64-.72 1.28-1.45 1.94-2.19h4v-2c.6-.21 1.2-.41 1.81-.62 3-1.89 3.8-4.19 5.19-7.38m-25 27v3c-2.19 1.44-2.19 1.44-5 3a214 214 0 0 0-5 4c0-3 0-3 1.68-4.82.72-.62 1.45-1.23 2.2-1.87.71-.62 1.43-1.24 2.17-1.88C444 639 444 639 446 639"/><path fill="#81ab4e" d="M482 592h10c-1.06 2.44-1.06 2.44-3 5-3.06.62-3.06.62-7 1-7.49 1.9-15.19 4.31-22 8 0-2 0-2 2-4 2.98-2.57 5.18-3.28 9-4l1-2h2v2h2l1-2c1.33-.67 2.67-1.33 4-2z"/><path fill="#5e883f" d="M429 657c1.06 1.88 1.06 1.88 2 4-1 2-1 2-2.54 3.36-1.86 2.09-1.81 3.12-1.75 5.87l.03 2.43c.02.84.05 1.67.07 2.53l.04 2.56c.04 2.08.09 4.17.15 6.25 2.48.99 2.48.99 5 2v2l3 1h-5v-2c-.87-.37-.87-.37-1.77-.74-3.59-2.03-5.47-4.53-7.56-8.05-1.45-6.96 3.8-13.48 7.33-19.21z"/><path fill="#719a46" d="m437 567 2 1c-1.41 1.63-2.83 3.26-4.25 4.88-.79.9-1.58 1.8-2.39 2.74-2.14 2.16-3.68 3.1-6.36 4.38-.39 1.65-.72 3.32-1 5-.96 1.36-1.96 2.7-3 4-.08-1.58-.14-3.17-.19-4.75-.03-.88-.07-1.76-.1-2.67.34-3.06 1.17-4.39 3.29-6.58h2v-2c2.12-1.54 2.12-1.54 4.88-3.19.9-.55 1.8-1.1 2.74-1.67 1.18-.56 1.18-.56 2.38-1.14"/><path fill="#91ab6d" d="M302 521c11.56 2.12 21.12 6.22 30 14l-2 2c-.41-.45-.82-.91-1.25-1.38-1.81-1.68-3.5-2.61-5.75-3.62v-2c-.7.02-1.4.05-2.12.07-1.36.03-1.36.03-2.76.05l-2.74.08C313 530 313 530 311 528c-1.52-.46-1.52-.46-3.06-.94L305 526l-1-3z"/><path fill="#6c9644" d="M312 672c2.06 1.75 2.06 1.75 4 4-.31 2-.31 2-1 4 .21.64.41 1.28.62 1.94.38 2.06.38 2.06-1.06 4.81L313 689h2v2c-1.77.7-3.54 1.38-5.31 2.06-.99.39-1.97.77-2.99 1.16-2.7.78-2.7.78-5.7-.22 2-3 2-3 4.94-4.12 3.88-2.38 4.41-4.26 5.6-8.52.63-3.22.67-6.09.46-9.36"/><path fill="#6a953b" d="M292 544c2.81 1.32 5.22 2.8 7.69 4.69.68.52 1.37 1.04 2.07 1.58.74.57 1.48 1.14 2.24 1.73.83.63 1.66 1.26 2.52 1.91.82.63 1.64 1.26 2.48 1.9 1.14.88 1.14.88 2.31 1.77L313 559v1c-2.68.76-2.68.76-6 1-2.6-1.7-2.6-1.7-5.06-4.12-.86-.84-1.71-1.67-2.59-2.52-1.16-1.17-1.16-1.17-2.35-2.36-.58-.53-1.16-1.06-1.75-1.61-1.37-1.27-1.37-1.27-3.25-3.39z"/><path fill="#678e46" d="M380 746h2c-1.25 4.57-3.76 6.96-7.09 10.12-1.88 1.85-3.54 3.78-5.22 5.82-4.02 4.69-8.78 8.35-13.69 12.06l-1-2h2l1-3q1.47-1.53 3-3l1-2h3l1-6h5c.25-.58.5-1.15.75-1.75 1.43-2.57 3.15-4.21 5.25-6.25.54-.74 1.07-1.49 1.62-2.25.46-.58.91-1.15 1.38-1.75"/><path fill="#84ab4f" d="M518 550c6.41 1.11 12.71 2.34 19 4v2c-3.93 1.85-6.99 2.22-11.31 2.12-1.07-.01-2.14-.03-3.24-.05-.81-.02-1.62-.05-2.45-.07v-2h2v-3l-4 1-1-2z"/><path fill="#4a7237" d="M552 673c2.62 2.38 2.62 2.38 5 5v2h-4l-1 4h-7l-2-6c1.12-.84 2.25-1.67 3.38-2.5q.93-.69 1.89-1.41C550 673 550 673 552 673"/><path fill="#6b9545" d="M358 745c1 2 1 2 .36 4.53-.34.98-.69 1.96-1.05 2.97-.33.98-.67 1.96-1.01 2.97-1.45 2.82-2.37 3.49-5.3 4.53v2c-2.12 1.73-2.12 1.73-4.88 3.62-1.35.95-1.35.95-2.74 1.92C341 769 341 769 339 769v2l-7 2c1.29-1.38 2.63-2.71 4-4h2v-2c1.57-1.37 1.57-1.37 3.69-2.88 2.46-1.78 4.84-3.56 7.19-5.5C351 757 351 757 353 757c.08-.68.17-1.36.25-2.06.97-3.81 2.71-6.58 4.75-9.94"/><path fill="#593f2a" d="M405 724h12v26h-1l-1-24-5 1c-.74 5.71-1.1 11.24-1 17l-2-1c-.29-2.65-.47-5.22-.56-7.88-.18-5.64-.18-5.64-1.44-11.12"/><path fill="#6f9a46" d="m492 596-1 5c-3.29.8-4.71 1.1-8 0-2.13.61-2.13.61-4 2-.25.68-.5 1.36-.75 2.06C477 607 477 607 475.1 607.48c-2.02.25-4.06.39-6.1.52.82-.58 1.65-1.15 2.5-1.75.82-.74 1.65-1.49 2.5-2.25v-4c6.25-2.87 11.1-4.51 18-4"/><path fill="#608839" d="M276 580h3v2c.58.29 1.15.58 1.75.88 2.08 1.04 4.17 2.08 6.25 3.12-1.98 1.98-3.44 2.81-5.94 4-2.53 1.21-4.7 2.43-7.06 4-1-1-1-1-1.06-4.56L273 586h3z"/><path fill="#7e9a6c" d="M582 652h4c-3.67 8.08-10.13 14.56-17 20-.12-5.75-.12-5.75 1-8 .83-.47 1.65-.95 2.5-1.44 2.79-1.37 2.79-1.37 3.5-4.56l2-1 1-3 4 1z"/><path fill="#6c9744" d="M296 695c2.06.44 2.06.44 4 1-1.97 1.97-3.47 2.89-6 4h-2c-3.84 1.46-6.21 4.06-9 7l-2-1 1-2-2 2-2 2c-2.12-.38-2.12-.38-4-1 1.75-2.5 1.75-2.5 4-5h4v-2h3v-2c.71-.13 1.42-.27 2.15-.4.92-.18 1.84-.36 2.79-.54.91-.17 1.83-.35 2.77-.52 2.24-.32 2.24-.32 3.29-1.54"/><path fill="#84ac4a" d="m222 673 3 1c-1.93 2.02-3.63 3.42-6 5-.06.8-.12 1.61-.19 2.44-.81 2.56-.81 2.56-2.58 3.55-5.31 2.01-5.31 2.01-8.23 2.01v2l-3-1c1.54-4.35 4.92-6.55 8.5-9.19.59-.45 1.19-.9 1.8-1.36 4.34-3.27 4.34-3.27 6.7-4.45"/><path fill="#90a86f" d="M262 529h1c.05 1.29.1 2.58.15 3.91.07 1.72.15 3.44.23 5.15l.09 2.57c.23 5.09.76 9.57 2.53 14.37l2 1c1.17 3.5 1.13 6.33 1 10l-1 2 2 1-2 3c-5.79-14.52-6.28-27.54-6-43"/><path fill="#6d8d58" d="M177 772h2v2l5-2v3l1-1c1.67-.04 3.33-.04 5 0-.55 1.99-1.11 3.97-1.66 5.96-.54 2.23-.54 2.23.66 5.04l-2 2c-1.48-1.93-2.96-3.87-4.44-5.81-.42-.55-.84-1.1-1.27-1.66-1.9-2.51-3.29-4.52-4.29-7.53"/><path fill="#97ad7e" d="M269 572c3.37 1.12 5.49 2.49 8 5 .34 6.32.34 6.32-1 9l-2.38.12c-2.73.58-2.73.58-3.62 2.72-.74 2.04-1.41 4.07-2 6.16h-2l-1 4c.25-5.76.53-9.9 5-14 1.65-.71 3.32-1.38 5-2-.43-.63-.87-1.25-1.31-1.9-.56-.82-1.12-1.63-1.69-2.48-.56-.81-1.11-1.62-1.69-2.46C269 574 269 574 269 572"/><path fill="#718e5d" d="m220 804 1 3c1.24-.23 2.47-.45 3.75-.69 3.12-.41 3.93-.49 6.75 1.13.5.51.99 1.03 1.5 1.56l-1 3 3 1c-8.36-.58-17.52-3.61-24-9 6.75-1.12 6.75-1.12 9 0"/><path fill="#90a877" d="M519 540c5.88-.29 10.85.75 16.5 2.31.82.22 1.63.43 2.47.65 4.89 1.31 9.43 2.93 14.03 5.04l-3 2v-2l-3 1-2-1v-2h-6v-2c-1.52.56-1.52.56-3.06 1.12-4.23 1.25-6.87.38-10.94-1.12v-2h-6z"/><path fill="#88b14a" d="M281 566c4.57 4.57 7.17 11.24 10 17-5.3-.64-7.36-2.8-10.68-6.79C279 574 279 574 279 570.06c1-3.06 1-3.06 2-4.06"/><path fill="#839b77" d="M563 671c2.97.5 2.97.5 6 1-4.1 4.4-8.64 7.8-13.56 11.25-.76.54-1.51 1.08-2.29 1.64-.73.52-1.46 1.03-2.22 1.56-.99.7-.99.7-1.99 1.41-2.03 1.2-3.6 1.87-5.94 2.14l-2-2c.91-.43 1.82-.87 2.75-1.31 3.18-1.54 3.18-1.54 5.5-3.38C551 682 551 682 553 682v-2h4l-1-3h4l1-2c.67-1.33 1.33-2.67 2-4"/><path fill="#698f37" d="M268 520h4v2h20v2c-8.08 1.86-16.88 1.53-25 0l-1-2h2z"/><path fill="#85af4d" d="M189 724h1c.03.63.05 1.25.08 1.9.05.82.11 1.63.17 2.48.05.81.09 1.62.14 2.46.4 2.35.4 2.35 2.66 3.45.64.23 1.29.47 1.95.71l-1 2 2 1v2h2l2 4c-3.31.31-3.31.31-7 0-2.59-3.02-3.57-6.07-4-10l1-2h-2z"/><path fill="#6b9743" d="m309 702-1 2c-2.07.41-2.07.41-4.56.62-.83.08-1.66.15-2.51.23-.95.08-.95.08-1.93.15l-1 5h-2v-2c-.93.31-1.86.62-2.81.94-2.07.68-4.13 1.37-6.19 2.06l-3-2 5-1v-2l2.88-.88c3.17-.89 3.17-.89 5.12-3.12l2 1c3.85-2.57 5.59-1.83 10-1"/><path fill="#4a7033" d="M368 617c.43.47.87.95 1.31 1.44 1.71 1.8 1.71 1.8 4.69 2.56v3h-3v6l-4 2c-1.73-1.73-1.17-4.03-1.19-6.38-.01-.97-.03-1.95-.04-2.96C366 620 366 620 368 617"/><path fill="#6b9545" d="M299 656c6.67-.46 12.59 1.23 19 3v1c-8.57 1.43-8.57 1.43-12-1-1.65 1.23-1.65 1.23-3 3 .23 2.16.23 2.16 1 4h3v2c-5.75-1.75-5.75-1.75-8-4l2-6h-2z"/><path fill="#7f9964" d="M374 559c2.77 2.77 3.22 5.93 4.12 9.62.19.69.37 1.38.56 2.09 1.21 4.88 1.49 9.26 1.32 14.29h-1v-6h-3l-1 4c-1.62-4.78-.62-9.57-.16-14.49.15-3.36-.16-6.23-.84-9.51"/><path fill="#7f6350" d="M364 820c2.29 3.64 2.27 6.76 2.25 11l.02 3.69c-.25 3.06-.66 4.75-2.27 7.31-2.66-2.66-2.68-4.27-3-8 .56-3.65.56-3.65 1.44-7.38l.87-3.77c.23-.94.45-1.88.69-2.85"/><path fill="#60893a" d="m240 659-1 2 3-1c-.16 1.83-.16 1.83-1 4-2.43 1.48-2.43 1.48-5.44 2.75-.99.43-1.97.86-2.99 1.3-2.57.95-2.57.95-4.57.95v-2h2v-4l3-1-1-3c3.05-.98 4.95-.98 8 0"/><path fill="#61873c" d="M453 548h7v2h2l-1 6-6 2 1-4c-3.78-.3-3.78-.3-6 1 .31-.6.62-1.2.94-1.81 1.16-2.28 1.16-2.28 2.06-5.19"/><path fill="#819e6c" d="m417 568 2 1c-.6.52-1.2 1.03-1.81 1.56-2.7 3.01-3.75 5.69-5.19 9.44h-2l2 4-3 2-3-4c-1.49.99-1.49.99-3 2 1.66-4.33 4.87-7.09 8.12-10.25.57-.55 1.13-1.11 1.71-1.68 1.39-1.36 2.78-2.72 4.17-4.07"/><path fill="#9ab186" d="m198 678 2 1c-.42.47-.84.94-1.28 1.43-.55.62-1.09 1.24-1.66 1.88-.54.62-1.09 1.23-1.65 1.87-1.61 1.87-1.61 1.87-2.41 4.82l-3 2v3c-.76.19-1.53.37-2.31.56-3.75 2.01-4.11 4.6-5.69 8.44-2.19 1.44-2.19 1.44-4 2 3.79-10.57 12.41-18.96 20-27"/><path fill="#81a84e" d="M541 558c1.53.09 3.05.25 4.56.44 1.24.15 1.24.15 2.51.31.63.08 1.27.16 1.93.25l1 3h2v2h3v3l4 1c-2.67 1.33-4.17.67-7 0v-2h-3v-3l-4 2c-.25-.62-.5-1.24-.75-1.88-1.46-2.47-2.63-3.07-5.25-4.12z"/><path fill="#6c5545" d="M371 776h1l1 10h1v12h-2l-1 5h-1c-.11-9.07.06-17.96 1-27"/><path fill="#96ad80" d="M443 552v2h-3l-1 5c-.64.11-1.28.22-1.93.33-.83.16-1.66.32-2.51.48-.82.15-1.64.3-2.49.46-.69.24-1.37.48-2.07.73l-1 3c-2.81 1.06-2.81 1.06-6 2-1.35.64-2.69 1.29-4 2 3.44-5.14 7.91-7.73 13.12-10.81.83-.5 1.65-1.01 2.5-1.52 6.1-3.67 6.1-3.67 8.38-3.67"/><path fill="#6b9544" d="m466 609 2 1c-3.35 4.04-7.07 5.59-12 7h-2v2c-.97.12-1.94.25-2.94.38-1.01.2-2.02.41-3.06.62l-1 2c-2 0-2 0-5-1h2v-2c1.98-.73 3.98-1.39 6-2l2 1v-2c1.63-1.38 3.29-2.72 5-4l1 2c.55-.37 1.11-.75 1.68-1.13.72-.47 1.45-.95 2.2-1.43.71-.48 1.43-.95 2.17-1.44.97-.5.97-.5 1.95-1"/><path fill="#5f853c" d="M469.438 545.438c3.86.3 7.68.56 11.56.56l1 4c-4.45.5-4.45.5-9 1v-2l-2.3-.15c-.99-.07-1.99-.15-3.01-.22-.99-.07-1.97-.14-2.99-.21-2.7-.42-2.7-.42-5.7-2.42 3.63-1.21 6.7-.87 10.44-.56"/><path fill="#839a71" d="M286.813 644.875c1.92.01 1.92.01 3.87.03 3.11.02 6.21.05 9.32.09v1c-6.27.34-12.54.66-19 1v1h-22v-1c9.34-1.74 18.32-2.25 27.81-2.12"/><path fill="#886d5b" d="m416 817 2 1c.68 19.51.68 19.51-5 27-2-2-2-2-2.38-4.38.38-2.62.38-2.62 2.38-4.31 3.16-3.65 2.32-7.67 2-12.31h1z"/><path fill="#748c6a" d="M470.813 715.875c1.04.01 1.04.01 2.1.03 1.7.02 3.39.06 5.09.09-2.85 1.55-5.42 2.44-8.59 3.08-1.3.26-1.3.26-2.63.52-.9.18-1.79.35-2.72.53-.89.18-1.79.36-2.71.55-4.2.83-8.05 1.42-12.35 1.32.33-.65.66-1.32 1-2h8v-2c4.28-2.11 8.14-2.24 12.81-2.12"/><path fill="#566a31" d="M394 656c-1.21 4.43-2.52 6.98-6 10v-2h-4l-1 2c.52-2.76 1.11-5.33 2-8 3.01-2.04 5.42-2.2 9-2"/><path fill="#65913a" d="M350 566c3 1 3 1 4 3 .08 1.45.11 2.9.1 4.35-.01.85-.01 1.7-.01 2.58l-.03 2.69c0 .9-.01 1.8-.01 2.72-.01 2.22-.03 4.44-.05 6.66h-1v-14c-.99.5-.99.5-2 1-.41 2.32-.74 4.66-1 7h-1q-.045-3.72-.06-7.44c-.02-1.06-.02-1.06-.03-2.14-.01-1.81.04-3.61.09-5.42z"/><path fill="#8ca174" d="M595 592c4.42 6.62 4.27 13.81 4.12 21.5 0 .92-.01 1.84-.02 2.78-.03 2.24-.06 4.48-.1 6.72h-1c-.06-1.11-.12-2.22-.18-3.36-.09-1.46-.17-2.93-.26-4.39l-.12-2.21c-.2-3.47-.53-6.69-1.44-10.04h-2c-.12-7.62-.12-7.62 1-11"/><path fill="#496f34" d="M310 648h5v2h7v2h-23l1-2h10z"/><path fill="#6c9844" d="M279 713c-.93.43-1.86.87-2.81 1.31-3.64 1.93-5.47 3.82-8.07 6.94-2.12 1.75-2.12 1.75-4.87 1.5q-1.11-.375-2.25-.75v-3c-.31-1.34-.63-2.68-1-4l4-2-2 5 3 1c.65-.71.65-.71 1.31-1.44C268 716 268 716 271 715l2-2c3-1 3-1 6 0"/><path fill="#70994a" d="M273 655h26l-5 5h-2c-.99.5-.99.5-2 1v-3h-2v-2h-15z"/><path fill="#547546" d="m352 646 7 1c.25 1.6.47 3.21.69 4.81.13.9.25 1.79.38 2.71C360 657 360 657 357 660z"/><path fill="#789261" d="M380 585h1c.11 6.77-.12 13.29-1 20h-1v-8c-2.48 1.49-2.48 1.49-5 3 .72-3.49 2.06-6.52 3.56-9.75.46-.98.91-1.97 1.38-2.98z"/><path fill="#737234" d="M404 670c1.12 3.75 1.12 3.75 0 6-1.67.22-1.67.22-3.38.44-3.68.57-4.38.84-6.62 3.56h-2v-4l-3-1c2.86-1.43 4.93-.6 8 0v-2z"/><path fill="#456b36" d="M342 657v3c-4.45 1.42-8.27 2.54-13 2-1.88-1.5-1.88-1.5-3-3 3.1-3.1 11.78-2.09 16-2"/><path fill="#748e63" d="M306 634h8v1l12 1v2l2 2c-7.98-.31-14.63-1.94-22-5z"/><path fill="#5c3c28" d="M366 817h2v23l-2 1c-.2-3.44-.38-6.87-.56-10.31-.06-.98-.11-1.96-.17-2.96l-.15-2.84c-.05-.87-.09-1.73-.14-2.62C365 820 365 820 366 817"/><path fill="#66963c" d="m300 602 1 3 2.35-.02c3.51-.02 7.02-.03 10.53-.04 1.83-.02 1.83-.02 3.7-.03 1.75 0 1.75 0 3.54-.01 1.62-.01 1.62-.01 3.27-.01C327 605 327 605 329 606v2l-7 2v-4c-1.55.28-1.55.28-3.12.56-6.3.82-12.59.01-18.88-.56l-1-3z"/><path fill="#517836" d="m208 791 8 4-1 5-1-4h-4c-.99 1.49-.99 1.49-2 3-2.12.69-2.12.69-4 1l-2-3c.8-.12 1.61-.25 2.44-.38.84-.2 1.69-.41 2.56-.62l1-2-2-1z"/><path fill="#527540" d="M371 624h3l2 10c-1.42-.09-1.42-.09-2.88-.19-1.54.1-1.54.1-3.12.19l-2 3-1-5 4-2z"/><path fill="#648d38" d="M269 556h3c1.51 5.04.65 9.88 0 15l-3 1c-1.3-5.5-.71-10.47 0-16"/><path fill="#637336" d="m396.285 655.902 2.78.04c.92 0 1.84.01 2.78.02.71.01 1.42.03 2.15.04v2h2c1.36 4.05.63 6.79 0 11h-1v-9h-12c0-3.96 0-3.96 3.29-4.1"/><path fill="#537b38" d="M183 766c4.39 1.46 4.88 3.98 7 8l-7 2v-3l-4 1z"/><path fill="#8ba562" d="M287 517.813c4.86.04 9.32.95 14 2.19-3.68 2.45-5.16 2.12-9.5 1.75-1.14-.09-2.29-.18-3.47-.27-3.03-.48-3.03-.48-6.03-2.48 1.52-1.53 2.88-1.17 5-1.19"/><path fill="#8ca572" d="M269 606c.76.31 1.53.62 2.31.94 1.88.74 3.78 1.42 5.69 2.06l-1 5h4l2 6c-3.83-1.55-6.03-3.94-8.75-7-.8-.89-1.6-1.77-2.42-2.69C269 608 269 608 269 606"/><path fill="#6b904b" d="M269 590h1c.05 2.29.09 4.58.12 6.88.03 1.27.05 2.55.08 3.86C270 604 270 604 268 606c-2.33-3.63-2.16-6.77-2-11h2z"/><path fill="#729e46" d="M193 769c2.04 1.27 4.04 2.61 6 4v2h4v2l3-1 1 5c.62.12 1.24.25 1.88.38C211 782 211 782 213 784h-7c-.21-.76-.41-1.53-.62-2.31-1.8-3.51-3.81-4.22-7.38-5.69v-2c-.64-.27-1.28-.54-1.94-.81C194 772 194 772 193 769"/><path fill="#497138" d="M403 701c2.23 2.23 2.69 3.66 3.62 6.62.27.82.53 1.64.79 2.48.29.94.29.94.59 1.9h-4v-2l-5 2c.78-3.92 2.39-7.36 4-11"/><path fill="#689144" d="m537 668 2 1c-1.31 1.5-1.31 1.5-3 3h-3v2c-1.6.53-3.21 1.05-4.81 1.56-.9.29-1.79.58-2.71.88C523 677 523 677 520 676h2v-2c.78-.27 1.57-.54 2.38-.81 2.9-1.04 2.9-1.04 4.62-4.19v3c.55-.3 1.11-.6 1.68-.91.72-.38 1.45-.76 2.2-1.15.71-.39 1.43-.77 2.17-1.16.65-.26 1.29-.52 1.95-.78"/><path fill="#4e7838" d="m416 655 2 3-4 2 1 8h2l-1 3-3 1c-2.64-10.02-2.64-10.02-1-14 2.06-1.81 2.06-1.81 4-3"/><path fill="#515230" d="M404 722h15l-2 4v-2h-12v4h-2l-1 2c.88-5.75.88-5.75 2-8"/><path fill="#5c863f" d="M529 676c-4.3 3.15-7.82 4.76-13 6l-1-2c1.58-.87 3.16-1.72 4.75-2.56.88-.48 1.76-.95 2.67-1.44 2.79-1.08 3.85-1.07 6.58 0m-20 5h6l-2 2c-2.12-.38-2.12-.38-4-1z"/><path fill="#6b8d40" d="M263 529h1l1 19h3c-.75 4.75-.75 4.75-3 7-1.99-5.77-2.25-10.86-2.12-16.94 0-.87.01-1.75.02-2.65.03-2.14.06-4.27.1-6.41"/><path fill="#829979" d="m526 696 5 1c-3.01 2.43-6.04 4.09-9.56 5.69-.95.43-1.9.87-2.88 1.32-2.56.99-2.56.99-5.56.99v-3h6v-2l7-3z"/><path fill="#6a875d" d="m341 789 3 1v2l4 1-9 5-1-6h3z"/><path fill="#8aa374" d="M259 648v2c-.78.12-1.56.24-2.37.37-1.52.25-1.52.25-3.07.51-1.01.16-2.02.32-3.06.49-.82.21-1.65.41-2.5.63l-1 2c-2.31 1.31-2.31 1.31-5 2-2.17-1.46-2.17-1.46-4-3 2.56-.84 5.12-1.67 7.69-2.5 1.08-.36 1.08-.36 2.18-.72 3.82-1.22 7.06-2.1 11.13-1.78"/><path fill="#4d7335" d="M228 802v2l4 2c-1.24.14-2.47.29-3.75.44-2.82.35-5.52.76-8.25 1.56l-1-4c3.37-1.5 5.2-2 9-2"/><path fill="#91734b" d="m399 779 3 1c-.47.59-.94 1.18-1.43 1.79-3.92 4.98-3.92 4.98-7.38 10.27-.39.64-.79 1.28-1.19 1.94h-2l1-5h2c.25-.72.5-1.44.75-2.19 1.36-3.06 3.08-5.28 5.25-7.81"/><path fill="#638740" d="M538 544v2h6c-2 2-2 2-5.26 2.2-1.27-.03-2.55-.05-3.86-.08-1.93-.02-1.93-.02-3.89-.05-1.48-.03-1.48-.03-2.99-.07v-2c6.62-2 6.62-2 10-2"/><path fill="#906f4c" d="M408 785h1c.06 3.6.09 7.21.12 10.81l.06 3.11c0 .98.01 1.96.02 2.97l.03 2.75C409 807 409 807 407 810l1-16h-2z"/><path fill="#6d8e57" d="M171 744h2c-.01.92-.02 1.83-.04 2.77 0 1.19-.01 2.38-.02 3.61-.01 1.18-.03 2.36-.04 3.58-.11 2.96-.11 2.96 1.1 5.04-.99 1.49-.99 1.49-2 3-2.82-5.96-1.76-11.67-1-18"/><path fill="#668f43" d="M499 684v2c-13.63 3.44-13.63 3.44-20 3l1-2c2.64-.64 5.21-1.17 7.88-1.62.73-.14 1.46-.27 2.22-.41 3-.54 5.84-.97 8.9-.97"/><path fill="#95ad7f" d="m215 665 2 1c-.99 1.49-.99 1.49-2 3h-2v2c-1.7 2.23-2.77 2.94-5.5 3.69-2.5.31-2.5.31-5.5.31 1.6-1.29 3.21-2.58 4.81-3.88.9-.71 1.79-1.43 2.71-2.17C212 667 212 667 215 665"/><path fill="#537d31" d="M271 588h1v18h-3c.14-2.81.29-5.63.44-8.44l.12-2.43c.33-6.02.33-6.02 1.44-7.13"/><path fill="#91ac74" d="M269 572c3.37 1.12 5.49 2.49 8 5 .12 3.12.12 3.12 0 6h-2c-1.51-1.9-1.51-1.9-3.12-4.38l-1.64-2.46C269 574 269 574 269 572"/></svg>