<svg xmlns="http://www.w3.org/2000/svg" viewBox="0 0 768 1024"><path fill="#557b39" d="M457 168c2.67 2.24 2.97 3.53 3.22 7-.28 5.03-1.42 9.59-2.7 14.45-.53 2.07-1.06 4.15-1.58 6.22-.42 1.61-.42 1.61-.84 3.26-6.43 25.16-10.84 49.53-12.6 75.46-.58 8.27-1.55 16.49-2.54 24.72-.62 5.33-1.13 10.51-.96 15.89 3.26-3.26 5.44-6.78 7.81-10.69 4.81-7.79 9.64-14.83 16.19-21.31.73-.77 1.46-1.53 2.22-2.32 10.58-10.97 22.55-19.2 35.78-26.68 1.22-.69 2.43-1.38 3.69-2.09 6.66-3.67 13.41-6.94 20.43-9.85.72-.29 1.43-.59 2.16-.89 5.33-2.15 10.05-3.31 15.78-3.42.84-.03 1.68-.05 2.54-.08 2.98.41 4.29 1.2 6.4 3.33 1.85 9.96-3.09 15.45-9 23-1.01 1.32-2.03 2.65-3.04 3.98-1.62 2.12-3.24 4.24-4.87 6.36-9.32 12.12-18.52 24.36-26.09 37.66-.38.66-.76 1.33-1.16 2.01-12.39 21.78-19.45 45.51-26.79 69.33-2.85 9.18-5.84 18.1-9.79 26.87-1.14 2.53-2.16 5.07-3.14 7.67-4.66 11.73-10.66 23.9-18.12 34.12h-2l-1 4c-1.38 2.23-1.38 2.23-3.12 4.62-.64.9-1.28 1.79-1.93 2.71-1.18 1.62-2.37 3.22-3.58 4.81-4.41 5.93-7.87 12.28-11.31 18.8-.49.93-.99 1.87-1.5 2.84-.46.88-.93 1.77-1.4 2.68-.42.81-.83 1.61-1.26 2.43-1.1 2.19-1.1 2.19-.9 5.11.4-.67.8-1.33 1.21-2.02 5.98-9.69 12.83-18.36 21.03-26.28 1.43-1.38 2.8-2.85 4.14-4.32 9.92-8.99 22.1-11.32 34.83-14.08 6.81-1.58 11.93-4.67 17.8-8.42 8.17-5.13 16.43-6.44 25.89-4.19 15.29 5.12 26.76 16.8 35.1 30.31 1.03 1.64 1.03 1.64 2.07 3.3 9.09 15.26 21.6 37.46 18.93 55.7-2 3.25-2 3.25-5 5-8.73-.14-14.48-3.81-21.44-8.56-1.62-1.09-3.24-2.19-4.86-3.28-.8-.53-1.59-1.07-2.42-1.63C534.05 511.31 518.5 502.02 502 494c-1.03-.55-1.03-.55-2.07-1.12-5.21-2.91-5.21-2.91-10.93-2.88-12.41 10.63-20.56 29.32-27 44-.85 1.81-1.71 3.63-2.56 5.44-2.01 4.41-3.71 8.89-5.38 13.44-2.67 7.23-5.74 14.16-9.06 21.12-.69 1.48-1.37 2.96-2.05 4.45-.71 1.53-1.43 3.07-2.14 4.61-.33.73-.66 1.46-1.01 2.21-1.65 3.54-3.37 6.67-5.8 9.73-.9 1.84-1.81 3.69-2.7 5.54-1.62 3.06-3.49 5.92-5.36 8.84-7.19 11.68-7.83 23.2-8.94 36.62.24-.73.49-1.45.74-2.2 1.41-3.14 3.08-5.06 5.45-7.55 3.04-3.27 5.88-6.56 8.56-10.13 2.46-3.24 4.95-5.69 8.25-8.12l1-2 3-1c.68-.72 1.36-1.44 2.06-2.19 15.27-14.62 42.04-22.35 62.84-22.38 3.75.69 5.46 1.85 8.1 4.57.78 3.88.94 6.5-1.23 9.95-1.82 2.13-3.75 4.09-5.77 6.05l-2.52 2.52c-1.72 1.72-3.44 3.43-5.18 5.14a77 77 0 0 0-5.3 5.96c-2 2.38-2 2.38-4 2.38l-2 4c-.96 1.21-1.94 2.39-2.94 3.56-3.64 4.59-6.49 9.48-9.37 14.56-8.61 15.14-18.11 28.96-30.13 41.63-17.88 19.36-27.61 42.95-27.12 69.31 0 .8.01 1.6.02 2.43.08 11.05.99 21.69 3.09 32.56 4.01 20.74 4.01 20.74.12 28.66-1.75 2.12-3.46 3.66-5.67 5.29-.62.51-1.24 1.02-1.88 1.54-8.31 6.44-20.08 5.36-30.12 4.46-7.91-1.97-14.35-7.7-18-15-.7-7.77.24-15.33 1.38-23 2.88-19.62 4.15-39.55 3.67-59.38-.05-2.84-.04-5.68-.03-8.53-.09-12.17-1.55-20.52-8.02-31.09a514 514 0 0 1-3.69-7.44c-1.43-2.86-2.87-5.71-4.31-8.56-.44-.87-.88-1.75-1.33-2.65-9.63-19.06-20.07-36.84-33.67-53.35-.71-.9-1.42-1.79-2.15-2.71-2.94-3.64-5.96-6.7-9.85-9.29-5.94.06-10 3.3-14.69 6.56-.79.55-1.59 1.09-2.41 1.65-6.05 4.14-12.03 8.39-17.9 12.79-.58.43-1.16.87-1.75 1.31-2.84 2.13-5.68 4.26-8.51 6.4-2.37 1.79-4.74 3.57-7.12 5.35-.78.6-1.57 1.2-2.38 1.82-15.76 11.75-15.76 11.75-25.24 10.12-3.04-2.13-3.82-3.83-4.38-7.48-.37-8.6 1.82-16.38 4.38-24.52.35-1.14.7-2.29 1.06-3.47 6.84-20.69 20.13-45.42 40.75-54.73 8.53-3.13 16.97-2.4 25.19 1.2 1.58 1.12 3.14 2.27 4.69 3.44 6.44 4.4 13.41 5.17 20.99 6.23 9.17 1.29 15.93 3.64 23.32 9.33-1.45-3.2-2.69-5.69-5.19-8.19C340 580 340 580 340 577h-2a221 221 0 0 1-3.57-6.38c-1.39-2.55-2.88-4.98-4.45-7.42-12.55-19.64-21.3-40.34-30.07-61.88-9.33-22.88-21.1-43.84-38.91-61.32-2.71-2.68-5.42-5.37-8.12-8.06-.72-.71-1.44-1.42-2.17-2.15-.69-.68-1.38-1.37-2.09-2.08-.63-.61-1.25-1.23-1.89-1.87-4.39-4.68-5.35-7.21-4.73-13.84 1.74-3.24 2.47-3.82 6-5 7.35-.5 14.1 1.07 21.25 2.69 1.15.24 2.3.49 3.49.74 7.83 1.74 14.97 4.23 22.26 7.57.73.33 1.47.66 2.23 1 14.16 6.54 26.04 14.59 36.77 26 1.66 1.67 3.33 3.34 5 5 5.11 5.23 7.99 10.68 11.15 17.26 1.8 3.65 3.75 7.16 5.79 10.68 7.35 12.72 13.92 25.72 20.06 39.06v-3l.03-2.36c-.49-15.5-9.8-29.21-17.16-42.41-2.42-4.34-4.64-8.75-6.79-13.22-1.03-2.16-1.03-2.16-3.08-4.01-1-2.64-1.92-5.26-2.81-7.94-2.03-5.91-4.23-11.6-6.91-17.26-1.55-3.39-2.91-6.83-4.28-10.3-5.85-14.7-12.36-29.64-22.69-41.8C311 373 311 373 310 370c-7.42-2.16-12.23.35-18.88 3.75-1 .5-2.01 1-3.05 1.52-13.35 6.72-25.73 14.79-38.13 23.09-.94.63-.94.63-1.89 1.27-1.48.99-2.95 1.98-4.42 2.97-2.51 1.7-5.04 3.36-7.57 5.02-.78.54-1.56 1.07-2.36 1.62-5.08 3.3-8.48 4.44-14.7 3.76-3.86-1.29-4.36-2.32-6-6-1.8-17.73 11.04-39.15 19.5-54 .52-.91 1.03-1.82 1.56-2.75 1.25-2.12 2.59-4.19 3.94-6.25h2l2-4c7.5-10.14 18.78-19.98 31.74-21.27 11.07-.36 20.45 2.41 29.51 8.83 5.99 4.09 12.39 5.18 19.36 6.55 9.1 1.85 16.76 4.61 24.39 9.89 0-3.2-.8-5.6-1.83-8.59-3.02-8.88-5.26-17.8-7.17-26.97l-.75-3.6-1.5-7.26c-4.97-23.86-11.4-45.97-21.42-68.21-7.41-16.73-7.41-16.73-5.33-23.37 3.39-3.39 4.87-3.59 9.54-3.4 7.98 1.3 13.73 7.16 19.39 12.51 1.93 1.93 1.93 1.93 4.07 2.89v2h2v2l4 2c12.43 11.14 21.76 25.64 30 40 .52.85 1.03 1.69 1.57 2.56 3.31 5.54 4.99 11.16 6.43 17.44h2c.19-1.29.19-1.29.38-2.6 6.98-38.13 28.79-79.73 54.62-108.4 1.05-1.37 1.05-1.37 2.12-2.78 3.49-4.12 6.95-3.36 11.88-2.22"/><path fill="#74993c" d="M457 168c2.67 2.24 2.97 3.53 3.22 7-.28 5.03-1.42 9.59-2.7 14.45-.53 2.07-1.06 4.15-1.58 6.22-.42 1.61-.42 1.61-.84 3.26-6.43 25.16-10.84 49.53-12.6 75.46-.58 8.27-1.55 16.49-2.54 24.72-.62 5.33-1.13 10.51-.96 15.89 3.26-3.26 5.44-6.78 7.81-10.69 4.81-7.79 9.64-14.83 16.19-21.31.73-.77 1.46-1.53 2.22-2.32 10.58-10.97 22.55-19.2 35.78-26.68 1.22-.69 2.43-1.38 3.69-2.09 6.66-3.67 13.41-6.94 20.43-9.85.72-.29 1.43-.59 2.16-.89 5.33-2.15 10.05-3.31 15.78-3.42.84-.03 1.68-.05 2.54-.08 2.98.41 4.29 1.2 6.4 3.33 1.85 9.96-3.09 15.45-9 23-1.01 1.32-2.03 2.65-3.04 3.98-1.62 2.12-3.24 4.24-4.87 6.36-12.9 16.77-24.32 33.87-34.09 52.66-2-4-2-4-1-7h3v-4l3-3v-2l-6-1c-.28.73-.56 1.46-.86 2.22-1.03 2.52-2.17 4.88-3.45 7.28-.44.83-.87 1.65-1.32 2.5-.45.84-.91 1.69-1.37 2.56-.9 1.69-1.79 3.38-2.69 5.07q-.585 1.11-1.2 2.25c-1.06 2.03-2.09 4.07-3.11 6.12l-3 3c-.88 1.86-1.69 3.77-2.44 5.69-1.41 3.53-2.83 6.96-4.62 10.31-4.26 8.65-4.26 8.65-5.94 18l5-4c-.46 2.01-.46 2.01-.94 4.06-.64 2.82-1.11 5.43-1.37 8.32-.81 4.24-2.42 7.63-4.34 11.48-1.12 2.61-1.91 5.02-2.67 7.75-1.77 6.08-4.42 11.64-7.18 17.33-.49 1.02-.97 2.05-1.47 3.11-3.64 7.56-3.64 7.56-7.03 10.95-1.02 1.32-2.02 2.65-3 4v-2l-3-1c.43-.64.87-1.28 1.31-1.94 1.47-2.66 2.35-4.94 3.25-7.81C450 421 450 421 452 420c2.77-5.04 4.58-10.45 6-16-2.65 2.65-3.54 5.55-4.9 9-1.1 2-1.1 2-4.1 3l-1 4h-2l-1 4h-2v2h-2l-2 4c-2.44-.37-2.44-.37-5-1-1.46-2.91-.65-5.4-.24-8.52.33-2.76.33-2.76.05-6.67-.08-5.33 1.62-10.04 3.17-15.1 1.34-4.87 1.97-9.73 2.53-14.75C440 381 440 381 442 377c.51-3.8.51-3.8-1-7-.1-2.33-.13-4.67-.12-7-.01-1.28-.01-2.56-.01-3.88C441 356 441 356 442 355c.09-1.56.11-3.13.1-4.69-.01-.95-.01-1.89-.01-2.86l-.03-3.01c0-1.5 0-1.5-.01-3.02-.01-2.48-.03-4.95-.05-7.42l-2.88 2c-3.12 2-3.12 2-5.12 2-.25-6.42-.25-6.42 1-9.31 1.54-4.15 1.15-8.31 1-12.69l-3-1-1-2c-.65 3.37-1.29 6.75-1.94 10.12-.18.96-.36 1.91-.55 2.89-.89 4.65-1.74 9.31-2.51 13.99-.64 3.56-1.29 7.13-1.94 10.69-.17.93-.34 1.86-.51 2.82-.34 1.88-.69 3.76-1.03 5.64-.35 1.93-.69 3.86-1.02 5.8-.85 4.86-1.82 9.4-3.5 14.05-1 3.56-1.93 7.13-2.86 10.71q-1.155 4.32-2.37 8.61c-2.94 10.44-4.92 20.84-6.43 31.58-.14 1.02-.29 2.05-.45 3.1-.18 1.38-.18 1.38-.38 2.78C406 438 406 438 404 440c-1.96-1.96-1.05-5.39-1-8l-3-1c-.27-.95-.54-1.9-.81-2.88-1.99-6.9-5.65-12.99-9.81-18.81-6.85-10.92-7.11-25.02-7.33-37.53-.03-1.9-.08-3.81-.14-5.71-.46-14.16.55-27.47 3.12-41.41 1.01-5.53 1.56-11.05 1.97-16.66-3.07 2.75-3.07 2.75-4.44 5.94-1.54 3.02-2.97 4.89-5.56 7.06h-2c-2.1-4.88-3.64-9.94-5.27-14.99-.41-1.28-.83-2.57-1.26-3.89-.85-2.65-1.7-5.31-2.53-7.97-3.6-11.27-3.6-11.27-9.94-21.15-3.94-.3-5.23.23-8 3-.58 8.39-1.17 29.83 5 36q.465 2.205.84 4.44c1.05 5.41 2.68 10.42 4.66 15.56.34.9.69 1.8 1.04 2.73 2.78 7.06 6.15 13.64 10.05 20.15 3.96 6.68 6.9 13.27 6.6 21.18l-.08 2.85c-.04.69-.07 1.38-.11 2.09h-2c-2.22-2.81-3.97-5.94-5.81-9-.55-.9-1.09-1.8-1.65-2.73-4-6.86-6.64-13.38-8.67-21.08-.82-3.42-.82-3.42-2.87-7.19l-2 4h-2l1 5h-5v-2l-4 1c-.25 2.18-.25 2.18 1.79 3.52l2.4 1.73c3.91 2.94 6.86 5.85 9.81 9.75l-4 3c-10-8.49-10-8.49-10-11-12.04-1.91-23.25-2.13-34.88 1.62-.75.24-1.5.48-2.28.72-5.07 1.8-7.32 3.95-9.84 8.66l1 1 1-2c2.4-.3 2.4-.3 5.38-.31.97-.02 1.95-.04 2.96-.05C309 366 309 366 312 369v3h3v3l3 1-2 3c-1.01-1.12-2-2.25-3-3.38-.56-.62-1.11-1.25-1.69-1.89C310 372 310 372 310 370c-7.59-1.82-12.08.28-18.88 3.75-1 .5-2.01 1-3.05 1.52-13.35 6.72-25.73 14.79-38.13 23.09-.94.63-.94.63-1.89 1.27-1.48.99-2.95 1.98-4.42 2.97-2.51 1.7-5.04 3.36-7.57 5.02-.78.54-1.56 1.07-2.36 1.62-5.08 3.3-8.48 4.44-14.7 3.76-3.86-1.29-4.36-2.32-6-6-1.8-17.73 11.04-39.15 19.5-54 .52-.91 1.03-1.82 1.56-2.75 1.25-2.12 2.59-4.19 3.94-6.25h2l2-4c7.5-10.14 18.78-19.98 31.74-21.27 11.07-.36 20.45 2.41 29.51 8.83 5.99 4.09 12.39 5.18 19.36 6.55 9.1 1.85 16.76 4.61 24.39 9.89 0-3.2-.8-5.6-1.83-8.59-3.02-8.88-5.26-17.8-7.17-26.97l-.75-3.6-1.5-7.26c-4.97-23.86-11.4-45.97-21.42-68.21-7.41-16.73-7.41-16.73-5.33-23.37 3.39-3.39 4.87-3.59 9.54-3.4 7.98 1.3 13.73 7.16 19.39 12.51 1.93 1.93 1.93 1.93 4.07 2.89v2h2v2l4 2c12.43 11.14 21.76 25.64 30 40 .52.85 1.03 1.69 1.57 2.56 3.31 5.54 4.99 11.16 6.43 17.44h2c.19-1.29.19-1.29.38-2.6 6.98-38.13 28.79-79.73 54.62-108.4 1.05-1.37 1.05-1.37 2.12-2.78 3.49-4.12 6.95-3.36 11.88-2.22"/><path fill="#497136" d="M489 479a552 552 0 0 1 11 4v1h-11c.08.89.16 1.78.24 2.7-.3 4.06-1.31 5.11-4.05 8.05C475.15 506.39 468.14 520 462 534c-.85 1.81-1.71 3.63-2.56 5.44-2.01 4.41-3.71 8.89-5.38 13.44-2.67 7.23-5.74 14.16-9.06 21.12-.69 1.48-1.37 2.96-2.05 4.45-.71 1.53-1.43 3.07-2.14 4.61-.33.73-.66 1.46-1.01 2.21-1.65 3.54-3.37 6.67-5.8 9.73-.9 1.84-1.81 3.69-2.7 5.54-1.62 3.06-3.49 5.92-5.36 8.84-7.19 11.68-7.83 23.2-8.94 36.62.24-.73.49-1.45.74-2.2 1.41-3.14 3.08-5.06 5.45-7.55 3.04-3.27 5.88-6.56 8.56-10.13 2.46-3.24 4.95-5.69 8.25-8.12l1-2 3-1c.68-.72 1.36-1.44 2.06-2.19 15.27-14.62 42.04-22.35 62.84-22.38 3.75.69 5.46 1.85 8.1 4.57.78 3.88.94 6.5-1.23 9.95-1.82 2.13-3.75 4.09-5.77 6.05l-2.52 2.52c-1.72 1.72-3.44 3.43-5.18 5.14a77 77 0 0 0-5.3 5.96c-2 2.38-2 2.38-4 2.38l-2 4c-.96 1.21-1.94 2.39-2.94 3.56-3.64 4.59-6.49 9.48-9.37 14.56-8.61 15.14-18.11 28.96-30.13 41.63-17.88 19.36-27.61 42.95-27.12 69.31 0 .8.01 1.6.02 2.43.08 11.05.99 21.69 3.09 32.56 4.01 20.74 4.01 20.74.12 28.66-1.75 2.12-3.46 3.66-5.67 5.29-.62.51-1.24 1.02-1.88 1.54-8.31 6.44-20.08 5.36-30.12 4.46-7.91-1.97-14.35-7.7-18-15-.7-7.77.24-15.33 1.38-23 2.88-19.62 4.15-39.55 3.67-59.38-.05-2.84-.04-5.68-.03-8.53-.09-12.17-1.55-20.52-8.02-31.09a514 514 0 0 1-3.69-7.44c-1.43-2.86-2.87-5.71-4.31-8.56-.44-.87-.88-1.75-1.33-2.65-9.63-19.06-20.07-36.84-33.67-53.35-1.06-1.35-1.06-1.35-2.14-2.72-1.9-2.42-1.9-2.42-4.55-4.9C314 616 314 616 313 613c-2.33-1.03-2.33-1.03-5.06-1.69-.92-.25-1.84-.5-2.79-.76-.71-.18-1.42-.36-2.15-.55l-2 6h-4v2c-4.35 4-4.35 4-8 4l-2-4c8.25-8.76 18.89-13.78 30-18 .84-.36 1.69-.73 2.56-1.1 7.81-2.88 14.48-.66 21.51 3.24 13.83 8.78 22.46 23.17 30.93 36.86 1.08 1.55 1.08 1.55 2.19 3.12 1.83 2.91 2.87 5.59 3.81 8.88h2c1.53 2.48 2.94 4.94 4.31 7.5.81 1.48 1.62 2.96 2.43 4.43l1.18 2.15c1.26 2.23 2.64 4.36 4.08 6.48 2.11 3.63 2.66 6.29 3 10.44l1 1c-.75-5.78-2.78-10.63-5.04-15.98C390 664 390 664 391 660c2.56-.75 2.56-.75 5-1l3 7c.21-4.73.33-9.46.44-14.19.06-1.32.11-2.64.18-4 .17-10.33-2.1-19.29-9.62-26.81-.4-2.32-.74-4.66-1-7h2c.14-1.4.29-2.81.44-4.25.31-3.06.81-5.73 1.56-8.75.15-1.96.27-3.92.38-5.88.72-10.1 2.75-19.74 6.62-29.12.29-.86.58-1.71.88-2.6 3.3-9.43 8.08-17.91 12.93-26.61 2.61-4.69 5.07-9.43 7.5-14.21 4.52-8.87 9.29-16.9 15.69-24.58.86-1.1 1.73-2.2 2.62-3.33C454.11 476.68 467.1 471.18 489 479"/><path fill="#80a040" d="M318.543 202.598c7.97 1.31 13.73 7.16 19.39 12.51 1.92 1.94 1.92 1.94 4.07 2.89v2h2v2l4 2c12.43 11.15 21.76 25.64 30 40 .51.85 1.03 1.69 1.56 2.56 3.32 5.55 4.99 11.17 6.44 17.44h2l-1 4-5-2 1 8h-1c.04.71.09 1.41.14 2.14.3 8.34-.85 16.13-4.14 23.86l-3 1c-1.94-4.95-3.65-9.93-5.27-14.99-.42-1.28-.83-2.57-1.26-3.89-.85-2.65-1.7-5.31-2.54-7.97-3.59-11.27-3.59-11.27-9.93-21.15-3.94-.3-5.23.23-8 3-.58 8.39-1.17 29.83 5 36 .31 1.47.58 2.96.84 4.44 1.05 5.42 2.68 10.42 4.66 15.56.34.9.68 1.81 1.04 2.73 2.78 7.06 6.14 13.64 10.04 20.15 3.97 6.68 6.9 13.27 6.6 21.18l-.08 2.85c-.03.69-.07 1.38-.1 2.09h-2c-2.22-2.8-3.98-5.94-5.82-9-.54-.9-1.08-1.8-1.64-2.73-4.01-6.86-6.64-13.38-8.68-21.08-.81-3.41-.81-3.41-2.86-7.19l-2 4h-2l1 5h-5v-2l-4 1c-.26 2.18-.26 2.18 1.79 3.52.79.57 1.58 1.14 2.39 1.73 3.92 2.95 6.87 5.86 9.82 9.75l-4 3c-10-8.49-10-8.49-10-11-12.04-1.91-23.25-2.13-34.88 1.63-.75.23-1.51.47-2.28.71-5.07 1.81-7.32 3.95-9.84 8.66l1 1 1-2c2.4-.3 2.4-.3 5.37-.31.98-.02 1.96-.03 2.96-.05 2.67.36 2.67.36 5.67 3.36v3h3v3l3 1-2 3c-1.01-1.12-2.01-2.24-3-3.37l-1.69-1.9c-1.31-1.73-1.31-1.73-1.31-3.73-7.59-1.82-12.08.28-18.88 3.75-1.01.5-2.02 1-3.05 1.52-13.35 6.73-25.73 14.8-38.14 23.1l-1.89 1.26c-1.47.99-2.94 1.98-4.41 2.98-2.51 1.69-5.04 3.35-7.57 5.02l-2.37 1.61c-5.07 3.3-8.47 4.45-14.69 3.76-3.86-1.28-4.36-2.32-6-6-1.81-17.73 11.04-39.15 19.5-54 .51-.91 1.03-1.81 1.56-2.75 1.25-2.12 2.58-4.19 3.94-6.25h2l2-4c7.49-10.13 18.78-19.98 31.74-21.27 11.07-.36 20.45 2.41 29.51 8.83 5.99 4.09 12.39 5.19 19.36 6.55 9.1 1.85 16.75 4.61 24.39 9.89 0-3.19-.81-5.59-1.83-8.59-3.02-8.88-5.26-17.8-7.17-26.97-.25-1.19-.5-2.38-.75-3.6-.51-2.42-1.01-4.84-1.51-7.26-4.97-23.86-11.39-45.97-21.41-68.21-7.41-16.72-7.41-16.72-5.33-23.37 3.38-3.38 4.86-3.59 9.54-3.4"/><path fill="#85a545" d="m543.063 237.75 2.54-.08c2.98.41 4.28 1.2 6.4 3.33 1.85 9.96-3.09 15.45-9 23-1.02 1.32-2.03 2.65-3.04 3.98-1.62 2.12-3.24 4.24-4.87 6.36-12.9 16.77-24.32 33.87-34.09 52.66-2-4-2-4-1-7h3v-4l3-3v-2l-6-1c-.28.73-.57 1.46-.86 2.22-1.03 2.52-2.18 4.88-3.46 7.28-.43.83-.87 1.65-1.32 2.5-.45.84-.9 1.69-1.36 2.56-.9 1.69-1.79 3.38-2.69 5.07-.4.74-.79 1.49-1.2 2.25-1.06 2.03-2.09 4.07-3.11 6.12l-3 3c-.88 1.86-1.69 3.77-2.44 5.69-1.41 3.53-2.83 6.96-4.62 10.31-4.26 8.65-4.26 8.65-5.94 18 2.47-1.98 2.47-1.98 5-4l-.94 4.06c-.64 2.82-1.11 5.43-1.38 8.31-.8 4.25-2.41 7.64-4.33 11.49-1.13 2.61-1.91 5.02-2.67 7.75-1.77 6.08-4.42 11.64-7.18 17.33-.49 1.02-.97 2.05-1.48 3.11-3.64 7.56-3.64 7.56-7.02 10.95-1.02 1.32-2.02 2.65-3 4v-2l-3-1c.43-.64.86-1.28 1.31-1.94 1.46-2.66 2.35-4.94 3.25-7.81 1.44-4.25 1.44-4.25 3.44-5.25 2.76-5.04 4.58-10.45 6-16-2.65 2.65-3.54 5.55-4.9 9-1.1 2-1.1 2-4.1 3-.5 1.98-.5 1.98-1 4h-2c-.5 1.98-.5 1.98-1 4h-2v2h-2l-2 4c-2.44-.37-2.44-.37-5-1-1.46-2.91-.65-5.4-.24-8.52.32-2.76.32-2.76.05-6.67-.08-5.33 1.61-10.04 3.17-15.1 1.34-4.87 1.96-9.73 2.53-14.75.49-2.96.49-2.96 2.49-6.96.51-3.8.51-3.8-1-7-.1-2.33-.13-4.67-.13-7 0-1.28 0-2.56-.01-3.87.14-3.13.14-3.13 1.14-4.13.27-2.23.49-4.47.68-6.7.12-1.38.25-2.75.37-4.16q.39-4.365.75-8.73c.13-1.38.25-2.76.38-4.18.11-1.26.22-2.53.33-3.83.49-3.4.49-3.4 1.66-6.23l.83-2.17-2-2-1.82 2c-2.18 2-2.18 2-5.18 2-.5.99-.5.99-1 2q-.285-6.78-.54-13.56c-.06-1.54-.12-3.08-.19-4.62-.09-2.21-.17-4.42-.25-6.62-.05-1.33-.1-2.66-.16-4.04.14-3.16.14-3.16 2.14-5.16h2c.16 8.69-.45 17.33-1 26 3.26-3.26 5.44-6.78 7.81-10.69 4.8-7.79 9.64-14.83 16.19-21.31.73-.77 1.46-1.53 2.22-2.32 10.58-10.97 22.55-19.2 35.78-26.68 1.82-1.04 1.82-1.04 3.68-2.09 6.67-3.67 13.42-6.94 20.44-9.85.71-.29 1.42-.59 2.16-.89 5.33-2.15 10.04-3.31 15.78-3.42"/><path fill="#597d3d" d="M431 587c3.12.38 3.12.38 6 1-1.98 7.92-6.82 14.74-11.19 21.56-7.11 11.59-7.71 23.14-8.81 36.44.24-.73.49-1.45.74-2.2 1.41-3.14 3.08-5.06 5.45-7.55 3.04-3.27 5.88-6.56 8.56-10.13 2.46-3.24 4.95-5.69 8.25-8.12l1-2 3-1c.68-.72 1.36-1.44 2.06-2.19 15.27-14.62 42.04-22.35 62.84-22.38 3.75.69 5.46 1.85 8.1 4.57.78 3.88.94 6.5-1.23 9.95-1.82 2.13-3.75 4.09-5.77 6.05l-2.52 2.52c-1.72 1.72-3.44 3.43-5.18 5.14a77 77 0 0 0-5.3 5.96c-2 2.38-2 2.38-4 2.38l-2 4c-.96 1.21-1.94 2.39-2.94 3.56-3.64 4.59-6.49 9.48-9.37 14.56-8.61 15.14-18.11 28.96-30.13 41.63-18.03 19.52-27.6 43.15-27.06 69.63.02 1.63.03 3.26.04 4.89.14 9.95.82 19.62 2.8 29.39.57 2.9.8 5.4.66 8.34-3-3-3-3-5-6 .38-2.69.38-2.69 1-5h-2c-1.26-2.52-1.1-4.31-1.06-7.12.01-.92.02-1.83.02-2.76.02-.7.03-1.4.04-2.12h2c-.05-1.44-.09-2.88-.14-4.36-.17-5.33-.31-10.65-.45-15.98-.07-2.31-.13-4.62-.21-6.93-.11-3.31-.19-6.62-.27-9.94l-.12-3.13-.06-2.91c-.02-.85-.05-1.7-.07-2.57C419 732 419 732 422 729v-3l-5-1-1 8h-2l-1-4-3 3v-2l-5 3c1.57-5.97 4.75-10.83 8-16h-2v-9h-2c-1.04-4.15-.91-6.18 1-10 .08-1.74.11-3.48.1-5.23-.01-1.03-.01-2.06-.01-3.12l-.03-3.27c0-1.09-.01-2.18-.01-3.3-.01-2.69-.03-5.39-.05-8.08l-1 6h-1c-.05-1.58-.09-3.17-.12-4.75-.03-.88-.05-1.76-.08-2.67.2-2.58.2-2.58 2.2-6.58h-1c-.86-6.53-.62-10.53 1-17 .35-2.66.69-5.33 1-8h-2c-1.49-4.61-.39-6.9 2-11l-2-1c-.29-4.13.23-7.95 1-12h2l1-2h2c.14-.78.29-1.57.44-2.38C416 611 416 611 417 609h2l-1 5 2-1v-2l3-1c1.65-2.21 1.65-2.21 3.12-4.88.52-.88 1.04-1.76 1.58-2.67 1.4-2.48 1.4-2.48 2.3-5.45h-2c.75-7.75.75-7.75 3-10"/><path fill="#517b37" d="m327.125 353.688 2.32-.02c5.61.07 11.2.25 15.56 4.1.51.68 1.03 1.35 1.56 2.04 2.18 2.74 3.96 4.61 6.75 6.82 3.1 2.74 3.5 4.49 4.69 8.37.74.9 1.49 1.79 2.25 2.71 2.93 3.52 5.24 7.12 7.56 11.04q.6 1.005 1.23 2.04c2.96 4.95 2.96 4.95 2.96 7.21h6v4c-1.49-.49-1.49-.49-3-1 .28.87.57 1.74.87 2.63 1.56 4.68 1.56 4.68 3.13 9.37h3v3c.65.33 1.31.66 2 1 .06.95.12 1.9.18 2.88.4 1.54.4 1.54.82 3.12 2.3 1.07 4.63 2.07 7 3 .32 1.32.65 2.64 1 4h2c0 2 0 2-2 4 .78 1.65 1.57 3.3 2.37 4.94l1.34 2.78c1.08 2.41 1.08 2.41 3.29 3.28.32 1.32.65 2.64 1 4 .5 1.42.5 1.42 1.02 2.87 2.55 8.18 2.85 18.6 1.98 27.13l-2 3-1-3c-.5 1.98-.5 1.98-1 4h2c-.19 1.24-.38 2.48-.57 3.75-.68 4.25-.68 4.25.57 8.25-3 3-3 3-5 3v2c-3.7 2.47-6.64 2.51-11 3-1.93 1.93-1.12 5.46-1.12 8v2.22c0 2.43.01 4.86.02 7.29v5.04l.03 13.29c.01 4.52.01 9.03.02 13.55.01 8.87.02 17.74.05 26.61h-1c-.07-1.18-.13-2.36-.19-3.58-.08-1.55-.17-3.11-.25-4.67l-.12-2.35c-.2-3.63-.56-6.86-1.44-10.4.15-.71.3-1.42.46-2.15.79-4.17.42-8.19.16-12.41-.04-.85-.09-1.7-.13-2.58-.22-3.77-.58-7.18-1.49-10.86v-3h2l-2-3c-.13-2.69-.13-2.69 0-5-1-.33-1.99-.66-3-1-1.71-5.73-1.09-12.07-1-18-1-.33-1.99-.66-3-1-1.52-2.88-2.88-5.72-4.19-8.69-3.32-7.27-6.9-14.18-10.96-21.07-2.41-4.21-4.53-8.53-6.63-12.91-1.13-2.43-1.13-2.43-3.22-4.33-1-2.63-1.93-5.26-2.82-7.93-2.02-5.92-4.22-11.61-6.9-17.26-1.55-3.39-2.92-6.84-4.28-10.31-4.02-10.09-8.44-19.58-13.97-28.93-2.06-3.54-3.36-6.54-4.03-10.57-.67-.66-1.32-1.32-2-2v-3h-3c-.4-.82-.79-1.65-1.19-2.5-.6-.82-1.2-1.65-1.81-2.5-4-.33-4-.33-8 0-1-.33-1.99-.66-3-1-.33.99-.67 1.98-1 3-.67-.66-1.32-1.32-2-2 3.27-6.54 7.46-7.8 14-10 1.31-.57 2.63-1.15 4-1.75 4.62-1.52 9.29-1.53 14.12-1.56"/><path fill="#7fa148" d="M541.68 448.113c8.08 6.57 14.86 14.04 20.32 22.89 1.03 1.63 1.03 1.63 2.07 3.3 9.09 15.26 21.6 37.46 18.93 55.7-2 3.25-2 3.25-5 5-8.73-.14-14.48-3.82-21.44-8.57l-4.86-3.27c-.8-.54-1.59-1.08-2.42-1.63-15.23-10.23-30.78-19.52-47.28-27.53-1.43-.73-2.86-1.46-4.28-2.19-3.07-1.5-5.38-2.4-8.72-2.81v-5l8-1c-2.56-.99-5.12-1.97-7.69-2.94-.72-.28-1.44-.56-2.18-.84-10.66-4.04-20.15-4.1-31.13-1.22 1.32-5.28 2.54-8.63 7.49-11.39 14.84-6.26 29.27-8.44 44.51-2.61 1.26.45 1.26.45 2.54.92 5.34 2.15 10.06 5.25 14.86 8.39 3.14 2.03 6.34 3.87 9.6 5.69 0-3.51-3.27-5.13-5.8-7.27-2.92-2.3-5.9-4.03-9.2-5.73-.91-.49-1.82-.97-2.75-1.47-11.12-6.18-11.12-6.18-23.25-6.53l-1-1c-1.63-.09-3.27-.11-4.91-.1-1.48 0-1.48 0-3 .01-1.04.01-2.08.02-3.15.02l-3.17.02c-2.59.01-5.18.03-7.77.05v-1c1.1-.22 2.2-.44 3.33-.67 9.14-1.92 16.68-4.33 24.67-9.33 1.64-.95 3.29-1.89 4.94-2.82.69-.39 1.38-.79 2.09-1.2 11.7-5.82 25.71-.94 35.65 6.13"/><path fill="#766032" d="m380 718 3 1c1.67-.12 1.67-.12 3.38-.25 4.69.32 5.76 1.6 8.62 5.25 3.32 5.09 3.66 10.08 4 16 4.52-2.26 4.4-2.63 6-7 3-3 3-3 7-4l2-1v5h2c-.06-.93-.12-1.86-.19-2.81C416 727 416 727 419 724l4 1-1 5h-2v50h-2c.5 5.94.5 5.94 1 12h2c.5-1.49.5-1.49 1-3l-1 9c.99-1.49.99-1.49 2-3 .5 3.96.5 3.96 1 8h2c1.21 17.91 1.21 17.91-3.06 22.81-1.93 1.71-1.93 1.71-3.94 3.19-.62.51-1.24 1.02-1.88 1.54-8.31 6.44-20.08 5.36-30.12 4.46-7.91-1.97-14.35-7.7-18-15-.81-9.05.55-17.94 1.86-26.87.92-6.32 1.58-12.59 1.93-18.96C373 772 373 772 374 771c1.46-10.99 1.31-22.25 1.56-33.31.05-1.82.09-3.64.13-5.46.11-4.41.21-8.82.31-13.23l2 3h2z"/><path fill="#8eaa47" d="M300.27 572.617c.8.6 1.6 1.2 2.42 1.82 8.43 5.79 19.4 6.25 29.31 7.56v1c-1.12-.01-1.12-.01-2.27-.03-5.15-.05-10.18.01-15.29.6-4.44.43-4.44.43-7.44-.57v3l-5 1v-4h-2v-2c-4.09 2.31-8.15 4.67-12.19 7.07-.82.48-1.63.97-2.48 1.47-2.35 1.43-2.35 1.43-4.51 3.15-1.82 1.31-1.82 1.31-3.82 1.31-.49 1.49-.49 1.49-1 3-.95.79-1.9 1.57-2.87 2.38-2.9 2.43-4.42 4.3-6.13 7.62 4.11-1.02 5.82-2.16 9.13-4.68 8.95-6.64 18.03-12.26 28.87-15.32 1.49.5 1.49.5 3 1v2h3c.5-1.48.5-1.48 1-3l8 1v2c.85.03 1.69.05 2.56.08 7.17.36 12.34 1.05 18.44 4.92.5.99.5.99 1 2-2.59 1.3-4.91 1.1-7.76 1.14-14.04.3-25.92 4.37-37.24 12.86-4.7 3-4.7 3-7 3-1.7 3.31-2.2 4.39-1 8 .5-.99.5-.99 1-2 4-2 4-2 7-2v-2h4l1-4c.5-.99.5-.99 1-2 4.03.56 8.02 1.16 12 2-4 2-4 2-6.71 2.28-4.72 1.04-8.05 3.55-11.98 6.29-.79.54-1.59 1.08-2.41 1.64-6.05 4.15-12.03 8.39-17.9 12.79-.58.44-1.16.87-1.75 1.31-2.84 2.13-5.68 4.26-8.51 6.41-2.37 1.79-4.74 3.57-7.11 5.35-1.18.89-1.18.89-2.39 1.81-15.76 11.76-15.76 11.76-25.24 10.12-3.04-2.13-3.82-3.83-4.37-7.47-.38-8.6 1.81-16.39 4.37-24.53.35-1.14.7-2.29 1.06-3.47 6.84-20.69 20.13-45.41 40.75-54.72 8.91-3.27 19.57-2.82 27.46 2.81"/><path fill="#a7b74f" d="m298 324 4 4h-12v3c1.65.7 3.32 1.36 5 2 .99 1.49.99 1.49 2 3-2.1.56-2.1.56-4.25 1.12-5.44 1.61-10.28 4.02-15.28 6.67C275 345 275 345 273 345v2a96 96 0 0 1-5.06 3.69c-4.84 3.43-8.97 6.9-12.94 11.31v2l3-1v-2c7.51-6.57 16.04-11.28 25-15.56.9-.43 1.79-.86 2.71-1.3 13.55-6.27 29.65-6.19 43.29-.14 1.86.8 1.86.8 3.75 1.62.74.46 1.49.91 2.25 1.38v2c-1.32.06-1.32.06-2.68.11-13.33.73-23.37 4.12-35.32 9.89-1.52.69-3.04 1.39-4.56 2.07-10.07 4.6-19.3 9.65-28.44 15.93l-3 2-1 3c-1.89 1.5-1.89 1.5-4.25 3-.81.52-1.62 1.04-2.45 1.57-2.42 1.5-4.84 3-7.3 4.43l7 1v-2c.93-.1 1.86-.21 2.81-.31 3.5-.45 3.5-.45 6.19-3.69 2.69-.19 2.69-.19 5 0-3.04 3.04-6.04 5.13-9.62 7.5-.66.43-1.31.86-1.98 1.3-7.76 5.12-15.56 10.2-23.4 15.2-.9.59-1.8 1.19-2.73 1.8-4.25 2.25-8.84 1.68-13.27.2-3.45-4.21-3.46-7.69-3-13 3.9-16.08 11.35-31.69 19.5-46 .77-1.36.77-1.36 1.56-2.75 1.25-2.12 2.59-4.19 3.94-6.25h2l2-4c13.97-18.89 34.15-26.82 56-16"/><path fill="#7f9851" d="M340 288h2c2.33 4.86 4.14 9.94 6 15l2-2c.13.71.27 1.42.4 2.15a472 472 0 0 1 1.06 5.56c.32 2.24.32 2.24 1.54 3.29q.465 2.205.84 4.44c1.05 5.41 2.68 10.42 4.66 15.56.34.9.69 1.8 1.04 2.73 2.78 7.06 6.15 13.64 10.05 20.15 3.96 6.68 6.9 13.27 6.6 21.18l-.08 2.85c-.04.69-.07 1.38-.11 2.09h-2c-2.22-2.81-3.97-5.94-5.81-9-.55-.9-1.09-1.8-1.65-2.73-4-6.86-6.64-13.38-8.67-21.08-.82-3.42-.82-3.42-2.87-7.19l-2 4h-2c.5 2.48.5 2.48 1 5h-5v-2l-4 1c-.25 2.18-.25 2.18 1.79 3.52l2.4 1.73c3.91 2.94 6.86 5.85 9.81 9.75-1.98 1.49-1.98 1.49-4 3-10-8.49-10-8.49-10-11-12.04-1.91-23.25-2.13-34.88 1.62-.75.24-1.5.48-2.28.72-5.07 1.8-7.32 3.95-9.84 8.66l1 1 1-2c2.4-.3 2.4-.3 5.38-.31.97-.02 1.95-.04 2.96-.05C309 366 309 366 312 369v3h3v3c1.49.5 1.49.5 3 1l-2 3c-1.01-1.12-2-2.25-3-3.38-.56-.62-1.11-1.25-1.69-1.89C310 372 310 372 310 370c-7.76-1.93-12.44.5-19.38 4.06-.97.48-1.95.96-2.96 1.45a188 188 0 0 0-16.55 9.32c-2.64 1.46-5.13 1.81-8.11 2.17l-3 3c-3.69.19-3.69.19-7 0v2h-8c2.6-2.6 5.07-4.58 8.06-6.69 1.32-.93 1.32-.93 2.66-1.88C258 382 258 382 260 382l1-4c2.76-2.08 5.44-3.89 8.38-5.69.84-.52 1.69-1.05 2.57-1.59 8.7-5.29 17.75-9.61 27.05-13.72 1.33-.6 2.66-1.2 4.02-1.82 11.04-4.88 19.92-6.48 31.98-6.18-1.56-3.11-4.12-3.37-7.31-4.56-1.15-.44-2.3-.87-3.49-1.32-5.42-1.9-10.27-2.3-15.95-2.31-1.16-.02-1.16-.02-2.34-.03-8.9-.03-16.29 2.55-24.22 6.34-.83.4-1.66.79-2.52 1.2-5.83 2.84-11.05 6.09-16.14 10.15C261 360 261 360 258 361v2c-2.5 1.12-2.5 1.12-5 2 3.91-7.82 11.69-15.23 20-18v-2c2.69-1.44 5.35-2.74 8.12-4 .77-.36 1.53-.71 2.31-1.08 4.13-1.9 8.22-3.58 12.57-4.92-.97-.6-1.94-1.2-2.94-1.81C290 331 290 331 289 328c1.62-1.62 3.39-1.21 5.62-1.25.84-.03 1.68-.05 2.54-.08 3.65.42 6.48 1.85 9.84 3.33 2.47.68 4.95 1.3 7.44 1.88 23.93 5.83 23.93 5.83 32.56 12.12 0-5.02-2.23-9.55-3.91-14.24-1.37-4.72-1.65-8.09-.09-12.76l-2-1c-.16-2.03-.16-2.03-.06-4.5.37-3.05.37-3.05-.94-5.5q-.06-3 0-6h-2c-1.31-5.02-.81-7.63 2-12"/><path fill="#6d894e" d="M541.68 448.113c8.08 6.57 14.86 14.04 20.32 22.89 1.03 1.63 1.03 1.63 2.07 3.3 9.09 15.26 21.6 37.46 18.93 55.7-2 3.25-2 3.25-5 5-8.73-.14-14.48-3.82-21.44-8.57l-4.86-3.27c-.8-.54-1.59-1.08-2.42-1.63-14.15-9.5-28.55-18.42-43.92-25.81-3.36-1.72-3.36-1.72-7.36-4.72l10 1v1c1.92.18 1.92.18 3.88.37 4.12.63 4.12.63 6.12 2.63v3l7 1v2c3.82 2.43 3.82 2.43 7.56 1.18 6.62-.28 10.23 3.03 15.44 6.82 1.65 1.14 3.29 2.29 4.94 3.43.8.57 1.61 1.14 2.44 1.73 2.97 2.08 5.94 4.16 8.93 6.21.97.67 1.93 1.34 2.93 2.03 2.69 1.55 4.7 2.21 7.76 2.6-2.18-10.55-5.68-19.7-10.3-29.42-1.32-2.78-2.6-5.57-3.82-8.4-.32-.69-.63-1.38-.95-2.09q-.975-2.205-1.89-4.44c-2.99-6.7-7.25-11.53-12.32-16.79-2.72-2.86-2.72-2.86-5.18-6.02-2.72-3.05-4.98-4.44-8.66-6.16-1.04-.49-2.07-.98-3.14-1.48-7.02-3.08-14.39-3.53-21.55-.52-2.98 1.48-4.91 2.93-7.5 5.13-.89.72-1.78 1.44-2.69 2.19l-4-1c-1.73-.08-3.47-.11-5.2-.1-.98 0-1.96.01-2.97.01-1.02.01-2.03.02-3.08.02-1.03.01-2.06.01-3.12.02-2.55.01-5.09.03-7.63.05v-1c1.1-.22 2.2-.44 3.33-.67 9.14-1.92 16.68-4.33 24.67-9.33 1.64-.95 3.29-1.89 4.94-2.82.69-.39 1.38-.79 2.09-1.2 11.7-5.82 25.71-.94 35.65 6.13"/><path fill="#7c904e" d="M291 570v2h5c.5 2.97.5 2.97 1 6-1.54-.14-1.54-.14-3.11-.29-1.34-.11-2.69-.22-4.08-.33-1.33-.12-2.67-.24-4.04-.36-3.69-.02-5.5.45-8.77 1.98-.84.14-1.67.29-2.54.43-7.7 1.77-13.34 9.26-17.46 15.57-.64.96-1.28 1.92-1.93 2.91-7.07 11-11.67 22.59-15.88 34.9-.3.87-.61 1.75-.92 2.64-1.85 5.56-2.82 10.71-3.27 16.55 6.85-3.14 12.62-6.73 18.44-11.5 7.2-5.77 14.61-11.1 22.28-16.24.75-.5 1.5-1 2.27-1.52 1.05-.7 1.05-.7 2.11-1.41 1.67-1.17 3.25-2.46 4.82-3.76.69-.52 1.37-1.04 2.08-1.57.99.5.99.5 2 1v3l1 1c.6-.5 1.2-.99 1.81-1.5C294 618 294 618 297 618v-2h4l1-4c.5-.99.5-.99 1-2 4.03.55 8.02 1.16 12 2-4 2-4 2-6.71 2.28-4.72 1.03-8.05 3.55-11.98 6.28-.79.55-1.59 1.09-2.41 1.65-6.05 4.14-12.03 8.39-17.9 12.79-.58.43-1.16.87-1.75 1.31-2.84 2.13-5.68 4.26-8.51 6.4-2.37 1.79-4.74 3.57-7.12 5.35-1.17.9-1.17.9-2.38 1.82-15.76 11.75-15.76 11.75-25.24 10.12-3.04-2.13-3.82-3.83-4.38-7.48-.37-8.6 1.82-16.38 4.38-24.52.35-1.14.7-2.29 1.06-3.47 6.5-19.69 18.36-40.81 35.94-52.53 7.55-2.61 15.09-2.19 23-2"/><path fill="#a5bc5b" d="m533 241-3 2-2 4 4 1 3 1c-4.2 2.45-8.42 4.72-12.78 6.88-7.78 3.91-14.84 8.1-21.71 13.48C498 271 498 271 495.3 271.48c-.76.17-1.52.34-2.3.52l-2 4c-3.07 3.4-6.06 5.72-10 8l-3 3h-2l-2 4c-2.03 2.09-4.08 4.12-6.19 6.12-5.88 5.75-11.79 11.69-14.82 19.49-1.33 3.21-3.46 5.06-5.99 7.39l-1-7c-4 1.5-4 1.5-5 4h-3c-.5.99-.5.99-1 2q-.285-6.78-.54-13.56l-.18-4.62c-.1-2.21-.18-4.42-.26-6.62-.05-1.33-.1-2.66-.16-4.04C436 291 436 291 438 289h2c.16 8.69-.44 17.33-1 26 3.26-3.26 5.44-6.78 7.81-10.69 4.81-7.79 9.64-14.83 16.19-21.31.73-.77 1.46-1.53 2.22-2.32 11.41-11.83 50.32-45.5 67.78-39.68"/><path fill="#aabe55" d="M318.543 202.598c7.97 1.31 13.73 7.16 19.39 12.51 1.92 1.94 1.92 1.94 4.07 2.89v2h2v2c-3.71.34-5.4.48-8.38-1.87-1.62-2.13-1.62-2.13-1.62-4.13h-2v-2l-4-1-1-2c-2.53-.65-2.53-.65-5-1v-2l-4 2c2.65 4.91 5.39 9.62 8.5 14.25 3.2 4.97 5.33 9.98 7.32 15.53 1.08 2.97 2.32 5.79 3.61 8.66 3.55 8.4 5.64 17.28 7.92 26.09.53 2.03 1.11 4.05 1.69 6.07 2.11 7.37 2.8 14.75 1.96 22.4-.99.5-.99.5-2 1-.28-.9-.56-1.8-.84-2.74-.55-1.77-.55-1.77-1.1-3.57-.36-1.17-.72-2.34-1.09-3.55-.64-2.05-1.29-4.1-1.97-6.14-3.16 3.16-3.39 3.56-3.69 7.69-.1 1.42-.21 2.85-.31 4.31h2c1.73 5.2 2 9.55 2 15 .99 1.49.99 1.49 2 3l-3 4c-.15-.71-.3-1.42-.46-2.16-1.82-8.61-3.68-17.23-5.54-25.84-.25-1.17-.5-2.33-.76-3.54-4.62-21.39-10.92-41.13-19.91-61.09-7.41-16.72-7.41-16.72-5.33-23.37 3.38-3.38 4.86-3.59 9.54-3.4"/><path fill="#517436" d="M503.25 309.625c.91.12 1.81.25 2.75.38.5 1.48.5 1.48 1 3l-2 3h-2v4h-3c.12 1.17.25 2.35.37 3.56.01 4.6-1.23 7.97-3.03 12.18-3.47 8.44-6.37 17.03-9.21 25.69-.53 1.59-1.05 3.18-1.58 4.76-1.52 4.6-3.04 9.2-4.55 13.81-11.28 34.24-11.28 34.24-19.79 49.89-1.93 3.56-3.75 7.16-5.52 10.79-1.98 3.98-3.95 7.79-6.69 11.32h-2c-.5 1.98-.5 1.98-1 4l-3 3c.33-2.98.66-5.94 1-9h2l1-2c.33.33.66.65 1 1 2.31-3.97 4.62-7.92 7-12-2.64.32-5.28.65-8 1 .81-2.94.81-2.94 2-6 1.49-.5 1.49-.5 3-1 .73-1.98 1.38-3.99 2-6 1.27-2.73 2.56-5.43 3.87-8.13 2.88-5.98 5.31-11.89 7.26-18.24.84-2.54 1.85-4.86 3-7.26 2.72-5.88 3.87-11.91 3.87-18.37-1.65 1.31-3.3 2.63-5 4 2.67-10.7 7.23-21.09 12-31 .37-.8.75-1.6 1.13-2.42 2.61-5.46 2.61-5.46 4.87-6.58 1.15-2.02 1.15-2.02 2.24-4.49.43-.91.86-1.83 1.3-2.77l1.33-2.93c7.64-16.64 7.64-16.64 12.38-17.19"/><path fill="#587935" d="m497 457 2-1c13.86 3.79 29.56 10.82 38 23-3 1-3 1-5.96-.77-1.69-1.23-1.69-1.23-3.42-2.48-16.33-11.79-32.13-16.86-52.05-11.99-9.56 2.31-9.56 2.31-17.13 8.18-1.55 2.87-1.55 2.87-1.73 5.51-.98 3.5-2.65 4.39-5.59 6.49-15.21 11.9-24.88 29.95-33.14 47.07-2.2 4.55-4.5 8.94-7.14 13.24-2.28 3.71-4.06 7.33-5.53 11.44-1.24 3.4-2.49 6.73-3.93 10.06-3.05 7.2-4.93 14.17-6.07 21.87-.13.81-.26 1.62-.39 2.45-.57 3.71-.92 7.06-.81 10.83C394 604 394 604 391 607c-.44-13.41-.19-25.13 4-38 .36-1.17.72-2.33 1.1-3.53 5.48-16.49 14.51-31.53 23.34-46.41.82-1.38.82-1.38 1.66-2.8 1.63-2.76 3.26-5.51 4.9-8.26.55-.93 1.1-1.86 1.67-2.81.52-.89 1.05-1.78 1.6-2.69.47-.79.94-1.59 1.42-2.4 1.31-2.1 1.31-2.1 3.62-5.16 1.89-3.28 2.14-5.99 2.44-9.72 1.01-9.09 8.1-16.33 15.3-21.34 13.12-7.84 29.91-10.64 44.95-6.88"/><path fill="#6c903b" d="M405 486h1c.17 6.19.3 12.38.38 18.57q.06 3.15.15 6.3c.36 12.71.31 21.58-7.53 32.13-1.57 3.01-2.89 6.11-4.19 9.25-.33.8-.67 1.59-1.01 2.42-3.09 7.6-5.12 15.3-6.8 23.33h-2c-.15-7-.29-14.01-.43-21.01-.04-2.37-.09-4.74-.14-7.11-.17-7.96-.31-15.92-.43-23.88-.02-1.09-.04-2.19-.05-3.32-.05-3.09-.08-6.18-.11-9.27-.01-.92-.03-1.85-.04-2.8-.03-6.38-.03-6.38 2.2-8.61 2.66-.38 5.33-.71 8-1l3-1v-2c.76-.54 1.53-1.07 2.31-1.62 3.57-3.16 4.2-5.9 5.69-10.38"/><path fill="#90a367" d="M457 168c2.67 2.24 2.97 3.53 3.22 7-.28 5.03-1.42 9.59-2.7 14.45-.53 2.07-1.06 4.15-1.58 6.22-.28 1.07-.56 2.15-.84 3.26-6.53 25.55-10.99 50.3-12.71 76.65-.27 4.18-.72 8.28-1.39 12.42h-1c-.05-5.09-.09-10.18-.11-15.27-.01-1.73-.02-3.47-.04-5.2-.03-2.49-.04-4.97-.05-7.46l-.03-2.35c0-5.49 0-5.49 2.23-7.72.04-2.67.04-5.33 0-8l1-1h-1c.14-1.28.29-2.56.44-3.88.56-5.03 1.06-10.08 1.56-15.12l-3-1c1.5-7.71 3.19-15.36 5-23l.79-3.43.77-3.26c.34-1.46.34-1.46.69-2.95C449 186 449 186 451 184c.4-2.66.74-5.33 1-8-.72.33-1.44.66-2.19 1-2.83 1.01-4.84 1.17-7.81 1v4h-3v2h-2v2l-3 1c-1.23 3.51-1.23 3.51-2 7h-2c.5 1.98.5 1.98 1 4-2 2-2 2-6 3-.82 2.51-.82 2.51-1 5h-3v3h-2c-.1 1.22-.21 2.43-.31 3.69-.64 3.99-1.23 6.17-3.69 9.31h-2l1 6h-2v2h-2c-2.42 4.8-2.42 4.8-3 10h-2c-.14.95-.29 1.9-.44 2.88C404 246 404 246 403 248h-2l-1 8h-2c.03.88.07 1.76.11 2.67.02 1.16.05 2.32.08 3.52.03 1.15.07 2.29.1 3.48-.41 4.74-2.39 7.24-5.35 10.83-1.9 2.45-2.94 4.58-3.94 7.5-1.16-4.65-.54-6.19.99-10.65.46-1.33.91-2.65 1.38-4.01.5-1.43 1-2.85 1.51-4.28.37-1.08.37-1.08.76-2.18C405 230.42 419.79 198.76 443 173c.7-.92 1.4-1.83 2.12-2.78 3.49-4.12 6.95-3.36 11.88-2.22"/><path fill="#a7c058" d="M450 177c1 2 1 2 .27 4.3-1.31 2.79-2.82 5.26-4.52 7.82-2.97 4.59-5.65 9.26-8.22 14.08-1.59 2.91-3.27 5.76-4.97 8.61-3.17 5.4-5.98 10.92-8.73 16.54-1.93 3.85-3.96 7.62-6.02 11.4-3.03 5.64-5.61 11.25-7.81 17.25-.33.79-.66 1.57-1 2.38-1.12 2.94-1.89 5.87-2.62 8.93-.27 1.07-.53 2.14-.79 3.24-.2.81-.39 1.62-.59 2.45h-2c-.1.73-.2 1.45-.3 2.2-.98 6.62-2.53 12.67-4.75 18.98-1.31 3.89-2.11 7.8-2.95 11.82-.46 1.58-.46 1.58-.94 3.19-1.64 5.88-2.85 11.83-4.06 17.81-.21 1.01-.42 2.01-.64 3.05-1.29 6.76-1.47 13.22-1.36 20.1 0 5.98-.49 11.9-1 17.85h-3c-14.3-23.99 8.68-78.88 16.84-102.44 1.2-3.34 2.47-6.65 3.76-9.95.92-2.38 1.79-4.77 2.61-7.18 8.76-25.39 23.62-53.26 42.79-72.43"/><path fill="#7e9659" d="M269.25 409.688c1.15.24 2.3.49 3.49.74 7.83 1.75 14.97 4.23 22.26 7.57.73.33 1.47.67 2.23 1.01 14.16 6.53 26.04 14.58 36.77 25.99l2.57 2.57c3.04 3.04 5.79 6.04 8.43 9.43l-1 3c-.48-.64-.96-1.27-1.46-1.93-.95-1.24-.95-1.24-1.91-2.5-.63-.83-1.26-1.65-1.9-2.5-1.57-2.15-1.57-2.15-3.73-3.07-1.09.24-2.17.48-3.29.73-3.71.27-3.71.27-6.48-1.61-.86-.88-1.72-1.77-2.6-2.68-7.55-7.7-7.55-7.7-17.2-11.9-2.43-.54-2.43-.54-5.43-3.54l-4-1v-2c-.68-.1-1.35-.19-2.05-.29-8.86-1.49-8.86-1.49-11.95-5.71.7-.06 1.4-.12 2.12-.18.91-.08 1.82-.17 2.75-.25.91-.09 1.81-.17 2.75-.25 2.39-.19 2.39-.19 4.38-1.32-2.43-1.21-4.42-1.32-7.13-1.56-.91-.08-1.82-.17-2.75-.25-1.05-.09-1.05-.09-2.12-.19v-1l-8-1v-2l-2-1v2l-6 1v2h-10l2 6 4-3c1.17 4.2 1.09 4.82-1 9l-4-4-2 4 2 1-2 3c-1.61-1.58-3.21-3.16-4.81-4.75-.9-.88-1.79-1.76-2.71-2.67-4.83-5.02-6.16-7.36-5.48-14.58 5.04-9.35 19.08-4.16 27.25-2.31"/><path fill="#6c8950" d="M279 460h4v2h2v6c1.18.22 1.18.22 2.38.44C290 469 290 469 292 470c1.09 3.74 2 7.09 2 11l3 1v-7l3 1 2-3 4 1v2h6c.5 2.48.5 2.48 1 5h-2l-1-2h-3c1.59 5.36 3.19 10.71 5 16h2c2.57 4.93 3.82 9.44 4 15-.86 1.07-.86 1.07-1.75 2.17-1.51 3.41-1.16 3.84.29 7.12.82 1.64 1.66 3.28 2.52 4.9.85 1.7 1.7 3.4 2.55 5.11.41.81.83 1.62 1.25 2.46 2.07 4.06 3.86 7.86 5.14 12.24-1.75 2.62-1.75 2.62-4 4 1.49 2.48 1.49 2.48 3 5l-2 2c-9.84-15.77-16.6-33.08-23.59-50.24-6.29-15.42-12.86-30.04-22.41-43.76z"/><path fill="#5b823c" d="M317 510h2c1.15 2.24 1.15 2.24 2.38 5.31.66 1.66.66 1.66 1.34 3.35 1.09 2.85 2.1 5.71 3.09 8.59 3.83 10.7 9.04 22.63 17.17 30.72 2.86 2.88 5.06 6.18 7.33 9.53.49.71.97 1.43 1.47 2.16 6.46 9.58 11.73 18.97 15.86 29.8.94 2.43 1.93 4.85 2.97 7.24 2.08 4.95 2.49 8.99 2.39 14.3-5.97-5.46-10.03-10.88-11-19l-2-2c-1.25-2.42-2.45-4.86-3.62-7.31-3.69-7.54-7.83-14.63-12.38-21.69-1.49.5-1.49.5-3 1-.74 2.52-.74 2.52-1 5h-2c-1.19-2.08-2.38-4.17-3.5-6.29-1.6-2.89-3.4-5.59-5.25-8.33-2.72-4.2-3.93-7.32-4.25-12.38l-2-2c1.1-.97 1.1-.97 2.21-1.96 2.31-3.09 2.31-3.09.61-7.11-.73-1.55-1.48-3.09-2.26-4.62-.38-.8-.76-1.59-1.15-2.42-2.08-4.33-4.28-8.61-6.47-12.89l-1.94-4c1-2 1-2 3-5"/><path fill="#4b7637" d="m457 403 2 1c-1.88 6-3.91 11.51-7 17h-2v3.38c-.74 6.18-5.07 10.08-9 14.62-3.42 4.44-6.26 9.12-9 14-1.14 1.76-1.14 1.76-2.31 3.56-5.2 8.26-9.45 17.18-12.77 26.35-1.02 2.32-2.38 4.09-3.92 6.09-.48-8.93 1.27-16.8 3.44-25.44l1.07-4.36c3.42-13.65 7.72-26.97 12.49-40.2.29-.83.59-1.66.89-2.52.67-1.84 1.38-3.66 2.11-5.48h1c.2 2.08.38 4.17.56 6.25.11 1.16.21 2.32.32 3.52C435 424 435 424 434 428h2v2c4-1.5 4-1.5 5-4h2v-2l2-1c.5-1.49.5-1.49 1-3l2-1 1-3c.6-.54 1.2-1.07 1.81-1.62 3.08-3.35 4.51-7.19 6.19-11.38"/><path fill="#719942" d="M340 288h2c2.33 4.86 4.14 9.94 6 15l2-2c.13.71.27 1.42.4 2.15.18.92.36 1.84.54 2.79.17.91.35 1.83.52 2.77.32 2.24.32 2.24 1.54 3.29q.465 2.205.84 4.44c1.05 5.41 2.68 10.42 4.66 15.56.34.9.69 1.8 1.04 2.73 2.78 7.06 6.15 13.64 10.05 20.15 3.96 6.68 6.9 13.27 6.6 21.18l-.08 2.85c-.04.69-.07 1.38-.11 2.09h-2c-2.22-2.81-3.97-5.94-5.81-9-.55-.9-1.09-1.8-1.65-2.73-4-6.86-6.64-13.38-8.67-21.08-.82-3.42-.82-3.42-2.87-7.19l-2 4c-1.49.5-1.49.5-3 1-.93-5.98-1.49-11.97-2-18h-2c-4-8-4-8-3-11l-2-1c-.16-2.03-.16-2.03-.06-4.5.37-3.05.37-3.05-.94-5.5q-.06-3 0-6h-2c-1.31-5.02-.81-7.63 2-12"/><path fill="#6a8941" d="m441 221 3 1c.11 5.8-.18 11.24-1 17l1 3h-2l1 2c.19 3.56.19 3.56 0 7l-2 1c-.13 3.03-.13 5.98-.06 9 .07 6.88.07 13.75-.25 20.62-.06 1.38-.12 2.75-.18 4.17C440 289 440 289 437 291c-.32 3.11-.32 3.11-.07 6.76.05 1.34.11 2.69.16 4.08.07 1.41.15 2.83.22 4.28.06 1.43.12 2.85.19 4.31.15 3.53.32 7.05.5 10.57h3l1-3 4-2c1.12 2.31 1.12 2.31 2 5l-2 3c-.46 2.22-.46 2.22-.63 4.67-.09.89-.17 1.78-.26 2.7-.11 1.4-.11 1.4-.23 2.82-.09.94-.18 1.88-.27 2.85-.21 2.32-.41 4.64-.61 6.96h-1c-.5-4.95-.5-4.95-1-10-1.42.99-1.42.99-2.88 2-3.12 2-3.12 2-5.12 2-.25-6.42-.25-6.42 1-9.31 1.54-4.15 1.15-8.31 1-12.69l-3-1-1-2-2 10-4-1c.55-5.88 1.56-11.26 3-17 .19-1.58.35-3.16.5-4.75.5-4.25.5-4.25 2.5-8.25.23-3.31.37-6.56.44-9.88.35-10.7 1.59-21.13 3.2-31.71.5-3.32.92-6.65 1.36-9.97.94-6.58 2.39-13 4-19.44"/><path fill="#a4bf55" d="M545 245c-.48 4.76-2.44 7.09-5.56 10.62-3.94 4.58-7.6 9.21-11.1 14.13-1.9 2.63-3.81 5.24-5.74 7.85-.92 1.24-.92 1.24-1.85 2.5-1.22 1.64-2.43 3.28-3.65 4.91-3.87 5.23-7.55 10.55-11.1 15.99h2c.5 2.48.5 2.48 1 5 2.13-3.89 2.13-3.89 3-8l4 1a51.8 51.8 0 0 1-4.69 9.5c-3.69 6.03-7 12.25-10.31 18.5-2-4-2-4-1-7h3v-4l3-3v-2c-2.97-.5-2.97-.5-6-1-.28.73-.56 1.46-.86 2.22-1.03 2.52-2.17 4.88-3.45 7.28-.44.83-.87 1.65-1.32 2.5-.45.84-.91 1.69-1.37 2.56-.9 1.69-1.79 3.38-2.69 5.07q-.585 1.11-1.2 2.25c-1.06 2.03-2.09 4.07-3.11 6.12l-3 3c-.86 1.82-1.64 3.68-2.38 5.56-2.26 5.64-4.82 11.05-7.62 16.44-1.29-5.15.24-8.51 2-13.31.32-.9.64-1.79.97-2.71 2.89-7.89 6.3-15.45 10.03-22.98.62-1.3 1.23-2.61 1.87-3.95 4.03-8.39 8.53-15.96 13.79-23.61 2.6-3.82 4.93-7.75 7.18-11.78.58-.82.58-.82 1.16-1.66h2c.27-.68.54-1.36.81-2.06 2.42-5.99 6.56-10.54 11.19-14.94 2.67-2.61 4.93-4.89 7-8h2l2-4c.52-.66 1.03-1.32 1.56-2 1.74-2.16 1.74-2.16 2.44-6 1.68-1.68 3.75-1.06 6-1"/><path fill="#606234" d="M380 718h2c1.26 2.51 1.13 4.23 1.13 7.05.01 1.05.01 2.11.01 3.2-.01 1.15-.01 2.31-.02 3.5 0 1.2 0 2.4-.01 3.64-.02 3.87-.06 7.74-.11 11.61-.01 1.24-.03 2.48-.04 3.76-.19 15.12-1.21 29.77-3.58 44.7-1.16 7.42-1.73 14.34-1.33 21.85C378 820 378 820 376 824h-3l-1-3-3-1c-.47-9.14.54-17.86 1.86-26.87.92-6.32 1.58-12.59 1.93-18.96C373 772 373 772 374 771c1.46-10.99 1.31-22.25 1.56-33.31.05-1.82.09-3.64.13-5.46.11-4.41.21-8.82.31-13.23l2 3h2z"/><path fill="#728b40" d="M550.258 239.242c2.6 2.62 2.59 5.28 2.43 8.84-1.47 6.22-5.82 10.97-9.69 15.92-1.01 1.32-2.02 2.65-3.03 3.97-1.62 2.12-3.23 4.24-4.87 6.34-3 3.86-5.88 7.77-8.64 11.81-.58.83-1.16 1.67-1.76 2.53-1.11 1.62-2.21 3.26-3.3 4.9-1.52 2.21-1.52 2.21-4.4 5.45-2.87-.01-2.87-.01-5-1v6h-2l-1 3h-1c-.12-.81-.25-1.61-.37-2.44-.32-2.73-.32-2.73-2.63-3.56 6.85-9.79 13.78-19.48 21-29 2.07-2.75 4.13-5.5 6.19-8.25.97-1.3 1.94-2.6 2.92-3.89.47-.63.94-1.26 1.42-1.91 1.04-1.37 2.08-2.74 3.13-4.11.55-.71 1.09-1.41 1.64-2.14.5-.64.99-1.27 1.5-1.93 1.39-1.87 1.39-1.87 2.2-4.77l-2.67.91c-1.74.57-1.74.57-3.52 1.15-1.72.57-1.72.57-3.48 1.16-3.3.77-5.12.74-8.33-.22 3.87-8.29 3.87-8.29 8.06-9.69 11.32-1.2 11.32-1.2 15.2.93"/><path fill="#644b2e" d="m423 725-1 5h-2v50h-2l1 12h2l1-3-1 9 2-3 1 8h2c.14 2.88.23 5.75.31 8.62.04.81.09 1.62.13 2.45.12 5.88-.93 8.78-5.44 12.93-2.56.25-2.56.25-5 0l-4 2h-3c1.4-4.47 3.68-6.77 7-10 2.49-7.47.31-16.89-.74-24.63-2.78-20.54-5.53-44.21.18-64.49.24-.92.49-1.83.74-2.76 1.52-3.92 2.85-3.11 6.82-2.12"/><path fill="#65853e" d="M503.25 309.625c.91.12 1.81.25 2.75.38.5 1.48.5 1.48 1 3l-2 3h-2v4h-3c.12 1.17.25 2.35.37 3.56-.03 5.77-2.13 10.24-4.37 15.49-2.78 6.67-5.04 13.54-7.37 20.38-.46 1.33-.91 2.65-1.38 4.01-1.08 3.19-2.17 6.37-3.25 9.56-1-4-1-4 0-8l-3-1c-3.08 2.65-3.08 2.65-3.94 5.56-1.06 2.44-1.06 2.44-5.06 4.44-1.35.97-2.69 1.97-4 3 2.67-10.7 7.23-21.09 12-31 .37-.8.75-1.6 1.13-2.42 2.61-5.46 2.61-5.46 4.87-6.58 1.15-2.02 1.15-2.02 2.24-4.49.43-.91.86-1.83 1.3-2.77l1.33-2.93c7.64-16.64 7.64-16.64 12.38-17.19"/><path fill="#67873f" d="M504.5 590.688c1.93-.06 1.93-.06 3.91-.11 4.15.49 5.75 1.4 8.59 4.42.78 3.89.94 6.5-1.23 9.95-1.82 2.14-3.75 4.09-5.77 6.05-.85.87-1.71 1.73-2.59 2.62q-3.675 3.72-7.41 7.38l-3 3c0-3 0-3 2.06-5.56.96-1.21.96-1.21 1.94-2.44-.5-.99-.5-.99-1-2 2.98-1.52 5.82-2.94 9-4l1-4h3v-3h2c-.5-3.46-.5-3.46-1-7l-4 1c-.5-2.47-.5-2.47-1-5-3.48.18-3.48.18-7 1l-1 4 8 1c-1.85 6.79-7.72 10.93-12.88 15.31-8.57 7.48-14.94 16.07-21.05 25.57-2.07 3.12-2.07 3.12-4.07 5.12-1.93-5.63.11-9.04 2.68-14.02q.645-.975 1.32-1.98h2l1-4h2c.29-.74.58-1.48.88-2.24 1.24-3.06 2.62-4.56 5-6.82.67-.65 1.35-1.3 2.05-1.97.68-.65 1.37-1.3 2.07-1.97 1-1.03 1-1.03 2.03-2.08 1.8-1.75 3.57-3.14 5.66-4.54 3.31-1.99 3.31-1.99 4.31-4.38-9.82 1.11-18.72 3.64-28 7v-7l-7 1c2.85-2.35 5.26-3.58 8.81-4.57.91-.25 1.82-.51 2.76-.78.95-.25 1.89-.51 2.87-.77.94-.27 1.88-.53 2.85-.8 6.83-1.9 13.08-3.25 20.21-3.39"/><path fill="#718c39" d="M291 570v2h5c.5 2.97.5 2.97 1 6-1.54-.14-1.54-.14-3.11-.29-1.34-.11-2.69-.22-4.08-.33-1.33-.12-2.67-.24-4.04-.36-3.69-.02-5.5.45-8.77 1.98-.84.14-1.67.29-2.54.43-7.7 1.77-13.34 9.26-17.46 15.57-.64.96-1.28 1.92-1.93 2.91-9.55 14.87-16.34 32.35-20.09 49.66-.32 1.13-.65 2.26-.98 3.43-1.49.5-1.49.5-3 1-.2-2.04-.38-4.08-.56-6.12-.16-1.71-.16-1.71-.32-3.45-.12-3.37 0-6.18.88-9.43 1.49-.5 1.49-.5 3-1l1 1c.43-1.55.43-1.55.88-3.12.96-3.33 2-6.61 3.12-9.88h2c-.06-.93-.12-1.86-.19-2.81C241 614 241 614 244 611c2.41-3.83 2.41-3.83 1.38-7.75-.93-10.44 7.82-17.35 14.62-24.25.73-.74 1.46-1.49 2.21-2.25 8.36-7.93 17.84-7.01 28.79-6.75"/><path fill="#699148" d="m459 471-2 4c-.11.83-.21 1.65-.32 2.5-.94 3.47-2.66 4.37-5.56 6.44-15.21 11.9-24.88 29.95-33.14 47.07-2.2 4.55-4.5 8.94-7.14 13.24-2.28 3.71-4.06 7.33-5.53 11.44-1.24 3.4-2.49 6.73-3.93 10.06-3.05 7.2-4.93 14.17-6.07 21.87-.13.81-.26 1.62-.39 2.45-.57 3.71-.92 7.06-.81 10.83C394 604 394 604 391 607c-.44-13.41-.19-25.13 4-38 .36-1.17.72-2.33 1.1-3.53 5.48-16.49 14.51-31.53 23.34-46.41.82-1.38.82-1.38 1.66-2.8 1.63-2.76 3.26-5.51 4.9-8.26.54-.91 1.08-1.81 1.63-2.74C448.07 471 448.07 471 459 471"/><path fill="#849645" d="m317 218 1 2 3 1c1.46 3.32 1.46 3.32 2.94 7.56 1.75 5.03 3.62 9.65 6.06 14.39 5.21 10.7 8.34 22.57 11 34.11.33 1.42.33 1.42.67 2.87 1.46 6.68 1.46 6.68.33 10.07v-2c-3.16 3.16-3.39 3.56-3.69 7.69-.1 1.42-.2 2.84-.31 4.31h2c1.73 5.2 2 9.55 2 15l2 3-3 4c-.15-.71-.3-1.42-.46-2.16-6.29-31.47-6.29-31.47-14.87-62.35-.97-3.59-.8-6.78-.67-10.49-.91-2.79-.91-2.79-2-5v-2l-3-1-1-3h2v-3h-2c-.12-.8-.25-1.61-.38-2.44-.32-2.73-.32-2.73-2.62-3.56 0-3.11.46-5.94 1-9"/><path fill="#708a3c" d="M383 719c6.66-.27 6.66-.27 9.75 2.12 4.82 6.16 5.6 10.24 5.25 17.88h-2c-.07.9-.15 1.79-.23 2.72-1.04 9.9-3.06 19.42-7.77 28.28-1.98.5-1.98.5-4 1l-2 2c-.15-18.03.23-35.99 1-54"/><path fill="#6c9039" d="m491 290 3 1c-.96 1.23-.96 1.23-1.94 2.49-7.15 9.23-14.04 18.3-19.52 28.63-3.18 5.93-6.6 11.75-10.14 17.47-1.28 2.2-2.21 4.27-3.09 6.66-1.57 4.08-3.37 7.99-5.3 11.91-4.08 8.38-6.85 16.3-8.48 25.52-1.05 5.82-2.78 10.07-5.53 15.32-1.6 4.1-2.85 8.09-3.56 12.44C436 414 436 414 434 416c-.19-4.96.35-8.85 1.88-13.56 1.86-6.14 2.91-12.11 3.63-18.48C440 381 440 381 442 377c.51-3.8.51-3.8-1-7-.13-2.33-.18-4.67-.19-7-.01-1.28-.03-2.56-.04-3.88.08-1.03.15-2.06.23-3.12.99-.5.99-.5 2-1l1 9c3.08-3.64 4.87-7.82 6.81-12.12 2.61-5.67 5.33-11.1 8.65-16.39 1.82-2.95 3.48-5.96 5.16-8.99 17.37-30.49 17.37-30.49 26.38-36.5"/><path fill="#71913d" d="M300 581v2h2l2 2 3 1v-3c28.77-2.25 28.77-2.25 37 5 1.11.85 2.23 1.69 3.38 2.56.86.81 1.73 1.61 2.62 2.44l-1 3-3 1-3-2-2 1c-1.09-.6-2.19-1.2-3.31-1.81-5.56-2.97-11.51-3.47-17.69-4.19v-2c-2.67-.08-5.33-.08-8 0l-1 2h-3c-.5-.99-.5-.99-1-2-13.12 3.47-24.62 9.58-34.88 18.5C270 608 270 608 266 607c7.38-10.52 15.97-16.5 27-23 .91-.57 1.83-1.14 2.77-1.73C298 581 298 581 300 581"/><path fill="#567549" d="M334 411c2.83 2.83 3.54 6.14 4.8 9.88.4.7.79 1.4 1.2 2.12h4v-2c3.66 1.22 3.66 1.82 5.06 5.25.32.77.64 1.54.98 2.33l1.92 4.83c1.61 4.01 3.32 7.97 5.02 11.95C358 448 358 448 358 450c1.49.5 1.49.5 3 1 .37 2.33.69 4.66 1 7 .95 2.02 1.95 4.03 3 6v2h2c1 3.22 1.99 6.43 2.96 9.66.77 2.48 1.61 4.95 2.48 7.4.56 2.94.56 2.94-.9 5.12-.76.9-.76.9-1.54 1.82-1.13-2.1-2.25-4.21-3.38-6.31l-1.06-2c-2.09-3.91-4.16-7.84-6.21-11.78-.44-.84-.89-1.69-1.34-2.57-.87-1.66-1.73-3.32-2.6-4.99-2.25-4.37-2.25-4.37-5.02-8.4-2.16-3.03-3.11-6.51-4.27-10.01A179 179 0 0 0 338 424c-4-8.43-4-8.43-4-13"/><path fill="#aabd57" d="M316 596c.5 2.48.5 2.48 1 5-.65.22-1.29.44-1.96.67-21.38 8.07-40.26 23.89-58.36 37.56-3.3 2.48-6.6 4.95-9.93 7.39-.83.62-1.66 1.23-2.52 1.86-3.11 2.12-5.41 3.52-9.23 3.52v-2h3v-2h2l2-4 4-2v-2h2v-2h3v-2c1.64-1.18 1.64-1.18 3.81-2.44 2.94-1.7 4.72-3.09 7.19-5.56 1.34-1.24 2.7-2.47 4.06-3.69.69-.62 1.39-1.24 2.1-1.88C270 621 270 621 272 621v-2c8.32-6.66 17.7-11.86 27-17 1.03-.6 2.06-1.21 3.12-1.83 1.42-.83 1.42-.83 2.88-1.67l2.5-1.47c2.98-1.23 5.31-1.22 8.5-1.03"/><path fill="#8aad3e" d="M385 514c5 1 5 1 7.19 4.69.64 1.42 1.24 2.86 1.81 4.31.53 1.32.53 1.32 1.08 2.66 3.66 13.27 1.07 26.15-4.39 38.41-2.01 4.67-2.96 8.92-3.69 13.93h-2z"/><path fill="#7d9347" d="m520 246 4 2c-.93 3.86-1.78 4.87-5.24 6.96-1.34.61-2.69 1.22-4.07 1.85-1.46.69-2.92 1.39-4.38 2.08-.73.35-1.45.7-2.2 1.06-12.93 6.44-24.48 15.22-34.9 25.14C471 287 471 287 469 287c-.73-4.41-1.2-8.34 1.51-12.09 2.39-2.16 4.88-4.03 7.49-5.91 1.02-.78 2.03-1.56 3.08-2.37 6.51-4.86 13.23-9.14 20.3-13.13.73-.42 1.47-.84 2.23-1.28 4.74-2.61 9.1-4.07 14.39-5.22z"/><path fill="#729641" d="M385 604h1c.31 1.17.63 2.34.95 3.54.43 1.55.87 3.1 1.3 4.65.2.77.41 1.54.62 2.33 1.35 4.76 3.01 7.72 6.13 11.48 5.78 8.33 5.61 16.26 5.31 26.12-.02 1.44-.04 2.87-.07 4.35-.05 3.51-.14 7.02-.24 10.53-3.1-1.55-3.49-4.34-4.79-7.38-2.66-5.76-5.72-11.13-10.21-15.62-.26-3.08-.35-5.96-.29-9.04 0-.89.01-1.77.01-2.68.02-2.82.05-5.65.09-8.47.02-1.91.03-3.82.04-5.74q.06-7.035.15-14.07"/><path fill="#789a4a" d="M467 471c12.55-.55 22.54 3.42 33.92 8.31 4.53 1.89 8.06 3.19 13.08 2.69v2h-2v2l2 1v4c.83.23 1.66.47 2.51.71 4.1 1.51 7.67 3.62 11.37 5.91.68.43 1.37.85 2.08 1.28 1.68 1.03 3.36 2.06 5.04 3.1l-3 3c-4-1-4-1-7-3v-2h-8l1-4-11-2v-1l-18-4v-5l8-1c-9.67-3.95-18.54-6.96-29-8l1-3z"/><path fill="#6d8b43" d="m301 422 2.79.97c12.21 4.7 21.3 12.64 30.21 22.03.89.87 1.77 1.73 2.69 2.62 2.95 3.04 5.7 6.03 8.31 9.38l-1 3c-.72-.96-.72-.96-1.46-1.93-.63-.83-1.26-1.66-1.92-2.51-.62-.82-1.25-1.64-1.89-2.49-1.57-2.16-1.57-2.16-3.73-3.07-1.63.36-1.63.36-3.29.72-3.71.28-3.71.28-6.48-1.6-.86-.88-1.72-1.77-2.61-2.68-7.54-7.7-7.54-7.7-17.19-11.9C303 434 303 434 300 431l-4-1v-2c-.68-.1-1.35-.2-2.05-.3-.89-.15-1.78-.3-2.7-.45-1.32-.21-1.32-.21-2.67-.42-3.08-.99-4.48-2.42-6.58-4.83 2.04-.39 4.08-.76 6.12-1.12 1.14-.21 2.28-.42 3.45-.64 3.78-.27 5.94.35 9.43 1.76"/><path fill="#728e50" d="M547 458h2v2l4 1c11.01 9.56 20 24.28 20 39l1 1c.04 1.67.04 3.33 0 5h2c-.49 4.3-1.29 6.66-4 10-.23-.82-.46-1.64-.7-2.49-1.87-6.4-3.96-12.29-7.08-18.18-1.18-2.25-2.21-4.51-3.22-6.83-.33-.73-.65-1.47-.99-2.22-.69-1.57-1.38-3.14-2.05-4.71-2.84-6.2-6.4-10.46-11.36-15.15-1.6-2.42-1.6-2.42-.85-5.72.41-.89.82-1.78 1.25-2.7"/><path fill="#597049" d="M441 697c0 4.18-1.85 6.06-4.19 9.5-11.09 16.84-15.72 33.92-15.31 53.88.02 1.63.03 3.26.04 4.89.14 9.95.82 19.62 2.8 29.39.57 2.9.8 5.4.66 8.34-3-3-3-3-5-6 .38-2.69.38-2.69 1-5h-2c-1.26-2.52-1.1-4.31-1.06-7.12.01-.92.02-1.83.02-2.76.02-.7.03-1.4.04-2.12h2c-.05-1.44-.09-2.88-.14-4.36-.17-5.33-.31-10.65-.45-15.98-.07-2.31-.13-4.62-.21-6.93-.11-3.31-.19-6.62-.27-9.94l-.12-3.13-.06-2.91c-.02-.85-.05-1.7-.07-2.57C419 732 419 732 422 729v-3l-4-1c2.83-10 8.1-18.5 14-27l1 2c3.37-.55 5.08-1.05 8-3"/><path fill="#547646" d="M474 642c2 1.38 2 1.38 4 3 0 2 0 2-2 4-.14 1.52-.14 1.52-.28 3.08-.94 5.15-3.26 8.43-6.22 12.67-.54.79-1.07 1.57-1.63 2.38-11.55 16.71-11.55 16.71-15.87 18.87v-2c-.76.33-1.53.66-2.31 1-2.69 1-2.69 1-5.69 1 1.28-4.56 3.91-7.28 7-10.7 7.27-8.37 13.42-17.81 18.19-27.8C471 644 471 644 474 642"/><path fill="#4c7232" d="M354 340c3.28 3.28 4.04 5.35 5.5 9.69.66 1.89.66 1.89 1.33 3.82.83 2.49 1.64 4.99 2.42 7.49 1.78 4.06 3.94 7.28 6.44 10.94 3.87 5.82 5.38 9.16 4.31 16.06-1.49.5-1.49.5-3 1-.38-.77-.75-1.55-1.14-2.34-6.6-13.43-13.65-25.14-26.05-33.97-.6-.56-1.2-1.11-1.81-1.69l1-3 8 1v-4l2-1z"/><path fill="#879d5a" d="M462 286h4v2h2c-1.72 3.43-3.25 5.63-5.69 8.5-4.46 5.48-7.87 11.35-11.31 17.5-.99 1.67-1.99 3.34-3 5l-3-2c-.6.66-1.2 1.32-1.81 2-2.19 2-2.19 2-5.19 2l-1 2q-.285-6.78-.54-13.56l-.18-4.62c-.1-2.21-.18-4.42-.26-6.62-.05-1.33-.1-2.66-.16-4.04C436 291 436 291 438 289h2c.16 8.69-.44 17.33-1 26 3.87-3.87 6.38-8.36 9.15-13.02 2.57-4.21 5.19-7.61 8.85-10.98l3-3h2z"/><path fill="#a1bf57" d="m512 298 4 1a51.8 51.8 0 0 1-4.69 9.5c-3.69 6.03-7 12.25-10.31 18.5-2-4-2-4-1-7h3v-4l3-3v-2l-6-1c-.28.73-.56 1.46-.86 2.22-1.03 2.52-2.17 4.88-3.45 7.28-.44.83-.87 1.65-1.32 2.5-.45.84-.91 1.69-1.37 2.56-.9 1.69-1.79 3.38-2.69 5.07q-.585 1.11-1.2 2.25c-1.06 2.03-2.09 4.07-3.11 6.12l-3 3c-.86 1.82-1.64 3.68-2.38 5.56-2.26 5.64-4.82 11.05-7.62 16.44-1.29-5.15.24-8.51 2-13.31.32-.9.64-1.79.97-2.71 2.89-7.9 6.31-15.43 10.03-22.98.59-1.31 1.18-2.62 1.79-3.96.58-1.27 1.17-2.54 1.77-3.85.52-1.14 1.04-2.28 1.57-3.46 2.31-3.38 3.94-3.84 7.87-4.73 3.19-.7 3.19-.7 4.5-3.5 1.5-2.5 1.5-2.5 4.5-3.5.5 2.48.5 2.48 1 5 2.13-3.89 2.13-3.89 3-8"/><path fill="#8e9b4f" d="M318.543 202.598c7.97 1.31 13.73 7.16 19.39 12.51 1.92 1.94 1.92 1.94 4.07 2.89v2h2v2c-3.71.34-5.4.48-8.38-1.87-1.62-2.13-1.62-2.13-1.62-4.13h-2v-2l-4-1-1-2c-2.53-.65-2.53-.65-5-1v-2c-4 1.5-4 1.5-5 4 .33.81.66 1.61 1 2.44 1 2.56 1 2.56 0 5.56-1.32 5.27-.79 7.97 1 13h2l-1 4c1.3 1.69 2.64 3.36 4 5v4l2 1-1 5c-2.26-2.26-3-4.04-4.21-6.99-.42-1.01-.84-2.02-1.27-3.06-.66-1.61-.66-1.61-1.34-3.26-.44-1.09-.89-2.18-1.35-3.3l-2.64-6.48q-1.47-3.585-3-7.14c-4.18-10.06-4.18-10.06-2.19-15.77 3.38-3.38 4.86-3.59 9.54-3.4"/><path fill="#476935" d="M369 473c2.83 1.41 3.41 3.61 4.72 6.38.96 1.96 1.98 3.89 3.03 5.81 11 20.5 8.39 45.7 8.31 68.37 0 2.48-.01 4.95-.01 7.43-.01 6-.03 12.01-.05 18.01h-1c-.06-1.18-.12-2.36-.18-3.58-.09-1.56-.17-3.11-.26-4.67l-.12-2.36c-.2-3.62-.56-6.85-1.44-10.39.15-.71.3-1.42.46-2.15.79-4.17.42-8.19.16-12.41-.04-.85-.08-1.7-.13-2.58-.21-3.77-.57-7.18-1.49-10.86v-3h2l-2-3c-.12-2.69-.12-2.69 0-5l-3-1c-1.7-5.73-1.09-12.07-1-18l-3-1c-2.71-4.94-3.01-7.59-2-13-.59-2.35-1.26-4.69-2-7-.36-1.99-.71-3.99-1-6"/><path fill="#c2c55d" d="M282 327v2c-.76.22-1.52.44-2.31.66-9.55 2.94-16.93 6.89-23.69 14.34l-1.83 1.89c-6.61 7.03-11.24 14.79-15.21 23.55-.35.77-.69 1.53-1.05 2.32-.68 1.51-1.34 3.02-1.98 4.54-1.94 4.37-3.51 6.74-7.93 8.7.39-7.09 2.7-12.13 6.06-18.31.5-.93.99-1.85 1.5-2.81 3.64-6.7 7.62-12.95 12.44-18.88.69-.92 1.38-1.84 2.1-2.78C252 340 252 340 254 340l2-4c2.47-2.28 5.22-4.12 8-6 .91-.62 1.81-1.24 2.75-1.88 5.02-1.73 9.99-1.35 15.25-1.12"/><path fill="#96a25f" d="M222 374h1c.12 6.75.12 6.75-1 9-.04 2.33-.04 4.67 0 7l3-1-4 16c5.08-1.82 5.08-1.82 10-4l3 4c.56-.5 1.11-.99 1.69-1.5 2.69-1.75 4.16-1.76 7.31-1.5-5.21 5.21-12.91 11.53-20.62 11.56-5.91-.98-5.91-.98-8.07-3.62-4.95-11.08 3.2-25.86 7.69-35.94"/><path fill="#708a40" d="M450 190c2 3 2 3 2 5h2c-1.03 6.4-2.4 12.61-4.06 18.88-1.52 5.93-2.35 11.46-2.67 17.56-.33 4.29-1.01 8.5-1.71 12.75-1.49 9.29-2.27 18.58-2.91 27.97-.37 5.32-.79 10.57-1.65 15.84h-1c-.05-5.09-.09-10.18-.11-15.27-.01-1.73-.02-3.47-.04-5.2-.03-2.49-.04-4.97-.05-7.46l-.03-2.35c0-5.49 0-5.49 2.23-7.72.04-2.67.04-5.33 0-8l1-1h-1c.14-1.28.29-2.56.44-3.88.56-5.03 1.06-10.08 1.56-15.12l-3-1c1.15-6.15 2.48-12.23 3.94-18.31.48-2.01.48-2.01.96-4.05 1.01-3.33 2.16-5.79 4.1-8.64"/><path fill="#7b7235" d="M398 735h1v5h2c.5 5.7-.84 9.41-3.05 14.51-1.3 3.42-1.52 6.87-1.95 10.49-.97 1.68-1.98 3.35-3 5-.83 2.55-1.56 5.11-2.25 7.7C390 780 390 780 388 783l1 2c-2.33 4.67-5.67 8.99-9 13h-1c1.38-22.58 1.38-22.58 5-28h4c.27-1.34.54-2.68.81-4.06.6-3 1.41-5.44 2.66-8.25 1.61-3.88 2.45-7.5 3.22-11.63.25-1.33.5-2.66.76-4.02.18-1.01.36-2.01.55-3.04h2z"/><path fill="#618741" d="M471 644c-1.45 3.76-3.09 7.38-4.88 11-.49 1.01-.98 2.02-1.49 3.06-1.64 2.95-3.47 5.35-5.63 7.94-1.34 1.83-2.67 3.66-4 5.5-4.41 5.92-9.23 11.24-14.3 16.59-2.68 2.81-2.68 2.81-4.84 5.61-1.66 2.05-3.24 3.6-5.3 5.24-2.49 2.05-4.26 3.9-6.37 6.44-.72.86-1.45 1.73-2.19 2.62h-2c2.8-10.07 10.61-17.8 17.94-24.94 9.68-9.46 17.36-20.08 24.45-31.55 4.68-7.51 4.68-7.51 8.61-7.51"/><path fill="#3f6236" d="M460 522h2v2h2l-1 4h-3c.21.74.41 1.49.62 2.25C461 533 461 533 459 537h-3c.12 1.02.24 2.04.36 3.1 0 6.93-3.42 13.12-6.17 19.34-.55 1.29-1.1 2.58-1.66 3.91-4.14 9.52-4.14 9.52-7.53 10.65-1.04-6.94-1.42-11.63 2-18 .7-1.54 1.39-3.08 2.06-4.62l1.03-2.32c1.59-3.6 2.98-7.25 4.35-10.94 1.68-4.45 3.43-8.86 5.56-13.12l3-1z"/><path fill="#6b835c" d="M367 687c4.36 2.18 4.79 2.84 6.8 7.02l1.46 3.04 1.49 3.19c.76 1.56.76 1.56 1.54 3.14 2.44 5.17 4.02 8.8 3.71 14.61h-2v4c-1.49.5-1.49.5-3 1-.5 3.29-.5 3.29-.48 7.3l-.04 2.25c-.05 2.4-.08 4.8-.1 7.2-.05 3.12-.11 6.24-.17 9.36-.01.76-.02 1.51-.04 2.29-.13 6.56-.56 13.07-1.17 19.6h-1c.01-.97.01-1.94.02-2.94q.06-14.25 0-28.5c-.02-2.77-.02-5.53-.01-8.3.12-18.52.12-18.52-9.01-34.26.09-2.03.09-2.03.38-4.5.09-.81.18-1.63.27-2.47C366 688 366 688 367 687"/><path fill="#618b45" d="M350.824 602.855c7.09 8.25 13.09 16.8 18.83 26.02 2.95 4.66 6.07 9.19 9.15 13.76 6.2 9.51 6.2 9.51 6.2 13.36h-3c-.71-1.65-1.37-3.31-2-5h-2c-1.41-2.3-1.41-2.3-2.94-5.31-1.83-3.58-3.18-5.8-6.06-8.69-.71-1.29-1.41-2.59-2.13-3.93-3.33-6.16-7.56-11.57-11.87-17.07-.56-.74-1.11-1.49-1.68-2.26-4.96-6.27-11.48-9.79-18.32-13.74l-3-2c1.53-.44 3.07-.85 4.62-1.25.86-.23 1.72-.46 2.6-.7 5.19-.09 8.12 3.29 11.6 6.81"/><path fill="#67873c" d="M340 288h2c2.38 4.72 3.58 9.18 4.44 14.38 2.07 11.69 4.19 23.41 9.02 34.32.73 3.12.13 4.56-1.46 7.3l-4 2c-.93-5.98-1.49-11.97-2-18h-2c-4-8-4-8-3-11l-2-1c-.16-2.03-.16-2.03-.06-4.5.37-3.05.37-3.05-.94-5.5q-.06-3 0-6h-2c-1.31-5.02-.81-7.63 2-12"/><path fill="#6a8748" d="m329 449 1 2c1.24-.77 1.24-.77 2.5-1.56 3.5-.44 3.5-.44 5.68 1.36 5.82 6.49 5.82 6.49 5.82 9.2h2c2.16 2.95 3.87 6.2 5.69 9.38.52.88 1.05 1.77 1.59 2.69.49.85.98 1.7 1.48 2.58.46.78.91 1.57 1.38 2.38.42.97.42.97.86 1.97l-1 2-4-2v6l-4-1v-4h-2c-.29-.96-.29-.96-.59-1.93-.26-.83-.52-1.66-.79-2.51-.25-.82-.51-1.64-.77-2.49-.66-2.25-.66-2.25-2.85-3.07-.89-1.4-1.71-2.85-2.5-4.31-.42-.78-.85-1.56-1.28-2.37-1.1-2.09-2.16-4.2-3.22-6.32h-2c-2.04-2.91-3-4.4-3-8"/><path fill="#81a545" d="M335 347c4 1 4 1 6 4-4.82 1.51-9.29 2.31-14.31 2.75-14.91 1.77-28.33 7.62-41.69 14.25l-4 1.88c-4.77 2.46-9.33 5.3-13.9 8.12-4.89 3-4.89 3-7.1 3 1.53-4.59 5.43-6.18 9.38-8.62.84-.54 1.69-1.07 2.57-1.61 8.69-5.33 17.73-9.66 27.05-13.77l4.02-1.82c11.04-4.88 19.92-6.48 31.98-6.18z"/><path fill="#57562d" d="m423 725-1 5h-2v41h-2c-1.35 1.31-2.69 2.65-4 4h-1c-.03-4.44-.05-8.87-.06-13.31l-.03-3.77c-.02-9.43-.05-18.9 2.53-28.04.24-.92.49-1.83.74-2.76 1.52-3.92 2.85-3.11 6.82-2.12"/><path fill="#735b40" d="m370 820 3 1v3h3l1-4c2.5.88 2.5.88 5 2v2l5 1v1h-5v3l4 1v2h9v-4l-3-1c1.04-.06 2.07-.12 3.14-.18 2.03-.13 2.03-.13 4.11-.26 2.02-.12 2.02-.12 4.08-.24 3.76-.23 3.76-.23 7.67-1.32l-2 4c1.26-.54 2.52-1.07 3.81-1.62 1.38-.46 2.77-.91 4.19-1.38l3 2c-1.24.99-2.5 1.96-3.75 2.94-.7.54-1.39 1.09-2.11 1.65-7.45 4.91-22.16 3.65-30.5 1.57-5.71-2.64-10.16-6.93-13.64-12.16z"/><path fill="#6b8548" d="M291 570v2h5c.5 2.97.5 2.97 1 6-1.02-.1-2.05-.19-3.11-.29-1.34-.11-2.69-.22-4.08-.33-1.33-.12-2.67-.24-4.04-.36-3.66-.02-5.5.55-8.77 1.98l-3-1v-2h-3v2h-6l-1 4-4-1c-.14.78-.29 1.57-.44 2.38C259 586 259 586 258 588h-2l-2 4-2 4-3-1-2 1c2.95-9.27 13.01-18.57 21-24 7.29-2.94 15.26-2.18 23-2"/><path fill="#abc056" d="m266 586 1 3c-1.66 2.53-1.66 2.53-4.06 5.5-3.73 4.79-6.82 9.53-9.6 14.91-1.28 2.47-2.67 4.83-4.09 7.21-1.7 3.03-2.69 5.72-3.37 9.13-.82 3.96-1.78 5.93-3.88 9.25-.7 2.32-1.37 4.66-2 7-1 2.94-1 2.94-2 5h-2c-.58-7.44 1.47-13.27 4.06-20.19.41-1.11.82-2.22 1.24-3.37 4.47-11.87 10.11-22.24 17.7-32.44.72-1.1.72-1.1 1.45-2.21C262 587 262 587 266 586"/><path fill="#7b9551" d="M530 270c.93 8.86-.78 13.78-6.19 20.75-.58.82-1.15 1.63-1.75 2.48-3.26 4.38-3.26 4.38-5.06 5.77-2.71-.28-2.71-.28-5-1v6h-2l-1 3h-1c-.12-.8-.25-1.61-.38-2.44-.32-2.73-.32-2.73-2.62-3.56 21.71-31 21.71-31 25-31"/><path fill="#86a652" d="M500 599h9c-2.18 4.5-5.28 7.15-9.02 10.31-2.47 2.1-4.72 4.37-6.98 6.69-1.03.93-2.06 1.86-3.12 2.81-4.9 4.86-8.52 10.74-12.33 16.45A107 107 0 0 1 471 644c-1.93-5.63.11-9.05 2.68-14.02.65-.98.65-.98 1.32-1.98h2l1-4h2c.29-.74.58-1.48.88-2.25 1.24-3.05 2.62-4.55 5-6.81.67-.65 1.35-1.3 2.05-1.98.68-.64 1.37-1.29 2.07-1.96.67-.69 1.34-1.37 2.03-2.08 1.8-1.76 3.57-3.14 5.66-4.54 3.31-1.99 3.31-1.99 4.31-4.38z"/><path fill="#426532" d="M456 437c-1.42 5.28-3.52 8.85-7 13h-4c.23.72.45 1.44.69 2.19.4 3.63-.38 5.03-2.69 7.81h-4v5h-5l.12 2.81C434 471 434 471 432 474h-2v2c-2.97.5-2.97.5-6 1 1.24-4.18 2.74-7.44 5.23-11.01.64-.93 1.28-1.85 1.94-2.8s1.33-1.9 2.02-2.88l3.92-5.63c.64-.93 1.28-1.86 1.94-2.81 2.63-3.86 5.12-7.8 7.6-11.76 2.6-4.05 4.64-3.2 9.35-3.11"/><path fill="#8c9641" d="M250 341c-1.01 4.04-1.85 5.3-4.38 8.44-8.34 11.19-14.88 24.47-19.62 37.58-1 1.98-1 1.98-4 2.98-.38-2.66-.71-5.33-1-8l1-1c.14-1.15.29-2.31.44-3.5.18-1.15.37-2.31.56-3.5.99-.5.99-.5 2-1 .47-1.18.95-2.35 1.44-3.56L228 366h3v-4h2c1.2-2.62 2.09-5.27 3-8h2v-3.12c1.46-5.66 5.94-9.88 12-9.88"/><path fill="#7a9f49" d="m302 473 4 1v2h6l1 5h-2l-1-2h-3c1.59 5.36 3.19 10.71 5 16h2c2.57 4.93 3.82 9.44 4 15-1.49 2.24-1.49 2.24-3 4-3.86-7.47-7.32-15.08-10.7-22.78-1.72-3.86-3.46-7.58-5.64-11.21-.55-.99-1.1-1.99-1.66-3.01l1-2 2 1z"/><path fill="#5f893d" d="m443 435 4 1c1 3 1 3 .08 5.04-.75 1.17-.75 1.17-1.5 2.37-.56.89-1.12 1.77-1.69 2.69-3.35 5.14-6.72 10.25-10.14 15.34-.72 1.07-1.44 2.15-2.18 3.25-1.32 1.98-2.64 3.95-3.97 5.92-1.2 1.8-2.4 3.59-3.6 5.39h-4c2.07-9.3 7.31-17.18 12.63-24.95 1.23-1.84 2.34-3.75 3.43-5.67 2.15-3.74 4.18-7.07 6.94-10.38"/><path fill="#56764d" d="M354 659h2c1.4 2.45 1.4 2.45 2.94 5.69 1.43 3 2.83 5.93 4.55 8.78 1.8 3.02 3.24 6.14 4.7 9.34.53 1.16 1.06 2.33 1.6 3.52.4.88.8 1.76 1.21 2.67l-4-1-2 6c-2.15-2.72-3.82-5.41-5.34-8.52-.42-.86-.85-1.72-1.28-2.6-.44-.89-.87-1.78-1.32-2.69-.86-1.76-1.72-3.52-2.59-5.27-.41-.84-.82-1.68-1.25-2.54-1.12-2.19-2.33-4.29-3.6-6.39-.53-.99-1.07-1.97-1.62-2.99l1-2c1.98.5 1.98.5 4 1z"/><path fill="#a2a863" d="m256 326 2 1v4l4 2c-1.13.78-2.27 1.57-3.44 2.38-3.53 2.18-3.53 2.18-4.56 4.62h-2l-1 3-1-2c-2.5 1.46-4.89 2.92-7.19 4.69C241 347 241 347 239 347l-1 7h-2l-1 4-2 4h-2v4c-1.49.5-1.49.5-3 1-1.02 2.32-2.02 4.66-3 7h-2c2.15-7.3 5.25-13.5 9.06-20.06.54-.96 1.09-1.92 1.65-2.91 3.01-5.24 3.01-5.24 4.29-7.03h2l2-4c4.07-5.3 8.7-9.95 14-14"/><path fill="#738f5b" d="m467 602-3 2v3c-.31 1.67-.64 3.34-1 5h-3v2c-1.86 1.4-1.86 1.4-4.31 2.94-3 1.89-5.15 3.52-7.69 6.06h-2v2l-4 2-2-5c-.93.77-.93.77-1.88 1.56-.7.48-1.4.95-2.12 1.44l-2-1c.78-.76 1.57-1.53 2.38-2.31 2.69-2.6 2.69-2.6 4.62-5.69l3-1c.68-.72 1.36-1.44 2.06-2.19 3.9-3.73 8.28-6.15 12.94-8.81.87-.57 1.73-1.15 2.62-1.74C464 601 464 601 467 602"/><path fill="#699143" d="M317 510h2c1.15 2.24 1.15 2.24 2.38 5.31.66 1.66.66 1.66 1.34 3.35 1.09 2.85 2.1 5.71 3.09 8.59 3.87 10.8 9.12 20.74 16.19 29.75v3c-1.98.5-1.98.5-4 1-5.11-7.57-9.72-14.96-13.38-23.34-1.29-2.91-2.63-5.77-4.02-8.63-.42-.86-.84-1.72-1.27-2.61-.84-1.72-1.68-3.44-2.52-5.15-1-2.06-1.91-4.16-2.81-6.27 1-2 1-2 3-5"/><path fill="#61804c" d="M329 544c1.36 2.05 1.36 2.05 2.75 4.88 2.55 4.94 5.42 9.37 8.73 13.83 1.56 2.36 2.56 4.64 3.52 7.29l-3 2c-.73 2.56-.73 2.56-1 5h-2c-1.19-2.08-2.38-4.17-3.5-6.29-1.6-2.89-3.4-5.59-5.25-8.33-2.72-4.2-3.93-7.32-4.25-12.38l-2-2c2.62-4 2.62-4 6-4"/><path fill="#708836" d="m520 246 4 2c-.93 3.86-1.78 4.87-5.24 6.96-1.34.61-2.69 1.22-4.07 1.85-6.61 3.1-12.77 6.57-18.92 10.53-2.54 1.52-4.99 2.65-7.77 3.66l-1-3c.8-.25 1.61-.5 2.44-.75 3.06-1.09 3.06-1.09 3.56-5.25h3v-2h4v-2h2l.06-2.25c1.44-4.21 3.99-4.93 7.94-6.75 2.65-.73 5.32-1.41 8-2z"/><path fill="#4e713e" d="m449 685 3-1c-1.05 4.18-1.99 5.47-4.81 8.56-.69.77-1.38 1.53-2.08 2.32-5.09 5.12-5.09 5.12-9.11 5.12l-1 2v-2c-4.75 1.19-5.04 1.97-7.5 6-.6.99-1.21 1.97-1.83 2.99-1.49 2.69-2.71 5.34-3.86 8.2-.6 1.26-1.19 2.51-1.81 3.81h-4c1.61-5.57 3.89-11.09 7-16l3-1 2-4c3.56-4 3.56-4 6-4l2-4c1.62-1.89 1.62-1.89 3.44-3.69.59-.6 1.19-1.2 1.81-1.82 2.85-2.42 4.19-2.68 7.75-1.49"/><path fill="#899f6e" d="M302.688 574.438c8.43 5.78 19.4 6.25 29.31 7.56v1l-2.27-.03c-5.15-.05-10.18.01-15.29.59-4.44.44-4.44.44-7.44-.56v3l-5 1v-4h-2v-2l-9-1v-2l-2-1h7l-1-2 1-3h-5v-2c-2.37.14-4.75.29-7.12.44-1.33.08-2.65.16-4.01.25-3.34.27-6.57.7-9.87 1.31 8.57-8.57 24.33-3.86 32.69 2.44"/><path fill="#96b855" d="m473.188 467.5 3.39.03c5.95.12 5.95.12 8.42.47l1 2c2.17.84 4.36 1.59 6.57 2.31 7.29 2.52 12.92 5.18 18.43 10.69-3.38-.59-6.38-1.45-9.54-2.78-1.27-.52-1.27-.52-2.57-1.05-1.74-.73-3.49-1.47-5.23-2.2-8.2-3.37-15.75-5.29-24.66-4.97l-1 3c-1.96.95-1.96.95-4.37 1.69-.79.25-1.59.5-2.4.76-2.23.55-2.23.55-5.23.55 2.67-10.67 7.17-10.87 17.19-10.5"/><path fill="#658257" d="M334 411c2.83 2.83 3.54 6.14 4.8 9.88.4.7.79 1.4 1.2 2.12h4v-2c3.66 1.22 3.66 1.82 5.06 5.25.34.81.68 1.63 1.03 2.46.3.76.6 1.51.91 2.29.37.93.74 1.86 1.12 2.81.29.72.58 1.45.88 2.19l2 4-1 3-1-1v6h-4c-.99-3.47-.99-3.47-2-7h-2c-1.03-2.23-1.94-4.51-2.81-6.81-2.22-5.77-4.6-11.37-7.31-16.92C334 415 334 415 334 411"/><path fill="#563718" d="M379 772h2c.43 8.73-.5 16.88-1.93 25.46-1.05 6.58-1.27 12.9-.98 19.57C378 820 378 820 376 824h-3c-.5-1.49-.5-1.49-1-3l-2-1c-.48-5.62-.22-10.78 4-15 .21-1.66.37-3.33.5-5 .39-4.89.39-4.89 1.5-6 .24-3.36.42-6.7.56-10.06.05-.95.09-1.9.13-2.88.11-2.35.21-4.71.31-7.06h2z"/><path fill="#9db751" d="M316 596c.5 2.48.5 2.48 1 5-.69.26-1.38.51-2.1.78-6.31 2.47-11.91 5.41-17.59 9.1-6.13 3.81-9.36 5.19-16.31 3.12 4.97-5.5 11.59-8.45 18-12 1.04-.61 2.08-1.22 3.15-1.85.94-.55 1.88-1.09 2.85-1.65.82-.48 1.65-.97 2.5-1.47 2.98-1.23 5.31-1.22 8.5-1.03"/><path fill="#809c56" d="m265 432 4 2v3l3 1c1.7 1.97 3.36 3.97 5 6 1.65 1.69 3.31 3.36 5 5l4 4-2 2-1-2h-3c-2.53 2.99-2.53 2.99-1 7-4.14-3.88-7.56-8.18-11.07-12.62-2.15-2.64-4.49-5.01-6.93-7.38l-1-2c3-1 3-1 5 0z"/><path fill="#698d39" d="M513 461c9.03 4.09 18.27 9.73 24 18-3 1-3 1-5.96-.77-1.13-.82-2.25-1.64-3.42-2.48-11.65-8.41-22.69-12.26-36.62-15.75 8.32-5.55 13.21-2.51 22 1"/><path fill="#80a548" d="m345 299 3 4 2-2c.13.71.27 1.42.4 2.15a472 472 0 0 1 1.06 5.56c.32 2.24.32 2.24 1.54 3.29.25 1.4.5 2.81.75 4.25.82 4.4 2.18 8.29 3.87 12.44 1.87 4.64 2.97 8.23 2.38 13.31-4-1-4-1-5.12-2.79C345 312.18 345 312.18 345 299"/><path fill="#72933d" d="M289 438h3v2l4 1c1.69 1.65 3.35 3.31 5 5l4 2c1.92 1.88 1.92 1.88 3.75 4l1.86 2.12C312 456 312 456 312 458l3 1c3 3 3 3 4 7-1 4-1 4-2 6-.45-.58-.9-1.17-1.36-1.77-5.55-7.06-11.53-13.65-17.64-20.23-1.73-1.87-3.46-3.74-5.19-5.62-.73-.8-1.47-1.6-2.23-2.42C289 440 289 440 289 438"/><path fill="#7a9c3c" d="m491 290 3 1c-.96 1.23-.96 1.23-1.94 2.49-7.18 9.27-14.08 18.37-19.57 28.75-2.34 4.34-4.91 8.55-7.49 12.76l-3-2c1.58-6.23 5.05-11.22 8.5-16.56.62-.98 1.25-1.95 1.89-2.95 12.65-19.52 12.65-19.52 18.61-23.49"/><path fill="#5f853b" d="M506 486c1.8.8 3.57 1.67 5.31 2.58.99.52 1.99 1.04 3.01 1.58 1.03.54 2.06 1.09 3.12 1.65 1.02.54 2.05 1.07 3.1 1.62 5 2.63 9.84 5.3 14.46 8.57l-3 3c-4-1-4-1-7-3v-2h-8l1-4-11-2v-1c-.64-.1-1.28-.2-1.93-.3-.83-.15-1.66-.3-2.51-.45-.82-.14-1.64-.28-2.49-.42-.69-.28-1.37-.55-2.07-.83l-1-4c4.26-2.13 4.74-2.3 9-1"/><path fill="#acbb8e" d="M411 221c1 4 1 4 0 6l2 1-1 2h-2c-2.42 4.8-2.42 4.8-3 10h-2c-.14.95-.29 1.9-.44 2.88C404 246 404 246 403 248h-2l-1 8h-2c.03.88.07 1.76.11 2.67.02 1.16.05 2.32.08 3.52.03 1.15.07 2.29.1 3.48-.41 4.74-2.39 7.24-5.35 10.83-1.9 2.45-2.94 4.58-3.94 7.5-1.16-4.65-.54-6.19.99-10.65.46-1.33.91-2.65 1.38-4.02.5-1.42 1-2.84 1.51-4.27.24-.71.49-1.43.75-2.17 4.99-14.3 10.47-28.39 17.37-41.89"/><path fill="#68863d" d="M284 453v2l3 1v2h2c3 5.31 3 5.31 3 8l2 1c.67 1.67 1.33 3.33 2 5l2 1c-.03 3.05-.57 5.98-1 9l-4-1c0-1.36.01-2.73.03-4.09-.1-2.48-.25-4.55-1.03-6.91-3.45-1.71-3.45-1.71-7-2v-6h-2v-2h-4c-2-4-2-4-1-7 2-1 2-1 6 0"/><path fill="#96ad74" d="M314 429c4.63 1.46 7.38 3.93 10.88 7.25 3.24 3.06 6.45 6.08 9.93 8.87 3.9 3.52 7.55 7.32 10.19 11.88l-1 3c-.48-.64-.96-1.28-1.46-1.93-.63-.83-1.26-1.66-1.92-2.51-.62-.82-1.25-1.64-1.89-2.49-1.57-2.16-1.57-2.16-3.73-3.07-1.52.46-1.52.46-3.06.94-6.07.09-8.89-3.75-12.94-7.94l4-4c-.76-.41-1.53-.82-2.31-1.25-3.72-2.42-5.29-4.56-6.69-8.75"/><path fill="#8e984a" d="M285 321c-3 3-3 3-5 3v2c.76-.23 1.53-.45 2.31-.69.89-.1 1.78-.2 2.69-.31l3 3c-.99.5-.99.5-2 1l-2-1c-8.24-.65-14.14-.67-21 4-2.94.25-2.94.25-5 0-1.25-4.62-1.25-4.62 1-8 8.62-3.53 16.79-3.31 26-3"/><path fill="#849a6b" d="M573 494c2.13 2.13 2.68 3.43 3.69 6.21.31.83.61 1.67.93 2.52.31.88.62 1.75.94 2.65.32.86.64 1.72.96 2.61 2.06 5.67 3.62 10.65 3.54 16.76-.01.98-.02 1.97-.02 2.98-.02.75-.03 1.5-.04 2.27h-1v-5h-6v3l-4-2h3c-.35-1.38-.7-2.76-1.06-4.19-.81-3.65-1.11-6.19.06-9.81.35-1.09.7-2.19 1.06-3.31.31-.89.62-1.78.94-2.69h-2l-3-9h2z"/><path fill="#97b94e" d="M385 514c2.45.34 2.45.34 5 1 .81 2.56.81 2.56 1 5h-2c.07.73.14 1.45.22 2.2 1.04 11.28 1.23 21.69-1.22 32.8h-2c-1.06-4.26-1.13-8.14-1.1-12.48 0-.82.01-1.64.01-2.48 0-2.59.01-5.19.03-7.79 0-1.76.01-3.53.01-5.29.01-4.32.03-8.64.05-12.96"/><path fill="#9faf8e" d="M514.867 592.8c2.13 2.2 2.13 2.2 2.88 5.95-1.02 5.81-3.62 8.23-7.75 12.25-.85.86-1.7 1.73-2.58 2.62-2.46 2.48-4.93 4.93-7.42 7.38l-3 3c0-3 0-3 2.07-5.56.63-.81 1.27-1.61 1.93-2.44l-1-2c2.99-1.53 5.82-2.94 9-4l1-4h3v-3h2c-.49-3.47-.49-3.47-1-7l-4 1c-.49-2.48-.49-2.48-1-5-1.77.09-3.54.19-5.31.31-.99.06-1.97.12-2.99.18-3.07.32-3.07.32-5.7 3.51-2.15.48-2.15.48-4.5.62-2.8.2-4.8.48-7.5 1.38-2.66.04-5.33.04-8 0 9.2-6.13 30.16-11.3 39.87-5.2"/><path fill="#658f43" d="M353 365c2.19-.5 2.19-.5 5 0 2.44 3.44 2.44 3.44 3.69 5.67 1.29 2.29 2.72 4.38 4.25 6.52 4.29 6.37 7.63 13.52 10.06 20.81h-4c-1.93-2.78-1.93-2.78-3.88-6.5-3.02-5.59-6.23-10.49-10.12-15.5-2-4-2-4-2-7l-3-1z"/><path fill="#89a05e" d="m538 256 2 1v3h2l1-2 4-1c-1.48 2.96-2.77 5.2-4.71 7.79-.53.69-1.05 1.39-1.58 2.1-.55.72-1.09 1.43-1.65 2.17-.8 1.08-.8 1.08-1.63 2.18-2.36 3.14-4.64 5.97-7.43 8.76.03-1.07.03-1.07.07-2.15.02-.92.04-1.84.05-2.79.03-.91.05-1.83.08-2.77-.07-.76-.13-1.51-.2-2.29l-2-1c4.95-6.44 4.95-6.44 10-13"/><path fill="#5c803b" d="M332 583c5.37.42 8.05 1.36 12 5 1.11.85 2.23 1.69 3.38 2.56.86.81 1.73 1.61 2.62 2.44l-1 3-3 1-3-2c-.99.5-.99.5-2 1-1.09-.6-2.19-1.2-3.31-1.81-5.56-2.97-11.51-3.47-17.69-4.19v-2h7v-1h6z"/><path fill="#75973e" d="M484 338h2c-1.76 7.4-3.73 14.69-6.03 21.94-.61 1.93-1.2 3.86-1.75 5.81-1.78 6.03-1.78 6.03-6.22 8.25-1.35.98-2.69 1.97-4 3 2.67-10.7 7.24-21.08 12-31 .37-.81.75-1.62 1.13-2.45.89-1.88 1.87-3.72 2.87-5.55"/><path fill="#796248" d="M375 772c2.74 4.1 2.25 7.87 2.19 12.62v2.68c-.05 6.56-.05 6.56-1.19 7.7-.28 2.55-.45 5.1-.62 7.65C375 805 375 805 373 807c-2.1 4.2-2.53 8.36-3 13h-1c-.25-8.96.4-17.42 1.88-26.25.17-1.11.34-2.21.52-3.35.99-6.19 2.17-12.3 3.6-18.4"/><path fill="#819c79" d="M455 545c1.26 5.05.16 6.58-2 11.25-.65 1.43-1.31 2.86-1.96 4.29-.5 1.1-.5 1.1-1.02 2.23a299 299 0 0 0-2.91 6.59c-.3.71-.6 1.41-.91 2.14-.29.68-.59 1.36-.89 2.06-2.16 5.04-4.53 9.73-7.31 14.44-2-4-2-4-2-6h-3c.66-4.06 1.95-7.54 3.56-11.31.46-1.07.91-2.14 1.38-3.24.53-1.21.53-1.21 1.06-2.45l2 1c.08 2.67.08 5.33 0 8 3.06-3.06 4.07-5.04 5.7-8.98.49-1.16.97-2.33 1.47-3.53.5-1.21 1-2.43 1.52-3.68.51-1.22 1.02-2.45 1.55-3.71 1.26-3.03 2.51-6.07 3.76-9.1"/><path fill="#647e3b" d="M503.238 309.652c.91.11 1.82.23 2.76.35l1 3c-.99 1.48-.99 1.48-2 3h-2v4h-3v7l-3 1v4l-4 1-2 2-1-3c.99-1.49.99-1.49 2-3 .09-1.46.09-1.46.19-2.94 1.22-6.12 4.12-15.67 11.05-16.41"/><path fill="#bdc597" d="M318.77 202.695c2.93.4 4.91 1.5 7.23 3.3-3.15 1.58-6.17.6-9.59.16-2.55-.32-2.55-.32-5.41.84v11h3v3l2 2c1.51 3.29 2.39 6.45 3 10h2l-1 4c1.31 1.69 2.64 3.36 4 5v4l2 1-1 5c-2.26-2.25-2.99-4.04-4.21-6.98-.42-1.01-.84-2.03-1.27-3.07-.66-1.61-.66-1.61-1.33-3.26-.45-1.09-.9-2.18-1.36-3.3l-2.64-6.48c-.98-2.39-1.98-4.77-2.99-7.14-4.18-10.06-4.18-10.06-2.2-15.77 3.47-3.47 5-3.44 9.77-3.3"/><path fill="#799367" d="m471 458 2 2-11 1 .06 2.62c-1.44 4.57-3.87 5.87-7.74 8.47C452 473 452 473 448 471c-1.89 2.39-3.02 4.07-4 7h-5c1.43-1.66 2.86-3.32 4.3-4.98 1.23-1.46 2.4-2.98 3.54-4.53 2.44-2.81 4.8-4.34 8.04-6.18 1-.58 2.01-1.16 3.05-1.76 7.71-3.89 7.71-3.89 13.07-2.55"/><path fill="#abc55d" d="m510 285 2 1c0 6.21-2.64 10.4-5.75 15.69-.65 1.14-1.31 2.27-1.98 3.45-2.61 3.29-4.25 3.92-8.27 4.86l-2 1c.92-3.7 1.83-5.58 3.87-8.7.58-.88 1.15-1.76 1.74-2.66.91-1.37.91-1.37 1.83-2.76.6-.92 1.2-1.84 1.81-2.79 4.46-6.8 4.46-6.8 6.75-9.09"/><path fill="#7d9a4f" d="M301 422c1.57.6 1.57.6 3.18 1.22 1.03.42 2.07.84 3.13 1.28 1.05.42 2.1.85 3.18 1.28C313 427 313 427 314 429l-3 1v-2h-5v-2l-3 1v5l-7-2v-2c-.68-.1-1.35-.2-2.05-.3-.89-.15-1.78-.3-2.7-.45-1.32-.21-1.32-.21-2.67-.42-3.08-.99-4.48-2.42-6.58-4.83 2.04-.39 4.08-.76 6.12-1.12 1.14-.21 2.28-.42 3.45-.64 3.8-.27 5.93.33 9.43 1.76"/><path fill="#9caf91" d="M468 413c1.3 5.2-.56 7.59-3.06 12-.84 1.53-1.68 3.05-2.52 4.58-.41.75-.83 1.5-1.25 2.27-1.58 2.91-3.04 5.87-4.48 8.84-1.98 3.97-3.95 7.79-6.69 11.31h-2l-1 4-3 3 1-9h2l1-2 1 1c1.01-1.55 2.01-3.12 3-4.69.56-.87 1.11-1.74 1.69-2.63 1.41-2.88 1.48-4.53 1.31-7.68l1-2h2l-.12-2.31C458 427 458 427 460 424h2c.27-1.3.54-2.6.81-3.94.39-1.34.79-2.68 1.19-4.06l3-1z"/><path fill="#6b9046" d="M471 644c-1.45 3.76-3.09 7.38-4.88 11-.49 1.01-.98 2.02-1.49 3.06-1.63 2.95-3.47 5.36-5.63 7.94-.93 1.26-1.85 2.53-2.75 3.81-.74 1.05-1.49 2.11-2.25 3.19l-4-2c2.77-5.09 5.9-9.78 9.26-14.5 1.59-2.29 3.05-4.61 4.49-7 3.54-5.5 3.54-5.5 7.25-5.5"/><path fill="#8ba55b" d="M258 416v2h-2l2 6 4-3c1.17 4.2 1.09 4.82-1 9l-4-4-2 4 2 1-2 3-10-10 1-2h2l4-2-2-4c3.29-1.1 4.71-.8 8 0"/><path fill="#4f712e" d="M383 325h1c.03 1.85.05 3.71.06 5.56.01 1.04.03 2.07.04 3.13-.1 3.31-.1 3.31-.59 6.56-.5 3.69-.71 7.27-.83 11a4551 4551 0 0 0-.24 8.19c-.05 1.4-.09 2.8-.13 4.24-.11 3.44-.21 6.88-.31 10.32h-1l-.18-2.01c-.42-4.4-.93-8.66-1.82-12.99-.15-1.58-.3-3.17-.44-4.75-.18-1.4-.37-2.81-.56-4.25l-2-1 1-3-.12-3.94c.12-4.05.33-5.27 3.12-8.06v8h2c-.01-.89-.02-1.78-.04-2.7 0-1.17-.01-2.34-.02-3.55-.01-1.16-.03-2.32-.04-3.52.1-3.23.1-3.23 1.1-7.23"/><path fill="#b0b983" d="m298 324 4 4h-12v2h-2l-1-4h-7v-2l3-2c-7.66-.19-14.66-.35-22 2 1.53-3.07 4.1-3.43 7.22-4.38 10.49-2.33 20.23-.35 29.78 4.38"/><path fill="#7c945f" d="m298 363-2 4 1 1 1-2c2.4-.3 2.4-.3 5.38-.31 1.46-.03 1.46-.03 2.96-.05C309 366 309 366 312 369v3h3v3c1.49.5 1.49.5 3 1l-2 3c-1.01-1.12-2-2.25-3-3.38-.56-.62-1.11-1.25-1.69-1.89C310 372 310 372 310 370c-5.13-1.08-5.13-1.08-10 0-2.67.04-5.33.04-8 0v2h-8c.16-2.32.16-2.32 1-5 2.43-1.62 2.43-1.62 5.44-2.88.99-.43 1.97-.86 2.99-1.3C296 362 296 362 298 363"/><path fill="#94a66c" d="M364 244c4.04 3.73 6.93 7.72 9.69 12.44.39.64.78 1.28 1.18 1.94 2.24 3.77 3.91 7.41 5.13 11.62l-4-1-3 2c-3.67-3.08-4.57-5.25-5-10l2-1v2h2c-.75-3.28-.75-3.28-4-5-.19-2.62-.19-2.62 0-5h-2v-2h-2z"/><path fill="#698641" d="m272 413 3 1-1 2h9v1c1.42.1 2.85.21 4.31.31 4.13.3 4.53.53 7.69 3.69-3.53 1.18-6.4 1.13-10.12 1.12-1.9.01-1.9.01-3.83.01C278 422 278 422 277 421c-2.67-.04-5.33-.04-8 0v-2l-6-2c3.44-2.29 4.99-2.18 9-2z"/><path fill="#ada18d" d="M425 725c1.28 3.85.4 5.25-.91 9.05-2.6 8.71-2.66 17.15-2.53 26.14l.03 4.93c.11 10.01.76 19.72 2.75 29.54.57 2.9.8 5.4.66 8.34-3-3-3-3-5-6 .38-2.69.38-2.69 1-5h-2c-1.26-2.52-1.1-4.31-1.06-7.12.01-.92.02-1.83.02-2.76.02-.7.03-1.4.04-2.12h2c-.03-1.1-.05-2.2-.08-3.33-.09-4.15-.15-8.3-.19-12.45-.03-1.79-.06-3.57-.11-5.35-.29-12.3.89-22.34 5.38-33.87"/><path fill="#3b5c31" d="m427 593 1 4h2c-.95 3.79-2.17 6.37-4.06 9.75-.82 1.48-.82 1.48-1.66 2.98-.42.75-.85 1.5-1.28 2.27l-3-1 1 3h-3l1-5h-2l-1 2c.59-4.39 2.23-7.47 4.5-11.25.63-1.06 1.26-2.11 1.91-3.2 2.22-3.55 2.22-3.55 4.59-3.55"/><path fill="#94a97e" d="M512 440c17.87-1.12 28.82 6.37 40.91 18.8.69.73 1.38 1.45 2.09 2.2l-1 2c-3.26-1.8-4.89-2.83-7-6-2.76-2.76-5.21-2.58-9-3v-4h-2v-2h-6v-2h-2v-2h-2v-2c-6.93-.5-6.93-.5-14-1z"/><path fill="#5d7934" d="M309 604v7c-2.97-.5-2.97-.5-6-1l-2 6h-4v2c-4.35 4-4.35 4-8 4l-2-4c3.59-3.86 7.22-6.56 11.75-9.25C306.71 604 306.71 604 309 604"/><path fill="#4f6c35" d="m332 583 1 4-5 1v1c-2.56-.11-5.13-.24-7.69-.38-2.14-.1-2.14-.1-4.32-.21-3.47-.36-5.98-.67-8.99-2.41v-3c8.5-.89 16.51-.99 25 0"/><path fill="#637a30" d="M398 735h1v5h2c.69 7.95-2.53 14.06-6 21l-1 3-3 1-2 3c.38-3.75.91-6.79 2.44-10.25 1.62-3.9 2.48-7.53 3.25-11.69.25-1.33.5-2.66.76-4.02.18-1.01.36-2.01.55-3.04h2z"/><path fill="#99a881" d="M303 610c4.03.55 8.02 1.16 12 2-4 2-4 2-6.71 2.28-4.72 1.03-8.05 3.55-11.98 6.28-.79.54-1.58 1.08-2.4 1.63a351 351 0 0 0-15.84 11.48C276 635 276 635 273 635c2.1-3.97 4.27-6.48 8-9h3v-2c1.98-1.04 3.98-2.03 6-3 1.08-.84 1.08-.84 2.19-1.69C294 618 294 618 297 618v-2h4l1-4z"/><path fill="#90a67a" d="M511 441v2l2 1h-5v2h-3l-1 2v-2l-3 1v3c-5.4 6.32-11.64 6.9-19.5 6.88l-3.07.06c-2.48.04-4.95.06-7.43.06v-1c1.1-.22 2.2-.44 3.33-.66 9.14-1.92 16.68-4.34 24.67-9.34 1.66-.97 3.33-1.93 5-2.88 1.05-.61 1.05-.61 2.12-1.24C508 441 508 441 511 441"/><path fill="#8fa47f" d="M482 373c1.11 4.45.7 5.75-.73 9.98-.39 1.17-.78 2.33-1.19 3.53-.42 1.21-.84 2.43-1.27 3.68-.4 1.19-.8 2.39-1.21 3.62-2.23 6.56-4.66 12.91-7.6 19.19-1-3-1-3-1-7h2c-.25-.78-.5-1.57-.75-2.38-.31-4.48.98-7.1 2.77-11.14 1.17-2.68 1.17-2.68 1.54-6.54.15-.97.29-1.94.44-2.94l3-1v-2l2-1c.73-1.98 1.4-3.98 2-6"/><path fill="#a0ba53" d="m468 292 4 1c-.71.68-1.43 1.36-2.16 2.05-10.01 9.63-10.01 9.63-16.86 21.56-1.32 3.22-3.45 5.06-5.98 7.39 1.34-10.65 8.83-23.08 17.38-29.56L467 293z"/><path fill="#92a34b" d="m317 218 1 2 3 1c1.18 2.63 2.19 5.16 3.12 7.88.27.73.53 1.46.81 2.22 1.06 2.95 2.08 5.92 3.07 8.9l-5 2v-2l-3-1-1-3h2v-3h-2c-.12-.8-.25-1.61-.38-2.44-.32-2.73-.32-2.73-2.62-3.56 0-3.11.46-5.94 1-9"/><path fill="#61823c" d="M516 442v3l2 2-2.82.88c-8.28 2.61-8.28 2.61-15.3 7.5-.95.86-1.9 1.73-2.88 2.62l-4-1c1.33-4 3.8-5.34 7-8l1-3h7v-2c3.23-2.15 4.28-2.2 8-2"/><path fill="#819455" d="m269 635 1 2h3c-1.66 1.34-3.33 2.67-5 4-.64.58-1.28 1.15-1.94 1.75-2.76 1.68-4.89 1.47-8.06 1.25v2h-3v2h-3c.47-4.37 1.47-5.54 5-8l2-4c6.06-2.31 6.06-2.31 10-1"/><path fill="#a1b28d" d="M499 327c1.54 3.09.04 4.69-1.31 7.81-3.35 8.1-6.23 16.34-9.07 24.63-.67 1.98-.67 1.98-1.37 4.01-1.08 3.18-2.17 6.36-3.25 9.55-.95-3.78-1.01-6.12-.69-9.94.08-1.02.16-2.04.24-3.09.45-2.96 1.09-5.31 2.45-7.97h2l1-6h2c1.2-4.66 2.29-9.24 3-14h3v-4z"/><path fill="#84a850" d="M394 548c1.26 5.03.13 6.87-1.81 11.62-2.42 6.09-4.18 11.9-5.19 18.38h-2v-27l1 4h2l1-3-.06 2.94c-.3 2.93-.3 2.93 1.06 4.06l1-7h2z"/><path fill="#604322" d="M418 769c3.21 3.21 2.13 6.59 2 11h-2l1 12h2l1-3c-.25 3.94-.25 3.94-1 8l-4 1c-.51-2.69-1.01-5.37-1.5-8.06-.14-.75-.29-1.51-.43-2.28-.84-4.62-1.22-8.97-1.07-13.66l3-1z"/><path fill="#456723" d="M383 509h1c1.17 14.85 1.12 29.67 1.06 44.56 0 2.48-.01 4.95-.01 7.43-.01 6-.03 12.01-.05 18.01h-1c-.06-1.18-.12-2.36-.18-3.58-.09-1.56-.17-3.11-.26-4.67-.04-.78-.08-1.55-.12-2.36-.2-3.62-.56-6.85-1.44-10.39.15-.71.3-1.42.46-2.15.79-4.17.42-8.19.16-12.41-.04-.85-.08-1.7-.13-2.58-.21-3.77-.57-7.18-1.49-10.86v-3h2z"/><path fill="#b4b987" d="M242 340c1 4 1 4-1 7h-2l-1 7h-2l-1 4-2 4h-2v4l-3 1c-1.02 2.32-2.02 4.66-3 7h-2c2.15-7.3 5.25-13.5 9.06-20.06.54-.96 1.09-1.92 1.65-2.91 3.01-5.24 3.01-5.24 4.29-7.03h2z"/><path fill="#8fa56f" d="m512 298 4 1a51.8 51.8 0 0 1-4.69 9.5c-3.69 6.03-7 12.25-10.31 18.5-2-4-2-4-1-7h3v-4l3-3v-2l-5-1c1.31-3.93 2.87-6.28 6-9h1l1 5c2.13-3.89 2.13-3.89 3-8"/><path fill="#5b763b" d="M505.438 591.688c1.18.1 2.35.21 3.56.31l2 4h3l1 7h-2v3l-4 2c-1.12-7.75-1.12-7.75 0-10h-9c1.06-5.91 1.06-5.91 5.44-6.31"/><path fill="#5d7852" d="M443 459c0 4.14-1.77 5.59-4.31 8.81-2.49 3.16-4.56 5.91-6.23 9.58-.48.86-.96 1.72-1.46 2.61h-4v3l-2.31-.12c-2.92-.1-2.92-.1-5.69 2.12 1.12-2.97 2.22-5.33 4-8 3.62-.69 3.62-.69 7-1v-2h2l2-9h5v-5z"/><path fill="#bbc8a5" d="M256 408c19.48 1.24 35.85 8.2 53 17-.99.5-.99.5-2 1-2.36-1.06-4.69-2.2-7-3.38-6.11-3.01-11.17-4.51-18-4.62v-1l-8-1v-2h-3v-2h-3l-1 2v-3l-11-2z"/><path fill="#738a3f" d="M462 286h4v2h2c-1.62 3.23-3.2 5.91-5.31 8.81-.58.81-1.15 1.62-1.74 2.46-1.95 1.73-1.95 1.73-4.62 1.68C454 300 454 300 453 297c1.11-2.01 1.11-2.01 2.75-4.12.53-.71 1.06-1.41 1.61-2.14C459 289 459 289 462 288z"/><path fill="#7c9540" d="m405 252 2 1-1.21 3.15c-2.87 7.55-5.6 15.07-7.79 22.85l-3-1v-2l-2-1 3-3c1.31-3.92.98-7.4.84-11.5.16-2.5.16-2.5 2.16-4.5h2c1.37-1.29 2.71-2.62 4-4"/><path fill="#91a77f" d="m498 491 10 1v1c1.92.19 1.92.19 3.88.38C516 494 516 494 518 496v3l7 1v2l4 2 1 4c-4.12-1.51-7.73-3.52-11.5-5.75-5.91-3.43-11.89-6.38-18.15-9.12-.77-.37-1.55-.75-2.35-1.13z"/><path fill="#849b50" d="m520 246 4 2c-.95 3.4-1.53 4.72-4.6 6.58-1 .41-2 .81-3.02 1.23-1.01.42-2.01.84-3.04 1.27-.77.3-1.55.61-2.34.92v-4l-4 1v-2l-4 1c4.53-4.53 8.93-5.53 15-7z"/><path fill="#6a8853" d="m482 627 1 3-2 2c.32 2.6.32 2.6 1 5h3c-1.37 3.7-3.06 6.95-5.12 10.31-.54.89-1.08 1.77-1.64 2.68L477 652l-2-4 3-1v-2l-4-2-2 1c1.49-4.22 3.61-7.62 6.12-11.31.73-1.07 1.45-2.14 2.2-3.24z"/><path fill="#9aaa71" d="M257 638c0 3.9-1.29 4.37-4 7l-1 3h3v-2h3v-2l4 1c-2.58 1.96-5.16 3.92-7.75 5.88-.73.55-1.46 1.11-2.21 1.68-.71.53-1.42 1.07-2.15 1.62-.97.74-.97.74-1.97 1.49C246 657 246 657 242 659c-3-1-3-1-5-3l10-1-1-3h2c.17-2.46.17-2.46 0-5l-2-1z"/><path fill="#95a773" d="M267 386c-3.2 3.2-6.67 5.54-10.44 8-5.06 3.28-5.06 3.28-9.91 6.88-.54.37-1.09.74-1.65 1.12l-2-1v-3h5v-2h-5l-1-3c1.68-1.68 3.77-1.09 6.06-1.06.92.01 1.84.02 2.79.02.71.02 1.42.03 2.15.04v-2c1.39-.15 1.39-.15 2.81-.31 4.89-1.06 5.85-4.12 11.19-3.69"/><path fill="#bbc8a4" d="M446 229h1c-.79 7.96-1.61 15.92-2.44 23.88-1.21 11.7-2.4 23.41-3.56 35.12h-1c-.05-5.09-.09-10.18-.11-15.27-.01-1.73-.02-3.47-.04-5.2-.03-2.49-.04-4.97-.05-7.46l-.03-2.35c0-5.49 0-5.49 2.23-7.72.08-2.67.09-5.33 0-8h2c.06-.69.12-1.37.18-2.08.09-.9.17-1.8.26-2.73.08-.9.16-1.79.24-2.71C445 232 445 232 446 229"/><path fill="#7c9155" d="M246 596v3c.25 1.24.5 2.48.75 3.75.3 5.07-.8 7.2-3.75 11.25h-2l1 6-4 1c-1.25-5.62-1.25-5.62 1-9 .27-1.22.54-2.43.81-3.69 1.37-4.95 3.32-8.09 6.19-12.31"/><path fill="#6a813f" d="M309 334c11.02-.39 11.02-.39 15 2v2h2v2h-20v-3h2z"/><path fill="#a3b585" d="M239 608c1 4 1 4-1 7 .16 1.3.33 2.6.5 3.94.5 4.06.5 4.06-1.5 8.06-.7 2.32-1.37 4.66-2 7l-4-1v6h-2l-1 4c.57-6.59 2.23-12.39 4.38-18.62.3-.92.6-1.84.92-2.78 1.6-4.73 3.31-9.2 5.7-13.6"/><path fill="#446931" d="m448 470 4 3c-1.79 3.58-3.03 5.25-5.81 7.94l-2.15 2.09c-.67.65-1.35 1.3-2.04 1.97l-3 3-2 2c-.33-8.34-.33-8.34 2-12 2.62-.31 2.62-.31 5 0 .1-.76.21-1.53.31-2.31C445 473 445 473 448 470"/><path fill="#9faf81" d="m543.063 237.75 2.54-.08c2.99.41 4.3 1.16 6.4 3.33 1.17 5 .45 9.15-1.94 13.63-2.06 2.37-2.06 2.37-3.06 2.37-.08-3.04.02-5.07 1-8a149 149 0 0 0-1-7h-2v-2h-12v-1c3.35-.89 6.61-1.15 10.06-1.25"/><path fill="#8ca745" d="m288 362 2 1c-1.3 3.91-2.45 3.95-6.12 5.62-6.57 3.13-12.65 6.8-18.83 10.62C262 381 262 381 260 381c1.17-3.52 1.92-3.87 4.97-5.78.82-.51 1.64-1.02 2.48-1.55l2.61-1.61c.84-.52 1.67-1.05 2.53-1.59 5.01-3.12 10.01-6.07 15.41-8.47"/><path fill="#a1bf5f" d="M514 448c8.2-.53 15.23.77 21.62 6.25.46.58.91 1.15 1.38 1.75l-3 3c-.77-.4-1.55-.8-2.34-1.21-7.06-3.6-7.06-3.6-14.41-6.54-1.07-.41-2.14-.82-3.25-1.25z"/><path fill="#91a441" d="m273 345 2 1-1 2 3-1 1 2c-.8.45-1.59.89-2.41 1.36-6.9 3.85-6.9 3.85-13.21 8.58C260 361 260 361 258 361v2c-2.5 1.12-2.5 1.12-5 2 3.91-7.82 11.69-15.23 20-18z"/><path fill="#624920" d="M379 772h2c.55 11.25-1.15 21.95-3 33h-1v-31h2z"/><path fill="#4f7234" d="M506 486c2.46 1.12 2.46 1.12 4.81 2.44.79.43 1.58.86 2.4 1.31.59.41 1.18.82 1.79 1.25v2c-2.71 1.35-5.01 1.07-8 1v-1c-.64-.1-1.28-.2-1.93-.3-.83-.15-1.66-.3-2.51-.45-.82-.14-1.64-.28-2.49-.42-.69-.28-1.37-.55-2.07-.83l-1-4c4.24-2.12 4.76-2.29 9-1"/><path fill="#90a476" d="M279 460h4v2h2v6c1.18.22 1.18.22 2.38.44C290 469 290 469 292 470c.74 2.65 1.4 5.32 2 8l1 4-2 3c-.76-1.47-.76-1.47-1.54-2.96-3.82-7.29-7.79-14.26-12.46-21.04z"/><path fill="#728740" d="M243 394v2h5v2l-4 1-1 3c-1.66.38-3.32.71-5 1l-2 2-3 1c-2-3-2-3-2-6 2.12-1.61 2.12-1.61 4.88-3.19.9-.53 1.8-1.06 2.74-1.6C241 394 241 394 243 394"/><path fill="#b7be91" d="M222 374h1c.12 6.75.12 6.75-1 9-.04 1.67-.04 3.33 0 5l-3 1 1 4-4 2c-.49 3.58-.49 3.58-.25 7.62.04 1.38.07 2.75.11 4.17.05 1.06.09 2.12.14 3.21-3.97-3.97-3.46-5.5-3-11 1.82-8.6 5.44-17 9-25"/><path fill="#8ca586" d="M431 587c3.12.38 3.12.38 6 1-2.37 9.48-8.7 17.9-14 26l-1-2c1.4-2.71 1.4-2.71 3.38-5.94 2.67-4.36 2.67-4.36 4.62-9.06h-2c.75-7.75.75-7.75 3-10"/><path fill="#a4ba91" d="m342 322 4 2v4h2c1.81 4.4 2.07 8.01 1.94 12.74.09 3.28 1.01 6.18 2.06 9.26h-2v-2l-4-2-1-2h3c-.43-1.25-.87-2.51-1.31-3.8-.57-1.65-1.13-3.3-1.69-4.95-.29-.82-.57-1.65-.87-2.5a713 713 0 0 0-1.58-4.64C342 326 342 326 342 322"/><path fill="#83a142" d="M452 176c.25 7.75.25 7.75-2 10-.72 2.32-1.39 4.65-2 7h-4c0-3 0-3 2.44-6.38 2.27-3.21 3.21-4.81 3.56-8.62-.93 1.09-1.86 2.19-2.81 3.31-1.99 2.35-4.01 4.51-6.19 6.69.01-3.42.15-6.67 1-10 3.59-2.07 5.85-2 10-2"/><path fill="#8b9e6c" d="m265 574 2 1-2 2c-.65 2.57-.65 2.57-1 5l-4-1c-.14.78-.29 1.57-.44 2.38C259 586 259 586 258 588h-2l-2 4-2 4-3-1-2 1c1.46-4.66 3.99-7.47 7.31-11 .95-1.01 1.89-2.02 2.87-3.06 2.57-2.68 5.18-5.32 7.82-7.94"/><path fill="#789641" d="M313 354v3c-.85.24-1.69.48-2.56.73-6.54 1.93-12.42 4.09-18.44 7.27h-2l-1-3c5.05-2.62 10.14-5.15 15.38-7.38.79-.33 1.58-.67 2.39-1.02 2.23-.6 2.23-.6 6.23.4"/><path fill="#6b8737" d="M409 239c.31 9.05.31 9.05-2 13a214 214 0 0 1-5 4l-2 4c-1.18-4.72-.31-7.38 1-12h2l.88-3.94c1.4-5.06 1.4-5.06 5.12-5.06"/><path fill="#6a8443" d="M256 425c4 2 4 2 5 4l4 1c1.12 3.27 1.1 4.69 0 8-5.62.38-5.62.38-9-3-1.35-7.3-1.35-7.3 0-10"/><path fill="#738f3d" d="M264 379v5h-4v6h-7v2h-8c2.56-2.56 4.92-4.45 7.88-6.5l2.55-1.78c7.06-4.72 7.06-4.72 8.57-4.72"/><path fill="#adbd97" d="M437 289h3c.16 8.69-.44 17.33-1 26l3-1c-1.26 3.48-2.73 6.09-5 9q-.255-6.78-.48-13.56c-.06-1.54-.11-3.08-.17-4.62-.08-2.21-.15-4.42-.23-6.62-.05-1.33-.09-2.66-.14-4.04C436 291 436 291 437 289"/><path fill="#b8c294" d="M325 252c2 2 2 2 3 5l4 2c.39 3.04.39 3.04.25 6.62-.04 1.19-.07 2.38-.11 3.61-.05.91-.09 1.83-.14 2.77h4c-.07.74-.14 1.47-.22 2.23-.09.98-.18 1.95-.28 2.96-.09.96-.19 1.92-.28 2.92-.2 2.64-.26 5.24-.22 7.89-1.61-3.21-2.56-5.69-3.44-9.11l-.77-2.98-.79-3.1-.79-3.04c-1.52-5.9-2.92-11.81-4.21-17.77"/><path fill="#688561" d="M466 668c-1.45 4.36-3.68 7.32-6.62 10.81-1.23 1.47-1.23 1.47-2.48 2.96-.63.74-1.25 1.47-1.9 2.23-1.54-1.8-1.54-1.8-3-4 .62-3.19.62-3.19 2-6l3-1 2-3c4-2 4-2 7-2"/><path fill="#3d6324" d="M406 494c3.63 4.84 3.19 6.27 2.62 12.12-.77 5.1-.77 5.1.38 9.88.26 5.79.06 10.5-2 16-.99.5-.99.5-2 1z"/><path fill="#5f8039" d="M532 448h4v2h2v4l3.94-.12 4.06.12 1 2 2 2h-2l-1 5c-4-2-4-2-5.88-4.38-2.05-2.82-2.05-2.82-5.37-4.68-.91-.64-1.82-1.28-2.75-1.94z"/><path fill="#a4b383" d="m396 260 2 1c.59 7.03-.7 10.21-5.06 15.5-1.9 2.45-2.94 4.58-3.94 7.5-1.28-5.11.23-8.47 1.94-13.25.43-1.26.43-1.26.88-2.55.72-2.07 1.45-4.13 2.18-6.2h2z"/><path fill="#becba5" d="M457 184c1.23 4.9.15 8.39-1.09 13.14-.22.88-.45 1.76-.68 2.67-.71 2.82-1.44 5.63-2.17 8.44-.48 1.91-.97 3.82-1.46 5.73-1.19 4.67-2.39 9.35-3.6 14.02h-1c.56-7.67 2.03-14.71 4.06-22.12.42-1.58.42-1.58.86-3.19.68-2.57 1.38-5.13 2.08-7.69h-2c.61-3.55 1.46-6.73 3-10z"/><path fill="#6b903f" d="m479 612 3 1c-3.44 3.51-6.87 6.95-10.62 10.12-3.35 2.78-3.35 2.78-6.13 5.63C463 631 463 631 460 633c2-4 2-4 4.56-6.5 2.68-2.75 3.44-4.63 3.44-8.5 1.97-1.03 3.94-2.06 5.96-3 2.26-1.05 2.26-1.05 5.04-3m-21 21 2 1-4 3z"/><path fill="#b0be87" d="M344 222c6.41 3.2 10.38 8.65 15 14l1.6 1.78c1.19 1.36 2.31 2.78 3.4 4.22l-1 2c-2.92-1.07-4.78-1.78-7-4-.7-.47-1.4-.95-2.12-1.44-.62-.51-1.24-1.03-1.88-1.56v-3l-2-1c-.1-.72-.21-1.44-.31-2.19-.94-3.82-3.08-5.93-5.69-8.81"/><path fill="#768a53" d="M448 208h3c-.62 3.31-1.25 6.63-1.88 9.94-.17.92-.34 1.85-.52 2.8-.52 2.76-1.06 5.51-1.6 8.26-.16.86-.31 1.71-.47 2.59-.85 4.35-1.32 6.2-4.53 9.41l.72-6.42c.18-1.66.35-3.31.5-4.97.43-4.49 1.24-8.39 2.78-12.61.36-1.66.69-3.33 1-5z"/><path fill="#687f31" d="m249 594 2 1c-.22 1.27-.22 1.27-.44 2.56-.36 2.23-.67 4.47-.9 6.72-.71 3.98-1.96 7.03-3.72 10.66-.55 1.14-1.1 2.28-1.66 3.46-.63 1.29-.63 1.29-1.28 2.6l-2-1c-.31-2.88-.31-2.88 0-6l3-3c2.41-3.86 2.41-3.86 1.38-7.94C245 599 245 599 246.94 596z"/><path fill="#3f6a35" d="M373 601c3.56 5.34 5.94 12.55 5 19l-3 3c-1.94-5.63-3.63-11.2-5-17l2-1z"/><path fill="#8aa94f" d="M488 462v2h-5v2h-4v2h-16c7.84-5.22 15.82-6.16 25-6"/><path fill="#95ab80" d="M535 511c3.44.31 3.44.31 7 1l1 3c2.25.51 4.5 1.02 6.77 1.38C552 517 552 517 555 520h3l-1 4c.99 1.49.99 1.49 2 3-3.83-1.91-7.29-4.05-10.88-6.38-1.19-.77-2.38-1.54-3.61-2.33-1.16-.76-2.32-1.51-3.51-2.29-1.14-.73-2.27-1.47-3.45-2.23-.84-.58-1.68-1.17-2.55-1.77z"/><path fill="#678b41" d="M552 514c4.9 1.34 9.49 4.35 13 8 0 2.88 0 2.88-1 5-2.31.25-2.31.25-5 0-1.81-2-1.81-2-3-4h2v-3l-4 1c-.12-.8-.25-1.61-.38-2.44-.32-2.73-.32-2.73-2.62-3.56z"/><path fill="#a6c463" d="M383 345c3.36 3.36 3.37 3.66 3.29 8.11l-.03 2.97c-.02 1.03-.05 2.05-.07 3.11-.02 1.03-.03 2.07-.04 3.14-.04 2.55-.09 5.11-.15 7.67-5.26-5.26-4.24-10.95-4-18 .28-2.34.58-4.68 1-7"/><path fill="#97b551" d="M384 333h1v5h3c.11 10.4-.08 20.63-1 31h-1l-1-20-3 3c-.25-6.57.68-12.57 2-19"/><path fill="#6d8d4d" d="M483 598c-1 2-1 2-5 3l5 1v-2h3v3l-12 4v-7l-7 1c4.57-4.38 10.11-4.47 16-3"/><path fill="#6e9545" d="M444 381h2c-.77 4.96-1.58 9.59-3.94 14.06-2.76 5.28-4.66 10.49-5.62 16.38C436 414 436 414 434 416c-.42-12.2 4.6-24.21 10-35"/><path fill="#688235" d="M530 270v10h-3l-1 2h-2v2l-4-1c.95-3.79 1.69-5.23 4-8.19.8-1.04.8-1.04 1.62-2.1 2.19-2.71 2.19-2.71 4.38-2.71"/><path fill="#9eb072" d="m533 241-3 2c-2.47 3.76-2.47 3.76-1 7l-6 2 1-4c-4.11-1.49-4.11-1.49-8 1l-4-1c2.93-1.37 5.87-2.72 8.81-4.06.84-.39 1.67-.78 2.53-1.18 1.2-.55 1.2-.55 2.43-1.11l2.24-1.03C530 240 530 240 533 241"/><path fill="#a9ba90" d="M335 288h1l2 12h2c1.73 5.2 2 9.55 2 15l2 3-3 4q-1.515-6.81-3-13.62c-.29-1.29-.57-2.58-.87-3.9-.27-1.24-.54-2.49-.82-3.77l-.76-3.46c-.53-3.15-.65-6.06-.55-9.25"/><path fill="#a3b185" d="m492 259 2 1c-2.25 3.49-2.71 3.93-7 5-1.01 1.66-2.01 3.33-3 5h-3v2h-2v2h-2v2l-8 2c3.01-4.11 6.31-7 10.38-10.06 1.65-1.26 1.65-1.26 3.33-2.54 6.34-4.63 6.34-4.63 9.29-6.4"/><path fill="#b0c85d" d="M335 347v2c-.93.06-1.86.12-2.82.18-9.12.62-9.12.62-18.18 1.82 2-4 2-4 5.69-5.25 6.02-1.05 9.78-1.51 15.31 1.25"/><path fill="#8ba560" d="M383 277c2.36 2.36 2.49 3.78 3 7h2l-1 4c-2.48-.99-2.48-.99-5-2l1 8-3 1-1.46-6.64c-.49-2.13-1.01-4.24-1.54-6.36 3-1 3-1 6-1z"/><path fill="#533618" d="M382 826c9.3-.32 9.3-.32 13 2v4c-6.84.98-6.84.98-9 1-2-2-2-2-2-3l-4-1h2z"/><path fill="#748f38" d="M256 588c3.12-.19 3.12-.19 6 0-3.57 5.41-7.2 10.75-11 16-2.34-3.5-2.04-4.14-1-8h2c.71-1.65 1.37-3.32 2-5z"/><path fill="#7f955b" d="m376 266 3 3c1.11.96 1.11.96 2.25 1.94.58.68 1.15 1.36 1.75 2.06-1 4-1 4-3 6l-3-3c-.99 1.49-.99 1.49-2 3-1.8-3.81-2.07-4.71-1-9z"/><path fill="#7f9869" d="M332 583c7.19.56 10.04 3.04 15 8-.99.5-.99.5-2 1v-2l-9 2v-2h-4v-2h2z"/><path fill="#476734" d="M474 642c2 1.38 2 1.38 4 3 0 2 0 2-2 4v3c-.99.5-.99.5-2 1l-1 3-1-2h-2c-1.03-4.53-1.18-5.64 1-10z"/><path fill="#637a36" d="M231 633h2l1 6h2c-.48 4.1-1 8-2 12l-3 1c-.2-2.04-.38-4.08-.56-6.12-.11-1.14-.21-2.28-.32-3.45-.12-3.32.21-6.19.88-9.43"/><path fill="#6d813b" d="m273 629 2 2c-1.17 4.67-1.93 4.91-6 7l-1-3-7 1c8.08-8.31 8.08-8.31 12-7"/><path fill="#b5c08a" d="M326 207c4.31 1.45 7.32 3.62 10.81 6.5.98.79 1.95 1.59 2.96 2.41C342 218 342 218 342 220h2v2c-3.7.34-5.4.48-8.38-1.88C334 218 334 218 334 216h-2q-1.53-2.985-3-6z"/><path fill="#fdfffc" d="m430 484 1 2-2-1zm1-3 2 1Z"/></svg>