<svg xmlns="http://www.w3.org/2000/svg" viewBox="0 0 768 1024"><path fill="#6d8a3a" d="M503.313 420c2.64 3.13 2.93 6.05 2.69 10-1.62 7.84-4.86 15.18-7.88 22.56-7.21 17.72-11.41 35.72-15.12 54.44-3.4 17.05-7.28 33.58-13 50-.38 1.11-.77 2.22-1.16 3.36-4.02 11.63-8.1 23.21-12.97 34.52-9.03 21-17.24 43.27-19.87 66.12 4.48-2.24 5.92-4.2 8.87-8.19 1.33-1.76 1.33-1.76 2.67-3.55.81-1.07 1.62-2.15 2.46-3.26 4.17-5.31 8.84-9.68 14-14 .76-.69 1.53-1.38 2.32-2.09 8.12-7.07 17.17-11.98 26.68-16.91.97-.52 1.93-1.03 2.93-1.57 23.55-11.71 61.97-16.58 86.85-6.97 3.24 1.55 5.13 2.62 7.22 5.54.82 3.28.57 5.08-1.23 7.95-9.55 11.84-25.92 17.07-39.52 23-23.96 10.48-49.46 24.01-67.55 43.28-1.73 1.79-3.54 3.36-5.45 4.96-21.2 18.43-37.95 43.8-48.25 69.81-.44 1.09-.87 2.17-1.31 3.29-6.3 17.91-5.44 36.83-.5 54.9 2.2 8.41 3.04 16.34-.94 24.31-9.88 10.97-17.16 14.15-31.82 13.8-9.84-.67-16.41-4.48-22.43-12.3-5.62-9.38-3.23-20.47-1.44-30.75 2.58-15.04.37-27.17-9.7-39.1-.62-.71-1.23-1.42-1.86-2.15-.57-.75-1.15-1.5-1.74-2.27-8.21-10.29-21.53-17.54-34.8-18.11-9.98.1-19.78 3.52-29.34 6.11-23.22 6.22-23.22 6.22-34.12 4.27-3.74-3.01-4.87-4.99-5.5-9.75.24-13.49 11.18-24.63 20.56-33.12 13.98-11.24 31.23-15.19 48.69-12.07 10.04 2.32 19.46 6.85 27.31 13.58 2.77 1.95 5.81 3.09 8.94 4.36-11.16-33.41-27.08-64.11-48.31-92.3-10.66-14.39-19.29-30.33-27.73-46.08-14.4-26.87-29.4-49.41-51.26-70.83-1.35-1.33-1.35-1.33-2.74-2.69-1.77-1.74-3.56-3.47-5.35-5.19-9.7-9.48-9.7-9.48-9.55-17.16 1.11-3.27 2.03-3.98 4.94-5.75 29.77-5.87 69.52 20.44 92.19 36.74 1.94 1.38 1.94 1.38 4.62 2.9 2.36 1.47 3.81 2.97 5.56 5.11 2.21 2.63 4.36 4.94 6.88 7.31 9.51 9.39 16.75 21.67 23.75 32.94.62 1 1.25 2 1.89 3.03 4.11 6.69 4.11 6.69 4.11 8.97h2c-.86-7.93-1.95-15.79-3.28-23.65-.35-2.04-.35-2.04-.7-4.12-.47-2.75-.95-5.49-1.43-8.22-1.18-6.96-2.13-13.07-.59-20.01 3-3 3-3 6.37-3.44 5.09.62 7.46 2.87 10.48 6.94 4.21 6.99 8.15 14.1 11.96 21.31.47.89.94 1.77 1.42 2.68 2.64 5.07 4.88 10.11 6.77 15.51 2.36-6.08 4.4-12.25 6.41-18.46 8.6-26.41 19.6-49.47 36.59-71.54 4.14-5.13 4.14-5.13 7-11 2-1.67 4-3.33 6-5 2.42-2.59 4.7-5.3 7-8 4.42-5.17 8.88-9.95 14.09-14.33 1.8-1.58 3.4-3.23 5.03-4.98 7.23-7.36 20.18-19.45 31.19-14.69"/><path fill="#93a845" d="M503.313 420c2.64 3.13 2.93 6.05 2.69 10-1.62 7.84-4.86 15.18-7.88 22.56-7.21 17.72-11.41 35.72-15.12 54.44-5.18 25.97-12.88 50.17-22 75-2.27-4.53-1.93-6.18-1-11h2l.06-6.38c.01-1.18.02-2.36.04-3.58.11-2.96.11-2.96-1.1-5.04l-3 9h-2c-.21 1.42-.42 2.85-.63 4.31-1.26 6.3-4.1 11.23-7.37 16.69-1.17 2-2.34 4-3.5 6-.59 1-1.18 2-1.78 3.03-3.13 5.4-6.12 10.89-9.01 16.43-4.63 8.78-9.99 17.12-15.37 25.45-1.18 1.83-2.32 3.68-3.46 5.54-1.88 2.55-1.88 2.55-5.88 4.55a130 130 0 0 0-5 6c-1.37-4.11-.05-5.43 1.93-9.19.57-1.08 1.14-2.17 1.72-3.29l1.35-2.52-3 3h-3l.12-3.94-.12-4.06-2-1c-.39-2.66-.72-5.33-1-8-.76-3.02-1.56-6-2.41-8.98-.27-.94-.54-1.87-.81-2.84l-.85-2.93c-.42-1.48-.42-1.48-.85-2.98-.69-2.42-1.39-4.85-2.08-7.27h-2c-.5-2.48-.5-2.48-1-5l1 2c.22-3.3.22-3.3-2-7l-1 2c-2.57.62-2.57.62-5 1-.27-.66-.54-1.32-.81-2l-3.63-8.94c-.42-1.04-.84-2.08-1.28-3.15-.6-1.49-.6-1.49-1.22-3-.55-1.37-.55-1.37-1.12-2.78-.76-2.07-.76-2.07-1.94-3.13 1.33 11.12 1.33 11.12 3 22.19 2.92 19.14 3.02 37.48 2 56.81h-1c-.13-1-.13-1-.26-2.03-.89-6.96-1.78-13.92-2.68-20.88-.33-2.59-.66-5.19-1-7.79-.47-3.73-.95-7.46-1.43-11.19-.15-1.17-.3-2.34-.45-3.54-.14-1.08-.28-2.16-.43-3.27-.12-.96-.24-1.91-.37-2.89-.34-2.54-.34-2.54-1.38-5.41h-5v2h-2c-1.29-2.12-1.29-2.12-2.63-4.88-.44-.9-.89-1.8-1.35-2.74-1.02-2.38-1.02-2.38-1.02-4.38h2c-.86-7.93-1.95-15.79-3.28-23.65-.23-1.36-.46-2.72-.7-4.12-.47-2.75-.95-5.49-1.43-8.22-1.18-6.96-2.13-13.07-.59-20.01 3-3 3-3 6.37-3.44 5.09.62 7.46 2.87 10.48 6.94 4.21 6.99 8.15 14.1 11.96 21.31.47.89.94 1.77 1.42 2.68 2.64 5.07 4.88 10.11 6.77 15.51 2.36-6.08 4.4-12.25 6.41-18.46 8.6-26.41 19.6-49.47 36.59-71.54 4.14-5.13 4.14-5.13 7-11 2-1.67 4-3.33 6-5 2.42-2.59 4.7-5.3 7-8 4.42-5.17 8.88-9.95 14.09-14.33 1.8-1.58 3.4-3.23 5.03-4.98 7.23-7.36 20.18-19.45 31.19-14.69"/><path fill="#5e6e31" d="M534 635c-2.38 4.77-4.28 5.72-9 8h-4v2c-2.82 3.45-4.72 4.21-9 5l-2 3a602 602 0 0 1-7 4c-2.07 1.5-4.09 3.05-6.11 4.63C495 663 495 663 491 665c-1.64 1.48-1.64 1.48-3.19 3.19-2.47 2.57-5 4.77-7.87 6.89-5.7 4.38-10.7 9.38-15.75 14.48-.93.92-1.86 1.84-2.81 2.79-.9.9-1.79 1.79-2.71 2.72-.8.8-1.61 1.6-2.43 2.43-2.4 2.68-4.3 5.48-6.24 8.5-1.5 1.89-3.02 3.77-4.56 5.62-5.04 5.12-5.04 5.12-7.44 11.38l2 1v2h2v-2h2c-.53 5.1-3.15 9.04-5.69 13.38-14.42 25.35-19.98 51.34-12.12 79.81 2.21 8.41 3.04 16.34-.94 24.31-9.88 10.97-17.16 14.15-31.82 13.8-9.83-.67-16.41-4.48-22.43-12.3-5.61-9.38-3.23-20.47-1.44-30.75 2.58-15.04.38-27.17-9.7-39.1-.61-.71-1.23-1.42-1.86-2.15-.57-.75-1.14-1.5-1.73-2.27-8.56-10.71-22.11-17.68-35.83-18.04-4.17.11-7.92.82-11.96 1.86-5.1.92-10.32.59-15.48.45.31-2.93.31-2.93 1-6 3.06-1.19 3.06-1.19 7-2 1.94-.74 3.88-1.48 5.82-2.23 3.52-1.24 7.11-2.06 10.74-2.89l4.32-1.01c19.84-4.18 42.26-4.33 59.12 8.13 7.56 6.75 15.77 14.21 18.62 24.19.27.9.53 1.8.79 2.73.2.69.39 1.37.59 2.08.74-11.06-2.94-19.91-9-29 .02-3.57.02-3.57.38-7.69.11-1.36.22-2.73.33-4.13.1-1.05.19-2.1.29-3.18h2c.1-.8.21-1.61.31-2.44.85-4.37 2.23-8.36 3.69-12.56h2l1-6h2l1-2 2 2c4.29-4.73 8.45-9.52 12.44-14.5 13.66-16.7 30.7-28.34 49.56-38.5l3.34-1.8c10.62-5.51 21.72-9.76 33.18-13.13 4.95-1.52 9.8-3.28 14.66-5.05 4.67-1.69 8.84-3.02 13.82-3.02"/><path fill="#ae9e52" d="M503.313 420c2.64 3.13 2.93 6.05 2.69 10-1.62 7.84-4.86 15.18-7.88 22.56-7.21 17.72-11.41 35.72-15.12 54.44-5.18 25.97-12.88 50.17-22 75-2.27-4.53-1.93-6.18-1-11h2c.05-2.08.09-4.17.12-6.25.03-1.16.05-2.32.07-3.52 0-3.49 0-3.49-2.19-7.23.78-3.06 1.65-5.86 2.75-8.81.56-1.57 1.11-3.14 1.67-4.71.41-1.14.41-1.14.82-2.3 2.01-5.78 3.05-11.06 3.41-17.14.12-.67.23-1.35.35-2.04l2-1c.4-2.32.74-4.66 1-7-3.32 2.8-3.32 2.8-4 7h-2c.58-6.81 1.57-13.32 3-20l1 2h2c.49-1.98.49-1.98 1-4h2c.65-2.87 1.29-5.75 1.93-8.62.19-.81.37-1.62.56-2.45.96-4.3 1.84-8.58 2.51-12.93h2l-.12-2.19c.13-3.05.82-4.97 2.05-7.75 1.2-2.81 2.07-5.09 2.57-8.12.72-4.24 2.31-8.23 4.5-11.94h2l-1-7h3v-4l-2.12 2.12a808 808 0 0 1-5.89 5.82l-3.12 3.06c-1.03 1.01-2.07 2.02-3.13 3.06-2.42 2.59-3.95 4.93-5.74 7.94-1.67 1.73-3.38 3.41-5.13 5.06-4.87 4.77-8.95 9.76-12.94 15.28-1.52 2.09-3.15 4.11-4.81 6.1-2.14 2.45-2.14 2.45-3.56 5-1.7 2.79-3.73 5.15-5.88 7.6-4.62 5.38-8.57 10.57-11.68 16.96h-2l-2 4c-.61 1.19-1.22 2.38-1.84 3.61l-2.1 4.14c-.35.68-.69 1.36-1.05 2.05-1.78 3.52-3.34 6.99-4.64 10.72-.45 1.15-.91 2.3-1.37 3.48h-2l-.3 2.05c-.87 3.65-2.37 6.7-4.01 10.07-2.63 5.49-4.94 10.94-6.87 16.71-.82 2.17-.82 2.17-2.82 5.17-3.24 9.16-3.24 9.16-4 18.75V593l-4 2-3-6-1 2c-2.57.62-2.57.62-5 1-.27-.66-.54-1.32-.81-2l-3.63-8.94c-.42-1.04-.84-2.08-1.28-3.15-.6-1.49-.6-1.49-1.22-3-.55-1.37-.55-1.37-1.12-2.78-.76-2.07-.76-2.07-1.94-3.13 1.33 11.12 1.33 11.12 3 22.19 2.92 19.14 3.02 37.48 2 56.81h-1c-.13-1-.13-1-.26-2.03-.89-6.96-1.78-13.92-2.68-20.88-.33-2.59-.66-5.19-1-7.79-.47-3.73-.95-7.46-1.43-11.19-.15-1.17-.3-2.34-.45-3.54-.14-1.08-.28-2.16-.43-3.27-.12-.96-.24-1.91-.37-2.89-.34-2.54-.34-2.54-1.38-5.41h-5v2h-2c-1.29-2.12-1.29-2.12-2.63-4.88-.44-.9-.89-1.8-1.35-2.74-1.02-2.38-1.02-2.38-1.02-4.38h2c-.86-7.93-1.95-15.79-3.28-23.65-.23-1.36-.46-2.72-.7-4.12-.47-2.75-.95-5.49-1.43-8.22-1.18-6.96-2.13-13.07-.59-20.01 3-3 3-3 6.37-3.44 5.09.62 7.46 2.87 10.48 6.94 4.21 6.99 8.15 14.1 11.96 21.31.47.89.94 1.77 1.42 2.68 2.64 5.07 4.88 10.11 6.77 15.51 2.36-6.08 4.4-12.25 6.41-18.46 8.6-26.41 19.6-49.47 36.59-71.54 4.14-5.13 4.14-5.13 7-11 2-1.67 4-3.33 6-5 2.42-2.59 4.7-5.3 7-8 4.42-5.17 8.88-9.95 14.09-14.33 1.8-1.58 3.4-3.23 5.03-4.98 7.23-7.36 20.18-19.45 31.19-14.69"/><path fill="#536132" d="m435 723 5 1v2h2v-2h2c-.53 5.1-3.15 9.04-5.69 13.38-14.42 25.35-19.98 51.34-12.12 79.81 2.21 8.41 3.04 16.34-.94 24.31-9.88 10.97-17.16 14.15-31.82 13.8-9.83-.67-16.41-4.48-22.43-12.3-5.61-9.38-3.23-20.47-1.44-30.75 2.58-15.04.38-27.17-9.7-39.1-.61-.71-1.23-1.42-1.86-2.15-.57-.75-1.14-1.5-1.73-2.27-8.56-10.71-22.11-17.68-35.83-18.04-4.17.11-7.92.82-11.96 1.86-5.1.92-10.32.59-15.48.45.31-2.93.31-2.93 1-6 3.06-1.19 3.06-1.19 7-2 1.94-.74 3.88-1.48 5.82-2.23 3.52-1.24 7.11-2.06 10.74-2.89 1.43-.34 2.85-.67 4.32-1.01 19.84-4.18 42.26-4.33 59.12 8.13 7.45 6.65 15.74 14.1 18.56 23.94.25.85.5 1.71.76 2.59 2.05 7.41 2.05 7.41-.32 11.47h-4l-1 4h-2v2h-2l-2 4c-1.15.32-2.29.63-3.48.96-4.23 2.45-4.17 3.09-5.04 7.7-.32 2.32-.6 4.64-.86 6.96-.15 1.16-.3 2.31-.45 3.49-.43 3.3-.8 6.59-1.17 9.89-.12.9-.25 1.81-.37 2.74-.65 4.89-.66 7.25 2.37 11.26v2l2 1c.59.49 1.19.98 1.8 1.48 5.96 4.1 14.4 3.99 21.2 2.52 2.36-.92 4.71-1.9 7-3l-2-2c-.01-2.39-.01-2.39.31-5.25.15-1.4.15-1.4.3-2.83.25-1.87.54-3.73.9-5.59.7-4.78.86-9.56 1.05-14.39l.14-3.21c.23-6 .31-11.96.22-17.95-.13-7.87.19-15.44 1.39-23.22.12-.77.24-1.55.36-2.35.99-5.73 2.84-10.13 6.21-14.83 1.95-3.11 3.25-5.99 4.62-9.38 1.77-4.4 3.73-8.12 6.5-12 1.03-1.99 2.04-3.98 3-6"/><path fill="#778345" d="M588.438 607.813c2.22 3.11 2.36 4.42 1.56 8.19-8.41 13.43-26.85 18.89-40.75 24.95-23.95 10.48-49.46 24.01-67.54 43.27-1.73 1.8-3.54 3.37-5.46 4.97-10.02 8.71-18.02 18.86-25.7 29.62-.57.79-1.13 1.58-1.71 2.39-.5.71-1 1.42-1.52 2.15-1.32 1.65-1.32 1.65-3.32 2.65v-2h-2v2h-2v-2l-3-1c1.31-3.8 2.86-6.23 5.63-9.13 2.94-3.16 5.49-6.38 7.93-9.94 4.7-6.52 10.16-12.06 15.88-17.68.99-.99 1.97-1.98 2.99-3 4.97-4.94 9.96-9.58 15.62-13.73 3.23-2.52 5.68-5.11 7.95-8.52v2c.72-.6 1.45-1.2 2.19-1.81 2.54-1.98 5.03-3.58 7.81-5.19 2.68-1.66 5.34-3.33 8-5l-1-2c1.14-.11 2.27-.21 3.44-.31 1.18-.23 2.35-.46 3.56-.69l1-3h3v-2c2.32-1.05 4.65-2.04 7-3 3.68-1.84 3.68-1.84 6-5-8.89 2.33-17.44 5.19-26.03 8.43-4.51 1.69-9.02 3.23-13.65 4.57-6.52 1.89-12.51 4.75-18.59 7.7-4.12 1.44-6.52 1.27-10.73.3 2.14-6.42 13.4-9.55 19.54-12.02 4.11-1.58 8.24-3.07 12.38-4.54 3.06-1.08 6.08-2.2 9.08-3.44l-1-1c-2.42.42-4.84.91-7.25 1.43-4.33.94-8.31 1.78-12.75 1.57.79-2.13 1.58-4.25 2.38-6.38.44-1.18.88-2.36 1.33-3.58 1.29-3.04 1.29-3.04 3.29-5.04l2-4c-2.66-.09-5.33-.08-8 0l-1 2-3-1c22.28-19.31 81.68-30.6 106.44-12.19"/><path fill="#507435" d="M461 555c2.17 3.26 2.25 4.23 2.19 8-.01.87-.02 1.73-.02 2.62C463 568 463 568 462 571h-2c.5 1.98.5 1.98 1 4-.5 1.49-.5 1.49-1 3l.16 3.15c-.19 4.68-1.74 8.23-3.66 12.41-.74 1.7-1.48 3.4-2.21 5.1-.58 1.32-.58 1.32-1.16 2.67-7.99 18.83-14.78 39.28-17.13 59.67 4.49-2.24 5.93-4.2 8.88-8.19l2.67-3.55L450 646c4.17-5.3 8.83-9.7 14-14 .92-.77 1.84-1.54 2.78-2.34 11.82-9.82 11.82-9.82 16.03-9.35q1.08.345 2.19.69c.5-1.49.5-1.49 1-3l8 1-2 6h-2c-.1.68-.21 1.36-.31 2.06-.83 3.53-2.2 6.65-3.69 9.94 6.01-.59 11.81-1.51 17.71-2.79.76-.07 1.51-.14 2.29-.21l2 2c-2.54 1.07-5.08 2.13-7.62 3.19-.79.32-1.57.65-2.37.99-4.46 1.84-8.9 3.45-13.51 4.88-28.38 9.9-56.81 30.91-73.5 55.94-1.17-4.67-.61-5.24 2-9l-1-1c-7.14 7.18-12.03 15.26-17 24-3.31-4.22-5.3-7.53-5-13l2 4c1.47-4.85 2.52-9.63 3.38-14.62 3.14-16.9 9.23-37.99 21.62-50.38 2.07-3.25 3.75-6.2 4.9-9.89 1.14-3.22 2.57-5.65 4.48-8.49 2.9-4.44 5.31-8.84 7.62-13.62 2.65-5.04 5.33-10.04 8.44-14.81 5.8-9.11 10.15-18.97 13.56-29.19h2c.12-1.09.25-2.19.38-3.31C459 558 459 558 461 555"/><path fill="#8ba346" d="M343 715c.5.99.5.99 1 2-2.94.12-2.94.12-6 0-.5-.99-.5-.99-1-2-5.16-.4-5.16-.4-10 1 .6.4 1.21.8 1.83 1.21.8.53 1.6 1.06 2.42 1.6 1.18.79 1.18.79 2.39 1.58 4.58 3.12 4.58 3.12 6.36 4.61v2c-.92-.01-1.83-.02-2.77-.04-1.19 0-2.38-.01-3.61-.02-1.18-.01-2.36-.03-3.58-.04-2.96-.11-2.96-.11-5.04 1.1l10 1v2l5 1-1 4c-5.67 2.61-12.28 3.29-18.39 4.41-7.26 1.39-13.96 3.27-20.61 6.59-3.25.12-3.25.12-6 0l-1 6h9c-12.22 6.11-30.4 10.69-44 8-3.73-3.02-4.87-4.99-5.5-9.75.24-13.49 11.18-24.63 20.56-33.12 20.91-16.81 47.52-16.75 69.94-3.13"/><path fill="#ccac5d" d="M248.806 488.912c14.09 4.8 27.24 10.77 40.19 18.09-4.1 2.05-9.63-.08-14-1 2.29 4.57 3.1 4.81 7.63 6.62 1.82.74 3.62 1.51 5.37 2.38v2c2.6 1.26 4.9 1.98 7.75 2.44.75.18 1.49.37 2.25.56l1 3c1.99 1.86 1.99 1.86 4.38 3.62.79.61 1.58 1.23 2.4 1.85 2.23 1.68 2.23 1.68 5.22 2.53 1.72 1.62 3.37 3.3 5 5 .62.6 1.24 1.2 1.88 1.81l1.94 1.88c.6.58 1.21 1.16 1.83 1.76 1.35 1.55 1.35 1.55 1.35 3.55h2c1.03 1.65 2.02 3.32 3 5 1.57 2.13 3.18 4.23 4.8 6.33 1.2 1.67 1.2 1.67 1.2 2.67h-5c-.08-.74-.17-1.48-.25-2.24-.9-3.32-2.16-4.65-4.62-7.01-.7-.69-1.4-1.37-2.12-2.08-2-1.87-2-1.87-5.01-2.67v-2h-2v-2l-4-2c-1.42-1.05-2.81-2.14-4.18-3.25a147 147 0 0 0-11.37-8.14c-1.81-1.19-3.59-2.42-5.36-3.66-4.61-3.2-8.81-6.11-14.21-7.76-3.88-1.19-3.88-1.19-5.88-4.19-1.03-.52-2.06-1.03-3.12-1.56-.95-.48-1.9-.95-2.88-1.44v-2l-2-1-2-2-4-1v-2c-.68.06-1.36.12-2.06.19-3.76-.24-6.5-1.68-9.94-3.19-1.98-.4-3.98-.76-6-1v-2h-5c1.1 1.29 2.21 2.58 3.32 3.87.61.72 1.23 1.44 1.86 2.18 1.87 2.14 1.87 2.14 4.82 3.95v2h2v2h2v2l4 2v2l4 2 3 2v2h3v2h2v2h2q1.53 2.985 3 6c.99.49.99.49 2 1v3l3 1v3h2c1.48 2.3 1.48 2.3 3.07 5.31.52.99 1.05 1.97 1.59 2.99 1.34 2.7 1.34 2.7 2.34 5.7l2 1c1.4 2.65 2.72 5.3 4 8 6.15 15.05 6.15 15.05 16 27 .19 3.12.19 3.12 0 6-3.67-3.25-6.01-7.02-8.53-11.17-.48-.61-.97-1.21-1.47-1.83h-3c-1.99-2.23-3.65-4.32-5-7-2.95 2.95-2.61 5.96-3 10h2c2 4 2 4 1 8-.46-.85-.46-.85-.92-1.72-3.67-6.78-7.36-13.53-11.08-20.28-.48-.88-.96-1.75-1.45-2.65-11.31-20.47-25.17-37.22-41.84-53.56-.91-.89-1.81-1.78-2.74-2.69-1.78-1.74-3.56-3.47-5.35-5.19-9.7-9.48-9.7-9.48-9.55-17.16 4.33-12.71 26.71-3.77 35.74-.84"/><path fill="#93a748" d="M560.25 608.875c1.7-.01 1.7-.01 3.43-.01h3.21c.96 0 1.92 0 2.91.01 2.2.12 2.2.12 3.2 1.12 1.73.16 1.73.16 3.5.32 1.73.34 1.73.34 3.5.68.5 1.99.5 1.99 1 4-12.25 7.19-24.95 12.88-38.69 16.5-3.02.81-5.5 1.6-8.31 3-2.67 1.34-4.82 2.04-7.69 2.76-6.23 1.6-12.17 3.86-18.19 6.13-4.57 1.71-9.12 3.27-13.81 4.61-6.51 1.9-12.5 4.76-18.58 7.71-4.13 1.43-6.52 1.27-10.73.29 2.14-6.42 13.4-9.55 19.54-12.02 4.1-1.57 8.23-3.07 12.38-4.53 3.06-1.08 6.08-2.21 9.08-3.45-.33-.33-.66-.65-1-1-2.43.43-4.84.92-7.25 1.44-4.33.94-8.31 1.78-12.75 1.56 5.01-11.13 12.34-19.04 24.2-22.55.84-.23 1.68-.46 2.55-.69.88-.26 1.76-.51 2.67-.76 6.47-1.8 12.9-3.26 19.58-4 1.35-.16 1.35-.16 2.73-.33 7.83-.77 15.67-.77 23.52-.79"/><path fill="#627a40" d="M285 574c3 3 3 3 4 7l-1 2 4 1c2.71 3.99 4 6.13 4 11l2 1c1.29 1.74 1.29 1.74 2.62 3.88.45.69.9 1.39 1.36 2.11C303 604 303 604 303 607h2c1.26 1.87 1.26 1.87 2.69 4.44 2.64 4.59 5.62 8.66 8.99 12.75C318 626 318 626 318 628h2c9 8.29 9 8.29 9 12l4 2-2 3c.87 2.07.87 2.07 2.38 4.06 2.62 3.77 2.62 3.77 2.62 5.94h2c1.19 1.81 1.19 1.81 2.56 4.44.53.99 1.05 1.99 1.59 3.02.61 1.17 1.22 2.34 1.85 3.54l2.25 4.2c3.85 7.16 7.53 14.33 10.75 21.8.99 1.49.99 1.49 2 3 .08 3.32.08 3.32-.19 7.12-.07 1.27-.15 2.53-.23 3.83-.19 1-.38 2.01-.58 3.05l-3 1-1-3-3-3c-1.26-2.65-2.43-5.29-3.56-8-9.94-22.9-22.73-44.36-37.75-64.3-5.37-7.25-9.99-15.01-14.69-22.7-.42-.68-.84-1.35-1.27-2.05-4.52-7.28-7.69-13.4-8.73-21.95h-2c-.25-7.62-.25-7.62 2-11"/><path fill="#babf55" d="M302 715c-2 2-3.64 2.95-6.12 4.25-3.33 1.8-6.33 3.75-9.32 6.06C283 728 283 728 281 728l-2 4c-1.66 2.01-3.33 4.01-5 6-2.35 3.1-2.35 3.1-4 6l1 2c3.15-.6 6.29-1.2 9.44-1.81.88-.17 1.75-.33 2.66-.5 5.08-1 9.89-2.26 14.77-3.97 5.91-2 12.07-3.28 18.13-4.72.93-.23 1.87-.46 2.83-.7 5.63-1.28 10.94-1.44 16.7-1.27 2.47.15 2.47.15 4.47-1.03l-1 4c-5.67 2.61-12.28 3.29-18.39 4.41-7.26 1.39-13.96 3.27-20.61 6.59-3.25.12-3.25.12-6 0l-1 6h9c-12.22 6.11-30.4 10.69-44 8-3.73-3.02-4.87-4.99-5.5-9.75.1-9.79 6.78-19.53 13.5-26.25h1v8c4.63-2.8 9-5.73 13.31-9 6.45-4.74 13.42-9.47 21.69-9"/><path fill="#605834" d="M435 723c2.48.5 2.48.5 5 1v2h2v-2h2c-.53 5.1-3.15 9.04-5.69 13.38-14.42 25.35-19.98 51.34-12.12 79.81 1.88 7.1 2.43 13.59.81 20.81l-2 2c-.85-3.65-1.08-6.95-1-10.69.18-3.8.18-3.8-1-7.31h2l-3-8c-.14 1.46-.29 2.93-.44 4.44-.44 4.44-.44 4.44-1.56 5.56-.13 1.54-.23 3.08-.31 4.62-.44 5.11-1.85 8.16-4.69 12.38l-5-1c.14-1.71.29-3.42.44-5.12.08-.96.16-1.91.24-2.89.32-2.99.32-2.99.82-5.67.72-4.78.87-9.55 1.06-14.38.05-1.06.09-2.12.14-3.21.23-6 .31-11.96.22-17.95-.13-7.87.19-15.44 1.39-23.22.12-.77.24-1.55.36-2.35.99-5.73 2.84-10.13 6.21-14.83 1.95-3.11 3.25-5.99 4.62-9.38 1.77-4.4 3.73-8.12 6.5-12 1.03-1.99 2.04-3.98 3-6"/><path fill="#bba556" d="M221 487v6h2c1.45 1.47 1.45 1.47 3.12 3.5 3.75 4.4 7.76 8.45 11.88 12.5.79.79 1.58 1.58 2.39 2.4q2.64 2.64 5.34 5.22C256.33 526.92 284 553.95 284 570c1.49.5 1.49.5 3 1 1.62 1.76 3.04 3.61 4.5 5.5 1.5 1.85 1.5 1.85 4.5 1.5 1.28 1.9 1.28 1.9 2.5 4.38 1.66 3.35 2.29 4.48 5.5 6.62.19 3.12.19 3.12 0 6-3.67-3.25-6.01-7.02-8.54-11.17-.48-.61-.96-1.21-1.46-1.83h-3c-2-2.23-3.66-4.32-5-7-2.95 2.95-2.61 5.96-3 10h2c2 4 2 4 1 8l-.93-1.72Q279.58 581.125 274 571c-.48-.87-.96-1.75-1.45-2.65-13.29-24.06-30.63-42.66-50.11-61.88-.82-.81-1.65-1.62-2.49-2.46-.74-.73-1.48-1.45-2.24-2.2-2.62-2.77-2.89-4.59-2.96-8.31-.03-.79-.05-1.59-.08-2.41.59-3.76 2.89-4.09 6.33-4.09"/><path fill="#dbca5d" d="m494 426 4 1c-.66 4.34-2.1 8.05-4 12l-2 1v-5h3v-4l-2.12 2.12c-1.95 1.95-3.91 3.89-5.89 5.82-1.03 1.01-2.06 2.02-3.11 3.06-1.04 1.01-2.07 2.02-3.14 3.06-2.42 2.59-3.95 4.93-5.74 7.94-1.67 1.73-3.38 3.41-5.12 5.06-4.87 4.77-8.95 9.76-12.94 15.28-1.53 2.09-3.15 4.11-4.82 6.1-2.14 2.45-2.14 2.45-3.56 5-1.7 2.79-3.73 5.15-5.88 7.6-4.62 5.38-8.57 10.57-11.68 16.96h-2l-2 4c-.61 1.19-1.21 2.38-1.84 3.61l-2.1 4.14c-.34.68-.69 1.36-1.05 2.05-1.78 3.52-3.33 6.99-4.64 10.72-.45 1.15-.9 2.3-1.37 3.48h-2c-.1.68-.19 1.36-.29 2.05-.88 3.65-2.38 6.7-4.02 10.07-2.95 6.19-5.51 12.38-7.69 18.88-1.14-4.56-.62-6.02.84-10.39.63-1.89.63-1.89 1.27-3.82.46-1.33.92-2.67 1.39-4.04.46-1.36.92-2.72 1.4-4.12 6.97-20.28 16.15-38.8 28.1-56.63l1.61-2.43c1.07-1.57 2.22-3.08 3.39-4.57h2c.27-.7.55-1.41.83-2.13 1.44-3.54 3.43-5.85 5.92-8.75.48-.55.95-1.1 1.44-1.68 20.76-23.92 20.76-23.92 30.69-31.25 3.07-2.17 3.07-2.17 5.12-5.19.97-.27 1.94-.54 2.94-.81 3.27-.88 3.27-.88 4.44-3.81.3-1.18.3-1.18.62-2.38"/><path fill="#73983a" d="M289 580c3.92.16 4.85.81 7.35 3.94.75 1.2 1.5 2.39 2.27 3.62 2.18 3.55 2.18 3.55 4.38 6.44h3c.18.64.36 1.28.55 1.93.25.83.5 1.66.76 2.51.37 1.23.37 1.23.74 2.49.81 2.43.81 2.43 3.95 3.07l1 4c1.47 2.87 2.95 4.95 5.24 7.24 3.04 3.04 5.85 6.24 8.64 9.51.79.93.79.93 1.6 1.87 3.42 4.03 6.72 8.13 9.92 12.34 2.3 2.93 4.8 5.67 7.31 8.41C347 649 347 649 347 651h2v2l4 2c2 3 2 3 2 6 1.98.5 1.98.5 4 1 1.92 1.67 1.92 1.67 3.75 3.75.61.68 1.23 1.35 1.86 2.05 1.39 2.2 1.39 2.2 1.34 4.84.03 1.17.03 1.17.05 2.36l4 2c1.55 1.8 1.55 1.8 2.88 3.88.45.67.9 1.35 1.36 2.05C375 685 375 685 373 689c-.57-.71-1.14-1.42-1.72-2.16-2.23-2.78-4.47-5.57-6.72-8.34-.74-.92-1.48-1.84-2.24-2.78-2.29-2.76-2.29-2.76-4.92-5.25-2.32-2.39-3.7-4.63-5.4-7.47-1.77-2.04-3.59-4.03-5.44-6-2.66-2.84-5.27-5.62-7.66-8.69-1.84-2.23-3.52-3.64-5.9-5.25-3.61-2.59-5.62-5.28-8-9.06-1.65-1.35-3.32-2.69-5-4v-2h-2c-1.31-1.5-1.31-1.5-2.79-3.58-.53-.75-1.06-1.5-1.6-2.27l-1.67-2.4c-.56-.78-1.11-1.55-1.68-2.36-2.54-3.61-4.17-6.04-5.26-10.39h-2c-4-7.29-4-7.29-4-10l-2-1c-1.6-3.06-3.02-6.18-4.46-9.31-1.31-2.98-1.31-2.98-4.54-3.69z"/><path fill="#d1cc59" d="M360 531c3.29 2.99 5.24 5.94 7.28 9.88.59 1.15 1.19 2.3 1.8 3.48.62 1.2 1.23 2.4 1.86 3.64.61 1.17 1.21 2.34 1.84 3.54 3.36 6.54 6.44 13.11 9.18 19.94.91 2.21 1.97 4.37 3.04 6.52.29 2.24.49 4.49.62 6.75.08 1.17.15 2.34.23 3.55.05.89.1 1.78.15 2.7-1.49.5-1.49.5-3 1-.27-.66-.53-1.32-.81-2l-3.63-8.94-1.27-3.15c-.41-.99-.81-1.98-1.22-3-.38-.92-.75-1.83-1.13-2.78-.76-2.07-.76-2.07-1.94-3.13 1.34 11.12 1.34 11.12 3 22.19 2.92 19.14 3.03 37.48 2 56.81h-1c-.1-.79-.2-1.57-.3-2.38-6.14-53.67-6.14-53.67-15.86-106.73C360 535 360 535 360 531"/><path fill="#bbc45b" d="M575 611h5c.5 1.98.5 1.98 1 4-12.25 7.18-24.95 12.88-38.69 16.5-3.02.8-5.5 1.59-8.31 3-2.67 1.33-4.82 2.03-7.69 2.75-6.23 1.61-12.17 3.86-18.19 6.13-4.57 1.71-9.12 3.27-13.81 4.62-6.51 1.89-12.5 4.75-18.58 7.71-4.13 1.43-6.52 1.26-10.73.29 2.13-6.4 13.18-9.43 19.28-11.94 5.52-2.17 11.11-4.13 16.72-6.06l2.57-.89c10.45-3.59 20.96-6.97 31.6-9.98 4.79-1.39 9.25-3.11 13.78-5.2 2.6-1.18 5.24-2.2 7.93-3.18.9-.34 1.8-.67 2.74-1.02C562 617 562 617 565 617v-2l2.94.12L571 615l1-2h3z"/><path fill="#d8cd5f" d="M223 492c5.96.35 8.08 1.6 12 6 2.12 1.85 4.27 3.65 6.43 5.45C243 505 243 505 243 507h2v2h2v2l4 2v2l4 2 3 2v2h3v2h2v2h2q1.53 2.985 3 6c.99.5.99.5 2 1v3l3 1v3h2c1.47 2.3 1.47 2.3 3.06 5.31.53.99 1.06 1.97 1.6 2.99C281 550 281 550 282 553c.99.5.99.5 2 1 .93 1.76 1.85 3.54 2.71 5.34 1.01 2.08 2.05 4.14 3.11 6.2.63 1.24 1.27 2.49 1.93 3.77.61 1.19 1.23 2.39 1.86 3.62C295 576 295 576 295 579c-4.34-2.17-6.02-4.26-9-8l-3-3c-1.52-2.55-2.99-5.1-4.44-7.69-9.82-17.08-22.49-32.83-36.76-46.38C240 512 240 512 240 510l-4-2c-2.32-2.1-4.54-4.22-6.75-6.44-.9-.88-.9-.88-1.82-1.77-4.43-4.42-4.43-4.42-4.43-7.79"/><path fill="#838d4d" d="M343 715c.5.99.5.99 1 2-2.94.12-2.94.12-6 0-.5-.99-.5-.99-1-2-5.37-.38-5.37-.38-10.44 1.12-3.3 1.13-5.49.24-8.8-.58-13.74-2.7-25.77.55-37 8.86-1.82 1.52-3.6 3.07-5.33 4.68-2.71 2.14-5.12 3.01-8.43 3.92-.74-4.68-1.14-7.45 1.73-11.36 21-19.93 50.13-21.3 74.27-6.64"/><path fill="#78a044" d="M464 654c.5.99.5.99 1 2 3.03.66 3.03.66 6 1-2.63 2.04-5.27 3.8-8.17 5.43-11.94 6.84-22.57 14.4-32.83 23.57-.83.74-1.66 1.48-2.52 2.24-5.58 5.3-10 11.53-14.48 17.76l-3-1c9.2-23.76 32.68-39 54-51"/><path fill="#cdbd55" d="M263 505c5.51 1.67 10.74 3.65 16 6 .8.33 1.61.67 2.43 1.01.83.35 1.66.69 2.51 1.05.77.32 1.54.64 2.34.98.57.31 1.13.63 1.72.96v2c2.59 1.26 4.9 1.98 7.75 2.44.74.18 1.49.37 2.25.56.5 1.49.5 1.49 1 3 1.98 1.86 1.98 1.86 4.38 3.62.79.62 1.58 1.23 2.39 1.86 2.24 1.68 2.24 1.68 5.23 2.52 1.71 1.62 3.37 3.3 5 5l1.88 1.82c.64.61 1.28 1.23 1.93 1.87.61.58 1.21 1.16 1.83 1.76C323 543 323 543 323 545h2c1.03 1.65 2.02 3.32 3 5 1.57 2.13 3.17 4.23 4.79 6.33C334 558 334 558 334 559h-5c-.09-.74-.17-1.47-.26-2.23-.89-3.33-2.15-4.65-4.62-7.02-.69-.69-1.39-1.37-2.11-2.08-2-1.87-2-1.87-5.01-2.67v-2h-2v-2l-4-2c-1.42-1.05-2.81-2.14-4.19-3.25-3.68-2.91-7.43-5.59-11.36-8.14q-2.715-1.785-5.37-3.66c-4.61-3.2-8.81-6.11-14.2-7.76C272 515 272 515 270 512c-1.03-.52-2.06-1.03-3.12-1.56-1.43-.71-1.43-.71-2.88-1.44v-2l-2-1z"/><path fill="#5c7d3b" d="m486 618 8 1-2 6h-2c-.1.68-.21 1.36-.31 2.06-.69 2.94-.69 2.94-2.38 6.63-.43 1.09-.86 2.18-1.31 3.31l2 2c-2.07.56-2.07.56-4.19 1.12-5.65 1.68-10.83 4.11-16.12 6.67C465 648 465 648 463 648c3.46-6.92 8.29-12.07 15-16-.79-4.9-.79-4.9-4-8 5.29-4.06 5.29-4.06 8.88-3.75.7.25 1.4.5 2.12.75z"/><path fill="#98964c" d="M301 746c-1.83 1.83-4.56 1.05-7 1l-1 6h9c-13.53 6.77-28.2 7.21-43 7v-2l-2-2c2-3 2-3 5.18-3.52 1.36-.1 2.73-.19 4.13-.29 8.26-.72 15.85-2.74 23.73-5.25.85-.26 1.7-.52 2.57-.8l2.28-.73C297 745 297 745 301 746"/><path fill="#b4a764" d="M267 725v8l5-2c-2.15 4.3-4.69 8.15-7.34 12.15-1.69 2.89-2.72 5.65-3.66 8.85h8v1c-1.07.07-1.07.07-2.15.15-.92.07-1.84.15-2.79.23-1.37.1-1.37.1-2.77.21-.76.13-1.51.27-2.29.41l-1 2 2 2-1 2 19-1c-4.46 2.23-7.06 2.33-12 2.38l-4.25.08c-4.17-.51-5.29-1.15-7.75-4.46-2.45-4.9-1.56-9.58.35-14.46C262.84 725 262.84 725 267 725"/><path fill="#476734" d="m338 714 1 2c1.07.12 2.14.25 3.25.38 4.15.69 5.7 1.84 8.75 4.62l2 1v2l7 1c-.5-1.98-.5-1.98-1-4l2-1c.12 1.13.25 2.27.38 3.44.2 1.17.41 2.35.62 3.56l2 1-7 1v2l4 1c-3.62 1.21-4.3.69-7.69-.81-3.3-1.42-6.07-2.36-9.62-3.13-4.32-1.24-5.63-2.85-8.69-6.06-2.92-1.82-5.94-3.43-9-5 4.2-4.2 6.22-3.41 12-3"/><path fill="#bac44e" d="M370 560c1.49.99 1.49.99 3 2l4-2c.41.96.82 1.93 1.24 2.92.54 1.27 1.08 2.53 1.64 3.83.8 1.88.8 1.88 1.61 3.8 1.1 2.51 2.28 4.99 3.51 7.45.29 2.24.49 4.49.62 6.75.08 1.17.15 2.34.23 3.55.05.89.1 1.78.15 2.7l-3 1c-.27-.66-.53-1.32-.81-2l-3.63-8.94c-.42-1.04-.84-2.08-1.27-3.15-.41-.99-.81-1.98-1.22-3-.38-.92-.75-1.83-1.13-2.78-.76-2.07-.76-2.07-1.94-3.13-.99.5-.99.5-2 1z"/><path fill="#74533d" d="M413 804c1.76 3.52 2.67 6.33 3.56 10.12.91 4.06.91 4.06 2.44 7.88.69 7.49.47 12.85-4 19l-5-1c.14-1.71.29-3.42.44-5.12.08-.96.16-1.91.24-2.89.32-2.99.32-2.99.82-5.74.67-4.37.86-8.72 1.06-13.13.05-.87.09-1.75.13-2.66.11-2.15.21-4.31.31-6.46"/><path fill="#527e33" d="M375 685c4.13 3.45 5.94 7.72 8 12.56.35.81.69 1.61 1.05 2.44 1 2.33 1.98 4.66 2.95 7 .46 1.09.93 2.19 1.41 3.31 2.31 5.82 3 10.43 2.59 16.69-2.16-3.24-3.47-6.42-5-10-.82-1.67-1.66-3.34-2.5-5-1.42-2.79-2.73-5.54-3.94-8.44-1.86-4.24-4.21-8.08-6.65-12.01-.91-2.55-.91-2.55.43-4.88.82-.83.82-.83 1.66-1.67"/><path fill="#b2b758" d="M557 610v1c-2.25.16-4.49.33-6.74.49-2.68.39-2.68.39-5.26 3.51-2.15.37-2.15.37-4.66.37-1.39.02-1.39.02-2.82.05l-3.02.02c-10.89.24-20.96 1.91-31.5 4.56v-2c16.52-7.12 36.18-10.39 54-8"/><path fill="#537f34" d="M410 707h2c-1.07 3.13-2.38 5.58-4.19 8.38-4.48 6.97-8.05 14.8-10.89 22.58-.3.67-.61 1.35-.92 2.04h-2l-1-8h2c.1-.8.21-1.61.31-2.44.85-4.37 2.23-8.36 3.69-12.56h2l1-6h2l1-2 2 2c.45-.66.91-1.32 1.38-2 .8-.99.8-.99 1.62-2"/><path fill="#9eb754" d="m489 644-3 1c-.35 3.12-.35 3.12 2 5-2.51 1.21-5.03 2.39-7.56 3.56-.71.34-1.41.69-2.14 1.04-4.88 2.23-8.09 2.65-13.3 1.4 1.46-4.38 4.82-5.2 8.75-7.06.72-.35 1.43-.71 2.17-1.07 10.56-5.13 10.56-5.13 13.08-3.87"/><path fill="#96b552" d="M418 624h2c-.49 3.12-1 6-2 9l2 1c-1.07 1.8-2.16 3.59-3.25 5.38-.6.99-1.21 1.99-1.83 3.02C413 645 413 645 409 647a130 130 0 0 0-5 6c-1.45-4.36.32-6.04 2.5-10 .55-.99.55-.99 1.1-2.01 6.91-12.46 6.91-12.46 10.4-16.99"/><path fill="#a8c051" d="M375 592h1c2.72 18.87 3.19 36.98 2 56h-1c-.54-3.46-1.05-6.91-1.56-10.38-.15-.96-.31-1.93-.46-2.92-.81-5.57-.98-10.51-.26-16.09.54-5.06.38-10.15.34-15.23 0-1.1-.01-2.2-.01-3.34-.01-2.68-.03-5.36-.05-8.04"/><path fill="#d2c358" d="M263 505c20.05 6.08 20.05 6.08 24 12h-2v2c-2.91-.73-5.76-1.48-8.62-2.38-.78-.23-1.56-.46-2.36-.71C272 515 272 515 270 512c-1.03-.52-2.06-1.03-3.12-1.56-1.43-.71-1.43-.71-2.88-1.44v-2l-2-1z"/><path fill="#d5d0aa" d="M586 606c.5.99.5.99 1 2-1.11-.46-1.11-.46-2.25-.94-4.43-1.25-8.65-1.54-13.24-1.81C569 605 569 605 568 604c-3.32-.09-6.62-.12-9.94-.1-1 0-2 .01-3.02.01q-4.8 0-9.6.03c-2.17 0-4.33.01-6.49.01-5.32.01-10.63.03-15.95.05v-1c19.15-3.15 45.11-5.87 63 3"/><path fill="#56803c" d="M380 741v2h3c1.82 1.64 1.82 1.64 3.69 3.81.62.71 1.24 1.42 1.88 2.15C390 751 390 751 390 754l3 1c3.25 6.26 3.25 6.26 2 10-.33-.55-.66-1.09-1-1.65-5.77-9.15-12.12-16.09-22.13-20.47-.62-.29-1.23-.58-1.87-.88v-1c3.7-.95 6.3-.95 10 0"/><path fill="#c7d461" d="M371 590h4c1.23 10.57 2.03 21.5 0 32h-1c-3.57-21.53-3.57-21.53-3-32"/><path fill="#608435" d="M427 605c1 3 1 3 .03 5.02-.5.78-1.01 1.56-1.53 2.36-3.21 5.08-6.02 10.3-8.79 15.64-1.69 2.94-3.44 5.47-5.71 7.98h-2c.8-3.21 1.59-6.02 3-9h2c.48-1.56.96-3.12 1.44-4.69.26-.87.53-1.74.81-2.63.71-2.55 1.27-5.08 1.75-7.68l1 2c2.93-2.85 5.64-5.65 8-9"/><path fill="#708f31" d="M448 585h1c-.62 8.62-.62 8.62-4 12-1.33 3.12-2.47 6.29-3.62 9.48-.46.83-.91 1.66-1.38 2.52h-4c-1.11 2.39-1.11 2.39-2 5-1.49.99-1.49.99-3 2 1.28-4.98 3.61-8.55 6.49-12.71 1.37-2.07 2.5-4.12 3.57-6.35 2.07-4.21 4.36-8.03 6.94-11.94"/><path fill="#baae51" d="M315 536c6.88 5.62 6.88 5.62 8 9h2c1.03 1.65 2.02 3.32 3 5 1.57 2.13 3.17 4.23 4.79 6.33C334 558 334 558 334 559h-5c-.09-.74-.17-1.47-.26-2.23-.89-3.33-2.15-4.65-4.62-7.02-.69-.69-1.39-1.37-2.11-2.08-2-1.87-2-1.87-5.01-2.67v-2h-2v-2l-3-1 2-1z"/><path fill="#bcc359" d="m411 534 4 2 1-2v3h-2c-.1.68-.19 1.36-.29 2.05-.88 3.65-2.38 6.7-4.02 10.07-2.95 6.19-5.51 12.38-7.69 18.88-1.18-4.72-.47-6.41 1.09-10.95.45-1.34.91-2.68 1.38-4.07.48-1.39.97-2.79 1.47-4.23.48-1.43.97-2.85 1.46-4.28q1.785-5.235 3.6-10.47"/><path fill="#bac153" d="m473 496 2 1c-.23 2.09-.48 4.17-.75 6.25-.14 1.16-.28 2.32-.42 3.52-.94 3.65-2.12 4.73-4.83 7.23l-1 4h-2c.58-6.81 1.57-13.32 3-20l1 2h2z"/><path fill="#c0c098" d="M584 623c-8.85 6.12-18.21 10.62-28 15-1.26.59-2.53 1.19-3.83 1.8C549 641 549 641 546 640c5.75-3 5.75-3 8-3v-2c2.69-1.79 4.66-2.66 7.69-3.62.81-.27 1.61-.53 2.45-.79.61-.2 1.23-.39 1.86-.59v-1l8-1-1-3h5v-2c4-1 4-1 6 0"/><path fill="#acbf45" d="M384 575c1.11 3.32 1.32 6.2 1.56 9.69.09 1.18.17 2.36.26 3.57.06.91.12 1.81.18 2.74l-3 1q-1.515-3.405-3-6.81c-.56-1.27-1.11-2.53-1.69-3.83C377 578 377 578 377 575c3-1 3-1 7 0"/><path fill="#457031" d="M384 702c5.07 7.61 7.77 15.89 7 25-2.16-3.24-3.47-6.42-5-10q-2.025-3.9-4.11-7.77C381 707 381 707 382 704z"/><path fill="#dac797" d="M242 487v1c-.71-.01-1.42-.01-2.16-.02-3.21-.02-6.43-.03-9.65-.04l-3.4-.03c-1.07 0-2.14 0-3.25-.01-.99 0-1.98-.01-3-.01-2.66 0-2.66 0-5.54 1.11v8c-2.17-4.35-2.34-5.49-1-10 7.23-6.87 19.54-2.26 28 0"/><path fill="#dad0a7" d="M359.375 521.563c4.12.5 5.69 1.59 8.62 4.44-.32.66-.66 1.32-1 2-.66-.66-1.31-1.32-2-2-2.44-.25-2.44-.25-5.12-.13l-2.76.06c-.7.02-1.4.04-2.12.07-.19 8.08-.12 15.69 1.56 23.61.59 3.15.59 6.2.44 9.39h-1c-.7-3.98-1.38-7.96-2.06-11.94-.2-1.12-.4-2.23-.6-3.38-1.09-6.54-1.7-12.16-.34-18.68 3-3 3-3 6.38-3.44"/><path fill="#5b3a1e" d="M422 811h1c1.49 4.48 2.21 7.42 1 12l1 1c.07 1.85.08 3.71.06 5.56-.01 1.01-.02 2.03-.02 3.07-.02.78-.03 1.56-.04 2.37h-1l-1-9-.88 2.94C421 832 421 832 419 833c-.12-8.88-.12-8.88 1-10 .4-2.01.74-4.04 1.06-6.06.27-1.66.27-1.66.54-3.35.13-.85.26-1.71.4-2.59"/><path fill="#678431" d="M508 636c-2.66 1.13-5.33 2.26-8 3.38q-1.11.465-2.25.96c-4.87 2.03-9.61 3.5-14.75 4.66v-2l8-2-1-4c2.43-.56 4.87-1.1 7.31-1.62 1.36-.31 2.72-.61 4.12-.92C505 634 505 634 508 636"/><path fill="#dfd7b5" d="M494 457c1.41 4.23-.22 7.26-1.62 11.31-3.57 10.73-6.03 21.64-8.38 32.69h-1c-.03-1.81-.05-3.62-.06-5.44-.01-1.01-.03-2.02-.04-3.06.1-2.5.1-2.5 1.1-3.5.23-1.51.41-3.04.56-4.56.15-1.47.29-2.93.44-4.44h2c.17-.74.34-1.48.52-2.24 1.7-7.13 3.83-13.93 6.48-20.76"/><path fill="#a29585" d="M423 809c4.65 9.31 6.04 18.74 4 29l-2 2c-.85-3.65-1.08-6.95-1-10.69.18-3.8.18-3.8-1-7.31h2l-1-2c-1.25-3.76-1.13-7.06-1-11"/></svg>